<?xml version="1.0" encoding="utf-8"?>
<svg xmlns="http://www.w3.org/2000/svg" xmlns:xlink="http://www.w3.org/1999/xlink" width="600" height="400" viewBox="0 0 2400 1600">
<defs>
  <clipPath id="clip920">
    <rect x="0" y="0" width="2400" height="1600"/>
  </clipPath>
</defs>
<path clip-path="url(#clip920)" d="M0 1600 L2400 1600 L2400 0 L0 0  Z" fill="#ffffff" fill-rule="evenodd" fill-opacity="1"/>
<defs>
  <clipPath id="clip921">
    <rect x="480" y="0" width="1681" height="1600"/>
  </clipPath>
</defs>
<path clip-path="url(#clip920)" d="M186.274 1486.45 L2352.76 1486.45 L2352.76 47.2441 L186.274 47.2441  Z" fill="#ffffff" fill-rule="evenodd" fill-opacity="1"/>
<defs>
  <clipPath id="clip922">
    <rect x="186" y="47" width="2167" height="1440"/>
  </clipPath>
</defs>
<polyline clip-path="url(#clip922)" style="stroke:#000000; stroke-linecap:round; stroke-linejoin:round; stroke-width:2; stroke-opacity:0.1; fill:none" points="247.59,1486.45 247.59,47.2441 "/>
<polyline clip-path="url(#clip922)" style="stroke:#000000; stroke-linecap:round; stroke-linejoin:round; stroke-width:2; stroke-opacity:0.1; fill:none" points="673.392,1486.45 673.392,47.2441 "/>
<polyline clip-path="url(#clip922)" style="stroke:#000000; stroke-linecap:round; stroke-linejoin:round; stroke-width:2; stroke-opacity:0.1; fill:none" points="1099.19,1486.45 1099.19,47.2441 "/>
<polyline clip-path="url(#clip922)" style="stroke:#000000; stroke-linecap:round; stroke-linejoin:round; stroke-width:2; stroke-opacity:0.1; fill:none" points="1525,1486.45 1525,47.2441 "/>
<polyline clip-path="url(#clip922)" style="stroke:#000000; stroke-linecap:round; stroke-linejoin:round; stroke-width:2; stroke-opacity:0.1; fill:none" points="1950.8,1486.45 1950.8,47.2441 "/>
<polyline clip-path="url(#clip922)" style="stroke:#000000; stroke-linecap:round; stroke-linejoin:round; stroke-width:2; stroke-opacity:0.1; fill:none" points="186.274,1457.25 2352.76,1457.25 "/>
<polyline clip-path="url(#clip922)" style="stroke:#000000; stroke-linecap:round; stroke-linejoin:round; stroke-width:2; stroke-opacity:0.1; fill:none" points="186.274,1241.84 2352.76,1241.84 "/>
<polyline clip-path="url(#clip922)" style="stroke:#000000; stroke-linecap:round; stroke-linejoin:round; stroke-width:2; stroke-opacity:0.1; fill:none" points="186.274,1026.44 2352.76,1026.44 "/>
<polyline clip-path="url(#clip922)" style="stroke:#000000; stroke-linecap:round; stroke-linejoin:round; stroke-width:2; stroke-opacity:0.1; fill:none" points="186.274,811.033 2352.76,811.033 "/>
<polyline clip-path="url(#clip922)" style="stroke:#000000; stroke-linecap:round; stroke-linejoin:round; stroke-width:2; stroke-opacity:0.1; fill:none" points="186.274,595.628 2352.76,595.628 "/>
<polyline clip-path="url(#clip922)" style="stroke:#000000; stroke-linecap:round; stroke-linejoin:round; stroke-width:2; stroke-opacity:0.1; fill:none" points="186.274,380.223 2352.76,380.223 "/>
<polyline clip-path="url(#clip922)" style="stroke:#000000; stroke-linecap:round; stroke-linejoin:round; stroke-width:2; stroke-opacity:0.1; fill:none" points="186.274,164.819 2352.76,164.819 "/>
<polyline clip-path="url(#clip920)" style="stroke:#000000; stroke-linecap:round; stroke-linejoin:round; stroke-width:4; stroke-opacity:1; fill:none" points="186.274,1486.45 2352.76,1486.45 "/>
<polyline clip-path="url(#clip920)" style="stroke:#000000; stroke-linecap:round; stroke-linejoin:round; stroke-width:4; stroke-opacity:1; fill:none" points="247.59,1486.45 247.59,1467.55 "/>
<polyline clip-path="url(#clip920)" style="stroke:#000000; stroke-linecap:round; stroke-linejoin:round; stroke-width:4; stroke-opacity:1; fill:none" points="673.392,1486.45 673.392,1467.55 "/>
<polyline clip-path="url(#clip920)" style="stroke:#000000; stroke-linecap:round; stroke-linejoin:round; stroke-width:4; stroke-opacity:1; fill:none" points="1099.19,1486.45 1099.19,1467.55 "/>
<polyline clip-path="url(#clip920)" style="stroke:#000000; stroke-linecap:round; stroke-linejoin:round; stroke-width:4; stroke-opacity:1; fill:none" points="1525,1486.45 1525,1467.55 "/>
<polyline clip-path="url(#clip920)" style="stroke:#000000; stroke-linecap:round; stroke-linejoin:round; stroke-width:4; stroke-opacity:1; fill:none" points="1950.8,1486.45 1950.8,1467.55 "/>
<path clip-path="url(#clip920)" d="M225.472 1517.37 Q221.86 1517.37 220.032 1520.93 Q218.226 1524.47 218.226 1531.6 Q218.226 1538.71 220.032 1542.27 Q221.86 1545.82 225.472 1545.82 Q229.106 1545.82 230.911 1542.27 Q232.74 1538.71 232.74 1531.6 Q232.74 1524.47 230.911 1520.93 Q229.106 1517.37 225.472 1517.37 M225.472 1513.66 Q231.282 1513.66 234.337 1518.27 Q237.416 1522.85 237.416 1531.6 Q237.416 1540.33 234.337 1544.94 Q231.282 1549.52 225.472 1549.52 Q219.661 1549.52 216.583 1544.94 Q213.527 1540.33 213.527 1531.6 Q213.527 1522.85 216.583 1518.27 Q219.661 1513.66 225.472 1513.66 Z" fill="#000000" fill-rule="nonzero" fill-opacity="1" /><path clip-path="url(#clip920)" d="M245.634 1542.97 L250.518 1542.97 L250.518 1548.85 L245.634 1548.85 L245.634 1542.97 Z" fill="#000000" fill-rule="nonzero" fill-opacity="1" /><path clip-path="url(#clip920)" d="M260.749 1514.29 L279.106 1514.29 L279.106 1518.22 L265.032 1518.22 L265.032 1526.7 Q266.05 1526.35 267.069 1526.19 Q268.087 1526 269.106 1526 Q274.893 1526 278.272 1529.17 Q281.652 1532.34 281.652 1537.76 Q281.652 1543.34 278.18 1546.44 Q274.707 1549.52 268.388 1549.52 Q266.212 1549.52 263.944 1549.15 Q261.698 1548.78 259.291 1548.04 L259.291 1543.34 Q261.374 1544.47 263.596 1545.03 Q265.819 1545.58 268.295 1545.58 Q272.3 1545.58 274.638 1543.48 Q276.976 1541.37 276.976 1537.76 Q276.976 1534.15 274.638 1532.04 Q272.3 1529.94 268.295 1529.94 Q266.42 1529.94 264.545 1530.35 Q262.694 1530.77 260.749 1531.65 L260.749 1514.29 Z" fill="#000000" fill-rule="nonzero" fill-opacity="1" /><path clip-path="url(#clip920)" d="M650.695 1517.37 Q647.084 1517.37 645.255 1520.93 Q643.45 1524.47 643.45 1531.6 Q643.45 1538.71 645.255 1542.27 Q647.084 1545.82 650.695 1545.82 Q654.329 1545.82 656.135 1542.27 Q657.964 1538.71 657.964 1531.6 Q657.964 1524.47 656.135 1520.93 Q654.329 1517.37 650.695 1517.37 M650.695 1513.66 Q656.505 1513.66 659.561 1518.27 Q662.64 1522.85 662.64 1531.6 Q662.64 1540.33 659.561 1544.94 Q656.505 1549.52 650.695 1549.52 Q644.885 1549.52 641.806 1544.94 Q638.751 1540.33 638.751 1531.6 Q638.751 1522.85 641.806 1518.27 Q644.885 1513.66 650.695 1513.66 Z" fill="#000000" fill-rule="nonzero" fill-opacity="1" /><path clip-path="url(#clip920)" d="M670.857 1542.97 L675.741 1542.97 L675.741 1548.85 L670.857 1548.85 L670.857 1542.97 Z" fill="#000000" fill-rule="nonzero" fill-opacity="1" /><path clip-path="url(#clip920)" d="M696.505 1529.7 Q693.357 1529.7 691.505 1531.86 Q689.676 1534.01 689.676 1537.76 Q689.676 1541.49 691.505 1543.66 Q693.357 1545.82 696.505 1545.82 Q699.653 1545.82 701.482 1543.66 Q703.334 1541.49 703.334 1537.76 Q703.334 1534.01 701.482 1531.86 Q699.653 1529.7 696.505 1529.7 M705.787 1515.05 L705.787 1519.31 Q704.028 1518.48 702.223 1518.04 Q700.44 1517.6 698.681 1517.6 Q694.051 1517.6 691.598 1520.72 Q689.167 1523.85 688.82 1530.17 Q690.186 1528.15 692.246 1527.09 Q694.306 1526 696.783 1526 Q701.991 1526 705 1529.17 Q708.033 1532.32 708.033 1537.76 Q708.033 1543.08 704.885 1546.3 Q701.737 1549.52 696.505 1549.52 Q690.51 1549.52 687.338 1544.94 Q684.167 1540.33 684.167 1531.6 Q684.167 1523.41 688.056 1518.55 Q691.945 1513.66 698.496 1513.66 Q700.255 1513.66 702.037 1514.01 Q703.843 1514.36 705.787 1515.05 Z" fill="#000000" fill-rule="nonzero" fill-opacity="1" /><path clip-path="url(#clip920)" d="M1077.03 1517.37 Q1073.42 1517.37 1071.59 1520.93 Q1069.78 1524.47 1069.78 1531.6 Q1069.78 1538.71 1071.59 1542.27 Q1073.42 1545.82 1077.03 1545.82 Q1080.66 1545.82 1082.47 1542.27 Q1084.3 1538.71 1084.3 1531.6 Q1084.3 1524.47 1082.47 1520.93 Q1080.66 1517.37 1077.03 1517.37 M1077.03 1513.66 Q1082.84 1513.66 1085.9 1518.27 Q1088.97 1522.85 1088.97 1531.6 Q1088.97 1540.33 1085.9 1544.94 Q1082.84 1549.52 1077.03 1549.52 Q1071.22 1549.52 1068.14 1544.94 Q1065.09 1540.33 1065.09 1531.6 Q1065.09 1522.85 1068.14 1518.27 Q1071.22 1513.66 1077.03 1513.66 Z" fill="#000000" fill-rule="nonzero" fill-opacity="1" /><path clip-path="url(#clip920)" d="M1097.19 1542.97 L1102.08 1542.97 L1102.08 1548.85 L1097.19 1548.85 L1097.19 1542.97 Z" fill="#000000" fill-rule="nonzero" fill-opacity="1" /><path clip-path="url(#clip920)" d="M1111.08 1514.29 L1133.3 1514.29 L1133.3 1516.28 L1120.76 1548.85 L1115.87 1548.85 L1127.68 1518.22 L1111.08 1518.22 L1111.08 1514.29 Z" fill="#000000" fill-rule="nonzero" fill-opacity="1" /><path clip-path="url(#clip920)" d="M1502.43 1517.37 Q1498.82 1517.37 1496.99 1520.93 Q1495.18 1524.47 1495.18 1531.6 Q1495.18 1538.71 1496.99 1542.27 Q1498.82 1545.82 1502.43 1545.82 Q1506.06 1545.82 1507.87 1542.27 Q1509.7 1538.71 1509.7 1531.6 Q1509.7 1524.47 1507.87 1520.93 Q1506.06 1517.37 1502.43 1517.37 M1502.43 1513.66 Q1508.24 1513.66 1511.29 1518.27 Q1514.37 1522.85 1514.37 1531.6 Q1514.37 1540.33 1511.29 1544.94 Q1508.24 1549.52 1502.43 1549.52 Q1496.62 1549.52 1493.54 1544.94 Q1490.48 1540.33 1490.48 1531.6 Q1490.48 1522.85 1493.54 1518.27 Q1496.62 1513.66 1502.43 1513.66 Z" fill="#000000" fill-rule="nonzero" fill-opacity="1" /><path clip-path="url(#clip920)" d="M1522.59 1542.97 L1527.47 1542.97 L1527.47 1548.85 L1522.59 1548.85 L1522.59 1542.97 Z" fill="#000000" fill-rule="nonzero" fill-opacity="1" /><path clip-path="url(#clip920)" d="M1547.66 1532.44 Q1544.32 1532.44 1542.4 1534.22 Q1540.51 1536 1540.51 1539.13 Q1540.51 1542.25 1542.4 1544.03 Q1544.32 1545.82 1547.66 1545.82 Q1550.99 1545.82 1552.91 1544.03 Q1554.83 1542.23 1554.83 1539.13 Q1554.83 1536 1552.91 1534.22 Q1551.01 1532.44 1547.66 1532.44 M1542.98 1530.45 Q1539.97 1529.7 1538.28 1527.64 Q1536.62 1525.58 1536.62 1522.62 Q1536.62 1518.48 1539.56 1516.07 Q1542.52 1513.66 1547.66 1513.66 Q1552.82 1513.66 1555.76 1516.07 Q1558.7 1518.48 1558.7 1522.62 Q1558.7 1525.58 1557.01 1527.64 Q1555.34 1529.7 1552.36 1530.45 Q1555.74 1531.23 1557.61 1533.52 Q1559.51 1535.82 1559.51 1539.13 Q1559.51 1544.15 1556.43 1546.83 Q1553.38 1549.52 1547.66 1549.52 Q1541.94 1549.52 1538.86 1546.83 Q1535.81 1544.15 1535.81 1539.13 Q1535.81 1535.82 1537.7 1533.52 Q1539.6 1531.23 1542.98 1530.45 M1541.27 1523.06 Q1541.27 1525.75 1542.94 1527.25 Q1544.63 1528.76 1547.66 1528.76 Q1550.67 1528.76 1552.36 1527.25 Q1554.07 1525.75 1554.07 1523.06 Q1554.07 1520.38 1552.36 1518.87 Q1550.67 1517.37 1547.66 1517.37 Q1544.63 1517.37 1542.94 1518.87 Q1541.27 1520.38 1541.27 1523.06 Z" fill="#000000" fill-rule="nonzero" fill-opacity="1" /><path clip-path="url(#clip920)" d="M1928.28 1517.37 Q1924.66 1517.37 1922.84 1520.93 Q1921.03 1524.47 1921.03 1531.6 Q1921.03 1538.71 1922.84 1542.27 Q1924.66 1545.82 1928.28 1545.82 Q1931.91 1545.82 1933.72 1542.27 Q1935.54 1538.71 1935.54 1531.6 Q1935.54 1524.47 1933.72 1520.93 Q1931.91 1517.37 1928.28 1517.37 M1928.28 1513.66 Q1934.09 1513.66 1937.14 1518.27 Q1940.22 1522.85 1940.22 1531.6 Q1940.22 1540.33 1937.14 1544.94 Q1934.09 1549.52 1928.28 1549.52 Q1922.47 1549.52 1919.39 1544.94 Q1916.33 1540.33 1916.33 1531.6 Q1916.33 1522.85 1919.39 1518.27 Q1922.47 1513.66 1928.28 1513.66 Z" fill="#000000" fill-rule="nonzero" fill-opacity="1" /><path clip-path="url(#clip920)" d="M1948.44 1542.97 L1953.32 1542.97 L1953.32 1548.85 L1948.44 1548.85 L1948.44 1542.97 Z" fill="#000000" fill-rule="nonzero" fill-opacity="1" /><path clip-path="url(#clip920)" d="M1963.65 1548.13 L1963.65 1543.87 Q1965.4 1544.7 1967.21 1545.14 Q1969.02 1545.58 1970.75 1545.58 Q1975.38 1545.58 1977.81 1542.48 Q1980.27 1539.36 1980.61 1533.01 Q1979.27 1535.01 1977.21 1536.07 Q1975.15 1537.13 1972.65 1537.13 Q1967.47 1537.13 1964.43 1534.01 Q1961.42 1530.86 1961.42 1525.42 Q1961.42 1520.1 1964.57 1516.88 Q1967.72 1513.66 1972.95 1513.66 Q1978.95 1513.66 1982.09 1518.27 Q1985.27 1522.85 1985.27 1531.6 Q1985.27 1539.77 1981.38 1544.66 Q1977.51 1549.52 1970.96 1549.52 Q1969.2 1549.52 1967.4 1549.17 Q1965.59 1548.82 1963.65 1548.13 M1972.95 1533.48 Q1976.1 1533.48 1977.93 1531.32 Q1979.78 1529.17 1979.78 1525.42 Q1979.78 1521.7 1977.93 1519.54 Q1976.1 1517.37 1972.95 1517.37 Q1969.8 1517.37 1967.95 1519.54 Q1966.12 1521.7 1966.12 1525.42 Q1966.12 1529.17 1967.95 1531.32 Q1969.8 1533.48 1972.95 1533.48 Z" fill="#000000" fill-rule="nonzero" fill-opacity="1" /><polyline clip-path="url(#clip920)" style="stroke:#000000; stroke-linecap:round; stroke-linejoin:round; stroke-width:4; stroke-opacity:1; fill:none" points="186.274,1486.45 186.274,47.2441 "/>
<polyline clip-path="url(#clip920)" style="stroke:#000000; stroke-linecap:round; stroke-linejoin:round; stroke-width:4; stroke-opacity:1; fill:none" points="186.274,1457.25 205.172,1457.25 "/>
<polyline clip-path="url(#clip920)" style="stroke:#000000; stroke-linecap:round; stroke-linejoin:round; stroke-width:4; stroke-opacity:1; fill:none" points="186.274,1241.84 205.172,1241.84 "/>
<polyline clip-path="url(#clip920)" style="stroke:#000000; stroke-linecap:round; stroke-linejoin:round; stroke-width:4; stroke-opacity:1; fill:none" points="186.274,1026.44 205.172,1026.44 "/>
<polyline clip-path="url(#clip920)" style="stroke:#000000; stroke-linecap:round; stroke-linejoin:round; stroke-width:4; stroke-opacity:1; fill:none" points="186.274,811.033 205.172,811.033 "/>
<polyline clip-path="url(#clip920)" style="stroke:#000000; stroke-linecap:round; stroke-linejoin:round; stroke-width:4; stroke-opacity:1; fill:none" points="186.274,595.628 205.172,595.628 "/>
<polyline clip-path="url(#clip920)" style="stroke:#000000; stroke-linecap:round; stroke-linejoin:round; stroke-width:4; stroke-opacity:1; fill:none" points="186.274,380.223 205.172,380.223 "/>
<polyline clip-path="url(#clip920)" style="stroke:#000000; stroke-linecap:round; stroke-linejoin:round; stroke-width:4; stroke-opacity:1; fill:none" points="186.274,164.819 205.172,164.819 "/>
<path clip-path="url(#clip920)" d="M63.9319 1443.05 Q60.3208 1443.05 58.4921 1446.61 Q56.6865 1450.15 56.6865 1457.28 Q56.6865 1464.39 58.4921 1467.95 Q60.3208 1471.49 63.9319 1471.49 Q67.5661 1471.49 69.3717 1467.95 Q71.2004 1464.39 71.2004 1457.28 Q71.2004 1450.15 69.3717 1446.61 Q67.5661 1443.05 63.9319 1443.05 M63.9319 1439.34 Q69.742 1439.34 72.7976 1443.95 Q75.8763 1448.53 75.8763 1457.28 Q75.8763 1466.01 72.7976 1470.61 Q69.742 1475.2 63.9319 1475.2 Q58.1217 1475.2 55.043 1470.61 Q51.9875 1466.01 51.9875 1457.28 Q51.9875 1448.53 55.043 1443.95 Q58.1217 1439.34 63.9319 1439.34 Z" fill="#000000" fill-rule="nonzero" fill-opacity="1" /><path clip-path="url(#clip920)" d="M84.0938 1468.65 L88.978 1468.65 L88.978 1474.53 L84.0938 1474.53 L84.0938 1468.65 Z" fill="#000000" fill-rule="nonzero" fill-opacity="1" /><path clip-path="url(#clip920)" d="M103.191 1470.59 L119.51 1470.59 L119.51 1474.53 L97.566 1474.53 L97.566 1470.59 Q100.228 1467.84 104.811 1463.21 Q109.418 1458.55 110.598 1457.21 Q112.844 1454.69 113.723 1452.95 Q114.626 1451.19 114.626 1449.5 Q114.626 1446.75 112.682 1445.01 Q110.76 1443.28 107.658 1443.28 Q105.459 1443.28 103.006 1444.04 Q100.575 1444.8 97.7974 1446.36 L97.7974 1441.63 Q100.621 1440.5 103.075 1439.92 Q105.529 1439.34 107.566 1439.34 Q112.936 1439.34 116.131 1442.03 Q119.325 1444.71 119.325 1449.2 Q119.325 1451.33 118.515 1453.25 Q117.728 1455.15 115.621 1457.74 Q115.043 1458.42 111.941 1461.63 Q108.839 1464.83 103.191 1470.59 Z" fill="#000000" fill-rule="nonzero" fill-opacity="1" /><path clip-path="url(#clip920)" d="M129.371 1439.97 L147.728 1439.97 L147.728 1443.9 L133.654 1443.9 L133.654 1452.37 Q134.672 1452.03 135.691 1451.86 Q136.709 1451.68 137.728 1451.68 Q143.515 1451.68 146.894 1454.85 Q150.274 1458.02 150.274 1463.44 Q150.274 1469.02 146.802 1472.12 Q143.33 1475.2 137.01 1475.2 Q134.834 1475.2 132.566 1474.83 Q130.32 1474.46 127.913 1473.72 L127.913 1469.02 Q129.996 1470.15 132.219 1470.71 Q134.441 1471.26 136.918 1471.26 Q140.922 1471.26 143.26 1469.16 Q145.598 1467.05 145.598 1463.44 Q145.598 1459.83 143.26 1457.72 Q140.922 1455.61 136.918 1455.61 Q135.043 1455.61 133.168 1456.03 Q131.316 1456.45 129.371 1457.33 L129.371 1439.97 Z" fill="#000000" fill-rule="nonzero" fill-opacity="1" /><path clip-path="url(#clip920)" d="M62.9365 1227.64 Q59.3254 1227.64 57.4967 1231.21 Q55.6912 1234.75 55.6912 1241.88 Q55.6912 1248.98 57.4967 1252.55 Q59.3254 1256.09 62.9365 1256.09 Q66.5707 1256.09 68.3763 1252.55 Q70.205 1248.98 70.205 1241.88 Q70.205 1234.75 68.3763 1231.21 Q66.5707 1227.64 62.9365 1227.64 M62.9365 1223.94 Q68.7467 1223.94 71.8022 1228.54 Q74.8809 1233.13 74.8809 1241.88 Q74.8809 1250.6 71.8022 1255.21 Q68.7467 1259.79 62.9365 1259.79 Q57.1264 1259.79 54.0477 1255.21 Q50.9921 1250.6 50.9921 1241.88 Q50.9921 1233.13 54.0477 1228.54 Q57.1264 1223.94 62.9365 1223.94 Z" fill="#000000" fill-rule="nonzero" fill-opacity="1" /><path clip-path="url(#clip920)" d="M83.0984 1253.24 L87.9827 1253.24 L87.9827 1259.12 L83.0984 1259.12 L83.0984 1253.24 Z" fill="#000000" fill-rule="nonzero" fill-opacity="1" /><path clip-path="url(#clip920)" d="M112.334 1240.49 Q115.691 1241.21 117.566 1243.47 Q119.464 1245.74 119.464 1249.08 Q119.464 1254.19 115.945 1256.99 Q112.427 1259.79 105.946 1259.79 Q103.77 1259.79 101.455 1259.35 Q99.1632 1258.94 96.7095 1258.08 L96.7095 1253.57 Q98.6539 1254.7 100.969 1255.28 Q103.284 1255.86 105.807 1255.86 Q110.205 1255.86 112.496 1254.12 Q114.811 1252.39 114.811 1249.08 Q114.811 1246.02 112.658 1244.31 Q110.529 1242.57 106.709 1242.57 L102.682 1242.57 L102.682 1238.73 L106.895 1238.73 Q110.344 1238.73 112.172 1237.36 Q114.001 1235.97 114.001 1233.38 Q114.001 1230.72 112.103 1229.31 Q110.228 1227.87 106.709 1227.87 Q104.788 1227.87 102.589 1228.29 Q100.39 1228.71 97.7511 1229.58 L97.7511 1225.42 Q100.413 1224.68 102.728 1224.31 Q105.066 1223.94 107.126 1223.94 Q112.45 1223.94 115.552 1226.37 Q118.654 1228.77 118.654 1232.9 Q118.654 1235.77 117.01 1237.76 Q115.367 1239.72 112.334 1240.49 Z" fill="#000000" fill-rule="nonzero" fill-opacity="1" /><path clip-path="url(#clip920)" d="M138.33 1227.64 Q134.719 1227.64 132.89 1231.21 Q131.084 1234.75 131.084 1241.88 Q131.084 1248.98 132.89 1252.55 Q134.719 1256.09 138.33 1256.09 Q141.964 1256.09 143.769 1252.55 Q145.598 1248.98 145.598 1241.88 Q145.598 1234.75 143.769 1231.21 Q141.964 1227.64 138.33 1227.64 M138.33 1223.94 Q144.14 1223.94 147.195 1228.54 Q150.274 1233.13 150.274 1241.88 Q150.274 1250.6 147.195 1255.21 Q144.14 1259.79 138.33 1259.79 Q132.519 1259.79 129.441 1255.21 Q126.385 1250.6 126.385 1241.88 Q126.385 1233.13 129.441 1228.54 Q132.519 1223.94 138.33 1223.94 Z" fill="#000000" fill-rule="nonzero" fill-opacity="1" /><path clip-path="url(#clip920)" d="M63.9319 1012.24 Q60.3208 1012.24 58.4921 1015.8 Q56.6865 1019.34 56.6865 1026.47 Q56.6865 1033.58 58.4921 1037.14 Q60.3208 1040.68 63.9319 1040.68 Q67.5661 1040.68 69.3717 1037.14 Q71.2004 1033.58 71.2004 1026.47 Q71.2004 1019.34 69.3717 1015.8 Q67.5661 1012.24 63.9319 1012.24 M63.9319 1008.53 Q69.742 1008.53 72.7976 1013.14 Q75.8763 1017.72 75.8763 1026.47 Q75.8763 1035.2 72.7976 1039.81 Q69.742 1044.39 63.9319 1044.39 Q58.1217 1044.39 55.043 1039.81 Q51.9875 1035.2 51.9875 1026.47 Q51.9875 1017.72 55.043 1013.14 Q58.1217 1008.53 63.9319 1008.53 Z" fill="#000000" fill-rule="nonzero" fill-opacity="1" /><path clip-path="url(#clip920)" d="M84.0938 1037.84 L88.978 1037.84 L88.978 1043.72 L84.0938 1043.72 L84.0938 1037.84 Z" fill="#000000" fill-rule="nonzero" fill-opacity="1" /><path clip-path="url(#clip920)" d="M113.33 1025.08 Q116.686 1025.8 118.561 1028.07 Q120.459 1030.34 120.459 1033.67 Q120.459 1038.79 116.941 1041.59 Q113.422 1044.39 106.941 1044.39 Q104.765 1044.39 102.45 1043.95 Q100.159 1043.53 97.7048 1042.68 L97.7048 1038.16 Q99.6493 1039.3 101.964 1039.87 Q104.279 1040.45 106.802 1040.45 Q111.2 1040.45 113.492 1038.72 Q115.807 1036.98 115.807 1033.67 Q115.807 1030.62 113.654 1028.9 Q111.524 1027.17 107.705 1027.17 L103.677 1027.17 L103.677 1023.32 L107.89 1023.32 Q111.339 1023.32 113.168 1021.96 Q114.996 1020.57 114.996 1017.98 Q114.996 1015.31 113.098 1013.9 Q111.223 1012.47 107.705 1012.47 Q105.783 1012.47 103.584 1012.88 Q101.385 1013.3 98.7465 1014.18 L98.7465 1010.01 Q101.409 1009.27 103.723 1008.9 Q106.061 1008.53 108.121 1008.53 Q113.445 1008.53 116.547 1010.96 Q119.649 1013.37 119.649 1017.49 Q119.649 1020.36 118.006 1022.35 Q116.362 1024.32 113.33 1025.08 Z" fill="#000000" fill-rule="nonzero" fill-opacity="1" /><path clip-path="url(#clip920)" d="M129.371 1009.16 L147.728 1009.16 L147.728 1013.09 L133.654 1013.09 L133.654 1021.56 Q134.672 1021.22 135.691 1021.06 Q136.709 1020.87 137.728 1020.87 Q143.515 1020.87 146.894 1024.04 Q150.274 1027.21 150.274 1032.63 Q150.274 1038.21 146.802 1041.31 Q143.33 1044.39 137.01 1044.39 Q134.834 1044.39 132.566 1044.02 Q130.32 1043.65 127.913 1042.91 L127.913 1038.21 Q129.996 1039.34 132.219 1039.9 Q134.441 1040.45 136.918 1040.45 Q140.922 1040.45 143.26 1038.35 Q145.598 1036.24 145.598 1032.63 Q145.598 1029.02 143.26 1026.91 Q140.922 1024.81 136.918 1024.81 Q135.043 1024.81 133.168 1025.22 Q131.316 1025.64 129.371 1026.52 L129.371 1009.16 Z" fill="#000000" fill-rule="nonzero" fill-opacity="1" /><path clip-path="url(#clip920)" d="M62.9365 796.831 Q59.3254 796.831 57.4967 800.396 Q55.6912 803.938 55.6912 811.067 Q55.6912 818.174 57.4967 821.739 Q59.3254 825.28 62.9365 825.28 Q66.5707 825.28 68.3763 821.739 Q70.205 818.174 70.205 811.067 Q70.205 803.938 68.3763 800.396 Q66.5707 796.831 62.9365 796.831 M62.9365 793.128 Q68.7467 793.128 71.8022 797.734 Q74.8809 802.317 74.8809 811.067 Q74.8809 819.794 71.8022 824.401 Q68.7467 828.984 62.9365 828.984 Q57.1264 828.984 54.0477 824.401 Q50.9921 819.794 50.9921 811.067 Q50.9921 802.317 54.0477 797.734 Q57.1264 793.128 62.9365 793.128 Z" fill="#000000" fill-rule="nonzero" fill-opacity="1" /><path clip-path="url(#clip920)" d="M83.0984 822.433 L87.9827 822.433 L87.9827 828.313 L83.0984 828.313 L83.0984 822.433 Z" fill="#000000" fill-rule="nonzero" fill-opacity="1" /><path clip-path="url(#clip920)" d="M111.015 797.827 L99.2095 816.276 L111.015 816.276 L111.015 797.827 M109.788 793.753 L115.668 793.753 L115.668 816.276 L120.598 816.276 L120.598 820.165 L115.668 820.165 L115.668 828.313 L111.015 828.313 L111.015 820.165 L95.4132 820.165 L95.4132 815.651 L109.788 793.753 Z" fill="#000000" fill-rule="nonzero" fill-opacity="1" /><path clip-path="url(#clip920)" d="M138.33 796.831 Q134.719 796.831 132.89 800.396 Q131.084 803.938 131.084 811.067 Q131.084 818.174 132.89 821.739 Q134.719 825.28 138.33 825.28 Q141.964 825.28 143.769 821.739 Q145.598 818.174 145.598 811.067 Q145.598 803.938 143.769 800.396 Q141.964 796.831 138.33 796.831 M138.33 793.128 Q144.14 793.128 147.195 797.734 Q150.274 802.317 150.274 811.067 Q150.274 819.794 147.195 824.401 Q144.14 828.984 138.33 828.984 Q132.519 828.984 129.441 824.401 Q126.385 819.794 126.385 811.067 Q126.385 802.317 129.441 797.734 Q132.519 793.128 138.33 793.128 Z" fill="#000000" fill-rule="nonzero" fill-opacity="1" /><path clip-path="url(#clip920)" d="M63.9319 581.427 Q60.3208 581.427 58.4921 584.991 Q56.6865 588.533 56.6865 595.663 Q56.6865 602.769 58.4921 606.334 Q60.3208 609.876 63.9319 609.876 Q67.5661 609.876 69.3717 606.334 Q71.2004 602.769 71.2004 595.663 Q71.2004 588.533 69.3717 584.991 Q67.5661 581.427 63.9319 581.427 M63.9319 577.723 Q69.742 577.723 72.7976 582.329 Q75.8763 586.913 75.8763 595.663 Q75.8763 604.39 72.7976 608.996 Q69.742 613.579 63.9319 613.579 Q58.1217 613.579 55.043 608.996 Q51.9875 604.39 51.9875 595.663 Q51.9875 586.913 55.043 582.329 Q58.1217 577.723 63.9319 577.723 Z" fill="#000000" fill-rule="nonzero" fill-opacity="1" /><path clip-path="url(#clip920)" d="M84.0938 607.028 L88.978 607.028 L88.978 612.908 L84.0938 612.908 L84.0938 607.028 Z" fill="#000000" fill-rule="nonzero" fill-opacity="1" /><path clip-path="url(#clip920)" d="M112.01 582.422 L100.205 600.871 L112.01 600.871 L112.01 582.422 M110.783 578.348 L116.663 578.348 L116.663 600.871 L121.594 600.871 L121.594 604.76 L116.663 604.76 L116.663 612.908 L112.01 612.908 L112.01 604.76 L96.4085 604.76 L96.4085 600.246 L110.783 578.348 Z" fill="#000000" fill-rule="nonzero" fill-opacity="1" /><path clip-path="url(#clip920)" d="M129.371 578.348 L147.728 578.348 L147.728 582.283 L133.654 582.283 L133.654 590.755 Q134.672 590.408 135.691 590.246 Q136.709 590.061 137.728 590.061 Q143.515 590.061 146.894 593.232 Q150.274 596.403 150.274 601.82 Q150.274 607.399 146.802 610.501 Q143.33 613.579 137.01 613.579 Q134.834 613.579 132.566 613.209 Q130.32 612.839 127.913 612.098 L127.913 607.399 Q129.996 608.533 132.219 609.089 Q134.441 609.644 136.918 609.644 Q140.922 609.644 143.26 607.538 Q145.598 605.431 145.598 601.82 Q145.598 598.209 143.26 596.103 Q140.922 593.996 136.918 593.996 Q135.043 593.996 133.168 594.413 Q131.316 594.829 129.371 595.709 L129.371 578.348 Z" fill="#000000" fill-rule="nonzero" fill-opacity="1" /><path clip-path="url(#clip920)" d="M62.9365 366.022 Q59.3254 366.022 57.4967 369.587 Q55.6912 373.128 55.6912 380.258 Q55.6912 387.365 57.4967 390.929 Q59.3254 394.471 62.9365 394.471 Q66.5707 394.471 68.3763 390.929 Q70.205 387.365 70.205 380.258 Q70.205 373.128 68.3763 369.587 Q66.5707 366.022 62.9365 366.022 M62.9365 362.318 Q68.7467 362.318 71.8022 366.925 Q74.8809 371.508 74.8809 380.258 Q74.8809 388.985 71.8022 393.591 Q68.7467 398.175 62.9365 398.175 Q57.1264 398.175 54.0477 393.591 Q50.9921 388.985 50.9921 380.258 Q50.9921 371.508 54.0477 366.925 Q57.1264 362.318 62.9365 362.318 Z" fill="#000000" fill-rule="nonzero" fill-opacity="1" /><path clip-path="url(#clip920)" d="M83.0984 391.624 L87.9827 391.624 L87.9827 397.503 L83.0984 397.503 L83.0984 391.624 Z" fill="#000000" fill-rule="nonzero" fill-opacity="1" /><path clip-path="url(#clip920)" d="M98.2141 362.943 L116.57 362.943 L116.57 366.879 L102.496 366.879 L102.496 375.351 Q103.515 375.003 104.534 374.841 Q105.552 374.656 106.571 374.656 Q112.358 374.656 115.737 377.828 Q119.117 380.999 119.117 386.415 Q119.117 391.994 115.645 395.096 Q112.172 398.175 105.853 398.175 Q103.677 398.175 101.409 397.804 Q99.1632 397.434 96.7558 396.693 L96.7558 391.994 Q98.8391 393.128 101.061 393.684 Q103.284 394.239 105.76 394.239 Q109.765 394.239 112.103 392.133 Q114.441 390.027 114.441 386.415 Q114.441 382.804 112.103 380.698 Q109.765 378.591 105.76 378.591 Q103.885 378.591 102.01 379.008 Q100.159 379.425 98.2141 380.304 L98.2141 362.943 Z" fill="#000000" fill-rule="nonzero" fill-opacity="1" /><path clip-path="url(#clip920)" d="M138.33 366.022 Q134.719 366.022 132.89 369.587 Q131.084 373.128 131.084 380.258 Q131.084 387.365 132.89 390.929 Q134.719 394.471 138.33 394.471 Q141.964 394.471 143.769 390.929 Q145.598 387.365 145.598 380.258 Q145.598 373.128 143.769 369.587 Q141.964 366.022 138.33 366.022 M138.33 362.318 Q144.14 362.318 147.195 366.925 Q150.274 371.508 150.274 380.258 Q150.274 388.985 147.195 393.591 Q144.14 398.175 138.33 398.175 Q132.519 398.175 129.441 393.591 Q126.385 388.985 126.385 380.258 Q126.385 371.508 129.441 366.925 Q132.519 362.318 138.33 362.318 Z" fill="#000000" fill-rule="nonzero" fill-opacity="1" /><path clip-path="url(#clip920)" d="M63.9319 150.617 Q60.3208 150.617 58.4921 154.182 Q56.6865 157.724 56.6865 164.853 Q56.6865 171.96 58.4921 175.525 Q60.3208 179.066 63.9319 179.066 Q67.5661 179.066 69.3717 175.525 Q71.2004 171.96 71.2004 164.853 Q71.2004 157.724 69.3717 154.182 Q67.5661 150.617 63.9319 150.617 M63.9319 146.914 Q69.742 146.914 72.7976 151.52 Q75.8763 156.103 75.8763 164.853 Q75.8763 173.58 72.7976 178.187 Q69.742 182.77 63.9319 182.77 Q58.1217 182.77 55.043 178.187 Q51.9875 173.58 51.9875 164.853 Q51.9875 156.103 55.043 151.52 Q58.1217 146.914 63.9319 146.914 Z" fill="#000000" fill-rule="nonzero" fill-opacity="1" /><path clip-path="url(#clip920)" d="M84.0938 176.219 L88.978 176.219 L88.978 182.099 L84.0938 182.099 L84.0938 176.219 Z" fill="#000000" fill-rule="nonzero" fill-opacity="1" /><path clip-path="url(#clip920)" d="M99.2095 147.539 L117.566 147.539 L117.566 151.474 L103.492 151.474 L103.492 159.946 Q104.51 159.599 105.529 159.437 Q106.547 159.252 107.566 159.252 Q113.353 159.252 116.733 162.423 Q120.112 165.594 120.112 171.011 Q120.112 176.589 116.64 179.691 Q113.168 182.77 106.848 182.77 Q104.672 182.77 102.404 182.4 Q100.159 182.029 97.7511 181.289 L97.7511 176.589 Q99.8345 177.724 102.057 178.279 Q104.279 178.835 106.756 178.835 Q110.76 178.835 113.098 176.728 Q115.436 174.622 115.436 171.011 Q115.436 167.4 113.098 165.293 Q110.76 163.187 106.756 163.187 Q104.881 163.187 103.006 163.603 Q101.154 164.02 99.2095 164.9 L99.2095 147.539 Z" fill="#000000" fill-rule="nonzero" fill-opacity="1" /><path clip-path="url(#clip920)" d="M129.371 147.539 L147.728 147.539 L147.728 151.474 L133.654 151.474 L133.654 159.946 Q134.672 159.599 135.691 159.437 Q136.709 159.252 137.728 159.252 Q143.515 159.252 146.894 162.423 Q150.274 165.594 150.274 171.011 Q150.274 176.589 146.802 179.691 Q143.33 182.77 137.01 182.77 Q134.834 182.77 132.566 182.4 Q130.32 182.029 127.913 181.289 L127.913 176.589 Q129.996 177.724 132.219 178.279 Q134.441 178.835 136.918 178.835 Q140.922 178.835 143.26 176.728 Q145.598 174.622 145.598 171.011 Q145.598 167.4 143.26 165.293 Q140.922 163.187 136.918 163.187 Q135.043 163.187 133.168 163.603 Q131.316 164.02 129.371 164.9 L129.371 147.539 Z" fill="#000000" fill-rule="nonzero" fill-opacity="1" /><polyline clip-path="url(#clip922)" style="stroke:#009af9; stroke-linecap:round; stroke-linejoin:round; stroke-width:4; stroke-opacity:1; fill:none" points="247.59,1406.15 375.33,1379.79 503.071,1350.98 630.812,1319.43 758.552,1284.79 886.293,1246.68 1014.03,1204.59 1141.77,1157.9 1269.51,1105.83 1397.26,1047.33 1525,981.001 1652.74,904.798 1780.48,815.652 1908.22,708.521 2035.96,574.095 2163.7,391.413 2291.44,87.9763 "/>
<polyline clip-path="url(#clip922)" style="stroke:#e26f46; stroke-linecap:round; stroke-linejoin:round; stroke-width:4; stroke-opacity:1; fill:none" points="247.59,1445.72 375.33,1419.93 503.071,1398.07 630.812,1375.96 758.552,1352.6 886.293,1329.64 1014.03,1302.58 1141.77,1280.96 1269.51,1255.31 1397.26,1232.13 1525,1201.98 1652.74,1178.4 1780.48,1147.37 1908.22,1111.93 2035.96,1082.12 2163.7,1031.98 2291.44,955.996 "/>
<path clip-path="url(#clip920)" d="M258.49 250.738 L1110.74 250.738 L1110.74 95.2176 L258.49 95.2176  Z" fill="#ffffff" fill-rule="evenodd" fill-opacity="1"/>
<polyline clip-path="url(#clip920)" style="stroke:#000000; stroke-linecap:round; stroke-linejoin:round; stroke-width:4; stroke-opacity:1; fill:none" points="258.49,250.738 1110.74,250.738 1110.74,95.2176 258.49,95.2176 258.49,250.738 "/>
<polyline clip-path="url(#clip920)" style="stroke:#009af9; stroke-linecap:round; stroke-linejoin:round; stroke-width:4; stroke-opacity:1; fill:none" points="282.562,147.058 426.994,147.058 "/>
<path clip-path="url(#clip920)" d="M451.066 129.778 L480.302 129.778 L480.302 133.713 L468.034 133.713 L468.034 164.338 L463.335 164.338 L463.335 133.713 L451.066 133.713 L451.066 129.778 Z" fill="#000000" fill-rule="nonzero" fill-opacity="1" /><path clip-path="url(#clip920)" d="M492.686 142.393 Q491.969 141.977 491.112 141.791 Q490.279 141.583 489.26 141.583 Q485.649 141.583 483.705 143.944 Q481.784 146.282 481.784 150.68 L481.784 164.338 L477.501 164.338 L477.501 138.412 L481.784 138.412 L481.784 142.44 Q483.126 140.078 485.279 138.944 Q487.432 137.787 490.51 137.787 Q490.95 137.787 491.483 137.856 Q492.015 137.903 492.663 138.018 L492.686 142.393 Z" fill="#000000" fill-rule="nonzero" fill-opacity="1" /><path clip-path="url(#clip920)" d="M496.714 154.106 L496.714 138.412 L500.973 138.412 L500.973 153.944 Q500.973 157.625 502.409 159.476 Q503.844 161.305 506.714 161.305 Q510.163 161.305 512.154 159.106 Q514.168 156.907 514.168 153.111 L514.168 138.412 L518.427 138.412 L518.427 164.338 L514.168 164.338 L514.168 160.356 Q512.617 162.717 510.557 163.875 Q508.52 165.009 505.811 165.009 Q501.344 165.009 499.029 162.231 Q496.714 159.453 496.714 154.106 M507.432 137.787 L507.432 137.787 Z" fill="#000000" fill-rule="nonzero" fill-opacity="1" /><path clip-path="url(#clip920)" d="M549.376 150.31 L549.376 152.393 L529.793 152.393 Q530.07 156.791 532.432 159.106 Q534.816 161.398 539.052 161.398 Q541.506 161.398 543.797 160.796 Q546.112 160.194 548.381 158.99 L548.381 163.018 Q546.089 163.99 543.681 164.5 Q541.274 165.009 538.797 165.009 Q532.594 165.009 528.959 161.398 Q525.348 157.787 525.348 151.629 Q525.348 145.264 528.774 141.537 Q532.223 137.787 538.057 137.787 Q543.288 137.787 546.32 141.166 Q549.376 144.523 549.376 150.31 M545.117 149.06 Q545.07 145.565 543.149 143.481 Q541.251 141.398 538.103 141.398 Q534.538 141.398 532.385 143.412 Q530.256 145.426 529.932 149.083 L545.117 149.06 Z" fill="#000000" fill-rule="nonzero" fill-opacity="1" /><path clip-path="url(#clip920)" d="M587.964 139.176 L587.964 143.203 Q586.158 142.277 584.214 141.815 Q582.269 141.352 580.186 141.352 Q577.015 141.352 575.417 142.324 Q573.843 143.296 573.843 145.24 Q573.843 146.722 574.978 147.578 Q576.112 148.412 579.538 149.176 L580.996 149.5 Q585.533 150.472 587.431 152.254 Q589.353 154.014 589.353 157.185 Q589.353 160.796 586.482 162.902 Q583.635 165.009 578.635 165.009 Q576.552 165.009 574.283 164.592 Q572.038 164.199 569.538 163.388 L569.538 158.99 Q571.899 160.217 574.191 160.842 Q576.482 161.444 578.728 161.444 Q581.737 161.444 583.357 160.426 Q584.978 159.384 584.978 157.509 Q584.978 155.773 583.797 154.847 Q582.64 153.921 578.681 153.064 L577.2 152.717 Q573.242 151.884 571.482 150.171 Q569.723 148.435 569.723 145.426 Q569.723 141.768 572.316 139.778 Q574.908 137.787 579.677 137.787 Q582.038 137.787 584.121 138.134 Q586.204 138.481 587.964 139.176 Z" fill="#000000" fill-rule="nonzero" fill-opacity="1" /><path clip-path="url(#clip920)" d="M600.348 131.051 L600.348 138.412 L609.121 138.412 L609.121 141.722 L600.348 141.722 L600.348 155.796 Q600.348 158.967 601.204 159.87 Q602.084 160.773 604.746 160.773 L609.121 160.773 L609.121 164.338 L604.746 164.338 Q599.815 164.338 597.94 162.509 Q596.065 160.657 596.065 155.796 L596.065 141.722 L592.94 141.722 L592.94 138.412 L596.065 138.412 L596.065 131.051 L600.348 131.051 Z" fill="#000000" fill-rule="nonzero" fill-opacity="1" /><path clip-path="url(#clip920)" d="M614.283 154.106 L614.283 138.412 L618.542 138.412 L618.542 153.944 Q618.542 157.625 619.977 159.476 Q621.413 161.305 624.283 161.305 Q627.732 161.305 629.723 159.106 Q631.737 156.907 631.737 153.111 L631.737 138.412 L635.996 138.412 L635.996 164.338 L631.737 164.338 L631.737 160.356 Q630.186 162.717 628.125 163.875 Q626.088 165.009 623.38 165.009 Q618.913 165.009 616.598 162.231 Q614.283 159.453 614.283 154.106 M625 137.787 L625 137.787 Z" fill="#000000" fill-rule="nonzero" fill-opacity="1" /><path clip-path="url(#clip920)" d="M661.829 142.347 L661.829 128.319 L666.088 128.319 L666.088 164.338 L661.829 164.338 L661.829 160.449 Q660.486 162.763 658.426 163.898 Q656.389 165.009 653.519 165.009 Q648.82 165.009 645.857 161.259 Q642.917 157.509 642.917 151.398 Q642.917 145.287 645.857 141.537 Q648.82 137.787 653.519 137.787 Q656.389 137.787 658.426 138.921 Q660.486 140.032 661.829 142.347 M647.315 151.398 Q647.315 156.097 649.236 158.782 Q651.181 161.444 654.561 161.444 Q657.94 161.444 659.885 158.782 Q661.829 156.097 661.829 151.398 Q661.829 146.699 659.885 144.037 Q657.94 141.352 654.561 141.352 Q651.181 141.352 649.236 144.037 Q647.315 146.699 647.315 151.398 Z" fill="#000000" fill-rule="nonzero" fill-opacity="1" /><path clip-path="url(#clip920)" d="M697.037 150.31 L697.037 152.393 L677.454 152.393 Q677.732 156.791 680.093 159.106 Q682.477 161.398 686.713 161.398 Q689.167 161.398 691.458 160.796 Q693.773 160.194 696.042 158.99 L696.042 163.018 Q693.75 163.99 691.343 164.5 Q688.935 165.009 686.458 165.009 Q680.255 165.009 676.621 161.398 Q673.009 157.787 673.009 151.629 Q673.009 145.264 676.435 141.537 Q679.884 137.787 685.718 137.787 Q690.949 137.787 693.982 141.166 Q697.037 144.523 697.037 150.31 M692.778 149.06 Q692.732 145.565 690.81 143.481 Q688.912 141.398 685.764 141.398 Q682.199 141.398 680.046 143.412 Q677.917 145.426 677.593 149.083 L692.778 149.06 Z" fill="#000000" fill-rule="nonzero" fill-opacity="1" /><path clip-path="url(#clip920)" d="M725.579 148.689 L725.579 164.338 L721.319 164.338 L721.319 148.828 Q721.319 145.148 719.884 143.319 Q718.449 141.49 715.579 141.49 Q712.13 141.49 710.139 143.69 Q708.148 145.889 708.148 149.685 L708.148 164.338 L703.866 164.338 L703.866 138.412 L708.148 138.412 L708.148 142.44 Q709.676 140.102 711.736 138.944 Q713.819 137.787 716.528 137.787 Q720.995 137.787 723.287 140.565 Q725.579 143.319 725.579 148.689 Z" fill="#000000" fill-rule="nonzero" fill-opacity="1" /><path clip-path="url(#clip920)" d="M738.287 131.051 L738.287 138.412 L747.06 138.412 L747.06 141.722 L738.287 141.722 L738.287 155.796 Q738.287 158.967 739.143 159.87 Q740.023 160.773 742.685 160.773 L747.06 160.773 L747.06 164.338 L742.685 164.338 Q737.755 164.338 735.88 162.509 Q734.005 160.657 734.005 155.796 L734.005 141.722 L730.88 141.722 L730.88 138.412 L734.005 138.412 L734.005 131.051 L738.287 131.051 Z" fill="#000000" fill-rule="nonzero" fill-opacity="1" /><path clip-path="url(#clip920)" d="M786.389 139.407 L786.389 143.389 Q784.583 142.393 782.754 141.907 Q780.949 141.398 779.097 141.398 Q774.953 141.398 772.662 144.037 Q770.37 146.652 770.37 151.398 Q770.37 156.143 772.662 158.782 Q774.953 161.398 779.097 161.398 Q780.949 161.398 782.754 160.912 Q784.583 160.402 786.389 159.407 L786.389 163.342 Q784.606 164.176 782.685 164.592 Q780.787 165.009 778.634 165.009 Q772.777 165.009 769.328 161.328 Q765.879 157.648 765.879 151.398 Q765.879 145.055 769.352 141.421 Q772.847 137.787 778.912 137.787 Q780.879 137.787 782.754 138.203 Q784.629 138.597 786.389 139.407 Z" fill="#000000" fill-rule="nonzero" fill-opacity="1" /><path clip-path="url(#clip920)" d="M803.842 141.398 Q800.416 141.398 798.425 144.083 Q796.435 146.745 796.435 151.398 Q796.435 156.051 798.402 158.736 Q800.393 161.398 803.842 161.398 Q807.245 161.398 809.236 158.713 Q811.226 156.027 811.226 151.398 Q811.226 146.791 809.236 144.106 Q807.245 141.398 803.842 141.398 M803.842 137.787 Q809.398 137.787 812.569 141.398 Q815.74 145.009 815.74 151.398 Q815.74 157.764 812.569 161.398 Q809.398 165.009 803.842 165.009 Q798.263 165.009 795.092 161.398 Q791.944 157.764 791.944 151.398 Q791.944 145.009 795.092 141.398 Q798.263 137.787 803.842 137.787 Z" fill="#000000" fill-rule="nonzero" fill-opacity="1" /><path clip-path="url(#clip920)" d="M826.921 160.449 L826.921 174.199 L822.638 174.199 L822.638 138.412 L826.921 138.412 L826.921 142.347 Q828.263 140.032 830.3 138.921 Q832.36 137.787 835.208 137.787 Q839.93 137.787 842.87 141.537 Q845.833 145.287 845.833 151.398 Q845.833 157.509 842.87 161.259 Q839.93 165.009 835.208 165.009 Q832.36 165.009 830.3 163.898 Q828.263 162.763 826.921 160.449 M841.411 151.398 Q841.411 146.699 839.467 144.037 Q837.546 141.352 834.166 141.352 Q830.786 141.352 828.842 144.037 Q826.921 146.699 826.921 151.398 Q826.921 156.097 828.842 158.782 Q830.786 161.444 834.166 161.444 Q837.546 161.444 839.467 158.782 Q841.411 156.097 841.411 151.398 Z" fill="#000000" fill-rule="nonzero" fill-opacity="1" /><path clip-path="url(#clip920)" d="M852.453 154.106 L852.453 138.412 L856.712 138.412 L856.712 153.944 Q856.712 157.625 858.147 159.476 Q859.583 161.305 862.453 161.305 Q865.902 161.305 867.893 159.106 Q869.907 156.907 869.907 153.111 L869.907 138.412 L874.166 138.412 L874.166 164.338 L869.907 164.338 L869.907 160.356 Q868.356 162.717 866.295 163.875 Q864.258 165.009 861.55 165.009 Q857.083 165.009 854.768 162.231 Q852.453 159.453 852.453 154.106 M863.171 137.787 L863.171 137.787 Z" fill="#000000" fill-rule="nonzero" fill-opacity="1" /><path clip-path="url(#clip920)" d="M882.939 128.319 L887.198 128.319 L887.198 164.338 L882.939 164.338 L882.939 128.319 Z" fill="#000000" fill-rule="nonzero" fill-opacity="1" /><path clip-path="url(#clip920)" d="M907.892 151.305 Q902.73 151.305 900.74 152.486 Q898.749 153.666 898.749 156.514 Q898.749 158.782 900.23 160.125 Q901.735 161.444 904.305 161.444 Q907.846 161.444 909.976 158.944 Q912.129 156.421 912.129 152.254 L912.129 151.305 L907.892 151.305 M916.388 149.546 L916.388 164.338 L912.129 164.338 L912.129 160.402 Q910.67 162.763 908.494 163.898 Q906.318 165.009 903.17 165.009 Q899.189 165.009 896.828 162.787 Q894.49 160.541 894.49 156.791 Q894.49 152.416 897.406 150.194 Q900.346 147.972 906.156 147.972 L912.129 147.972 L912.129 147.555 Q912.129 144.615 910.184 143.018 Q908.263 141.398 904.768 141.398 Q902.545 141.398 900.439 141.93 Q898.332 142.463 896.388 143.527 L896.388 139.592 Q898.726 138.69 900.925 138.25 Q903.124 137.787 905.207 137.787 Q910.832 137.787 913.61 140.703 Q916.388 143.62 916.388 149.546 Z" fill="#000000" fill-rule="nonzero" fill-opacity="1" /><polyline clip-path="url(#clip920)" style="stroke:#e26f46; stroke-linecap:round; stroke-linejoin:round; stroke-width:4; stroke-opacity:1; fill:none" points="282.562,198.898 426.994,198.898 "/>
<path clip-path="url(#clip920)" d="M451.066 181.618 L472.918 181.618 L472.918 185.553 L455.742 185.553 L455.742 195.784 L472.2 195.784 L472.2 199.719 L455.742 199.719 L455.742 212.242 L473.335 212.242 L473.335 216.178 L451.066 216.178 L451.066 181.618 Z" fill="#000000" fill-rule="nonzero" fill-opacity="1" /><path clip-path="url(#clip920)" d="M497.362 191.016 L497.362 195.043 Q495.557 194.117 493.612 193.655 Q491.668 193.192 489.585 193.192 Q486.413 193.192 484.816 194.164 Q483.242 195.136 483.242 197.08 Q483.242 198.562 484.376 199.418 Q485.51 200.252 488.936 201.016 L490.395 201.34 Q494.932 202.312 496.83 204.094 Q498.751 205.854 498.751 209.025 Q498.751 212.636 495.881 214.742 Q493.034 216.849 488.034 216.849 Q485.95 216.849 483.682 216.432 Q481.436 216.039 478.936 215.228 L478.936 210.83 Q481.298 212.057 483.589 212.682 Q485.881 213.284 488.126 213.284 Q491.135 213.284 492.756 212.266 Q494.376 211.224 494.376 209.349 Q494.376 207.613 493.196 206.687 Q492.038 205.761 488.08 204.904 L486.598 204.557 Q482.64 203.724 480.881 202.011 Q479.122 200.275 479.122 197.266 Q479.122 193.608 481.714 191.618 Q484.307 189.627 489.075 189.627 Q491.436 189.627 493.52 189.974 Q495.603 190.321 497.362 191.016 Z" fill="#000000" fill-rule="nonzero" fill-opacity="1" /><path clip-path="url(#clip920)" d="M509.746 182.891 L509.746 190.252 L518.52 190.252 L518.52 193.562 L509.746 193.562 L509.746 207.636 Q509.746 210.807 510.603 211.71 Q511.483 212.613 514.145 212.613 L518.52 212.613 L518.52 216.178 L514.145 216.178 Q509.214 216.178 507.339 214.349 Q505.464 212.497 505.464 207.636 L505.464 193.562 L502.339 193.562 L502.339 190.252 L505.464 190.252 L505.464 182.891 L509.746 182.891 Z" fill="#000000" fill-rule="nonzero" fill-opacity="1" /><path clip-path="url(#clip920)" d="M524.121 190.252 L528.381 190.252 L528.381 216.178 L524.121 216.178 L524.121 190.252 M524.121 180.159 L528.381 180.159 L528.381 185.553 L524.121 185.553 L524.121 180.159 Z" fill="#000000" fill-rule="nonzero" fill-opacity="1" /><path clip-path="url(#clip920)" d="M557.478 195.229 Q559.075 192.358 561.297 190.993 Q563.519 189.627 566.529 189.627 Q570.579 189.627 572.779 192.474 Q574.978 195.298 574.978 200.529 L574.978 216.178 L570.695 216.178 L570.695 200.668 Q570.695 196.942 569.376 195.136 Q568.056 193.33 565.348 193.33 Q562.038 193.33 560.117 195.53 Q558.195 197.729 558.195 201.525 L558.195 216.178 L553.913 216.178 L553.913 200.668 Q553.913 196.918 552.593 195.136 Q551.274 193.33 548.519 193.33 Q545.256 193.33 543.334 195.553 Q541.413 197.752 541.413 201.525 L541.413 216.178 L537.131 216.178 L537.131 190.252 L541.413 190.252 L541.413 194.28 Q542.871 191.895 544.908 190.761 Q546.945 189.627 549.746 189.627 Q552.57 189.627 554.538 191.062 Q556.529 192.497 557.478 195.229 Z" fill="#000000" fill-rule="nonzero" fill-opacity="1" /><path clip-path="url(#clip920)" d="M595.255 203.145 Q590.093 203.145 588.103 204.326 Q586.112 205.506 586.112 208.354 Q586.112 210.622 587.593 211.965 Q589.098 213.284 591.667 213.284 Q595.209 213.284 597.339 210.784 Q599.491 208.261 599.491 204.094 L599.491 203.145 L595.255 203.145 M603.751 201.386 L603.751 216.178 L599.491 216.178 L599.491 212.242 Q598.033 214.603 595.857 215.738 Q593.681 216.849 590.533 216.849 Q586.552 216.849 584.191 214.627 Q581.853 212.381 581.853 208.631 Q581.853 204.256 584.769 202.034 Q587.709 199.812 593.519 199.812 L599.491 199.812 L599.491 199.395 Q599.491 196.455 597.547 194.858 Q595.626 193.238 592.13 193.238 Q589.908 193.238 587.802 193.77 Q585.695 194.303 583.751 195.367 L583.751 191.432 Q586.089 190.53 588.288 190.09 Q590.487 189.627 592.57 189.627 Q598.195 189.627 600.973 192.543 Q603.751 195.46 603.751 201.386 Z" fill="#000000" fill-rule="nonzero" fill-opacity="1" /><path clip-path="url(#clip920)" d="M616.737 182.891 L616.737 190.252 L625.51 190.252 L625.51 193.562 L616.737 193.562 L616.737 207.636 Q616.737 210.807 617.593 211.71 Q618.473 212.613 621.135 212.613 L625.51 212.613 L625.51 216.178 L621.135 216.178 Q616.204 216.178 614.329 214.349 Q612.454 212.497 612.454 207.636 L612.454 193.562 L609.329 193.562 L609.329 190.252 L612.454 190.252 L612.454 182.891 L616.737 182.891 Z" fill="#000000" fill-rule="nonzero" fill-opacity="1" /><path clip-path="url(#clip920)" d="M653.287 202.15 L653.287 204.233 L633.704 204.233 Q633.982 208.631 636.343 210.946 Q638.727 213.238 642.963 213.238 Q645.417 213.238 647.709 212.636 Q650.024 212.034 652.292 210.83 L652.292 214.858 Q650 215.83 647.593 216.34 Q645.186 216.849 642.709 216.849 Q636.505 216.849 632.871 213.238 Q629.26 209.627 629.26 203.469 Q629.26 197.104 632.686 193.377 Q636.135 189.627 641.968 189.627 Q647.199 189.627 650.232 193.006 Q653.287 196.363 653.287 202.15 M649.028 200.9 Q648.982 197.405 647.061 195.321 Q645.162 193.238 642.014 193.238 Q638.449 193.238 636.297 195.252 Q634.167 197.266 633.843 200.923 L649.028 200.9 Z" fill="#000000" fill-rule="nonzero" fill-opacity="1" /><path clip-path="url(#clip920)" d="M677.338 194.187 L677.338 180.159 L681.597 180.159 L681.597 216.178 L677.338 216.178 L677.338 212.289 Q675.996 214.603 673.935 215.738 Q671.898 216.849 669.028 216.849 Q664.329 216.849 661.366 213.099 Q658.426 209.349 658.426 203.238 Q658.426 197.127 661.366 193.377 Q664.329 189.627 669.028 189.627 Q671.898 189.627 673.935 190.761 Q675.996 191.872 677.338 194.187 M662.824 203.238 Q662.824 207.937 664.746 210.622 Q666.69 213.284 670.07 213.284 Q673.449 213.284 675.394 210.622 Q677.338 207.937 677.338 203.238 Q677.338 198.539 675.394 195.877 Q673.449 193.192 670.07 193.192 Q666.69 193.192 664.746 195.877 Q662.824 198.539 662.824 203.238 Z" fill="#000000" fill-rule="nonzero" fill-opacity="1" /><path clip-path="url(#clip920)" d="M729.19 211.247 L729.19 201.965 L721.551 201.965 L721.551 198.122 L733.819 198.122 L733.819 212.96 Q731.111 214.881 727.847 215.877 Q724.583 216.849 720.88 216.849 Q712.778 216.849 708.194 212.127 Q703.634 207.381 703.634 198.932 Q703.634 190.46 708.194 185.738 Q712.778 180.993 720.88 180.993 Q724.259 180.993 727.292 181.826 Q730.347 182.659 732.917 184.28 L732.917 189.256 Q730.324 187.057 727.407 185.946 Q724.491 184.835 721.273 184.835 Q714.931 184.835 711.736 188.377 Q708.565 191.918 708.565 198.932 Q708.565 205.923 711.736 209.465 Q714.931 213.006 721.273 213.006 Q723.75 213.006 725.694 212.59 Q727.639 212.15 729.19 211.247 Z" fill="#000000" fill-rule="nonzero" fill-opacity="1" /><path clip-path="url(#clip920)" d="M753.958 203.145 Q748.796 203.145 746.805 204.326 Q744.815 205.506 744.815 208.354 Q744.815 210.622 746.296 211.965 Q747.801 213.284 750.37 213.284 Q753.912 213.284 756.041 210.784 Q758.194 208.261 758.194 204.094 L758.194 203.145 L753.958 203.145 M762.453 201.386 L762.453 216.178 L758.194 216.178 L758.194 212.242 Q756.736 214.603 754.56 215.738 Q752.384 216.849 749.236 216.849 Q745.254 216.849 742.893 214.627 Q740.555 212.381 740.555 208.631 Q740.555 204.256 743.472 202.034 Q746.412 199.812 752.222 199.812 L758.194 199.812 L758.194 199.395 Q758.194 196.455 756.25 194.858 Q754.328 193.238 750.833 193.238 Q748.611 193.238 746.504 193.77 Q744.398 194.303 742.454 195.367 L742.454 191.432 Q744.792 190.53 746.991 190.09 Q749.19 189.627 751.273 189.627 Q756.898 189.627 759.676 192.543 Q762.453 195.46 762.453 201.386 Z" fill="#000000" fill-rule="nonzero" fill-opacity="1" /><path clip-path="url(#clip920)" d="M770.787 205.946 L770.787 190.252 L775.046 190.252 L775.046 205.784 Q775.046 209.465 776.481 211.316 Q777.916 213.145 780.787 213.145 Q784.236 213.145 786.226 210.946 Q788.24 208.747 788.24 204.951 L788.24 190.252 L792.5 190.252 L792.5 216.178 L788.24 216.178 L788.24 212.196 Q786.689 214.557 784.629 215.715 Q782.592 216.849 779.884 216.849 Q775.416 216.849 773.102 214.071 Q770.787 211.293 770.787 205.946 M781.504 189.627 L781.504 189.627 Z" fill="#000000" fill-rule="nonzero" fill-opacity="1" /><path clip-path="url(#clip920)" d="M817.8 191.016 L817.8 195.043 Q815.995 194.117 814.05 193.655 Q812.106 193.192 810.023 193.192 Q806.851 193.192 805.254 194.164 Q803.68 195.136 803.68 197.08 Q803.68 198.562 804.814 199.418 Q805.949 200.252 809.374 201.016 L810.833 201.34 Q815.37 202.312 817.268 204.094 Q819.189 205.854 819.189 209.025 Q819.189 212.636 816.319 214.742 Q813.472 216.849 808.472 216.849 Q806.388 216.849 804.12 216.432 Q801.875 216.039 799.375 215.228 L799.375 210.83 Q801.736 212.057 804.027 212.682 Q806.319 213.284 808.564 213.284 Q811.574 213.284 813.194 212.266 Q814.814 211.224 814.814 209.349 Q814.814 207.613 813.634 206.687 Q812.476 205.761 808.518 204.904 L807.037 204.557 Q803.078 203.724 801.319 202.011 Q799.56 200.275 799.56 197.266 Q799.56 193.608 802.152 191.618 Q804.745 189.627 809.513 189.627 Q811.874 189.627 813.958 189.974 Q816.041 190.321 817.8 191.016 Z" fill="#000000" fill-rule="nonzero" fill-opacity="1" /><path clip-path="url(#clip920)" d="M842.499 191.016 L842.499 195.043 Q840.694 194.117 838.749 193.655 Q836.805 193.192 834.722 193.192 Q831.55 193.192 829.953 194.164 Q828.379 195.136 828.379 197.08 Q828.379 198.562 829.513 199.418 Q830.648 200.252 834.073 201.016 L835.532 201.34 Q840.069 202.312 841.967 204.094 Q843.888 205.854 843.888 209.025 Q843.888 212.636 841.018 214.742 Q838.171 216.849 833.171 216.849 Q831.087 216.849 828.819 216.432 Q826.573 216.039 824.073 215.228 L824.073 210.83 Q826.435 212.057 828.726 212.682 Q831.018 213.284 833.263 213.284 Q836.273 213.284 837.893 212.266 Q839.513 211.224 839.513 209.349 Q839.513 207.613 838.333 206.687 Q837.175 205.761 833.217 204.904 L831.735 204.557 Q827.777 203.724 826.018 202.011 Q824.259 200.275 824.259 197.266 Q824.259 193.608 826.851 191.618 Q829.444 189.627 834.212 189.627 Q836.573 189.627 838.657 189.974 Q840.74 190.321 842.499 191.016 Z" fill="#000000" fill-rule="nonzero" fill-opacity="1" /><path clip-path="url(#clip920)" d="M850.671 190.252 L854.93 190.252 L854.93 216.178 L850.671 216.178 L850.671 190.252 M850.671 180.159 L854.93 180.159 L854.93 185.553 L850.671 185.553 L850.671 180.159 Z" fill="#000000" fill-rule="nonzero" fill-opacity="1" /><path clip-path="url(#clip920)" d="M875.624 203.145 Q870.462 203.145 868.471 204.326 Q866.481 205.506 866.481 208.354 Q866.481 210.622 867.962 211.965 Q869.467 213.284 872.036 213.284 Q875.578 213.284 877.707 210.784 Q879.86 208.261 879.86 204.094 L879.86 203.145 L875.624 203.145 M884.119 201.386 L884.119 216.178 L879.86 216.178 L879.86 212.242 Q878.402 214.603 876.226 215.738 Q874.05 216.849 870.902 216.849 Q866.92 216.849 864.559 214.627 Q862.221 212.381 862.221 208.631 Q862.221 204.256 865.138 202.034 Q868.078 199.812 873.888 199.812 L879.86 199.812 L879.86 199.395 Q879.86 196.455 877.916 194.858 Q875.995 193.238 872.499 193.238 Q870.277 193.238 868.17 193.77 Q866.064 194.303 864.12 195.367 L864.12 191.432 Q866.458 190.53 868.657 190.09 Q870.856 189.627 872.939 189.627 Q878.564 189.627 881.342 192.543 Q884.119 195.46 884.119 201.386 Z" fill="#000000" fill-rule="nonzero" fill-opacity="1" /><path clip-path="url(#clip920)" d="M914.443 200.529 L914.443 216.178 L910.184 216.178 L910.184 200.668 Q910.184 196.988 908.749 195.159 Q907.314 193.33 904.443 193.33 Q900.994 193.33 899.004 195.53 Q897.013 197.729 897.013 201.525 L897.013 216.178 L892.731 216.178 L892.731 190.252 L897.013 190.252 L897.013 194.28 Q898.541 191.942 900.601 190.784 Q902.684 189.627 905.393 189.627 Q909.86 189.627 912.152 192.405 Q914.443 195.159 914.443 200.529 Z" fill="#000000" fill-rule="nonzero" fill-opacity="1" /><path clip-path="url(#clip920)" d="M956.665 191.247 L956.665 195.229 Q954.86 194.233 953.031 193.747 Q951.226 193.238 949.374 193.238 Q945.23 193.238 942.939 195.877 Q940.647 198.492 940.647 203.238 Q940.647 207.983 942.939 210.622 Q945.23 213.238 949.374 213.238 Q951.226 213.238 953.031 212.752 Q954.86 212.242 956.665 211.247 L956.665 215.182 Q954.883 216.016 952.962 216.432 Q951.064 216.849 948.911 216.849 Q943.054 216.849 939.605 213.168 Q936.156 209.488 936.156 203.238 Q936.156 196.895 939.628 193.261 Q943.124 189.627 949.189 189.627 Q951.156 189.627 953.031 190.043 Q954.906 190.437 956.665 191.247 Z" fill="#000000" fill-rule="nonzero" fill-opacity="1" /><path clip-path="url(#clip920)" d="M974.119 193.238 Q970.693 193.238 968.702 195.923 Q966.712 198.585 966.712 203.238 Q966.712 207.891 968.679 210.576 Q970.67 213.238 974.119 213.238 Q977.522 213.238 979.512 210.553 Q981.503 207.867 981.503 203.238 Q981.503 198.631 979.512 195.946 Q977.522 193.238 974.119 193.238 M974.119 189.627 Q979.675 189.627 982.846 193.238 Q986.017 196.849 986.017 203.238 Q986.017 209.604 982.846 213.238 Q979.675 216.849 974.119 216.849 Q968.54 216.849 965.369 213.238 Q962.221 209.604 962.221 203.238 Q962.221 196.849 965.369 193.238 Q968.54 189.627 974.119 189.627 Z" fill="#000000" fill-rule="nonzero" fill-opacity="1" /><path clip-path="url(#clip920)" d="M997.198 212.289 L997.198 226.039 L992.915 226.039 L992.915 190.252 L997.198 190.252 L997.198 194.187 Q998.54 191.872 1000.58 190.761 Q1002.64 189.627 1005.48 189.627 Q1010.21 189.627 1013.15 193.377 Q1016.11 197.127 1016.11 203.238 Q1016.11 209.349 1013.15 213.099 Q1010.21 216.849 1005.48 216.849 Q1002.64 216.849 1000.58 215.738 Q998.54 214.603 997.198 212.289 M1011.69 203.238 Q1011.69 198.539 1009.74 195.877 Q1007.82 193.192 1004.44 193.192 Q1001.06 193.192 999.119 195.877 Q997.198 198.539 997.198 203.238 Q997.198 207.937 999.119 210.622 Q1001.06 213.284 1004.44 213.284 Q1007.82 213.284 1009.74 210.622 Q1011.69 207.937 1011.69 203.238 Z" fill="#000000" fill-rule="nonzero" fill-opacity="1" /><path clip-path="url(#clip920)" d="M1022.73 205.946 L1022.73 190.252 L1026.99 190.252 L1026.99 205.784 Q1026.99 209.465 1028.42 211.316 Q1029.86 213.145 1032.73 213.145 Q1036.18 213.145 1038.17 210.946 Q1040.18 208.747 1040.18 204.951 L1040.18 190.252 L1044.44 190.252 L1044.44 216.178 L1040.18 216.178 L1040.18 212.196 Q1038.63 214.557 1036.57 215.715 Q1034.54 216.849 1031.83 216.849 Q1027.36 216.849 1025.04 214.071 Q1022.73 211.293 1022.73 205.946 M1033.45 189.627 L1033.45 189.627 Z" fill="#000000" fill-rule="nonzero" fill-opacity="1" /><path clip-path="url(#clip920)" d="M1053.22 180.159 L1057.48 180.159 L1057.48 216.178 L1053.22 216.178 L1053.22 180.159 Z" fill="#000000" fill-rule="nonzero" fill-opacity="1" /><path clip-path="url(#clip920)" d="M1078.17 203.145 Q1073.01 203.145 1071.02 204.326 Q1069.03 205.506 1069.03 208.354 Q1069.03 210.622 1070.51 211.965 Q1072.01 213.284 1074.58 213.284 Q1078.12 213.284 1080.25 210.784 Q1082.41 208.261 1082.41 204.094 L1082.41 203.145 L1078.17 203.145 M1086.66 201.386 L1086.66 216.178 L1082.41 216.178 L1082.41 212.242 Q1080.95 214.603 1078.77 215.738 Q1076.6 216.849 1073.45 216.849 Q1069.47 216.849 1067.1 214.627 Q1064.77 212.381 1064.77 208.631 Q1064.77 204.256 1067.68 202.034 Q1070.62 199.812 1076.43 199.812 L1082.41 199.812 L1082.41 199.395 Q1082.41 196.455 1080.46 194.858 Q1078.54 193.238 1075.04 193.238 Q1072.82 193.238 1070.72 193.77 Q1068.61 194.303 1066.66 195.367 L1066.66 191.432 Q1069 190.53 1071.2 190.09 Q1073.4 189.627 1075.48 189.627 Q1081.11 189.627 1083.89 192.543 Q1086.66 195.46 1086.66 201.386 Z" fill="#000000" fill-rule="nonzero" fill-opacity="1" /></svg>
