<?xml version="1.0" encoding="utf-8"?>
<svg xmlns="http://www.w3.org/2000/svg" xmlns:xlink="http://www.w3.org/1999/xlink" width="600" height="400" viewBox="0 0 2400 1600">
<defs>
  <clipPath id="clip380">
    <rect x="0" y="0" width="2400" height="1600"/>
  </clipPath>
</defs>
<path clip-path="url(#clip380)" d="M0 1600 L2400 1600 L2400 0 L0 0  Z" fill="#ffffff" fill-rule="evenodd" fill-opacity="1"/>
<defs>
  <clipPath id="clip381">
    <rect x="480" y="0" width="1681" height="1600"/>
  </clipPath>
</defs>
<path clip-path="url(#clip380)" d="M186.274 1486.45 L2352.76 1486.45 L2352.76 47.2441 L186.274 47.2441  Z" fill="#ffffff" fill-rule="evenodd" fill-opacity="1"/>
<defs>
  <clipPath id="clip382">
    <rect x="186" y="47" width="2167" height="1440"/>
  </clipPath>
</defs>
<polyline clip-path="url(#clip382)" style="stroke:#000000; stroke-linecap:round; stroke-linejoin:round; stroke-width:2; stroke-opacity:0.1; fill:none" points="247.59,1486.45 247.59,47.2441 "/>
<polyline clip-path="url(#clip382)" style="stroke:#000000; stroke-linecap:round; stroke-linejoin:round; stroke-width:2; stroke-opacity:0.1; fill:none" points="673.392,1486.45 673.392,47.2441 "/>
<polyline clip-path="url(#clip382)" style="stroke:#000000; stroke-linecap:round; stroke-linejoin:round; stroke-width:2; stroke-opacity:0.1; fill:none" points="1099.19,1486.45 1099.19,47.2441 "/>
<polyline clip-path="url(#clip382)" style="stroke:#000000; stroke-linecap:round; stroke-linejoin:round; stroke-width:2; stroke-opacity:0.1; fill:none" points="1525,1486.45 1525,47.2441 "/>
<polyline clip-path="url(#clip382)" style="stroke:#000000; stroke-linecap:round; stroke-linejoin:round; stroke-width:2; stroke-opacity:0.1; fill:none" points="1950.8,1486.45 1950.8,47.2441 "/>
<polyline clip-path="url(#clip382)" style="stroke:#000000; stroke-linecap:round; stroke-linejoin:round; stroke-width:2; stroke-opacity:0.1; fill:none" points="186.274,1276.47 2352.76,1276.47 "/>
<polyline clip-path="url(#clip382)" style="stroke:#000000; stroke-linecap:round; stroke-linejoin:round; stroke-width:2; stroke-opacity:0.1; fill:none" points="186.274,1054.6 2352.76,1054.6 "/>
<polyline clip-path="url(#clip382)" style="stroke:#000000; stroke-linecap:round; stroke-linejoin:round; stroke-width:2; stroke-opacity:0.1; fill:none" points="186.274,832.733 2352.76,832.733 "/>
<polyline clip-path="url(#clip382)" style="stroke:#000000; stroke-linecap:round; stroke-linejoin:round; stroke-width:2; stroke-opacity:0.1; fill:none" points="186.274,610.864 2352.76,610.864 "/>
<polyline clip-path="url(#clip382)" style="stroke:#000000; stroke-linecap:round; stroke-linejoin:round; stroke-width:2; stroke-opacity:0.1; fill:none" points="186.274,388.994 2352.76,388.994 "/>
<polyline clip-path="url(#clip382)" style="stroke:#000000; stroke-linecap:round; stroke-linejoin:round; stroke-width:2; stroke-opacity:0.1; fill:none" points="186.274,167.125 2352.76,167.125 "/>
<polyline clip-path="url(#clip380)" style="stroke:#000000; stroke-linecap:round; stroke-linejoin:round; stroke-width:4; stroke-opacity:1; fill:none" points="186.274,1486.45 2352.76,1486.45 "/>
<polyline clip-path="url(#clip380)" style="stroke:#000000; stroke-linecap:round; stroke-linejoin:round; stroke-width:4; stroke-opacity:1; fill:none" points="247.59,1486.45 247.59,1467.55 "/>
<polyline clip-path="url(#clip380)" style="stroke:#000000; stroke-linecap:round; stroke-linejoin:round; stroke-width:4; stroke-opacity:1; fill:none" points="673.392,1486.45 673.392,1467.55 "/>
<polyline clip-path="url(#clip380)" style="stroke:#000000; stroke-linecap:round; stroke-linejoin:round; stroke-width:4; stroke-opacity:1; fill:none" points="1099.19,1486.45 1099.19,1467.55 "/>
<polyline clip-path="url(#clip380)" style="stroke:#000000; stroke-linecap:round; stroke-linejoin:round; stroke-width:4; stroke-opacity:1; fill:none" points="1525,1486.45 1525,1467.55 "/>
<polyline clip-path="url(#clip380)" style="stroke:#000000; stroke-linecap:round; stroke-linejoin:round; stroke-width:4; stroke-opacity:1; fill:none" points="1950.8,1486.45 1950.8,1467.55 "/>
<path clip-path="url(#clip380)" d="M225.472 1517.37 Q221.86 1517.37 220.032 1520.93 Q218.226 1524.47 218.226 1531.6 Q218.226 1538.71 220.032 1542.27 Q221.86 1545.82 225.472 1545.82 Q229.106 1545.82 230.911 1542.27 Q232.74 1538.71 232.74 1531.6 Q232.74 1524.47 230.911 1520.93 Q229.106 1517.37 225.472 1517.37 M225.472 1513.66 Q231.282 1513.66 234.337 1518.27 Q237.416 1522.85 237.416 1531.6 Q237.416 1540.33 234.337 1544.94 Q231.282 1549.52 225.472 1549.52 Q219.661 1549.52 216.583 1544.94 Q213.527 1540.33 213.527 1531.6 Q213.527 1522.85 216.583 1518.27 Q219.661 1513.66 225.472 1513.66 Z" fill="#000000" fill-rule="nonzero" fill-opacity="1" /><path clip-path="url(#clip380)" d="M245.634 1542.97 L250.518 1542.97 L250.518 1548.85 L245.634 1548.85 L245.634 1542.97 Z" fill="#000000" fill-rule="nonzero" fill-opacity="1" /><path clip-path="url(#clip380)" d="M260.749 1514.29 L279.106 1514.29 L279.106 1518.22 L265.032 1518.22 L265.032 1526.7 Q266.05 1526.35 267.069 1526.19 Q268.087 1526 269.106 1526 Q274.893 1526 278.272 1529.17 Q281.652 1532.34 281.652 1537.76 Q281.652 1543.34 278.18 1546.44 Q274.707 1549.52 268.388 1549.52 Q266.212 1549.52 263.944 1549.15 Q261.698 1548.78 259.291 1548.04 L259.291 1543.34 Q261.374 1544.47 263.596 1545.03 Q265.819 1545.58 268.295 1545.58 Q272.3 1545.58 274.638 1543.48 Q276.976 1541.37 276.976 1537.76 Q276.976 1534.15 274.638 1532.04 Q272.3 1529.94 268.295 1529.94 Q266.42 1529.94 264.545 1530.35 Q262.694 1530.77 260.749 1531.65 L260.749 1514.29 Z" fill="#000000" fill-rule="nonzero" fill-opacity="1" /><path clip-path="url(#clip380)" d="M650.695 1517.37 Q647.084 1517.37 645.255 1520.93 Q643.45 1524.47 643.45 1531.6 Q643.45 1538.71 645.255 1542.27 Q647.084 1545.82 650.695 1545.82 Q654.329 1545.82 656.135 1542.27 Q657.964 1538.71 657.964 1531.6 Q657.964 1524.47 656.135 1520.93 Q654.329 1517.37 650.695 1517.37 M650.695 1513.66 Q656.505 1513.66 659.561 1518.27 Q662.64 1522.85 662.64 1531.6 Q662.64 1540.33 659.561 1544.94 Q656.505 1549.52 650.695 1549.52 Q644.885 1549.52 641.806 1544.94 Q638.751 1540.33 638.751 1531.6 Q638.751 1522.85 641.806 1518.27 Q644.885 1513.66 650.695 1513.66 Z" fill="#000000" fill-rule="nonzero" fill-opacity="1" /><path clip-path="url(#clip380)" d="M670.857 1542.97 L675.741 1542.97 L675.741 1548.85 L670.857 1548.85 L670.857 1542.97 Z" fill="#000000" fill-rule="nonzero" fill-opacity="1" /><path clip-path="url(#clip380)" d="M696.505 1529.7 Q693.357 1529.7 691.505 1531.86 Q689.676 1534.01 689.676 1537.76 Q689.676 1541.49 691.505 1543.66 Q693.357 1545.82 696.505 1545.82 Q699.653 1545.82 701.482 1543.66 Q703.334 1541.49 703.334 1537.76 Q703.334 1534.01 701.482 1531.86 Q699.653 1529.7 696.505 1529.7 M705.787 1515.05 L705.787 1519.31 Q704.028 1518.48 702.223 1518.04 Q700.44 1517.6 698.681 1517.6 Q694.051 1517.6 691.598 1520.72 Q689.167 1523.85 688.82 1530.17 Q690.186 1528.15 692.246 1527.09 Q694.306 1526 696.783 1526 Q701.991 1526 705 1529.17 Q708.033 1532.32 708.033 1537.76 Q708.033 1543.08 704.885 1546.3 Q701.737 1549.52 696.505 1549.52 Q690.51 1549.52 687.338 1544.94 Q684.167 1540.33 684.167 1531.6 Q684.167 1523.41 688.056 1518.55 Q691.945 1513.66 698.496 1513.66 Q700.255 1513.66 702.037 1514.01 Q703.843 1514.36 705.787 1515.05 Z" fill="#000000" fill-rule="nonzero" fill-opacity="1" /><path clip-path="url(#clip380)" d="M1077.03 1517.37 Q1073.42 1517.37 1071.59 1520.93 Q1069.78 1524.47 1069.78 1531.6 Q1069.78 1538.71 1071.59 1542.27 Q1073.42 1545.82 1077.03 1545.82 Q1080.66 1545.82 1082.47 1542.27 Q1084.3 1538.71 1084.3 1531.6 Q1084.3 1524.47 1082.47 1520.93 Q1080.66 1517.37 1077.03 1517.37 M1077.03 1513.66 Q1082.84 1513.66 1085.9 1518.27 Q1088.97 1522.85 1088.97 1531.6 Q1088.97 1540.33 1085.9 1544.94 Q1082.84 1549.52 1077.03 1549.52 Q1071.22 1549.52 1068.14 1544.94 Q1065.09 1540.33 1065.09 1531.6 Q1065.09 1522.85 1068.14 1518.27 Q1071.22 1513.66 1077.03 1513.66 Z" fill="#000000" fill-rule="nonzero" fill-opacity="1" /><path clip-path="url(#clip380)" d="M1097.19 1542.97 L1102.08 1542.97 L1102.08 1548.85 L1097.19 1548.85 L1097.19 1542.97 Z" fill="#000000" fill-rule="nonzero" fill-opacity="1" /><path clip-path="url(#clip380)" d="M1111.08 1514.29 L1133.3 1514.29 L1133.3 1516.28 L1120.76 1548.85 L1115.87 1548.85 L1127.68 1518.22 L1111.08 1518.22 L1111.08 1514.29 Z" fill="#000000" fill-rule="nonzero" fill-opacity="1" /><path clip-path="url(#clip380)" d="M1502.43 1517.37 Q1498.82 1517.37 1496.99 1520.93 Q1495.18 1524.47 1495.18 1531.6 Q1495.18 1538.71 1496.99 1542.27 Q1498.82 1545.82 1502.43 1545.82 Q1506.06 1545.82 1507.87 1542.27 Q1509.7 1538.71 1509.7 1531.6 Q1509.7 1524.47 1507.87 1520.93 Q1506.06 1517.37 1502.43 1517.37 M1502.43 1513.66 Q1508.24 1513.66 1511.29 1518.27 Q1514.37 1522.85 1514.37 1531.6 Q1514.37 1540.33 1511.29 1544.94 Q1508.24 1549.52 1502.43 1549.52 Q1496.62 1549.52 1493.54 1544.94 Q1490.48 1540.33 1490.48 1531.6 Q1490.48 1522.85 1493.54 1518.27 Q1496.62 1513.66 1502.43 1513.66 Z" fill="#000000" fill-rule="nonzero" fill-opacity="1" /><path clip-path="url(#clip380)" d="M1522.59 1542.97 L1527.47 1542.97 L1527.47 1548.85 L1522.59 1548.85 L1522.59 1542.97 Z" fill="#000000" fill-rule="nonzero" fill-opacity="1" /><path clip-path="url(#clip380)" d="M1547.66 1532.44 Q1544.32 1532.44 1542.4 1534.22 Q1540.51 1536 1540.51 1539.13 Q1540.51 1542.25 1542.4 1544.03 Q1544.32 1545.82 1547.66 1545.82 Q1550.99 1545.82 1552.91 1544.03 Q1554.83 1542.23 1554.83 1539.13 Q1554.83 1536 1552.91 1534.22 Q1551.01 1532.44 1547.66 1532.44 M1542.98 1530.45 Q1539.97 1529.7 1538.28 1527.64 Q1536.62 1525.58 1536.62 1522.62 Q1536.62 1518.48 1539.56 1516.07 Q1542.52 1513.66 1547.66 1513.66 Q1552.82 1513.66 1555.76 1516.07 Q1558.7 1518.48 1558.7 1522.62 Q1558.7 1525.58 1557.01 1527.64 Q1555.34 1529.7 1552.36 1530.45 Q1555.74 1531.23 1557.61 1533.52 Q1559.51 1535.82 1559.51 1539.13 Q1559.51 1544.15 1556.43 1546.83 Q1553.38 1549.52 1547.66 1549.52 Q1541.94 1549.52 1538.86 1546.83 Q1535.81 1544.15 1535.81 1539.13 Q1535.81 1535.82 1537.7 1533.52 Q1539.6 1531.23 1542.98 1530.45 M1541.27 1523.06 Q1541.27 1525.75 1542.94 1527.25 Q1544.63 1528.76 1547.66 1528.76 Q1550.67 1528.76 1552.36 1527.25 Q1554.07 1525.75 1554.07 1523.06 Q1554.07 1520.38 1552.36 1518.87 Q1550.67 1517.37 1547.66 1517.37 Q1544.63 1517.37 1542.94 1518.87 Q1541.27 1520.38 1541.27 1523.06 Z" fill="#000000" fill-rule="nonzero" fill-opacity="1" /><path clip-path="url(#clip380)" d="M1928.28 1517.37 Q1924.66 1517.37 1922.84 1520.93 Q1921.03 1524.47 1921.03 1531.6 Q1921.03 1538.71 1922.84 1542.27 Q1924.66 1545.82 1928.28 1545.82 Q1931.91 1545.82 1933.72 1542.27 Q1935.54 1538.71 1935.54 1531.6 Q1935.54 1524.47 1933.72 1520.93 Q1931.91 1517.37 1928.28 1517.37 M1928.28 1513.66 Q1934.09 1513.66 1937.14 1518.27 Q1940.22 1522.85 1940.22 1531.6 Q1940.22 1540.33 1937.14 1544.94 Q1934.09 1549.52 1928.28 1549.52 Q1922.47 1549.52 1919.39 1544.94 Q1916.33 1540.33 1916.33 1531.6 Q1916.33 1522.85 1919.39 1518.27 Q1922.47 1513.66 1928.28 1513.66 Z" fill="#000000" fill-rule="nonzero" fill-opacity="1" /><path clip-path="url(#clip380)" d="M1948.44 1542.97 L1953.32 1542.97 L1953.32 1548.85 L1948.44 1548.85 L1948.44 1542.97 Z" fill="#000000" fill-rule="nonzero" fill-opacity="1" /><path clip-path="url(#clip380)" d="M1963.65 1548.13 L1963.65 1543.87 Q1965.4 1544.7 1967.21 1545.14 Q1969.02 1545.58 1970.75 1545.58 Q1975.38 1545.58 1977.81 1542.48 Q1980.27 1539.36 1980.61 1533.01 Q1979.27 1535.01 1977.21 1536.07 Q1975.15 1537.13 1972.65 1537.13 Q1967.47 1537.13 1964.43 1534.01 Q1961.42 1530.86 1961.42 1525.42 Q1961.42 1520.1 1964.57 1516.88 Q1967.72 1513.66 1972.95 1513.66 Q1978.95 1513.66 1982.09 1518.27 Q1985.27 1522.85 1985.27 1531.6 Q1985.27 1539.77 1981.38 1544.66 Q1977.51 1549.52 1970.96 1549.52 Q1969.2 1549.52 1967.4 1549.17 Q1965.59 1548.82 1963.65 1548.13 M1972.95 1533.48 Q1976.1 1533.48 1977.93 1531.32 Q1979.78 1529.17 1979.78 1525.42 Q1979.78 1521.7 1977.93 1519.54 Q1976.1 1517.37 1972.95 1517.37 Q1969.8 1517.37 1967.95 1519.54 Q1966.12 1521.7 1966.12 1525.42 Q1966.12 1529.17 1967.95 1531.32 Q1969.8 1533.48 1972.95 1533.48 Z" fill="#000000" fill-rule="nonzero" fill-opacity="1" /><polyline clip-path="url(#clip380)" style="stroke:#000000; stroke-linecap:round; stroke-linejoin:round; stroke-width:4; stroke-opacity:1; fill:none" points="186.274,1486.45 186.274,47.2441 "/>
<polyline clip-path="url(#clip380)" style="stroke:#000000; stroke-linecap:round; stroke-linejoin:round; stroke-width:4; stroke-opacity:1; fill:none" points="186.274,1276.47 205.172,1276.47 "/>
<polyline clip-path="url(#clip380)" style="stroke:#000000; stroke-linecap:round; stroke-linejoin:round; stroke-width:4; stroke-opacity:1; fill:none" points="186.274,1054.6 205.172,1054.6 "/>
<polyline clip-path="url(#clip380)" style="stroke:#000000; stroke-linecap:round; stroke-linejoin:round; stroke-width:4; stroke-opacity:1; fill:none" points="186.274,832.733 205.172,832.733 "/>
<polyline clip-path="url(#clip380)" style="stroke:#000000; stroke-linecap:round; stroke-linejoin:round; stroke-width:4; stroke-opacity:1; fill:none" points="186.274,610.864 205.172,610.864 "/>
<polyline clip-path="url(#clip380)" style="stroke:#000000; stroke-linecap:round; stroke-linejoin:round; stroke-width:4; stroke-opacity:1; fill:none" points="186.274,388.994 205.172,388.994 "/>
<polyline clip-path="url(#clip380)" style="stroke:#000000; stroke-linecap:round; stroke-linejoin:round; stroke-width:4; stroke-opacity:1; fill:none" points="186.274,167.125 205.172,167.125 "/>
<path clip-path="url(#clip380)" d="M62.9365 1262.27 Q59.3254 1262.27 57.4967 1265.84 Q55.6912 1269.38 55.6912 1276.51 Q55.6912 1283.61 57.4967 1287.18 Q59.3254 1290.72 62.9365 1290.72 Q66.5707 1290.72 68.3763 1287.18 Q70.205 1283.61 70.205 1276.51 Q70.205 1269.38 68.3763 1265.84 Q66.5707 1262.27 62.9365 1262.27 M62.9365 1258.57 Q68.7467 1258.57 71.8022 1263.17 Q74.8809 1267.76 74.8809 1276.51 Q74.8809 1285.23 71.8022 1289.84 Q68.7467 1294.42 62.9365 1294.42 Q57.1264 1294.42 54.0477 1289.84 Q50.9921 1285.23 50.9921 1276.51 Q50.9921 1267.76 54.0477 1263.17 Q57.1264 1258.57 62.9365 1258.57 Z" fill="#000000" fill-rule="nonzero" fill-opacity="1" /><path clip-path="url(#clip380)" d="M83.0984 1287.87 L87.9827 1287.87 L87.9827 1293.75 L83.0984 1293.75 L83.0984 1287.87 Z" fill="#000000" fill-rule="nonzero" fill-opacity="1" /><path clip-path="url(#clip380)" d="M112.334 1275.12 Q115.691 1275.84 117.566 1278.1 Q119.464 1280.37 119.464 1283.71 Q119.464 1288.82 115.945 1291.62 Q112.427 1294.42 105.946 1294.42 Q103.77 1294.42 101.455 1293.98 Q99.1632 1293.57 96.7095 1292.71 L96.7095 1288.2 Q98.6539 1289.33 100.969 1289.91 Q103.284 1290.49 105.807 1290.49 Q110.205 1290.49 112.496 1288.75 Q114.811 1287.02 114.811 1283.71 Q114.811 1280.65 112.658 1278.94 Q110.529 1277.2 106.709 1277.2 L102.682 1277.2 L102.682 1273.36 L106.895 1273.36 Q110.344 1273.36 112.172 1271.99 Q114.001 1270.6 114.001 1268.01 Q114.001 1265.35 112.103 1263.94 Q110.228 1262.5 106.709 1262.5 Q104.788 1262.5 102.589 1262.92 Q100.39 1263.34 97.7511 1264.21 L97.7511 1260.05 Q100.413 1259.31 102.728 1258.94 Q105.066 1258.57 107.126 1258.57 Q112.45 1258.57 115.552 1261 Q118.654 1263.4 118.654 1267.52 Q118.654 1270.4 117.01 1272.39 Q115.367 1274.35 112.334 1275.12 Z" fill="#000000" fill-rule="nonzero" fill-opacity="1" /><path clip-path="url(#clip380)" d="M138.33 1262.27 Q134.719 1262.27 132.89 1265.84 Q131.084 1269.38 131.084 1276.51 Q131.084 1283.61 132.89 1287.18 Q134.719 1290.72 138.33 1290.72 Q141.964 1290.72 143.769 1287.18 Q145.598 1283.61 145.598 1276.51 Q145.598 1269.38 143.769 1265.84 Q141.964 1262.27 138.33 1262.27 M138.33 1258.57 Q144.14 1258.57 147.195 1263.17 Q150.274 1267.76 150.274 1276.51 Q150.274 1285.23 147.195 1289.84 Q144.14 1294.42 138.33 1294.42 Q132.519 1294.42 129.441 1289.84 Q126.385 1285.23 126.385 1276.51 Q126.385 1267.76 129.441 1263.17 Q132.519 1258.57 138.33 1258.57 Z" fill="#000000" fill-rule="nonzero" fill-opacity="1" /><path clip-path="url(#clip380)" d="M63.9319 1040.4 Q60.3208 1040.4 58.4921 1043.97 Q56.6865 1047.51 56.6865 1054.64 Q56.6865 1061.74 58.4921 1065.31 Q60.3208 1068.85 63.9319 1068.85 Q67.5661 1068.85 69.3717 1065.31 Q71.2004 1061.74 71.2004 1054.64 Q71.2004 1047.51 69.3717 1043.97 Q67.5661 1040.4 63.9319 1040.4 M63.9319 1036.7 Q69.742 1036.7 72.7976 1041.3 Q75.8763 1045.89 75.8763 1054.64 Q75.8763 1063.36 72.7976 1067.97 Q69.742 1072.55 63.9319 1072.55 Q58.1217 1072.55 55.043 1067.97 Q51.9875 1063.36 51.9875 1054.64 Q51.9875 1045.89 55.043 1041.3 Q58.1217 1036.7 63.9319 1036.7 Z" fill="#000000" fill-rule="nonzero" fill-opacity="1" /><path clip-path="url(#clip380)" d="M84.0938 1066 L88.978 1066 L88.978 1071.88 L84.0938 1071.88 L84.0938 1066 Z" fill="#000000" fill-rule="nonzero" fill-opacity="1" /><path clip-path="url(#clip380)" d="M113.33 1053.25 Q116.686 1053.97 118.561 1056.23 Q120.459 1058.5 120.459 1061.84 Q120.459 1066.95 116.941 1069.75 Q113.422 1072.55 106.941 1072.55 Q104.765 1072.55 102.45 1072.11 Q100.159 1071.7 97.7048 1070.84 L97.7048 1066.33 Q99.6493 1067.46 101.964 1068.04 Q104.279 1068.62 106.802 1068.62 Q111.2 1068.62 113.492 1066.88 Q115.807 1065.15 115.807 1061.84 Q115.807 1058.78 113.654 1057.07 Q111.524 1055.33 107.705 1055.33 L103.677 1055.33 L103.677 1051.49 L107.89 1051.49 Q111.339 1051.49 113.168 1050.12 Q114.996 1048.73 114.996 1046.14 Q114.996 1043.48 113.098 1042.07 Q111.223 1040.63 107.705 1040.63 Q105.783 1040.63 103.584 1041.05 Q101.385 1041.47 98.7465 1042.35 L98.7465 1038.18 Q101.409 1037.44 103.723 1037.07 Q106.061 1036.7 108.121 1036.7 Q113.445 1036.7 116.547 1039.13 Q119.649 1041.54 119.649 1045.66 Q119.649 1048.53 118.006 1050.52 Q116.362 1052.48 113.33 1053.25 Z" fill="#000000" fill-rule="nonzero" fill-opacity="1" /><path clip-path="url(#clip380)" d="M129.371 1037.32 L147.728 1037.32 L147.728 1041.26 L133.654 1041.26 L133.654 1049.73 Q134.672 1049.38 135.691 1049.22 Q136.709 1049.04 137.728 1049.04 Q143.515 1049.04 146.894 1052.21 Q150.274 1055.38 150.274 1060.79 Q150.274 1066.37 146.802 1069.47 Q143.33 1072.55 137.01 1072.55 Q134.834 1072.55 132.566 1072.18 Q130.32 1071.81 127.913 1071.07 L127.913 1066.37 Q129.996 1067.51 132.219 1068.06 Q134.441 1068.62 136.918 1068.62 Q140.922 1068.62 143.26 1066.51 Q145.598 1064.41 145.598 1060.79 Q145.598 1057.18 143.26 1055.08 Q140.922 1052.97 136.918 1052.97 Q135.043 1052.97 133.168 1053.39 Q131.316 1053.8 129.371 1054.68 L129.371 1037.32 Z" fill="#000000" fill-rule="nonzero" fill-opacity="1" /><path clip-path="url(#clip380)" d="M62.9365 818.532 Q59.3254 818.532 57.4967 822.096 Q55.6912 825.638 55.6912 832.768 Q55.6912 839.874 57.4967 843.439 Q59.3254 846.981 62.9365 846.981 Q66.5707 846.981 68.3763 843.439 Q70.205 839.874 70.205 832.768 Q70.205 825.638 68.3763 822.096 Q66.5707 818.532 62.9365 818.532 M62.9365 814.828 Q68.7467 814.828 71.8022 819.434 Q74.8809 824.018 74.8809 832.768 Q74.8809 841.494 71.8022 846.101 Q68.7467 850.684 62.9365 850.684 Q57.1264 850.684 54.0477 846.101 Q50.9921 841.494 50.9921 832.768 Q50.9921 824.018 54.0477 819.434 Q57.1264 814.828 62.9365 814.828 Z" fill="#000000" fill-rule="nonzero" fill-opacity="1" /><path clip-path="url(#clip380)" d="M83.0984 844.133 L87.9827 844.133 L87.9827 850.013 L83.0984 850.013 L83.0984 844.133 Z" fill="#000000" fill-rule="nonzero" fill-opacity="1" /><path clip-path="url(#clip380)" d="M111.015 819.527 L99.2095 837.976 L111.015 837.976 L111.015 819.527 M109.788 815.453 L115.668 815.453 L115.668 837.976 L120.598 837.976 L120.598 841.865 L115.668 841.865 L115.668 850.013 L111.015 850.013 L111.015 841.865 L95.4132 841.865 L95.4132 837.351 L109.788 815.453 Z" fill="#000000" fill-rule="nonzero" fill-opacity="1" /><path clip-path="url(#clip380)" d="M138.33 818.532 Q134.719 818.532 132.89 822.096 Q131.084 825.638 131.084 832.768 Q131.084 839.874 132.89 843.439 Q134.719 846.981 138.33 846.981 Q141.964 846.981 143.769 843.439 Q145.598 839.874 145.598 832.768 Q145.598 825.638 143.769 822.096 Q141.964 818.532 138.33 818.532 M138.33 814.828 Q144.14 814.828 147.195 819.434 Q150.274 824.018 150.274 832.768 Q150.274 841.494 147.195 846.101 Q144.14 850.684 138.33 850.684 Q132.519 850.684 129.441 846.101 Q126.385 841.494 126.385 832.768 Q126.385 824.018 129.441 819.434 Q132.519 814.828 138.33 814.828 Z" fill="#000000" fill-rule="nonzero" fill-opacity="1" /><path clip-path="url(#clip380)" d="M63.9319 596.662 Q60.3208 596.662 58.4921 600.227 Q56.6865 603.769 56.6865 610.898 Q56.6865 618.005 58.4921 621.57 Q60.3208 625.111 63.9319 625.111 Q67.5661 625.111 69.3717 621.57 Q71.2004 618.005 71.2004 610.898 Q71.2004 603.769 69.3717 600.227 Q67.5661 596.662 63.9319 596.662 M63.9319 592.959 Q69.742 592.959 72.7976 597.565 Q75.8763 602.148 75.8763 610.898 Q75.8763 619.625 72.7976 624.232 Q69.742 628.815 63.9319 628.815 Q58.1217 628.815 55.043 624.232 Q51.9875 619.625 51.9875 610.898 Q51.9875 602.148 55.043 597.565 Q58.1217 592.959 63.9319 592.959 Z" fill="#000000" fill-rule="nonzero" fill-opacity="1" /><path clip-path="url(#clip380)" d="M84.0938 622.264 L88.978 622.264 L88.978 628.144 L84.0938 628.144 L84.0938 622.264 Z" fill="#000000" fill-rule="nonzero" fill-opacity="1" /><path clip-path="url(#clip380)" d="M112.01 597.658 L100.205 616.107 L112.01 616.107 L112.01 597.658 M110.783 593.584 L116.663 593.584 L116.663 616.107 L121.594 616.107 L121.594 619.995 L116.663 619.995 L116.663 628.144 L112.01 628.144 L112.01 619.995 L96.4085 619.995 L96.4085 615.482 L110.783 593.584 Z" fill="#000000" fill-rule="nonzero" fill-opacity="1" /><path clip-path="url(#clip380)" d="M129.371 593.584 L147.728 593.584 L147.728 597.519 L133.654 597.519 L133.654 605.991 Q134.672 605.644 135.691 605.482 Q136.709 605.296 137.728 605.296 Q143.515 605.296 146.894 608.468 Q150.274 611.639 150.274 617.056 Q150.274 622.634 146.802 625.736 Q143.33 628.815 137.01 628.815 Q134.834 628.815 132.566 628.444 Q130.32 628.074 127.913 627.333 L127.913 622.634 Q129.996 623.769 132.219 624.324 Q134.441 624.88 136.918 624.88 Q140.922 624.88 143.26 622.773 Q145.598 620.667 145.598 617.056 Q145.598 613.445 143.26 611.338 Q140.922 609.232 136.918 609.232 Q135.043 609.232 133.168 609.648 Q131.316 610.065 129.371 610.945 L129.371 593.584 Z" fill="#000000" fill-rule="nonzero" fill-opacity="1" /><path clip-path="url(#clip380)" d="M62.9365 374.793 Q59.3254 374.793 57.4967 378.358 Q55.6912 381.899 55.6912 389.029 Q55.6912 396.135 57.4967 399.7 Q59.3254 403.242 62.9365 403.242 Q66.5707 403.242 68.3763 399.7 Q70.205 396.135 70.205 389.029 Q70.205 381.899 68.3763 378.358 Q66.5707 374.793 62.9365 374.793 M62.9365 371.089 Q68.7467 371.089 71.8022 375.696 Q74.8809 380.279 74.8809 389.029 Q74.8809 397.756 71.8022 402.362 Q68.7467 406.946 62.9365 406.946 Q57.1264 406.946 54.0477 402.362 Q50.9921 397.756 50.9921 389.029 Q50.9921 380.279 54.0477 375.696 Q57.1264 371.089 62.9365 371.089 Z" fill="#000000" fill-rule="nonzero" fill-opacity="1" /><path clip-path="url(#clip380)" d="M83.0984 400.395 L87.9827 400.395 L87.9827 406.274 L83.0984 406.274 L83.0984 400.395 Z" fill="#000000" fill-rule="nonzero" fill-opacity="1" /><path clip-path="url(#clip380)" d="M98.2141 371.714 L116.57 371.714 L116.57 375.649 L102.496 375.649 L102.496 384.122 Q103.515 383.774 104.534 383.612 Q105.552 383.427 106.571 383.427 Q112.358 383.427 115.737 386.598 Q119.117 389.77 119.117 395.186 Q119.117 400.765 115.645 403.867 Q112.172 406.946 105.853 406.946 Q103.677 406.946 101.409 406.575 Q99.1632 406.205 96.7558 405.464 L96.7558 400.765 Q98.8391 401.899 101.061 402.455 Q103.284 403.01 105.76 403.01 Q109.765 403.01 112.103 400.904 Q114.441 398.797 114.441 395.186 Q114.441 391.575 112.103 389.469 Q109.765 387.362 105.76 387.362 Q103.885 387.362 102.01 387.779 Q100.159 388.196 98.2141 389.075 L98.2141 371.714 Z" fill="#000000" fill-rule="nonzero" fill-opacity="1" /><path clip-path="url(#clip380)" d="M138.33 374.793 Q134.719 374.793 132.89 378.358 Q131.084 381.899 131.084 389.029 Q131.084 396.135 132.89 399.7 Q134.719 403.242 138.33 403.242 Q141.964 403.242 143.769 399.7 Q145.598 396.135 145.598 389.029 Q145.598 381.899 143.769 378.358 Q141.964 374.793 138.33 374.793 M138.33 371.089 Q144.14 371.089 147.195 375.696 Q150.274 380.279 150.274 389.029 Q150.274 397.756 147.195 402.362 Q144.14 406.946 138.33 406.946 Q132.519 406.946 129.441 402.362 Q126.385 397.756 126.385 389.029 Q126.385 380.279 129.441 375.696 Q132.519 371.089 138.33 371.089 Z" fill="#000000" fill-rule="nonzero" fill-opacity="1" /><path clip-path="url(#clip380)" d="M63.9319 152.924 Q60.3208 152.924 58.4921 156.488 Q56.6865 160.03 56.6865 167.16 Q56.6865 174.266 58.4921 177.831 Q60.3208 181.373 63.9319 181.373 Q67.5661 181.373 69.3717 177.831 Q71.2004 174.266 71.2004 167.16 Q71.2004 160.03 69.3717 156.488 Q67.5661 152.924 63.9319 152.924 M63.9319 149.22 Q69.742 149.22 72.7976 153.826 Q75.8763 158.41 75.8763 167.16 Q75.8763 175.886 72.7976 180.493 Q69.742 185.076 63.9319 185.076 Q58.1217 185.076 55.043 180.493 Q51.9875 175.886 51.9875 167.16 Q51.9875 158.41 55.043 153.826 Q58.1217 149.22 63.9319 149.22 Z" fill="#000000" fill-rule="nonzero" fill-opacity="1" /><path clip-path="url(#clip380)" d="M84.0938 178.525 L88.978 178.525 L88.978 184.405 L84.0938 184.405 L84.0938 178.525 Z" fill="#000000" fill-rule="nonzero" fill-opacity="1" /><path clip-path="url(#clip380)" d="M99.2095 149.845 L117.566 149.845 L117.566 153.78 L103.492 153.78 L103.492 162.252 Q104.51 161.905 105.529 161.743 Q106.547 161.558 107.566 161.558 Q113.353 161.558 116.733 164.729 Q120.112 167.9 120.112 173.317 Q120.112 178.896 116.64 181.998 Q113.168 185.076 106.848 185.076 Q104.672 185.076 102.404 184.706 Q100.159 184.335 97.7511 183.595 L97.7511 178.896 Q99.8345 180.03 102.057 180.585 Q104.279 181.141 106.756 181.141 Q110.76 181.141 113.098 179.035 Q115.436 176.928 115.436 173.317 Q115.436 169.706 113.098 167.599 Q110.76 165.493 106.756 165.493 Q104.881 165.493 103.006 165.91 Q101.154 166.326 99.2095 167.206 L99.2095 149.845 Z" fill="#000000" fill-rule="nonzero" fill-opacity="1" /><path clip-path="url(#clip380)" d="M129.371 149.845 L147.728 149.845 L147.728 153.78 L133.654 153.78 L133.654 162.252 Q134.672 161.905 135.691 161.743 Q136.709 161.558 137.728 161.558 Q143.515 161.558 146.894 164.729 Q150.274 167.9 150.274 173.317 Q150.274 178.896 146.802 181.998 Q143.33 185.076 137.01 185.076 Q134.834 185.076 132.566 184.706 Q130.32 184.335 127.913 183.595 L127.913 178.896 Q129.996 180.03 132.219 180.585 Q134.441 181.141 136.918 181.141 Q140.922 181.141 143.26 179.035 Q145.598 176.928 145.598 173.317 Q145.598 169.706 143.26 167.599 Q140.922 165.493 136.918 165.493 Q135.043 165.493 133.168 165.91 Q131.316 166.326 129.371 167.206 L129.371 149.845 Z" fill="#000000" fill-rule="nonzero" fill-opacity="1" /><polyline clip-path="url(#clip382)" style="stroke:#009af9; stroke-linecap:round; stroke-linejoin:round; stroke-width:4; stroke-opacity:1; fill:none" points="247.59,1445.72 375.33,1418.56 503.071,1388.88 630.812,1356.38 758.552,1320.71 886.293,1281.45 1014.03,1238.1 1141.77,1190.01 1269.51,1136.37 1397.26,1076.13 1525,1007.8 1652.74,929.312 1780.48,837.491 1908.22,727.145 2035.96,588.684 2163.7,400.52 2291.44,87.9763 "/>
<polyline clip-path="url(#clip382)" style="stroke:#e26f46; stroke-linecap:round; stroke-linejoin:round; stroke-width:4; stroke-opacity:1; fill:none" points="247.59,1442.13 375.33,1416.56 503.071,1388.29 630.812,1365.92 758.552,1342.27 886.293,1315.79 1014.03,1290.36 1141.77,1265.38 1269.51,1237.61 1397.26,1217.16 1525,1186.27 1652.74,1159.9 1780.48,1123.21 1908.22,1097.97 2035.96,1054.38 2163.7,1000.53 2291.44,917.727 "/>
<path clip-path="url(#clip380)" d="M258.49 250.738 L1110.74 250.738 L1110.74 95.2176 L258.49 95.2176  Z" fill="#ffffff" fill-rule="evenodd" fill-opacity="1"/>
<polyline clip-path="url(#clip380)" style="stroke:#000000; stroke-linecap:round; stroke-linejoin:round; stroke-width:4; stroke-opacity:1; fill:none" points="258.49,250.738 1110.74,250.738 1110.74,95.2176 258.49,95.2176 258.49,250.738 "/>
<polyline clip-path="url(#clip380)" style="stroke:#009af9; stroke-linecap:round; stroke-linejoin:round; stroke-width:4; stroke-opacity:1; fill:none" points="282.562,147.058 426.994,147.058 "/>
<path clip-path="url(#clip380)" d="M451.066 129.778 L480.302 129.778 L480.302 133.713 L468.034 133.713 L468.034 164.338 L463.335 164.338 L463.335 133.713 L451.066 133.713 L451.066 129.778 Z" fill="#000000" fill-rule="nonzero" fill-opacity="1" /><path clip-path="url(#clip380)" d="M492.686 142.393 Q491.969 141.977 491.112 141.791 Q490.279 141.583 489.26 141.583 Q485.649 141.583 483.705 143.944 Q481.784 146.282 481.784 150.68 L481.784 164.338 L477.501 164.338 L477.501 138.412 L481.784 138.412 L481.784 142.44 Q483.126 140.078 485.279 138.944 Q487.432 137.787 490.51 137.787 Q490.95 137.787 491.483 137.856 Q492.015 137.903 492.663 138.018 L492.686 142.393 Z" fill="#000000" fill-rule="nonzero" fill-opacity="1" /><path clip-path="url(#clip380)" d="M496.714 154.106 L496.714 138.412 L500.973 138.412 L500.973 153.944 Q500.973 157.625 502.409 159.476 Q503.844 161.305 506.714 161.305 Q510.163 161.305 512.154 159.106 Q514.168 156.907 514.168 153.111 L514.168 138.412 L518.427 138.412 L518.427 164.338 L514.168 164.338 L514.168 160.356 Q512.617 162.717 510.557 163.875 Q508.52 165.009 505.811 165.009 Q501.344 165.009 499.029 162.231 Q496.714 159.453 496.714 154.106 M507.432 137.787 L507.432 137.787 Z" fill="#000000" fill-rule="nonzero" fill-opacity="1" /><path clip-path="url(#clip380)" d="M549.376 150.31 L549.376 152.393 L529.793 152.393 Q530.07 156.791 532.432 159.106 Q534.816 161.398 539.052 161.398 Q541.506 161.398 543.797 160.796 Q546.112 160.194 548.381 158.99 L548.381 163.018 Q546.089 163.99 543.681 164.5 Q541.274 165.009 538.797 165.009 Q532.594 165.009 528.959 161.398 Q525.348 157.787 525.348 151.629 Q525.348 145.264 528.774 141.537 Q532.223 137.787 538.057 137.787 Q543.288 137.787 546.32 141.166 Q549.376 144.523 549.376 150.31 M545.117 149.06 Q545.07 145.565 543.149 143.481 Q541.251 141.398 538.103 141.398 Q534.538 141.398 532.385 143.412 Q530.256 145.426 529.932 149.083 L545.117 149.06 Z" fill="#000000" fill-rule="nonzero" fill-opacity="1" /><path clip-path="url(#clip380)" d="M587.964 139.176 L587.964 143.203 Q586.158 142.277 584.214 141.815 Q582.269 141.352 580.186 141.352 Q577.015 141.352 575.417 142.324 Q573.843 143.296 573.843 145.24 Q573.843 146.722 574.978 147.578 Q576.112 148.412 579.538 149.176 L580.996 149.5 Q585.533 150.472 587.431 152.254 Q589.353 154.014 589.353 157.185 Q589.353 160.796 586.482 162.902 Q583.635 165.009 578.635 165.009 Q576.552 165.009 574.283 164.592 Q572.038 164.199 569.538 163.388 L569.538 158.99 Q571.899 160.217 574.191 160.842 Q576.482 161.444 578.728 161.444 Q581.737 161.444 583.357 160.426 Q584.978 159.384 584.978 157.509 Q584.978 155.773 583.797 154.847 Q582.64 153.921 578.681 153.064 L577.2 152.717 Q573.242 151.884 571.482 150.171 Q569.723 148.435 569.723 145.426 Q569.723 141.768 572.316 139.778 Q574.908 137.787 579.677 137.787 Q582.038 137.787 584.121 138.134 Q586.204 138.481 587.964 139.176 Z" fill="#000000" fill-rule="nonzero" fill-opacity="1" /><path clip-path="url(#clip380)" d="M600.348 131.051 L600.348 138.412 L609.121 138.412 L609.121 141.722 L600.348 141.722 L600.348 155.796 Q600.348 158.967 601.204 159.87 Q602.084 160.773 604.746 160.773 L609.121 160.773 L609.121 164.338 L604.746 164.338 Q599.815 164.338 597.94 162.509 Q596.065 160.657 596.065 155.796 L596.065 141.722 L592.94 141.722 L592.94 138.412 L596.065 138.412 L596.065 131.051 L600.348 131.051 Z" fill="#000000" fill-rule="nonzero" fill-opacity="1" /><path clip-path="url(#clip380)" d="M614.283 154.106 L614.283 138.412 L618.542 138.412 L618.542 153.944 Q618.542 157.625 619.977 159.476 Q621.413 161.305 624.283 161.305 Q627.732 161.305 629.723 159.106 Q631.737 156.907 631.737 153.111 L631.737 138.412 L635.996 138.412 L635.996 164.338 L631.737 164.338 L631.737 160.356 Q630.186 162.717 628.125 163.875 Q626.088 165.009 623.38 165.009 Q618.913 165.009 616.598 162.231 Q614.283 159.453 614.283 154.106 M625 137.787 L625 137.787 Z" fill="#000000" fill-rule="nonzero" fill-opacity="1" /><path clip-path="url(#clip380)" d="M661.829 142.347 L661.829 128.319 L666.088 128.319 L666.088 164.338 L661.829 164.338 L661.829 160.449 Q660.486 162.763 658.426 163.898 Q656.389 165.009 653.519 165.009 Q648.82 165.009 645.857 161.259 Q642.917 157.509 642.917 151.398 Q642.917 145.287 645.857 141.537 Q648.82 137.787 653.519 137.787 Q656.389 137.787 658.426 138.921 Q660.486 140.032 661.829 142.347 M647.315 151.398 Q647.315 156.097 649.236 158.782 Q651.181 161.444 654.561 161.444 Q657.94 161.444 659.885 158.782 Q661.829 156.097 661.829 151.398 Q661.829 146.699 659.885 144.037 Q657.94 141.352 654.561 141.352 Q651.181 141.352 649.236 144.037 Q647.315 146.699 647.315 151.398 Z" fill="#000000" fill-rule="nonzero" fill-opacity="1" /><path clip-path="url(#clip380)" d="M697.037 150.31 L697.037 152.393 L677.454 152.393 Q677.732 156.791 680.093 159.106 Q682.477 161.398 686.713 161.398 Q689.167 161.398 691.458 160.796 Q693.773 160.194 696.042 158.99 L696.042 163.018 Q693.75 163.99 691.343 164.5 Q688.935 165.009 686.458 165.009 Q680.255 165.009 676.621 161.398 Q673.009 157.787 673.009 151.629 Q673.009 145.264 676.435 141.537 Q679.884 137.787 685.718 137.787 Q690.949 137.787 693.982 141.166 Q697.037 144.523 697.037 150.31 M692.778 149.06 Q692.732 145.565 690.81 143.481 Q688.912 141.398 685.764 141.398 Q682.199 141.398 680.046 143.412 Q677.917 145.426 677.593 149.083 L692.778 149.06 Z" fill="#000000" fill-rule="nonzero" fill-opacity="1" /><path clip-path="url(#clip380)" d="M725.579 148.689 L725.579 164.338 L721.319 164.338 L721.319 148.828 Q721.319 145.148 719.884 143.319 Q718.449 141.49 715.579 141.49 Q712.13 141.49 710.139 143.69 Q708.148 145.889 708.148 149.685 L708.148 164.338 L703.866 164.338 L703.866 138.412 L708.148 138.412 L708.148 142.44 Q709.676 140.102 711.736 138.944 Q713.819 137.787 716.528 137.787 Q720.995 137.787 723.287 140.565 Q725.579 143.319 725.579 148.689 Z" fill="#000000" fill-rule="nonzero" fill-opacity="1" /><path clip-path="url(#clip380)" d="M738.287 131.051 L738.287 138.412 L747.06 138.412 L747.06 141.722 L738.287 141.722 L738.287 155.796 Q738.287 158.967 739.143 159.87 Q740.023 160.773 742.685 160.773 L747.06 160.773 L747.06 164.338 L742.685 164.338 Q737.755 164.338 735.88 162.509 Q734.005 160.657 734.005 155.796 L734.005 141.722 L730.88 141.722 L730.88 138.412 L734.005 138.412 L734.005 131.051 L738.287 131.051 Z" fill="#000000" fill-rule="nonzero" fill-opacity="1" /><path clip-path="url(#clip380)" d="M786.389 139.407 L786.389 143.389 Q784.583 142.393 782.754 141.907 Q780.949 141.398 779.097 141.398 Q774.953 141.398 772.662 144.037 Q770.37 146.652 770.37 151.398 Q770.37 156.143 772.662 158.782 Q774.953 161.398 779.097 161.398 Q780.949 161.398 782.754 160.912 Q784.583 160.402 786.389 159.407 L786.389 163.342 Q784.606 164.176 782.685 164.592 Q780.787 165.009 778.634 165.009 Q772.777 165.009 769.328 161.328 Q765.879 157.648 765.879 151.398 Q765.879 145.055 769.352 141.421 Q772.847 137.787 778.912 137.787 Q780.879 137.787 782.754 138.203 Q784.629 138.597 786.389 139.407 Z" fill="#000000" fill-rule="nonzero" fill-opacity="1" /><path clip-path="url(#clip380)" d="M803.842 141.398 Q800.416 141.398 798.425 144.083 Q796.435 146.745 796.435 151.398 Q796.435 156.051 798.402 158.736 Q800.393 161.398 803.842 161.398 Q807.245 161.398 809.236 158.713 Q811.226 156.027 811.226 151.398 Q811.226 146.791 809.236 144.106 Q807.245 141.398 803.842 141.398 M803.842 137.787 Q809.398 137.787 812.569 141.398 Q815.74 145.009 815.74 151.398 Q815.74 157.764 812.569 161.398 Q809.398 165.009 803.842 165.009 Q798.263 165.009 795.092 161.398 Q791.944 157.764 791.944 151.398 Q791.944 145.009 795.092 141.398 Q798.263 137.787 803.842 137.787 Z" fill="#000000" fill-rule="nonzero" fill-opacity="1" /><path clip-path="url(#clip380)" d="M826.921 160.449 L826.921 174.199 L822.638 174.199 L822.638 138.412 L826.921 138.412 L826.921 142.347 Q828.263 140.032 830.3 138.921 Q832.36 137.787 835.208 137.787 Q839.93 137.787 842.87 141.537 Q845.833 145.287 845.833 151.398 Q845.833 157.509 842.87 161.259 Q839.93 165.009 835.208 165.009 Q832.36 165.009 830.3 163.898 Q828.263 162.763 826.921 160.449 M841.411 151.398 Q841.411 146.699 839.467 144.037 Q837.546 141.352 834.166 141.352 Q830.786 141.352 828.842 144.037 Q826.921 146.699 826.921 151.398 Q826.921 156.097 828.842 158.782 Q830.786 161.444 834.166 161.444 Q837.546 161.444 839.467 158.782 Q841.411 156.097 841.411 151.398 Z" fill="#000000" fill-rule="nonzero" fill-opacity="1" /><path clip-path="url(#clip380)" d="M852.453 154.106 L852.453 138.412 L856.712 138.412 L856.712 153.944 Q856.712 157.625 858.147 159.476 Q859.583 161.305 862.453 161.305 Q865.902 161.305 867.893 159.106 Q869.907 156.907 869.907 153.111 L869.907 138.412 L874.166 138.412 L874.166 164.338 L869.907 164.338 L869.907 160.356 Q868.356 162.717 866.295 163.875 Q864.258 165.009 861.55 165.009 Q857.083 165.009 854.768 162.231 Q852.453 159.453 852.453 154.106 M863.171 137.787 L863.171 137.787 Z" fill="#000000" fill-rule="nonzero" fill-opacity="1" /><path clip-path="url(#clip380)" d="M882.939 128.319 L887.198 128.319 L887.198 164.338 L882.939 164.338 L882.939 128.319 Z" fill="#000000" fill-rule="nonzero" fill-opacity="1" /><path clip-path="url(#clip380)" d="M907.892 151.305 Q902.73 151.305 900.74 152.486 Q898.749 153.666 898.749 156.514 Q898.749 158.782 900.23 160.125 Q901.735 161.444 904.305 161.444 Q907.846 161.444 909.976 158.944 Q912.129 156.421 912.129 152.254 L912.129 151.305 L907.892 151.305 M916.388 149.546 L916.388 164.338 L912.129 164.338 L912.129 160.402 Q910.67 162.763 908.494 163.898 Q906.318 165.009 903.17 165.009 Q899.189 165.009 896.828 162.787 Q894.49 160.541 894.49 156.791 Q894.49 152.416 897.406 150.194 Q900.346 147.972 906.156 147.972 L912.129 147.972 L912.129 147.555 Q912.129 144.615 910.184 143.018 Q908.263 141.398 904.768 141.398 Q902.545 141.398 900.439 141.93 Q898.332 142.463 896.388 143.527 L896.388 139.592 Q898.726 138.69 900.925 138.25 Q903.124 137.787 905.207 137.787 Q910.832 137.787 913.61 140.703 Q916.388 143.62 916.388 149.546 Z" fill="#000000" fill-rule="nonzero" fill-opacity="1" /><polyline clip-path="url(#clip380)" style="stroke:#e26f46; stroke-linecap:round; stroke-linejoin:round; stroke-width:4; stroke-opacity:1; fill:none" points="282.562,198.898 426.994,198.898 "/>
<path clip-path="url(#clip380)" d="M451.066 181.618 L472.918 181.618 L472.918 185.553 L455.742 185.553 L455.742 195.784 L472.2 195.784 L472.2 199.719 L455.742 199.719 L455.742 212.242 L473.335 212.242 L473.335 216.178 L451.066 216.178 L451.066 181.618 Z" fill="#000000" fill-rule="nonzero" fill-opacity="1" /><path clip-path="url(#clip380)" d="M497.362 191.016 L497.362 195.043 Q495.557 194.117 493.612 193.655 Q491.668 193.192 489.585 193.192 Q486.413 193.192 484.816 194.164 Q483.242 195.136 483.242 197.08 Q483.242 198.562 484.376 199.418 Q485.51 200.252 488.936 201.016 L490.395 201.34 Q494.932 202.312 496.83 204.094 Q498.751 205.854 498.751 209.025 Q498.751 212.636 495.881 214.742 Q493.034 216.849 488.034 216.849 Q485.95 216.849 483.682 216.432 Q481.436 216.039 478.936 215.228 L478.936 210.83 Q481.298 212.057 483.589 212.682 Q485.881 213.284 488.126 213.284 Q491.135 213.284 492.756 212.266 Q494.376 211.224 494.376 209.349 Q494.376 207.613 493.196 206.687 Q492.038 205.761 488.08 204.904 L486.598 204.557 Q482.64 203.724 480.881 202.011 Q479.122 200.275 479.122 197.266 Q479.122 193.608 481.714 191.618 Q484.307 189.627 489.075 189.627 Q491.436 189.627 493.52 189.974 Q495.603 190.321 497.362 191.016 Z" fill="#000000" fill-rule="nonzero" fill-opacity="1" /><path clip-path="url(#clip380)" d="M509.746 182.891 L509.746 190.252 L518.52 190.252 L518.52 193.562 L509.746 193.562 L509.746 207.636 Q509.746 210.807 510.603 211.71 Q511.483 212.613 514.145 212.613 L518.52 212.613 L518.52 216.178 L514.145 216.178 Q509.214 216.178 507.339 214.349 Q505.464 212.497 505.464 207.636 L505.464 193.562 L502.339 193.562 L502.339 190.252 L505.464 190.252 L505.464 182.891 L509.746 182.891 Z" fill="#000000" fill-rule="nonzero" fill-opacity="1" /><path clip-path="url(#clip380)" d="M524.121 190.252 L528.381 190.252 L528.381 216.178 L524.121 216.178 L524.121 190.252 M524.121 180.159 L528.381 180.159 L528.381 185.553 L524.121 185.553 L524.121 180.159 Z" fill="#000000" fill-rule="nonzero" fill-opacity="1" /><path clip-path="url(#clip380)" d="M557.478 195.229 Q559.075 192.358 561.297 190.993 Q563.519 189.627 566.529 189.627 Q570.579 189.627 572.779 192.474 Q574.978 195.298 574.978 200.529 L574.978 216.178 L570.695 216.178 L570.695 200.668 Q570.695 196.942 569.376 195.136 Q568.056 193.33 565.348 193.33 Q562.038 193.33 560.117 195.53 Q558.195 197.729 558.195 201.525 L558.195 216.178 L553.913 216.178 L553.913 200.668 Q553.913 196.918 552.593 195.136 Q551.274 193.33 548.519 193.33 Q545.256 193.33 543.334 195.553 Q541.413 197.752 541.413 201.525 L541.413 216.178 L537.131 216.178 L537.131 190.252 L541.413 190.252 L541.413 194.28 Q542.871 191.895 544.908 190.761 Q546.945 189.627 549.746 189.627 Q552.57 189.627 554.538 191.062 Q556.529 192.497 557.478 195.229 Z" fill="#000000" fill-rule="nonzero" fill-opacity="1" /><path clip-path="url(#clip380)" d="M595.255 203.145 Q590.093 203.145 588.103 204.326 Q586.112 205.506 586.112 208.354 Q586.112 210.622 587.593 211.965 Q589.098 213.284 591.667 213.284 Q595.209 213.284 597.339 210.784 Q599.491 208.261 599.491 204.094 L599.491 203.145 L595.255 203.145 M603.751 201.386 L603.751 216.178 L599.491 216.178 L599.491 212.242 Q598.033 214.603 595.857 215.738 Q593.681 216.849 590.533 216.849 Q586.552 216.849 584.191 214.627 Q581.853 212.381 581.853 208.631 Q581.853 204.256 584.769 202.034 Q587.709 199.812 593.519 199.812 L599.491 199.812 L599.491 199.395 Q599.491 196.455 597.547 194.858 Q595.626 193.238 592.13 193.238 Q589.908 193.238 587.802 193.77 Q585.695 194.303 583.751 195.367 L583.751 191.432 Q586.089 190.53 588.288 190.09 Q590.487 189.627 592.57 189.627 Q598.195 189.627 600.973 192.543 Q603.751 195.46 603.751 201.386 Z" fill="#000000" fill-rule="nonzero" fill-opacity="1" /><path clip-path="url(#clip380)" d="M616.737 182.891 L616.737 190.252 L625.51 190.252 L625.51 193.562 L616.737 193.562 L616.737 207.636 Q616.737 210.807 617.593 211.71 Q618.473 212.613 621.135 212.613 L625.51 212.613 L625.51 216.178 L621.135 216.178 Q616.204 216.178 614.329 214.349 Q612.454 212.497 612.454 207.636 L612.454 193.562 L609.329 193.562 L609.329 190.252 L612.454 190.252 L612.454 182.891 L616.737 182.891 Z" fill="#000000" fill-rule="nonzero" fill-opacity="1" /><path clip-path="url(#clip380)" d="M653.287 202.15 L653.287 204.233 L633.704 204.233 Q633.982 208.631 636.343 210.946 Q638.727 213.238 642.963 213.238 Q645.417 213.238 647.709 212.636 Q650.024 212.034 652.292 210.83 L652.292 214.858 Q650 215.83 647.593 216.34 Q645.186 216.849 642.709 216.849 Q636.505 216.849 632.871 213.238 Q629.26 209.627 629.26 203.469 Q629.26 197.104 632.686 193.377 Q636.135 189.627 641.968 189.627 Q647.199 189.627 650.232 193.006 Q653.287 196.363 653.287 202.15 M649.028 200.9 Q648.982 197.405 647.061 195.321 Q645.162 193.238 642.014 193.238 Q638.449 193.238 636.297 195.252 Q634.167 197.266 633.843 200.923 L649.028 200.9 Z" fill="#000000" fill-rule="nonzero" fill-opacity="1" /><path clip-path="url(#clip380)" d="M677.338 194.187 L677.338 180.159 L681.597 180.159 L681.597 216.178 L677.338 216.178 L677.338 212.289 Q675.996 214.603 673.935 215.738 Q671.898 216.849 669.028 216.849 Q664.329 216.849 661.366 213.099 Q658.426 209.349 658.426 203.238 Q658.426 197.127 661.366 193.377 Q664.329 189.627 669.028 189.627 Q671.898 189.627 673.935 190.761 Q675.996 191.872 677.338 194.187 M662.824 203.238 Q662.824 207.937 664.746 210.622 Q666.69 213.284 670.07 213.284 Q673.449 213.284 675.394 210.622 Q677.338 207.937 677.338 203.238 Q677.338 198.539 675.394 195.877 Q673.449 193.192 670.07 193.192 Q666.69 193.192 664.746 195.877 Q662.824 198.539 662.824 203.238 Z" fill="#000000" fill-rule="nonzero" fill-opacity="1" /><path clip-path="url(#clip380)" d="M729.19 211.247 L729.19 201.965 L721.551 201.965 L721.551 198.122 L733.819 198.122 L733.819 212.96 Q731.111 214.881 727.847 215.877 Q724.583 216.849 720.88 216.849 Q712.778 216.849 708.194 212.127 Q703.634 207.381 703.634 198.932 Q703.634 190.46 708.194 185.738 Q712.778 180.993 720.88 180.993 Q724.259 180.993 727.292 181.826 Q730.347 182.659 732.917 184.28 L732.917 189.256 Q730.324 187.057 727.407 185.946 Q724.491 184.835 721.273 184.835 Q714.931 184.835 711.736 188.377 Q708.565 191.918 708.565 198.932 Q708.565 205.923 711.736 209.465 Q714.931 213.006 721.273 213.006 Q723.75 213.006 725.694 212.59 Q727.639 212.15 729.19 211.247 Z" fill="#000000" fill-rule="nonzero" fill-opacity="1" /><path clip-path="url(#clip380)" d="M753.958 203.145 Q748.796 203.145 746.805 204.326 Q744.815 205.506 744.815 208.354 Q744.815 210.622 746.296 211.965 Q747.801 213.284 750.37 213.284 Q753.912 213.284 756.041 210.784 Q758.194 208.261 758.194 204.094 L758.194 203.145 L753.958 203.145 M762.453 201.386 L762.453 216.178 L758.194 216.178 L758.194 212.242 Q756.736 214.603 754.56 215.738 Q752.384 216.849 749.236 216.849 Q745.254 216.849 742.893 214.627 Q740.555 212.381 740.555 208.631 Q740.555 204.256 743.472 202.034 Q746.412 199.812 752.222 199.812 L758.194 199.812 L758.194 199.395 Q758.194 196.455 756.25 194.858 Q754.328 193.238 750.833 193.238 Q748.611 193.238 746.504 193.77 Q744.398 194.303 742.454 195.367 L742.454 191.432 Q744.792 190.53 746.991 190.09 Q749.19 189.627 751.273 189.627 Q756.898 189.627 759.676 192.543 Q762.453 195.46 762.453 201.386 Z" fill="#000000" fill-rule="nonzero" fill-opacity="1" /><path clip-path="url(#clip380)" d="M770.787 205.946 L770.787 190.252 L775.046 190.252 L775.046 205.784 Q775.046 209.465 776.481 211.316 Q777.916 213.145 780.787 213.145 Q784.236 213.145 786.226 210.946 Q788.24 208.747 788.24 204.951 L788.24 190.252 L792.5 190.252 L792.5 216.178 L788.24 216.178 L788.24 212.196 Q786.689 214.557 784.629 215.715 Q782.592 216.849 779.884 216.849 Q775.416 216.849 773.102 214.071 Q770.787 211.293 770.787 205.946 M781.504 189.627 L781.504 189.627 Z" fill="#000000" fill-rule="nonzero" fill-opacity="1" /><path clip-path="url(#clip380)" d="M817.8 191.016 L817.8 195.043 Q815.995 194.117 814.05 193.655 Q812.106 193.192 810.023 193.192 Q806.851 193.192 805.254 194.164 Q803.68 195.136 803.68 197.08 Q803.68 198.562 804.814 199.418 Q805.949 200.252 809.374 201.016 L810.833 201.34 Q815.37 202.312 817.268 204.094 Q819.189 205.854 819.189 209.025 Q819.189 212.636 816.319 214.742 Q813.472 216.849 808.472 216.849 Q806.388 216.849 804.12 216.432 Q801.875 216.039 799.375 215.228 L799.375 210.83 Q801.736 212.057 804.027 212.682 Q806.319 213.284 808.564 213.284 Q811.574 213.284 813.194 212.266 Q814.814 211.224 814.814 209.349 Q814.814 207.613 813.634 206.687 Q812.476 205.761 808.518 204.904 L807.037 204.557 Q803.078 203.724 801.319 202.011 Q799.56 200.275 799.56 197.266 Q799.56 193.608 802.152 191.618 Q804.745 189.627 809.513 189.627 Q811.874 189.627 813.958 189.974 Q816.041 190.321 817.8 191.016 Z" fill="#000000" fill-rule="nonzero" fill-opacity="1" /><path clip-path="url(#clip380)" d="M842.499 191.016 L842.499 195.043 Q840.694 194.117 838.749 193.655 Q836.805 193.192 834.722 193.192 Q831.55 193.192 829.953 194.164 Q828.379 195.136 828.379 197.08 Q828.379 198.562 829.513 199.418 Q830.648 200.252 834.073 201.016 L835.532 201.34 Q840.069 202.312 841.967 204.094 Q843.888 205.854 843.888 209.025 Q843.888 212.636 841.018 214.742 Q838.171 216.849 833.171 216.849 Q831.087 216.849 828.819 216.432 Q826.573 216.039 824.073 215.228 L824.073 210.83 Q826.435 212.057 828.726 212.682 Q831.018 213.284 833.263 213.284 Q836.273 213.284 837.893 212.266 Q839.513 211.224 839.513 209.349 Q839.513 207.613 838.333 206.687 Q837.175 205.761 833.217 204.904 L831.735 204.557 Q827.777 203.724 826.018 202.011 Q824.259 200.275 824.259 197.266 Q824.259 193.608 826.851 191.618 Q829.444 189.627 834.212 189.627 Q836.573 189.627 838.657 189.974 Q840.74 190.321 842.499 191.016 Z" fill="#000000" fill-rule="nonzero" fill-opacity="1" /><path clip-path="url(#clip380)" d="M850.671 190.252 L854.93 190.252 L854.93 216.178 L850.671 216.178 L850.671 190.252 M850.671 180.159 L854.93 180.159 L854.93 185.553 L850.671 185.553 L850.671 180.159 Z" fill="#000000" fill-rule="nonzero" fill-opacity="1" /><path clip-path="url(#clip380)" d="M875.624 203.145 Q870.462 203.145 868.471 204.326 Q866.481 205.506 866.481 208.354 Q866.481 210.622 867.962 211.965 Q869.467 213.284 872.036 213.284 Q875.578 213.284 877.707 210.784 Q879.86 208.261 879.86 204.094 L879.86 203.145 L875.624 203.145 M884.119 201.386 L884.119 216.178 L879.86 216.178 L879.86 212.242 Q878.402 214.603 876.226 215.738 Q874.05 216.849 870.902 216.849 Q866.92 216.849 864.559 214.627 Q862.221 212.381 862.221 208.631 Q862.221 204.256 865.138 202.034 Q868.078 199.812 873.888 199.812 L879.86 199.812 L879.86 199.395 Q879.86 196.455 877.916 194.858 Q875.995 193.238 872.499 193.238 Q870.277 193.238 868.17 193.77 Q866.064 194.303 864.12 195.367 L864.12 191.432 Q866.458 190.53 868.657 190.09 Q870.856 189.627 872.939 189.627 Q878.564 189.627 881.342 192.543 Q884.119 195.46 884.119 201.386 Z" fill="#000000" fill-rule="nonzero" fill-opacity="1" /><path clip-path="url(#clip380)" d="M914.443 200.529 L914.443 216.178 L910.184 216.178 L910.184 200.668 Q910.184 196.988 908.749 195.159 Q907.314 193.33 904.443 193.33 Q900.994 193.33 899.004 195.53 Q897.013 197.729 897.013 201.525 L897.013 216.178 L892.731 216.178 L892.731 190.252 L897.013 190.252 L897.013 194.28 Q898.541 191.942 900.601 190.784 Q902.684 189.627 905.393 189.627 Q909.86 189.627 912.152 192.405 Q914.443 195.159 914.443 200.529 Z" fill="#000000" fill-rule="nonzero" fill-opacity="1" /><path clip-path="url(#clip380)" d="M956.665 191.247 L956.665 195.229 Q954.86 194.233 953.031 193.747 Q951.226 193.238 949.374 193.238 Q945.23 193.238 942.939 195.877 Q940.647 198.492 940.647 203.238 Q940.647 207.983 942.939 210.622 Q945.23 213.238 949.374 213.238 Q951.226 213.238 953.031 212.752 Q954.86 212.242 956.665 211.247 L956.665 215.182 Q954.883 216.016 952.962 216.432 Q951.064 216.849 948.911 216.849 Q943.054 216.849 939.605 213.168 Q936.156 209.488 936.156 203.238 Q936.156 196.895 939.628 193.261 Q943.124 189.627 949.189 189.627 Q951.156 189.627 953.031 190.043 Q954.906 190.437 956.665 191.247 Z" fill="#000000" fill-rule="nonzero" fill-opacity="1" /><path clip-path="url(#clip380)" d="M974.119 193.238 Q970.693 193.238 968.702 195.923 Q966.712 198.585 966.712 203.238 Q966.712 207.891 968.679 210.576 Q970.67 213.238 974.119 213.238 Q977.522 213.238 979.512 210.553 Q981.503 207.867 981.503 203.238 Q981.503 198.631 979.512 195.946 Q977.522 193.238 974.119 193.238 M974.119 189.627 Q979.675 189.627 982.846 193.238 Q986.017 196.849 986.017 203.238 Q986.017 209.604 982.846 213.238 Q979.675 216.849 974.119 216.849 Q968.54 216.849 965.369 213.238 Q962.221 209.604 962.221 203.238 Q962.221 196.849 965.369 193.238 Q968.54 189.627 974.119 189.627 Z" fill="#000000" fill-rule="nonzero" fill-opacity="1" /><path clip-path="url(#clip380)" d="M997.198 212.289 L997.198 226.039 L992.915 226.039 L992.915 190.252 L997.198 190.252 L997.198 194.187 Q998.54 191.872 1000.58 190.761 Q1002.64 189.627 1005.48 189.627 Q1010.21 189.627 1013.15 193.377 Q1016.11 197.127 1016.11 203.238 Q1016.11 209.349 1013.15 213.099 Q1010.21 216.849 1005.48 216.849 Q1002.64 216.849 1000.58 215.738 Q998.54 214.603 997.198 212.289 M1011.69 203.238 Q1011.69 198.539 1009.74 195.877 Q1007.82 193.192 1004.44 193.192 Q1001.06 193.192 999.119 195.877 Q997.198 198.539 997.198 203.238 Q997.198 207.937 999.119 210.622 Q1001.06 213.284 1004.44 213.284 Q1007.82 213.284 1009.74 210.622 Q1011.69 207.937 1011.69 203.238 Z" fill="#000000" fill-rule="nonzero" fill-opacity="1" /><path clip-path="url(#clip380)" d="M1022.73 205.946 L1022.73 190.252 L1026.99 190.252 L1026.99 205.784 Q1026.99 209.465 1028.42 211.316 Q1029.86 213.145 1032.73 213.145 Q1036.18 213.145 1038.17 210.946 Q1040.18 208.747 1040.18 204.951 L1040.18 190.252 L1044.44 190.252 L1044.44 216.178 L1040.18 216.178 L1040.18 212.196 Q1038.63 214.557 1036.57 215.715 Q1034.54 216.849 1031.83 216.849 Q1027.36 216.849 1025.04 214.071 Q1022.73 211.293 1022.73 205.946 M1033.45 189.627 L1033.45 189.627 Z" fill="#000000" fill-rule="nonzero" fill-opacity="1" /><path clip-path="url(#clip380)" d="M1053.22 180.159 L1057.48 180.159 L1057.48 216.178 L1053.22 216.178 L1053.22 180.159 Z" fill="#000000" fill-rule="nonzero" fill-opacity="1" /><path clip-path="url(#clip380)" d="M1078.17 203.145 Q1073.01 203.145 1071.02 204.326 Q1069.03 205.506 1069.03 208.354 Q1069.03 210.622 1070.51 211.965 Q1072.01 213.284 1074.58 213.284 Q1078.12 213.284 1080.25 210.784 Q1082.41 208.261 1082.41 204.094 L1082.41 203.145 L1078.17 203.145 M1086.66 201.386 L1086.66 216.178 L1082.41 216.178 L1082.41 212.242 Q1080.95 214.603 1078.77 215.738 Q1076.6 216.849 1073.45 216.849 Q1069.47 216.849 1067.1 214.627 Q1064.77 212.381 1064.77 208.631 Q1064.77 204.256 1067.68 202.034 Q1070.62 199.812 1076.43 199.812 L1082.41 199.812 L1082.41 199.395 Q1082.41 196.455 1080.46 194.858 Q1078.54 193.238 1075.04 193.238 Q1072.82 193.238 1070.72 193.77 Q1068.61 194.303 1066.66 195.367 L1066.66 191.432 Q1069 190.53 1071.2 190.09 Q1073.4 189.627 1075.48 189.627 Q1081.11 189.627 1083.89 192.543 Q1086.66 195.46 1086.66 201.386 Z" fill="#000000" fill-rule="nonzero" fill-opacity="1" /></svg>
