<?xml version="1.0" encoding="utf-8"?>
<svg xmlns="http://www.w3.org/2000/svg" xmlns:xlink="http://www.w3.org/1999/xlink" width="600" height="400" viewBox="0 0 2400 1600">
<defs>
  <clipPath id="clip340">
    <rect x="0" y="0" width="2400" height="1600"/>
  </clipPath>
</defs>
<path clip-path="url(#clip340)" d="M0 1600 L2400 1600 L2400 0 L0 0  Z" fill="#ffffff" fill-rule="evenodd" fill-opacity="1"/>
<defs>
  <clipPath id="clip341">
    <rect x="480" y="0" width="1681" height="1600"/>
  </clipPath>
</defs>
<path clip-path="url(#clip340)" d="M156.112 1486.45 L2352.76 1486.45 L2352.76 47.2441 L156.112 47.2441  Z" fill="#ffffff" fill-rule="evenodd" fill-opacity="1"/>
<defs>
  <clipPath id="clip342">
    <rect x="156" y="47" width="2198" height="1440"/>
  </clipPath>
</defs>
<polyline clip-path="url(#clip342)" style="stroke:#000000; stroke-linecap:round; stroke-linejoin:round; stroke-width:2; stroke-opacity:0.1; fill:none" points="430.693,1486.45 430.693,47.2441 "/>
<polyline clip-path="url(#clip342)" style="stroke:#000000; stroke-linecap:round; stroke-linejoin:round; stroke-width:2; stroke-opacity:0.1; fill:none" points="979.854,1486.45 979.854,47.2441 "/>
<polyline clip-path="url(#clip342)" style="stroke:#000000; stroke-linecap:round; stroke-linejoin:round; stroke-width:2; stroke-opacity:0.1; fill:none" points="1529.01,1486.45 1529.01,47.2441 "/>
<polyline clip-path="url(#clip342)" style="stroke:#000000; stroke-linecap:round; stroke-linejoin:round; stroke-width:2; stroke-opacity:0.1; fill:none" points="2078.18,1486.45 2078.18,47.2441 "/>
<polyline clip-path="url(#clip340)" style="stroke:#000000; stroke-linecap:round; stroke-linejoin:round; stroke-width:4; stroke-opacity:1; fill:none" points="156.112,1486.45 2352.76,1486.45 "/>
<polyline clip-path="url(#clip340)" style="stroke:#000000; stroke-linecap:round; stroke-linejoin:round; stroke-width:4; stroke-opacity:1; fill:none" points="430.693,1486.45 430.693,1467.55 "/>
<polyline clip-path="url(#clip340)" style="stroke:#000000; stroke-linecap:round; stroke-linejoin:round; stroke-width:4; stroke-opacity:1; fill:none" points="979.854,1486.45 979.854,1467.55 "/>
<polyline clip-path="url(#clip340)" style="stroke:#000000; stroke-linecap:round; stroke-linejoin:round; stroke-width:4; stroke-opacity:1; fill:none" points="1529.01,1486.45 1529.01,1467.55 "/>
<polyline clip-path="url(#clip340)" style="stroke:#000000; stroke-linecap:round; stroke-linejoin:round; stroke-width:4; stroke-opacity:1; fill:none" points="2078.18,1486.45 2078.18,1467.55 "/>
<path clip-path="url(#clip340)" d="M408.876 1517.37 Q405.264 1517.37 403.436 1520.93 Q401.63 1524.47 401.63 1531.6 Q401.63 1538.71 403.436 1542.27 Q405.264 1545.82 408.876 1545.82 Q412.51 1545.82 414.315 1542.27 Q416.144 1538.71 416.144 1531.6 Q416.144 1524.47 414.315 1520.93 Q412.51 1517.37 408.876 1517.37 M408.876 1513.66 Q414.686 1513.66 417.741 1518.27 Q420.82 1522.85 420.82 1531.6 Q420.82 1540.33 417.741 1544.94 Q414.686 1549.52 408.876 1549.52 Q403.065 1549.52 399.987 1544.94 Q396.931 1540.33 396.931 1531.6 Q396.931 1522.85 399.987 1518.27 Q403.065 1513.66 408.876 1513.66 Z" fill="#000000" fill-rule="nonzero" fill-opacity="1" /><path clip-path="url(#clip340)" d="M429.038 1542.97 L433.922 1542.97 L433.922 1548.85 L429.038 1548.85 L429.038 1542.97 Z" fill="#000000" fill-rule="nonzero" fill-opacity="1" /><path clip-path="url(#clip340)" d="M448.135 1544.91 L464.454 1544.91 L464.454 1548.85 L442.51 1548.85 L442.51 1544.91 Q445.172 1542.16 449.755 1537.53 Q454.361 1532.88 455.542 1531.53 Q457.787 1529.01 458.667 1527.27 Q459.57 1525.51 459.57 1523.82 Q459.57 1521.07 457.625 1519.33 Q455.704 1517.6 452.602 1517.6 Q450.403 1517.6 447.949 1518.36 Q445.519 1519.13 442.741 1520.68 L442.741 1515.95 Q445.565 1514.82 448.019 1514.24 Q450.473 1513.66 452.51 1513.66 Q457.88 1513.66 461.074 1516.35 Q464.269 1519.03 464.269 1523.52 Q464.269 1525.65 463.459 1527.57 Q462.672 1529.47 460.565 1532.07 Q459.986 1532.74 456.885 1535.95 Q453.783 1539.15 448.135 1544.91 Z" fill="#000000" fill-rule="nonzero" fill-opacity="1" /><path clip-path="url(#clip340)" d="M956.995 1517.37 Q953.384 1517.37 951.555 1520.93 Q949.75 1524.47 949.75 1531.6 Q949.75 1538.71 951.555 1542.27 Q953.384 1545.82 956.995 1545.82 Q960.629 1545.82 962.435 1542.27 Q964.263 1538.71 964.263 1531.6 Q964.263 1524.47 962.435 1520.93 Q960.629 1517.37 956.995 1517.37 M956.995 1513.66 Q962.805 1513.66 965.861 1518.27 Q968.939 1522.85 968.939 1531.6 Q968.939 1540.33 965.861 1544.94 Q962.805 1549.52 956.995 1549.52 Q951.185 1549.52 948.106 1544.94 Q945.05 1540.33 945.05 1531.6 Q945.05 1522.85 948.106 1518.27 Q951.185 1513.66 956.995 1513.66 Z" fill="#000000" fill-rule="nonzero" fill-opacity="1" /><path clip-path="url(#clip340)" d="M977.157 1542.97 L982.041 1542.97 L982.041 1548.85 L977.157 1548.85 L977.157 1542.97 Z" fill="#000000" fill-rule="nonzero" fill-opacity="1" /><path clip-path="url(#clip340)" d="M1005.07 1518.36 L993.268 1536.81 L1005.07 1536.81 L1005.07 1518.36 M1003.85 1514.29 L1009.73 1514.29 L1009.73 1536.81 L1014.66 1536.81 L1014.66 1540.7 L1009.73 1540.7 L1009.73 1548.85 L1005.07 1548.85 L1005.07 1540.7 L989.472 1540.7 L989.472 1536.19 L1003.85 1514.29 Z" fill="#000000" fill-rule="nonzero" fill-opacity="1" /><path clip-path="url(#clip340)" d="M1506.32 1517.37 Q1502.71 1517.37 1500.88 1520.93 Q1499.07 1524.47 1499.07 1531.6 Q1499.07 1538.71 1500.88 1542.27 Q1502.71 1545.82 1506.32 1545.82 Q1509.95 1545.82 1511.76 1542.27 Q1513.59 1538.71 1513.59 1531.6 Q1513.59 1524.47 1511.76 1520.93 Q1509.95 1517.37 1506.32 1517.37 M1506.32 1513.66 Q1512.13 1513.66 1515.18 1518.27 Q1518.26 1522.85 1518.26 1531.6 Q1518.26 1540.33 1515.18 1544.94 Q1512.13 1549.52 1506.32 1549.52 Q1500.51 1549.52 1497.43 1544.94 Q1494.37 1540.33 1494.37 1531.6 Q1494.37 1522.85 1497.43 1518.27 Q1500.51 1513.66 1506.32 1513.66 Z" fill="#000000" fill-rule="nonzero" fill-opacity="1" /><path clip-path="url(#clip340)" d="M1526.48 1542.97 L1531.36 1542.97 L1531.36 1548.85 L1526.48 1548.85 L1526.48 1542.97 Z" fill="#000000" fill-rule="nonzero" fill-opacity="1" /><path clip-path="url(#clip340)" d="M1552.13 1529.7 Q1548.98 1529.7 1547.13 1531.86 Q1545.3 1534.01 1545.3 1537.76 Q1545.3 1541.49 1547.13 1543.66 Q1548.98 1545.82 1552.13 1545.82 Q1555.28 1545.82 1557.1 1543.66 Q1558.96 1541.49 1558.96 1537.76 Q1558.96 1534.01 1557.1 1531.86 Q1555.28 1529.7 1552.13 1529.7 M1561.41 1515.05 L1561.41 1519.31 Q1559.65 1518.48 1557.85 1518.04 Q1556.06 1517.6 1554.3 1517.6 Q1549.67 1517.6 1547.22 1520.72 Q1544.79 1523.85 1544.44 1530.17 Q1545.81 1528.15 1547.87 1527.09 Q1549.93 1526 1552.41 1526 Q1557.61 1526 1560.62 1529.17 Q1563.66 1532.32 1563.66 1537.76 Q1563.66 1543.08 1560.51 1546.3 Q1557.36 1549.52 1552.13 1549.52 Q1546.13 1549.52 1542.96 1544.94 Q1539.79 1540.33 1539.79 1531.6 Q1539.79 1523.41 1543.68 1518.55 Q1547.57 1513.66 1554.12 1513.66 Q1555.88 1513.66 1557.66 1514.01 Q1559.47 1514.36 1561.41 1515.05 Z" fill="#000000" fill-rule="nonzero" fill-opacity="1" /><path clip-path="url(#clip340)" d="M2055.61 1517.37 Q2052 1517.37 2050.17 1520.93 Q2048.36 1524.47 2048.36 1531.6 Q2048.36 1538.71 2050.17 1542.27 Q2052 1545.82 2055.61 1545.82 Q2059.24 1545.82 2061.05 1542.27 Q2062.87 1538.71 2062.87 1531.6 Q2062.87 1524.47 2061.05 1520.93 Q2059.24 1517.37 2055.61 1517.37 M2055.61 1513.66 Q2061.42 1513.66 2064.47 1518.27 Q2067.55 1522.85 2067.55 1531.6 Q2067.55 1540.33 2064.47 1544.94 Q2061.42 1549.52 2055.61 1549.52 Q2049.8 1549.52 2046.72 1544.94 Q2043.66 1540.33 2043.66 1531.6 Q2043.66 1522.85 2046.72 1518.27 Q2049.8 1513.66 2055.61 1513.66 Z" fill="#000000" fill-rule="nonzero" fill-opacity="1" /><path clip-path="url(#clip340)" d="M2075.77 1542.97 L2080.65 1542.97 L2080.65 1548.85 L2075.77 1548.85 L2075.77 1542.97 Z" fill="#000000" fill-rule="nonzero" fill-opacity="1" /><path clip-path="url(#clip340)" d="M2100.84 1532.44 Q2097.5 1532.44 2095.58 1534.22 Q2093.68 1536 2093.68 1539.13 Q2093.68 1542.25 2095.58 1544.03 Q2097.5 1545.82 2100.84 1545.82 Q2104.17 1545.82 2106.09 1544.03 Q2108.01 1542.23 2108.01 1539.13 Q2108.01 1536 2106.09 1534.22 Q2104.19 1532.44 2100.84 1532.44 M2096.16 1530.45 Q2093.15 1529.7 2091.46 1527.64 Q2089.8 1525.58 2089.8 1522.62 Q2089.8 1518.48 2092.74 1516.07 Q2095.7 1513.66 2100.84 1513.66 Q2106 1513.66 2108.94 1516.07 Q2111.88 1518.48 2111.88 1522.62 Q2111.88 1525.58 2110.19 1527.64 Q2108.52 1529.7 2105.54 1530.45 Q2108.92 1531.23 2110.79 1533.52 Q2112.69 1535.82 2112.69 1539.13 Q2112.69 1544.15 2109.61 1546.83 Q2106.55 1549.52 2100.84 1549.52 Q2095.12 1549.52 2092.04 1546.83 Q2088.99 1544.15 2088.99 1539.13 Q2088.99 1535.82 2090.88 1533.52 Q2092.78 1531.23 2096.16 1530.45 M2094.45 1523.06 Q2094.45 1525.75 2096.12 1527.25 Q2097.8 1528.76 2100.84 1528.76 Q2103.85 1528.76 2105.54 1527.25 Q2107.25 1525.75 2107.25 1523.06 Q2107.25 1520.38 2105.54 1518.87 Q2103.85 1517.37 2100.84 1517.37 Q2097.8 1517.37 2096.12 1518.87 Q2094.45 1520.38 2094.45 1523.06 Z" fill="#000000" fill-rule="nonzero" fill-opacity="1" /><polyline clip-path="url(#clip342)" style="stroke:#000000; stroke-linecap:round; stroke-linejoin:round; stroke-width:2; stroke-opacity:0.1; fill:none" points="156.112,1482.85 2352.76,1482.85 "/>
<polyline clip-path="url(#clip342)" style="stroke:#000000; stroke-linecap:round; stroke-linejoin:round; stroke-width:2; stroke-opacity:0.1; fill:none" points="156.112,1179.96 2352.76,1179.96 "/>
<polyline clip-path="url(#clip342)" style="stroke:#000000; stroke-linecap:round; stroke-linejoin:round; stroke-width:2; stroke-opacity:0.1; fill:none" points="156.112,877.066 2352.76,877.066 "/>
<polyline clip-path="url(#clip342)" style="stroke:#000000; stroke-linecap:round; stroke-linejoin:round; stroke-width:2; stroke-opacity:0.1; fill:none" points="156.112,574.173 2352.76,574.173 "/>
<polyline clip-path="url(#clip342)" style="stroke:#000000; stroke-linecap:round; stroke-linejoin:round; stroke-width:2; stroke-opacity:0.1; fill:none" points="156.112,271.279 2352.76,271.279 "/>
<polyline clip-path="url(#clip340)" style="stroke:#000000; stroke-linecap:round; stroke-linejoin:round; stroke-width:4; stroke-opacity:1; fill:none" points="156.112,1486.45 156.112,47.2441 "/>
<polyline clip-path="url(#clip340)" style="stroke:#000000; stroke-linecap:round; stroke-linejoin:round; stroke-width:4; stroke-opacity:1; fill:none" points="156.112,1482.85 175.01,1482.85 "/>
<polyline clip-path="url(#clip340)" style="stroke:#000000; stroke-linecap:round; stroke-linejoin:round; stroke-width:4; stroke-opacity:1; fill:none" points="156.112,1179.96 175.01,1179.96 "/>
<polyline clip-path="url(#clip340)" style="stroke:#000000; stroke-linecap:round; stroke-linejoin:round; stroke-width:4; stroke-opacity:1; fill:none" points="156.112,877.066 175.01,877.066 "/>
<polyline clip-path="url(#clip340)" style="stroke:#000000; stroke-linecap:round; stroke-linejoin:round; stroke-width:4; stroke-opacity:1; fill:none" points="156.112,574.173 175.01,574.173 "/>
<polyline clip-path="url(#clip340)" style="stroke:#000000; stroke-linecap:round; stroke-linejoin:round; stroke-width:4; stroke-opacity:1; fill:none" points="156.112,271.279 175.01,271.279 "/>
<path clip-path="url(#clip340)" d="M62.9365 1468.65 Q59.3254 1468.65 57.4967 1472.22 Q55.6912 1475.76 55.6912 1482.89 Q55.6912 1490 57.4967 1493.56 Q59.3254 1497.1 62.9365 1497.1 Q66.5707 1497.1 68.3763 1493.56 Q70.205 1490 70.205 1482.89 Q70.205 1475.76 68.3763 1472.22 Q66.5707 1468.65 62.9365 1468.65 M62.9365 1464.95 Q68.7467 1464.95 71.8022 1469.56 Q74.8809 1474.14 74.8809 1482.89 Q74.8809 1491.62 71.8022 1496.22 Q68.7467 1500.81 62.9365 1500.81 Q57.1264 1500.81 54.0477 1496.22 Q50.9921 1491.62 50.9921 1482.89 Q50.9921 1474.14 54.0477 1469.56 Q57.1264 1464.95 62.9365 1464.95 Z" fill="#000000" fill-rule="nonzero" fill-opacity="1" /><path clip-path="url(#clip340)" d="M83.0984 1494.25 L87.9827 1494.25 L87.9827 1500.13 L83.0984 1500.13 L83.0984 1494.25 Z" fill="#000000" fill-rule="nonzero" fill-opacity="1" /><path clip-path="url(#clip340)" d="M108.168 1468.65 Q104.557 1468.65 102.728 1472.22 Q100.922 1475.76 100.922 1482.89 Q100.922 1490 102.728 1493.56 Q104.557 1497.1 108.168 1497.1 Q111.802 1497.1 113.608 1493.56 Q115.436 1490 115.436 1482.89 Q115.436 1475.76 113.608 1472.22 Q111.802 1468.65 108.168 1468.65 M108.168 1464.95 Q113.978 1464.95 117.033 1469.56 Q120.112 1474.14 120.112 1482.89 Q120.112 1491.62 117.033 1496.22 Q113.978 1500.81 108.168 1500.81 Q102.358 1500.81 99.2789 1496.22 Q96.2234 1491.62 96.2234 1482.89 Q96.2234 1474.14 99.2789 1469.56 Q102.358 1464.95 108.168 1464.95 Z" fill="#000000" fill-rule="nonzero" fill-opacity="1" /><path clip-path="url(#clip340)" d="M63.9319 1165.76 Q60.3208 1165.76 58.4921 1169.32 Q56.6865 1172.87 56.6865 1180 Q56.6865 1187.1 58.4921 1190.67 Q60.3208 1194.21 63.9319 1194.21 Q67.5661 1194.21 69.3717 1190.67 Q71.2004 1187.1 71.2004 1180 Q71.2004 1172.87 69.3717 1169.32 Q67.5661 1165.76 63.9319 1165.76 M63.9319 1162.06 Q69.742 1162.06 72.7976 1166.66 Q75.8763 1171.25 75.8763 1180 Q75.8763 1188.72 72.7976 1193.33 Q69.742 1197.91 63.9319 1197.91 Q58.1217 1197.91 55.043 1193.33 Q51.9875 1188.72 51.9875 1180 Q51.9875 1171.25 55.043 1166.66 Q58.1217 1162.06 63.9319 1162.06 Z" fill="#000000" fill-rule="nonzero" fill-opacity="1" /><path clip-path="url(#clip340)" d="M84.0938 1191.36 L88.978 1191.36 L88.978 1197.24 L84.0938 1197.24 L84.0938 1191.36 Z" fill="#000000" fill-rule="nonzero" fill-opacity="1" /><path clip-path="url(#clip340)" d="M99.2095 1162.68 L117.566 1162.68 L117.566 1166.62 L103.492 1166.62 L103.492 1175.09 Q104.51 1174.74 105.529 1174.58 Q106.547 1174.39 107.566 1174.39 Q113.353 1174.39 116.733 1177.56 Q120.112 1180.74 120.112 1186.15 Q120.112 1191.73 116.64 1194.83 Q113.168 1197.91 106.848 1197.91 Q104.672 1197.91 102.404 1197.54 Q100.159 1197.17 97.7511 1196.43 L97.7511 1191.73 Q99.8345 1192.87 102.057 1193.42 Q104.279 1193.98 106.756 1193.98 Q110.76 1193.98 113.098 1191.87 Q115.436 1189.76 115.436 1186.15 Q115.436 1182.54 113.098 1180.43 Q110.76 1178.33 106.756 1178.33 Q104.881 1178.33 103.006 1178.75 Q101.154 1179.16 99.2095 1180.04 L99.2095 1162.68 Z" fill="#000000" fill-rule="nonzero" fill-opacity="1" /><path clip-path="url(#clip340)" d="M53.7467 890.411 L61.3856 890.411 L61.3856 864.046 L53.0754 865.712 L53.0754 861.453 L61.3393 859.786 L66.0152 859.786 L66.0152 890.411 L73.654 890.411 L73.654 894.346 L53.7467 894.346 L53.7467 890.411 Z" fill="#000000" fill-rule="nonzero" fill-opacity="1" /><path clip-path="url(#clip340)" d="M83.0984 888.467 L87.9827 888.467 L87.9827 894.346 L83.0984 894.346 L83.0984 888.467 Z" fill="#000000" fill-rule="nonzero" fill-opacity="1" /><path clip-path="url(#clip340)" d="M108.168 862.865 Q104.557 862.865 102.728 866.43 Q100.922 869.972 100.922 877.101 Q100.922 884.208 102.728 887.772 Q104.557 891.314 108.168 891.314 Q111.802 891.314 113.608 887.772 Q115.436 884.208 115.436 877.101 Q115.436 869.972 113.608 866.43 Q111.802 862.865 108.168 862.865 M108.168 859.161 Q113.978 859.161 117.033 863.768 Q120.112 868.351 120.112 877.101 Q120.112 885.828 117.033 890.434 Q113.978 895.018 108.168 895.018 Q102.358 895.018 99.2789 890.434 Q96.2234 885.828 96.2234 877.101 Q96.2234 868.351 99.2789 863.768 Q102.358 859.161 108.168 859.161 Z" fill="#000000" fill-rule="nonzero" fill-opacity="1" /><path clip-path="url(#clip340)" d="M54.7421 587.517 L62.381 587.517 L62.381 561.152 L54.0708 562.818 L54.0708 558.559 L62.3347 556.893 L67.0106 556.893 L67.0106 587.517 L74.6494 587.517 L74.6494 591.453 L54.7421 591.453 L54.7421 587.517 Z" fill="#000000" fill-rule="nonzero" fill-opacity="1" /><path clip-path="url(#clip340)" d="M84.0938 585.573 L88.978 585.573 L88.978 591.453 L84.0938 591.453 L84.0938 585.573 Z" fill="#000000" fill-rule="nonzero" fill-opacity="1" /><path clip-path="url(#clip340)" d="M99.2095 556.893 L117.566 556.893 L117.566 560.828 L103.492 560.828 L103.492 569.3 Q104.51 568.953 105.529 568.791 Q106.547 568.605 107.566 568.605 Q113.353 568.605 116.733 571.777 Q120.112 574.948 120.112 580.365 Q120.112 585.943 116.64 589.045 Q113.168 592.124 106.848 592.124 Q104.672 592.124 102.404 591.753 Q100.159 591.383 97.7511 590.642 L97.7511 585.943 Q99.8345 587.078 102.057 587.633 Q104.279 588.189 106.756 588.189 Q110.76 588.189 113.098 586.082 Q115.436 583.976 115.436 580.365 Q115.436 576.754 113.098 574.647 Q110.76 572.541 106.756 572.541 Q104.881 572.541 103.006 572.957 Q101.154 573.374 99.2095 574.254 L99.2095 556.893 Z" fill="#000000" fill-rule="nonzero" fill-opacity="1" /><path clip-path="url(#clip340)" d="M56.9643 284.623 L73.2837 284.623 L73.2837 288.559 L51.3393 288.559 L51.3393 284.623 Q54.0014 281.869 58.5847 277.239 Q63.1911 272.586 64.3717 271.244 Q66.617 268.721 67.4967 266.985 Q68.3994 265.225 68.3994 263.536 Q68.3994 260.781 66.455 259.045 Q64.5337 257.309 61.4319 257.309 Q59.2328 257.309 56.7791 258.073 Q54.3486 258.837 51.5708 260.387 L51.5708 255.665 Q54.3949 254.531 56.8486 253.952 Q59.3023 253.374 61.3393 253.374 Q66.7096 253.374 69.9041 256.059 Q73.0985 258.744 73.0985 263.235 Q73.0985 265.364 72.2883 267.286 Q71.5013 269.184 69.3948 271.776 Q68.8161 272.448 65.7143 275.665 Q62.6124 278.86 56.9643 284.623 Z" fill="#000000" fill-rule="nonzero" fill-opacity="1" /><path clip-path="url(#clip340)" d="M83.0984 282.679 L87.9827 282.679 L87.9827 288.559 L83.0984 288.559 L83.0984 282.679 Z" fill="#000000" fill-rule="nonzero" fill-opacity="1" /><path clip-path="url(#clip340)" d="M108.168 257.077 Q104.557 257.077 102.728 260.642 Q100.922 264.184 100.922 271.313 Q100.922 278.42 102.728 281.985 Q104.557 285.526 108.168 285.526 Q111.802 285.526 113.608 281.985 Q115.436 278.42 115.436 271.313 Q115.436 264.184 113.608 260.642 Q111.802 257.077 108.168 257.077 M108.168 253.374 Q113.978 253.374 117.033 257.98 Q120.112 262.563 120.112 271.313 Q120.112 280.04 117.033 284.647 Q113.978 289.23 108.168 289.23 Q102.358 289.23 99.2789 284.647 Q96.2234 280.04 96.2234 271.313 Q96.2234 262.563 99.2789 257.98 Q102.358 253.374 108.168 253.374 Z" fill="#000000" fill-rule="nonzero" fill-opacity="1" /><polyline clip-path="url(#clip342)" style="stroke:#009af9; stroke-linecap:round; stroke-linejoin:round; stroke-width:4; stroke-opacity:1; fill:none" points="156.112,310.389 159.687,320.184 163.263,329.811 166.838,339.275 170.413,348.58 186.943,389.67 203.473,427.865 220.002,463.499 236.532,496.852 253.061,528.162 269.591,557.636 286.121,585.449 302.65,611.756 322.517,641.568 342.384,669.598 362.252,696.019 382.119,720.984 398.916,741.052 415.714,760.242 432.511,778.619 449.309,796.238 485.802,832.147 522.296,865.171 555.939,893.381 589.583,919.699 625.653,946.043 661.722,970.66 703.513,997.261 745.303,1022.03 782.441,1042.67 819.579,1062.14 852.146,1078.34 884.713,1093.79 920.22,1109.85 955.726,1125.15 991.444,1139.83 1027.16,1153.86 1106.14,1182.78 1181.29,1207.94 1259.43,1232.01 1325.2,1250.8 1405.51,1272.18 1479.07,1290.4 1547.01,1306.21 1615.83,1321.34 1692.96,1337.33 1762.85,1351.03 1842.88,1365.9 1916.97,1378.97 1990.02,1391.26 2060.94,1402.7 2133.65,1413.97 2213.3,1425.85 2329.02,1442.41 2352.76,1445.72 "/>
<polyline clip-path="url(#clip342)" style="stroke:#e26f46; stroke-linecap:round; stroke-linejoin:round; stroke-width:4; stroke-opacity:1; fill:none" points="156.112,87.9763 159.687,95.8134 163.263,103.55 166.838,111.19 170.413,118.734 186.943,152.441 203.473,184.372 220.002,214.703 236.532,243.587 253.061,271.157 269.591,297.527 286.121,322.796 302.65,347.053 322.517,374.979 342.384,401.674 362.252,427.242 382.119,451.774 415.714,491.123 449.309,528.072 485.802,565.808 522.296,601.331 555.939,632.331 589.583,661.822 625.653,691.922 661.722,720.597 703.513,752.206 745.303,782.248 782.441,807.749 819.579,832.221 852.146,852.895 884.713,872.888 955.726,914.321 1027.16,953.323 1106.14,993.71 1181.29,1029.79 1259.43,1065.15 1325.2,1093.4 1405.51,1126.19 1479.07,1154.75 1547.01,1179.98 1615.83,1204.51 1692.96,1230.87 1762.85,1253.81 1842.88,1279.04 1916.97,1301.5 1990.02,1322.86 2060.94,1342.9 2133.65,1362.78 2213.3,1383.84 2329.02,1413.18 2352.76,1419.03 "/>
<path clip-path="url(#clip340)" d="M1729.92 250.738 L2279.53 250.738 L2279.53 95.2176 L1729.92 95.2176  Z" fill="#ffffff" fill-rule="evenodd" fill-opacity="1"/>
<polyline clip-path="url(#clip340)" style="stroke:#000000; stroke-linecap:round; stroke-linejoin:round; stroke-width:4; stroke-opacity:1; fill:none" points="1729.92,250.738 2279.53,250.738 2279.53,95.2176 1729.92,95.2176 1729.92,250.738 "/>
<polyline clip-path="url(#clip340)" style="stroke:#009af9; stroke-linecap:round; stroke-linejoin:round; stroke-width:4; stroke-opacity:1; fill:none" points="1754.33,147.058 1900.77,147.058 "/>
<path clip-path="url(#clip340)" d="M1950.73 159.407 L1950.73 150.125 L1943.09 150.125 L1943.09 146.282 L1955.36 146.282 L1955.36 161.12 Q1952.65 163.041 1949.39 164.037 Q1946.12 165.009 1942.42 165.009 Q1934.32 165.009 1929.74 160.287 Q1925.18 155.541 1925.18 147.092 Q1925.18 138.62 1929.74 133.898 Q1934.32 129.153 1942.42 129.153 Q1945.8 129.153 1948.83 129.986 Q1951.89 130.819 1954.46 132.44 L1954.46 137.416 Q1951.87 135.217 1948.95 134.106 Q1946.03 132.995 1942.81 132.995 Q1936.47 132.995 1933.28 136.537 Q1930.11 140.078 1930.11 147.092 Q1930.11 154.083 1933.28 157.625 Q1936.47 161.166 1942.81 161.166 Q1945.29 161.166 1947.24 160.75 Q1949.18 160.31 1950.73 159.407 Z" fill="#000000" fill-rule="nonzero" fill-opacity="1" /><polyline clip-path="url(#clip340)" style="stroke:#e26f46; stroke-linecap:round; stroke-linejoin:round; stroke-width:4; stroke-opacity:1; fill:none" points="1754.33,198.898 1900.77,198.898 "/>
<path clip-path="url(#clip340)" d="M1925.18 181.618 L1929.85 181.618 L1929.85 216.178 L1925.18 216.178 L1925.18 181.618 Z" fill="#000000" fill-rule="nonzero" fill-opacity="1" /><path clip-path="url(#clip340)" d="M1960.52 200.529 L1960.52 216.178 L1956.26 216.178 L1956.26 200.668 Q1956.26 196.988 1954.83 195.159 Q1953.39 193.33 1950.52 193.33 Q1947.07 193.33 1945.08 195.53 Q1943.09 197.729 1943.09 201.525 L1943.09 216.178 L1938.81 216.178 L1938.81 190.252 L1943.09 190.252 L1943.09 194.28 Q1944.62 191.942 1946.68 190.784 Q1948.76 189.627 1951.47 189.627 Q1955.94 189.627 1958.23 192.405 Q1960.52 195.159 1960.52 200.529 Z" fill="#000000" fill-rule="nonzero" fill-opacity="1" /><path clip-path="url(#clip340)" d="M1986.08 194.187 L1986.08 180.159 L1990.34 180.159 L1990.34 216.178 L1986.08 216.178 L1986.08 212.289 Q1984.74 214.603 1982.68 215.738 Q1980.64 216.849 1977.77 216.849 Q1973.07 216.849 1970.11 213.099 Q1967.17 209.349 1967.17 203.238 Q1967.17 197.127 1970.11 193.377 Q1973.07 189.627 1977.77 189.627 Q1980.64 189.627 1982.68 190.761 Q1984.74 191.872 1986.08 194.187 M1971.56 203.238 Q1971.56 207.937 1973.49 210.622 Q1975.43 213.284 1978.81 213.284 Q1982.19 213.284 1984.13 210.622 Q1986.08 207.937 1986.08 203.238 Q1986.08 198.539 1984.13 195.877 Q1982.19 193.192 1978.81 193.192 Q1975.43 193.192 1973.49 195.877 Q1971.56 198.539 1971.56 203.238 Z" fill="#000000" fill-rule="nonzero" fill-opacity="1" /><path clip-path="url(#clip340)" d="M2021.29 202.15 L2021.29 204.233 L2001.7 204.233 Q2001.98 208.631 2004.34 210.946 Q2006.73 213.238 2010.96 213.238 Q2013.42 213.238 2015.71 212.636 Q2018.02 212.034 2020.29 210.83 L2020.29 214.858 Q2018 215.83 2015.59 216.34 Q2013.18 216.849 2010.71 216.849 Q2004.5 216.849 2000.87 213.238 Q1997.26 209.627 1997.26 203.469 Q1997.26 197.104 2000.68 193.377 Q2004.13 189.627 2009.97 189.627 Q2015.2 189.627 2018.23 193.006 Q2021.29 196.363 2021.29 202.15 M2017.03 200.9 Q2016.98 197.405 2015.06 195.321 Q2013.16 193.238 2010.01 193.238 Q2006.45 193.238 2004.3 195.252 Q2002.17 197.266 2001.84 200.923 L2017.03 200.9 Z" fill="#000000" fill-rule="nonzero" fill-opacity="1" /><path clip-path="url(#clip340)" d="M2032.4 212.289 L2032.4 226.039 L2028.11 226.039 L2028.11 190.252 L2032.4 190.252 L2032.4 194.187 Q2033.74 191.872 2035.78 190.761 Q2037.84 189.627 2040.68 189.627 Q2045.41 189.627 2048.35 193.377 Q2051.31 197.127 2051.31 203.238 Q2051.31 209.349 2048.35 213.099 Q2045.41 216.849 2040.68 216.849 Q2037.84 216.849 2035.78 215.738 Q2033.74 214.603 2032.4 212.289 M2046.89 203.238 Q2046.89 198.539 2044.94 195.877 Q2043.02 193.192 2039.64 193.192 Q2036.26 193.192 2034.32 195.877 Q2032.4 198.539 2032.4 203.238 Q2032.4 207.937 2034.32 210.622 Q2036.26 213.284 2039.64 213.284 Q2043.02 213.284 2044.94 210.622 Q2046.89 207.937 2046.89 203.238 Z" fill="#000000" fill-rule="nonzero" fill-opacity="1" /><path clip-path="url(#clip340)" d="M2080.54 202.15 L2080.54 204.233 L2060.96 204.233 Q2061.24 208.631 2063.6 210.946 Q2065.98 213.238 2070.22 213.238 Q2072.67 213.238 2074.97 212.636 Q2077.28 212.034 2079.55 210.83 L2079.55 214.858 Q2077.26 215.83 2074.85 216.34 Q2072.44 216.849 2069.97 216.849 Q2063.76 216.849 2060.13 213.238 Q2056.52 209.627 2056.52 203.469 Q2056.52 197.104 2059.94 193.377 Q2063.39 189.627 2069.23 189.627 Q2074.46 189.627 2077.49 193.006 Q2080.54 196.363 2080.54 202.15 M2076.29 200.9 Q2076.24 197.405 2074.32 195.321 Q2072.42 193.238 2069.27 193.238 Q2065.71 193.238 2063.55 195.252 Q2061.42 197.266 2061.1 200.923 L2076.29 200.9 Z" fill="#000000" fill-rule="nonzero" fill-opacity="1" /><path clip-path="url(#clip340)" d="M2109.09 200.529 L2109.09 216.178 L2104.83 216.178 L2104.83 200.668 Q2104.83 196.988 2103.39 195.159 Q2101.96 193.33 2099.09 193.33 Q2095.64 193.33 2093.65 195.53 Q2091.66 197.729 2091.66 201.525 L2091.66 216.178 L2087.37 216.178 L2087.37 190.252 L2091.66 190.252 L2091.66 194.28 Q2093.18 191.942 2095.24 190.784 Q2097.33 189.627 2100.04 189.627 Q2104.5 189.627 2106.79 192.405 Q2109.09 195.159 2109.09 200.529 Z" fill="#000000" fill-rule="nonzero" fill-opacity="1" /><path clip-path="url(#clip340)" d="M2134.64 194.187 L2134.64 180.159 L2138.9 180.159 L2138.9 216.178 L2134.64 216.178 L2134.64 212.289 Q2133.3 214.603 2131.24 215.738 Q2129.2 216.849 2126.33 216.849 Q2121.63 216.849 2118.67 213.099 Q2115.73 209.349 2115.73 203.238 Q2115.73 197.127 2118.67 193.377 Q2121.63 189.627 2126.33 189.627 Q2129.2 189.627 2131.24 190.761 Q2133.3 191.872 2134.64 194.187 M2120.13 203.238 Q2120.13 207.937 2122.05 210.622 Q2123.99 213.284 2127.37 213.284 Q2130.75 213.284 2132.7 210.622 Q2134.64 207.937 2134.64 203.238 Q2134.64 198.539 2132.7 195.877 Q2130.75 193.192 2127.37 193.192 Q2123.99 193.192 2122.05 195.877 Q2120.13 198.539 2120.13 203.238 Z" fill="#000000" fill-rule="nonzero" fill-opacity="1" /><path clip-path="url(#clip340)" d="M2169.85 202.15 L2169.85 204.233 L2150.27 204.233 Q2150.54 208.631 2152.91 210.946 Q2155.29 213.238 2159.53 213.238 Q2161.98 213.238 2164.27 212.636 Q2166.59 212.034 2168.85 210.83 L2168.85 214.858 Q2166.56 215.83 2164.16 216.34 Q2161.75 216.849 2159.27 216.849 Q2153.07 216.849 2149.43 213.238 Q2145.82 209.627 2145.82 203.469 Q2145.82 197.104 2149.25 193.377 Q2152.7 189.627 2158.53 189.627 Q2163.76 189.627 2166.79 193.006 Q2169.85 196.363 2169.85 202.15 M2165.59 200.9 Q2165.54 197.405 2163.62 195.321 Q2161.73 193.238 2158.58 193.238 Q2155.01 193.238 2152.86 195.252 Q2150.73 197.266 2150.41 200.923 L2165.59 200.9 Z" fill="#000000" fill-rule="nonzero" fill-opacity="1" /><path clip-path="url(#clip340)" d="M2198.39 200.529 L2198.39 216.178 L2194.13 216.178 L2194.13 200.668 Q2194.13 196.988 2192.7 195.159 Q2191.26 193.33 2188.39 193.33 Q2184.94 193.33 2182.95 195.53 Q2180.96 197.729 2180.96 201.525 L2180.96 216.178 L2176.68 216.178 L2176.68 190.252 L2180.96 190.252 L2180.96 194.28 Q2182.49 191.942 2184.55 190.784 Q2186.63 189.627 2189.34 189.627 Q2193.81 189.627 2196.1 192.405 Q2198.39 195.159 2198.39 200.529 Z" fill="#000000" fill-rule="nonzero" fill-opacity="1" /><path clip-path="url(#clip340)" d="M2225.54 191.247 L2225.54 195.229 Q2223.74 194.233 2221.91 193.747 Q2220.1 193.238 2218.25 193.238 Q2214.11 193.238 2211.82 195.877 Q2209.53 198.492 2209.53 203.238 Q2209.53 207.983 2211.82 210.622 Q2214.11 213.238 2218.25 213.238 Q2220.1 213.238 2221.91 212.752 Q2223.74 212.242 2225.54 211.247 L2225.54 215.182 Q2223.76 216.016 2221.84 216.432 Q2219.94 216.849 2217.79 216.849 Q2211.93 216.849 2208.48 213.168 Q2205.03 209.488 2205.03 203.238 Q2205.03 196.895 2208.51 193.261 Q2212 189.627 2218.07 189.627 Q2220.03 189.627 2221.91 190.043 Q2223.78 190.437 2225.54 191.247 Z" fill="#000000" fill-rule="nonzero" fill-opacity="1" /><path clip-path="url(#clip340)" d="M2255.13 202.15 L2255.13 204.233 L2235.54 204.233 Q2235.82 208.631 2238.18 210.946 Q2240.57 213.238 2244.8 213.238 Q2247.26 213.238 2249.55 212.636 Q2251.86 212.034 2254.13 210.83 L2254.13 214.858 Q2251.84 215.83 2249.43 216.34 Q2247.03 216.849 2244.55 216.849 Q2238.34 216.849 2234.71 213.238 Q2231.1 209.627 2231.1 203.469 Q2231.1 197.104 2234.53 193.377 Q2237.97 189.627 2243.81 189.627 Q2249.04 189.627 2252.07 193.006 Q2255.13 196.363 2255.13 202.15 M2250.87 200.9 Q2250.82 197.405 2248.9 195.321 Q2247 193.238 2243.85 193.238 Q2240.29 193.238 2238.14 195.252 Q2236.01 197.266 2235.68 200.923 L2250.87 200.9 Z" fill="#000000" fill-rule="nonzero" fill-opacity="1" /></svg>
