<?xml version="1.0" encoding="utf-8"?>
<svg xmlns="http://www.w3.org/2000/svg" xmlns:xlink="http://www.w3.org/1999/xlink" width="600" height="400" viewBox="0 0 2400 1600">
<defs>
  <clipPath id="clip610">
    <rect x="0" y="0" width="2400" height="1600"/>
  </clipPath>
</defs>
<path clip-path="url(#clip610)" d="M0 1600 L2400 1600 L2400 0 L0 0  Z" fill="#ffffff" fill-rule="evenodd" fill-opacity="1"/>
<defs>
  <clipPath id="clip611">
    <rect x="480" y="0" width="1681" height="1600"/>
  </clipPath>
</defs>
<path clip-path="url(#clip610)" d="M186.274 1486.45 L2352.76 1486.45 L2352.76 123.472 L186.274 123.472  Z" fill="#ffffff" fill-rule="evenodd" fill-opacity="1"/>
<defs>
  <clipPath id="clip612">
    <rect x="186" y="123" width="2167" height="1364"/>
  </clipPath>
</defs>
<polyline clip-path="url(#clip612)" style="stroke:#000000; stroke-linecap:round; stroke-linejoin:round; stroke-width:2; stroke-opacity:0.1; fill:none" points="186.274,1486.45 186.274,123.472 "/>
<polyline clip-path="url(#clip612)" style="stroke:#000000; stroke-linecap:round; stroke-linejoin:round; stroke-width:2; stroke-opacity:0.1; fill:none" points="619.57,1486.45 619.57,123.472 "/>
<polyline clip-path="url(#clip612)" style="stroke:#000000; stroke-linecap:round; stroke-linejoin:round; stroke-width:2; stroke-opacity:0.1; fill:none" points="1052.87,1486.45 1052.87,123.472 "/>
<polyline clip-path="url(#clip612)" style="stroke:#000000; stroke-linecap:round; stroke-linejoin:round; stroke-width:2; stroke-opacity:0.1; fill:none" points="1486.16,1486.45 1486.16,123.472 "/>
<polyline clip-path="url(#clip612)" style="stroke:#000000; stroke-linecap:round; stroke-linejoin:round; stroke-width:2; stroke-opacity:0.1; fill:none" points="1919.46,1486.45 1919.46,123.472 "/>
<polyline clip-path="url(#clip612)" style="stroke:#000000; stroke-linecap:round; stroke-linejoin:round; stroke-width:2; stroke-opacity:0.1; fill:none" points="2352.76,1486.45 2352.76,123.472 "/>
<polyline clip-path="url(#clip610)" style="stroke:#000000; stroke-linecap:round; stroke-linejoin:round; stroke-width:4; stroke-opacity:1; fill:none" points="186.274,1486.45 2352.76,1486.45 "/>
<polyline clip-path="url(#clip610)" style="stroke:#000000; stroke-linecap:round; stroke-linejoin:round; stroke-width:4; stroke-opacity:1; fill:none" points="186.274,1486.45 186.274,1467.55 "/>
<polyline clip-path="url(#clip610)" style="stroke:#000000; stroke-linecap:round; stroke-linejoin:round; stroke-width:4; stroke-opacity:1; fill:none" points="619.57,1486.45 619.57,1467.55 "/>
<polyline clip-path="url(#clip610)" style="stroke:#000000; stroke-linecap:round; stroke-linejoin:round; stroke-width:4; stroke-opacity:1; fill:none" points="1052.87,1486.45 1052.87,1467.55 "/>
<polyline clip-path="url(#clip610)" style="stroke:#000000; stroke-linecap:round; stroke-linejoin:round; stroke-width:4; stroke-opacity:1; fill:none" points="1486.16,1486.45 1486.16,1467.55 "/>
<polyline clip-path="url(#clip610)" style="stroke:#000000; stroke-linecap:round; stroke-linejoin:round; stroke-width:4; stroke-opacity:1; fill:none" points="1919.46,1486.45 1919.46,1467.55 "/>
<polyline clip-path="url(#clip610)" style="stroke:#000000; stroke-linecap:round; stroke-linejoin:round; stroke-width:4; stroke-opacity:1; fill:none" points="2352.76,1486.45 2352.76,1467.55 "/>
<path clip-path="url(#clip610)" d="M163.658 1517.37 Q160.047 1517.37 158.219 1520.93 Q156.413 1524.47 156.413 1531.6 Q156.413 1538.71 158.219 1542.27 Q160.047 1545.82 163.658 1545.82 Q167.293 1545.82 169.098 1542.27 Q170.927 1538.71 170.927 1531.6 Q170.927 1524.47 169.098 1520.93 Q167.293 1517.37 163.658 1517.37 M163.658 1513.66 Q169.469 1513.66 172.524 1518.27 Q175.603 1522.85 175.603 1531.6 Q175.603 1540.33 172.524 1544.94 Q169.469 1549.52 163.658 1549.52 Q157.848 1549.52 154.77 1544.94 Q151.714 1540.33 151.714 1531.6 Q151.714 1522.85 154.77 1518.27 Q157.848 1513.66 163.658 1513.66 Z" fill="#000000" fill-rule="nonzero" fill-opacity="1" /><path clip-path="url(#clip610)" d="M183.82 1542.97 L188.705 1542.97 L188.705 1548.85 L183.82 1548.85 L183.82 1542.97 Z" fill="#000000" fill-rule="nonzero" fill-opacity="1" /><path clip-path="url(#clip610)" d="M208.89 1517.37 Q205.279 1517.37 203.45 1520.93 Q201.644 1524.47 201.644 1531.6 Q201.644 1538.71 203.45 1542.27 Q205.279 1545.82 208.89 1545.82 Q212.524 1545.82 214.329 1542.27 Q216.158 1538.71 216.158 1531.6 Q216.158 1524.47 214.329 1520.93 Q212.524 1517.37 208.89 1517.37 M208.89 1513.66 Q214.7 1513.66 217.755 1518.27 Q220.834 1522.85 220.834 1531.6 Q220.834 1540.33 217.755 1544.94 Q214.7 1549.52 208.89 1549.52 Q203.079 1549.52 200.001 1544.94 Q196.945 1540.33 196.945 1531.6 Q196.945 1522.85 200.001 1518.27 Q203.079 1513.66 208.89 1513.66 Z" fill="#000000" fill-rule="nonzero" fill-opacity="1" /><path clip-path="url(#clip610)" d="M597.753 1517.37 Q594.142 1517.37 592.314 1520.93 Q590.508 1524.47 590.508 1531.6 Q590.508 1538.71 592.314 1542.27 Q594.142 1545.82 597.753 1545.82 Q601.388 1545.82 603.193 1542.27 Q605.022 1538.71 605.022 1531.6 Q605.022 1524.47 603.193 1520.93 Q601.388 1517.37 597.753 1517.37 M597.753 1513.66 Q603.564 1513.66 606.619 1518.27 Q609.698 1522.85 609.698 1531.6 Q609.698 1540.33 606.619 1544.94 Q603.564 1549.52 597.753 1549.52 Q591.943 1549.52 588.865 1544.94 Q585.809 1540.33 585.809 1531.6 Q585.809 1522.85 588.865 1518.27 Q591.943 1513.66 597.753 1513.66 Z" fill="#000000" fill-rule="nonzero" fill-opacity="1" /><path clip-path="url(#clip610)" d="M617.915 1542.97 L622.8 1542.97 L622.8 1548.85 L617.915 1548.85 L617.915 1542.97 Z" fill="#000000" fill-rule="nonzero" fill-opacity="1" /><path clip-path="url(#clip610)" d="M637.012 1544.91 L653.332 1544.91 L653.332 1548.85 L631.387 1548.85 L631.387 1544.91 Q634.049 1542.16 638.633 1537.53 Q643.239 1532.88 644.42 1531.53 Q646.665 1529.01 647.545 1527.27 Q648.448 1525.51 648.448 1523.82 Q648.448 1521.07 646.503 1519.33 Q644.582 1517.6 641.48 1517.6 Q639.281 1517.6 636.827 1518.36 Q634.397 1519.13 631.619 1520.68 L631.619 1515.95 Q634.443 1514.82 636.897 1514.24 Q639.35 1513.66 641.387 1513.66 Q646.758 1513.66 649.952 1516.35 Q653.147 1519.03 653.147 1523.52 Q653.147 1525.65 652.336 1527.57 Q651.549 1529.47 649.443 1532.07 Q648.864 1532.74 645.762 1535.95 Q642.661 1539.15 637.012 1544.91 Z" fill="#000000" fill-rule="nonzero" fill-opacity="1" /><path clip-path="url(#clip610)" d="M1030.01 1517.37 Q1026.4 1517.37 1024.57 1520.93 Q1022.76 1524.47 1022.76 1531.6 Q1022.76 1538.71 1024.57 1542.27 Q1026.4 1545.82 1030.01 1545.82 Q1033.64 1545.82 1035.45 1542.27 Q1037.28 1538.71 1037.28 1531.6 Q1037.28 1524.47 1035.45 1520.93 Q1033.64 1517.37 1030.01 1517.37 M1030.01 1513.66 Q1035.82 1513.66 1038.87 1518.27 Q1041.95 1522.85 1041.95 1531.6 Q1041.95 1540.33 1038.87 1544.94 Q1035.82 1549.52 1030.01 1549.52 Q1024.2 1549.52 1021.12 1544.94 Q1018.06 1540.33 1018.06 1531.6 Q1018.06 1522.85 1021.12 1518.27 Q1024.2 1513.66 1030.01 1513.66 Z" fill="#000000" fill-rule="nonzero" fill-opacity="1" /><path clip-path="url(#clip610)" d="M1050.17 1542.97 L1055.05 1542.97 L1055.05 1548.85 L1050.17 1548.85 L1050.17 1542.97 Z" fill="#000000" fill-rule="nonzero" fill-opacity="1" /><path clip-path="url(#clip610)" d="M1078.09 1518.36 L1066.28 1536.81 L1078.09 1536.81 L1078.09 1518.36 M1076.86 1514.29 L1082.74 1514.29 L1082.74 1536.81 L1087.67 1536.81 L1087.67 1540.7 L1082.74 1540.7 L1082.74 1548.85 L1078.09 1548.85 L1078.09 1540.7 L1062.48 1540.7 L1062.48 1536.19 L1076.86 1514.29 Z" fill="#000000" fill-rule="nonzero" fill-opacity="1" /><path clip-path="url(#clip610)" d="M1463.47 1517.37 Q1459.86 1517.37 1458.03 1520.93 Q1456.22 1524.47 1456.22 1531.6 Q1456.22 1538.71 1458.03 1542.27 Q1459.86 1545.82 1463.47 1545.82 Q1467.1 1545.82 1468.91 1542.27 Q1470.73 1538.71 1470.73 1531.6 Q1470.73 1524.47 1468.91 1520.93 Q1467.1 1517.37 1463.47 1517.37 M1463.47 1513.66 Q1469.28 1513.66 1472.33 1518.27 Q1475.41 1522.85 1475.41 1531.6 Q1475.41 1540.33 1472.33 1544.94 Q1469.28 1549.52 1463.47 1549.52 Q1457.66 1549.52 1454.58 1544.94 Q1451.52 1540.33 1451.52 1531.6 Q1451.52 1522.85 1454.58 1518.27 Q1457.66 1513.66 1463.47 1513.66 Z" fill="#000000" fill-rule="nonzero" fill-opacity="1" /><path clip-path="url(#clip610)" d="M1483.63 1542.97 L1488.51 1542.97 L1488.51 1548.85 L1483.63 1548.85 L1483.63 1542.97 Z" fill="#000000" fill-rule="nonzero" fill-opacity="1" /><path clip-path="url(#clip610)" d="M1509.28 1529.7 Q1506.13 1529.7 1504.28 1531.86 Q1502.45 1534.01 1502.45 1537.76 Q1502.45 1541.49 1504.28 1543.66 Q1506.13 1545.82 1509.28 1545.82 Q1512.42 1545.82 1514.25 1543.66 Q1516.11 1541.49 1516.11 1537.76 Q1516.11 1534.01 1514.25 1531.86 Q1512.42 1529.7 1509.28 1529.7 M1518.56 1515.05 L1518.56 1519.31 Q1516.8 1518.48 1514.99 1518.04 Q1513.21 1517.6 1511.45 1517.6 Q1506.82 1517.6 1504.37 1520.72 Q1501.94 1523.85 1501.59 1530.17 Q1502.96 1528.15 1505.02 1527.09 Q1507.08 1526 1509.55 1526 Q1514.76 1526 1517.77 1529.17 Q1520.8 1532.32 1520.8 1537.76 Q1520.8 1543.08 1517.66 1546.3 Q1514.51 1549.52 1509.28 1549.52 Q1503.28 1549.52 1500.11 1544.94 Q1496.94 1540.33 1496.94 1531.6 Q1496.94 1523.41 1500.83 1518.55 Q1504.72 1513.66 1511.27 1513.66 Q1513.03 1513.66 1514.81 1514.01 Q1516.61 1514.36 1518.56 1515.05 Z" fill="#000000" fill-rule="nonzero" fill-opacity="1" /><path clip-path="url(#clip610)" d="M1896.89 1517.37 Q1893.28 1517.37 1891.45 1520.93 Q1889.64 1524.47 1889.64 1531.6 Q1889.64 1538.71 1891.45 1542.27 Q1893.28 1545.82 1896.89 1545.82 Q1900.52 1545.82 1902.33 1542.27 Q1904.16 1538.71 1904.16 1531.6 Q1904.16 1524.47 1902.33 1520.93 Q1900.52 1517.37 1896.89 1517.37 M1896.89 1513.66 Q1902.7 1513.66 1905.76 1518.27 Q1908.83 1522.85 1908.83 1531.6 Q1908.83 1540.33 1905.76 1544.94 Q1902.7 1549.52 1896.89 1549.52 Q1891.08 1549.52 1888 1544.94 Q1884.95 1540.33 1884.95 1531.6 Q1884.95 1522.85 1888 1518.27 Q1891.08 1513.66 1896.89 1513.66 Z" fill="#000000" fill-rule="nonzero" fill-opacity="1" /><path clip-path="url(#clip610)" d="M1917.05 1542.97 L1921.94 1542.97 L1921.94 1548.85 L1917.05 1548.85 L1917.05 1542.97 Z" fill="#000000" fill-rule="nonzero" fill-opacity="1" /><path clip-path="url(#clip610)" d="M1942.12 1532.44 Q1938.79 1532.44 1936.87 1534.22 Q1934.97 1536 1934.97 1539.13 Q1934.97 1542.25 1936.87 1544.03 Q1938.79 1545.82 1942.12 1545.82 Q1945.45 1545.82 1947.38 1544.03 Q1949.3 1542.23 1949.3 1539.13 Q1949.3 1536 1947.38 1534.22 Q1945.48 1532.44 1942.12 1532.44 M1937.45 1530.45 Q1934.44 1529.7 1932.75 1527.64 Q1931.08 1525.58 1931.08 1522.62 Q1931.08 1518.48 1934.02 1516.07 Q1936.98 1513.66 1942.12 1513.66 Q1947.28 1513.66 1950.22 1516.07 Q1953.16 1518.48 1953.16 1522.62 Q1953.16 1525.58 1951.47 1527.64 Q1949.81 1529.7 1946.82 1530.45 Q1950.2 1531.23 1952.08 1533.52 Q1953.97 1535.82 1953.97 1539.13 Q1953.97 1544.15 1950.89 1546.83 Q1947.84 1549.52 1942.12 1549.52 Q1936.4 1549.52 1933.33 1546.83 Q1930.27 1544.15 1930.27 1539.13 Q1930.27 1535.82 1932.17 1533.52 Q1934.07 1531.23 1937.45 1530.45 M1935.73 1523.06 Q1935.73 1525.75 1937.4 1527.25 Q1939.09 1528.76 1942.12 1528.76 Q1945.13 1528.76 1946.82 1527.25 Q1948.53 1525.75 1948.53 1523.06 Q1948.53 1520.38 1946.82 1518.87 Q1945.13 1517.37 1942.12 1517.37 Q1939.09 1517.37 1937.4 1518.87 Q1935.73 1520.38 1935.73 1523.06 Z" fill="#000000" fill-rule="nonzero" fill-opacity="1" /><path clip-path="url(#clip610)" d="M2319.91 1544.91 L2327.55 1544.91 L2327.55 1518.55 L2319.24 1520.21 L2319.24 1515.95 L2327.5 1514.29 L2332.18 1514.29 L2332.18 1544.91 L2339.82 1544.91 L2339.82 1548.85 L2319.91 1548.85 L2319.91 1544.91 Z" fill="#000000" fill-rule="nonzero" fill-opacity="1" /><path clip-path="url(#clip610)" d="M2349.26 1542.97 L2354.14 1542.97 L2354.14 1548.85 L2349.26 1548.85 L2349.26 1542.97 Z" fill="#000000" fill-rule="nonzero" fill-opacity="1" /><path clip-path="url(#clip610)" d="M2374.33 1517.37 Q2370.72 1517.37 2368.89 1520.93 Q2367.08 1524.47 2367.08 1531.6 Q2367.08 1538.71 2368.89 1542.27 Q2370.72 1545.82 2374.33 1545.82 Q2377.96 1545.82 2379.77 1542.27 Q2381.6 1538.71 2381.6 1531.6 Q2381.6 1524.47 2379.77 1520.93 Q2377.96 1517.37 2374.33 1517.37 M2374.33 1513.66 Q2380.14 1513.66 2383.2 1518.27 Q2386.27 1522.85 2386.27 1531.6 Q2386.27 1540.33 2383.2 1544.94 Q2380.14 1549.52 2374.33 1549.52 Q2368.52 1549.52 2365.44 1544.94 Q2362.39 1540.33 2362.39 1531.6 Q2362.39 1522.85 2365.44 1518.27 Q2368.52 1513.66 2374.33 1513.66 Z" fill="#000000" fill-rule="nonzero" fill-opacity="1" /><polyline clip-path="url(#clip612)" style="stroke:#000000; stroke-linecap:round; stroke-linejoin:round; stroke-width:2; stroke-opacity:0.1; fill:none" points="186.274,1450.45 2352.76,1450.45 "/>
<polyline clip-path="url(#clip612)" style="stroke:#000000; stroke-linecap:round; stroke-linejoin:round; stroke-width:2; stroke-opacity:0.1; fill:none" points="186.274,1128.35 2352.76,1128.35 "/>
<polyline clip-path="url(#clip612)" style="stroke:#000000; stroke-linecap:round; stroke-linejoin:round; stroke-width:2; stroke-opacity:0.1; fill:none" points="186.274,806.248 2352.76,806.248 "/>
<polyline clip-path="url(#clip612)" style="stroke:#000000; stroke-linecap:round; stroke-linejoin:round; stroke-width:2; stroke-opacity:0.1; fill:none" points="186.274,484.148 2352.76,484.148 "/>
<polyline clip-path="url(#clip612)" style="stroke:#000000; stroke-linecap:round; stroke-linejoin:round; stroke-width:2; stroke-opacity:0.1; fill:none" points="186.274,162.047 2352.76,162.047 "/>
<polyline clip-path="url(#clip610)" style="stroke:#000000; stroke-linecap:round; stroke-linejoin:round; stroke-width:4; stroke-opacity:1; fill:none" points="186.274,1486.45 186.274,123.472 "/>
<polyline clip-path="url(#clip610)" style="stroke:#000000; stroke-linecap:round; stroke-linejoin:round; stroke-width:4; stroke-opacity:1; fill:none" points="186.274,1450.45 205.172,1450.45 "/>
<polyline clip-path="url(#clip610)" style="stroke:#000000; stroke-linecap:round; stroke-linejoin:round; stroke-width:4; stroke-opacity:1; fill:none" points="186.274,1128.35 205.172,1128.35 "/>
<polyline clip-path="url(#clip610)" style="stroke:#000000; stroke-linecap:round; stroke-linejoin:round; stroke-width:4; stroke-opacity:1; fill:none" points="186.274,806.248 205.172,806.248 "/>
<polyline clip-path="url(#clip610)" style="stroke:#000000; stroke-linecap:round; stroke-linejoin:round; stroke-width:4; stroke-opacity:1; fill:none" points="186.274,484.148 205.172,484.148 "/>
<polyline clip-path="url(#clip610)" style="stroke:#000000; stroke-linecap:round; stroke-linejoin:round; stroke-width:4; stroke-opacity:1; fill:none" points="186.274,162.047 205.172,162.047 "/>
<path clip-path="url(#clip610)" d="M62.9365 1436.25 Q59.3254 1436.25 57.4967 1439.81 Q55.6912 1443.36 55.6912 1450.48 Q55.6912 1457.59 57.4967 1461.16 Q59.3254 1464.7 62.9365 1464.7 Q66.5707 1464.7 68.3763 1461.16 Q70.205 1457.59 70.205 1450.48 Q70.205 1443.36 68.3763 1439.81 Q66.5707 1436.25 62.9365 1436.25 M62.9365 1432.54 Q68.7467 1432.54 71.8022 1437.15 Q74.8809 1441.73 74.8809 1450.48 Q74.8809 1459.21 71.8022 1463.82 Q68.7467 1468.4 62.9365 1468.4 Q57.1264 1468.4 54.0477 1463.82 Q50.9921 1459.21 50.9921 1450.48 Q50.9921 1441.73 54.0477 1437.15 Q57.1264 1432.54 62.9365 1432.54 Z" fill="#000000" fill-rule="nonzero" fill-opacity="1" /><path clip-path="url(#clip610)" d="M83.0984 1461.85 L87.9827 1461.85 L87.9827 1467.73 L83.0984 1467.73 L83.0984 1461.85 Z" fill="#000000" fill-rule="nonzero" fill-opacity="1" /><path clip-path="url(#clip610)" d="M108.168 1436.25 Q104.557 1436.25 102.728 1439.81 Q100.922 1443.36 100.922 1450.48 Q100.922 1457.59 102.728 1461.16 Q104.557 1464.7 108.168 1464.7 Q111.802 1464.7 113.608 1461.16 Q115.436 1457.59 115.436 1450.48 Q115.436 1443.36 113.608 1439.81 Q111.802 1436.25 108.168 1436.25 M108.168 1432.54 Q113.978 1432.54 117.033 1437.15 Q120.112 1441.73 120.112 1450.48 Q120.112 1459.21 117.033 1463.82 Q113.978 1468.4 108.168 1468.4 Q102.358 1468.4 99.2789 1463.82 Q96.2234 1459.21 96.2234 1450.48 Q96.2234 1441.73 99.2789 1437.15 Q102.358 1432.54 108.168 1432.54 Z" fill="#000000" fill-rule="nonzero" fill-opacity="1" /><path clip-path="url(#clip610)" d="M138.33 1436.25 Q134.719 1436.25 132.89 1439.81 Q131.084 1443.36 131.084 1450.48 Q131.084 1457.59 132.89 1461.16 Q134.719 1464.7 138.33 1464.7 Q141.964 1464.7 143.769 1461.16 Q145.598 1457.59 145.598 1450.48 Q145.598 1443.36 143.769 1439.81 Q141.964 1436.25 138.33 1436.25 M138.33 1432.54 Q144.14 1432.54 147.195 1437.15 Q150.274 1441.73 150.274 1450.48 Q150.274 1459.21 147.195 1463.82 Q144.14 1468.4 138.33 1468.4 Q132.519 1468.4 129.441 1463.82 Q126.385 1459.21 126.385 1450.48 Q126.385 1441.73 129.441 1437.15 Q132.519 1432.54 138.33 1432.54 Z" fill="#000000" fill-rule="nonzero" fill-opacity="1" /><path clip-path="url(#clip610)" d="M63.9319 1114.15 Q60.3208 1114.15 58.4921 1117.71 Q56.6865 1121.25 56.6865 1128.38 Q56.6865 1135.49 58.4921 1139.06 Q60.3208 1142.6 63.9319 1142.6 Q67.5661 1142.6 69.3717 1139.06 Q71.2004 1135.49 71.2004 1128.38 Q71.2004 1121.25 69.3717 1117.71 Q67.5661 1114.15 63.9319 1114.15 M63.9319 1110.44 Q69.742 1110.44 72.7976 1115.05 Q75.8763 1119.63 75.8763 1128.38 Q75.8763 1137.11 72.7976 1141.72 Q69.742 1146.3 63.9319 1146.3 Q58.1217 1146.3 55.043 1141.72 Q51.9875 1137.11 51.9875 1128.38 Q51.9875 1119.63 55.043 1115.05 Q58.1217 1110.44 63.9319 1110.44 Z" fill="#000000" fill-rule="nonzero" fill-opacity="1" /><path clip-path="url(#clip610)" d="M84.0938 1139.75 L88.978 1139.75 L88.978 1145.63 L84.0938 1145.63 L84.0938 1139.75 Z" fill="#000000" fill-rule="nonzero" fill-opacity="1" /><path clip-path="url(#clip610)" d="M103.191 1141.69 L119.51 1141.69 L119.51 1145.63 L97.566 1145.63 L97.566 1141.69 Q100.228 1138.94 104.811 1134.31 Q109.418 1129.66 110.598 1128.31 Q112.844 1125.79 113.723 1124.06 Q114.626 1122.3 114.626 1120.61 Q114.626 1117.85 112.682 1116.12 Q110.76 1114.38 107.658 1114.38 Q105.459 1114.38 103.006 1115.14 Q100.575 1115.91 97.7974 1117.46 L97.7974 1112.74 Q100.621 1111.6 103.075 1111.02 Q105.529 1110.44 107.566 1110.44 Q112.936 1110.44 116.131 1113.13 Q119.325 1115.81 119.325 1120.31 Q119.325 1122.43 118.515 1124.36 Q117.728 1126.25 115.621 1128.85 Q115.043 1129.52 111.941 1132.74 Q108.839 1135.93 103.191 1141.69 Z" fill="#000000" fill-rule="nonzero" fill-opacity="1" /><path clip-path="url(#clip610)" d="M129.371 1111.07 L147.728 1111.07 L147.728 1115 L133.654 1115 L133.654 1123.48 Q134.672 1123.13 135.691 1122.97 Q136.709 1122.78 137.728 1122.78 Q143.515 1122.78 146.894 1125.95 Q150.274 1129.12 150.274 1134.54 Q150.274 1140.12 146.802 1143.22 Q143.33 1146.3 137.01 1146.3 Q134.834 1146.3 132.566 1145.93 Q130.32 1145.56 127.913 1144.82 L127.913 1140.12 Q129.996 1141.25 132.219 1141.81 Q134.441 1142.37 136.918 1142.37 Q140.922 1142.37 143.26 1140.26 Q145.598 1138.15 145.598 1134.54 Q145.598 1130.93 143.26 1128.82 Q140.922 1126.72 136.918 1126.72 Q135.043 1126.72 133.168 1127.13 Q131.316 1127.55 129.371 1128.43 L129.371 1111.07 Z" fill="#000000" fill-rule="nonzero" fill-opacity="1" /><path clip-path="url(#clip610)" d="M62.9365 792.047 Q59.3254 792.047 57.4967 795.612 Q55.6912 799.154 55.6912 806.283 Q55.6912 813.39 57.4967 816.954 Q59.3254 820.496 62.9365 820.496 Q66.5707 820.496 68.3763 816.954 Q70.205 813.39 70.205 806.283 Q70.205 799.154 68.3763 795.612 Q66.5707 792.047 62.9365 792.047 M62.9365 788.343 Q68.7467 788.343 71.8022 792.95 Q74.8809 797.533 74.8809 806.283 Q74.8809 815.01 71.8022 819.616 Q68.7467 824.2 62.9365 824.2 Q57.1264 824.2 54.0477 819.616 Q50.9921 815.01 50.9921 806.283 Q50.9921 797.533 54.0477 792.95 Q57.1264 788.343 62.9365 788.343 Z" fill="#000000" fill-rule="nonzero" fill-opacity="1" /><path clip-path="url(#clip610)" d="M83.0984 817.649 L87.9827 817.649 L87.9827 823.528 L83.0984 823.528 L83.0984 817.649 Z" fill="#000000" fill-rule="nonzero" fill-opacity="1" /><path clip-path="url(#clip610)" d="M98.2141 788.968 L116.57 788.968 L116.57 792.904 L102.496 792.904 L102.496 801.376 Q103.515 801.029 104.534 800.866 Q105.552 800.681 106.571 800.681 Q112.358 800.681 115.737 803.853 Q119.117 807.024 119.117 812.44 Q119.117 818.019 115.645 821.121 Q112.172 824.2 105.853 824.2 Q103.677 824.2 101.409 823.829 Q99.1632 823.459 96.7558 822.718 L96.7558 818.019 Q98.8391 819.153 101.061 819.709 Q103.284 820.265 105.76 820.265 Q109.765 820.265 112.103 818.158 Q114.441 816.052 114.441 812.44 Q114.441 808.829 112.103 806.723 Q109.765 804.616 105.76 804.616 Q103.885 804.616 102.01 805.033 Q100.159 805.45 98.2141 806.329 L98.2141 788.968 Z" fill="#000000" fill-rule="nonzero" fill-opacity="1" /><path clip-path="url(#clip610)" d="M138.33 792.047 Q134.719 792.047 132.89 795.612 Q131.084 799.154 131.084 806.283 Q131.084 813.39 132.89 816.954 Q134.719 820.496 138.33 820.496 Q141.964 820.496 143.769 816.954 Q145.598 813.39 145.598 806.283 Q145.598 799.154 143.769 795.612 Q141.964 792.047 138.33 792.047 M138.33 788.343 Q144.14 788.343 147.195 792.95 Q150.274 797.533 150.274 806.283 Q150.274 815.01 147.195 819.616 Q144.14 824.2 138.33 824.2 Q132.519 824.2 129.441 819.616 Q126.385 815.01 126.385 806.283 Q126.385 797.533 129.441 792.95 Q132.519 788.343 138.33 788.343 Z" fill="#000000" fill-rule="nonzero" fill-opacity="1" /><path clip-path="url(#clip610)" d="M63.9319 469.946 Q60.3208 469.946 58.4921 473.511 Q56.6865 477.053 56.6865 484.182 Q56.6865 491.289 58.4921 494.854 Q60.3208 498.395 63.9319 498.395 Q67.5661 498.395 69.3717 494.854 Q71.2004 491.289 71.2004 484.182 Q71.2004 477.053 69.3717 473.511 Q67.5661 469.946 63.9319 469.946 M63.9319 466.243 Q69.742 466.243 72.7976 470.849 Q75.8763 475.432 75.8763 484.182 Q75.8763 492.909 72.7976 497.516 Q69.742 502.099 63.9319 502.099 Q58.1217 502.099 55.043 497.516 Q51.9875 492.909 51.9875 484.182 Q51.9875 475.432 55.043 470.849 Q58.1217 466.243 63.9319 466.243 Z" fill="#000000" fill-rule="nonzero" fill-opacity="1" /><path clip-path="url(#clip610)" d="M84.0938 495.548 L88.978 495.548 L88.978 501.428 L84.0938 501.428 L84.0938 495.548 Z" fill="#000000" fill-rule="nonzero" fill-opacity="1" /><path clip-path="url(#clip610)" d="M97.9826 466.868 L120.205 466.868 L120.205 468.858 L107.658 501.428 L102.774 501.428 L114.58 470.803 L97.9826 470.803 L97.9826 466.868 Z" fill="#000000" fill-rule="nonzero" fill-opacity="1" /><path clip-path="url(#clip610)" d="M129.371 466.868 L147.728 466.868 L147.728 470.803 L133.654 470.803 L133.654 479.275 Q134.672 478.928 135.691 478.766 Q136.709 478.581 137.728 478.581 Q143.515 478.581 146.894 481.752 Q150.274 484.923 150.274 490.34 Q150.274 495.918 146.802 499.02 Q143.33 502.099 137.01 502.099 Q134.834 502.099 132.566 501.729 Q130.32 501.358 127.913 500.617 L127.913 495.918 Q129.996 497.053 132.219 497.608 Q134.441 498.164 136.918 498.164 Q140.922 498.164 143.26 496.057 Q145.598 493.951 145.598 490.34 Q145.598 486.729 143.26 484.622 Q140.922 482.516 136.918 482.516 Q135.043 482.516 133.168 482.932 Q131.316 483.349 129.371 484.229 L129.371 466.868 Z" fill="#000000" fill-rule="nonzero" fill-opacity="1" /><path clip-path="url(#clip610)" d="M53.7467 175.392 L61.3856 175.392 L61.3856 149.026 L53.0754 150.693 L53.0754 146.434 L61.3393 144.767 L66.0152 144.767 L66.0152 175.392 L73.654 175.392 L73.654 179.327 L53.7467 179.327 L53.7467 175.392 Z" fill="#000000" fill-rule="nonzero" fill-opacity="1" /><path clip-path="url(#clip610)" d="M83.0984 173.447 L87.9827 173.447 L87.9827 179.327 L83.0984 179.327 L83.0984 173.447 Z" fill="#000000" fill-rule="nonzero" fill-opacity="1" /><path clip-path="url(#clip610)" d="M108.168 147.846 Q104.557 147.846 102.728 151.41 Q100.922 154.952 100.922 162.082 Q100.922 169.188 102.728 172.753 Q104.557 176.295 108.168 176.295 Q111.802 176.295 113.608 172.753 Q115.436 169.188 115.436 162.082 Q115.436 154.952 113.608 151.41 Q111.802 147.846 108.168 147.846 M108.168 144.142 Q113.978 144.142 117.033 148.748 Q120.112 153.332 120.112 162.082 Q120.112 170.808 117.033 175.415 Q113.978 179.998 108.168 179.998 Q102.358 179.998 99.2789 175.415 Q96.2234 170.808 96.2234 162.082 Q96.2234 153.332 99.2789 148.748 Q102.358 144.142 108.168 144.142 Z" fill="#000000" fill-rule="nonzero" fill-opacity="1" /><path clip-path="url(#clip610)" d="M138.33 147.846 Q134.719 147.846 132.89 151.41 Q131.084 154.952 131.084 162.082 Q131.084 169.188 132.89 172.753 Q134.719 176.295 138.33 176.295 Q141.964 176.295 143.769 172.753 Q145.598 169.188 145.598 162.082 Q145.598 154.952 143.769 151.41 Q141.964 147.846 138.33 147.846 M138.33 144.142 Q144.14 144.142 147.195 148.748 Q150.274 153.332 150.274 162.082 Q150.274 170.808 147.195 175.415 Q144.14 179.998 138.33 179.998 Q132.519 179.998 129.441 175.415 Q126.385 170.808 126.385 162.082 Q126.385 153.332 129.441 148.748 Q132.519 144.142 138.33 144.142 Z" fill="#000000" fill-rule="nonzero" fill-opacity="1" /><path clip-path="url(#clip610)" d="M736.74 12.096 L774.981 12.096 L774.981 18.9825 L744.923 18.9825 L744.923 36.8875 L773.725 36.8875 L773.725 43.7741 L744.923 43.7741 L744.923 65.6895 L775.71 65.6895 L775.71 72.576 L736.74 72.576 L736.74 12.096 Z" fill="#000000" fill-rule="nonzero" fill-opacity="1" /><path clip-path="url(#clip610)" d="M824.159 35.9153 Q826.954 30.8922 830.843 28.5022 Q834.731 26.1121 839.998 26.1121 Q847.087 26.1121 850.935 31.0947 Q854.783 36.0368 854.783 45.1919 L854.783 72.576 L847.289 72.576 L847.289 45.4349 Q847.289 38.913 844.98 35.7533 Q842.671 32.5936 837.932 32.5936 Q832.139 32.5936 828.777 36.4419 Q825.414 40.2903 825.414 46.9338 L825.414 72.576 L817.92 72.576 L817.92 45.4349 Q817.92 38.8725 815.611 35.7533 Q813.302 32.5936 808.482 32.5936 Q802.77 32.5936 799.408 36.4824 Q796.045 40.3308 796.045 46.9338 L796.045 72.576 L788.551 72.576 L788.551 27.2059 L796.045 27.2059 L796.045 34.2544 Q798.597 30.082 802.162 28.0971 Q805.727 26.1121 810.629 26.1121 Q815.571 26.1121 819.014 28.6237 Q822.498 31.1352 824.159 35.9153 Z" fill="#000000" fill-rule="nonzero" fill-opacity="1" /><path clip-path="url(#clip610)" d="M876.861 65.7705 L876.861 89.8329 L869.367 89.8329 L869.367 27.2059 L876.861 27.2059 L876.861 34.0924 Q879.21 30.0415 882.775 28.0971 Q886.38 26.1121 891.363 26.1121 Q899.627 26.1121 904.772 32.6746 Q909.957 39.2371 909.957 49.9314 Q909.957 60.6258 904.772 67.1883 Q899.627 73.7508 891.363 73.7508 Q886.38 73.7508 882.775 71.8063 Q879.21 69.8214 876.861 65.7705 M902.219 49.9314 Q902.219 41.7081 898.817 37.0496 Q895.454 32.3505 889.54 32.3505 Q883.626 32.3505 880.223 37.0496 Q876.861 41.7081 876.861 49.9314 Q876.861 58.1548 880.223 62.8538 Q883.626 67.5124 889.54 67.5124 Q895.454 67.5124 898.817 62.8538 Q902.219 58.1548 902.219 49.9314 Z" fill="#000000" fill-rule="nonzero" fill-opacity="1" /><path clip-path="url(#clip610)" d="M922.312 27.2059 L929.766 27.2059 L929.766 72.576 L922.312 72.576 L922.312 27.2059 M922.312 9.54393 L929.766 9.54393 L929.766 18.9825 L922.312 18.9825 L922.312 9.54393 Z" fill="#000000" fill-rule="nonzero" fill-opacity="1" /><path clip-path="url(#clip610)" d="M971.652 34.1734 Q970.396 33.4443 968.897 33.1202 Q967.439 32.7556 965.657 32.7556 Q959.337 32.7556 955.934 36.8875 Q952.572 40.9789 952.572 48.6757 L952.572 72.576 L945.078 72.576 L945.078 27.2059 L952.572 27.2059 L952.572 34.2544 Q954.922 30.1225 958.689 28.1376 Q962.456 26.1121 967.844 26.1121 Q968.614 26.1121 969.545 26.2337 Q970.477 26.3147 971.611 26.5172 L971.652 34.1734 Z" fill="#000000" fill-rule="nonzero" fill-opacity="1" /><path clip-path="url(#clip610)" d="M979.47 27.2059 L986.924 27.2059 L986.924 72.576 L979.47 72.576 L979.47 27.2059 M979.47 9.54393 L986.924 9.54393 L986.924 18.9825 L979.47 18.9825 L979.47 9.54393 Z" fill="#000000" fill-rule="nonzero" fill-opacity="1" /><path clip-path="url(#clip610)" d="M1035.17 28.9478 L1035.17 35.9153 Q1032.01 34.1734 1028.81 33.3227 Q1025.65 32.4315 1022.41 32.4315 Q1015.16 32.4315 1011.15 37.0496 Q1007.14 41.6271 1007.14 49.9314 Q1007.14 58.2358 1011.15 62.8538 Q1015.16 67.4314 1022.41 67.4314 Q1025.65 67.4314 1028.81 66.5807 Q1032.01 65.6895 1035.17 63.9476 L1035.17 70.8341 Q1032.05 72.2924 1028.69 73.0216 Q1025.37 73.7508 1021.6 73.7508 Q1011.35 73.7508 1005.31 67.3098 Q999.279 60.8689 999.279 49.9314 Q999.279 38.832 1005.36 32.472 Q1011.47 26.1121 1022.09 26.1121 Q1025.53 26.1121 1028.81 26.8413 Q1032.09 27.5299 1035.17 28.9478 Z" fill="#000000" fill-rule="nonzero" fill-opacity="1" /><path clip-path="url(#clip610)" d="M1068.75 49.7694 Q1059.72 49.7694 1056.23 51.8354 Q1052.75 53.9013 1052.75 58.8839 Q1052.75 62.8538 1055.34 65.2034 Q1057.98 67.5124 1062.47 67.5124 Q1068.67 67.5124 1072.4 63.1374 Q1076.17 58.7219 1076.17 51.4303 L1076.17 49.7694 L1068.75 49.7694 M1083.62 46.6907 L1083.62 72.576 L1076.17 72.576 L1076.17 65.6895 Q1073.61 69.8214 1069.81 71.8063 Q1066 73.7508 1060.49 73.7508 Q1053.52 73.7508 1049.39 69.8619 Q1045.3 65.9325 1045.3 59.3701 Q1045.3 51.7138 1050.4 47.825 Q1055.55 43.9361 1065.71 43.9361 L1076.17 43.9361 L1076.17 43.2069 Q1076.17 38.0623 1072.76 35.2672 Q1069.4 32.4315 1063.28 32.4315 Q1059.39 32.4315 1055.71 33.3632 Q1052.02 34.295 1048.62 36.1584 L1048.62 29.2718 Q1052.71 27.692 1056.56 26.9223 Q1060.41 26.1121 1064.05 26.1121 Q1073.9 26.1121 1078.76 31.2163 Q1083.62 36.3204 1083.62 46.6907 Z" fill="#000000" fill-rule="nonzero" fill-opacity="1" /><path clip-path="url(#clip610)" d="M1098.97 9.54393 L1106.43 9.54393 L1106.43 72.576 L1098.97 72.576 L1098.97 9.54393 Z" fill="#000000" fill-rule="nonzero" fill-opacity="1" /><path clip-path="url(#clip610)" d="M1148.72 12.096 L1156.9 12.096 L1156.9 37.6572 L1184.04 12.096 L1194.57 12.096 L1164.56 40.2903 L1196.72 72.576 L1185.94 72.576 L1156.9 43.45 L1156.9 72.576 L1148.72 72.576 L1148.72 12.096 Z" fill="#000000" fill-rule="nonzero" fill-opacity="1" /><path clip-path="url(#clip610)" d="M1237.47 48.0275 L1237.47 51.6733 L1203.2 51.6733 Q1203.69 59.3701 1207.82 63.421 Q1211.99 67.4314 1219.41 67.4314 Q1223.7 67.4314 1227.71 66.3781 Q1231.76 65.3249 1235.73 63.2184 L1235.73 70.267 Q1231.72 71.9684 1227.51 72.8596 Q1223.29 73.7508 1218.96 73.7508 Q1208.1 73.7508 1201.74 67.4314 Q1195.42 61.1119 1195.42 50.3365 Q1195.42 39.1965 1201.42 32.6746 Q1207.46 26.1121 1217.66 26.1121 Q1226.82 26.1121 1232.13 32.0264 Q1237.47 37.9003 1237.47 48.0275 M1230.02 45.84 Q1229.94 39.7232 1226.58 36.0774 Q1223.25 32.4315 1217.74 32.4315 Q1211.51 32.4315 1207.74 35.9558 Q1204.01 39.4801 1203.44 45.8805 L1230.02 45.84 Z" fill="#000000" fill-rule="nonzero" fill-opacity="1" /><path clip-path="url(#clip610)" d="M1287.42 45.1919 L1287.42 72.576 L1279.97 72.576 L1279.97 45.4349 Q1279.97 38.994 1277.45 35.7938 Q1274.94 32.5936 1269.92 32.5936 Q1263.88 32.5936 1260.4 36.4419 Q1256.92 40.2903 1256.92 46.9338 L1256.92 72.576 L1249.42 72.576 L1249.42 27.2059 L1256.92 27.2059 L1256.92 34.2544 Q1259.59 30.163 1263.2 28.1376 Q1266.84 26.1121 1271.58 26.1121 Q1279.4 26.1121 1283.41 30.9732 Q1287.42 35.7938 1287.42 45.1919 Z" fill="#000000" fill-rule="nonzero" fill-opacity="1" /><path clip-path="url(#clip610)" d="M1332.14 34.0924 L1332.14 9.54393 L1339.6 9.54393 L1339.6 72.576 L1332.14 72.576 L1332.14 65.7705 Q1329.79 69.8214 1326.19 71.8063 Q1322.62 73.7508 1317.6 73.7508 Q1309.38 73.7508 1304.19 67.1883 Q1299.05 60.6258 1299.05 49.9314 Q1299.05 39.2371 1304.19 32.6746 Q1309.38 26.1121 1317.6 26.1121 Q1322.62 26.1121 1326.19 28.0971 Q1329.79 30.0415 1332.14 34.0924 M1306.74 49.9314 Q1306.74 58.1548 1310.11 62.8538 Q1313.51 67.5124 1319.42 67.5124 Q1325.34 67.5124 1328.74 62.8538 Q1332.14 58.1548 1332.14 49.9314 Q1332.14 41.7081 1328.74 37.0496 Q1325.34 32.3505 1319.42 32.3505 Q1313.51 32.3505 1310.11 37.0496 Q1306.74 41.7081 1306.74 49.9314 Z" fill="#000000" fill-rule="nonzero" fill-opacity="1" /><path clip-path="url(#clip610)" d="M1375.57 49.7694 Q1366.53 49.7694 1363.05 51.8354 Q1359.57 53.9013 1359.57 58.8839 Q1359.57 62.8538 1362.16 65.2034 Q1364.79 67.5124 1369.29 67.5124 Q1375.49 67.5124 1379.21 63.1374 Q1382.98 58.7219 1382.98 51.4303 L1382.98 49.7694 L1375.57 49.7694 M1390.43 46.6907 L1390.43 72.576 L1382.98 72.576 L1382.98 65.6895 Q1380.43 69.8214 1376.62 71.8063 Q1372.81 73.7508 1367.3 73.7508 Q1360.34 73.7508 1356.2 69.8619 Q1352.11 65.9325 1352.11 59.3701 Q1352.11 51.7138 1357.22 47.825 Q1362.36 43.9361 1372.53 43.9361 L1382.98 43.9361 L1382.98 43.2069 Q1382.98 38.0623 1379.58 35.2672 Q1376.22 32.4315 1370.1 32.4315 Q1366.21 32.4315 1362.52 33.3632 Q1358.84 34.295 1355.43 36.1584 L1355.43 29.2718 Q1359.53 27.692 1363.37 26.9223 Q1367.22 26.1121 1370.87 26.1121 Q1380.71 26.1121 1385.57 31.2163 Q1390.43 36.3204 1390.43 46.6907 Z" fill="#000000" fill-rule="nonzero" fill-opacity="1" /><path clip-path="url(#clip610)" d="M1405.79 9.54393 L1413.24 9.54393 L1413.24 72.576 L1405.79 72.576 L1405.79 9.54393 Z" fill="#000000" fill-rule="nonzero" fill-opacity="1" /><path clip-path="url(#clip610)" d="M1428.84 9.54393 L1436.29 9.54393 L1436.29 72.576 L1428.84 72.576 L1428.84 9.54393 Z" fill="#000000" fill-rule="nonzero" fill-opacity="1" /><path clip-path="url(#clip610)" d="M1501.23 9.54393 L1501.23 15.7418 L1494.1 15.7418 Q1490.09 15.7418 1488.51 17.3622 Q1486.97 18.9825 1486.97 23.1955 L1486.97 27.2059 L1499.24 27.2059 L1499.24 32.9987 L1486.97 32.9987 L1486.97 72.576 L1479.47 72.576 L1479.47 32.9987 L1472.34 32.9987 L1472.34 27.2059 L1479.47 27.2059 L1479.47 24.0462 Q1479.47 16.471 1483 13.0277 Q1486.52 9.54393 1494.18 9.54393 L1501.23 9.54393 Z" fill="#000000" fill-rule="nonzero" fill-opacity="1" /><path clip-path="url(#clip610)" d="M1506.7 54.671 L1506.7 27.2059 L1514.15 27.2059 L1514.15 54.3874 Q1514.15 60.8284 1516.66 64.0691 Q1519.17 67.2693 1524.2 67.2693 Q1530.23 67.2693 1533.71 63.421 Q1537.24 59.5726 1537.24 52.9291 L1537.24 27.2059 L1544.69 27.2059 L1544.69 72.576 L1537.24 72.576 L1537.24 65.6084 Q1534.53 69.7404 1530.92 71.7658 Q1527.36 73.7508 1522.62 73.7508 Q1514.8 73.7508 1510.75 68.8897 Q1506.7 64.0286 1506.7 54.671 M1525.45 26.1121 L1525.45 26.1121 Z" fill="#000000" fill-rule="nonzero" fill-opacity="1" /><path clip-path="url(#clip610)" d="M1597.76 45.1919 L1597.76 72.576 L1590.31 72.576 L1590.31 45.4349 Q1590.31 38.994 1587.79 35.7938 Q1585.28 32.5936 1580.26 32.5936 Q1574.22 32.5936 1570.74 36.4419 Q1567.26 40.2903 1567.26 46.9338 L1567.26 72.576 L1559.76 72.576 L1559.76 27.2059 L1567.26 27.2059 L1567.26 34.2544 Q1569.93 30.163 1573.54 28.1376 Q1577.18 26.1121 1581.92 26.1121 Q1589.74 26.1121 1593.75 30.9732 Q1597.76 35.7938 1597.76 45.1919 Z" fill="#000000" fill-rule="nonzero" fill-opacity="1" /><path clip-path="url(#clip610)" d="M1645.28 28.9478 L1645.28 35.9153 Q1642.12 34.1734 1638.92 33.3227 Q1635.76 32.4315 1632.52 32.4315 Q1625.27 32.4315 1621.25 37.0496 Q1617.24 41.6271 1617.24 49.9314 Q1617.24 58.2358 1621.25 62.8538 Q1625.27 67.4314 1632.52 67.4314 Q1635.76 67.4314 1638.92 66.5807 Q1642.12 65.6895 1645.28 63.9476 L1645.28 70.8341 Q1642.16 72.2924 1638.8 73.0216 Q1635.47 73.7508 1631.71 73.7508 Q1621.46 73.7508 1615.42 67.3098 Q1609.39 60.8689 1609.39 49.9314 Q1609.39 38.832 1615.46 32.472 Q1621.58 26.1121 1632.19 26.1121 Q1635.64 26.1121 1638.92 26.8413 Q1642.2 27.5299 1645.28 28.9478 Z" fill="#000000" fill-rule="nonzero" fill-opacity="1" /><path clip-path="url(#clip610)" d="M1665.61 14.324 L1665.61 27.2059 L1680.97 27.2059 L1680.97 32.9987 L1665.61 32.9987 L1665.61 57.6282 Q1665.61 63.1779 1667.11 64.7578 Q1668.65 66.3376 1673.31 66.3376 L1680.97 66.3376 L1680.97 72.576 L1673.31 72.576 Q1664.68 72.576 1661.4 69.3758 Q1658.12 66.1351 1658.12 57.6282 L1658.12 32.9987 L1652.65 32.9987 L1652.65 27.2059 L1658.12 27.2059 L1658.12 14.324 L1665.61 14.324 Z" fill="#000000" fill-rule="nonzero" fill-opacity="1" /><path clip-path="url(#clip610)" d="M1690.77 27.2059 L1698.22 27.2059 L1698.22 72.576 L1690.77 72.576 L1690.77 27.2059 M1690.77 9.54393 L1698.22 9.54393 L1698.22 18.9825 L1690.77 18.9825 L1690.77 9.54393 Z" fill="#000000" fill-rule="nonzero" fill-opacity="1" /><path clip-path="url(#clip610)" d="M1731.4 32.4315 Q1725.4 32.4315 1721.92 37.1306 Q1718.44 41.7891 1718.44 49.9314 Q1718.44 58.0738 1721.88 62.7728 Q1725.36 67.4314 1731.4 67.4314 Q1737.35 67.4314 1740.84 62.7323 Q1744.32 58.0333 1744.32 49.9314 Q1744.32 41.8701 1740.84 37.1711 Q1737.35 32.4315 1731.4 32.4315 M1731.4 26.1121 Q1741.12 26.1121 1746.67 32.4315 Q1752.22 38.7509 1752.22 49.9314 Q1752.22 61.0714 1746.67 67.4314 Q1741.12 73.7508 1731.4 73.7508 Q1721.64 73.7508 1716.09 67.4314 Q1710.58 61.0714 1710.58 49.9314 Q1710.58 38.7509 1716.09 32.4315 Q1721.64 26.1121 1731.4 26.1121 Z" fill="#000000" fill-rule="nonzero" fill-opacity="1" /><path clip-path="url(#clip610)" d="M1802.29 45.1919 L1802.29 72.576 L1794.84 72.576 L1794.84 45.4349 Q1794.84 38.994 1792.32 35.7938 Q1789.81 32.5936 1784.79 32.5936 Q1778.75 32.5936 1775.27 36.4419 Q1771.79 40.2903 1771.79 46.9338 L1771.79 72.576 L1764.29 72.576 L1764.29 27.2059 L1771.79 27.2059 L1771.79 34.2544 Q1774.46 30.163 1778.07 28.1376 Q1781.71 26.1121 1786.45 26.1121 Q1794.27 26.1121 1798.28 30.9732 Q1802.29 35.7938 1802.29 45.1919 Z" fill="#000000" fill-rule="nonzero" fill-opacity="1" /><polyline clip-path="url(#clip612)" style="stroke:#009af9; stroke-linecap:round; stroke-linejoin:round; stroke-width:4; stroke-opacity:1; fill:none" points="186.274,1447.87 188.037,1447.87 189.8,1445.3 191.563,1444.01 193.326,1441.43 194.208,1441.43 195.09,1440.14 195.971,1440.14 196.853,1440.14 197.073,1440.14 197.294,1436.28 197.514,1436.28 197.734,1436.28 198.175,1436.28 198.616,1436.28 198.836,1436.28 199.057,1436.28 199.167,1436.28 199.277,1436.28 199.387,1431.12 199.497,1431.12 199.938,1431.12 200.379,1431.12 204.455,1427.26 208.53,1420.82 212.606,1416.95 216.682,1414.37 224.833,1409.22 232.984,1404.07 241.136,1400.2 249.287,1397.63 253.362,1393.76 257.438,1392.47 261.514,1388.61 265.589,1383.45 273.741,1371.86 281.892,1361.55 290.043,1356.4 298.195,1349.95 302.27,1348.67 306.346,1344.8 310.422,1340.94 314.497,1334.49 318.573,1331.92 322.649,1329.34 326.724,1328.05 330.8,1326.76 350.394,1316.46 369.989,1304.86 389.583,1289.4 409.177,1273.94 425.744,1257.19 442.311,1240.44 444.382,1239.15 446.453,1239.15 448.524,1237.86 450.594,1235.29 452.665,1234 454.736,1231.42 455.772,1230.13 456.807,1230.13 457.325,1230.13 457.842,1223.69 458.36,1223.69 458.878,1223.69 459.913,1223.69 460.949,1223.69 461.984,1221.11 463.02,1221.11 465.09,1217.25 467.161,1215.96 469.232,1213.38 471.303,1213.38 473.374,1213.38 475.445,1213.38 484.443,1205.65 493.441,1200.5 502.439,1192.77 511.437,1182.46 515.936,1177.31 520.435,1176.02 524.934,1176.02 529.433,1173.44 533.932,1167 538.431,1163.14 542.93,1159.27 547.429,1152.83 555.725,1148.96 564.02,1143.81 572.316,1137.37 580.611,1128.35 597.202,1115.47 613.793,1101.29 631.58,1088.41 649.367,1075.52 658.261,1070.37 667.155,1063.93 671.601,1060.06 676.048,1058.78 680.495,1054.91 684.942,1052.33 686.23,1049.76 687.518,1045.89 688.162,1045.89 688.806,1045.89 689.45,1042.03 690.094,1042.03 692.67,1040.74 695.246,1040.74 696.534,1040.74 697.822,1040.74 698.466,1039.45 699.11,1039.45 699.754,1039.45 700.398,1034.3 701.686,1034.3 702.974,1034.3 704.262,1034.3 705.55,1033.01 715.854,1029.14 726.158,1025.28 736.462,1020.12 746.766,1017.55 757.07,1012.39 767.375,1005.95 785.689,986.625 804.003,966.01 808.581,962.145 813.16,956.992 813.732,956.992 814.305,956.992 814.877,956.992 815.449,953.126 816.594,953.126 817.738,953.126 820.028,949.261 822.317,945.396 831.474,940.242 840.631,933.8 856.691,922.205 872.751,906.744 880.781,900.302 888.811,893.86 890.818,891.283 892.826,889.995 893.328,887.418 893.829,887.418 894.331,887.418 894.833,887.418 895.335,887.418 895.837,879.687 896.339,879.687 896.841,879.687 898.848,878.399 900.856,874.534 902.863,871.957 904.871,870.669 913.625,866.803 922.38,862.938 926.757,859.073 931.135,855.208 935.512,853.919 939.89,852.631 944.267,850.054 948.644,843.612 953.022,838.458 957.399,837.17 966.154,834.593 974.909,829.44 1010.14,801.095 1045.36,771.462 1064.84,754.712 1084.31,736.675 1103.79,721.214 1123.26,708.33 1160.32,683.85 1197.38,656.794 1202.19,651.64 1207.01,647.775 1211.83,645.198 1216.64,643.91 1221.46,641.333 1226.28,637.468 1231.09,637.468 1235.91,636.179 1245.54,631.026 1255.17,625.872 1256.38,624.584 1257.58,624.584 1258.79,620.718 1259.99,618.142 1261.19,618.142 1262.4,618.142 1263.6,618.142 1264.81,616.853 1265.41,616.853 1266.01,616.853 1266.61,611.7 1267.22,611.7 1268.42,611.7 1269.62,611.7 1270.23,611.7 1270.83,609.123 1271.43,609.123 1272.03,609.123 1272.63,609.123 1273.24,603.969 1273.84,603.969 1274.44,603.969 1278.49,600.104 1282.55,596.239 1286.6,594.95 1290.66,592.374 1298.77,588.508 1306.88,582.066 1310.93,582.066 1314.98,582.066 1319.04,578.201 1323.09,575.624 1331.2,573.047 1339.31,567.894 1349.21,558.875 1359.11,551.145 1364.06,548.568 1369.01,545.991 1373.96,545.991 1378.91,543.414 1398.71,530.53 1418.51,518.935 1423.05,517.646 1427.58,513.781 1432.12,506.051 1436.65,500.897 1445.72,491.878 1454.79,486.724 1472.93,475.129 1491.06,464.822 1524.57,441.63 1558.07,421.016 1575.04,411.997 1592.01,402.978 1608.98,395.248 1625.95,388.806 1630.7,383.652 1635.46,379.787 1640.21,378.499 1644.97,374.633 1654.48,372.057 1663.99,370.768 1673.49,364.326 1683,359.173 1692.51,352.731 1702.02,348.865 1736.49,338.558 1770.95,324.386 1810.42,307.636 1849.88,292.176 1868.15,285.734 1886.42,276.715 1904.68,265.119 1922.95,256.1 1958.98,239.351 1995,225.179 2012.49,220.025 2029.97,214.871 2047.46,208.429 2064.95,201.987 2082.87,196.834 2100.8,192.969 2118.73,190.392 2136.65,187.815 2156.29,182.661 2175.94,177.508 2195.58,174.931 2215.22,173.643 2272.28,165.912 2329.34,162.047 2341.05,162.047 2352.76,162.047 "/>
<path clip-path="url(#clip610)" d="M258.49 272.585 L527.569 272.585 L527.569 168.905 L258.49 168.905  Z" fill="#ffffff" fill-rule="evenodd" fill-opacity="1"/>
<polyline clip-path="url(#clip610)" style="stroke:#000000; stroke-linecap:round; stroke-linejoin:round; stroke-width:4; stroke-opacity:1; fill:none" points="258.49,272.585 527.569,272.585 527.569,168.905 258.49,168.905 258.49,272.585 "/>
<polyline clip-path="url(#clip610)" style="stroke:#009af9; stroke-linecap:round; stroke-linejoin:round; stroke-width:4; stroke-opacity:1; fill:none" points="282.562,220.745 426.994,220.745 "/>
<path clip-path="url(#clip610)" d="M464.909 240.432 Q463.103 245.062 461.39 246.474 Q459.677 247.886 456.807 247.886 L453.404 247.886 L453.404 244.321 L455.904 244.321 Q457.663 244.321 458.636 243.488 Q459.608 242.654 460.788 239.552 L461.552 237.608 L451.066 212.099 L455.58 212.099 L463.682 232.377 L471.784 212.099 L476.298 212.099 L464.909 240.432 Z" fill="#000000" fill-rule="nonzero" fill-opacity="1" /><path clip-path="url(#clip610)" d="M483.589 234.089 L491.228 234.089 L491.228 207.724 L482.918 209.391 L482.918 205.131 L491.182 203.465 L495.858 203.465 L495.858 234.089 L503.497 234.089 L503.497 238.025 L483.589 238.025 L483.589 234.089 Z" fill="#000000" fill-rule="nonzero" fill-opacity="1" /></svg>
