<?xml version="1.0" encoding="utf-8"?>
<svg xmlns="http://www.w3.org/2000/svg" xmlns:xlink="http://www.w3.org/1999/xlink" width="600" height="400" viewBox="0 0 2400 1600">
<defs>
  <clipPath id="clip680">
    <rect x="0" y="0" width="2400" height="1600"/>
  </clipPath>
</defs>
<path clip-path="url(#clip680)" d="M0 1600 L2400 1600 L2400 0 L0 0  Z" fill="#ffffff" fill-rule="evenodd" fill-opacity="1"/>
<defs>
  <clipPath id="clip681">
    <rect x="480" y="0" width="1681" height="1600"/>
  </clipPath>
</defs>
<path clip-path="url(#clip680)" d="M186.274 1486.45 L2352.76 1486.45 L2352.76 47.2441 L186.274 47.2441  Z" fill="#ffffff" fill-rule="evenodd" fill-opacity="1"/>
<defs>
  <clipPath id="clip682">
    <rect x="186" y="47" width="2167" height="1440"/>
  </clipPath>
</defs>
<polyline clip-path="url(#clip682)" style="stroke:#000000; stroke-linecap:round; stroke-linejoin:round; stroke-width:2; stroke-opacity:0.1; fill:none" points="186.274,1486.45 186.274,47.2441 "/>
<polyline clip-path="url(#clip682)" style="stroke:#000000; stroke-linecap:round; stroke-linejoin:round; stroke-width:2; stroke-opacity:0.1; fill:none" points="619.57,1486.45 619.57,47.2441 "/>
<polyline clip-path="url(#clip682)" style="stroke:#000000; stroke-linecap:round; stroke-linejoin:round; stroke-width:2; stroke-opacity:0.1; fill:none" points="1052.87,1486.45 1052.87,47.2441 "/>
<polyline clip-path="url(#clip682)" style="stroke:#000000; stroke-linecap:round; stroke-linejoin:round; stroke-width:2; stroke-opacity:0.1; fill:none" points="1486.16,1486.45 1486.16,47.2441 "/>
<polyline clip-path="url(#clip682)" style="stroke:#000000; stroke-linecap:round; stroke-linejoin:round; stroke-width:2; stroke-opacity:0.1; fill:none" points="1919.46,1486.45 1919.46,47.2441 "/>
<polyline clip-path="url(#clip682)" style="stroke:#000000; stroke-linecap:round; stroke-linejoin:round; stroke-width:2; stroke-opacity:0.1; fill:none" points="2352.76,1486.45 2352.76,47.2441 "/>
<polyline clip-path="url(#clip682)" style="stroke:#000000; stroke-linecap:round; stroke-linejoin:round; stroke-width:2; stroke-opacity:0.1; fill:none" points="186.274,1445.72 2352.76,1445.72 "/>
<polyline clip-path="url(#clip682)" style="stroke:#000000; stroke-linecap:round; stroke-linejoin:round; stroke-width:2; stroke-opacity:0.1; fill:none" points="186.274,1106.28 2352.76,1106.28 "/>
<polyline clip-path="url(#clip682)" style="stroke:#000000; stroke-linecap:round; stroke-linejoin:round; stroke-width:2; stroke-opacity:0.1; fill:none" points="186.274,766.846 2352.76,766.846 "/>
<polyline clip-path="url(#clip682)" style="stroke:#000000; stroke-linecap:round; stroke-linejoin:round; stroke-width:2; stroke-opacity:0.1; fill:none" points="186.274,427.411 2352.76,427.411 "/>
<polyline clip-path="url(#clip682)" style="stroke:#000000; stroke-linecap:round; stroke-linejoin:round; stroke-width:2; stroke-opacity:0.1; fill:none" points="186.274,87.9763 2352.76,87.9763 "/>
<polyline clip-path="url(#clip680)" style="stroke:#000000; stroke-linecap:round; stroke-linejoin:round; stroke-width:4; stroke-opacity:1; fill:none" points="186.274,1486.45 2352.76,1486.45 "/>
<polyline clip-path="url(#clip680)" style="stroke:#000000; stroke-linecap:round; stroke-linejoin:round; stroke-width:4; stroke-opacity:1; fill:none" points="186.274,1486.45 186.274,1467.55 "/>
<polyline clip-path="url(#clip680)" style="stroke:#000000; stroke-linecap:round; stroke-linejoin:round; stroke-width:4; stroke-opacity:1; fill:none" points="619.57,1486.45 619.57,1467.55 "/>
<polyline clip-path="url(#clip680)" style="stroke:#000000; stroke-linecap:round; stroke-linejoin:round; stroke-width:4; stroke-opacity:1; fill:none" points="1052.87,1486.45 1052.87,1467.55 "/>
<polyline clip-path="url(#clip680)" style="stroke:#000000; stroke-linecap:round; stroke-linejoin:round; stroke-width:4; stroke-opacity:1; fill:none" points="1486.16,1486.45 1486.16,1467.55 "/>
<polyline clip-path="url(#clip680)" style="stroke:#000000; stroke-linecap:round; stroke-linejoin:round; stroke-width:4; stroke-opacity:1; fill:none" points="1919.46,1486.45 1919.46,1467.55 "/>
<polyline clip-path="url(#clip680)" style="stroke:#000000; stroke-linecap:round; stroke-linejoin:round; stroke-width:4; stroke-opacity:1; fill:none" points="2352.76,1486.45 2352.76,1467.55 "/>
<path clip-path="url(#clip680)" d="M186.274 1517.37 Q182.663 1517.37 180.834 1520.93 Q179.029 1524.47 179.029 1531.6 Q179.029 1538.71 180.834 1542.27 Q182.663 1545.82 186.274 1545.82 Q189.908 1545.82 191.714 1542.27 Q193.542 1538.71 193.542 1531.6 Q193.542 1524.47 191.714 1520.93 Q189.908 1517.37 186.274 1517.37 M186.274 1513.66 Q192.084 1513.66 195.14 1518.27 Q198.218 1522.85 198.218 1531.6 Q198.218 1540.33 195.14 1544.94 Q192.084 1549.52 186.274 1549.52 Q180.464 1549.52 177.385 1544.94 Q174.33 1540.33 174.33 1531.6 Q174.33 1522.85 177.385 1518.27 Q180.464 1513.66 186.274 1513.66 Z" fill="#000000" fill-rule="nonzero" fill-opacity="1" /><path clip-path="url(#clip680)" d="M609.952 1544.91 L617.591 1544.91 L617.591 1518.55 L609.281 1520.21 L609.281 1515.95 L617.545 1514.29 L622.221 1514.29 L622.221 1544.91 L629.86 1544.91 L629.86 1548.85 L609.952 1548.85 L609.952 1544.91 Z" fill="#000000" fill-rule="nonzero" fill-opacity="1" /><path clip-path="url(#clip680)" d="M1047.52 1544.91 L1063.84 1544.91 L1063.84 1548.85 L1041.89 1548.85 L1041.89 1544.91 Q1044.56 1542.16 1049.14 1537.53 Q1053.75 1532.88 1054.93 1531.53 Q1057.17 1529.01 1058.05 1527.27 Q1058.95 1525.51 1058.95 1523.82 Q1058.95 1521.07 1057.01 1519.33 Q1055.09 1517.6 1051.99 1517.6 Q1049.79 1517.6 1047.33 1518.36 Q1044.9 1519.13 1042.13 1520.68 L1042.13 1515.95 Q1044.95 1514.82 1047.4 1514.24 Q1049.86 1513.66 1051.89 1513.66 Q1057.26 1513.66 1060.46 1516.35 Q1063.65 1519.03 1063.65 1523.52 Q1063.65 1525.65 1062.84 1527.57 Q1062.06 1529.47 1059.95 1532.07 Q1059.37 1532.74 1056.27 1535.95 Q1053.17 1539.15 1047.52 1544.91 Z" fill="#000000" fill-rule="nonzero" fill-opacity="1" /><path clip-path="url(#clip680)" d="M1490.41 1530.21 Q1493.77 1530.93 1495.64 1533.2 Q1497.54 1535.47 1497.54 1538.8 Q1497.54 1543.92 1494.02 1546.72 Q1490.5 1549.52 1484.02 1549.52 Q1481.85 1549.52 1479.53 1549.08 Q1477.24 1548.66 1474.79 1547.81 L1474.79 1543.29 Q1476.73 1544.43 1479.05 1545.01 Q1481.36 1545.58 1483.88 1545.58 Q1488.28 1545.58 1490.57 1543.85 Q1492.89 1542.11 1492.89 1538.8 Q1492.89 1535.75 1490.73 1534.03 Q1488.61 1532.3 1484.79 1532.3 L1480.76 1532.3 L1480.76 1528.45 L1484.97 1528.45 Q1488.42 1528.45 1490.25 1527.09 Q1492.08 1525.7 1492.08 1523.11 Q1492.08 1520.45 1490.18 1519.03 Q1488.3 1517.6 1484.79 1517.6 Q1482.86 1517.6 1480.67 1518.01 Q1478.47 1518.43 1475.83 1519.31 L1475.83 1515.14 Q1478.49 1514.4 1480.8 1514.03 Q1483.14 1513.66 1485.2 1513.66 Q1490.53 1513.66 1493.63 1516.09 Q1496.73 1518.5 1496.73 1522.62 Q1496.73 1525.49 1495.09 1527.48 Q1493.44 1529.45 1490.41 1530.21 Z" fill="#000000" fill-rule="nonzero" fill-opacity="1" /><path clip-path="url(#clip680)" d="M1922.47 1518.36 L1910.66 1536.81 L1922.47 1536.81 L1922.47 1518.36 M1921.24 1514.29 L1927.12 1514.29 L1927.12 1536.81 L1932.05 1536.81 L1932.05 1540.7 L1927.12 1540.7 L1927.12 1548.85 L1922.47 1548.85 L1922.47 1540.7 L1906.87 1540.7 L1906.87 1536.19 L1921.24 1514.29 Z" fill="#000000" fill-rule="nonzero" fill-opacity="1" /><path clip-path="url(#clip680)" d="M2343.03 1514.29 L2361.39 1514.29 L2361.39 1518.22 L2347.32 1518.22 L2347.32 1526.7 Q2348.33 1526.35 2349.35 1526.19 Q2350.37 1526 2351.39 1526 Q2357.18 1526 2360.56 1529.17 Q2363.94 1532.34 2363.94 1537.76 Q2363.94 1543.34 2360.46 1546.44 Q2356.99 1549.52 2350.67 1549.52 Q2348.5 1549.52 2346.23 1549.15 Q2343.98 1548.78 2341.58 1548.04 L2341.58 1543.34 Q2343.66 1544.47 2345.88 1545.03 Q2348.1 1545.58 2350.58 1545.58 Q2354.58 1545.58 2356.92 1543.48 Q2359.26 1541.37 2359.26 1537.76 Q2359.26 1534.15 2356.92 1532.04 Q2354.58 1529.94 2350.58 1529.94 Q2348.71 1529.94 2346.83 1530.35 Q2344.98 1530.77 2343.03 1531.65 L2343.03 1514.29 Z" fill="#000000" fill-rule="nonzero" fill-opacity="1" /><polyline clip-path="url(#clip680)" style="stroke:#000000; stroke-linecap:round; stroke-linejoin:round; stroke-width:4; stroke-opacity:1; fill:none" points="186.274,1486.45 186.274,47.2441 "/>
<polyline clip-path="url(#clip680)" style="stroke:#000000; stroke-linecap:round; stroke-linejoin:round; stroke-width:4; stroke-opacity:1; fill:none" points="186.274,1445.72 205.172,1445.72 "/>
<polyline clip-path="url(#clip680)" style="stroke:#000000; stroke-linecap:round; stroke-linejoin:round; stroke-width:4; stroke-opacity:1; fill:none" points="186.274,1106.28 205.172,1106.28 "/>
<polyline clip-path="url(#clip680)" style="stroke:#000000; stroke-linecap:round; stroke-linejoin:round; stroke-width:4; stroke-opacity:1; fill:none" points="186.274,766.846 205.172,766.846 "/>
<polyline clip-path="url(#clip680)" style="stroke:#000000; stroke-linecap:round; stroke-linejoin:round; stroke-width:4; stroke-opacity:1; fill:none" points="186.274,427.411 205.172,427.411 "/>
<polyline clip-path="url(#clip680)" style="stroke:#000000; stroke-linecap:round; stroke-linejoin:round; stroke-width:4; stroke-opacity:1; fill:none" points="186.274,87.9763 205.172,87.9763 "/>
<path clip-path="url(#clip680)" d="M62.9365 1431.51 Q59.3254 1431.51 57.4967 1435.08 Q55.6912 1438.62 55.6912 1445.75 Q55.6912 1452.86 57.4967 1456.42 Q59.3254 1459.96 62.9365 1459.96 Q66.5707 1459.96 68.3763 1456.42 Q70.205 1452.86 70.205 1445.75 Q70.205 1438.62 68.3763 1435.08 Q66.5707 1431.51 62.9365 1431.51 M62.9365 1427.81 Q68.7467 1427.81 71.8022 1432.42 Q74.8809 1437 74.8809 1445.75 Q74.8809 1454.48 71.8022 1459.08 Q68.7467 1463.67 62.9365 1463.67 Q57.1264 1463.67 54.0477 1459.08 Q50.9921 1454.48 50.9921 1445.75 Q50.9921 1437 54.0477 1432.42 Q57.1264 1427.81 62.9365 1427.81 Z" fill="#000000" fill-rule="nonzero" fill-opacity="1" /><path clip-path="url(#clip680)" d="M83.0984 1457.12 L87.9827 1457.12 L87.9827 1463 L83.0984 1463 L83.0984 1457.12 Z" fill="#000000" fill-rule="nonzero" fill-opacity="1" /><path clip-path="url(#clip680)" d="M108.168 1431.51 Q104.557 1431.51 102.728 1435.08 Q100.922 1438.62 100.922 1445.75 Q100.922 1452.86 102.728 1456.42 Q104.557 1459.96 108.168 1459.96 Q111.802 1459.96 113.608 1456.42 Q115.436 1452.86 115.436 1445.75 Q115.436 1438.62 113.608 1435.08 Q111.802 1431.51 108.168 1431.51 M108.168 1427.81 Q113.978 1427.81 117.033 1432.42 Q120.112 1437 120.112 1445.75 Q120.112 1454.48 117.033 1459.08 Q113.978 1463.67 108.168 1463.67 Q102.358 1463.67 99.2789 1459.08 Q96.2234 1454.48 96.2234 1445.75 Q96.2234 1437 99.2789 1432.42 Q102.358 1427.81 108.168 1427.81 Z" fill="#000000" fill-rule="nonzero" fill-opacity="1" /><path clip-path="url(#clip680)" d="M138.33 1431.51 Q134.719 1431.51 132.89 1435.08 Q131.084 1438.62 131.084 1445.75 Q131.084 1452.86 132.89 1456.42 Q134.719 1459.96 138.33 1459.96 Q141.964 1459.96 143.769 1456.42 Q145.598 1452.86 145.598 1445.75 Q145.598 1438.62 143.769 1435.08 Q141.964 1431.51 138.33 1431.51 M138.33 1427.81 Q144.14 1427.81 147.195 1432.42 Q150.274 1437 150.274 1445.75 Q150.274 1454.48 147.195 1459.08 Q144.14 1463.67 138.33 1463.67 Q132.519 1463.67 129.441 1459.08 Q126.385 1454.48 126.385 1445.75 Q126.385 1437 129.441 1432.42 Q132.519 1427.81 138.33 1427.81 Z" fill="#000000" fill-rule="nonzero" fill-opacity="1" /><path clip-path="url(#clip680)" d="M63.9319 1092.08 Q60.3208 1092.08 58.4921 1095.64 Q56.6865 1099.19 56.6865 1106.32 Q56.6865 1113.42 58.4921 1116.99 Q60.3208 1120.53 63.9319 1120.53 Q67.5661 1120.53 69.3717 1116.99 Q71.2004 1113.42 71.2004 1106.32 Q71.2004 1099.19 69.3717 1095.64 Q67.5661 1092.08 63.9319 1092.08 M63.9319 1088.38 Q69.742 1088.38 72.7976 1092.98 Q75.8763 1097.57 75.8763 1106.32 Q75.8763 1115.04 72.7976 1119.65 Q69.742 1124.23 63.9319 1124.23 Q58.1217 1124.23 55.043 1119.65 Q51.9875 1115.04 51.9875 1106.32 Q51.9875 1097.57 55.043 1092.98 Q58.1217 1088.38 63.9319 1088.38 Z" fill="#000000" fill-rule="nonzero" fill-opacity="1" /><path clip-path="url(#clip680)" d="M84.0938 1117.68 L88.978 1117.68 L88.978 1123.56 L84.0938 1123.56 L84.0938 1117.68 Z" fill="#000000" fill-rule="nonzero" fill-opacity="1" /><path clip-path="url(#clip680)" d="M103.191 1119.63 L119.51 1119.63 L119.51 1123.56 L97.566 1123.56 L97.566 1119.63 Q100.228 1116.87 104.811 1112.24 Q109.418 1107.59 110.598 1106.25 Q112.844 1103.72 113.723 1101.99 Q114.626 1100.23 114.626 1098.54 Q114.626 1095.78 112.682 1094.05 Q110.76 1092.31 107.658 1092.31 Q105.459 1092.31 103.006 1093.07 Q100.575 1093.84 97.7974 1095.39 L97.7974 1090.67 Q100.621 1089.53 103.075 1088.95 Q105.529 1088.38 107.566 1088.38 Q112.936 1088.38 116.131 1091.06 Q119.325 1093.75 119.325 1098.24 Q119.325 1100.37 118.515 1102.29 Q117.728 1104.19 115.621 1106.78 Q115.043 1107.45 111.941 1110.67 Q108.839 1113.86 103.191 1119.63 Z" fill="#000000" fill-rule="nonzero" fill-opacity="1" /><path clip-path="url(#clip680)" d="M129.371 1089 L147.728 1089 L147.728 1092.94 L133.654 1092.94 L133.654 1101.41 Q134.672 1101.06 135.691 1100.9 Q136.709 1100.71 137.728 1100.71 Q143.515 1100.71 146.894 1103.89 Q150.274 1107.06 150.274 1112.47 Q150.274 1118.05 146.802 1121.15 Q143.33 1124.23 137.01 1124.23 Q134.834 1124.23 132.566 1123.86 Q130.32 1123.49 127.913 1122.75 L127.913 1118.05 Q129.996 1119.19 132.219 1119.74 Q134.441 1120.3 136.918 1120.3 Q140.922 1120.3 143.26 1118.19 Q145.598 1116.08 145.598 1112.47 Q145.598 1108.86 143.26 1106.76 Q140.922 1104.65 136.918 1104.65 Q135.043 1104.65 133.168 1105.07 Q131.316 1105.48 129.371 1106.36 L129.371 1089 Z" fill="#000000" fill-rule="nonzero" fill-opacity="1" /><path clip-path="url(#clip680)" d="M62.9365 752.645 Q59.3254 752.645 57.4967 756.209 Q55.6912 759.751 55.6912 766.881 Q55.6912 773.987 57.4967 777.552 Q59.3254 781.094 62.9365 781.094 Q66.5707 781.094 68.3763 777.552 Q70.205 773.987 70.205 766.881 Q70.205 759.751 68.3763 756.209 Q66.5707 752.645 62.9365 752.645 M62.9365 748.941 Q68.7467 748.941 71.8022 753.547 Q74.8809 758.131 74.8809 766.881 Q74.8809 775.608 71.8022 780.214 Q68.7467 784.797 62.9365 784.797 Q57.1264 784.797 54.0477 780.214 Q50.9921 775.608 50.9921 766.881 Q50.9921 758.131 54.0477 753.547 Q57.1264 748.941 62.9365 748.941 Z" fill="#000000" fill-rule="nonzero" fill-opacity="1" /><path clip-path="url(#clip680)" d="M83.0984 778.246 L87.9827 778.246 L87.9827 784.126 L83.0984 784.126 L83.0984 778.246 Z" fill="#000000" fill-rule="nonzero" fill-opacity="1" /><path clip-path="url(#clip680)" d="M98.2141 749.566 L116.57 749.566 L116.57 753.501 L102.496 753.501 L102.496 761.973 Q103.515 761.626 104.534 761.464 Q105.552 761.279 106.571 761.279 Q112.358 761.279 115.737 764.45 Q119.117 767.621 119.117 773.038 Q119.117 778.617 115.645 781.719 Q112.172 784.797 105.853 784.797 Q103.677 784.797 101.409 784.427 Q99.1632 784.057 96.7558 783.316 L96.7558 778.617 Q98.8391 779.751 101.061 780.307 Q103.284 780.862 105.76 780.862 Q109.765 780.862 112.103 778.756 Q114.441 776.649 114.441 773.038 Q114.441 769.427 112.103 767.321 Q109.765 765.214 105.76 765.214 Q103.885 765.214 102.01 765.631 Q100.159 766.047 98.2141 766.927 L98.2141 749.566 Z" fill="#000000" fill-rule="nonzero" fill-opacity="1" /><path clip-path="url(#clip680)" d="M138.33 752.645 Q134.719 752.645 132.89 756.209 Q131.084 759.751 131.084 766.881 Q131.084 773.987 132.89 777.552 Q134.719 781.094 138.33 781.094 Q141.964 781.094 143.769 777.552 Q145.598 773.987 145.598 766.881 Q145.598 759.751 143.769 756.209 Q141.964 752.645 138.33 752.645 M138.33 748.941 Q144.14 748.941 147.195 753.547 Q150.274 758.131 150.274 766.881 Q150.274 775.608 147.195 780.214 Q144.14 784.797 138.33 784.797 Q132.519 784.797 129.441 780.214 Q126.385 775.608 126.385 766.881 Q126.385 758.131 129.441 753.547 Q132.519 748.941 138.33 748.941 Z" fill="#000000" fill-rule="nonzero" fill-opacity="1" /><path clip-path="url(#clip680)" d="M63.9319 413.21 Q60.3208 413.21 58.4921 416.775 Q56.6865 420.316 56.6865 427.446 Q56.6865 434.552 58.4921 438.117 Q60.3208 441.659 63.9319 441.659 Q67.5661 441.659 69.3717 438.117 Q71.2004 434.552 71.2004 427.446 Q71.2004 420.316 69.3717 416.775 Q67.5661 413.21 63.9319 413.21 M63.9319 409.506 Q69.742 409.506 72.7976 414.113 Q75.8763 418.696 75.8763 427.446 Q75.8763 436.173 72.7976 440.779 Q69.742 445.362 63.9319 445.362 Q58.1217 445.362 55.043 440.779 Q51.9875 436.173 51.9875 427.446 Q51.9875 418.696 55.043 414.113 Q58.1217 409.506 63.9319 409.506 Z" fill="#000000" fill-rule="nonzero" fill-opacity="1" /><path clip-path="url(#clip680)" d="M84.0938 438.812 L88.978 438.812 L88.978 444.691 L84.0938 444.691 L84.0938 438.812 Z" fill="#000000" fill-rule="nonzero" fill-opacity="1" /><path clip-path="url(#clip680)" d="M97.9826 410.131 L120.205 410.131 L120.205 412.122 L107.658 444.691 L102.774 444.691 L114.58 414.066 L97.9826 414.066 L97.9826 410.131 Z" fill="#000000" fill-rule="nonzero" fill-opacity="1" /><path clip-path="url(#clip680)" d="M129.371 410.131 L147.728 410.131 L147.728 414.066 L133.654 414.066 L133.654 422.538 Q134.672 422.191 135.691 422.029 Q136.709 421.844 137.728 421.844 Q143.515 421.844 146.894 425.015 Q150.274 428.187 150.274 433.603 Q150.274 439.182 146.802 442.284 Q143.33 445.362 137.01 445.362 Q134.834 445.362 132.566 444.992 Q130.32 444.622 127.913 443.881 L127.913 439.182 Q129.996 440.316 132.219 440.872 Q134.441 441.427 136.918 441.427 Q140.922 441.427 143.26 439.321 Q145.598 437.214 145.598 433.603 Q145.598 429.992 143.26 427.886 Q140.922 425.779 136.918 425.779 Q135.043 425.779 133.168 426.196 Q131.316 426.613 129.371 427.492 L129.371 410.131 Z" fill="#000000" fill-rule="nonzero" fill-opacity="1" /><path clip-path="url(#clip680)" d="M53.7467 101.321 L61.3856 101.321 L61.3856 74.9555 L53.0754 76.6222 L53.0754 72.3629 L61.3393 70.6963 L66.0152 70.6963 L66.0152 101.321 L73.654 101.321 L73.654 105.256 L53.7467 105.256 L53.7467 101.321 Z" fill="#000000" fill-rule="nonzero" fill-opacity="1" /><path clip-path="url(#clip680)" d="M83.0984 99.3767 L87.9827 99.3767 L87.9827 105.256 L83.0984 105.256 L83.0984 99.3767 Z" fill="#000000" fill-rule="nonzero" fill-opacity="1" /><path clip-path="url(#clip680)" d="M108.168 73.775 Q104.557 73.775 102.728 77.3398 Q100.922 80.8814 100.922 88.011 Q100.922 95.1174 102.728 98.6822 Q104.557 102.224 108.168 102.224 Q111.802 102.224 113.608 98.6822 Q115.436 95.1174 115.436 88.011 Q115.436 80.8814 113.608 77.3398 Q111.802 73.775 108.168 73.775 M108.168 70.0713 Q113.978 70.0713 117.033 74.6777 Q120.112 79.261 120.112 88.011 Q120.112 96.7378 117.033 101.344 Q113.978 105.928 108.168 105.928 Q102.358 105.928 99.2789 101.344 Q96.2234 96.7378 96.2234 88.011 Q96.2234 79.261 99.2789 74.6777 Q102.358 70.0713 108.168 70.0713 Z" fill="#000000" fill-rule="nonzero" fill-opacity="1" /><path clip-path="url(#clip680)" d="M138.33 73.775 Q134.719 73.775 132.89 77.3398 Q131.084 80.8814 131.084 88.011 Q131.084 95.1174 132.89 98.6822 Q134.719 102.224 138.33 102.224 Q141.964 102.224 143.769 98.6822 Q145.598 95.1174 145.598 88.011 Q145.598 80.8814 143.769 77.3398 Q141.964 73.775 138.33 73.775 M138.33 70.0713 Q144.14 70.0713 147.195 74.6777 Q150.274 79.261 150.274 88.011 Q150.274 96.7378 147.195 101.344 Q144.14 105.928 138.33 105.928 Q132.519 105.928 129.441 101.344 Q126.385 96.7378 126.385 88.011 Q126.385 79.261 129.441 74.6777 Q132.519 70.0713 138.33 70.0713 Z" fill="#000000" fill-rule="nonzero" fill-opacity="1" /><polyline clip-path="url(#clip682)" style="stroke:#009af9; stroke-linecap:round; stroke-linejoin:round; stroke-width:4; stroke-opacity:1; fill:none" points="186.274,87.9763 191.866,105.441 197.457,122.792 203.049,140.031 208.64,157.156 241.389,255.188 274.138,349.342 290.513,394.965 306.887,439.618 323.262,483.302 339.636,526.016 354.871,564.887 370.106,602.918 385.341,640.11 400.576,676.463 420.996,723.873 441.417,769.776 461.837,814.17 482.258,857.057 499.131,891.356 516.005,924.627 532.878,956.868 549.752,988.079 581.133,1043.39 612.515,1095.14 632.212,1125.8 651.909,1155.06 671.606,1182.91 691.304,1209.37 708.972,1231.9 726.641,1253.31 744.309,1273.59 761.978,1292.73 782.202,1313.27 802.426,1332.32 822.65,1349.89 842.874,1365.99 873.109,1387.3 903.344,1405.3 922.679,1415.07 942.015,1423.5 961.351,1430.57 980.686,1436.3 998.334,1440.34 1015.98,1443.26 1033.63,1445.05 1051.28,1445.71 1131.62,1445.72 1195.31,1445.72 1274.43,1445.72 1335.03,1445.72 1420.46,1445.72 1484.3,1445.72 1556.9,1445.72 1628.8,1445.72 1707.91,1445.72 1768.33,1445.72 1844.58,1445.72 1915.1,1445.72 1987.83,1445.72 2061.55,1445.72 2138.53,1445.72 2199.17,1445.72 2337.26,1445.72 2352.76,1445.72 "/>
<polyline clip-path="url(#clip682)" style="stroke:#e26f46; stroke-linecap:round; stroke-linejoin:round; stroke-width:4; stroke-opacity:1; fill:none" points="186.274,87.9763 191.866,105.385 197.457,122.57 203.049,139.535 208.64,156.283 225.015,204.102 241.389,250.148 257.764,294.486 274.138,337.18 290.513,378.29 306.887,417.876 323.262,455.994 339.636,492.699 354.871,525.625 370.106,557.413 385.341,588.104 400.576,617.734 420.996,655.85 441.417,692.211 461.837,726.898 482.258,759.989 499.131,786.179 516.005,811.37 532.878,835.598 549.752,858.9 581.133,899.898 612.515,938.031 632.212,960.593 651.909,982.153 671.606,1002.75 691.304,1022.44 726.641,1055.59 761.978,1086.14 802.426,1118.19 842.874,1147.38 873.109,1167.49 903.344,1186.24 942.015,1208.4 980.686,1228.66 1015.98,1245.64 1051.28,1261.29 1091.45,1277.62 1131.62,1292.5 1163.46,1303.36 1195.31,1313.45 1274.43,1335.52 1335.03,1349.9 1420.46,1367.05 1484.3,1377.83 1556.9,1388.3 1628.8,1397.08 1707.91,1405.19 1768.33,1410.47 1844.58,1416.16 1915.1,1420.6 1987.83,1424.48 2061.55,1427.8 2138.53,1430.72 2199.17,1432.68 2337.26,1436.23 2352.76,1436.57 "/>
<polyline clip-path="url(#clip682)" style="stroke:#3da44d; stroke-linecap:round; stroke-linejoin:round; stroke-width:4; stroke-opacity:1; fill:none" points="186.274,87.9763 191.866,105.329 197.457,122.352 203.049,139.052 208.64,155.438 225.015,201.69 241.389,245.498 257.764,287.033 274.138,326.449 290.513,363.886 306.887,399.477 323.262,433.339 339.636,465.584 354.871,494.221 370.106,521.621 385.341,547.854 400.576,572.986 420.996,605.05 441.417,635.379 461.837,664.096 482.258,691.312 499.131,712.743 516.005,733.274 532.878,752.954 549.752,771.83 581.133,804.941 612.515,835.671 651.909,871.216 691.304,903.743 726.641,930.625 761.978,955.556 802.426,981.934 842.874,1006.24 873.109,1023.18 903.344,1039.16 942.015,1058.31 980.686,1076.14 1015.98,1091.36 1051.28,1105.66 1131.62,1135.14 1195.31,1155.88 1274.43,1178.87 1335.03,1194.67 1420.46,1214.68 1484.3,1228.1 1556.9,1242 1628.8,1254.49 1707.91,1266.95 1768.33,1275.66 1844.58,1285.77 1915.1,1294.35 1987.83,1302.49 2061.55,1310.09 2138.53,1317.39 2199.17,1322.74 2337.26,1333.74 2352.76,1334.88 "/>
<polyline clip-path="url(#clip682)" style="stroke:#c271d2; stroke-linecap:round; stroke-linejoin:round; stroke-width:4; stroke-opacity:1; fill:none" points="186.274,87.9763 191.866,105.274 197.457,122.137 203.049,138.581 208.64,154.621 225.015,199.408 241.389,241.192 257.764,280.265 274.138,316.882 290.513,351.269 306.887,383.623 323.262,414.119 339.636,442.912 354.871,468.295 370.106,492.424 385.341,515.391 400.576,537.277 420.996,565.046 441.417,591.169 461.837,615.786 482.258,639.025 499.131,657.267 516.005,674.703 532.878,691.384 549.752,707.359 581.133,735.338 612.515,761.273 651.909,791.268 691.304,818.744 726.641,841.499 761.978,862.66 802.426,885.132 842.874,905.936 873.109,920.506 903.344,934.31 942.015,950.943 980.686,966.527 1015.98,979.918 1051.28,992.582 1131.62,1018.99 1195.31,1037.83 1274.43,1059.04 1335.03,1073.85 1420.46,1092.91 1484.3,1105.92 1556.9,1119.59 1628.8,1132.09 1707.91,1144.78 1768.33,1153.8 1844.58,1164.45 1915.1,1173.62 1987.83,1182.48 2061.55,1190.88 2138.53,1199.1 2199.17,1205.22 2337.26,1218.07 2352.76,1219.43 "/>
<polyline clip-path="url(#clip682)" style="stroke:#ac8d18; stroke-linecap:round; stroke-linejoin:round; stroke-width:4; stroke-opacity:1; fill:none" points="186.274,87.9763 189.07,96.5712 191.866,104.85 194.661,112.832 197.457,120.538 200.253,127.984 203.049,135.186 205.844,142.158 208.64,148.913 216.827,167.558 225.015,184.702 233.202,200.552 241.389,215.277 249.576,229.016 257.764,241.883 265.951,253.974 274.138,265.372 282.326,276.145 290.513,286.354 298.7,296.05 306.887,305.279 323.262,322.491 339.636,338.252 354.871,351.8 370.106,364.409 385.341,376.195 400.576,387.249 420.996,401.055 441.417,413.847 461.837,425.753 482.258,436.879 499.131,445.549 516.005,453.789 532.878,461.639 549.752,469.13 581.133,482.204 612.515,494.294 651.909,508.272 691.304,521.101 726.641,531.766 761.978,541.733 802.426,552.386 842.874,562.328 873.109,569.345 903.344,576.04 980.686,591.874 1051.28,604.935 1131.62,618.453 1195.31,628.302 1274.43,639.622 1335.03,647.689 1420.46,658.291 1484.3,665.689 1556.9,673.621 1628.8,681.022 1707.91,688.697 1768.33,694.261 1844.58,700.946 1915.1,706.824 1987.83,712.606 2061.55,718.2 2138.53,723.778 2199.17,727.997 2337.26,737.083 2352.76,738.06 "/>
<path clip-path="url(#clip680)" d="M1494.4 406.258 L2280.54 406.258 L2280.54 95.2176 L1494.4 95.2176  Z" fill="#ffffff" fill-rule="evenodd" fill-opacity="1"/>
<polyline clip-path="url(#clip680)" style="stroke:#000000; stroke-linecap:round; stroke-linejoin:round; stroke-width:4; stroke-opacity:1; fill:none" points="1494.4,406.258 2280.54,406.258 2280.54,95.2176 1494.4,95.2176 1494.4,406.258 "/>
<polyline clip-path="url(#clip680)" style="stroke:#009af9; stroke-linecap:round; stroke-linejoin:round; stroke-width:4; stroke-opacity:1; fill:none" points="1518.48,147.058 1662.91,147.058 "/>
<path clip-path="url(#clip680)" d="M1714.85 132.44 L1714.85 137.37 Q1712.49 135.171 1709.8 134.083 Q1707.14 132.995 1704.13 132.995 Q1698.21 132.995 1695.06 136.629 Q1691.91 140.24 1691.91 147.092 Q1691.91 153.921 1695.06 157.555 Q1698.21 161.166 1704.13 161.166 Q1707.14 161.166 1709.8 160.078 Q1712.49 158.99 1714.85 156.791 L1714.85 161.676 Q1712.4 163.342 1709.64 164.176 Q1706.91 165.009 1703.86 165.009 Q1696.01 165.009 1691.49 160.217 Q1686.98 155.402 1686.98 147.092 Q1686.98 138.759 1691.49 133.967 Q1696.01 129.153 1703.86 129.153 Q1706.96 129.153 1709.69 129.986 Q1712.44 130.796 1714.85 132.44 Z" fill="#000000" fill-rule="nonzero" fill-opacity="1" /><path clip-path="url(#clip680)" d="M1721.89 128.319 L1726.15 128.319 L1726.15 164.338 L1721.89 164.338 L1721.89 128.319 Z" fill="#000000" fill-rule="nonzero" fill-opacity="1" /><path clip-path="url(#clip680)" d="M1746.84 151.305 Q1741.68 151.305 1739.69 152.486 Q1737.7 153.666 1737.7 156.514 Q1737.7 158.782 1739.18 160.125 Q1740.68 161.444 1743.25 161.444 Q1746.79 161.444 1748.92 158.944 Q1751.08 156.421 1751.08 152.254 L1751.08 151.305 L1746.84 151.305 M1755.34 149.546 L1755.34 164.338 L1751.08 164.338 L1751.08 160.402 Q1749.62 162.763 1747.44 163.898 Q1745.27 165.009 1742.12 165.009 Q1738.14 165.009 1735.78 162.787 Q1733.44 160.541 1733.44 156.791 Q1733.44 152.416 1736.35 150.194 Q1739.29 147.972 1745.1 147.972 L1751.08 147.972 L1751.08 147.555 Q1751.08 144.615 1749.13 143.018 Q1747.21 141.398 1743.72 141.398 Q1741.49 141.398 1739.39 141.93 Q1737.28 142.463 1735.34 143.527 L1735.34 139.592 Q1737.67 138.69 1739.87 138.25 Q1742.07 137.787 1744.16 137.787 Q1749.78 137.787 1752.56 140.703 Q1755.34 143.62 1755.34 149.546 Z" fill="#000000" fill-rule="nonzero" fill-opacity="1" /><path clip-path="url(#clip680)" d="M1774.9 166.745 Q1773.09 171.375 1771.38 172.787 Q1769.66 174.199 1766.79 174.199 L1763.39 174.199 L1763.39 170.634 L1765.89 170.634 Q1767.65 170.634 1768.62 169.8 Q1769.6 168.967 1770.78 165.865 L1771.54 163.921 L1761.05 138.412 L1765.57 138.412 L1773.67 158.689 L1781.77 138.412 L1786.29 138.412 L1774.9 166.745 Z" fill="#000000" fill-rule="nonzero" fill-opacity="1" /><path clip-path="url(#clip680)" d="M1796.38 131.051 L1796.38 138.412 L1805.15 138.412 L1805.15 141.722 L1796.38 141.722 L1796.38 155.796 Q1796.38 158.967 1797.23 159.87 Q1798.11 160.773 1800.78 160.773 L1805.15 160.773 L1805.15 164.338 L1800.78 164.338 Q1795.85 164.338 1793.97 162.509 Q1792.1 160.657 1792.1 155.796 L1792.1 141.722 L1788.97 141.722 L1788.97 138.412 L1792.1 138.412 L1792.1 131.051 L1796.38 131.051 Z" fill="#000000" fill-rule="nonzero" fill-opacity="1" /><path clip-path="url(#clip680)" d="M1820.8 141.398 Q1817.37 141.398 1815.38 144.083 Q1813.39 146.745 1813.39 151.398 Q1813.39 156.051 1815.36 158.736 Q1817.35 161.398 1820.8 161.398 Q1824.2 161.398 1826.19 158.713 Q1828.18 156.027 1828.18 151.398 Q1828.18 146.791 1826.19 144.106 Q1824.2 141.398 1820.8 141.398 M1820.8 137.787 Q1826.35 137.787 1829.53 141.398 Q1832.7 145.009 1832.7 151.398 Q1832.7 157.764 1829.53 161.398 Q1826.35 165.009 1820.8 165.009 Q1815.22 165.009 1812.05 161.398 Q1808.9 157.764 1808.9 151.398 Q1808.9 145.009 1812.05 141.398 Q1815.22 137.787 1820.8 137.787 Z" fill="#000000" fill-rule="nonzero" fill-opacity="1" /><path clip-path="url(#clip680)" d="M1861.31 148.689 L1861.31 164.338 L1857.05 164.338 L1857.05 148.828 Q1857.05 145.148 1855.61 143.319 Q1854.18 141.49 1851.31 141.49 Q1847.86 141.49 1845.87 143.69 Q1843.88 145.889 1843.88 149.685 L1843.88 164.338 L1839.6 164.338 L1839.6 138.412 L1843.88 138.412 L1843.88 142.44 Q1845.41 140.102 1847.47 138.944 Q1849.55 137.787 1852.26 137.787 Q1856.72 137.787 1859.02 140.565 Q1861.31 143.319 1861.31 148.689 Z" fill="#000000" fill-rule="nonzero" fill-opacity="1" /><path clip-path="url(#clip680)" d="M1893.55 159.407 L1893.55 150.125 L1885.91 150.125 L1885.91 146.282 L1898.18 146.282 L1898.18 161.12 Q1895.47 163.041 1892.21 164.037 Q1888.95 165.009 1885.24 165.009 Q1877.14 165.009 1872.56 160.287 Q1868 155.541 1868 147.092 Q1868 138.62 1872.56 133.898 Q1877.14 129.153 1885.24 129.153 Q1888.62 129.153 1891.65 129.986 Q1894.71 130.819 1897.28 132.44 L1897.28 137.416 Q1894.69 135.217 1891.77 134.106 Q1888.85 132.995 1885.64 132.995 Q1879.29 132.995 1876.1 136.537 Q1872.93 140.078 1872.93 147.092 Q1872.93 154.083 1876.1 157.625 Q1879.29 161.166 1885.64 161.166 Q1888.11 161.166 1890.06 160.75 Q1892 160.31 1893.55 159.407 Z" fill="#000000" fill-rule="nonzero" fill-opacity="1" /><path clip-path="url(#clip680)" d="M1928.71 150.31 L1928.71 152.393 L1909.13 152.393 Q1909.41 156.791 1911.77 159.106 Q1914.15 161.398 1918.39 161.398 Q1920.84 161.398 1923.14 160.796 Q1925.45 160.194 1927.72 158.99 L1927.72 163.018 Q1925.43 163.99 1923.02 164.5 Q1920.61 165.009 1918.14 165.009 Q1911.93 165.009 1908.3 161.398 Q1904.69 157.787 1904.69 151.629 Q1904.69 145.264 1908.11 141.537 Q1911.56 137.787 1917.4 137.787 Q1922.63 137.787 1925.66 141.166 Q1928.71 144.523 1928.71 150.31 M1924.46 149.06 Q1924.41 145.565 1922.49 143.481 Q1920.59 141.398 1917.44 141.398 Q1913.88 141.398 1911.72 143.412 Q1909.59 145.426 1909.27 149.083 L1924.46 149.06 Z" fill="#000000" fill-rule="nonzero" fill-opacity="1" /><path clip-path="url(#clip680)" d="M1957.26 148.689 L1957.26 164.338 L1953 164.338 L1953 148.828 Q1953 145.148 1951.56 143.319 Q1950.13 141.49 1947.26 141.49 Q1943.81 141.49 1941.82 143.69 Q1939.83 145.889 1939.83 149.685 L1939.83 164.338 L1935.54 164.338 L1935.54 138.412 L1939.83 138.412 L1939.83 142.44 Q1941.35 140.102 1943.41 138.944 Q1945.5 137.787 1948.21 137.787 Q1952.67 137.787 1954.96 140.565 Q1957.26 143.319 1957.26 148.689 Z" fill="#000000" fill-rule="nonzero" fill-opacity="1" /><path clip-path="url(#clip680)" d="M1987.93 150.31 L1987.93 152.393 L1968.34 152.393 Q1968.62 156.791 1970.98 159.106 Q1973.37 161.398 1977.6 161.398 Q1980.06 161.398 1982.35 160.796 Q1984.66 160.194 1986.93 158.99 L1986.93 163.018 Q1984.64 163.99 1982.23 164.5 Q1979.83 165.009 1977.35 165.009 Q1971.15 165.009 1967.51 161.398 Q1963.9 157.787 1963.9 151.629 Q1963.9 145.264 1967.33 141.537 Q1970.77 137.787 1976.61 137.787 Q1981.84 137.787 1984.87 141.166 Q1987.93 144.523 1987.93 150.31 M1983.67 149.06 Q1983.62 145.565 1981.7 143.481 Q1979.8 141.398 1976.65 141.398 Q1973.09 141.398 1970.94 143.412 Q1968.81 145.426 1968.48 149.083 L1983.67 149.06 Z" fill="#000000" fill-rule="nonzero" fill-opacity="1" /><path clip-path="url(#clip680)" d="M2009.94 142.393 Q2009.22 141.977 2008.37 141.791 Q2007.53 141.583 2006.52 141.583 Q2002.9 141.583 2000.96 143.944 Q1999.04 146.282 1999.04 150.68 L1999.04 164.338 L1994.76 164.338 L1994.76 138.412 L1999.04 138.412 L1999.04 142.44 Q2000.38 140.078 2002.53 138.944 Q2004.69 137.787 2007.77 137.787 Q2008.21 137.787 2008.74 137.856 Q2009.27 137.903 2009.92 138.018 L2009.94 142.393 Z" fill="#000000" fill-rule="nonzero" fill-opacity="1" /><path clip-path="url(#clip680)" d="M2026.19 151.305 Q2021.03 151.305 2019.04 152.486 Q2017.05 153.666 2017.05 156.514 Q2017.05 158.782 2018.53 160.125 Q2020.03 161.444 2022.6 161.444 Q2026.14 161.444 2028.27 158.944 Q2030.43 156.421 2030.43 152.254 L2030.43 151.305 L2026.19 151.305 M2034.69 149.546 L2034.69 164.338 L2030.43 164.338 L2030.43 160.402 Q2028.97 162.763 2026.79 163.898 Q2024.62 165.009 2021.47 165.009 Q2017.49 165.009 2015.13 162.787 Q2012.79 160.541 2012.79 156.791 Q2012.79 152.416 2015.71 150.194 Q2018.65 147.972 2024.46 147.972 L2030.43 147.972 L2030.43 147.555 Q2030.43 144.615 2028.48 143.018 Q2026.56 141.398 2023.07 141.398 Q2020.84 141.398 2018.74 141.93 Q2016.63 142.463 2014.69 143.527 L2014.69 139.592 Q2017.02 138.69 2019.22 138.25 Q2021.42 137.787 2023.51 137.787 Q2029.13 137.787 2031.91 140.703 Q2034.69 143.62 2034.69 149.546 Z" fill="#000000" fill-rule="nonzero" fill-opacity="1" /><path clip-path="url(#clip680)" d="M2047.67 131.051 L2047.67 138.412 L2056.45 138.412 L2056.45 141.722 L2047.67 141.722 L2047.67 155.796 Q2047.67 158.967 2048.53 159.87 Q2049.41 160.773 2052.07 160.773 L2056.45 160.773 L2056.45 164.338 L2052.07 164.338 Q2047.14 164.338 2045.27 162.509 Q2043.39 160.657 2043.39 155.796 L2043.39 141.722 L2040.27 141.722 L2040.27 138.412 L2043.39 138.412 L2043.39 131.051 L2047.67 131.051 Z" fill="#000000" fill-rule="nonzero" fill-opacity="1" /><path clip-path="url(#clip680)" d="M2072.09 141.398 Q2068.67 141.398 2066.68 144.083 Q2064.69 146.745 2064.69 151.398 Q2064.69 156.051 2066.65 158.736 Q2068.64 161.398 2072.09 161.398 Q2075.5 161.398 2077.49 158.713 Q2079.48 156.027 2079.48 151.398 Q2079.48 146.791 2077.49 144.106 Q2075.5 141.398 2072.09 141.398 M2072.09 137.787 Q2077.65 137.787 2080.82 141.398 Q2083.99 145.009 2083.99 151.398 Q2083.99 157.764 2080.82 161.398 Q2077.65 165.009 2072.09 165.009 Q2066.52 165.009 2063.34 161.398 Q2060.2 157.764 2060.2 151.398 Q2060.2 145.009 2063.34 141.398 Q2066.52 137.787 2072.09 137.787 Z" fill="#000000" fill-rule="nonzero" fill-opacity="1" /><path clip-path="url(#clip680)" d="M2106.08 142.393 Q2105.36 141.977 2104.5 141.791 Q2103.67 141.583 2102.65 141.583 Q2099.04 141.583 2097.09 143.944 Q2095.17 146.282 2095.17 150.68 L2095.17 164.338 L2090.89 164.338 L2090.89 138.412 L2095.17 138.412 L2095.17 142.44 Q2096.51 140.078 2098.67 138.944 Q2100.82 137.787 2103.9 137.787 Q2104.34 137.787 2104.87 137.856 Q2105.4 137.903 2106.05 138.018 L2106.08 142.393 Z" fill="#000000" fill-rule="nonzero" fill-opacity="1" /><path clip-path="url(#clip680)" d="M2120.77 128.366 Q2117.67 133.69 2116.17 138.898 Q2114.66 144.106 2114.66 149.453 Q2114.66 154.801 2116.17 160.055 Q2117.7 165.287 2120.77 170.588 L2117.07 170.588 Q2113.6 165.148 2111.86 159.893 Q2110.15 154.639 2110.15 149.453 Q2110.15 144.291 2111.86 139.06 Q2113.58 133.828 2117.07 128.366 L2120.77 128.366 Z" fill="#000000" fill-rule="nonzero" fill-opacity="1" /><path clip-path="url(#clip680)" d="M2126.89 149.453 L2139.36 149.453 L2139.36 153.25 L2126.89 153.25 L2126.89 149.453 Z" fill="#000000" fill-rule="nonzero" fill-opacity="1" /><path clip-path="url(#clip680)" d="M2156.75 132.856 Q2153.14 132.856 2151.31 136.421 Q2149.5 139.963 2149.5 147.092 Q2149.5 154.199 2151.31 157.764 Q2153.14 161.305 2156.75 161.305 Q2160.38 161.305 2162.19 157.764 Q2164.01 154.199 2164.01 147.092 Q2164.01 139.963 2162.19 136.421 Q2160.38 132.856 2156.75 132.856 M2156.75 129.153 Q2162.56 129.153 2165.61 133.759 Q2168.69 138.342 2168.69 147.092 Q2168.69 155.819 2165.61 160.426 Q2162.56 165.009 2156.75 165.009 Q2150.94 165.009 2147.86 160.426 Q2144.8 155.819 2144.8 147.092 Q2144.8 138.342 2147.86 133.759 Q2150.94 129.153 2156.75 129.153 Z" fill="#000000" fill-rule="nonzero" fill-opacity="1" /><path clip-path="url(#clip680)" d="M2176.91 158.458 L2181.79 158.458 L2181.79 164.338 L2176.91 164.338 L2176.91 158.458 Z" fill="#000000" fill-rule="nonzero" fill-opacity="1" /><path clip-path="url(#clip680)" d="M2192.02 129.778 L2210.38 129.778 L2210.38 133.713 L2196.31 133.713 L2196.31 142.185 Q2197.32 141.838 2198.34 141.676 Q2199.36 141.49 2200.38 141.49 Q2206.17 141.49 2209.55 144.662 Q2212.93 147.833 2212.93 153.25 Q2212.93 158.828 2209.45 161.93 Q2205.98 165.009 2199.66 165.009 Q2197.49 165.009 2195.22 164.638 Q2192.97 164.268 2190.57 163.527 L2190.57 158.828 Q2192.65 159.963 2194.87 160.518 Q2197.09 161.074 2199.57 161.074 Q2203.57 161.074 2205.91 158.967 Q2208.25 156.861 2208.25 153.25 Q2208.25 149.639 2205.91 147.532 Q2203.57 145.426 2199.57 145.426 Q2197.69 145.426 2195.82 145.842 Q2193.97 146.259 2192.02 147.139 L2192.02 129.778 Z" fill="#000000" fill-rule="nonzero" fill-opacity="1" /><path clip-path="url(#clip680)" d="M2220.87 128.366 L2224.57 128.366 Q2228.04 133.828 2229.76 139.06 Q2231.49 144.291 2231.49 149.453 Q2231.49 154.639 2229.76 159.893 Q2228.04 165.148 2224.57 170.588 L2220.87 170.588 Q2223.94 165.287 2225.45 160.055 Q2226.98 154.801 2226.98 149.453 Q2226.98 144.106 2225.45 138.898 Q2223.94 133.69 2220.87 128.366 Z" fill="#000000" fill-rule="nonzero" fill-opacity="1" /><polyline clip-path="url(#clip680)" style="stroke:#e26f46; stroke-linecap:round; stroke-linejoin:round; stroke-width:4; stroke-opacity:1; fill:none" points="1518.48,198.898 1662.91,198.898 "/>
<path clip-path="url(#clip680)" d="M1686.98 181.618 L1691.66 181.618 L1691.66 216.178 L1686.98 216.178 L1686.98 181.618 Z" fill="#000000" fill-rule="nonzero" fill-opacity="1" /><path clip-path="url(#clip680)" d="M1722.33 200.529 L1722.33 216.178 L1718.07 216.178 L1718.07 200.668 Q1718.07 196.988 1716.63 195.159 Q1715.2 193.33 1712.33 193.33 Q1708.88 193.33 1706.89 195.53 Q1704.9 197.729 1704.9 201.525 L1704.9 216.178 L1700.61 216.178 L1700.61 190.252 L1704.9 190.252 L1704.9 194.28 Q1706.42 191.942 1708.48 190.784 Q1710.57 189.627 1713.28 189.627 Q1717.74 189.627 1720.04 192.405 Q1722.33 195.159 1722.33 200.529 Z" fill="#000000" fill-rule="nonzero" fill-opacity="1" /><path clip-path="url(#clip680)" d="M1747.88 194.187 L1747.88 180.159 L1752.14 180.159 L1752.14 216.178 L1747.88 216.178 L1747.88 212.289 Q1746.54 214.603 1744.48 215.738 Q1742.44 216.849 1739.57 216.849 Q1734.87 216.849 1731.91 213.099 Q1728.97 209.349 1728.97 203.238 Q1728.97 197.127 1731.91 193.377 Q1734.87 189.627 1739.57 189.627 Q1742.44 189.627 1744.48 190.761 Q1746.54 191.872 1747.88 194.187 M1733.37 203.238 Q1733.37 207.937 1735.29 210.622 Q1737.23 213.284 1740.61 213.284 Q1743.99 213.284 1745.94 210.622 Q1747.88 207.937 1747.88 203.238 Q1747.88 198.539 1745.94 195.877 Q1743.99 193.192 1740.61 193.192 Q1737.23 193.192 1735.29 195.877 Q1733.37 198.539 1733.37 203.238 Z" fill="#000000" fill-rule="nonzero" fill-opacity="1" /><path clip-path="url(#clip680)" d="M1783.09 202.15 L1783.09 204.233 L1763.51 204.233 Q1763.79 208.631 1766.15 210.946 Q1768.53 213.238 1772.77 213.238 Q1775.22 213.238 1777.51 212.636 Q1779.83 212.034 1782.1 210.83 L1782.1 214.858 Q1779.8 215.83 1777.4 216.34 Q1774.99 216.849 1772.51 216.849 Q1766.31 216.849 1762.67 213.238 Q1759.06 209.627 1759.06 203.469 Q1759.06 197.104 1762.49 193.377 Q1765.94 189.627 1771.77 189.627 Q1777 189.627 1780.04 193.006 Q1783.09 196.363 1783.09 202.15 M1778.83 200.9 Q1778.79 197.405 1776.86 195.321 Q1774.97 193.238 1771.82 193.238 Q1768.25 193.238 1766.1 195.252 Q1763.97 197.266 1763.65 200.923 L1778.83 200.9 Z" fill="#000000" fill-rule="nonzero" fill-opacity="1" /><path clip-path="url(#clip680)" d="M1794.2 212.289 L1794.2 226.039 L1789.92 226.039 L1789.92 190.252 L1794.2 190.252 L1794.2 194.187 Q1795.54 191.872 1797.58 190.761 Q1799.64 189.627 1802.49 189.627 Q1807.21 189.627 1810.15 193.377 Q1813.11 197.127 1813.11 203.238 Q1813.11 209.349 1810.15 213.099 Q1807.21 216.849 1802.49 216.849 Q1799.64 216.849 1797.58 215.738 Q1795.54 214.603 1794.2 212.289 M1808.69 203.238 Q1808.69 198.539 1806.75 195.877 Q1804.83 193.192 1801.45 193.192 Q1798.07 193.192 1796.12 195.877 Q1794.2 198.539 1794.2 203.238 Q1794.2 207.937 1796.12 210.622 Q1798.07 213.284 1801.45 213.284 Q1804.83 213.284 1806.75 210.622 Q1808.69 207.937 1808.69 203.238 Z" fill="#000000" fill-rule="nonzero" fill-opacity="1" /><path clip-path="url(#clip680)" d="M1842.35 202.15 L1842.35 204.233 L1822.77 204.233 Q1823.04 208.631 1825.41 210.946 Q1827.79 213.238 1832.03 213.238 Q1834.48 213.238 1836.77 212.636 Q1839.09 212.034 1841.35 210.83 L1841.35 214.858 Q1839.06 215.83 1836.66 216.34 Q1834.25 216.849 1831.77 216.849 Q1825.57 216.849 1821.93 213.238 Q1818.32 209.627 1818.32 203.469 Q1818.32 197.104 1821.75 193.377 Q1825.2 189.627 1831.03 189.627 Q1836.26 189.627 1839.29 193.006 Q1842.35 196.363 1842.35 202.15 M1838.09 200.9 Q1838.04 197.405 1836.12 195.321 Q1834.22 193.238 1831.08 193.238 Q1827.51 193.238 1825.36 195.252 Q1823.23 197.266 1822.91 200.923 L1838.09 200.9 Z" fill="#000000" fill-rule="nonzero" fill-opacity="1" /><path clip-path="url(#clip680)" d="M1870.89 200.529 L1870.89 216.178 L1866.63 216.178 L1866.63 200.668 Q1866.63 196.988 1865.2 195.159 Q1863.76 193.33 1860.89 193.33 Q1857.44 193.33 1855.45 195.53 Q1853.46 197.729 1853.46 201.525 L1853.46 216.178 L1849.18 216.178 L1849.18 190.252 L1853.46 190.252 L1853.46 194.28 Q1854.99 191.942 1857.05 190.784 Q1859.13 189.627 1861.84 189.627 Q1866.31 189.627 1868.6 192.405 Q1870.89 195.159 1870.89 200.529 Z" fill="#000000" fill-rule="nonzero" fill-opacity="1" /><path clip-path="url(#clip680)" d="M1896.45 194.187 L1896.45 180.159 L1900.71 180.159 L1900.71 216.178 L1896.45 216.178 L1896.45 212.289 Q1895.1 214.603 1893.04 215.738 Q1891.01 216.849 1888.14 216.849 Q1883.44 216.849 1880.47 213.099 Q1877.53 209.349 1877.53 203.238 Q1877.53 197.127 1880.47 193.377 Q1883.44 189.627 1888.14 189.627 Q1891.01 189.627 1893.04 190.761 Q1895.1 191.872 1896.45 194.187 M1881.93 203.238 Q1881.93 207.937 1883.85 210.622 Q1885.8 213.284 1889.18 213.284 Q1892.56 213.284 1894.5 210.622 Q1896.45 207.937 1896.45 203.238 Q1896.45 198.539 1894.5 195.877 Q1892.56 193.192 1889.18 193.192 Q1885.8 193.192 1883.85 195.877 Q1881.93 198.539 1881.93 203.238 Z" fill="#000000" fill-rule="nonzero" fill-opacity="1" /><path clip-path="url(#clip680)" d="M1931.65 202.15 L1931.65 204.233 L1912.07 204.233 Q1912.35 208.631 1914.71 210.946 Q1917.09 213.238 1921.33 213.238 Q1923.78 213.238 1926.08 212.636 Q1928.39 212.034 1930.66 210.83 L1930.66 214.858 Q1928.37 215.83 1925.96 216.34 Q1923.55 216.849 1921.08 216.849 Q1914.87 216.849 1911.24 213.238 Q1907.63 209.627 1907.63 203.469 Q1907.63 197.104 1911.05 193.377 Q1914.5 189.627 1920.34 189.627 Q1925.57 189.627 1928.6 193.006 Q1931.65 196.363 1931.65 202.15 M1927.4 200.9 Q1927.35 197.405 1925.43 195.321 Q1923.53 193.238 1920.38 193.238 Q1916.82 193.238 1914.66 195.252 Q1912.53 197.266 1912.21 200.923 L1927.4 200.9 Z" fill="#000000" fill-rule="nonzero" fill-opacity="1" /><path clip-path="url(#clip680)" d="M1960.2 200.529 L1960.2 216.178 L1955.94 216.178 L1955.94 200.668 Q1955.94 196.988 1954.5 195.159 Q1953.07 193.33 1950.2 193.33 Q1946.75 193.33 1944.76 195.53 Q1942.77 197.729 1942.77 201.525 L1942.77 216.178 L1938.48 216.178 L1938.48 190.252 L1942.77 190.252 L1942.77 194.28 Q1944.29 191.942 1946.35 190.784 Q1948.44 189.627 1951.15 189.627 Q1955.61 189.627 1957.9 192.405 Q1960.2 195.159 1960.2 200.529 Z" fill="#000000" fill-rule="nonzero" fill-opacity="1" /><path clip-path="url(#clip680)" d="M1972.9 182.891 L1972.9 190.252 L1981.68 190.252 L1981.68 193.562 L1972.9 193.562 L1972.9 207.636 Q1972.9 210.807 1973.76 211.71 Q1974.64 212.613 1977.3 212.613 L1981.68 212.613 L1981.68 216.178 L1977.3 216.178 Q1972.37 216.178 1970.5 214.349 Q1968.62 212.497 1968.62 207.636 L1968.62 193.562 L1965.5 193.562 L1965.5 190.252 L1968.62 190.252 L1968.62 182.891 L1972.9 182.891 Z" fill="#000000" fill-rule="nonzero" fill-opacity="1" /><path clip-path="url(#clip680)" d="M2011.03 211.247 L2011.03 201.965 L2003.39 201.965 L2003.39 198.122 L2015.66 198.122 L2015.66 212.96 Q2012.95 214.881 2009.69 215.877 Q2006.42 216.849 2002.72 216.849 Q1994.62 216.849 1990.03 212.127 Q1985.47 207.381 1985.47 198.932 Q1985.47 190.46 1990.03 185.738 Q1994.62 180.993 2002.72 180.993 Q2006.1 180.993 2009.13 181.826 Q2012.19 182.659 2014.76 184.28 L2014.76 189.256 Q2012.16 187.057 2009.25 185.946 Q2006.33 184.835 2003.11 184.835 Q1996.77 184.835 1993.58 188.377 Q1990.4 191.918 1990.4 198.932 Q1990.4 205.923 1993.58 209.465 Q1996.77 213.006 2003.11 213.006 Q2005.59 213.006 2007.53 212.59 Q2009.48 212.15 2011.03 211.247 Z" fill="#000000" fill-rule="nonzero" fill-opacity="1" /><path clip-path="url(#clip680)" d="M2046.19 202.15 L2046.19 204.233 L2026.61 204.233 Q2026.89 208.631 2029.25 210.946 Q2031.63 213.238 2035.87 213.238 Q2038.32 213.238 2040.61 212.636 Q2042.93 212.034 2045.2 210.83 L2045.2 214.858 Q2042.9 215.83 2040.5 216.34 Q2038.09 216.849 2035.61 216.849 Q2029.41 216.849 2025.77 213.238 Q2022.16 209.627 2022.16 203.469 Q2022.16 197.104 2025.59 193.377 Q2029.04 189.627 2034.87 189.627 Q2040.1 189.627 2043.14 193.006 Q2046.19 196.363 2046.19 202.15 M2041.93 200.9 Q2041.89 197.405 2039.96 195.321 Q2038.07 193.238 2034.92 193.238 Q2031.35 193.238 2029.2 195.252 Q2027.07 197.266 2026.75 200.923 L2041.93 200.9 Z" fill="#000000" fill-rule="nonzero" fill-opacity="1" /><path clip-path="url(#clip680)" d="M2074.73 200.529 L2074.73 216.178 L2070.47 216.178 L2070.47 200.668 Q2070.47 196.988 2069.04 195.159 Q2067.6 193.33 2064.73 193.33 Q2061.28 193.33 2059.29 195.53 Q2057.3 197.729 2057.3 201.525 L2057.3 216.178 L2053.02 216.178 L2053.02 190.252 L2057.3 190.252 L2057.3 194.28 Q2058.83 191.942 2060.89 190.784 Q2062.97 189.627 2065.68 189.627 Q2070.15 189.627 2072.44 192.405 Q2074.73 195.159 2074.73 200.529 Z" fill="#000000" fill-rule="nonzero" fill-opacity="1" /><path clip-path="url(#clip680)" d="M2105.4 202.15 L2105.4 204.233 L2085.82 204.233 Q2086.1 208.631 2088.46 210.946 Q2090.84 213.238 2095.08 213.238 Q2097.53 213.238 2099.83 212.636 Q2102.14 212.034 2104.41 210.83 L2104.41 214.858 Q2102.12 215.83 2099.71 216.34 Q2097.3 216.849 2094.83 216.849 Q2088.62 216.849 2084.99 213.238 Q2081.38 209.627 2081.38 203.469 Q2081.38 197.104 2084.8 193.377 Q2088.25 189.627 2094.08 189.627 Q2099.32 189.627 2102.35 193.006 Q2105.4 196.363 2105.4 202.15 M2101.14 200.9 Q2101.1 197.405 2099.18 195.321 Q2097.28 193.238 2094.13 193.238 Q2090.57 193.238 2088.41 195.252 Q2086.28 197.266 2085.96 200.923 L2101.14 200.9 Z" fill="#000000" fill-rule="nonzero" fill-opacity="1" /><path clip-path="url(#clip680)" d="M2127.42 194.233 Q2126.7 193.817 2125.84 193.631 Q2125.01 193.423 2123.99 193.423 Q2120.38 193.423 2118.44 195.784 Q2116.51 198.122 2116.51 202.52 L2116.51 216.178 L2112.23 216.178 L2112.23 190.252 L2116.51 190.252 L2116.51 194.28 Q2117.86 191.918 2120.01 190.784 Q2122.16 189.627 2125.24 189.627 Q2125.68 189.627 2126.21 189.696 Q2126.75 189.743 2127.39 189.858 L2127.42 194.233 Z" fill="#000000" fill-rule="nonzero" fill-opacity="1" /><path clip-path="url(#clip680)" d="M2143.67 203.145 Q2138.51 203.145 2136.51 204.326 Q2134.52 205.506 2134.52 208.354 Q2134.52 210.622 2136.01 211.965 Q2137.51 213.284 2140.08 213.284 Q2143.62 213.284 2145.75 210.784 Q2147.9 208.261 2147.9 204.094 L2147.9 203.145 L2143.67 203.145 M2152.16 201.386 L2152.16 216.178 L2147.9 216.178 L2147.9 212.242 Q2146.45 214.603 2144.27 215.738 Q2142.09 216.849 2138.95 216.849 Q2134.96 216.849 2132.6 214.627 Q2130.26 212.381 2130.26 208.631 Q2130.26 204.256 2133.18 202.034 Q2136.12 199.812 2141.93 199.812 L2147.9 199.812 L2147.9 199.395 Q2147.9 196.455 2145.96 194.858 Q2144.04 193.238 2140.54 193.238 Q2138.32 193.238 2136.21 193.77 Q2134.11 194.303 2132.16 195.367 L2132.16 191.432 Q2134.5 190.53 2136.7 190.09 Q2138.9 189.627 2140.98 189.627 Q2146.61 189.627 2149.39 192.543 Q2152.16 195.46 2152.16 201.386 Z" fill="#000000" fill-rule="nonzero" fill-opacity="1" /><path clip-path="url(#clip680)" d="M2165.15 182.891 L2165.15 190.252 L2173.92 190.252 L2173.92 193.562 L2165.15 193.562 L2165.15 207.636 Q2165.15 210.807 2166.01 211.71 Q2166.88 212.613 2169.55 212.613 L2173.92 212.613 L2173.92 216.178 L2169.55 216.178 Q2164.62 216.178 2162.74 214.349 Q2160.87 212.497 2160.87 207.636 L2160.87 193.562 L2157.74 193.562 L2157.74 190.252 L2160.87 190.252 L2160.87 182.891 L2165.15 182.891 Z" fill="#000000" fill-rule="nonzero" fill-opacity="1" /><path clip-path="url(#clip680)" d="M2189.57 193.238 Q2186.14 193.238 2184.15 195.923 Q2182.16 198.585 2182.16 203.238 Q2182.16 207.891 2184.13 210.576 Q2186.12 213.238 2189.57 213.238 Q2192.97 213.238 2194.96 210.553 Q2196.95 207.867 2196.95 203.238 Q2196.95 198.631 2194.96 195.946 Q2192.97 193.238 2189.57 193.238 M2189.57 189.627 Q2195.13 189.627 2198.3 193.238 Q2201.47 196.849 2201.47 203.238 Q2201.47 209.604 2198.3 213.238 Q2195.13 216.849 2189.57 216.849 Q2183.99 216.849 2180.82 213.238 Q2177.67 209.604 2177.67 203.238 Q2177.67 196.849 2180.82 193.238 Q2183.99 189.627 2189.57 189.627 Z" fill="#000000" fill-rule="nonzero" fill-opacity="1" /><path clip-path="url(#clip680)" d="M2223.55 194.233 Q2222.83 193.817 2221.98 193.631 Q2221.14 193.423 2220.13 193.423 Q2216.51 193.423 2214.57 195.784 Q2212.65 198.122 2212.65 202.52 L2212.65 216.178 L2208.37 216.178 L2208.37 190.252 L2212.65 190.252 L2212.65 194.28 Q2213.99 191.918 2216.14 190.784 Q2218.3 189.627 2221.38 189.627 Q2221.82 189.627 2222.35 189.696 Q2222.88 189.743 2223.53 189.858 L2223.55 194.233 Z" fill="#000000" fill-rule="nonzero" fill-opacity="1" /><path clip-path="url(#clip680)" d="M2238.25 180.206 Q2235.15 185.53 2233.64 190.738 Q2232.14 195.946 2232.14 201.293 Q2232.14 206.641 2233.64 211.895 Q2235.17 217.127 2238.25 222.428 L2234.55 222.428 Q2231.07 216.988 2229.34 211.733 Q2227.63 206.479 2227.63 201.293 Q2227.63 196.131 2229.34 190.9 Q2231.05 185.668 2234.55 180.206 L2238.25 180.206 Z" fill="#000000" fill-rule="nonzero" fill-opacity="1" /><path clip-path="url(#clip680)" d="M2245.84 180.206 L2249.55 180.206 Q2253.02 185.668 2254.73 190.9 Q2256.47 196.131 2256.47 201.293 Q2256.47 206.479 2254.73 211.733 Q2253.02 216.988 2249.55 222.428 L2245.84 222.428 Q2248.92 217.127 2250.43 211.895 Q2251.95 206.641 2251.95 201.293 Q2251.95 195.946 2250.43 190.738 Q2248.92 185.53 2245.84 180.206 Z" fill="#000000" fill-rule="nonzero" fill-opacity="1" /><polyline clip-path="url(#clip680)" style="stroke:#3da44d; stroke-linecap:round; stroke-linejoin:round; stroke-width:4; stroke-opacity:1; fill:none" points="1518.48,250.738 1662.91,250.738 "/>
<path clip-path="url(#clip680)" d="M1714.85 236.12 L1714.85 241.05 Q1712.49 238.851 1709.8 237.763 Q1707.14 236.675 1704.13 236.675 Q1698.21 236.675 1695.06 240.309 Q1691.91 243.92 1691.91 250.772 Q1691.91 257.601 1695.06 261.235 Q1698.21 264.846 1704.13 264.846 Q1707.14 264.846 1709.8 263.758 Q1712.49 262.67 1714.85 260.471 L1714.85 265.356 Q1712.4 267.022 1709.64 267.856 Q1706.91 268.689 1703.86 268.689 Q1696.01 268.689 1691.49 263.897 Q1686.98 259.082 1686.98 250.772 Q1686.98 242.439 1691.49 237.647 Q1696.01 232.833 1703.86 232.833 Q1706.96 232.833 1709.69 233.666 Q1712.44 234.476 1714.85 236.12 Z" fill="#000000" fill-rule="nonzero" fill-opacity="1" /><path clip-path="url(#clip680)" d="M1721.89 231.999 L1726.15 231.999 L1726.15 268.018 L1721.89 268.018 L1721.89 231.999 Z" fill="#000000" fill-rule="nonzero" fill-opacity="1" /><path clip-path="url(#clip680)" d="M1746.84 254.985 Q1741.68 254.985 1739.69 256.166 Q1737.7 257.346 1737.7 260.194 Q1737.7 262.462 1739.18 263.805 Q1740.68 265.124 1743.25 265.124 Q1746.79 265.124 1748.92 262.624 Q1751.08 260.101 1751.08 255.934 L1751.08 254.985 L1746.84 254.985 M1755.34 253.226 L1755.34 268.018 L1751.08 268.018 L1751.08 264.082 Q1749.62 266.443 1747.44 267.578 Q1745.27 268.689 1742.12 268.689 Q1738.14 268.689 1735.78 266.467 Q1733.44 264.221 1733.44 260.471 Q1733.44 256.096 1736.35 253.874 Q1739.29 251.652 1745.1 251.652 L1751.08 251.652 L1751.08 251.235 Q1751.08 248.295 1749.13 246.698 Q1747.21 245.078 1743.72 245.078 Q1741.49 245.078 1739.39 245.61 Q1737.28 246.143 1735.34 247.207 L1735.34 243.272 Q1737.67 242.37 1739.87 241.93 Q1742.07 241.467 1744.16 241.467 Q1749.78 241.467 1752.56 244.383 Q1755.34 247.3 1755.34 253.226 Z" fill="#000000" fill-rule="nonzero" fill-opacity="1" /><path clip-path="url(#clip680)" d="M1774.9 270.425 Q1773.09 275.055 1771.38 276.467 Q1769.66 277.879 1766.79 277.879 L1763.39 277.879 L1763.39 274.314 L1765.89 274.314 Q1767.65 274.314 1768.62 273.48 Q1769.6 272.647 1770.78 269.545 L1771.54 267.601 L1761.05 242.092 L1765.57 242.092 L1773.67 262.369 L1781.77 242.092 L1786.29 242.092 L1774.9 270.425 Z" fill="#000000" fill-rule="nonzero" fill-opacity="1" /><path clip-path="url(#clip680)" d="M1796.38 234.731 L1796.38 242.092 L1805.15 242.092 L1805.15 245.402 L1796.38 245.402 L1796.38 259.476 Q1796.38 262.647 1797.23 263.55 Q1798.11 264.453 1800.78 264.453 L1805.15 264.453 L1805.15 268.018 L1800.78 268.018 Q1795.85 268.018 1793.97 266.189 Q1792.1 264.337 1792.1 259.476 L1792.1 245.402 L1788.97 245.402 L1788.97 242.092 L1792.1 242.092 L1792.1 234.731 L1796.38 234.731 Z" fill="#000000" fill-rule="nonzero" fill-opacity="1" /><path clip-path="url(#clip680)" d="M1820.8 245.078 Q1817.37 245.078 1815.38 247.763 Q1813.39 250.425 1813.39 255.078 Q1813.39 259.731 1815.36 262.416 Q1817.35 265.078 1820.8 265.078 Q1824.2 265.078 1826.19 262.393 Q1828.18 259.707 1828.18 255.078 Q1828.18 250.471 1826.19 247.786 Q1824.2 245.078 1820.8 245.078 M1820.8 241.467 Q1826.35 241.467 1829.53 245.078 Q1832.7 248.689 1832.7 255.078 Q1832.7 261.444 1829.53 265.078 Q1826.35 268.689 1820.8 268.689 Q1815.22 268.689 1812.05 265.078 Q1808.9 261.444 1808.9 255.078 Q1808.9 248.689 1812.05 245.078 Q1815.22 241.467 1820.8 241.467 Z" fill="#000000" fill-rule="nonzero" fill-opacity="1" /><path clip-path="url(#clip680)" d="M1861.31 252.369 L1861.31 268.018 L1857.05 268.018 L1857.05 252.508 Q1857.05 248.828 1855.61 246.999 Q1854.18 245.17 1851.31 245.17 Q1847.86 245.17 1845.87 247.37 Q1843.88 249.569 1843.88 253.365 L1843.88 268.018 L1839.6 268.018 L1839.6 242.092 L1843.88 242.092 L1843.88 246.12 Q1845.41 243.782 1847.47 242.624 Q1849.55 241.467 1852.26 241.467 Q1856.72 241.467 1859.02 244.245 Q1861.31 246.999 1861.31 252.369 Z" fill="#000000" fill-rule="nonzero" fill-opacity="1" /><path clip-path="url(#clip680)" d="M1893.55 263.087 L1893.55 253.805 L1885.91 253.805 L1885.91 249.962 L1898.18 249.962 L1898.18 264.8 Q1895.47 266.721 1892.21 267.717 Q1888.95 268.689 1885.24 268.689 Q1877.14 268.689 1872.56 263.967 Q1868 259.221 1868 250.772 Q1868 242.3 1872.56 237.578 Q1877.14 232.833 1885.24 232.833 Q1888.62 232.833 1891.65 233.666 Q1894.71 234.499 1897.28 236.12 L1897.28 241.096 Q1894.69 238.897 1891.77 237.786 Q1888.85 236.675 1885.64 236.675 Q1879.29 236.675 1876.1 240.217 Q1872.93 243.758 1872.93 250.772 Q1872.93 257.763 1876.1 261.305 Q1879.29 264.846 1885.64 264.846 Q1888.11 264.846 1890.06 264.43 Q1892 263.99 1893.55 263.087 Z" fill="#000000" fill-rule="nonzero" fill-opacity="1" /><path clip-path="url(#clip680)" d="M1928.71 253.99 L1928.71 256.073 L1909.13 256.073 Q1909.41 260.471 1911.77 262.786 Q1914.15 265.078 1918.39 265.078 Q1920.84 265.078 1923.14 264.476 Q1925.45 263.874 1927.72 262.67 L1927.72 266.698 Q1925.43 267.67 1923.02 268.18 Q1920.61 268.689 1918.14 268.689 Q1911.93 268.689 1908.3 265.078 Q1904.69 261.467 1904.69 255.309 Q1904.69 248.944 1908.11 245.217 Q1911.56 241.467 1917.4 241.467 Q1922.63 241.467 1925.66 244.846 Q1928.71 248.203 1928.71 253.99 M1924.46 252.74 Q1924.41 249.245 1922.49 247.161 Q1920.59 245.078 1917.44 245.078 Q1913.88 245.078 1911.72 247.092 Q1909.59 249.106 1909.27 252.763 L1924.46 252.74 Z" fill="#000000" fill-rule="nonzero" fill-opacity="1" /><path clip-path="url(#clip680)" d="M1957.26 252.369 L1957.26 268.018 L1953 268.018 L1953 252.508 Q1953 248.828 1951.56 246.999 Q1950.13 245.17 1947.26 245.17 Q1943.81 245.17 1941.82 247.37 Q1939.83 249.569 1939.83 253.365 L1939.83 268.018 L1935.54 268.018 L1935.54 242.092 L1939.83 242.092 L1939.83 246.12 Q1941.35 243.782 1943.41 242.624 Q1945.5 241.467 1948.21 241.467 Q1952.67 241.467 1954.96 244.245 Q1957.26 246.999 1957.26 252.369 Z" fill="#000000" fill-rule="nonzero" fill-opacity="1" /><path clip-path="url(#clip680)" d="M1987.93 253.99 L1987.93 256.073 L1968.34 256.073 Q1968.62 260.471 1970.98 262.786 Q1973.37 265.078 1977.6 265.078 Q1980.06 265.078 1982.35 264.476 Q1984.66 263.874 1986.93 262.67 L1986.93 266.698 Q1984.64 267.67 1982.23 268.18 Q1979.83 268.689 1977.35 268.689 Q1971.15 268.689 1967.51 265.078 Q1963.9 261.467 1963.9 255.309 Q1963.9 248.944 1967.33 245.217 Q1970.77 241.467 1976.61 241.467 Q1981.84 241.467 1984.87 244.846 Q1987.93 248.203 1987.93 253.99 M1983.67 252.74 Q1983.62 249.245 1981.7 247.161 Q1979.8 245.078 1976.65 245.078 Q1973.09 245.078 1970.94 247.092 Q1968.81 249.106 1968.48 252.763 L1983.67 252.74 Z" fill="#000000" fill-rule="nonzero" fill-opacity="1" /><path clip-path="url(#clip680)" d="M2009.94 246.073 Q2009.22 245.657 2008.37 245.471 Q2007.53 245.263 2006.52 245.263 Q2002.9 245.263 2000.96 247.624 Q1999.04 249.962 1999.04 254.36 L1999.04 268.018 L1994.76 268.018 L1994.76 242.092 L1999.04 242.092 L1999.04 246.12 Q2000.38 243.758 2002.53 242.624 Q2004.69 241.467 2007.77 241.467 Q2008.21 241.467 2008.74 241.536 Q2009.27 241.583 2009.92 241.698 L2009.94 246.073 Z" fill="#000000" fill-rule="nonzero" fill-opacity="1" /><path clip-path="url(#clip680)" d="M2026.19 254.985 Q2021.03 254.985 2019.04 256.166 Q2017.05 257.346 2017.05 260.194 Q2017.05 262.462 2018.53 263.805 Q2020.03 265.124 2022.6 265.124 Q2026.14 265.124 2028.27 262.624 Q2030.43 260.101 2030.43 255.934 L2030.43 254.985 L2026.19 254.985 M2034.69 253.226 L2034.69 268.018 L2030.43 268.018 L2030.43 264.082 Q2028.97 266.443 2026.79 267.578 Q2024.62 268.689 2021.47 268.689 Q2017.49 268.689 2015.13 266.467 Q2012.79 264.221 2012.79 260.471 Q2012.79 256.096 2015.71 253.874 Q2018.65 251.652 2024.46 251.652 L2030.43 251.652 L2030.43 251.235 Q2030.43 248.295 2028.48 246.698 Q2026.56 245.078 2023.07 245.078 Q2020.84 245.078 2018.74 245.61 Q2016.63 246.143 2014.69 247.207 L2014.69 243.272 Q2017.02 242.37 2019.22 241.93 Q2021.42 241.467 2023.51 241.467 Q2029.13 241.467 2031.91 244.383 Q2034.69 247.3 2034.69 253.226 Z" fill="#000000" fill-rule="nonzero" fill-opacity="1" /><path clip-path="url(#clip680)" d="M2047.67 234.731 L2047.67 242.092 L2056.45 242.092 L2056.45 245.402 L2047.67 245.402 L2047.67 259.476 Q2047.67 262.647 2048.53 263.55 Q2049.41 264.453 2052.07 264.453 L2056.45 264.453 L2056.45 268.018 L2052.07 268.018 Q2047.14 268.018 2045.27 266.189 Q2043.39 264.337 2043.39 259.476 L2043.39 245.402 L2040.27 245.402 L2040.27 242.092 L2043.39 242.092 L2043.39 234.731 L2047.67 234.731 Z" fill="#000000" fill-rule="nonzero" fill-opacity="1" /><path clip-path="url(#clip680)" d="M2072.09 245.078 Q2068.67 245.078 2066.68 247.763 Q2064.69 250.425 2064.69 255.078 Q2064.69 259.731 2066.65 262.416 Q2068.64 265.078 2072.09 265.078 Q2075.5 265.078 2077.49 262.393 Q2079.48 259.707 2079.48 255.078 Q2079.48 250.471 2077.49 247.786 Q2075.5 245.078 2072.09 245.078 M2072.09 241.467 Q2077.65 241.467 2080.82 245.078 Q2083.99 248.689 2083.99 255.078 Q2083.99 261.444 2080.82 265.078 Q2077.65 268.689 2072.09 268.689 Q2066.52 268.689 2063.34 265.078 Q2060.2 261.444 2060.2 255.078 Q2060.2 248.689 2063.34 245.078 Q2066.52 241.467 2072.09 241.467 Z" fill="#000000" fill-rule="nonzero" fill-opacity="1" /><path clip-path="url(#clip680)" d="M2106.08 246.073 Q2105.36 245.657 2104.5 245.471 Q2103.67 245.263 2102.65 245.263 Q2099.04 245.263 2097.09 247.624 Q2095.17 249.962 2095.17 254.36 L2095.17 268.018 L2090.89 268.018 L2090.89 242.092 L2095.17 242.092 L2095.17 246.12 Q2096.51 243.758 2098.67 242.624 Q2100.82 241.467 2103.9 241.467 Q2104.34 241.467 2104.87 241.536 Q2105.4 241.583 2106.05 241.698 L2106.08 246.073 Z" fill="#000000" fill-rule="nonzero" fill-opacity="1" /><path clip-path="url(#clip680)" d="M2120.77 232.046 Q2117.67 237.37 2116.17 242.578 Q2114.66 247.786 2114.66 253.133 Q2114.66 258.481 2116.17 263.735 Q2117.7 268.967 2120.77 274.268 L2117.07 274.268 Q2113.6 268.828 2111.86 263.573 Q2110.15 258.319 2110.15 253.133 Q2110.15 247.971 2111.86 242.74 Q2113.58 237.508 2117.07 232.046 L2120.77 232.046 Z" fill="#000000" fill-rule="nonzero" fill-opacity="1" /><path clip-path="url(#clip680)" d="M2139.64 236.536 Q2136.03 236.536 2134.2 240.101 Q2132.39 243.643 2132.39 250.772 Q2132.39 257.879 2134.2 261.444 Q2136.03 264.985 2139.64 264.985 Q2143.27 264.985 2145.08 261.444 Q2146.91 257.879 2146.91 250.772 Q2146.91 243.643 2145.08 240.101 Q2143.27 236.536 2139.64 236.536 M2139.64 232.833 Q2145.45 232.833 2148.51 237.439 Q2151.58 242.022 2151.58 250.772 Q2151.58 259.499 2148.51 264.106 Q2145.45 268.689 2139.64 268.689 Q2133.83 268.689 2130.75 264.106 Q2127.7 259.499 2127.7 250.772 Q2127.7 242.022 2130.75 237.439 Q2133.83 232.833 2139.64 232.833 Z" fill="#000000" fill-rule="nonzero" fill-opacity="1" /><path clip-path="url(#clip680)" d="M2159.8 262.138 L2164.69 262.138 L2164.69 268.018 L2159.8 268.018 L2159.8 262.138 Z" fill="#000000" fill-rule="nonzero" fill-opacity="1" /><path clip-path="url(#clip680)" d="M2174.92 233.458 L2193.27 233.458 L2193.27 237.393 L2179.2 237.393 L2179.2 245.865 Q2180.22 245.518 2181.24 245.356 Q2182.26 245.17 2183.27 245.17 Q2189.06 245.17 2192.44 248.342 Q2195.82 251.513 2195.82 256.93 Q2195.82 262.508 2192.35 265.61 Q2188.88 268.689 2182.56 268.689 Q2180.38 268.689 2178.11 268.318 Q2175.87 267.948 2173.46 267.207 L2173.46 262.508 Q2175.54 263.643 2177.76 264.198 Q2179.99 264.754 2182.46 264.754 Q2186.47 264.754 2188.81 262.647 Q2191.14 260.541 2191.14 256.93 Q2191.14 253.319 2188.81 251.212 Q2186.47 249.106 2182.46 249.106 Q2180.59 249.106 2178.71 249.522 Q2176.86 249.939 2174.92 250.819 L2174.92 233.458 Z" fill="#000000" fill-rule="nonzero" fill-opacity="1" /><path clip-path="url(#clip680)" d="M2203.76 232.046 L2207.46 232.046 Q2210.94 237.508 2212.65 242.74 Q2214.38 247.971 2214.38 253.133 Q2214.38 258.319 2212.65 263.573 Q2210.94 268.828 2207.46 274.268 L2203.76 274.268 Q2206.84 268.967 2208.34 263.735 Q2209.87 258.481 2209.87 253.133 Q2209.87 247.786 2208.34 242.578 Q2206.84 237.37 2203.76 232.046 Z" fill="#000000" fill-rule="nonzero" fill-opacity="1" /><polyline clip-path="url(#clip680)" style="stroke:#c271d2; stroke-linecap:round; stroke-linejoin:round; stroke-width:4; stroke-opacity:1; fill:none" points="1518.48,302.578 1662.91,302.578 "/>
<path clip-path="url(#clip680)" d="M1714.85 287.96 L1714.85 292.89 Q1712.49 290.691 1709.8 289.603 Q1707.14 288.515 1704.13 288.515 Q1698.21 288.515 1695.06 292.149 Q1691.91 295.76 1691.91 302.612 Q1691.91 309.441 1695.06 313.075 Q1698.21 316.686 1704.13 316.686 Q1707.14 316.686 1709.8 315.598 Q1712.49 314.51 1714.85 312.311 L1714.85 317.196 Q1712.4 318.862 1709.64 319.696 Q1706.91 320.529 1703.86 320.529 Q1696.01 320.529 1691.49 315.737 Q1686.98 310.922 1686.98 302.612 Q1686.98 294.279 1691.49 289.487 Q1696.01 284.673 1703.86 284.673 Q1706.96 284.673 1709.69 285.506 Q1712.44 286.316 1714.85 287.96 Z" fill="#000000" fill-rule="nonzero" fill-opacity="1" /><path clip-path="url(#clip680)" d="M1721.89 283.839 L1726.15 283.839 L1726.15 319.858 L1721.89 319.858 L1721.89 283.839 Z" fill="#000000" fill-rule="nonzero" fill-opacity="1" /><path clip-path="url(#clip680)" d="M1746.84 306.825 Q1741.68 306.825 1739.69 308.006 Q1737.7 309.186 1737.7 312.034 Q1737.7 314.302 1739.18 315.645 Q1740.68 316.964 1743.25 316.964 Q1746.79 316.964 1748.92 314.464 Q1751.08 311.941 1751.08 307.774 L1751.08 306.825 L1746.84 306.825 M1755.34 305.066 L1755.34 319.858 L1751.08 319.858 L1751.08 315.922 Q1749.62 318.283 1747.44 319.418 Q1745.27 320.529 1742.12 320.529 Q1738.14 320.529 1735.78 318.307 Q1733.44 316.061 1733.44 312.311 Q1733.44 307.936 1736.35 305.714 Q1739.29 303.492 1745.1 303.492 L1751.08 303.492 L1751.08 303.075 Q1751.08 300.135 1749.13 298.538 Q1747.21 296.918 1743.72 296.918 Q1741.49 296.918 1739.39 297.45 Q1737.28 297.983 1735.34 299.047 L1735.34 295.112 Q1737.67 294.21 1739.87 293.77 Q1742.07 293.307 1744.16 293.307 Q1749.78 293.307 1752.56 296.223 Q1755.34 299.14 1755.34 305.066 Z" fill="#000000" fill-rule="nonzero" fill-opacity="1" /><path clip-path="url(#clip680)" d="M1774.9 322.265 Q1773.09 326.895 1771.38 328.307 Q1769.66 329.719 1766.79 329.719 L1763.39 329.719 L1763.39 326.154 L1765.89 326.154 Q1767.65 326.154 1768.62 325.32 Q1769.6 324.487 1770.78 321.385 L1771.54 319.441 L1761.05 293.932 L1765.57 293.932 L1773.67 314.209 L1781.77 293.932 L1786.29 293.932 L1774.9 322.265 Z" fill="#000000" fill-rule="nonzero" fill-opacity="1" /><path clip-path="url(#clip680)" d="M1796.38 286.571 L1796.38 293.932 L1805.15 293.932 L1805.15 297.242 L1796.38 297.242 L1796.38 311.316 Q1796.38 314.487 1797.23 315.39 Q1798.11 316.293 1800.78 316.293 L1805.15 316.293 L1805.15 319.858 L1800.78 319.858 Q1795.85 319.858 1793.97 318.029 Q1792.1 316.177 1792.1 311.316 L1792.1 297.242 L1788.97 297.242 L1788.97 293.932 L1792.1 293.932 L1792.1 286.571 L1796.38 286.571 Z" fill="#000000" fill-rule="nonzero" fill-opacity="1" /><path clip-path="url(#clip680)" d="M1820.8 296.918 Q1817.37 296.918 1815.38 299.603 Q1813.39 302.265 1813.39 306.918 Q1813.39 311.571 1815.36 314.256 Q1817.35 316.918 1820.8 316.918 Q1824.2 316.918 1826.19 314.233 Q1828.18 311.547 1828.18 306.918 Q1828.18 302.311 1826.19 299.626 Q1824.2 296.918 1820.8 296.918 M1820.8 293.307 Q1826.35 293.307 1829.53 296.918 Q1832.7 300.529 1832.7 306.918 Q1832.7 313.284 1829.53 316.918 Q1826.35 320.529 1820.8 320.529 Q1815.22 320.529 1812.05 316.918 Q1808.9 313.284 1808.9 306.918 Q1808.9 300.529 1812.05 296.918 Q1815.22 293.307 1820.8 293.307 Z" fill="#000000" fill-rule="nonzero" fill-opacity="1" /><path clip-path="url(#clip680)" d="M1861.31 304.209 L1861.31 319.858 L1857.05 319.858 L1857.05 304.348 Q1857.05 300.668 1855.61 298.839 Q1854.18 297.01 1851.31 297.01 Q1847.86 297.01 1845.87 299.21 Q1843.88 301.409 1843.88 305.205 L1843.88 319.858 L1839.6 319.858 L1839.6 293.932 L1843.88 293.932 L1843.88 297.96 Q1845.41 295.622 1847.47 294.464 Q1849.55 293.307 1852.26 293.307 Q1856.72 293.307 1859.02 296.085 Q1861.31 298.839 1861.31 304.209 Z" fill="#000000" fill-rule="nonzero" fill-opacity="1" /><path clip-path="url(#clip680)" d="M1893.55 314.927 L1893.55 305.645 L1885.91 305.645 L1885.91 301.802 L1898.18 301.802 L1898.18 316.64 Q1895.47 318.561 1892.21 319.557 Q1888.95 320.529 1885.24 320.529 Q1877.14 320.529 1872.56 315.807 Q1868 311.061 1868 302.612 Q1868 294.14 1872.56 289.418 Q1877.14 284.673 1885.24 284.673 Q1888.62 284.673 1891.65 285.506 Q1894.71 286.339 1897.28 287.96 L1897.28 292.936 Q1894.69 290.737 1891.77 289.626 Q1888.85 288.515 1885.64 288.515 Q1879.29 288.515 1876.1 292.057 Q1872.93 295.598 1872.93 302.612 Q1872.93 309.603 1876.1 313.145 Q1879.29 316.686 1885.64 316.686 Q1888.11 316.686 1890.06 316.27 Q1892 315.83 1893.55 314.927 Z" fill="#000000" fill-rule="nonzero" fill-opacity="1" /><path clip-path="url(#clip680)" d="M1928.71 305.83 L1928.71 307.913 L1909.13 307.913 Q1909.41 312.311 1911.77 314.626 Q1914.15 316.918 1918.39 316.918 Q1920.84 316.918 1923.14 316.316 Q1925.45 315.714 1927.72 314.51 L1927.72 318.538 Q1925.43 319.51 1923.02 320.02 Q1920.61 320.529 1918.14 320.529 Q1911.93 320.529 1908.3 316.918 Q1904.69 313.307 1904.69 307.149 Q1904.69 300.784 1908.11 297.057 Q1911.56 293.307 1917.4 293.307 Q1922.63 293.307 1925.66 296.686 Q1928.71 300.043 1928.71 305.83 M1924.46 304.58 Q1924.41 301.085 1922.49 299.001 Q1920.59 296.918 1917.44 296.918 Q1913.88 296.918 1911.72 298.932 Q1909.59 300.946 1909.27 304.603 L1924.46 304.58 Z" fill="#000000" fill-rule="nonzero" fill-opacity="1" /><path clip-path="url(#clip680)" d="M1957.26 304.209 L1957.26 319.858 L1953 319.858 L1953 304.348 Q1953 300.668 1951.56 298.839 Q1950.13 297.01 1947.26 297.01 Q1943.81 297.01 1941.82 299.21 Q1939.83 301.409 1939.83 305.205 L1939.83 319.858 L1935.54 319.858 L1935.54 293.932 L1939.83 293.932 L1939.83 297.96 Q1941.35 295.622 1943.41 294.464 Q1945.5 293.307 1948.21 293.307 Q1952.67 293.307 1954.96 296.085 Q1957.26 298.839 1957.26 304.209 Z" fill="#000000" fill-rule="nonzero" fill-opacity="1" /><path clip-path="url(#clip680)" d="M1987.93 305.83 L1987.93 307.913 L1968.34 307.913 Q1968.62 312.311 1970.98 314.626 Q1973.37 316.918 1977.6 316.918 Q1980.06 316.918 1982.35 316.316 Q1984.66 315.714 1986.93 314.51 L1986.93 318.538 Q1984.64 319.51 1982.23 320.02 Q1979.83 320.529 1977.35 320.529 Q1971.15 320.529 1967.51 316.918 Q1963.9 313.307 1963.9 307.149 Q1963.9 300.784 1967.33 297.057 Q1970.77 293.307 1976.61 293.307 Q1981.84 293.307 1984.87 296.686 Q1987.93 300.043 1987.93 305.83 M1983.67 304.58 Q1983.62 301.085 1981.7 299.001 Q1979.8 296.918 1976.65 296.918 Q1973.09 296.918 1970.94 298.932 Q1968.81 300.946 1968.48 304.603 L1983.67 304.58 Z" fill="#000000" fill-rule="nonzero" fill-opacity="1" /><path clip-path="url(#clip680)" d="M2009.94 297.913 Q2009.22 297.497 2008.37 297.311 Q2007.53 297.103 2006.52 297.103 Q2002.9 297.103 2000.96 299.464 Q1999.04 301.802 1999.04 306.2 L1999.04 319.858 L1994.76 319.858 L1994.76 293.932 L1999.04 293.932 L1999.04 297.96 Q2000.38 295.598 2002.53 294.464 Q2004.69 293.307 2007.77 293.307 Q2008.21 293.307 2008.74 293.376 Q2009.27 293.423 2009.92 293.538 L2009.94 297.913 Z" fill="#000000" fill-rule="nonzero" fill-opacity="1" /><path clip-path="url(#clip680)" d="M2026.19 306.825 Q2021.03 306.825 2019.04 308.006 Q2017.05 309.186 2017.05 312.034 Q2017.05 314.302 2018.53 315.645 Q2020.03 316.964 2022.6 316.964 Q2026.14 316.964 2028.27 314.464 Q2030.43 311.941 2030.43 307.774 L2030.43 306.825 L2026.19 306.825 M2034.69 305.066 L2034.69 319.858 L2030.43 319.858 L2030.43 315.922 Q2028.97 318.283 2026.79 319.418 Q2024.62 320.529 2021.47 320.529 Q2017.49 320.529 2015.13 318.307 Q2012.79 316.061 2012.79 312.311 Q2012.79 307.936 2015.71 305.714 Q2018.65 303.492 2024.46 303.492 L2030.43 303.492 L2030.43 303.075 Q2030.43 300.135 2028.48 298.538 Q2026.56 296.918 2023.07 296.918 Q2020.84 296.918 2018.74 297.45 Q2016.63 297.983 2014.69 299.047 L2014.69 295.112 Q2017.02 294.21 2019.22 293.77 Q2021.42 293.307 2023.51 293.307 Q2029.13 293.307 2031.91 296.223 Q2034.69 299.14 2034.69 305.066 Z" fill="#000000" fill-rule="nonzero" fill-opacity="1" /><path clip-path="url(#clip680)" d="M2047.67 286.571 L2047.67 293.932 L2056.45 293.932 L2056.45 297.242 L2047.67 297.242 L2047.67 311.316 Q2047.67 314.487 2048.53 315.39 Q2049.41 316.293 2052.07 316.293 L2056.45 316.293 L2056.45 319.858 L2052.07 319.858 Q2047.14 319.858 2045.27 318.029 Q2043.39 316.177 2043.39 311.316 L2043.39 297.242 L2040.27 297.242 L2040.27 293.932 L2043.39 293.932 L2043.39 286.571 L2047.67 286.571 Z" fill="#000000" fill-rule="nonzero" fill-opacity="1" /><path clip-path="url(#clip680)" d="M2072.09 296.918 Q2068.67 296.918 2066.68 299.603 Q2064.69 302.265 2064.69 306.918 Q2064.69 311.571 2066.65 314.256 Q2068.64 316.918 2072.09 316.918 Q2075.5 316.918 2077.49 314.233 Q2079.48 311.547 2079.48 306.918 Q2079.48 302.311 2077.49 299.626 Q2075.5 296.918 2072.09 296.918 M2072.09 293.307 Q2077.65 293.307 2080.82 296.918 Q2083.99 300.529 2083.99 306.918 Q2083.99 313.284 2080.82 316.918 Q2077.65 320.529 2072.09 320.529 Q2066.52 320.529 2063.34 316.918 Q2060.2 313.284 2060.2 306.918 Q2060.2 300.529 2063.34 296.918 Q2066.52 293.307 2072.09 293.307 Z" fill="#000000" fill-rule="nonzero" fill-opacity="1" /><path clip-path="url(#clip680)" d="M2106.08 297.913 Q2105.36 297.497 2104.5 297.311 Q2103.67 297.103 2102.65 297.103 Q2099.04 297.103 2097.09 299.464 Q2095.17 301.802 2095.17 306.2 L2095.17 319.858 L2090.89 319.858 L2090.89 293.932 L2095.17 293.932 L2095.17 297.96 Q2096.51 295.598 2098.67 294.464 Q2100.82 293.307 2103.9 293.307 Q2104.34 293.307 2104.87 293.376 Q2105.4 293.423 2106.05 293.538 L2106.08 297.913 Z" fill="#000000" fill-rule="nonzero" fill-opacity="1" /><path clip-path="url(#clip680)" d="M2120.77 283.886 Q2117.67 289.21 2116.17 294.418 Q2114.66 299.626 2114.66 304.973 Q2114.66 310.321 2116.17 315.575 Q2117.7 320.807 2120.77 326.108 L2117.07 326.108 Q2113.6 320.668 2111.86 315.413 Q2110.15 310.159 2110.15 304.973 Q2110.15 299.811 2111.86 294.58 Q2113.58 289.348 2117.07 283.886 L2120.77 283.886 Z" fill="#000000" fill-rule="nonzero" fill-opacity="1" /><path clip-path="url(#clip680)" d="M2130.45 315.922 L2138.09 315.922 L2138.09 289.557 L2129.78 291.223 L2129.78 286.964 L2138.04 285.298 L2142.72 285.298 L2142.72 315.922 L2150.36 315.922 L2150.36 319.858 L2130.45 319.858 L2130.45 315.922 Z" fill="#000000" fill-rule="nonzero" fill-opacity="1" /><path clip-path="url(#clip680)" d="M2158.53 283.886 L2162.23 283.886 Q2165.7 289.348 2167.42 294.58 Q2169.15 299.811 2169.15 304.973 Q2169.15 310.159 2167.42 315.413 Q2165.7 320.668 2162.23 326.108 L2158.53 326.108 Q2161.61 320.807 2163.11 315.575 Q2164.64 310.321 2164.64 304.973 Q2164.64 299.626 2163.11 294.418 Q2161.61 289.21 2158.53 283.886 Z" fill="#000000" fill-rule="nonzero" fill-opacity="1" /><polyline clip-path="url(#clip680)" style="stroke:#ac8d18; stroke-linecap:round; stroke-linejoin:round; stroke-width:4; stroke-opacity:1; fill:none" points="1518.48,354.418 1662.91,354.418 "/>
<path clip-path="url(#clip680)" d="M1714.85 339.8 L1714.85 344.73 Q1712.49 342.531 1709.8 341.443 Q1707.14 340.355 1704.13 340.355 Q1698.21 340.355 1695.06 343.989 Q1691.91 347.6 1691.91 354.452 Q1691.91 361.281 1695.06 364.915 Q1698.21 368.526 1704.13 368.526 Q1707.14 368.526 1709.8 367.438 Q1712.49 366.35 1714.85 364.151 L1714.85 369.036 Q1712.4 370.702 1709.64 371.536 Q1706.91 372.369 1703.86 372.369 Q1696.01 372.369 1691.49 367.577 Q1686.98 362.762 1686.98 354.452 Q1686.98 346.119 1691.49 341.327 Q1696.01 336.513 1703.86 336.513 Q1706.96 336.513 1709.69 337.346 Q1712.44 338.156 1714.85 339.8 Z" fill="#000000" fill-rule="nonzero" fill-opacity="1" /><path clip-path="url(#clip680)" d="M1721.89 335.679 L1726.15 335.679 L1726.15 371.698 L1721.89 371.698 L1721.89 335.679 Z" fill="#000000" fill-rule="nonzero" fill-opacity="1" /><path clip-path="url(#clip680)" d="M1746.84 358.665 Q1741.68 358.665 1739.69 359.846 Q1737.7 361.026 1737.7 363.874 Q1737.7 366.142 1739.18 367.485 Q1740.68 368.804 1743.25 368.804 Q1746.79 368.804 1748.92 366.304 Q1751.08 363.781 1751.08 359.614 L1751.08 358.665 L1746.84 358.665 M1755.34 356.906 L1755.34 371.698 L1751.08 371.698 L1751.08 367.762 Q1749.62 370.123 1747.44 371.258 Q1745.27 372.369 1742.12 372.369 Q1738.14 372.369 1735.78 370.147 Q1733.44 367.901 1733.44 364.151 Q1733.44 359.776 1736.35 357.554 Q1739.29 355.332 1745.1 355.332 L1751.08 355.332 L1751.08 354.915 Q1751.08 351.975 1749.13 350.378 Q1747.21 348.758 1743.72 348.758 Q1741.49 348.758 1739.39 349.29 Q1737.28 349.823 1735.34 350.887 L1735.34 346.952 Q1737.67 346.05 1739.87 345.61 Q1742.07 345.147 1744.16 345.147 Q1749.78 345.147 1752.56 348.063 Q1755.34 350.98 1755.34 356.906 Z" fill="#000000" fill-rule="nonzero" fill-opacity="1" /><path clip-path="url(#clip680)" d="M1774.9 374.105 Q1773.09 378.735 1771.38 380.147 Q1769.66 381.559 1766.79 381.559 L1763.39 381.559 L1763.39 377.994 L1765.89 377.994 Q1767.65 377.994 1768.62 377.16 Q1769.6 376.327 1770.78 373.225 L1771.54 371.281 L1761.05 345.772 L1765.57 345.772 L1773.67 366.049 L1781.77 345.772 L1786.29 345.772 L1774.9 374.105 Z" fill="#000000" fill-rule="nonzero" fill-opacity="1" /><path clip-path="url(#clip680)" d="M1796.38 338.411 L1796.38 345.772 L1805.15 345.772 L1805.15 349.082 L1796.38 349.082 L1796.38 363.156 Q1796.38 366.327 1797.23 367.23 Q1798.11 368.133 1800.78 368.133 L1805.15 368.133 L1805.15 371.698 L1800.78 371.698 Q1795.85 371.698 1793.97 369.869 Q1792.1 368.017 1792.1 363.156 L1792.1 349.082 L1788.97 349.082 L1788.97 345.772 L1792.1 345.772 L1792.1 338.411 L1796.38 338.411 Z" fill="#000000" fill-rule="nonzero" fill-opacity="1" /><path clip-path="url(#clip680)" d="M1820.8 348.758 Q1817.37 348.758 1815.38 351.443 Q1813.39 354.105 1813.39 358.758 Q1813.39 363.411 1815.36 366.096 Q1817.35 368.758 1820.8 368.758 Q1824.2 368.758 1826.19 366.073 Q1828.18 363.387 1828.18 358.758 Q1828.18 354.151 1826.19 351.466 Q1824.2 348.758 1820.8 348.758 M1820.8 345.147 Q1826.35 345.147 1829.53 348.758 Q1832.7 352.369 1832.7 358.758 Q1832.7 365.124 1829.53 368.758 Q1826.35 372.369 1820.8 372.369 Q1815.22 372.369 1812.05 368.758 Q1808.9 365.124 1808.9 358.758 Q1808.9 352.369 1812.05 348.758 Q1815.22 345.147 1820.8 345.147 Z" fill="#000000" fill-rule="nonzero" fill-opacity="1" /><path clip-path="url(#clip680)" d="M1861.31 356.049 L1861.31 371.698 L1857.05 371.698 L1857.05 356.188 Q1857.05 352.508 1855.61 350.679 Q1854.18 348.85 1851.31 348.85 Q1847.86 348.85 1845.87 351.05 Q1843.88 353.249 1843.88 357.045 L1843.88 371.698 L1839.6 371.698 L1839.6 345.772 L1843.88 345.772 L1843.88 349.8 Q1845.41 347.462 1847.47 346.304 Q1849.55 345.147 1852.26 345.147 Q1856.72 345.147 1859.02 347.925 Q1861.31 350.679 1861.31 356.049 Z" fill="#000000" fill-rule="nonzero" fill-opacity="1" /><path clip-path="url(#clip680)" d="M1893.55 366.767 L1893.55 357.485 L1885.91 357.485 L1885.91 353.642 L1898.18 353.642 L1898.18 368.48 Q1895.47 370.401 1892.21 371.397 Q1888.95 372.369 1885.24 372.369 Q1877.14 372.369 1872.56 367.647 Q1868 362.901 1868 354.452 Q1868 345.98 1872.56 341.258 Q1877.14 336.513 1885.24 336.513 Q1888.62 336.513 1891.65 337.346 Q1894.71 338.179 1897.28 339.8 L1897.28 344.776 Q1894.69 342.577 1891.77 341.466 Q1888.85 340.355 1885.64 340.355 Q1879.29 340.355 1876.1 343.897 Q1872.93 347.438 1872.93 354.452 Q1872.93 361.443 1876.1 364.985 Q1879.29 368.526 1885.64 368.526 Q1888.11 368.526 1890.06 368.11 Q1892 367.67 1893.55 366.767 Z" fill="#000000" fill-rule="nonzero" fill-opacity="1" /><path clip-path="url(#clip680)" d="M1928.71 357.67 L1928.71 359.753 L1909.13 359.753 Q1909.41 364.151 1911.77 366.466 Q1914.15 368.758 1918.39 368.758 Q1920.84 368.758 1923.14 368.156 Q1925.45 367.554 1927.72 366.35 L1927.72 370.378 Q1925.43 371.35 1923.02 371.86 Q1920.61 372.369 1918.14 372.369 Q1911.93 372.369 1908.3 368.758 Q1904.69 365.147 1904.69 358.989 Q1904.69 352.624 1908.11 348.897 Q1911.56 345.147 1917.4 345.147 Q1922.63 345.147 1925.66 348.526 Q1928.71 351.883 1928.71 357.67 M1924.46 356.42 Q1924.41 352.925 1922.49 350.841 Q1920.59 348.758 1917.44 348.758 Q1913.88 348.758 1911.72 350.772 Q1909.59 352.786 1909.27 356.443 L1924.46 356.42 Z" fill="#000000" fill-rule="nonzero" fill-opacity="1" /><path clip-path="url(#clip680)" d="M1957.26 356.049 L1957.26 371.698 L1953 371.698 L1953 356.188 Q1953 352.508 1951.56 350.679 Q1950.13 348.85 1947.26 348.85 Q1943.81 348.85 1941.82 351.05 Q1939.83 353.249 1939.83 357.045 L1939.83 371.698 L1935.54 371.698 L1935.54 345.772 L1939.83 345.772 L1939.83 349.8 Q1941.35 347.462 1943.41 346.304 Q1945.5 345.147 1948.21 345.147 Q1952.67 345.147 1954.96 347.925 Q1957.26 350.679 1957.26 356.049 Z" fill="#000000" fill-rule="nonzero" fill-opacity="1" /><path clip-path="url(#clip680)" d="M1987.93 357.67 L1987.93 359.753 L1968.34 359.753 Q1968.62 364.151 1970.98 366.466 Q1973.37 368.758 1977.6 368.758 Q1980.06 368.758 1982.35 368.156 Q1984.66 367.554 1986.93 366.35 L1986.93 370.378 Q1984.64 371.35 1982.23 371.86 Q1979.83 372.369 1977.35 372.369 Q1971.15 372.369 1967.51 368.758 Q1963.9 365.147 1963.9 358.989 Q1963.9 352.624 1967.33 348.897 Q1970.77 345.147 1976.61 345.147 Q1981.84 345.147 1984.87 348.526 Q1987.93 351.883 1987.93 357.67 M1983.67 356.42 Q1983.62 352.925 1981.7 350.841 Q1979.8 348.758 1976.65 348.758 Q1973.09 348.758 1970.94 350.772 Q1968.81 352.786 1968.48 356.443 L1983.67 356.42 Z" fill="#000000" fill-rule="nonzero" fill-opacity="1" /><path clip-path="url(#clip680)" d="M2009.94 349.753 Q2009.22 349.337 2008.37 349.151 Q2007.53 348.943 2006.52 348.943 Q2002.9 348.943 2000.96 351.304 Q1999.04 353.642 1999.04 358.04 L1999.04 371.698 L1994.76 371.698 L1994.76 345.772 L1999.04 345.772 L1999.04 349.8 Q2000.38 347.438 2002.53 346.304 Q2004.69 345.147 2007.77 345.147 Q2008.21 345.147 2008.74 345.216 Q2009.27 345.263 2009.92 345.378 L2009.94 349.753 Z" fill="#000000" fill-rule="nonzero" fill-opacity="1" /><path clip-path="url(#clip680)" d="M2026.19 358.665 Q2021.03 358.665 2019.04 359.846 Q2017.05 361.026 2017.05 363.874 Q2017.05 366.142 2018.53 367.485 Q2020.03 368.804 2022.6 368.804 Q2026.14 368.804 2028.27 366.304 Q2030.43 363.781 2030.43 359.614 L2030.43 358.665 L2026.19 358.665 M2034.69 356.906 L2034.69 371.698 L2030.43 371.698 L2030.43 367.762 Q2028.97 370.123 2026.79 371.258 Q2024.62 372.369 2021.47 372.369 Q2017.49 372.369 2015.13 370.147 Q2012.79 367.901 2012.79 364.151 Q2012.79 359.776 2015.71 357.554 Q2018.65 355.332 2024.46 355.332 L2030.43 355.332 L2030.43 354.915 Q2030.43 351.975 2028.48 350.378 Q2026.56 348.758 2023.07 348.758 Q2020.84 348.758 2018.74 349.29 Q2016.63 349.823 2014.69 350.887 L2014.69 346.952 Q2017.02 346.05 2019.22 345.61 Q2021.42 345.147 2023.51 345.147 Q2029.13 345.147 2031.91 348.063 Q2034.69 350.98 2034.69 356.906 Z" fill="#000000" fill-rule="nonzero" fill-opacity="1" /><path clip-path="url(#clip680)" d="M2047.67 338.411 L2047.67 345.772 L2056.45 345.772 L2056.45 349.082 L2047.67 349.082 L2047.67 363.156 Q2047.67 366.327 2048.53 367.23 Q2049.41 368.133 2052.07 368.133 L2056.45 368.133 L2056.45 371.698 L2052.07 371.698 Q2047.14 371.698 2045.27 369.869 Q2043.39 368.017 2043.39 363.156 L2043.39 349.082 L2040.27 349.082 L2040.27 345.772 L2043.39 345.772 L2043.39 338.411 L2047.67 338.411 Z" fill="#000000" fill-rule="nonzero" fill-opacity="1" /><path clip-path="url(#clip680)" d="M2072.09 348.758 Q2068.67 348.758 2066.68 351.443 Q2064.69 354.105 2064.69 358.758 Q2064.69 363.411 2066.65 366.096 Q2068.64 368.758 2072.09 368.758 Q2075.5 368.758 2077.49 366.073 Q2079.48 363.387 2079.48 358.758 Q2079.48 354.151 2077.49 351.466 Q2075.5 348.758 2072.09 348.758 M2072.09 345.147 Q2077.65 345.147 2080.82 348.758 Q2083.99 352.369 2083.99 358.758 Q2083.99 365.124 2080.82 368.758 Q2077.65 372.369 2072.09 372.369 Q2066.52 372.369 2063.34 368.758 Q2060.2 365.124 2060.2 358.758 Q2060.2 352.369 2063.34 348.758 Q2066.52 345.147 2072.09 345.147 Z" fill="#000000" fill-rule="nonzero" fill-opacity="1" /><path clip-path="url(#clip680)" d="M2106.08 349.753 Q2105.36 349.337 2104.5 349.151 Q2103.67 348.943 2102.65 348.943 Q2099.04 348.943 2097.09 351.304 Q2095.17 353.642 2095.17 358.04 L2095.17 371.698 L2090.89 371.698 L2090.89 345.772 L2095.17 345.772 L2095.17 349.8 Q2096.51 347.438 2098.67 346.304 Q2100.82 345.147 2103.9 345.147 Q2104.34 345.147 2104.87 345.216 Q2105.4 345.263 2106.05 345.378 L2106.08 349.753 Z" fill="#000000" fill-rule="nonzero" fill-opacity="1" /><path clip-path="url(#clip680)" d="M2120.77 335.726 Q2117.67 341.05 2116.17 346.258 Q2114.66 351.466 2114.66 356.813 Q2114.66 362.161 2116.17 367.415 Q2117.7 372.647 2120.77 377.948 L2117.07 377.948 Q2113.6 372.508 2111.86 367.253 Q2110.15 361.999 2110.15 356.813 Q2110.15 351.651 2111.86 346.42 Q2113.58 341.188 2117.07 335.726 L2120.77 335.726 Z" fill="#000000" fill-rule="nonzero" fill-opacity="1" /><path clip-path="url(#clip680)" d="M2129.69 337.138 L2148.04 337.138 L2148.04 341.073 L2133.97 341.073 L2133.97 349.545 Q2134.99 349.198 2136.01 349.036 Q2137.02 348.85 2138.04 348.85 Q2143.83 348.85 2147.21 352.022 Q2150.59 355.193 2150.59 360.61 Q2150.59 366.188 2147.12 369.29 Q2143.64 372.369 2137.32 372.369 Q2135.15 372.369 2132.88 371.998 Q2130.64 371.628 2128.23 370.887 L2128.23 366.188 Q2130.31 367.323 2132.53 367.878 Q2134.76 368.434 2137.23 368.434 Q2141.24 368.434 2143.57 366.327 Q2145.91 364.221 2145.91 360.61 Q2145.91 356.999 2143.57 354.892 Q2141.24 352.786 2137.23 352.786 Q2135.36 352.786 2133.48 353.202 Q2131.63 353.619 2129.69 354.499 L2129.69 337.138 Z" fill="#000000" fill-rule="nonzero" fill-opacity="1" /><path clip-path="url(#clip680)" d="M2158.53 335.726 L2162.23 335.726 Q2165.7 341.188 2167.42 346.42 Q2169.15 351.651 2169.15 356.813 Q2169.15 361.999 2167.42 367.253 Q2165.7 372.508 2162.23 377.948 L2158.53 377.948 Q2161.61 372.647 2163.11 367.415 Q2164.64 362.161 2164.64 356.813 Q2164.64 351.466 2163.11 346.258 Q2161.61 341.05 2158.53 335.726 Z" fill="#000000" fill-rule="nonzero" fill-opacity="1" /></svg>
