<?xml version="1.0" encoding="utf-8"?>
<svg xmlns="http://www.w3.org/2000/svg" xmlns:xlink="http://www.w3.org/1999/xlink" width="600" height="400" viewBox="0 0 2400 1600">
<defs>
  <clipPath id="clip470">
    <rect x="0" y="0" width="2400" height="1600"/>
  </clipPath>
</defs>
<path clip-path="url(#clip470)" d="M0 1600 L2400 1600 L2400 0 L0 0  Z" fill="#ffffff" fill-rule="evenodd" fill-opacity="1"/>
<defs>
  <clipPath id="clip471">
    <rect x="480" y="0" width="1681" height="1600"/>
  </clipPath>
</defs>
<path clip-path="url(#clip470)" d="M156.598 1486.45 L2352.76 1486.45 L2352.76 47.2441 L156.598 47.2441  Z" fill="#ffffff" fill-rule="evenodd" fill-opacity="1"/>
<defs>
  <clipPath id="clip472">
    <rect x="156" y="47" width="2197" height="1440"/>
  </clipPath>
</defs>
<polyline clip-path="url(#clip472)" style="stroke:#000000; stroke-linecap:round; stroke-linejoin:round; stroke-width:2; stroke-opacity:0.1; fill:none" points="218.754,1486.45 218.754,47.2441 "/>
<polyline clip-path="url(#clip472)" style="stroke:#000000; stroke-linecap:round; stroke-linejoin:round; stroke-width:2; stroke-opacity:0.1; fill:none" points="650.388,1486.45 650.388,47.2441 "/>
<polyline clip-path="url(#clip472)" style="stroke:#000000; stroke-linecap:round; stroke-linejoin:round; stroke-width:2; stroke-opacity:0.1; fill:none" points="1082.02,1486.45 1082.02,47.2441 "/>
<polyline clip-path="url(#clip472)" style="stroke:#000000; stroke-linecap:round; stroke-linejoin:round; stroke-width:2; stroke-opacity:0.1; fill:none" points="1513.66,1486.45 1513.66,47.2441 "/>
<polyline clip-path="url(#clip472)" style="stroke:#000000; stroke-linecap:round; stroke-linejoin:round; stroke-width:2; stroke-opacity:0.1; fill:none" points="1945.29,1486.45 1945.29,47.2441 "/>
<polyline clip-path="url(#clip472)" style="stroke:#000000; stroke-linecap:round; stroke-linejoin:round; stroke-width:2; stroke-opacity:0.1; fill:none" points="156.598,1485.28 2352.76,1485.28 "/>
<polyline clip-path="url(#clip472)" style="stroke:#000000; stroke-linecap:round; stroke-linejoin:round; stroke-width:2; stroke-opacity:0.1; fill:none" points="156.598,1105.41 2352.76,1105.41 "/>
<polyline clip-path="url(#clip472)" style="stroke:#000000; stroke-linecap:round; stroke-linejoin:round; stroke-width:2; stroke-opacity:0.1; fill:none" points="156.598,725.539 2352.76,725.539 "/>
<polyline clip-path="url(#clip472)" style="stroke:#000000; stroke-linecap:round; stroke-linejoin:round; stroke-width:2; stroke-opacity:0.1; fill:none" points="156.598,345.668 2352.76,345.668 "/>
<polyline clip-path="url(#clip470)" style="stroke:#000000; stroke-linecap:round; stroke-linejoin:round; stroke-width:4; stroke-opacity:1; fill:none" points="156.598,1486.45 2352.76,1486.45 "/>
<polyline clip-path="url(#clip470)" style="stroke:#000000; stroke-linecap:round; stroke-linejoin:round; stroke-width:4; stroke-opacity:1; fill:none" points="218.754,1486.45 218.754,1467.55 "/>
<polyline clip-path="url(#clip470)" style="stroke:#000000; stroke-linecap:round; stroke-linejoin:round; stroke-width:4; stroke-opacity:1; fill:none" points="650.388,1486.45 650.388,1467.55 "/>
<polyline clip-path="url(#clip470)" style="stroke:#000000; stroke-linecap:round; stroke-linejoin:round; stroke-width:4; stroke-opacity:1; fill:none" points="1082.02,1486.45 1082.02,1467.55 "/>
<polyline clip-path="url(#clip470)" style="stroke:#000000; stroke-linecap:round; stroke-linejoin:round; stroke-width:4; stroke-opacity:1; fill:none" points="1513.66,1486.45 1513.66,1467.55 "/>
<polyline clip-path="url(#clip470)" style="stroke:#000000; stroke-linecap:round; stroke-linejoin:round; stroke-width:4; stroke-opacity:1; fill:none" points="1945.29,1486.45 1945.29,1467.55 "/>
<path clip-path="url(#clip470)" d="M196.636 1517.37 Q193.025 1517.37 191.196 1520.93 Q189.39 1524.47 189.39 1531.6 Q189.39 1538.71 191.196 1542.27 Q193.025 1545.82 196.636 1545.82 Q200.27 1545.82 202.075 1542.27 Q203.904 1538.71 203.904 1531.6 Q203.904 1524.47 202.075 1520.93 Q200.27 1517.37 196.636 1517.37 M196.636 1513.66 Q202.446 1513.66 205.501 1518.27 Q208.58 1522.85 208.58 1531.6 Q208.58 1540.33 205.501 1544.94 Q202.446 1549.52 196.636 1549.52 Q190.826 1549.52 187.747 1544.94 Q184.691 1540.33 184.691 1531.6 Q184.691 1522.85 187.747 1518.27 Q190.826 1513.66 196.636 1513.66 Z" fill="#000000" fill-rule="nonzero" fill-opacity="1" /><path clip-path="url(#clip470)" d="M216.798 1542.97 L221.682 1542.97 L221.682 1548.85 L216.798 1548.85 L216.798 1542.97 Z" fill="#000000" fill-rule="nonzero" fill-opacity="1" /><path clip-path="url(#clip470)" d="M231.913 1514.29 L250.27 1514.29 L250.27 1518.22 L236.196 1518.22 L236.196 1526.7 Q237.214 1526.35 238.233 1526.19 Q239.251 1526 240.27 1526 Q246.057 1526 249.436 1529.17 Q252.816 1532.34 252.816 1537.76 Q252.816 1543.34 249.344 1546.44 Q245.872 1549.52 239.552 1549.52 Q237.376 1549.52 235.108 1549.15 Q232.862 1548.78 230.455 1548.04 L230.455 1543.34 Q232.538 1544.47 234.76 1545.03 Q236.983 1545.58 239.46 1545.58 Q243.464 1545.58 245.802 1543.48 Q248.14 1541.37 248.14 1537.76 Q248.14 1534.15 245.802 1532.04 Q243.464 1529.94 239.46 1529.94 Q237.585 1529.94 235.71 1530.35 Q233.858 1530.77 231.913 1531.65 L231.913 1514.29 Z" fill="#000000" fill-rule="nonzero" fill-opacity="1" /><path clip-path="url(#clip470)" d="M627.692 1517.37 Q624.081 1517.37 622.252 1520.93 Q620.446 1524.47 620.446 1531.6 Q620.446 1538.71 622.252 1542.27 Q624.081 1545.82 627.692 1545.82 Q631.326 1545.82 633.132 1542.27 Q634.96 1538.71 634.96 1531.6 Q634.96 1524.47 633.132 1520.93 Q631.326 1517.37 627.692 1517.37 M627.692 1513.66 Q633.502 1513.66 636.557 1518.27 Q639.636 1522.85 639.636 1531.6 Q639.636 1540.33 636.557 1544.94 Q633.502 1549.52 627.692 1549.52 Q621.882 1549.52 618.803 1544.94 Q615.747 1540.33 615.747 1531.6 Q615.747 1522.85 618.803 1518.27 Q621.882 1513.66 627.692 1513.66 Z" fill="#000000" fill-rule="nonzero" fill-opacity="1" /><path clip-path="url(#clip470)" d="M647.854 1542.97 L652.738 1542.97 L652.738 1548.85 L647.854 1548.85 L647.854 1542.97 Z" fill="#000000" fill-rule="nonzero" fill-opacity="1" /><path clip-path="url(#clip470)" d="M673.502 1529.7 Q670.354 1529.7 668.502 1531.86 Q666.673 1534.01 666.673 1537.76 Q666.673 1541.49 668.502 1543.66 Q670.354 1545.82 673.502 1545.82 Q676.65 1545.82 678.479 1543.66 Q680.33 1541.49 680.33 1537.76 Q680.33 1534.01 678.479 1531.86 Q676.65 1529.7 673.502 1529.7 M682.784 1515.05 L682.784 1519.31 Q681.025 1518.48 679.219 1518.04 Q677.437 1517.6 675.678 1517.6 Q671.048 1517.6 668.594 1520.72 Q666.164 1523.85 665.817 1530.17 Q667.182 1528.15 669.242 1527.09 Q671.303 1526 673.779 1526 Q678.988 1526 681.997 1529.17 Q685.029 1532.32 685.029 1537.76 Q685.029 1543.08 681.881 1546.3 Q678.733 1549.52 673.502 1549.52 Q667.506 1549.52 664.335 1544.94 Q661.164 1540.33 661.164 1531.6 Q661.164 1523.41 665.053 1518.55 Q668.942 1513.66 675.492 1513.66 Q677.252 1513.66 679.034 1514.01 Q680.84 1514.36 682.784 1515.05 Z" fill="#000000" fill-rule="nonzero" fill-opacity="1" /><path clip-path="url(#clip470)" d="M1059.86 1517.37 Q1056.25 1517.37 1054.42 1520.93 Q1052.61 1524.47 1052.61 1531.6 Q1052.61 1538.71 1054.42 1542.27 Q1056.25 1545.82 1059.86 1545.82 Q1063.49 1545.82 1065.3 1542.27 Q1067.13 1538.71 1067.13 1531.6 Q1067.13 1524.47 1065.3 1520.93 Q1063.49 1517.37 1059.86 1517.37 M1059.86 1513.66 Q1065.67 1513.66 1068.72 1518.27 Q1071.8 1522.85 1071.8 1531.6 Q1071.8 1540.33 1068.72 1544.94 Q1065.67 1549.52 1059.86 1549.52 Q1054.05 1549.52 1050.97 1544.94 Q1047.91 1540.33 1047.91 1531.6 Q1047.91 1522.85 1050.97 1518.27 Q1054.05 1513.66 1059.86 1513.66 Z" fill="#000000" fill-rule="nonzero" fill-opacity="1" /><path clip-path="url(#clip470)" d="M1080.02 1542.97 L1084.91 1542.97 L1084.91 1548.85 L1080.02 1548.85 L1080.02 1542.97 Z" fill="#000000" fill-rule="nonzero" fill-opacity="1" /><path clip-path="url(#clip470)" d="M1093.91 1514.29 L1116.13 1514.29 L1116.13 1516.28 L1103.59 1548.85 L1098.7 1548.85 L1110.51 1518.22 L1093.91 1518.22 L1093.91 1514.29 Z" fill="#000000" fill-rule="nonzero" fill-opacity="1" /><path clip-path="url(#clip470)" d="M1491.09 1517.37 Q1487.48 1517.37 1485.65 1520.93 Q1483.84 1524.47 1483.84 1531.6 Q1483.84 1538.71 1485.65 1542.27 Q1487.48 1545.82 1491.09 1545.82 Q1494.72 1545.82 1496.53 1542.27 Q1498.36 1538.71 1498.36 1531.6 Q1498.36 1524.47 1496.53 1520.93 Q1494.72 1517.37 1491.09 1517.37 M1491.09 1513.66 Q1496.9 1513.66 1499.95 1518.27 Q1503.03 1522.85 1503.03 1531.6 Q1503.03 1540.33 1499.95 1544.94 Q1496.9 1549.52 1491.09 1549.52 Q1485.28 1549.52 1482.2 1544.94 Q1479.14 1540.33 1479.14 1531.6 Q1479.14 1522.85 1482.2 1518.27 Q1485.28 1513.66 1491.09 1513.66 Z" fill="#000000" fill-rule="nonzero" fill-opacity="1" /><path clip-path="url(#clip470)" d="M1511.25 1542.97 L1516.13 1542.97 L1516.13 1548.85 L1511.25 1548.85 L1511.25 1542.97 Z" fill="#000000" fill-rule="nonzero" fill-opacity="1" /><path clip-path="url(#clip470)" d="M1536.32 1532.44 Q1532.99 1532.44 1531.07 1534.22 Q1529.17 1536 1529.17 1539.13 Q1529.17 1542.25 1531.07 1544.03 Q1532.99 1545.82 1536.32 1545.82 Q1539.65 1545.82 1541.57 1544.03 Q1543.5 1542.23 1543.5 1539.13 Q1543.5 1536 1541.57 1534.22 Q1539.68 1532.44 1536.32 1532.44 M1531.64 1530.45 Q1528.63 1529.7 1526.94 1527.64 Q1525.28 1525.58 1525.28 1522.62 Q1525.28 1518.48 1528.22 1516.07 Q1531.18 1513.66 1536.32 1513.66 Q1541.48 1513.66 1544.42 1516.07 Q1547.36 1518.48 1547.36 1522.62 Q1547.36 1525.58 1545.67 1527.64 Q1544 1529.7 1541.02 1530.45 Q1544.4 1531.23 1546.27 1533.52 Q1548.17 1535.82 1548.17 1539.13 Q1548.17 1544.15 1545.09 1546.83 Q1542.04 1549.52 1536.32 1549.52 Q1530.6 1549.52 1527.52 1546.83 Q1524.47 1544.15 1524.47 1539.13 Q1524.47 1535.82 1526.37 1533.52 Q1528.26 1531.23 1531.64 1530.45 M1529.93 1523.06 Q1529.93 1525.75 1531.6 1527.25 Q1533.29 1528.76 1536.32 1528.76 Q1539.33 1528.76 1541.02 1527.25 Q1542.73 1525.75 1542.73 1523.06 Q1542.73 1520.38 1541.02 1518.87 Q1539.33 1517.37 1536.32 1517.37 Q1533.29 1517.37 1531.6 1518.87 Q1529.93 1520.38 1529.93 1523.06 Z" fill="#000000" fill-rule="nonzero" fill-opacity="1" /><path clip-path="url(#clip470)" d="M1922.77 1517.37 Q1919.16 1517.37 1917.33 1520.93 Q1915.52 1524.47 1915.52 1531.6 Q1915.52 1538.71 1917.33 1542.27 Q1919.16 1545.82 1922.77 1545.82 Q1926.4 1545.82 1928.21 1542.27 Q1930.04 1538.71 1930.04 1531.6 Q1930.04 1524.47 1928.21 1520.93 Q1926.4 1517.37 1922.77 1517.37 M1922.77 1513.66 Q1928.58 1513.66 1931.64 1518.27 Q1934.71 1522.85 1934.71 1531.6 Q1934.71 1540.33 1931.64 1544.94 Q1928.58 1549.52 1922.77 1549.52 Q1916.96 1549.52 1913.88 1544.94 Q1910.83 1540.33 1910.83 1531.6 Q1910.83 1522.85 1913.88 1518.27 Q1916.96 1513.66 1922.77 1513.66 Z" fill="#000000" fill-rule="nonzero" fill-opacity="1" /><path clip-path="url(#clip470)" d="M1942.93 1542.97 L1947.82 1542.97 L1947.82 1548.85 L1942.93 1548.85 L1942.93 1542.97 Z" fill="#000000" fill-rule="nonzero" fill-opacity="1" /><path clip-path="url(#clip470)" d="M1958.14 1548.13 L1958.14 1543.87 Q1959.9 1544.7 1961.7 1545.14 Q1963.51 1545.58 1965.25 1545.58 Q1969.88 1545.58 1972.31 1542.48 Q1974.76 1539.36 1975.11 1533.01 Q1973.76 1535.01 1971.7 1536.07 Q1969.64 1537.13 1967.14 1537.13 Q1961.96 1537.13 1958.93 1534.01 Q1955.92 1530.86 1955.92 1525.42 Q1955.92 1520.1 1959.07 1516.88 Q1962.21 1513.66 1967.45 1513.66 Q1973.44 1513.66 1976.59 1518.27 Q1979.76 1522.85 1979.76 1531.6 Q1979.76 1539.77 1975.87 1544.66 Q1972.01 1549.52 1965.45 1549.52 Q1963.7 1549.52 1961.89 1549.17 Q1960.08 1548.82 1958.14 1548.13 M1967.45 1533.48 Q1970.59 1533.48 1972.42 1531.32 Q1974.27 1529.17 1974.27 1525.42 Q1974.27 1521.7 1972.42 1519.54 Q1970.59 1517.37 1967.45 1517.37 Q1964.3 1517.37 1962.45 1519.54 Q1960.62 1521.7 1960.62 1525.42 Q1960.62 1529.17 1962.45 1531.32 Q1964.3 1533.48 1967.45 1533.48 Z" fill="#000000" fill-rule="nonzero" fill-opacity="1" /><polyline clip-path="url(#clip470)" style="stroke:#000000; stroke-linecap:round; stroke-linejoin:round; stroke-width:4; stroke-opacity:1; fill:none" points="156.598,1486.45 156.598,47.2441 "/>
<polyline clip-path="url(#clip470)" style="stroke:#000000; stroke-linecap:round; stroke-linejoin:round; stroke-width:4; stroke-opacity:1; fill:none" points="156.598,1485.28 175.496,1485.28 "/>
<polyline clip-path="url(#clip470)" style="stroke:#000000; stroke-linecap:round; stroke-linejoin:round; stroke-width:4; stroke-opacity:1; fill:none" points="156.598,1105.41 175.496,1105.41 "/>
<polyline clip-path="url(#clip470)" style="stroke:#000000; stroke-linecap:round; stroke-linejoin:round; stroke-width:4; stroke-opacity:1; fill:none" points="156.598,725.539 175.496,725.539 "/>
<polyline clip-path="url(#clip470)" style="stroke:#000000; stroke-linecap:round; stroke-linejoin:round; stroke-width:4; stroke-opacity:1; fill:none" points="156.598,345.668 175.496,345.668 "/>
<path clip-path="url(#clip470)" d="M65.0198 1471.08 Q61.4087 1471.08 59.58 1474.64 Q57.7745 1478.19 57.7745 1485.32 Q57.7745 1492.42 59.58 1495.99 Q61.4087 1499.53 65.0198 1499.53 Q68.6541 1499.53 70.4596 1495.99 Q72.2883 1492.42 72.2883 1485.32 Q72.2883 1478.19 70.4596 1474.64 Q68.6541 1471.08 65.0198 1471.08 M65.0198 1467.38 Q70.83 1467.38 73.8855 1471.98 Q76.9642 1476.57 76.9642 1485.32 Q76.9642 1494.04 73.8855 1498.65 Q70.83 1503.23 65.0198 1503.23 Q59.2097 1503.23 56.131 1498.65 Q53.0754 1494.04 53.0754 1485.32 Q53.0754 1476.57 56.131 1471.98 Q59.2097 1467.38 65.0198 1467.38 Z" fill="#000000" fill-rule="nonzero" fill-opacity="1" /><path clip-path="url(#clip470)" d="M85.1818 1496.68 L90.066 1496.68 L90.066 1502.56 L85.1818 1502.56 L85.1818 1496.68 Z" fill="#000000" fill-rule="nonzero" fill-opacity="1" /><path clip-path="url(#clip470)" d="M104.279 1498.63 L120.598 1498.63 L120.598 1502.56 L98.6539 1502.56 L98.6539 1498.63 Q101.316 1495.87 105.899 1491.24 Q110.506 1486.59 111.686 1485.25 Q113.932 1482.72 114.811 1480.99 Q115.714 1479.23 115.714 1477.54 Q115.714 1474.78 113.77 1473.05 Q111.848 1471.31 108.746 1471.31 Q106.547 1471.31 104.094 1472.07 Q101.663 1472.84 98.8854 1474.39 L98.8854 1469.67 Q101.709 1468.53 104.163 1467.95 Q106.617 1467.38 108.654 1467.38 Q114.024 1467.38 117.219 1470.06 Q120.413 1472.75 120.413 1477.24 Q120.413 1479.37 119.603 1481.29 Q118.816 1483.19 116.709 1485.78 Q116.131 1486.45 113.029 1489.67 Q109.927 1492.86 104.279 1498.63 Z" fill="#000000" fill-rule="nonzero" fill-opacity="1" /><path clip-path="url(#clip470)" d="M64.0708 1091.21 Q60.4597 1091.21 58.631 1094.77 Q56.8254 1098.32 56.8254 1105.44 Q56.8254 1112.55 58.631 1116.12 Q60.4597 1119.66 64.0708 1119.66 Q67.705 1119.66 69.5105 1116.12 Q71.3392 1112.55 71.3392 1105.44 Q71.3392 1098.32 69.5105 1094.77 Q67.705 1091.21 64.0708 1091.21 M64.0708 1087.5 Q69.8809 1087.5 72.9365 1092.11 Q76.0151 1096.69 76.0151 1105.44 Q76.0151 1114.17 72.9365 1118.78 Q69.8809 1123.36 64.0708 1123.36 Q58.2606 1123.36 55.1819 1118.78 Q52.1264 1114.17 52.1264 1105.44 Q52.1264 1096.69 55.1819 1092.11 Q58.2606 1087.5 64.0708 1087.5 Z" fill="#000000" fill-rule="nonzero" fill-opacity="1" /><path clip-path="url(#clip470)" d="M84.2327 1116.81 L89.1169 1116.81 L89.1169 1122.69 L84.2327 1122.69 L84.2327 1116.81 Z" fill="#000000" fill-rule="nonzero" fill-opacity="1" /><path clip-path="url(#clip470)" d="M113.469 1104.06 Q116.825 1104.77 118.7 1107.04 Q120.598 1109.31 120.598 1112.64 Q120.598 1117.76 117.08 1120.56 Q113.561 1123.36 107.08 1123.36 Q104.904 1123.36 102.589 1122.92 Q100.297 1122.5 97.8437 1121.65 L97.8437 1117.13 Q99.7882 1118.27 102.103 1118.85 Q104.418 1119.43 106.941 1119.43 Q111.339 1119.43 113.631 1117.69 Q115.945 1115.95 115.945 1112.64 Q115.945 1109.59 113.793 1107.88 Q111.663 1106.14 107.844 1106.14 L103.816 1106.14 L103.816 1102.3 L108.029 1102.3 Q111.478 1102.3 113.307 1100.93 Q115.135 1099.54 115.135 1096.95 Q115.135 1094.29 113.237 1092.88 Q111.362 1091.44 107.844 1091.44 Q105.922 1091.44 103.723 1091.86 Q101.524 1092.27 98.8854 1093.15 L98.8854 1088.99 Q101.547 1088.25 103.862 1087.88 Q106.2 1087.5 108.26 1087.5 Q113.584 1087.5 116.686 1089.94 Q119.788 1092.34 119.788 1096.46 Q119.788 1099.33 118.145 1101.32 Q116.501 1103.29 113.469 1104.06 Z" fill="#000000" fill-rule="nonzero" fill-opacity="1" /><path clip-path="url(#clip470)" d="M62.9365 711.338 Q59.3254 711.338 57.4967 714.903 Q55.6912 718.444 55.6912 725.574 Q55.6912 732.68 57.4967 736.245 Q59.3254 739.787 62.9365 739.787 Q66.5707 739.787 68.3763 736.245 Q70.205 732.68 70.205 725.574 Q70.205 718.444 68.3763 714.903 Q66.5707 711.338 62.9365 711.338 M62.9365 707.634 Q68.7467 707.634 71.8022 712.241 Q74.8809 716.824 74.8809 725.574 Q74.8809 734.301 71.8022 738.907 Q68.7467 743.49 62.9365 743.49 Q57.1264 743.49 54.0477 738.907 Q50.9921 734.301 50.9921 725.574 Q50.9921 716.824 54.0477 712.241 Q57.1264 707.634 62.9365 707.634 Z" fill="#000000" fill-rule="nonzero" fill-opacity="1" /><path clip-path="url(#clip470)" d="M83.0984 736.94 L87.9827 736.94 L87.9827 742.819 L83.0984 742.819 L83.0984 736.94 Z" fill="#000000" fill-rule="nonzero" fill-opacity="1" /><path clip-path="url(#clip470)" d="M111.015 712.333 L99.2095 730.782 L111.015 730.782 L111.015 712.333 M109.788 708.259 L115.668 708.259 L115.668 730.782 L120.598 730.782 L120.598 734.671 L115.668 734.671 L115.668 742.819 L111.015 742.819 L111.015 734.671 L95.4132 734.671 L95.4132 730.157 L109.788 708.259 Z" fill="#000000" fill-rule="nonzero" fill-opacity="1" /><path clip-path="url(#clip470)" d="M64.418 331.467 Q60.8069 331.467 58.9782 335.032 Q57.1726 338.573 57.1726 345.703 Q57.1726 352.81 58.9782 356.374 Q60.8069 359.916 64.418 359.916 Q68.0522 359.916 69.8578 356.374 Q71.6865 352.81 71.6865 345.703 Q71.6865 338.573 69.8578 335.032 Q68.0522 331.467 64.418 331.467 M64.418 327.763 Q70.2281 327.763 73.2837 332.37 Q76.3624 336.953 76.3624 345.703 Q76.3624 354.43 73.2837 359.036 Q70.2281 363.62 64.418 363.62 Q58.6078 363.62 55.5291 359.036 Q52.4736 354.43 52.4736 345.703 Q52.4736 336.953 55.5291 332.37 Q58.6078 327.763 64.418 327.763 Z" fill="#000000" fill-rule="nonzero" fill-opacity="1" /><path clip-path="url(#clip470)" d="M84.5799 357.069 L89.4641 357.069 L89.4641 362.948 L84.5799 362.948 L84.5799 357.069 Z" fill="#000000" fill-rule="nonzero" fill-opacity="1" /><path clip-path="url(#clip470)" d="M99.6956 328.388 L118.052 328.388 L118.052 332.324 L103.978 332.324 L103.978 340.796 Q104.996 340.448 106.015 340.286 Q107.033 340.101 108.052 340.101 Q113.839 340.101 117.219 343.273 Q120.598 346.444 120.598 351.86 Q120.598 357.439 117.126 360.541 Q113.654 363.62 107.334 363.62 Q105.159 363.62 102.89 363.249 Q100.645 362.879 98.2372 362.138 L98.2372 357.439 Q100.321 358.573 102.543 359.129 Q104.765 359.684 107.242 359.684 Q111.246 359.684 113.584 357.578 Q115.922 355.472 115.922 351.86 Q115.922 348.249 113.584 346.143 Q111.246 344.036 107.242 344.036 Q105.367 344.036 103.492 344.453 Q101.64 344.87 99.6956 345.749 L99.6956 328.388 Z" fill="#000000" fill-rule="nonzero" fill-opacity="1" /><polyline clip-path="url(#clip472)" style="stroke:#009af9; stroke-linecap:round; stroke-linejoin:round; stroke-width:4; stroke-opacity:1; fill:none" points="218.754,1250.29 348.244,1227.05 477.734,1201.64 607.225,1173.82 736.715,1143.28 866.206,1109.68 995.696,1072.56 1125.19,1031.39 1254.68,985.477 1384.17,933.901 1513.66,875.411 1643.15,808.218 1772.64,729.612 1902.13,635.149 2031.62,516.617 2161.11,355.535 2290.6,87.9763 "/>
<polyline clip-path="url(#clip472)" style="stroke:#e26f46; stroke-linecap:round; stroke-linejoin:round; stroke-width:4; stroke-opacity:1; fill:none" points="218.754,1445.72 348.244,1426.27 477.734,1408.73 607.225,1388.98 736.715,1370.88 866.206,1353.35 995.696,1331.64 1125.19,1313.47 1254.68,1295.13 1384.17,1276.24 1513.66,1254.78 1643.15,1228.59 1772.64,1210 1902.13,1182.97 2031.62,1151.95 2161.11,1120.26 2290.6,1059.91 "/>
<path clip-path="url(#clip470)" d="M229.803 250.738 L1085.02 250.738 L1085.02 95.2176 L229.803 95.2176  Z" fill="#ffffff" fill-rule="evenodd" fill-opacity="1"/>
<polyline clip-path="url(#clip470)" style="stroke:#000000; stroke-linecap:round; stroke-linejoin:round; stroke-width:4; stroke-opacity:1; fill:none" points="229.803,250.738 1085.02,250.738 1085.02,95.2176 229.803,95.2176 229.803,250.738 "/>
<polyline clip-path="url(#clip470)" style="stroke:#009af9; stroke-linecap:round; stroke-linejoin:round; stroke-width:4; stroke-opacity:1; fill:none" points="254.205,147.058 400.616,147.058 "/>
<path clip-path="url(#clip470)" d="M425.018 129.778 L454.253 129.778 L454.253 133.713 L441.985 133.713 L441.985 164.338 L437.286 164.338 L437.286 133.713 L425.018 133.713 L425.018 129.778 Z" fill="#000000" fill-rule="nonzero" fill-opacity="1" /><path clip-path="url(#clip470)" d="M466.638 142.393 Q465.92 141.977 465.064 141.791 Q464.23 141.583 463.212 141.583 Q459.601 141.583 457.656 143.944 Q455.735 146.282 455.735 150.68 L455.735 164.338 L451.453 164.338 L451.453 138.412 L455.735 138.412 L455.735 142.44 Q457.078 140.078 459.23 138.944 Q461.383 137.787 464.462 137.787 Q464.902 137.787 465.434 137.856 Q465.966 137.903 466.615 138.018 L466.638 142.393 Z" fill="#000000" fill-rule="nonzero" fill-opacity="1" /><path clip-path="url(#clip470)" d="M470.665 154.106 L470.665 138.412 L474.925 138.412 L474.925 153.944 Q474.925 157.625 476.36 159.476 Q477.795 161.305 480.665 161.305 Q484.114 161.305 486.105 159.106 Q488.119 156.907 488.119 153.111 L488.119 138.412 L492.378 138.412 L492.378 164.338 L488.119 164.338 L488.119 160.356 Q486.568 162.717 484.508 163.875 Q482.471 165.009 479.763 165.009 Q475.295 165.009 472.98 162.231 Q470.665 159.453 470.665 154.106 M481.383 137.787 L481.383 137.787 Z" fill="#000000" fill-rule="nonzero" fill-opacity="1" /><path clip-path="url(#clip470)" d="M523.327 150.31 L523.327 152.393 L503.744 152.393 Q504.022 156.791 506.383 159.106 Q508.767 161.398 513.003 161.398 Q515.457 161.398 517.748 160.796 Q520.063 160.194 522.332 158.99 L522.332 163.018 Q520.04 163.99 517.633 164.5 Q515.225 165.009 512.749 165.009 Q506.545 165.009 502.911 161.398 Q499.3 157.787 499.3 151.629 Q499.3 145.264 502.725 141.537 Q506.174 137.787 512.008 137.787 Q517.239 137.787 520.272 141.166 Q523.327 144.523 523.327 150.31 M519.068 149.06 Q519.022 145.565 517.1 143.481 Q515.202 141.398 512.054 141.398 Q508.489 141.398 506.337 143.412 Q504.207 145.426 503.883 149.083 L519.068 149.06 Z" fill="#000000" fill-rule="nonzero" fill-opacity="1" /><path clip-path="url(#clip470)" d="M561.915 139.176 L561.915 143.203 Q560.109 142.277 558.165 141.815 Q556.221 141.352 554.137 141.352 Q550.966 141.352 549.369 142.324 Q547.795 143.296 547.795 145.24 Q547.795 146.722 548.929 147.578 Q550.063 148.412 553.489 149.176 L554.947 149.5 Q559.484 150.472 561.383 152.254 Q563.304 154.014 563.304 157.185 Q563.304 160.796 560.433 162.902 Q557.586 165.009 552.586 165.009 Q550.503 165.009 548.234 164.592 Q545.989 164.199 543.489 163.388 L543.489 158.99 Q545.85 160.217 548.142 160.842 Q550.434 161.444 552.679 161.444 Q555.688 161.444 557.308 160.426 Q558.929 159.384 558.929 157.509 Q558.929 155.773 557.748 154.847 Q556.591 153.921 552.633 153.064 L551.151 152.717 Q547.193 151.884 545.434 150.171 Q543.674 148.435 543.674 145.426 Q543.674 141.768 546.267 139.778 Q548.859 137.787 553.628 137.787 Q555.989 137.787 558.072 138.134 Q560.156 138.481 561.915 139.176 Z" fill="#000000" fill-rule="nonzero" fill-opacity="1" /><path clip-path="url(#clip470)" d="M574.299 131.051 L574.299 138.412 L583.072 138.412 L583.072 141.722 L574.299 141.722 L574.299 155.796 Q574.299 158.967 575.156 159.87 Q576.035 160.773 578.697 160.773 L583.072 160.773 L583.072 164.338 L578.697 164.338 Q573.767 164.338 571.892 162.509 Q570.017 160.657 570.017 155.796 L570.017 141.722 L566.892 141.722 L566.892 138.412 L570.017 138.412 L570.017 131.051 L574.299 131.051 Z" fill="#000000" fill-rule="nonzero" fill-opacity="1" /><path clip-path="url(#clip470)" d="M588.234 154.106 L588.234 138.412 L592.493 138.412 L592.493 153.944 Q592.493 157.625 593.929 159.476 Q595.364 161.305 598.234 161.305 Q601.683 161.305 603.674 159.106 Q605.688 156.907 605.688 153.111 L605.688 138.412 L609.947 138.412 L609.947 164.338 L605.688 164.338 L605.688 160.356 Q604.137 162.717 602.077 163.875 Q600.04 165.009 597.331 165.009 Q592.864 165.009 590.549 162.231 Q588.234 159.453 588.234 154.106 M598.952 137.787 L598.952 137.787 Z" fill="#000000" fill-rule="nonzero" fill-opacity="1" /><path clip-path="url(#clip470)" d="M635.78 142.347 L635.78 128.319 L640.04 128.319 L640.04 164.338 L635.78 164.338 L635.78 160.449 Q634.438 162.763 632.378 163.898 Q630.34 165.009 627.47 165.009 Q622.771 165.009 619.808 161.259 Q616.868 157.509 616.868 151.398 Q616.868 145.287 619.808 141.537 Q622.771 137.787 627.47 137.787 Q630.34 137.787 632.378 138.921 Q634.438 140.032 635.78 142.347 M621.266 151.398 Q621.266 156.097 623.188 158.782 Q625.132 161.444 628.512 161.444 Q631.891 161.444 633.836 158.782 Q635.78 156.097 635.78 151.398 Q635.78 146.699 633.836 144.037 Q631.891 141.352 628.512 141.352 Q625.132 141.352 623.188 144.037 Q621.266 146.699 621.266 151.398 Z" fill="#000000" fill-rule="nonzero" fill-opacity="1" /><path clip-path="url(#clip470)" d="M670.988 150.31 L670.988 152.393 L651.405 152.393 Q651.683 156.791 654.044 159.106 Q656.428 161.398 660.664 161.398 Q663.118 161.398 665.41 160.796 Q667.725 160.194 669.993 158.99 L669.993 163.018 Q667.701 163.99 665.294 164.5 Q662.887 165.009 660.41 165.009 Q654.206 165.009 650.572 161.398 Q646.961 157.787 646.961 151.629 Q646.961 145.264 650.387 141.537 Q653.836 137.787 659.669 137.787 Q664.9 137.787 667.933 141.166 Q670.988 144.523 670.988 150.31 M666.729 149.06 Q666.683 145.565 664.762 143.481 Q662.863 141.398 659.715 141.398 Q656.151 141.398 653.998 143.412 Q651.868 145.426 651.544 149.083 L666.729 149.06 Z" fill="#000000" fill-rule="nonzero" fill-opacity="1" /><path clip-path="url(#clip470)" d="M699.53 148.689 L699.53 164.338 L695.271 164.338 L695.271 148.828 Q695.271 145.148 693.836 143.319 Q692.4 141.49 689.53 141.49 Q686.081 141.49 684.09 143.69 Q682.099 145.889 682.099 149.685 L682.099 164.338 L677.817 164.338 L677.817 138.412 L682.099 138.412 L682.099 142.44 Q683.627 140.102 685.687 138.944 Q687.771 137.787 690.479 137.787 Q694.947 137.787 697.238 140.565 Q699.53 143.319 699.53 148.689 Z" fill="#000000" fill-rule="nonzero" fill-opacity="1" /><path clip-path="url(#clip470)" d="M712.238 131.051 L712.238 138.412 L721.011 138.412 L721.011 141.722 L712.238 141.722 L712.238 155.796 Q712.238 158.967 713.095 159.87 Q713.974 160.773 716.636 160.773 L721.011 160.773 L721.011 164.338 L716.636 164.338 Q711.706 164.338 709.831 162.509 Q707.956 160.657 707.956 155.796 L707.956 141.722 L704.831 141.722 L704.831 138.412 L707.956 138.412 L707.956 131.051 L712.238 131.051 Z" fill="#000000" fill-rule="nonzero" fill-opacity="1" /><path clip-path="url(#clip470)" d="M760.34 139.407 L760.34 143.389 Q758.534 142.393 756.706 141.907 Q754.9 141.398 753.048 141.398 Q748.905 141.398 746.613 144.037 Q744.321 146.652 744.321 151.398 Q744.321 156.143 746.613 158.782 Q748.905 161.398 753.048 161.398 Q754.9 161.398 756.706 160.912 Q758.534 160.402 760.34 159.407 L760.34 163.342 Q758.557 164.176 756.636 164.592 Q754.738 165.009 752.585 165.009 Q746.729 165.009 743.28 161.328 Q739.831 157.648 739.831 151.398 Q739.831 145.055 743.303 141.421 Q746.798 137.787 752.863 137.787 Q754.831 137.787 756.706 138.203 Q758.581 138.597 760.34 139.407 Z" fill="#000000" fill-rule="nonzero" fill-opacity="1" /><path clip-path="url(#clip470)" d="M777.793 141.398 Q774.367 141.398 772.377 144.083 Q770.386 146.745 770.386 151.398 Q770.386 156.051 772.354 158.736 Q774.344 161.398 777.793 161.398 Q781.196 161.398 783.187 158.713 Q785.178 156.027 785.178 151.398 Q785.178 146.791 783.187 144.106 Q781.196 141.398 777.793 141.398 M777.793 137.787 Q783.349 137.787 786.52 141.398 Q789.691 145.009 789.691 151.398 Q789.691 157.764 786.52 161.398 Q783.349 165.009 777.793 165.009 Q772.215 165.009 769.043 161.398 Q765.895 157.764 765.895 151.398 Q765.895 145.009 769.043 141.398 Q772.215 137.787 777.793 137.787 Z" fill="#000000" fill-rule="nonzero" fill-opacity="1" /><path clip-path="url(#clip470)" d="M800.872 160.449 L800.872 174.199 L796.59 174.199 L796.59 138.412 L800.872 138.412 L800.872 142.347 Q802.215 140.032 804.252 138.921 Q806.312 137.787 809.159 137.787 Q813.881 137.787 816.821 141.537 Q819.784 145.287 819.784 151.398 Q819.784 157.509 816.821 161.259 Q813.881 165.009 809.159 165.009 Q806.312 165.009 804.252 163.898 Q802.215 162.763 800.872 160.449 M815.363 151.398 Q815.363 146.699 813.418 144.037 Q811.497 141.352 808.117 141.352 Q804.738 141.352 802.793 144.037 Q800.872 146.699 800.872 151.398 Q800.872 156.097 802.793 158.782 Q804.738 161.444 808.117 161.444 Q811.497 161.444 813.418 158.782 Q815.363 156.097 815.363 151.398 Z" fill="#000000" fill-rule="nonzero" fill-opacity="1" /><path clip-path="url(#clip470)" d="M826.404 154.106 L826.404 138.412 L830.663 138.412 L830.663 153.944 Q830.663 157.625 832.099 159.476 Q833.534 161.305 836.404 161.305 Q839.853 161.305 841.844 159.106 Q843.858 156.907 843.858 153.111 L843.858 138.412 L848.117 138.412 L848.117 164.338 L843.858 164.338 L843.858 160.356 Q842.307 162.717 840.247 163.875 Q838.21 165.009 835.501 165.009 Q831.034 165.009 828.719 162.231 Q826.404 159.453 826.404 154.106 M837.122 137.787 L837.122 137.787 Z" fill="#000000" fill-rule="nonzero" fill-opacity="1" /><path clip-path="url(#clip470)" d="M856.89 128.319 L861.149 128.319 L861.149 164.338 L856.89 164.338 L856.89 128.319 Z" fill="#000000" fill-rule="nonzero" fill-opacity="1" /><path clip-path="url(#clip470)" d="M881.844 151.305 Q876.682 151.305 874.691 152.486 Q872.7 153.666 872.7 156.514 Q872.7 158.782 874.182 160.125 Q875.686 161.444 878.256 161.444 Q881.797 161.444 883.927 158.944 Q886.08 156.421 886.08 152.254 L886.08 151.305 L881.844 151.305 M890.339 149.546 L890.339 164.338 L886.08 164.338 L886.08 160.402 Q884.622 162.763 882.446 163.898 Q880.27 165.009 877.122 165.009 Q873.14 165.009 870.779 162.787 Q868.441 160.541 868.441 156.791 Q868.441 152.416 871.358 150.194 Q874.298 147.972 880.108 147.972 L886.08 147.972 L886.08 147.555 Q886.08 144.615 884.135 143.018 Q882.214 141.398 878.719 141.398 Q876.497 141.398 874.39 141.93 Q872.284 142.463 870.339 143.527 L870.339 139.592 Q872.677 138.69 874.876 138.25 Q877.075 137.787 879.159 137.787 Q884.784 137.787 887.561 140.703 Q890.339 143.62 890.339 149.546 Z" fill="#000000" fill-rule="nonzero" fill-opacity="1" /><polyline clip-path="url(#clip470)" style="stroke:#e26f46; stroke-linecap:round; stroke-linejoin:round; stroke-width:4; stroke-opacity:1; fill:none" points="254.205,198.898 400.616,198.898 "/>
<path clip-path="url(#clip470)" d="M425.018 181.618 L446.869 181.618 L446.869 185.553 L429.693 185.553 L429.693 195.784 L446.152 195.784 L446.152 199.719 L429.693 199.719 L429.693 212.242 L447.286 212.242 L447.286 216.178 L425.018 216.178 L425.018 181.618 Z" fill="#000000" fill-rule="nonzero" fill-opacity="1" /><path clip-path="url(#clip470)" d="M471.314 191.016 L471.314 195.043 Q469.508 194.117 467.564 193.655 Q465.619 193.192 463.536 193.192 Q460.365 193.192 458.767 194.164 Q457.193 195.136 457.193 197.08 Q457.193 198.562 458.328 199.418 Q459.462 200.252 462.888 201.016 L464.346 201.34 Q468.883 202.312 470.781 204.094 Q472.702 205.854 472.702 209.025 Q472.702 212.636 469.832 214.742 Q466.985 216.849 461.985 216.849 Q459.902 216.849 457.633 216.432 Q455.388 216.039 452.888 215.228 L452.888 210.83 Q455.249 212.057 457.54 212.682 Q459.832 213.284 462.077 213.284 Q465.087 213.284 466.707 212.266 Q468.327 211.224 468.327 209.349 Q468.327 207.613 467.147 206.687 Q465.99 205.761 462.031 204.904 L460.55 204.557 Q456.591 203.724 454.832 202.011 Q453.073 200.275 453.073 197.266 Q453.073 193.608 455.665 191.618 Q458.258 189.627 463.027 189.627 Q465.388 189.627 467.471 189.974 Q469.554 190.321 471.314 191.016 Z" fill="#000000" fill-rule="nonzero" fill-opacity="1" /><path clip-path="url(#clip470)" d="M483.698 182.891 L483.698 190.252 L492.471 190.252 L492.471 193.562 L483.698 193.562 L483.698 207.636 Q483.698 210.807 484.554 211.71 Q485.434 212.613 488.096 212.613 L492.471 212.613 L492.471 216.178 L488.096 216.178 Q483.165 216.178 481.29 214.349 Q479.415 212.497 479.415 207.636 L479.415 193.562 L476.29 193.562 L476.29 190.252 L479.415 190.252 L479.415 182.891 L483.698 182.891 Z" fill="#000000" fill-rule="nonzero" fill-opacity="1" /><path clip-path="url(#clip470)" d="M498.073 190.252 L502.332 190.252 L502.332 216.178 L498.073 216.178 L498.073 190.252 M498.073 180.159 L502.332 180.159 L502.332 185.553 L498.073 185.553 L498.073 180.159 Z" fill="#000000" fill-rule="nonzero" fill-opacity="1" /><path clip-path="url(#clip470)" d="M531.429 195.229 Q533.026 192.358 535.248 190.993 Q537.471 189.627 540.48 189.627 Q544.531 189.627 546.73 192.474 Q548.929 195.298 548.929 200.529 L548.929 216.178 L544.646 216.178 L544.646 200.668 Q544.646 196.942 543.327 195.136 Q542.008 193.33 539.299 193.33 Q535.989 193.33 534.068 195.53 Q532.147 197.729 532.147 201.525 L532.147 216.178 L527.864 216.178 L527.864 200.668 Q527.864 196.918 526.545 195.136 Q525.225 193.33 522.471 193.33 Q519.207 193.33 517.286 195.553 Q515.364 197.752 515.364 201.525 L515.364 216.178 L511.082 216.178 L511.082 190.252 L515.364 190.252 L515.364 194.28 Q516.823 191.895 518.86 190.761 Q520.897 189.627 523.698 189.627 Q526.522 189.627 528.489 191.062 Q530.48 192.497 531.429 195.229 Z" fill="#000000" fill-rule="nonzero" fill-opacity="1" /><path clip-path="url(#clip470)" d="M569.207 203.145 Q564.045 203.145 562.054 204.326 Q560.063 205.506 560.063 208.354 Q560.063 210.622 561.545 211.965 Q563.049 213.284 565.619 213.284 Q569.16 213.284 571.29 210.784 Q573.443 208.261 573.443 204.094 L573.443 203.145 L569.207 203.145 M577.702 201.386 L577.702 216.178 L573.443 216.178 L573.443 212.242 Q571.984 214.603 569.808 215.738 Q567.632 216.849 564.484 216.849 Q560.503 216.849 558.142 214.627 Q555.804 212.381 555.804 208.631 Q555.804 204.256 558.72 202.034 Q561.66 199.812 567.47 199.812 L573.443 199.812 L573.443 199.395 Q573.443 196.455 571.498 194.858 Q569.577 193.238 566.082 193.238 Q563.859 193.238 561.753 193.77 Q559.646 194.303 557.702 195.367 L557.702 191.432 Q560.04 190.53 562.239 190.09 Q564.438 189.627 566.521 189.627 Q572.146 189.627 574.924 192.543 Q577.702 195.46 577.702 201.386 Z" fill="#000000" fill-rule="nonzero" fill-opacity="1" /><path clip-path="url(#clip470)" d="M590.688 182.891 L590.688 190.252 L599.461 190.252 L599.461 193.562 L590.688 193.562 L590.688 207.636 Q590.688 210.807 591.544 211.71 Q592.424 212.613 595.086 212.613 L599.461 212.613 L599.461 216.178 L595.086 216.178 Q590.156 216.178 588.281 214.349 Q586.406 212.497 586.406 207.636 L586.406 193.562 L583.281 193.562 L583.281 190.252 L586.406 190.252 L586.406 182.891 L590.688 182.891 Z" fill="#000000" fill-rule="nonzero" fill-opacity="1" /><path clip-path="url(#clip470)" d="M627.239 202.15 L627.239 204.233 L607.655 204.233 Q607.933 208.631 610.294 210.946 Q612.679 213.238 616.915 213.238 Q619.368 213.238 621.66 212.636 Q623.975 212.034 626.243 210.83 L626.243 214.858 Q623.952 215.83 621.544 216.34 Q619.137 216.849 616.66 216.849 Q610.456 216.849 606.822 213.238 Q603.211 209.627 603.211 203.469 Q603.211 197.104 606.637 193.377 Q610.086 189.627 615.919 189.627 Q621.151 189.627 624.183 193.006 Q627.239 196.363 627.239 202.15 M622.979 200.9 Q622.933 197.405 621.012 195.321 Q619.114 193.238 615.966 193.238 Q612.401 193.238 610.248 195.252 Q608.118 197.266 607.794 200.923 L622.979 200.9 Z" fill="#000000" fill-rule="nonzero" fill-opacity="1" /><path clip-path="url(#clip470)" d="M651.289 194.187 L651.289 180.159 L655.549 180.159 L655.549 216.178 L651.289 216.178 L651.289 212.289 Q649.947 214.603 647.887 215.738 Q645.85 216.849 642.979 216.849 Q638.28 216.849 635.317 213.099 Q632.378 209.349 632.378 203.238 Q632.378 197.127 635.317 193.377 Q638.28 189.627 642.979 189.627 Q645.85 189.627 647.887 190.761 Q649.947 191.872 651.289 194.187 M636.776 203.238 Q636.776 207.937 638.697 210.622 Q640.641 213.284 644.021 213.284 Q647.401 213.284 649.345 210.622 Q651.289 207.937 651.289 203.238 Q651.289 198.539 649.345 195.877 Q647.401 193.192 644.021 193.192 Q640.641 193.192 638.697 195.877 Q636.776 198.539 636.776 203.238 Z" fill="#000000" fill-rule="nonzero" fill-opacity="1" /><path clip-path="url(#clip470)" d="M703.141 211.247 L703.141 201.965 L695.502 201.965 L695.502 198.122 L707.771 198.122 L707.771 212.96 Q705.062 214.881 701.798 215.877 Q698.535 216.849 694.831 216.849 Q686.729 216.849 682.146 212.127 Q677.586 207.381 677.586 198.932 Q677.586 190.46 682.146 185.738 Q686.729 180.993 694.831 180.993 Q698.21 180.993 701.243 181.826 Q704.298 182.659 706.868 184.28 L706.868 189.256 Q704.275 187.057 701.359 185.946 Q698.442 184.835 695.224 184.835 Q688.882 184.835 685.687 188.377 Q682.516 191.918 682.516 198.932 Q682.516 205.923 685.687 209.465 Q688.882 213.006 695.224 213.006 Q697.701 213.006 699.646 212.59 Q701.59 212.15 703.141 211.247 Z" fill="#000000" fill-rule="nonzero" fill-opacity="1" /><path clip-path="url(#clip470)" d="M727.909 203.145 Q722.747 203.145 720.757 204.326 Q718.766 205.506 718.766 208.354 Q718.766 210.622 720.247 211.965 Q721.752 213.284 724.321 213.284 Q727.863 213.284 729.993 210.784 Q732.145 208.261 732.145 204.094 L732.145 203.145 L727.909 203.145 M736.405 201.386 L736.405 216.178 L732.145 216.178 L732.145 212.242 Q730.687 214.603 728.511 215.738 Q726.335 216.849 723.187 216.849 Q719.206 216.849 716.845 214.627 Q714.507 212.381 714.507 208.631 Q714.507 204.256 717.423 202.034 Q720.363 199.812 726.173 199.812 L732.145 199.812 L732.145 199.395 Q732.145 196.455 730.201 194.858 Q728.28 193.238 724.784 193.238 Q722.562 193.238 720.456 193.77 Q718.349 194.303 716.405 195.367 L716.405 191.432 Q718.743 190.53 720.942 190.09 Q723.141 189.627 725.224 189.627 Q730.849 189.627 733.627 192.543 Q736.405 195.46 736.405 201.386 Z" fill="#000000" fill-rule="nonzero" fill-opacity="1" /><path clip-path="url(#clip470)" d="M744.738 205.946 L744.738 190.252 L748.997 190.252 L748.997 205.784 Q748.997 209.465 750.432 211.316 Q751.868 213.145 754.738 213.145 Q758.187 213.145 760.178 210.946 Q762.192 208.747 762.192 204.951 L762.192 190.252 L766.451 190.252 L766.451 216.178 L762.192 216.178 L762.192 212.196 Q760.641 214.557 758.581 215.715 Q756.544 216.849 753.835 216.849 Q749.368 216.849 747.053 214.071 Q744.738 211.293 744.738 205.946 M755.456 189.627 L755.456 189.627 Z" fill="#000000" fill-rule="nonzero" fill-opacity="1" /><path clip-path="url(#clip470)" d="M791.752 191.016 L791.752 195.043 Q789.946 194.117 788.002 193.655 Q786.057 193.192 783.974 193.192 Q780.803 193.192 779.205 194.164 Q777.631 195.136 777.631 197.08 Q777.631 198.562 778.766 199.418 Q779.9 200.252 783.326 201.016 L784.784 201.34 Q789.321 202.312 791.219 204.094 Q793.141 205.854 793.141 209.025 Q793.141 212.636 790.27 214.742 Q787.423 216.849 782.423 216.849 Q780.34 216.849 778.071 216.432 Q775.826 216.039 773.326 215.228 L773.326 210.83 Q775.687 212.057 777.979 212.682 Q780.27 213.284 782.516 213.284 Q785.525 213.284 787.145 212.266 Q788.766 211.224 788.766 209.349 Q788.766 207.613 787.585 206.687 Q786.428 205.761 782.469 204.904 L780.988 204.557 Q777.03 203.724 775.27 202.011 Q773.511 200.275 773.511 197.266 Q773.511 193.608 776.104 191.618 Q778.696 189.627 783.465 189.627 Q785.826 189.627 787.909 189.974 Q789.992 190.321 791.752 191.016 Z" fill="#000000" fill-rule="nonzero" fill-opacity="1" /><path clip-path="url(#clip470)" d="M816.451 191.016 L816.451 195.043 Q814.645 194.117 812.701 193.655 Q810.756 193.192 808.673 193.192 Q805.502 193.192 803.904 194.164 Q802.33 195.136 802.33 197.08 Q802.33 198.562 803.465 199.418 Q804.599 200.252 808.025 201.016 L809.483 201.34 Q814.02 202.312 815.918 204.094 Q817.839 205.854 817.839 209.025 Q817.839 212.636 814.969 214.742 Q812.122 216.849 807.122 216.849 Q805.039 216.849 802.77 216.432 Q800.525 216.039 798.025 215.228 L798.025 210.83 Q800.386 212.057 802.678 212.682 Q804.969 213.284 807.215 213.284 Q810.224 213.284 811.844 212.266 Q813.464 211.224 813.464 209.349 Q813.464 207.613 812.284 206.687 Q811.127 205.761 807.168 204.904 L805.687 204.557 Q801.728 203.724 799.969 202.011 Q798.21 200.275 798.21 197.266 Q798.21 193.608 800.803 191.618 Q803.395 189.627 808.164 189.627 Q810.525 189.627 812.608 189.974 Q814.691 190.321 816.451 191.016 Z" fill="#000000" fill-rule="nonzero" fill-opacity="1" /><path clip-path="url(#clip470)" d="M824.622 190.252 L828.881 190.252 L828.881 216.178 L824.622 216.178 L824.622 190.252 M824.622 180.159 L828.881 180.159 L828.881 185.553 L824.622 185.553 L824.622 180.159 Z" fill="#000000" fill-rule="nonzero" fill-opacity="1" /><path clip-path="url(#clip470)" d="M849.575 203.145 Q844.413 203.145 842.423 204.326 Q840.432 205.506 840.432 208.354 Q840.432 210.622 841.913 211.965 Q843.418 213.284 845.987 213.284 Q849.529 213.284 851.659 210.784 Q853.812 208.261 853.812 204.094 L853.812 203.145 L849.575 203.145 M858.071 201.386 L858.071 216.178 L853.812 216.178 L853.812 212.242 Q852.353 214.603 850.177 215.738 Q848.001 216.849 844.853 216.849 Q840.872 216.849 838.511 214.627 Q836.173 212.381 836.173 208.631 Q836.173 204.256 839.089 202.034 Q842.029 199.812 847.839 199.812 L853.812 199.812 L853.812 199.395 Q853.812 196.455 851.867 194.858 Q849.946 193.238 846.45 193.238 Q844.228 193.238 842.122 193.77 Q840.015 194.303 838.071 195.367 L838.071 191.432 Q840.409 190.53 842.608 190.09 Q844.807 189.627 846.89 189.627 Q852.515 189.627 855.293 192.543 Q858.071 195.46 858.071 201.386 Z" fill="#000000" fill-rule="nonzero" fill-opacity="1" /><path clip-path="url(#clip470)" d="M888.395 200.529 L888.395 216.178 L884.135 216.178 L884.135 200.668 Q884.135 196.988 882.7 195.159 Q881.265 193.33 878.395 193.33 Q874.946 193.33 872.955 195.53 Q870.964 197.729 870.964 201.525 L870.964 216.178 L866.682 216.178 L866.682 190.252 L870.964 190.252 L870.964 194.28 Q872.492 191.942 874.552 190.784 Q876.635 189.627 879.344 189.627 Q883.811 189.627 886.103 192.405 Q888.395 195.159 888.395 200.529 Z" fill="#000000" fill-rule="nonzero" fill-opacity="1" /><path clip-path="url(#clip470)" d="M930.617 191.247 L930.617 195.229 Q928.811 194.233 926.982 193.747 Q925.177 193.238 923.325 193.238 Q919.182 193.238 916.89 195.877 Q914.598 198.492 914.598 203.238 Q914.598 207.983 916.89 210.622 Q919.182 213.238 923.325 213.238 Q925.177 213.238 926.982 212.752 Q928.811 212.242 930.617 211.247 L930.617 215.182 Q928.834 216.016 926.913 216.432 Q925.015 216.849 922.862 216.849 Q917.006 216.849 913.557 213.168 Q910.107 209.488 910.107 203.238 Q910.107 196.895 913.58 193.261 Q917.075 189.627 923.14 189.627 Q925.107 189.627 926.982 190.043 Q928.857 190.437 930.617 191.247 Z" fill="#000000" fill-rule="nonzero" fill-opacity="1" /><path clip-path="url(#clip470)" d="M948.07 193.238 Q944.644 193.238 942.654 195.923 Q940.663 198.585 940.663 203.238 Q940.663 207.891 942.63 210.576 Q944.621 213.238 948.07 213.238 Q951.473 213.238 953.464 210.553 Q955.454 207.867 955.454 203.238 Q955.454 198.631 953.464 195.946 Q951.473 193.238 948.07 193.238 M948.07 189.627 Q953.626 189.627 956.797 193.238 Q959.968 196.849 959.968 203.238 Q959.968 209.604 956.797 213.238 Q953.626 216.849 948.07 216.849 Q942.492 216.849 939.32 213.238 Q936.172 209.604 936.172 203.238 Q936.172 196.849 939.32 193.238 Q942.492 189.627 948.07 189.627 Z" fill="#000000" fill-rule="nonzero" fill-opacity="1" /><path clip-path="url(#clip470)" d="M971.149 212.289 L971.149 226.039 L966.866 226.039 L966.866 190.252 L971.149 190.252 L971.149 194.187 Q972.491 191.872 974.528 190.761 Q976.589 189.627 979.436 189.627 Q984.158 189.627 987.098 193.377 Q990.061 197.127 990.061 203.238 Q990.061 209.349 987.098 213.099 Q984.158 216.849 979.436 216.849 Q976.589 216.849 974.528 215.738 Q972.491 214.603 971.149 212.289 M985.64 203.238 Q985.64 198.539 983.695 195.877 Q981.774 193.192 978.394 193.192 Q975.015 193.192 973.07 195.877 Q971.149 198.539 971.149 203.238 Q971.149 207.937 973.07 210.622 Q975.015 213.284 978.394 213.284 Q981.774 213.284 983.695 210.622 Q985.64 207.937 985.64 203.238 Z" fill="#000000" fill-rule="nonzero" fill-opacity="1" /><path clip-path="url(#clip470)" d="M996.681 205.946 L996.681 190.252 L1000.94 190.252 L1000.94 205.784 Q1000.94 209.465 1002.38 211.316 Q1003.81 213.145 1006.68 213.145 Q1010.13 213.145 1012.12 210.946 Q1014.13 208.747 1014.13 204.951 L1014.13 190.252 L1018.39 190.252 L1018.39 216.178 L1014.13 216.178 L1014.13 212.196 Q1012.58 214.557 1010.52 215.715 Q1008.49 216.849 1005.78 216.849 Q1001.31 216.849 998.996 214.071 Q996.681 211.293 996.681 205.946 M1007.4 189.627 L1007.4 189.627 Z" fill="#000000" fill-rule="nonzero" fill-opacity="1" /><path clip-path="url(#clip470)" d="M1027.17 180.159 L1031.43 180.159 L1031.43 216.178 L1027.17 216.178 L1027.17 180.159 Z" fill="#000000" fill-rule="nonzero" fill-opacity="1" /><path clip-path="url(#clip470)" d="M1052.12 203.145 Q1046.96 203.145 1044.97 204.326 Q1042.98 205.506 1042.98 208.354 Q1042.98 210.622 1044.46 211.965 Q1045.96 213.284 1048.53 213.284 Q1052.07 213.284 1054.2 210.784 Q1056.36 208.261 1056.36 204.094 L1056.36 203.145 L1052.12 203.145 M1060.62 201.386 L1060.62 216.178 L1056.36 216.178 L1056.36 212.242 Q1054.9 214.603 1052.72 215.738 Q1050.55 216.849 1047.4 216.849 Q1043.42 216.849 1041.06 214.627 Q1038.72 212.381 1038.72 208.631 Q1038.72 204.256 1041.63 202.034 Q1044.57 199.812 1050.38 199.812 L1056.36 199.812 L1056.36 199.395 Q1056.36 196.455 1054.41 194.858 Q1052.49 193.238 1049 193.238 Q1046.77 193.238 1044.67 193.77 Q1042.56 194.303 1040.62 195.367 L1040.62 191.432 Q1042.95 190.53 1045.15 190.09 Q1047.35 189.627 1049.44 189.627 Q1055.06 189.627 1057.84 192.543 Q1060.62 195.46 1060.62 201.386 Z" fill="#000000" fill-rule="nonzero" fill-opacity="1" /></svg>
