<?xml version="1.0" encoding="utf-8"?>
<svg xmlns="http://www.w3.org/2000/svg" xmlns:xlink="http://www.w3.org/1999/xlink" width="600" height="400" viewBox="0 0 2400 1600">
<defs>
  <clipPath id="clip720">
    <rect x="0" y="0" width="2400" height="1600"/>
  </clipPath>
</defs>
<path clip-path="url(#clip720)" d="M0 1600 L2400 1600 L2400 0 L0 0  Z" fill="#ffffff" fill-rule="evenodd" fill-opacity="1"/>
<defs>
  <clipPath id="clip721">
    <rect x="480" y="0" width="1681" height="1600"/>
  </clipPath>
</defs>
<path clip-path="url(#clip720)" d="M249.542 1423.18 L2352.76 1423.18 L2352.76 123.472 L249.542 123.472  Z" fill="#ffffff" fill-rule="evenodd" fill-opacity="1"/>
<defs>
  <clipPath id="clip722">
    <rect x="249" y="123" width="2104" height="1301"/>
  </clipPath>
</defs>
<polyline clip-path="url(#clip722)" style="stroke:#000000; stroke-linecap:round; stroke-linejoin:round; stroke-width:2; stroke-opacity:0.1; fill:none" points="450.316,1423.18 450.316,123.472 "/>
<polyline clip-path="url(#clip722)" style="stroke:#000000; stroke-linecap:round; stroke-linejoin:round; stroke-width:2; stroke-opacity:0.1; fill:none" points="875.733,1423.18 875.733,123.472 "/>
<polyline clip-path="url(#clip722)" style="stroke:#000000; stroke-linecap:round; stroke-linejoin:round; stroke-width:2; stroke-opacity:0.1; fill:none" points="1301.15,1423.18 1301.15,123.472 "/>
<polyline clip-path="url(#clip722)" style="stroke:#000000; stroke-linecap:round; stroke-linejoin:round; stroke-width:2; stroke-opacity:0.1; fill:none" points="1726.57,1423.18 1726.57,123.472 "/>
<polyline clip-path="url(#clip722)" style="stroke:#000000; stroke-linecap:round; stroke-linejoin:round; stroke-width:2; stroke-opacity:0.1; fill:none" points="2151.98,1423.18 2151.98,123.472 "/>
<polyline clip-path="url(#clip722)" style="stroke:#000000; stroke-linecap:round; stroke-linejoin:round; stroke-width:2; stroke-opacity:0.1; fill:none" points="249.542,1387.07 2352.76,1387.07 "/>
<polyline clip-path="url(#clip722)" style="stroke:#000000; stroke-linecap:round; stroke-linejoin:round; stroke-width:2; stroke-opacity:0.1; fill:none" points="249.542,1080.2 2352.76,1080.2 "/>
<polyline clip-path="url(#clip722)" style="stroke:#000000; stroke-linecap:round; stroke-linejoin:round; stroke-width:2; stroke-opacity:0.1; fill:none" points="249.542,773.326 2352.76,773.326 "/>
<polyline clip-path="url(#clip722)" style="stroke:#000000; stroke-linecap:round; stroke-linejoin:round; stroke-width:2; stroke-opacity:0.1; fill:none" points="249.542,466.456 2352.76,466.456 "/>
<polyline clip-path="url(#clip722)" style="stroke:#000000; stroke-linecap:round; stroke-linejoin:round; stroke-width:2; stroke-opacity:0.1; fill:none" points="249.542,159.586 2352.76,159.586 "/>
<polyline clip-path="url(#clip720)" style="stroke:#000000; stroke-linecap:round; stroke-linejoin:round; stroke-width:4; stroke-opacity:1; fill:none" points="249.542,1423.18 2352.76,1423.18 "/>
<polyline clip-path="url(#clip720)" style="stroke:#000000; stroke-linecap:round; stroke-linejoin:round; stroke-width:4; stroke-opacity:1; fill:none" points="450.316,1423.18 450.316,1404.28 "/>
<polyline clip-path="url(#clip720)" style="stroke:#000000; stroke-linecap:round; stroke-linejoin:round; stroke-width:4; stroke-opacity:1; fill:none" points="875.733,1423.18 875.733,1404.28 "/>
<polyline clip-path="url(#clip720)" style="stroke:#000000; stroke-linecap:round; stroke-linejoin:round; stroke-width:4; stroke-opacity:1; fill:none" points="1301.15,1423.18 1301.15,1404.28 "/>
<polyline clip-path="url(#clip720)" style="stroke:#000000; stroke-linecap:round; stroke-linejoin:round; stroke-width:4; stroke-opacity:1; fill:none" points="1726.57,1423.18 1726.57,1404.28 "/>
<polyline clip-path="url(#clip720)" style="stroke:#000000; stroke-linecap:round; stroke-linejoin:round; stroke-width:4; stroke-opacity:1; fill:none" points="2151.98,1423.18 2151.98,1404.28 "/>
<path clip-path="url(#clip720)" d="M420.259 1468.75 L449.934 1468.75 L449.934 1472.69 L420.259 1472.69 L420.259 1468.75 Z" fill="#000000" fill-rule="nonzero" fill-opacity="1" /><path clip-path="url(#clip720)" d="M464.055 1481.64 L480.374 1481.64 L480.374 1485.58 L458.43 1485.58 L458.43 1481.64 Q461.092 1478.89 465.675 1474.26 Q470.281 1469.61 471.462 1468.27 Q473.707 1465.74 474.587 1464.01 Q475.49 1462.25 475.49 1460.56 Q475.49 1457.8 473.545 1456.07 Q471.624 1454.33 468.522 1454.33 Q466.323 1454.33 463.869 1455.09 Q461.439 1455.86 458.661 1457.41 L458.661 1452.69 Q461.485 1451.55 463.939 1450.97 Q466.393 1450.39 468.43 1450.39 Q473.8 1450.39 476.994 1453.08 Q480.189 1455.77 480.189 1460.26 Q480.189 1462.39 479.379 1464.31 Q478.592 1466.2 476.485 1468.8 Q475.906 1469.47 472.805 1472.69 Q469.703 1475.88 464.055 1481.64 Z" fill="#000000" fill-rule="nonzero" fill-opacity="1" /><path clip-path="url(#clip720)" d="M845.49 1468.75 L875.165 1468.75 L875.165 1472.69 L845.49 1472.69 L845.49 1468.75 Z" fill="#000000" fill-rule="nonzero" fill-opacity="1" /><path clip-path="url(#clip720)" d="M886.068 1481.64 L893.707 1481.64 L893.707 1455.28 L885.397 1456.95 L885.397 1452.69 L893.661 1451.02 L898.337 1451.02 L898.337 1481.64 L905.975 1481.64 L905.975 1485.58 L886.068 1485.58 L886.068 1481.64 Z" fill="#000000" fill-rule="nonzero" fill-opacity="1" /><path clip-path="url(#clip720)" d="M1301.15 1454.1 Q1297.54 1454.1 1295.71 1457.66 Q1293.9 1461.2 1293.9 1468.33 Q1293.9 1475.44 1295.71 1479.01 Q1297.54 1482.55 1301.15 1482.55 Q1304.78 1482.55 1306.59 1479.01 Q1308.42 1475.44 1308.42 1468.33 Q1308.42 1461.2 1306.59 1457.66 Q1304.78 1454.1 1301.15 1454.1 M1301.15 1450.39 Q1306.96 1450.39 1310.01 1455 Q1313.09 1459.58 1313.09 1468.33 Q1313.09 1477.06 1310.01 1481.67 Q1306.96 1486.25 1301.15 1486.25 Q1295.34 1486.25 1292.26 1481.67 Q1289.2 1477.06 1289.2 1468.33 Q1289.2 1459.58 1292.26 1455 Q1295.34 1450.39 1301.15 1450.39 Z" fill="#000000" fill-rule="nonzero" fill-opacity="1" /><path clip-path="url(#clip720)" d="M1716.95 1481.64 L1724.59 1481.64 L1724.59 1455.28 L1716.28 1456.95 L1716.28 1452.69 L1724.54 1451.02 L1729.22 1451.02 L1729.22 1481.64 L1736.85 1481.64 L1736.85 1485.58 L1716.95 1485.58 L1716.95 1481.64 Z" fill="#000000" fill-rule="nonzero" fill-opacity="1" /><path clip-path="url(#clip720)" d="M2146.63 1481.64 L2162.95 1481.64 L2162.95 1485.58 L2141.01 1485.58 L2141.01 1481.64 Q2143.67 1478.89 2148.25 1474.26 Q2152.86 1469.61 2154.04 1468.27 Q2156.29 1465.74 2157.17 1464.01 Q2158.07 1462.25 2158.07 1460.56 Q2158.07 1457.8 2156.13 1456.07 Q2154.2 1454.33 2151.1 1454.33 Q2148.9 1454.33 2146.45 1455.09 Q2144.02 1455.86 2141.24 1457.41 L2141.24 1452.69 Q2144.07 1451.55 2146.52 1450.97 Q2148.97 1450.39 2151.01 1450.39 Q2156.38 1450.39 2159.57 1453.08 Q2162.77 1455.77 2162.77 1460.26 Q2162.77 1462.39 2161.96 1464.31 Q2161.17 1466.2 2159.07 1468.8 Q2158.49 1469.47 2155.38 1472.69 Q2152.28 1475.88 2146.63 1481.64 Z" fill="#000000" fill-rule="nonzero" fill-opacity="1" /><path clip-path="url(#clip720)" d="M1317.76 1532.4 L1304.87 1549.74 L1318.43 1568.04 L1311.53 1568.04 L1301.15 1554.04 L1290.77 1568.04 L1283.87 1568.04 L1297.71 1549.39 L1285.04 1532.4 L1291.95 1532.4 L1301.4 1545.1 L1310.86 1532.4 L1317.76 1532.4 Z" fill="#000000" fill-rule="nonzero" fill-opacity="1" /><polyline clip-path="url(#clip720)" style="stroke:#000000; stroke-linecap:round; stroke-linejoin:round; stroke-width:4; stroke-opacity:1; fill:none" points="249.542,1423.18 249.542,123.472 "/>
<polyline clip-path="url(#clip720)" style="stroke:#000000; stroke-linecap:round; stroke-linejoin:round; stroke-width:4; stroke-opacity:1; fill:none" points="249.542,1387.07 268.44,1387.07 "/>
<polyline clip-path="url(#clip720)" style="stroke:#000000; stroke-linecap:round; stroke-linejoin:round; stroke-width:4; stroke-opacity:1; fill:none" points="249.542,1080.2 268.44,1080.2 "/>
<polyline clip-path="url(#clip720)" style="stroke:#000000; stroke-linecap:round; stroke-linejoin:round; stroke-width:4; stroke-opacity:1; fill:none" points="249.542,773.326 268.44,773.326 "/>
<polyline clip-path="url(#clip720)" style="stroke:#000000; stroke-linecap:round; stroke-linejoin:round; stroke-width:4; stroke-opacity:1; fill:none" points="249.542,466.456 268.44,466.456 "/>
<polyline clip-path="url(#clip720)" style="stroke:#000000; stroke-linecap:round; stroke-linejoin:round; stroke-width:4; stroke-opacity:1; fill:none" points="249.542,159.586 268.44,159.586 "/>
<path clip-path="url(#clip720)" d="M126.205 1372.87 Q122.593 1372.87 120.765 1376.43 Q118.959 1379.97 118.959 1387.1 Q118.959 1394.21 120.765 1397.77 Q122.593 1401.31 126.205 1401.31 Q129.839 1401.31 131.644 1397.77 Q133.473 1394.21 133.473 1387.1 Q133.473 1379.97 131.644 1376.43 Q129.839 1372.87 126.205 1372.87 M126.205 1369.16 Q132.015 1369.16 135.07 1373.77 Q138.149 1378.35 138.149 1387.1 Q138.149 1395.83 135.07 1400.43 Q132.015 1405.02 126.205 1405.02 Q120.394 1405.02 117.316 1400.43 Q114.26 1395.83 114.26 1387.1 Q114.26 1378.35 117.316 1373.77 Q120.394 1369.16 126.205 1369.16 Z" fill="#000000" fill-rule="nonzero" fill-opacity="1" /><path clip-path="url(#clip720)" d="M146.366 1398.47 L151.251 1398.47 L151.251 1404.35 L146.366 1404.35 L146.366 1398.47 Z" fill="#000000" fill-rule="nonzero" fill-opacity="1" /><path clip-path="url(#clip720)" d="M171.436 1372.87 Q167.825 1372.87 165.996 1376.43 Q164.19 1379.97 164.19 1387.1 Q164.19 1394.21 165.996 1397.77 Q167.825 1401.31 171.436 1401.31 Q175.07 1401.31 176.876 1397.77 Q178.704 1394.21 178.704 1387.1 Q178.704 1379.97 176.876 1376.43 Q175.07 1372.87 171.436 1372.87 M171.436 1369.16 Q177.246 1369.16 180.301 1373.77 Q183.38 1378.35 183.38 1387.1 Q183.38 1395.83 180.301 1400.43 Q177.246 1405.02 171.436 1405.02 Q165.626 1405.02 162.547 1400.43 Q159.491 1395.83 159.491 1387.1 Q159.491 1378.35 162.547 1373.77 Q165.626 1369.16 171.436 1369.16 Z" fill="#000000" fill-rule="nonzero" fill-opacity="1" /><path clip-path="url(#clip720)" d="M201.598 1372.87 Q197.987 1372.87 196.158 1376.43 Q194.352 1379.97 194.352 1387.1 Q194.352 1394.21 196.158 1397.77 Q197.987 1401.31 201.598 1401.31 Q205.232 1401.31 207.037 1397.77 Q208.866 1394.21 208.866 1387.1 Q208.866 1379.97 207.037 1376.43 Q205.232 1372.87 201.598 1372.87 M201.598 1369.16 Q207.408 1369.16 210.463 1373.77 Q213.542 1378.35 213.542 1387.1 Q213.542 1395.83 210.463 1400.43 Q207.408 1405.02 201.598 1405.02 Q195.787 1405.02 192.709 1400.43 Q189.653 1395.83 189.653 1387.1 Q189.653 1378.35 192.709 1373.77 Q195.787 1369.16 201.598 1369.16 Z" fill="#000000" fill-rule="nonzero" fill-opacity="1" /><path clip-path="url(#clip720)" d="M127.2 1065.99 Q123.589 1065.99 121.76 1069.56 Q119.955 1073.1 119.955 1080.23 Q119.955 1087.34 121.76 1090.9 Q123.589 1094.44 127.2 1094.44 Q130.834 1094.44 132.64 1090.9 Q134.468 1087.34 134.468 1080.23 Q134.468 1073.1 132.64 1069.56 Q130.834 1065.99 127.2 1065.99 M127.2 1062.29 Q133.01 1062.29 136.066 1066.9 Q139.144 1071.48 139.144 1080.23 Q139.144 1088.96 136.066 1093.56 Q133.01 1098.15 127.2 1098.15 Q121.39 1098.15 118.311 1093.56 Q115.256 1088.96 115.256 1080.23 Q115.256 1071.48 118.311 1066.9 Q121.39 1062.29 127.2 1062.29 Z" fill="#000000" fill-rule="nonzero" fill-opacity="1" /><path clip-path="url(#clip720)" d="M147.362 1091.6 L152.246 1091.6 L152.246 1097.48 L147.362 1097.48 L147.362 1091.6 Z" fill="#000000" fill-rule="nonzero" fill-opacity="1" /><path clip-path="url(#clip720)" d="M166.459 1093.54 L182.778 1093.54 L182.778 1097.48 L160.834 1097.48 L160.834 1093.54 Q163.496 1090.79 168.079 1086.16 Q172.686 1081.5 173.866 1080.16 Q176.112 1077.64 176.991 1075.9 Q177.894 1074.14 177.894 1072.45 Q177.894 1069.7 175.95 1067.96 Q174.028 1066.23 170.927 1066.23 Q168.727 1066.23 166.274 1066.99 Q163.843 1067.75 161.065 1069.31 L161.065 1064.58 Q163.89 1063.45 166.343 1062.87 Q168.797 1062.29 170.834 1062.29 Q176.204 1062.29 179.399 1064.98 Q182.593 1067.66 182.593 1072.15 Q182.593 1074.28 181.783 1076.2 Q180.996 1078.1 178.889 1080.69 Q178.311 1081.37 175.209 1084.58 Q172.107 1087.78 166.459 1093.54 Z" fill="#000000" fill-rule="nonzero" fill-opacity="1" /><path clip-path="url(#clip720)" d="M192.639 1062.92 L210.996 1062.92 L210.996 1066.85 L196.922 1066.85 L196.922 1075.32 Q197.94 1074.98 198.959 1074.81 Q199.977 1074.63 200.996 1074.63 Q206.783 1074.63 210.162 1077.8 Q213.542 1080.97 213.542 1086.39 Q213.542 1091.97 210.07 1095.07 Q206.598 1098.15 200.278 1098.15 Q198.102 1098.15 195.834 1097.78 Q193.588 1097.41 191.181 1096.67 L191.181 1091.97 Q193.264 1093.1 195.487 1093.66 Q197.709 1094.21 200.186 1094.21 Q204.19 1094.21 206.528 1092.11 Q208.866 1090 208.866 1086.39 Q208.866 1082.78 206.528 1080.67 Q204.19 1078.56 200.186 1078.56 Q198.311 1078.56 196.436 1078.98 Q194.584 1079.4 192.639 1080.28 L192.639 1062.92 Z" fill="#000000" fill-rule="nonzero" fill-opacity="1" /><path clip-path="url(#clip720)" d="M126.205 759.125 Q122.593 759.125 120.765 762.689 Q118.959 766.231 118.959 773.361 Q118.959 780.467 120.765 784.032 Q122.593 787.574 126.205 787.574 Q129.839 787.574 131.644 784.032 Q133.473 780.467 133.473 773.361 Q133.473 766.231 131.644 762.689 Q129.839 759.125 126.205 759.125 M126.205 755.421 Q132.015 755.421 135.07 760.027 Q138.149 764.611 138.149 773.361 Q138.149 782.088 135.07 786.694 Q132.015 791.277 126.205 791.277 Q120.394 791.277 117.316 786.694 Q114.26 782.088 114.26 773.361 Q114.26 764.611 117.316 760.027 Q120.394 755.421 126.205 755.421 Z" fill="#000000" fill-rule="nonzero" fill-opacity="1" /><path clip-path="url(#clip720)" d="M146.366 784.726 L151.251 784.726 L151.251 790.606 L146.366 790.606 L146.366 784.726 Z" fill="#000000" fill-rule="nonzero" fill-opacity="1" /><path clip-path="url(#clip720)" d="M161.482 756.046 L179.839 756.046 L179.839 759.981 L165.765 759.981 L165.765 768.453 Q166.783 768.106 167.802 767.944 Q168.82 767.759 169.839 767.759 Q175.626 767.759 179.005 770.93 Q182.385 774.101 182.385 779.518 Q182.385 785.097 178.913 788.199 Q175.44 791.277 169.121 791.277 Q166.945 791.277 164.677 790.907 Q162.431 790.537 160.024 789.796 L160.024 785.097 Q162.107 786.231 164.329 786.787 Q166.552 787.342 169.028 787.342 Q173.033 787.342 175.371 785.236 Q177.709 783.129 177.709 779.518 Q177.709 775.907 175.371 773.801 Q173.033 771.694 169.028 771.694 Q167.153 771.694 165.278 772.111 Q163.427 772.527 161.482 773.407 L161.482 756.046 Z" fill="#000000" fill-rule="nonzero" fill-opacity="1" /><path clip-path="url(#clip720)" d="M201.598 759.125 Q197.987 759.125 196.158 762.689 Q194.352 766.231 194.352 773.361 Q194.352 780.467 196.158 784.032 Q197.987 787.574 201.598 787.574 Q205.232 787.574 207.037 784.032 Q208.866 780.467 208.866 773.361 Q208.866 766.231 207.037 762.689 Q205.232 759.125 201.598 759.125 M201.598 755.421 Q207.408 755.421 210.463 760.027 Q213.542 764.611 213.542 773.361 Q213.542 782.088 210.463 786.694 Q207.408 791.277 201.598 791.277 Q195.787 791.277 192.709 786.694 Q189.653 782.088 189.653 773.361 Q189.653 764.611 192.709 760.027 Q195.787 755.421 201.598 755.421 Z" fill="#000000" fill-rule="nonzero" fill-opacity="1" /><path clip-path="url(#clip720)" d="M127.2 452.255 Q123.589 452.255 121.76 455.819 Q119.955 459.361 119.955 466.491 Q119.955 473.597 121.76 477.162 Q123.589 480.703 127.2 480.703 Q130.834 480.703 132.64 477.162 Q134.468 473.597 134.468 466.491 Q134.468 459.361 132.64 455.819 Q130.834 452.255 127.2 452.255 M127.2 448.551 Q133.01 448.551 136.066 453.157 Q139.144 457.741 139.144 466.491 Q139.144 475.217 136.066 479.824 Q133.01 484.407 127.2 484.407 Q121.39 484.407 118.311 479.824 Q115.256 475.217 115.256 466.491 Q115.256 457.741 118.311 453.157 Q121.39 448.551 127.2 448.551 Z" fill="#000000" fill-rule="nonzero" fill-opacity="1" /><path clip-path="url(#clip720)" d="M147.362 477.856 L152.246 477.856 L152.246 483.736 L147.362 483.736 L147.362 477.856 Z" fill="#000000" fill-rule="nonzero" fill-opacity="1" /><path clip-path="url(#clip720)" d="M161.251 449.176 L183.473 449.176 L183.473 451.167 L170.927 483.736 L166.042 483.736 L177.848 453.111 L161.251 453.111 L161.251 449.176 Z" fill="#000000" fill-rule="nonzero" fill-opacity="1" /><path clip-path="url(#clip720)" d="M192.639 449.176 L210.996 449.176 L210.996 453.111 L196.922 453.111 L196.922 461.583 Q197.94 461.236 198.959 461.074 Q199.977 460.889 200.996 460.889 Q206.783 460.889 210.162 464.06 Q213.542 467.231 213.542 472.648 Q213.542 478.227 210.07 481.328 Q206.598 484.407 200.278 484.407 Q198.102 484.407 195.834 484.037 Q193.588 483.666 191.181 482.926 L191.181 478.227 Q193.264 479.361 195.487 479.916 Q197.709 480.472 200.186 480.472 Q204.19 480.472 206.528 478.365 Q208.866 476.259 208.866 472.648 Q208.866 469.037 206.528 466.93 Q204.19 464.824 200.186 464.824 Q198.311 464.824 196.436 465.241 Q194.584 465.657 192.639 466.537 L192.639 449.176 Z" fill="#000000" fill-rule="nonzero" fill-opacity="1" /><path clip-path="url(#clip720)" d="M117.015 172.93 L124.654 172.93 L124.654 146.565 L116.343 148.232 L116.343 143.972 L124.607 142.306 L129.283 142.306 L129.283 172.93 L136.922 172.93 L136.922 176.866 L117.015 176.866 L117.015 172.93 Z" fill="#000000" fill-rule="nonzero" fill-opacity="1" /><path clip-path="url(#clip720)" d="M146.366 170.986 L151.251 170.986 L151.251 176.866 L146.366 176.866 L146.366 170.986 Z" fill="#000000" fill-rule="nonzero" fill-opacity="1" /><path clip-path="url(#clip720)" d="M171.436 145.384 Q167.825 145.384 165.996 148.949 Q164.19 152.491 164.19 159.62 Q164.19 166.727 165.996 170.292 Q167.825 173.833 171.436 173.833 Q175.07 173.833 176.876 170.292 Q178.704 166.727 178.704 159.62 Q178.704 152.491 176.876 148.949 Q175.07 145.384 171.436 145.384 M171.436 141.681 Q177.246 141.681 180.301 146.287 Q183.38 150.87 183.38 159.62 Q183.38 168.347 180.301 172.954 Q177.246 177.537 171.436 177.537 Q165.626 177.537 162.547 172.954 Q159.491 168.347 159.491 159.62 Q159.491 150.87 162.547 146.287 Q165.626 141.681 171.436 141.681 Z" fill="#000000" fill-rule="nonzero" fill-opacity="1" /><path clip-path="url(#clip720)" d="M201.598 145.384 Q197.987 145.384 196.158 148.949 Q194.352 152.491 194.352 159.62 Q194.352 166.727 196.158 170.292 Q197.987 173.833 201.598 173.833 Q205.232 173.833 207.037 170.292 Q208.866 166.727 208.866 159.62 Q208.866 152.491 207.037 148.949 Q205.232 145.384 201.598 145.384 M201.598 141.681 Q207.408 141.681 210.463 146.287 Q213.542 150.87 213.542 159.62 Q213.542 168.347 210.463 172.954 Q207.408 177.537 201.598 177.537 Q195.787 177.537 192.709 172.954 Q189.653 168.347 189.653 159.62 Q189.653 150.87 192.709 146.287 Q195.787 141.681 201.598 141.681 Z" fill="#000000" fill-rule="nonzero" fill-opacity="1" /><path clip-path="url(#clip720)" d="M29.7248 794.03 L35.1993 794.03 Q33.8307 796.513 33.1623 799.028 Q32.4621 801.51 32.4621 804.056 Q32.4621 809.754 36.0905 812.905 Q39.6872 816.056 46.212 816.056 Q52.7369 816.056 56.3653 812.905 Q59.9619 809.754 59.9619 804.056 Q59.9619 801.51 59.2935 799.028 Q58.5933 796.513 57.2247 794.03 L62.6355 794.03 Q63.7814 796.481 64.3543 799.123 Q64.9272 801.733 64.9272 804.693 Q64.9272 812.746 59.8664 817.488 Q54.8057 822.231 46.212 822.231 Q37.491 822.231 32.4939 817.456 Q27.4968 812.65 27.4968 804.311 Q27.4968 801.606 28.0697 799.028 Q28.6108 796.449 29.7248 794.03 Z" fill="#000000" fill-rule="nonzero" fill-opacity="1" /><path clip-path="url(#clip720)" d="M33.7671 760.388 L14.479 760.388 L14.479 754.531 L64.0042 754.531 L64.0042 760.388 L58.657 760.388 Q61.8398 762.234 63.3994 765.066 Q64.9272 767.867 64.9272 771.814 Q64.9272 778.275 59.771 782.349 Q54.6147 786.392 46.212 786.392 Q37.8093 786.392 32.6531 782.349 Q27.4968 778.275 27.4968 771.814 Q27.4968 767.867 29.0564 765.066 Q30.5842 762.234 33.7671 760.388 M46.212 780.344 Q52.6732 780.344 56.3653 777.702 Q60.0256 775.029 60.0256 770.382 Q60.0256 765.735 56.3653 763.061 Q52.6732 760.388 46.212 760.388 Q39.7508 760.388 36.0905 763.061 Q32.3984 765.735 32.3984 770.382 Q32.3984 775.029 36.0905 777.702 Q39.7508 780.344 46.212 780.344 Z" fill="#000000" fill-rule="nonzero" fill-opacity="1" /><path clip-path="url(#clip720)" d="M14.479 724.421 L19.3487 724.421 L19.3487 730.023 Q19.3487 733.174 20.6219 734.416 Q21.895 735.625 25.2052 735.625 L28.3562 735.625 L28.3562 725.981 L32.9077 725.981 L32.9077 735.625 L64.0042 735.625 L64.0042 741.513 L32.9077 741.513 L32.9077 747.115 L28.3562 747.115 L28.3562 741.513 L25.8736 741.513 Q19.9216 741.513 17.2162 738.744 Q14.479 735.975 14.479 729.96 L14.479 724.421 Z" fill="#000000" fill-rule="nonzero" fill-opacity="1" /><path clip-path="url(#clip720)" d="M1028.28 12.096 L1063.04 12.096 L1063.04 18.9825 L1036.46 18.9825 L1036.46 36.8065 L1060.44 36.8065 L1060.44 43.6931 L1036.46 43.6931 L1036.46 72.576 L1028.28 72.576 L1028.28 12.096 Z" fill="#000000" fill-rule="nonzero" fill-opacity="1" /><path clip-path="url(#clip720)" d="M1110.15 86.3491 L1110.15 92.1419 L1067.05 92.1419 L1067.05 86.3491 L1110.15 86.3491 Z" fill="#000000" fill-rule="nonzero" fill-opacity="1" /><path clip-path="url(#clip720)" d="M1151.75 80.2727 L1151.75 86.106 L1149.24 86.106 Q1139.15 86.106 1135.71 83.1084 Q1132.31 80.1107 1132.31 71.1582 L1132.31 61.4765 Q1132.31 55.3597 1130.12 53.0101 Q1127.93 50.6606 1122.18 50.6606 L1119.71 50.6606 L1119.71 44.8678 L1122.18 44.8678 Q1127.97 44.8678 1130.12 42.5588 Q1132.31 40.2093 1132.31 34.1734 L1132.31 24.4513 Q1132.31 15.4988 1135.71 12.5416 Q1139.15 9.54393 1149.24 9.54393 L1151.75 9.54393 L1151.75 15.3367 L1149 15.3367 Q1143.29 15.3367 1141.54 17.1191 Q1139.8 18.9015 1139.8 24.6133 L1139.8 34.6595 Q1139.8 41.0195 1137.94 43.8956 Q1136.12 46.7717 1131.66 47.7845 Q1136.16 48.8782 1137.98 51.7544 Q1139.8 54.6305 1139.8 60.9499 L1139.8 70.9961 Q1139.8 76.7079 1141.54 78.4903 Q1143.29 80.2727 1149 80.2727 L1151.75 80.2727 Z" fill="#000000" fill-rule="nonzero" fill-opacity="1" /><path clip-path="url(#clip720)" d="M1167.35 12.096 L1176.14 12.096 L1191.17 34.5785 L1206.28 12.096 L1215.07 12.096 L1195.62 41.141 L1216.36 72.576 L1207.57 72.576 L1190.56 46.8528 L1173.42 72.576 L1164.59 72.576 L1186.18 40.2903 L1167.35 12.096 Z" fill="#000000" fill-rule="nonzero" fill-opacity="1" /><path clip-path="url(#clip720)" d="M1229.25 65.6895 L1242.61 65.6895 L1242.61 19.5497 L1228.07 22.4663 L1228.07 15.0127 L1242.53 12.096 L1250.72 12.096 L1250.72 65.6895 L1264.08 65.6895 L1264.08 72.576 L1229.25 72.576 L1229.25 65.6895 Z" fill="#000000" fill-rule="nonzero" fill-opacity="1" /><path clip-path="url(#clip720)" d="M1289.16 9.17935 L1289.16 92.1419 L1282.27 92.1419 L1282.27 9.17935 L1289.16 9.17935 Z" fill="#000000" fill-rule="nonzero" fill-opacity="1" /><path clip-path="url(#clip720)" d="M1304.92 12.096 L1313.71 12.096 L1328.74 34.5785 L1343.85 12.096 L1352.64 12.096 L1333.19 41.141 L1353.93 72.576 L1345.14 72.576 L1328.13 46.8528 L1310.99 72.576 L1302.16 72.576 L1323.75 40.2903 L1304.92 12.096 Z" fill="#000000" fill-rule="nonzero" fill-opacity="1" /><path clip-path="url(#clip720)" d="M1372.44 65.6895 L1401 65.6895 L1401 72.576 L1362.6 72.576 L1362.6 65.6895 Q1367.26 60.8689 1375.28 52.7671 Q1383.34 44.6248 1385.41 42.2752 Q1389.34 37.8598 1390.88 34.8216 Q1392.46 31.7429 1392.46 28.7857 Q1392.46 23.9651 1389.05 20.927 Q1385.69 17.8888 1380.26 17.8888 Q1376.41 17.8888 1372.12 19.2256 Q1367.87 20.5624 1363.01 23.2765 L1363.01 15.0127 Q1367.95 13.0277 1372.24 12.015 Q1376.54 11.0023 1380.1 11.0023 Q1389.5 11.0023 1395.09 15.7013 Q1400.68 20.4004 1400.68 28.2591 Q1400.68 31.9859 1399.26 35.3482 Q1397.88 38.6699 1394.2 43.2069 Q1393.19 44.3817 1387.76 50.0125 Q1382.33 55.6027 1372.44 65.6895 Z" fill="#000000" fill-rule="nonzero" fill-opacity="1" /><path clip-path="url(#clip720)" d="M1418.1 34.9026 L1470.03 34.9026 L1470.03 41.7081 L1418.1 41.7081 L1418.1 34.9026 M1418.1 51.4303 L1470.03 51.4303 L1470.03 58.3168 L1418.1 58.3168 L1418.1 51.4303 Z" fill="#000000" fill-rule="nonzero" fill-opacity="1" /><path clip-path="url(#clip720)" d="M1505.19 17.4837 Q1498.87 17.4837 1495.67 23.7221 Q1492.51 29.92 1492.51 42.3968 Q1492.51 54.833 1495.67 61.0714 Q1498.87 67.2693 1505.19 67.2693 Q1511.55 67.2693 1514.71 61.0714 Q1517.91 54.833 1517.91 42.3968 Q1517.91 29.92 1514.71 23.7221 Q1511.55 17.4837 1505.19 17.4837 M1505.19 11.0023 Q1515.36 11.0023 1520.71 19.0636 Q1526.1 27.0843 1526.1 42.3968 Q1526.1 57.6687 1520.71 65.73 Q1515.36 73.7508 1505.19 73.7508 Q1495.03 73.7508 1489.64 65.73 Q1484.29 57.6687 1484.29 42.3968 Q1484.29 27.0843 1489.64 19.0636 Q1495.03 11.0023 1505.19 11.0023 Z" fill="#000000" fill-rule="nonzero" fill-opacity="1" /><path clip-path="url(#clip720)" d="M1541.98 80.2727 L1544.81 80.2727 Q1550.48 80.2727 1552.18 78.5308 Q1553.93 76.7889 1553.93 70.9961 L1553.93 60.9499 Q1553.93 54.6305 1555.75 51.7544 Q1557.57 48.8782 1562.07 47.7845 Q1557.57 46.7717 1555.75 43.8956 Q1553.93 41.0195 1553.93 34.6595 L1553.93 24.6133 Q1553.93 18.861 1552.18 17.1191 Q1550.48 15.3367 1544.81 15.3367 L1541.98 15.3367 L1541.98 9.54393 L1544.53 9.54393 Q1554.61 9.54393 1557.98 12.5416 Q1561.38 15.4988 1561.38 24.4513 L1561.38 34.1734 Q1561.38 40.2093 1563.57 42.5588 Q1565.75 44.8678 1571.51 44.8678 L1574.02 44.8678 L1574.02 50.6606 L1571.51 50.6606 Q1565.75 50.6606 1563.57 53.0101 Q1561.38 55.3597 1561.38 61.4765 L1561.38 71.1582 Q1561.38 80.1107 1557.98 83.1084 Q1554.61 86.106 1544.53 86.106 L1541.98 86.106 L1541.98 80.2727 Z" fill="#000000" fill-rule="nonzero" fill-opacity="1" /><polyline clip-path="url(#clip722)" style="stroke:#009af9; stroke-linecap:round; stroke-linejoin:round; stroke-width:4; stroke-opacity:1; fill:none" points="309.067,1386.4 314.027,1386.36 318.988,1386.31 323.948,1386.27 328.909,1386.22 333.869,1386.17 338.829,1386.12 343.79,1386.07 348.75,1386.01 353.711,1385.95 358.671,1385.89 363.631,1385.82 368.592,1385.75 373.552,1385.68 378.513,1385.6 383.473,1385.52 388.434,1385.43 393.394,1385.34 398.354,1385.25 403.315,1385.15 408.275,1385.05 413.236,1384.94 418.196,1384.82 423.156,1384.7 428.117,1384.58 433.077,1384.44 438.038,1384.31 442.998,1384.16 447.958,1384.01 452.919,1383.85 457.879,1383.69 462.84,1383.51 467.8,1383.33 472.76,1383.14 477.721,1382.94 482.681,1382.73 487.642,1382.52 492.602,1382.29 497.563,1382.05 502.523,1381.81 507.483,1381.55 512.444,1381.28 517.404,1381 522.365,1380.7 527.325,1380.4 532.285,1380.08 537.246,1379.75 542.206,1379.4 547.167,1379.04 552.127,1378.67 557.087,1378.28 562.048,1377.87 567.008,1377.45 571.969,1377.01 576.929,1376.55 581.89,1376.07 586.85,1375.58 591.81,1375.07 596.771,1374.53 601.731,1373.98 606.692,1373.4 611.652,1372.8 616.612,1372.18 621.573,1371.54 626.533,1370.87 631.494,1370.18 636.454,1369.47 641.414,1368.72 646.375,1367.95 651.335,1367.15 656.296,1366.33 661.256,1365.47 666.216,1364.59 671.177,1363.67 676.137,1362.72 681.098,1361.74 686.058,1360.73 691.019,1359.68 695.979,1358.6 700.939,1357.49 705.9,1356.33 710.86,1355.14 715.821,1353.91 720.781,1352.64 725.741,1351.33 730.702,1349.98 735.662,1348.59 740.623,1347.15 745.583,1345.67 750.543,1344.15 755.504,1342.58 760.464,1340.96 765.425,1339.29 770.385,1337.58 775.346,1335.82 780.306,1334 785.266,1332.14 790.227,1330.22 795.187,1328.25 800.148,1326.22 805.108,1324.14 810.068,1322.01 815.029,1319.81 819.989,1317.56 824.95,1315.25 829.91,1312.88 834.87,1310.45 839.831,1307.95 844.791,1305.4 849.752,1302.78 854.712,1300.1 859.672,1297.35 864.633,1294.53 869.593,1291.65 874.554,1288.7 879.514,1285.68 884.475,1282.6 889.435,1279.44 894.395,1276.21 899.356,1272.91 904.316,1269.54 909.277,1266.1 914.237,1262.58 919.197,1258.99 924.158,1255.33 929.118,1251.59 934.079,1247.77 939.039,1243.88 943.999,1239.91 948.96,1235.87 953.92,1231.75 958.881,1227.55 963.841,1223.27 968.801,1218.91 973.762,1214.48 978.722,1209.96 983.683,1205.37 988.643,1200.7 993.604,1195.95 998.564,1191.12 1003.52,1186.21 1008.48,1181.23 1013.45,1176.16 1018.41,1171.01 1023.37,1165.79 1028.33,1160.49 1033.29,1155.1 1038.25,1149.64 1043.21,1144.11 1048.17,1138.49 1053.13,1132.8 1058.09,1127.03 1063.05,1121.19 1068.01,1115.27 1072.97,1109.28 1077.93,1103.21 1082.89,1097.07 1087.85,1090.86 1092.81,1084.57 1097.77,1078.22 1102.73,1071.79 1107.69,1065.3 1112.65,1058.74 1117.61,1052.11 1122.57,1045.41 1127.53,1038.65 1132.5,1031.83 1137.46,1024.95 1142.42,1018 1147.38,1011 1152.34,1003.93 1157.3,996.814 1162.26,989.639 1167.22,982.41 1172.18,975.129 1177.14,967.798 1182.1,960.417 1187.06,952.989 1192.02,945.515 1196.98,937.998 1201.94,930.438 1206.9,922.838 1211.86,915.199 1216.82,907.523 1221.78,899.813 1226.74,892.07 1231.7,884.295 1236.66,876.492 1241.62,868.661 1246.58,860.805 1251.54,852.927 1256.51,845.027 1261.47,837.108 1266.43,829.173 1271.39,821.222 1276.35,813.259 1281.31,805.285 1286.27,797.303 1291.23,789.314 1296.19,781.321 1301.15,773.326 1306.11,765.331 1311.07,757.338 1316.03,749.349 1320.99,741.367 1325.95,733.393 1330.91,725.43 1335.87,717.479 1340.83,709.544 1345.79,701.625 1350.75,693.725 1355.71,685.847 1360.67,677.991 1365.63,670.16 1370.59,662.357 1375.56,654.582 1380.52,646.839 1385.48,639.129 1390.44,631.453 1395.4,623.814 1400.36,616.214 1405.32,608.654 1410.28,601.137 1415.24,593.663 1420.2,586.235 1425.16,578.854 1430.12,571.523 1435.08,564.242 1440.04,557.013 1445,549.838 1449.96,542.718 1454.92,535.655 1459.88,528.651 1464.84,521.705 1469.8,514.821 1474.76,507.998 1479.72,501.239 1484.68,494.545 1489.64,487.916 1494.6,481.354 1499.57,474.86 1504.53,468.435 1509.49,462.079 1514.45,455.795 1519.41,449.582 1524.37,443.441 1529.33,437.374 1534.29,431.38 1539.25,425.462 1544.21,419.618 1549.17,413.85 1554.13,408.159 1559.09,402.545 1564.05,397.007 1569.01,391.548 1573.97,386.167 1578.93,380.863 1583.89,375.639 1588.85,370.493 1593.81,365.426 1598.77,360.439 1603.73,355.53 1608.69,350.701 1613.65,345.95 1618.62,341.279 1623.58,336.687 1628.54,332.174 1633.5,327.739 1638.46,323.383 1643.42,319.105 1648.38,314.906 1653.34,310.784 1658.3,306.739 1663.26,302.771 1668.22,298.879 1673.18,295.064 1678.14,291.324 1683.1,287.659 1688.06,284.068 1693.02,280.552 1697.98,277.108 1702.94,273.738 1707.9,270.439 1712.86,267.212 1717.82,264.055 1722.78,260.968 1727.74,257.95 1732.7,255.001 1737.67,252.12 1742.63,249.305 1747.59,246.556 1752.55,243.872 1757.51,241.253 1762.47,238.697 1767.43,236.204 1772.39,233.772 1777.35,231.401 1782.31,229.09 1787.27,226.838 1792.23,224.645 1797.19,222.508 1802.15,220.427 1807.11,218.402 1812.07,216.431 1817.03,214.514 1821.99,212.649 1826.95,210.835 1831.91,209.072 1836.87,207.359 1841.83,205.694 1846.79,204.077 1851.75,202.506 1856.71,200.981 1861.68,199.502 1866.64,198.066 1871.6,196.673 1876.56,195.322 1881.52,194.012 1886.48,192.743 1891.44,191.513 1896.4,190.321 1901.36,189.167 1906.32,188.049 1911.28,186.967 1916.24,185.92 1921.2,184.907 1926.16,183.927 1931.12,182.98 1936.08,182.064 1941.04,181.179 1946,180.324 1950.96,179.498 1955.92,178.7 1960.88,177.93 1965.84,177.187 1970.8,176.47 1975.76,175.778 1980.73,175.11 1985.69,174.467 1990.65,173.847 1995.61,173.25 2000.57,172.674 2005.53,172.12 2010.49,171.586 2015.45,171.072 2020.41,170.578 2025.37,170.102 2030.33,169.644 2035.29,169.204 2040.25,168.781 2045.21,168.375 2050.17,167.984 2055.13,167.609 2060.09,167.249 2065.05,166.903 2070.01,166.571 2074.97,166.253 2079.93,165.947 2084.89,165.654 2089.85,165.373 2094.81,165.104 2099.77,164.846 2104.74,164.599 2109.7,164.362 2114.66,164.135 2119.62,163.918 2124.58,163.711 2129.54,163.512 2134.5,163.322 2139.46,163.14 2144.42,162.967 2149.38,162.801 2154.34,162.642 2159.3,162.491 2164.26,162.346 2169.22,162.208 2174.18,162.076 2179.14,161.95 2184.1,161.83 2189.06,161.716 2194.02,161.607 2198.98,161.503 2203.94,161.404 2208.9,161.31 2213.86,161.22 2218.82,161.134 2223.79,161.053 2228.75,160.975 2233.71,160.901 2238.67,160.831 2243.63,160.765 2248.59,160.701 2253.55,160.641 2258.51,160.584 2263.47,160.529 2268.43,160.478 2273.39,160.429 2278.35,160.382 2283.31,160.338 2288.27,160.296 2293.23,160.256 "/>
<polyline clip-path="url(#clip722)" style="stroke:#e26f46; stroke-linecap:round; stroke-linejoin:round; stroke-width:4; stroke-opacity:1; fill:none" points="309.067,1385.84 314.027,1385.79 318.988,1385.73 323.948,1385.67 328.909,1385.61 333.869,1385.55 338.829,1385.48 343.79,1385.42 348.75,1385.35 353.711,1385.27 358.671,1385.2 363.631,1385.12 368.592,1385.04 373.552,1384.95 378.513,1384.86 383.473,1384.77 388.434,1384.67 393.394,1384.57 398.354,1384.47 403.315,1384.36 408.275,1384.25 413.236,1384.13 418.196,1384.01 423.156,1383.89 428.117,1383.76 433.077,1383.62 438.038,1383.48 442.998,1383.34 447.958,1383.18 452.919,1383.03 457.879,1382.86 462.84,1382.69 467.8,1382.52 472.76,1382.34 477.721,1382.15 482.681,1381.95 487.642,1381.75 492.602,1381.54 497.563,1381.32 502.523,1381.09 507.483,1380.86 512.444,1380.62 517.404,1380.36 522.365,1380.1 527.325,1379.83 532.285,1379.55 537.246,1379.26 542.206,1378.96 547.167,1378.65 552.127,1378.32 557.087,1377.99 562.048,1377.64 567.008,1377.28 571.969,1376.91 576.929,1376.52 581.89,1376.13 586.85,1375.71 591.81,1375.29 596.771,1374.84 601.731,1374.39 606.692,1373.91 611.652,1373.43 616.612,1372.92 621.573,1372.4 626.533,1371.85 631.494,1371.29 636.454,1370.72 641.414,1370.12 646.375,1369.5 651.335,1368.86 656.296,1368.2 661.256,1367.52 666.216,1366.81 671.177,1366.08 676.137,1365.33 681.098,1364.55 686.058,1363.75 691.019,1362.92 695.979,1362.06 700.939,1361.18 705.9,1360.26 710.86,1359.32 715.821,1358.35 720.781,1357.34 725.741,1356.31 730.702,1355.24 735.662,1354.14 740.623,1353 745.583,1351.83 750.543,1350.62 755.504,1349.38 760.464,1348.09 765.425,1346.77 770.385,1345.41 775.346,1344 780.306,1342.55 785.266,1341.06 790.227,1339.53 795.187,1337.95 800.148,1336.32 805.108,1334.64 810.068,1332.92 815.029,1331.14 819.989,1329.31 824.95,1327.43 829.91,1325.5 834.87,1323.51 839.831,1321.46 844.791,1319.36 849.752,1317.2 854.712,1314.98 859.672,1312.69 864.633,1310.35 869.593,1307.94 874.554,1305.46 879.514,1302.92 884.475,1300.31 889.435,1297.64 894.395,1294.89 899.356,1292.07 904.316,1289.17 909.277,1286.21 914.237,1283.16 919.197,1280.04 924.158,1276.85 929.118,1273.57 934.079,1270.21 939.039,1266.77 943.999,1263.25 948.96,1259.64 953.92,1255.95 958.881,1252.17 963.841,1248.3 968.801,1244.34 973.762,1240.3 978.722,1236.16 983.683,1231.93 988.643,1227.61 993.604,1223.19 998.564,1218.68 1003.52,1214.07 1008.48,1209.37 1013.45,1204.57 1018.41,1199.67 1023.37,1194.67 1028.33,1189.58 1033.29,1184.38 1038.25,1179.09 1043.21,1173.69 1048.17,1168.19 1053.13,1162.59 1058.09,1156.89 1063.05,1151.09 1068.01,1145.18 1072.97,1139.18 1077.93,1133.07 1082.89,1126.86 1087.85,1120.56 1092.81,1114.15 1097.77,1107.64 1102.73,1101.03 1107.69,1094.32 1112.65,1087.51 1117.61,1080.61 1122.57,1073.61 1127.53,1066.51 1132.5,1059.32 1137.46,1052.04 1142.42,1044.67 1147.38,1037.2 1152.34,1029.65 1157.3,1022.01 1162.26,1014.29 1167.22,1006.48 1172.18,998.588 1177.14,990.619 1182.1,982.573 1187.06,974.451 1192.02,966.257 1196.98,957.993 1201.94,949.66 1206.9,941.263 1211.86,932.803 1216.82,924.284 1221.78,915.707 1226.74,907.077 1231.7,898.395 1236.66,889.666 1241.62,880.892 1246.58,872.077 1251.54,863.223 1256.51,854.334 1261.47,845.413 1266.43,836.465 1271.39,827.491 1276.35,818.496 1281.31,809.484 1286.27,800.457 1291.23,791.419 1296.19,782.374 1301.15,773.326 1306.11,764.278 1311.07,755.233 1316.03,746.195 1320.99,737.168 1325.95,728.156 1330.91,719.161 1335.87,710.187 1340.83,701.238 1345.79,692.318 1350.75,683.429 1355.71,674.575 1360.67,665.76 1365.63,656.986 1370.59,648.257 1375.56,639.575 1380.52,630.945 1385.48,622.368 1390.44,613.849 1395.4,605.389 1400.36,596.992 1405.32,588.659 1410.28,580.395 1415.24,572.201 1420.2,564.079 1425.16,556.033 1430.12,548.064 1435.08,540.174 1440.04,532.366 1445,524.641 1449.96,517.001 1454.92,509.448 1459.88,501.984 1464.84,494.61 1469.8,487.328 1474.76,480.138 1479.72,473.043 1484.68,466.043 1489.64,459.139 1494.6,452.333 1499.57,445.625 1504.53,439.016 1509.49,432.506 1514.45,426.096 1519.41,419.787 1524.37,413.579 1529.33,407.472 1534.29,401.467 1539.25,395.563 1544.21,389.761 1549.17,384.06 1554.13,378.461 1559.09,372.963 1564.05,367.566 1569.01,362.27 1573.97,357.074 1578.93,351.977 1583.89,346.98 1588.85,342.082 1593.81,337.281 1598.77,332.578 1603.73,327.971 1608.69,323.46 1613.65,319.044 1618.62,314.721 1623.58,310.492 1628.54,306.355 1633.5,302.309 1638.46,298.352 1643.42,294.485 1648.38,290.706 1653.34,287.013 1658.3,283.405 1663.26,279.882 1668.22,276.442 1673.18,273.084 1678.14,269.807 1683.1,266.609 1688.06,263.489 1693.02,260.445 1697.98,257.478 1702.94,254.585 1707.9,251.764 1712.86,249.016 1717.82,246.338 1722.78,243.729 1727.74,241.187 1732.7,238.713 1737.67,236.303 1742.63,233.957 1747.59,231.674 1752.55,229.453 1757.51,227.291 1762.47,225.188 1767.43,223.143 1772.39,221.154 1777.35,219.22 1782.31,217.34 1787.27,215.513 1792.23,213.737 1797.19,212.011 1802.15,210.335 1807.11,208.706 1812.07,207.125 1817.03,205.589 1821.99,204.098 1826.95,202.65 1831.91,201.245 1836.87,199.881 1841.83,198.558 1846.79,197.274 1851.75,196.029 1856.71,194.82 1861.68,193.649 1866.64,192.512 1871.6,191.411 1876.56,190.343 1881.52,189.307 1886.48,188.304 1891.44,187.331 1896.4,186.389 1901.36,185.476 1906.32,184.592 1911.28,183.735 1916.24,182.906 1921.2,182.102 1926.16,181.325 1931.12,180.571 1936.08,179.842 1941.04,179.137 1946,178.454 1950.96,177.793 1955.92,177.154 1960.88,176.535 1965.84,175.937 1970.8,175.358 1975.76,174.798 1980.73,174.257 1985.69,173.733 1990.65,173.227 1995.61,172.738 2000.57,172.265 2005.53,171.807 2010.49,171.366 2015.45,170.939 2020.41,170.526 2025.37,170.128 2030.33,169.742 2035.29,169.371 2040.25,169.011 2045.21,168.665 2050.17,168.33 2055.13,168.006 2060.09,167.694 2065.05,167.393 2070.01,167.102 2074.97,166.821 2079.93,166.55 2084.89,166.288 2089.85,166.036 2094.81,165.793 2099.77,165.558 2104.74,165.331 2109.7,165.113 2114.66,164.902 2119.62,164.699 2124.58,164.503 2129.54,164.315 2134.5,164.133 2139.46,163.957 2144.42,163.788 2149.38,163.625 2154.34,163.468 2159.3,163.317 2164.26,163.171 2169.22,163.031 2174.18,162.896 2179.14,162.765 2184.1,162.64 2189.06,162.519 2194.02,162.403 2198.98,162.291 2203.94,162.183 2208.9,162.079 2213.86,161.98 2218.82,161.883 2223.79,161.791 2228.75,161.702 2233.71,161.617 2238.67,161.534 2243.63,161.455 2248.59,161.379 2253.55,161.306 2258.51,161.235 2263.47,161.168 2268.43,161.102 2273.39,161.04 2278.35,160.98 2283.31,160.922 2288.27,160.866 2293.23,160.813 "/>
<path clip-path="url(#clip720)" d="M319.649 322.316 L740.78 322.316 L740.78 166.796 L319.649 166.796  Z" fill="#ffffff" fill-rule="evenodd" fill-opacity="1"/>
<polyline clip-path="url(#clip720)" style="stroke:#000000; stroke-linecap:round; stroke-linejoin:round; stroke-width:4; stroke-opacity:1; fill:none" points="319.649,322.316 740.78,322.316 740.78,166.796 319.649,166.796 319.649,322.316 "/>
<polyline clip-path="url(#clip720)" style="stroke:#009af9; stroke-linecap:round; stroke-linejoin:round; stroke-width:4; stroke-opacity:1; fill:none" points="343.018,218.636 483.232,218.636 "/>
<path clip-path="url(#clip720)" d="M532.157 230.985 L532.157 221.703 L524.518 221.703 L524.518 217.86 L536.787 217.86 L536.787 232.698 Q534.078 234.619 530.814 235.615 Q527.55 236.587 523.847 236.587 Q515.745 236.587 511.162 231.865 Q506.602 227.119 506.602 218.67 Q506.602 210.198 511.162 205.476 Q515.745 200.731 523.847 200.731 Q527.226 200.731 530.259 201.564 Q533.314 202.397 535.884 204.018 L535.884 208.995 Q533.291 206.796 530.375 205.684 Q527.458 204.573 524.24 204.573 Q517.898 204.573 514.703 208.115 Q511.532 211.657 511.532 218.67 Q511.532 225.661 514.703 229.203 Q517.898 232.744 524.24 232.744 Q526.717 232.744 528.662 232.328 Q530.606 231.888 532.157 230.985 Z" fill="#000000" fill-rule="nonzero" fill-opacity="1" /><path clip-path="url(#clip720)" d="M556.925 222.883 Q551.763 222.883 549.773 224.064 Q547.782 225.244 547.782 228.092 Q547.782 230.36 549.263 231.703 Q550.768 233.022 553.337 233.022 Q556.879 233.022 559.009 230.522 Q561.161 227.999 561.161 223.832 L561.161 222.883 L556.925 222.883 M565.421 221.124 L565.421 235.916 L561.161 235.916 L561.161 231.981 Q559.703 234.342 557.527 235.476 Q555.351 236.587 552.203 236.587 Q548.222 236.587 545.861 234.365 Q543.523 232.119 543.523 228.369 Q543.523 223.994 546.439 221.772 Q549.379 219.55 555.189 219.55 L561.161 219.55 L561.161 219.133 Q561.161 216.194 559.217 214.596 Q557.296 212.976 553.8 212.976 Q551.578 212.976 549.472 213.508 Q547.365 214.041 545.421 215.106 L545.421 211.17 Q547.759 210.268 549.958 209.828 Q552.157 209.365 554.24 209.365 Q559.865 209.365 562.643 212.282 Q565.421 215.198 565.421 221.124 Z" fill="#000000" fill-rule="nonzero" fill-opacity="1" /><path clip-path="url(#clip720)" d="M573.754 225.684 L573.754 209.99 L578.013 209.99 L578.013 225.522 Q578.013 229.203 579.448 231.055 Q580.884 232.883 583.754 232.883 Q587.203 232.883 589.194 230.684 Q591.208 228.485 591.208 224.689 L591.208 209.99 L595.467 209.99 L595.467 235.916 L591.208 235.916 L591.208 231.934 Q589.657 234.295 587.596 235.453 Q585.559 236.587 582.851 236.587 Q578.384 236.587 576.069 233.809 Q573.754 231.031 573.754 225.684 M584.471 209.365 L584.471 209.365 Z" fill="#000000" fill-rule="nonzero" fill-opacity="1" /><path clip-path="url(#clip720)" d="M620.768 210.754 L620.768 214.782 Q618.962 213.856 617.018 213.393 Q615.073 212.93 612.99 212.93 Q609.819 212.93 608.221 213.902 Q606.647 214.874 606.647 216.819 Q606.647 218.3 607.782 219.157 Q608.916 219.99 612.342 220.754 L613.8 221.078 Q618.337 222.05 620.235 223.832 Q622.156 225.592 622.156 228.763 Q622.156 232.374 619.286 234.481 Q616.439 236.587 611.439 236.587 Q609.356 236.587 607.087 236.17 Q604.842 235.777 602.342 234.967 L602.342 230.569 Q604.703 231.795 606.994 232.42 Q609.286 233.022 611.531 233.022 Q614.541 233.022 616.161 232.004 Q617.781 230.962 617.781 229.087 Q617.781 227.351 616.601 226.425 Q615.444 225.499 611.485 224.643 L610.004 224.295 Q606.045 223.462 604.286 221.749 Q602.527 220.013 602.527 217.004 Q602.527 213.346 605.119 211.356 Q607.712 209.365 612.481 209.365 Q614.842 209.365 616.925 209.712 Q619.008 210.059 620.768 210.754 Z" fill="#000000" fill-rule="nonzero" fill-opacity="1" /><path clip-path="url(#clip720)" d="M645.467 210.754 L645.467 214.782 Q643.661 213.856 641.717 213.393 Q639.772 212.93 637.689 212.93 Q634.517 212.93 632.92 213.902 Q631.346 214.874 631.346 216.819 Q631.346 218.3 632.48 219.157 Q633.615 219.99 637.041 220.754 L638.499 221.078 Q643.036 222.05 644.934 223.832 Q646.855 225.592 646.855 228.763 Q646.855 232.374 643.985 234.481 Q641.138 236.587 636.138 236.587 Q634.055 236.587 631.786 236.17 Q629.541 235.777 627.041 234.967 L627.041 230.569 Q629.402 231.795 631.693 232.42 Q633.985 233.022 636.23 233.022 Q639.24 233.022 640.86 232.004 Q642.48 230.962 642.48 229.087 Q642.48 227.351 641.3 226.425 Q640.142 225.499 636.184 224.643 L634.703 224.295 Q630.744 223.462 628.985 221.749 Q627.226 220.013 627.226 217.004 Q627.226 213.346 629.818 211.356 Q632.411 209.365 637.18 209.365 Q639.541 209.365 641.624 209.712 Q643.707 210.059 645.467 210.754 Z" fill="#000000" fill-rule="nonzero" fill-opacity="1" /><path clip-path="url(#clip720)" d="M653.638 209.99 L657.897 209.99 L657.897 235.916 L653.638 235.916 L653.638 209.99 M653.638 199.897 L657.897 199.897 L657.897 205.291 L653.638 205.291 L653.638 199.897 Z" fill="#000000" fill-rule="nonzero" fill-opacity="1" /><path clip-path="url(#clip720)" d="M678.591 222.883 Q673.429 222.883 671.439 224.064 Q669.448 225.244 669.448 228.092 Q669.448 230.36 670.929 231.703 Q672.434 233.022 675.003 233.022 Q678.545 233.022 680.675 230.522 Q682.827 227.999 682.827 223.832 L682.827 222.883 L678.591 222.883 M687.087 221.124 L687.087 235.916 L682.827 235.916 L682.827 231.981 Q681.369 234.342 679.193 235.476 Q677.017 236.587 673.869 236.587 Q669.888 236.587 667.527 234.365 Q665.189 232.119 665.189 228.369 Q665.189 223.994 668.105 221.772 Q671.045 219.55 676.855 219.55 L682.827 219.55 L682.827 219.133 Q682.827 216.194 680.883 214.596 Q678.962 212.976 675.466 212.976 Q673.244 212.976 671.138 213.508 Q669.031 214.041 667.087 215.106 L667.087 211.17 Q669.425 210.268 671.624 209.828 Q673.823 209.365 675.906 209.365 Q681.531 209.365 684.309 212.282 Q687.087 215.198 687.087 221.124 Z" fill="#000000" fill-rule="nonzero" fill-opacity="1" /><path clip-path="url(#clip720)" d="M717.411 220.268 L717.411 235.916 L713.151 235.916 L713.151 220.407 Q713.151 216.726 711.716 214.897 Q710.281 213.069 707.411 213.069 Q703.962 213.069 701.971 215.268 Q699.98 217.467 699.98 221.263 L699.98 235.916 L695.698 235.916 L695.698 209.99 L699.98 209.99 L699.98 214.018 Q701.508 211.68 703.568 210.522 Q705.651 209.365 708.36 209.365 Q712.827 209.365 715.119 212.143 Q717.411 214.897 717.411 220.268 Z" fill="#000000" fill-rule="nonzero" fill-opacity="1" /><polyline clip-path="url(#clip720)" style="stroke:#e26f46; stroke-linecap:round; stroke-linejoin:round; stroke-width:4; stroke-opacity:1; fill:none" points="343.018,270.476 483.232,270.476 "/>
<path clip-path="url(#clip720)" d="M528.847 254.33 L528.847 258.89 Q526.185 257.617 523.824 256.992 Q521.463 256.367 519.263 256.367 Q515.444 256.367 513.361 257.848 Q511.301 259.33 511.301 262.061 Q511.301 264.353 512.666 265.534 Q514.055 266.691 517.898 267.409 L520.722 267.987 Q525.953 268.983 528.43 271.506 Q530.93 274.006 530.93 278.219 Q530.93 283.242 527.55 285.834 Q524.194 288.427 517.689 288.427 Q515.236 288.427 512.458 287.871 Q509.703 287.316 506.74 286.228 L506.74 281.413 Q509.588 283.01 512.319 283.821 Q515.051 284.631 517.689 284.631 Q521.694 284.631 523.87 283.057 Q526.046 281.483 526.046 278.566 Q526.046 276.02 524.472 274.584 Q522.921 273.149 519.356 272.432 L516.509 271.876 Q511.277 270.835 508.939 268.612 Q506.602 266.39 506.602 262.432 Q506.602 257.848 509.819 255.21 Q513.06 252.571 518.731 252.571 Q521.162 252.571 523.685 253.011 Q526.208 253.45 528.847 254.33 Z" fill="#000000" fill-rule="nonzero" fill-opacity="1" /><path clip-path="url(#clip720)" d="M542.249 254.469 L542.249 261.83 L551.023 261.83 L551.023 265.14 L542.249 265.14 L542.249 279.214 Q542.249 282.385 543.106 283.288 Q543.986 284.191 546.648 284.191 L551.023 284.191 L551.023 287.756 L546.648 287.756 Q541.717 287.756 539.842 285.927 Q537.967 284.075 537.967 279.214 L537.967 265.14 L534.842 265.14 L534.842 261.83 L537.967 261.83 L537.967 254.469 L542.249 254.469 Z" fill="#000000" fill-rule="nonzero" fill-opacity="1" /><path clip-path="url(#clip720)" d="M556.185 277.524 L556.185 261.83 L560.444 261.83 L560.444 277.362 Q560.444 281.043 561.879 282.895 Q563.314 284.723 566.185 284.723 Q569.634 284.723 571.624 282.524 Q573.638 280.325 573.638 276.529 L573.638 261.83 L577.897 261.83 L577.897 287.756 L573.638 287.756 L573.638 283.774 Q572.087 286.135 570.027 287.293 Q567.99 288.427 565.282 288.427 Q560.814 288.427 558.499 285.649 Q556.185 282.871 556.185 277.524 M566.902 261.205 L566.902 261.205 Z" fill="#000000" fill-rule="nonzero" fill-opacity="1" /><path clip-path="url(#clip720)" d="M603.731 265.765 L603.731 251.737 L607.99 251.737 L607.99 287.756 L603.731 287.756 L603.731 283.867 Q602.388 286.182 600.328 287.316 Q598.291 288.427 595.42 288.427 Q590.721 288.427 587.758 284.677 Q584.819 280.927 584.819 274.816 Q584.819 268.705 587.758 264.955 Q590.721 261.205 595.42 261.205 Q598.291 261.205 600.328 262.339 Q602.388 263.45 603.731 265.765 M589.217 274.816 Q589.217 279.515 591.138 282.2 Q593.083 284.862 596.462 284.862 Q599.842 284.862 601.786 282.2 Q603.731 279.515 603.731 274.816 Q603.731 270.117 601.786 267.455 Q599.842 264.77 596.462 264.77 Q593.083 264.77 591.138 267.455 Q589.217 270.117 589.217 274.816 Z" fill="#000000" fill-rule="nonzero" fill-opacity="1" /><path clip-path="url(#clip720)" d="M638.939 273.728 L638.939 275.811 L619.356 275.811 Q619.633 280.209 621.994 282.524 Q624.379 284.816 628.615 284.816 Q631.068 284.816 633.36 284.214 Q635.675 283.612 637.943 282.409 L637.943 286.436 Q635.652 287.408 633.244 287.918 Q630.837 288.427 628.36 288.427 Q622.156 288.427 618.522 284.816 Q614.911 281.205 614.911 275.047 Q614.911 268.682 618.337 264.955 Q621.786 261.205 627.619 261.205 Q632.851 261.205 635.883 264.585 Q638.939 267.941 638.939 273.728 M634.68 272.478 Q634.633 268.983 632.712 266.899 Q630.814 264.816 627.666 264.816 Q624.101 264.816 621.948 266.83 Q619.818 268.844 619.494 272.501 L634.68 272.478 Z" fill="#000000" fill-rule="nonzero" fill-opacity="1" /><path clip-path="url(#clip720)" d="M667.48 272.108 L667.48 287.756 L663.221 287.756 L663.221 272.247 Q663.221 268.566 661.786 266.737 Q660.351 264.909 657.48 264.909 Q654.031 264.909 652.041 267.108 Q650.05 269.307 650.05 273.103 L650.05 287.756 L645.767 287.756 L645.767 261.83 L650.05 261.83 L650.05 265.858 Q651.578 263.52 653.638 262.362 Q655.721 261.205 658.429 261.205 Q662.897 261.205 665.189 263.983 Q667.48 266.737 667.48 272.108 Z" fill="#000000" fill-rule="nonzero" fill-opacity="1" /><path clip-path="url(#clip720)" d="M680.189 254.469 L680.189 261.83 L688.962 261.83 L688.962 265.14 L680.189 265.14 L680.189 279.214 Q680.189 282.385 681.045 283.288 Q681.925 284.191 684.587 284.191 L688.962 284.191 L688.962 287.756 L684.587 287.756 Q679.656 287.756 677.781 285.927 Q675.906 284.075 675.906 279.214 L675.906 265.14 L672.781 265.14 L672.781 261.83 L675.906 261.83 L675.906 254.469 L680.189 254.469 Z" fill="#000000" fill-rule="nonzero" fill-opacity="1" /></svg>
