<?xml version="1.0" encoding="utf-8"?>
<svg xmlns="http://www.w3.org/2000/svg" xmlns:xlink="http://www.w3.org/1999/xlink" width="600" height="400" viewBox="0 0 2400 1600">
<defs>
  <clipPath id="clip490">
    <rect x="0" y="0" width="2400" height="1600"/>
  </clipPath>
</defs>
<path clip-path="url(#clip490)" d="M0 1600 L2400 1600 L2400 0 L0 0  Z" fill="#ffffff" fill-rule="evenodd" fill-opacity="1"/>
<defs>
  <clipPath id="clip491">
    <rect x="480" y="0" width="1681" height="1600"/>
  </clipPath>
</defs>
<path clip-path="url(#clip490)" d="M110.881 1486.45 L2352.76 1486.45 L2352.76 47.2441 L110.881 47.2441  Z" fill="#ffffff" fill-rule="evenodd" fill-opacity="1"/>
<defs>
  <clipPath id="clip492">
    <rect x="110" y="47" width="2243" height="1440"/>
  </clipPath>
</defs>
<polyline clip-path="url(#clip492)" style="stroke:#000000; stroke-linecap:round; stroke-linejoin:round; stroke-width:2; stroke-opacity:0.1; fill:none" points="391.115,1486.45 391.115,47.2441 "/>
<polyline clip-path="url(#clip492)" style="stroke:#000000; stroke-linecap:round; stroke-linejoin:round; stroke-width:2; stroke-opacity:0.1; fill:none" points="951.584,1486.45 951.584,47.2441 "/>
<polyline clip-path="url(#clip492)" style="stroke:#000000; stroke-linecap:round; stroke-linejoin:round; stroke-width:2; stroke-opacity:0.1; fill:none" points="1512.05,1486.45 1512.05,47.2441 "/>
<polyline clip-path="url(#clip492)" style="stroke:#000000; stroke-linecap:round; stroke-linejoin:round; stroke-width:2; stroke-opacity:0.1; fill:none" points="2072.52,1486.45 2072.52,47.2441 "/>
<polyline clip-path="url(#clip490)" style="stroke:#000000; stroke-linecap:round; stroke-linejoin:round; stroke-width:4; stroke-opacity:1; fill:none" points="110.881,1486.45 2352.76,1486.45 "/>
<polyline clip-path="url(#clip490)" style="stroke:#000000; stroke-linecap:round; stroke-linejoin:round; stroke-width:4; stroke-opacity:1; fill:none" points="391.115,1486.45 391.115,1467.55 "/>
<polyline clip-path="url(#clip490)" style="stroke:#000000; stroke-linecap:round; stroke-linejoin:round; stroke-width:4; stroke-opacity:1; fill:none" points="951.584,1486.45 951.584,1467.55 "/>
<polyline clip-path="url(#clip490)" style="stroke:#000000; stroke-linecap:round; stroke-linejoin:round; stroke-width:4; stroke-opacity:1; fill:none" points="1512.05,1486.45 1512.05,1467.55 "/>
<polyline clip-path="url(#clip490)" style="stroke:#000000; stroke-linecap:round; stroke-linejoin:round; stroke-width:4; stroke-opacity:1; fill:none" points="2072.52,1486.45 2072.52,1467.55 "/>
<path clip-path="url(#clip490)" d="M369.298 1517.37 Q365.687 1517.37 363.858 1520.93 Q362.053 1524.47 362.053 1531.6 Q362.053 1538.71 363.858 1542.27 Q365.687 1545.82 369.298 1545.82 Q372.932 1545.82 374.738 1542.27 Q376.567 1538.71 376.567 1531.6 Q376.567 1524.47 374.738 1520.93 Q372.932 1517.37 369.298 1517.37 M369.298 1513.66 Q375.108 1513.66 378.164 1518.27 Q381.243 1522.85 381.243 1531.6 Q381.243 1540.33 378.164 1544.94 Q375.108 1549.52 369.298 1549.52 Q363.488 1549.52 360.409 1544.94 Q357.354 1540.33 357.354 1531.6 Q357.354 1522.85 360.409 1518.27 Q363.488 1513.66 369.298 1513.66 Z" fill="#000000" fill-rule="nonzero" fill-opacity="1" /><path clip-path="url(#clip490)" d="M389.46 1542.97 L394.344 1542.97 L394.344 1548.85 L389.46 1548.85 L389.46 1542.97 Z" fill="#000000" fill-rule="nonzero" fill-opacity="1" /><path clip-path="url(#clip490)" d="M408.557 1544.91 L424.877 1544.91 L424.877 1548.85 L402.932 1548.85 L402.932 1544.91 Q405.594 1542.16 410.178 1537.53 Q414.784 1532.88 415.965 1531.53 Q418.21 1529.01 419.09 1527.27 Q419.992 1525.51 419.992 1523.82 Q419.992 1521.07 418.048 1519.33 Q416.127 1517.6 413.025 1517.6 Q410.826 1517.6 408.372 1518.36 Q405.942 1519.13 403.164 1520.68 L403.164 1515.95 Q405.988 1514.82 408.442 1514.24 Q410.895 1513.66 412.932 1513.66 Q418.303 1513.66 421.497 1516.35 Q424.691 1519.03 424.691 1523.52 Q424.691 1525.65 423.881 1527.57 Q423.094 1529.47 420.988 1532.07 Q420.409 1532.74 417.307 1535.95 Q414.205 1539.15 408.557 1544.91 Z" fill="#000000" fill-rule="nonzero" fill-opacity="1" /><path clip-path="url(#clip490)" d="M928.725 1517.37 Q925.114 1517.37 923.286 1520.93 Q921.48 1524.47 921.48 1531.6 Q921.48 1538.71 923.286 1542.27 Q925.114 1545.82 928.725 1545.82 Q932.36 1545.82 934.165 1542.27 Q935.994 1538.71 935.994 1531.6 Q935.994 1524.47 934.165 1520.93 Q932.36 1517.37 928.725 1517.37 M928.725 1513.66 Q934.535 1513.66 937.591 1518.27 Q940.67 1522.85 940.67 1531.6 Q940.67 1540.33 937.591 1544.94 Q934.535 1549.52 928.725 1549.52 Q922.915 1549.52 919.837 1544.94 Q916.781 1540.33 916.781 1531.6 Q916.781 1522.85 919.837 1518.27 Q922.915 1513.66 928.725 1513.66 Z" fill="#000000" fill-rule="nonzero" fill-opacity="1" /><path clip-path="url(#clip490)" d="M948.887 1542.97 L953.772 1542.97 L953.772 1548.85 L948.887 1548.85 L948.887 1542.97 Z" fill="#000000" fill-rule="nonzero" fill-opacity="1" /><path clip-path="url(#clip490)" d="M976.804 1518.36 L964.998 1536.81 L976.804 1536.81 L976.804 1518.36 M975.577 1514.29 L981.457 1514.29 L981.457 1536.81 L986.387 1536.81 L986.387 1540.7 L981.457 1540.7 L981.457 1548.85 L976.804 1548.85 L976.804 1540.7 L961.202 1540.7 L961.202 1536.19 L975.577 1514.29 Z" fill="#000000" fill-rule="nonzero" fill-opacity="1" /><path clip-path="url(#clip490)" d="M1489.36 1517.37 Q1485.75 1517.37 1483.92 1520.93 Q1482.11 1524.47 1482.11 1531.6 Q1482.11 1538.71 1483.92 1542.27 Q1485.75 1545.82 1489.36 1545.82 Q1492.99 1545.82 1494.8 1542.27 Q1496.62 1538.71 1496.62 1531.6 Q1496.62 1524.47 1494.8 1520.93 Q1492.99 1517.37 1489.36 1517.37 M1489.36 1513.66 Q1495.17 1513.66 1498.22 1518.27 Q1501.3 1522.85 1501.3 1531.6 Q1501.3 1540.33 1498.22 1544.94 Q1495.17 1549.52 1489.36 1549.52 Q1483.55 1549.52 1480.47 1544.94 Q1477.41 1540.33 1477.41 1531.6 Q1477.41 1522.85 1480.47 1518.27 Q1483.55 1513.66 1489.36 1513.66 Z" fill="#000000" fill-rule="nonzero" fill-opacity="1" /><path clip-path="url(#clip490)" d="M1509.52 1542.97 L1514.4 1542.97 L1514.4 1548.85 L1509.52 1548.85 L1509.52 1542.97 Z" fill="#000000" fill-rule="nonzero" fill-opacity="1" /><path clip-path="url(#clip490)" d="M1535.17 1529.7 Q1532.02 1529.7 1530.17 1531.86 Q1528.34 1534.01 1528.34 1537.76 Q1528.34 1541.49 1530.17 1543.66 Q1532.02 1545.82 1535.17 1545.82 Q1538.31 1545.82 1540.14 1543.66 Q1541.99 1541.49 1541.99 1537.76 Q1541.99 1534.01 1540.14 1531.86 Q1538.31 1529.7 1535.17 1529.7 M1544.45 1515.05 L1544.45 1519.31 Q1542.69 1518.48 1540.88 1518.04 Q1539.1 1517.6 1537.34 1517.6 Q1532.71 1517.6 1530.26 1520.72 Q1527.83 1523.85 1527.48 1530.17 Q1528.85 1528.15 1530.91 1527.09 Q1532.97 1526 1535.44 1526 Q1540.65 1526 1543.66 1529.17 Q1546.69 1532.32 1546.69 1537.76 Q1546.69 1543.08 1543.55 1546.3 Q1540.4 1549.52 1535.17 1549.52 Q1529.17 1549.52 1526 1544.94 Q1522.83 1540.33 1522.83 1531.6 Q1522.83 1523.41 1526.72 1518.55 Q1530.61 1513.66 1537.16 1513.66 Q1538.92 1513.66 1540.7 1514.01 Q1542.5 1514.36 1544.45 1515.05 Z" fill="#000000" fill-rule="nonzero" fill-opacity="1" /><path clip-path="url(#clip490)" d="M2049.95 1517.37 Q2046.34 1517.37 2044.51 1520.93 Q2042.71 1524.47 2042.71 1531.6 Q2042.71 1538.71 2044.51 1542.27 Q2046.34 1545.82 2049.95 1545.82 Q2053.59 1545.82 2055.39 1542.27 Q2057.22 1538.71 2057.22 1531.6 Q2057.22 1524.47 2055.39 1520.93 Q2053.59 1517.37 2049.95 1517.37 M2049.95 1513.66 Q2055.76 1513.66 2058.82 1518.27 Q2061.9 1522.85 2061.9 1531.6 Q2061.9 1540.33 2058.82 1544.94 Q2055.76 1549.52 2049.95 1549.52 Q2044.14 1549.52 2041.06 1544.94 Q2038.01 1540.33 2038.01 1531.6 Q2038.01 1522.85 2041.06 1518.27 Q2044.14 1513.66 2049.95 1513.66 Z" fill="#000000" fill-rule="nonzero" fill-opacity="1" /><path clip-path="url(#clip490)" d="M2070.11 1542.97 L2075 1542.97 L2075 1548.85 L2070.11 1548.85 L2070.11 1542.97 Z" fill="#000000" fill-rule="nonzero" fill-opacity="1" /><path clip-path="url(#clip490)" d="M2095.18 1532.44 Q2091.85 1532.44 2089.93 1534.22 Q2088.03 1536 2088.03 1539.13 Q2088.03 1542.25 2089.93 1544.03 Q2091.85 1545.82 2095.18 1545.82 Q2098.52 1545.82 2100.44 1544.03 Q2102.36 1542.23 2102.36 1539.13 Q2102.36 1536 2100.44 1534.22 Q2098.54 1532.44 2095.18 1532.44 M2090.51 1530.45 Q2087.5 1529.7 2085.81 1527.64 Q2084.14 1525.58 2084.14 1522.62 Q2084.14 1518.48 2087.08 1516.07 Q2090.04 1513.66 2095.18 1513.66 Q2100.35 1513.66 2103.29 1516.07 Q2106.23 1518.48 2106.23 1522.62 Q2106.23 1525.58 2104.54 1527.64 Q2102.87 1529.7 2099.88 1530.45 Q2103.26 1531.23 2105.14 1533.52 Q2107.04 1535.82 2107.04 1539.13 Q2107.04 1544.15 2103.96 1546.83 Q2100.9 1549.52 2095.18 1549.52 Q2089.47 1549.52 2086.39 1546.83 Q2083.33 1544.15 2083.33 1539.13 Q2083.33 1535.82 2085.23 1533.52 Q2087.13 1531.23 2090.51 1530.45 M2088.79 1523.06 Q2088.79 1525.75 2090.46 1527.25 Q2092.15 1528.76 2095.18 1528.76 Q2098.19 1528.76 2099.88 1527.25 Q2101.6 1525.75 2101.6 1523.06 Q2101.6 1520.38 2099.88 1518.87 Q2098.19 1517.37 2095.18 1517.37 Q2092.15 1517.37 2090.46 1518.87 Q2088.79 1520.38 2088.79 1523.06 Z" fill="#000000" fill-rule="nonzero" fill-opacity="1" /><polyline clip-path="url(#clip492)" style="stroke:#000000; stroke-linecap:round; stroke-linejoin:round; stroke-width:2; stroke-opacity:0.1; fill:none" points="110.881,1485.4 2352.76,1485.4 "/>
<polyline clip-path="url(#clip492)" style="stroke:#000000; stroke-linecap:round; stroke-linejoin:round; stroke-width:2; stroke-opacity:0.1; fill:none" points="110.881,1048.84 2352.76,1048.84 "/>
<polyline clip-path="url(#clip492)" style="stroke:#000000; stroke-linecap:round; stroke-linejoin:round; stroke-width:2; stroke-opacity:0.1; fill:none" points="110.881,612.276 2352.76,612.276 "/>
<polyline clip-path="url(#clip492)" style="stroke:#000000; stroke-linecap:round; stroke-linejoin:round; stroke-width:2; stroke-opacity:0.1; fill:none" points="110.881,175.712 2352.76,175.712 "/>
<polyline clip-path="url(#clip490)" style="stroke:#000000; stroke-linecap:round; stroke-linejoin:round; stroke-width:4; stroke-opacity:1; fill:none" points="110.881,1486.45 110.881,47.2441 "/>
<polyline clip-path="url(#clip490)" style="stroke:#000000; stroke-linecap:round; stroke-linejoin:round; stroke-width:4; stroke-opacity:1; fill:none" points="110.881,1485.4 129.779,1485.4 "/>
<polyline clip-path="url(#clip490)" style="stroke:#000000; stroke-linecap:round; stroke-linejoin:round; stroke-width:4; stroke-opacity:1; fill:none" points="110.881,1048.84 129.779,1048.84 "/>
<polyline clip-path="url(#clip490)" style="stroke:#000000; stroke-linecap:round; stroke-linejoin:round; stroke-width:4; stroke-opacity:1; fill:none" points="110.881,612.276 129.779,612.276 "/>
<polyline clip-path="url(#clip490)" style="stroke:#000000; stroke-linecap:round; stroke-linejoin:round; stroke-width:4; stroke-opacity:1; fill:none" points="110.881,175.712 129.779,175.712 "/>
<path clip-path="url(#clip490)" d="M62.9365 1471.2 Q59.3254 1471.2 57.4967 1474.77 Q55.6912 1478.31 55.6912 1485.44 Q55.6912 1492.54 57.4967 1496.11 Q59.3254 1499.65 62.9365 1499.65 Q66.5707 1499.65 68.3763 1496.11 Q70.205 1492.54 70.205 1485.44 Q70.205 1478.31 68.3763 1474.77 Q66.5707 1471.2 62.9365 1471.2 M62.9365 1467.5 Q68.7467 1467.5 71.8022 1472.1 Q74.8809 1476.69 74.8809 1485.44 Q74.8809 1494.16 71.8022 1498.77 Q68.7467 1503.35 62.9365 1503.35 Q57.1264 1503.35 54.0477 1498.77 Q50.9921 1494.16 50.9921 1485.44 Q50.9921 1476.69 54.0477 1472.1 Q57.1264 1467.5 62.9365 1467.5 Z" fill="#000000" fill-rule="nonzero" fill-opacity="1" /><path clip-path="url(#clip490)" d="M54.9736 1062.18 L62.6124 1062.18 L62.6124 1035.82 L54.3023 1037.48 L54.3023 1033.23 L62.5661 1031.56 L67.242 1031.56 L67.242 1062.18 L74.8809 1062.18 L74.8809 1066.12 L54.9736 1066.12 L54.9736 1062.18 Z" fill="#000000" fill-rule="nonzero" fill-opacity="1" /><path clip-path="url(#clip490)" d="M58.5615 625.62 L74.8809 625.62 L74.8809 629.556 L52.9366 629.556 L52.9366 625.62 Q55.5986 622.866 60.1819 618.236 Q64.7883 613.583 65.9689 612.241 Q68.2143 609.718 69.0939 607.982 Q69.9967 606.222 69.9967 604.533 Q69.9967 601.778 68.0522 600.042 Q66.1309 598.306 63.0291 598.306 Q60.83 598.306 58.3763 599.07 Q55.9458 599.833 53.168 601.384 L53.168 596.662 Q55.9921 595.528 58.4458 594.949 Q60.8995 594.371 62.9365 594.371 Q68.3068 594.371 71.5013 597.056 Q74.6957 599.741 74.6957 604.232 Q74.6957 606.361 73.8855 608.283 Q73.0985 610.181 70.992 612.773 Q70.4133 613.445 67.3115 616.662 Q64.2096 619.857 58.5615 625.62 Z" fill="#000000" fill-rule="nonzero" fill-opacity="1" /><path clip-path="url(#clip490)" d="M67.7513 174.358 Q71.1078 175.076 72.9827 177.344 Q74.8809 179.613 74.8809 182.946 Q74.8809 188.062 71.3624 190.863 Q67.8439 193.663 61.3624 193.663 Q59.1865 193.663 56.8717 193.224 Q54.5801 192.807 52.1264 191.951 L52.1264 187.437 Q54.0708 188.571 56.3856 189.15 Q58.7004 189.728 61.2236 189.728 Q65.6217 189.728 67.9133 187.992 Q70.2281 186.256 70.2281 182.946 Q70.2281 179.89 68.0754 178.177 Q65.9457 176.441 62.1263 176.441 L58.0986 176.441 L58.0986 172.599 L62.3115 172.599 Q65.7606 172.599 67.5893 171.233 Q69.418 169.844 69.418 167.252 Q69.418 164.59 67.5198 163.178 Q65.6448 161.742 62.1263 161.742 Q60.205 161.742 58.006 162.159 Q55.8069 162.576 53.168 163.455 L53.168 159.289 Q55.8301 158.548 58.1449 158.178 Q60.4828 157.807 62.543 157.807 Q67.867 157.807 70.9689 160.238 Q74.0707 162.645 74.0707 166.765 Q74.0707 169.636 72.4272 171.627 Q70.7837 173.594 67.7513 174.358 Z" fill="#000000" fill-rule="nonzero" fill-opacity="1" /><polyline clip-path="url(#clip492)" style="stroke:#009af9; stroke-linecap:round; stroke-linejoin:round; stroke-width:4; stroke-opacity:1; fill:none" points="110.881,87.9763 114.53,95.2434 118.179,102.51 121.828,109.778 125.477,117.045 133.912,133.843 142.347,150.642 146.564,159.041 150.782,167.441 154.999,175.772 159.217,179.702 167.652,187.563 176.087,195.424 184.522,203.285 192.956,211.145 226.696,242.588 260.436,274.031 300.989,311.823 341.541,349.615 375.828,381.567 410.115,413.519 484.604,482.938 553.277,546.936 571.684,564.089 590.09,581.242 608.496,598.395 626.902,614.203 648.228,625.904 669.553,637.606 690.878,649.308 712.204,661.01 788.01,702.606 854.484,739.083 926.96,778.852 999.866,818.858 1080.47,863.089 1157.17,905.174 1236.91,948.933 1304.04,985.768 1345.02,1008.25 1386,1030.74 1423.54,1050.59 1461.08,1065.03 1530.42,1091.71 1600.66,1118.73 1679.38,1149.01 1750.71,1176.45 1832.38,1207.87 1908,1236.96 1982.55,1265.64 2054.93,1293.48 2129.13,1322.03 2210.43,1353.3 2328.53,1398.73 2352.76,1408.05 "/>
<polyline clip-path="url(#clip492)" style="stroke:#e26f46; stroke-linecap:round; stroke-linejoin:round; stroke-width:4; stroke-opacity:1; fill:none" points="110.881,483.054 114.53,487.923 118.179,492.749 121.828,497.533 125.477,502.275 159.217,544.336 192.956,583.615 209.826,602.369 226.696,620.538 243.566,637.769 260.436,654.128 280.713,672.801 300.989,690.548 321.265,707.494 341.541,723.739 375.828,749.83 410.115,774.443 447.359,799.767 484.604,823.833 518.941,845.053 553.277,865.455 590.09,886.521 626.902,906.838 669.553,929.539 712.204,951.43 788.01,988.586 854.484,1019.56 926.96,1051.84 999.866,1082.13 1080.47,1113.01 1157.17,1140.35 1236.91,1167.06 1304.04,1188.4 1386,1213.24 1461.08,1234.96 1530.42,1254.27 1600.66,1273.15 1679.38,1293.59 1750.71,1311.52 1832.38,1331.42 1908,1349.29 1982.55,1366.44 2054.93,1382.67 2129.13,1398.91 2210.43,1416.29 2328.53,1440.79 2352.76,1445.72 "/>
<path clip-path="url(#clip490)" d="M1993.98 250.738 L2278.03 250.738 L2278.03 95.2176 L1993.98 95.2176  Z" fill="#ffffff" fill-rule="evenodd" fill-opacity="1"/>
<polyline clip-path="url(#clip490)" style="stroke:#000000; stroke-linecap:round; stroke-linejoin:round; stroke-width:4; stroke-opacity:1; fill:none" points="1993.98,250.738 2278.03,250.738 2278.03,95.2176 1993.98,95.2176 1993.98,250.738 "/>
<polyline clip-path="url(#clip490)" style="stroke:#009af9; stroke-linecap:round; stroke-linejoin:round; stroke-width:4; stroke-opacity:1; fill:none" points="2018.89,147.058 2168.35,147.058 "/>
<path clip-path="url(#clip490)" d="M2218.81 159.407 L2218.81 150.125 L2211.17 150.125 L2211.17 146.282 L2223.44 146.282 L2223.44 161.12 Q2220.73 163.041 2217.47 164.037 Q2214.21 165.009 2210.5 165.009 Q2202.4 165.009 2197.82 160.287 Q2193.26 155.541 2193.26 147.092 Q2193.26 138.62 2197.82 133.898 Q2202.4 129.153 2210.5 129.153 Q2213.88 129.153 2216.91 129.986 Q2219.97 130.819 2222.54 132.44 L2222.54 137.416 Q2219.95 135.217 2217.03 134.106 Q2214.11 132.995 2210.9 132.995 Q2204.55 132.995 2201.36 136.537 Q2198.19 140.078 2198.19 147.092 Q2198.19 154.083 2201.36 157.625 Q2204.55 161.166 2210.9 161.166 Q2213.37 161.166 2215.32 160.75 Q2217.26 160.31 2218.81 159.407 Z" fill="#000000" fill-rule="nonzero" fill-opacity="1" /><path clip-path="url(#clip490)" d="M2233.21 160.402 L2240.85 160.402 L2240.85 134.037 L2232.54 135.703 L2232.54 131.444 L2240.8 129.778 L2245.48 129.778 L2245.48 160.402 L2253.12 160.402 L2253.12 164.338 L2233.21 164.338 L2233.21 160.402 Z" fill="#000000" fill-rule="nonzero" fill-opacity="1" /><polyline clip-path="url(#clip490)" style="stroke:#e26f46; stroke-linecap:round; stroke-linejoin:round; stroke-width:4; stroke-opacity:1; fill:none" points="2018.89,198.898 2168.35,198.898 "/>
<path clip-path="url(#clip490)" d="M2218.81 211.247 L2218.81 201.965 L2211.17 201.965 L2211.17 198.122 L2223.44 198.122 L2223.44 212.96 Q2220.73 214.881 2217.47 215.877 Q2214.21 216.849 2210.5 216.849 Q2202.4 216.849 2197.82 212.127 Q2193.26 207.381 2193.26 198.932 Q2193.26 190.46 2197.82 185.738 Q2202.4 180.993 2210.5 180.993 Q2213.88 180.993 2216.91 181.826 Q2219.97 182.659 2222.54 184.28 L2222.54 189.256 Q2219.95 187.057 2217.03 185.946 Q2214.11 184.835 2210.9 184.835 Q2204.55 184.835 2201.36 188.377 Q2198.19 191.918 2198.19 198.932 Q2198.19 205.923 2201.36 209.465 Q2204.55 213.006 2210.9 213.006 Q2213.37 213.006 2215.32 212.59 Q2217.26 212.15 2218.81 211.247 Z" fill="#000000" fill-rule="nonzero" fill-opacity="1" /><path clip-path="url(#clip490)" d="M2236.43 212.242 L2252.75 212.242 L2252.75 216.178 L2230.8 216.178 L2230.8 212.242 Q2233.46 209.488 2238.05 204.858 Q2242.65 200.205 2243.83 198.863 Q2246.08 196.34 2246.96 194.604 Q2247.86 192.844 2247.86 191.155 Q2247.86 188.4 2245.92 186.664 Q2244 184.928 2240.89 184.928 Q2238.7 184.928 2236.24 185.692 Q2233.81 186.455 2231.03 188.006 L2231.03 183.284 Q2233.86 182.15 2236.31 181.571 Q2238.77 180.993 2240.8 180.993 Q2246.17 180.993 2249.37 183.678 Q2252.56 186.363 2252.56 190.854 Q2252.56 192.983 2251.75 194.905 Q2250.96 196.803 2248.86 199.395 Q2248.28 200.067 2245.18 203.284 Q2242.08 206.479 2236.43 212.242 Z" fill="#000000" fill-rule="nonzero" fill-opacity="1" /></svg>
