<?xml version="1.0" encoding="utf-8"?>
<svg xmlns="http://www.w3.org/2000/svg" xmlns:xlink="http://www.w3.org/1999/xlink" width="600" height="400" viewBox="0 0 2400 1600">
<defs>
  <clipPath id="clip220">
    <rect x="0" y="0" width="2400" height="1600"/>
  </clipPath>
</defs>
<path clip-path="url(#clip220)" d="M0 1600 L2400 1600 L2400 0 L0 0  Z" fill="#ffffff" fill-rule="evenodd" fill-opacity="1"/>
<defs>
  <clipPath id="clip221">
    <rect x="480" y="0" width="1681" height="1600"/>
  </clipPath>
</defs>
<path clip-path="url(#clip220)" d="M170.857 1486.45 L1152.76 1486.45 L1152.76 47.2441 L170.857 47.2441  Z" fill="#ffffff" fill-rule="evenodd" fill-opacity="1"/>
<defs>
  <clipPath id="clip222">
    <rect x="170" y="47" width="983" height="1440"/>
  </clipPath>
</defs>
<polyline clip-path="url(#clip222)" style="stroke:#000000; stroke-linecap:round; stroke-linejoin:round; stroke-width:2; stroke-opacity:0.1; fill:none" points="224.864,1486.45 224.864,47.2441 "/>
<polyline clip-path="url(#clip222)" style="stroke:#000000; stroke-linecap:round; stroke-linejoin:round; stroke-width:2; stroke-opacity:0.1; fill:none" points="359.308,1486.45 359.308,47.2441 "/>
<polyline clip-path="url(#clip222)" style="stroke:#000000; stroke-linecap:round; stroke-linejoin:round; stroke-width:2; stroke-opacity:0.1; fill:none" points="493.752,1486.45 493.752,47.2441 "/>
<polyline clip-path="url(#clip222)" style="stroke:#000000; stroke-linecap:round; stroke-linejoin:round; stroke-width:2; stroke-opacity:0.1; fill:none" points="628.196,1486.45 628.196,47.2441 "/>
<polyline clip-path="url(#clip222)" style="stroke:#000000; stroke-linecap:round; stroke-linejoin:round; stroke-width:2; stroke-opacity:0.1; fill:none" points="762.64,1486.45 762.64,47.2441 "/>
<polyline clip-path="url(#clip222)" style="stroke:#000000; stroke-linecap:round; stroke-linejoin:round; stroke-width:2; stroke-opacity:0.1; fill:none" points="897.084,1486.45 897.084,47.2441 "/>
<polyline clip-path="url(#clip222)" style="stroke:#000000; stroke-linecap:round; stroke-linejoin:round; stroke-width:2; stroke-opacity:0.1; fill:none" points="1031.53,1486.45 1031.53,47.2441 "/>
<polyline clip-path="url(#clip222)" style="stroke:#000000; stroke-linecap:round; stroke-linejoin:round; stroke-width:2; stroke-opacity:0.1; fill:none" points="170.857,1486.45 1152.76,1486.45 "/>
<polyline clip-path="url(#clip222)" style="stroke:#000000; stroke-linecap:round; stroke-linejoin:round; stroke-width:2; stroke-opacity:0.1; fill:none" points="170.857,1128.44 1152.76,1128.44 "/>
<polyline clip-path="url(#clip222)" style="stroke:#000000; stroke-linecap:round; stroke-linejoin:round; stroke-width:2; stroke-opacity:0.1; fill:none" points="170.857,770.426 1152.76,770.426 "/>
<polyline clip-path="url(#clip222)" style="stroke:#000000; stroke-linecap:round; stroke-linejoin:round; stroke-width:2; stroke-opacity:0.1; fill:none" points="170.857,412.415 1152.76,412.415 "/>
<polyline clip-path="url(#clip222)" style="stroke:#000000; stroke-linecap:round; stroke-linejoin:round; stroke-width:2; stroke-opacity:0.1; fill:none" points="170.857,54.4043 1152.76,54.4043 "/>
<polyline clip-path="url(#clip220)" style="stroke:#000000; stroke-linecap:round; stroke-linejoin:round; stroke-width:4; stroke-opacity:1; fill:none" points="170.857,1486.45 1152.76,1486.45 "/>
<polyline clip-path="url(#clip220)" style="stroke:#000000; stroke-linecap:round; stroke-linejoin:round; stroke-width:4; stroke-opacity:1; fill:none" points="224.864,1486.45 224.864,1467.55 "/>
<polyline clip-path="url(#clip220)" style="stroke:#000000; stroke-linecap:round; stroke-linejoin:round; stroke-width:4; stroke-opacity:1; fill:none" points="359.308,1486.45 359.308,1467.55 "/>
<polyline clip-path="url(#clip220)" style="stroke:#000000; stroke-linecap:round; stroke-linejoin:round; stroke-width:4; stroke-opacity:1; fill:none" points="493.752,1486.45 493.752,1467.55 "/>
<polyline clip-path="url(#clip220)" style="stroke:#000000; stroke-linecap:round; stroke-linejoin:round; stroke-width:4; stroke-opacity:1; fill:none" points="628.196,1486.45 628.196,1467.55 "/>
<polyline clip-path="url(#clip220)" style="stroke:#000000; stroke-linecap:round; stroke-linejoin:round; stroke-width:4; stroke-opacity:1; fill:none" points="762.64,1486.45 762.64,1467.55 "/>
<polyline clip-path="url(#clip220)" style="stroke:#000000; stroke-linecap:round; stroke-linejoin:round; stroke-width:4; stroke-opacity:1; fill:none" points="897.084,1486.45 897.084,1467.55 "/>
<polyline clip-path="url(#clip220)" style="stroke:#000000; stroke-linecap:round; stroke-linejoin:round; stroke-width:4; stroke-opacity:1; fill:none" points="1031.53,1486.45 1031.53,1467.55 "/>
<path clip-path="url(#clip220)" d="M219.516 1544.91 L235.836 1544.91 L235.836 1548.85 L213.891 1548.85 L213.891 1544.91 Q216.553 1542.16 221.137 1537.53 Q225.743 1532.88 226.924 1531.53 Q229.169 1529.01 230.049 1527.27 Q230.952 1525.51 230.952 1523.82 Q230.952 1521.07 229.007 1519.33 Q227.086 1517.6 223.984 1517.6 Q221.785 1517.6 219.331 1518.36 Q216.901 1519.13 214.123 1520.68 L214.123 1515.95 Q216.947 1514.82 219.401 1514.24 Q221.854 1513.66 223.891 1513.66 Q229.262 1513.66 232.456 1516.35 Q235.651 1519.03 235.651 1523.52 Q235.651 1525.65 234.84 1527.57 Q234.053 1529.47 231.947 1532.07 Q231.368 1532.74 228.266 1535.95 Q225.165 1539.15 219.516 1544.91 Z" fill="#000000" fill-rule="nonzero" fill-opacity="1" /><path clip-path="url(#clip220)" d="M362.317 1518.36 L350.511 1536.81 L362.317 1536.81 L362.317 1518.36 M361.09 1514.29 L366.97 1514.29 L366.97 1536.81 L371.9 1536.81 L371.9 1540.7 L366.97 1540.7 L366.97 1548.85 L362.317 1548.85 L362.317 1540.7 L346.715 1540.7 L346.715 1536.19 L361.09 1514.29 Z" fill="#000000" fill-rule="nonzero" fill-opacity="1" /><path clip-path="url(#clip220)" d="M494.157 1529.7 Q491.009 1529.7 489.157 1531.86 Q487.328 1534.01 487.328 1537.76 Q487.328 1541.49 489.157 1543.66 Q491.009 1545.82 494.157 1545.82 Q497.305 1545.82 499.134 1543.66 Q500.985 1541.49 500.985 1537.76 Q500.985 1534.01 499.134 1531.86 Q497.305 1529.7 494.157 1529.7 M503.439 1515.05 L503.439 1519.31 Q501.68 1518.48 499.874 1518.04 Q498.092 1517.6 496.333 1517.6 Q491.703 1517.6 489.249 1520.72 Q486.819 1523.85 486.472 1530.17 Q487.837 1528.15 489.897 1527.09 Q491.958 1526 494.434 1526 Q499.643 1526 502.652 1529.17 Q505.684 1532.32 505.684 1537.76 Q505.684 1543.08 502.536 1546.3 Q499.388 1549.52 494.157 1549.52 Q488.161 1549.52 484.99 1544.94 Q481.819 1540.33 481.819 1531.6 Q481.819 1523.41 485.708 1518.55 Q489.597 1513.66 496.147 1513.66 Q497.907 1513.66 499.689 1514.01 Q501.495 1514.36 503.439 1515.05 Z" fill="#000000" fill-rule="nonzero" fill-opacity="1" /><path clip-path="url(#clip220)" d="M628.196 1532.44 Q624.862 1532.44 622.941 1534.22 Q621.043 1536 621.043 1539.13 Q621.043 1542.25 622.941 1544.03 Q624.862 1545.82 628.196 1545.82 Q631.529 1545.82 633.45 1544.03 Q635.372 1542.23 635.372 1539.13 Q635.372 1536 633.45 1534.22 Q631.552 1532.44 628.196 1532.44 M623.52 1530.45 Q620.511 1529.7 618.821 1527.64 Q617.154 1525.58 617.154 1522.62 Q617.154 1518.48 620.094 1516.07 Q623.057 1513.66 628.196 1513.66 Q633.358 1513.66 636.297 1516.07 Q639.237 1518.48 639.237 1522.62 Q639.237 1525.58 637.547 1527.64 Q635.881 1529.7 632.895 1530.45 Q636.274 1531.23 638.149 1533.52 Q640.047 1535.82 640.047 1539.13 Q640.047 1544.15 636.969 1546.83 Q633.913 1549.52 628.196 1549.52 Q622.478 1549.52 619.399 1546.83 Q616.344 1544.15 616.344 1539.13 Q616.344 1535.82 618.242 1533.52 Q620.14 1531.23 623.52 1530.45 M621.807 1523.06 Q621.807 1525.75 623.473 1527.25 Q625.163 1528.76 628.196 1528.76 Q631.205 1528.76 632.895 1527.25 Q634.608 1525.75 634.608 1523.06 Q634.608 1520.38 632.895 1518.87 Q631.205 1517.37 628.196 1517.37 Q625.163 1517.37 623.473 1518.87 Q621.807 1520.38 621.807 1523.06 Z" fill="#000000" fill-rule="nonzero" fill-opacity="1" /><path clip-path="url(#clip220)" d="M737.327 1544.91 L744.966 1544.91 L744.966 1518.55 L736.656 1520.21 L736.656 1515.95 L744.92 1514.29 L749.596 1514.29 L749.596 1544.91 L757.235 1544.91 L757.235 1548.85 L737.327 1548.85 L737.327 1544.91 Z" fill="#000000" fill-rule="nonzero" fill-opacity="1" /><path clip-path="url(#clip220)" d="M776.679 1517.37 Q773.068 1517.37 771.239 1520.93 Q769.434 1524.47 769.434 1531.6 Q769.434 1538.71 771.239 1542.27 Q773.068 1545.82 776.679 1545.82 Q780.313 1545.82 782.119 1542.27 Q783.947 1538.71 783.947 1531.6 Q783.947 1524.47 782.119 1520.93 Q780.313 1517.37 776.679 1517.37 M776.679 1513.66 Q782.489 1513.66 785.545 1518.27 Q788.623 1522.85 788.623 1531.6 Q788.623 1540.33 785.545 1544.94 Q782.489 1549.52 776.679 1549.52 Q770.869 1549.52 767.79 1544.94 Q764.735 1540.33 764.735 1531.6 Q764.735 1522.85 767.79 1518.27 Q770.869 1513.66 776.679 1513.66 Z" fill="#000000" fill-rule="nonzero" fill-opacity="1" /><path clip-path="url(#clip220)" d="M872.57 1544.91 L880.209 1544.91 L880.209 1518.55 L871.899 1520.21 L871.899 1515.95 L880.162 1514.29 L884.838 1514.29 L884.838 1544.91 L892.477 1544.91 L892.477 1548.85 L872.57 1548.85 L872.57 1544.91 Z" fill="#000000" fill-rule="nonzero" fill-opacity="1" /><path clip-path="url(#clip220)" d="M905.949 1544.91 L922.269 1544.91 L922.269 1548.85 L900.324 1548.85 L900.324 1544.91 Q902.986 1542.16 907.57 1537.53 Q912.176 1532.88 913.357 1531.53 Q915.602 1529.01 916.482 1527.27 Q917.385 1525.51 917.385 1523.82 Q917.385 1521.07 915.44 1519.33 Q913.519 1517.6 910.417 1517.6 Q908.218 1517.6 905.764 1518.36 Q903.334 1519.13 900.556 1520.68 L900.556 1515.95 Q903.38 1514.82 905.834 1514.24 Q908.287 1513.66 910.324 1513.66 Q915.695 1513.66 918.889 1516.35 Q922.084 1519.03 922.084 1523.52 Q922.084 1525.65 921.273 1527.57 Q920.486 1529.47 918.38 1532.07 Q917.801 1532.74 914.699 1535.95 Q911.598 1539.15 905.949 1544.91 Z" fill="#000000" fill-rule="nonzero" fill-opacity="1" /><path clip-path="url(#clip220)" d="M1005.97 1544.91 L1013.61 1544.91 L1013.61 1518.55 L1005.3 1520.21 L1005.3 1515.95 L1013.56 1514.29 L1018.24 1514.29 L1018.24 1544.91 L1025.88 1544.91 L1025.88 1548.85 L1005.97 1548.85 L1005.97 1544.91 Z" fill="#000000" fill-rule="nonzero" fill-opacity="1" /><path clip-path="url(#clip220)" d="M1048.17 1518.36 L1036.37 1536.81 L1048.17 1536.81 L1048.17 1518.36 M1046.94 1514.29 L1052.82 1514.29 L1052.82 1536.81 L1057.75 1536.81 L1057.75 1540.7 L1052.82 1540.7 L1052.82 1548.85 L1048.17 1548.85 L1048.17 1540.7 L1032.57 1540.7 L1032.57 1536.19 L1046.94 1514.29 Z" fill="#000000" fill-rule="nonzero" fill-opacity="1" /><polyline clip-path="url(#clip220)" style="stroke:#000000; stroke-linecap:round; stroke-linejoin:round; stroke-width:4; stroke-opacity:1; fill:none" points="170.857,1486.45 170.857,47.2441 "/>
<polyline clip-path="url(#clip220)" style="stroke:#000000; stroke-linecap:round; stroke-linejoin:round; stroke-width:4; stroke-opacity:1; fill:none" points="170.857,1486.45 189.755,1486.45 "/>
<polyline clip-path="url(#clip220)" style="stroke:#000000; stroke-linecap:round; stroke-linejoin:round; stroke-width:4; stroke-opacity:1; fill:none" points="170.857,1128.44 189.755,1128.44 "/>
<polyline clip-path="url(#clip220)" style="stroke:#000000; stroke-linecap:round; stroke-linejoin:round; stroke-width:4; stroke-opacity:1; fill:none" points="170.857,770.426 189.755,770.426 "/>
<polyline clip-path="url(#clip220)" style="stroke:#000000; stroke-linecap:round; stroke-linejoin:round; stroke-width:4; stroke-opacity:1; fill:none" points="170.857,412.415 189.755,412.415 "/>
<polyline clip-path="url(#clip220)" style="stroke:#000000; stroke-linecap:round; stroke-linejoin:round; stroke-width:4; stroke-opacity:1; fill:none" points="170.857,54.4043 189.755,54.4043 "/>
<path clip-path="url(#clip220)" d="M122.913 1472.25 Q119.302 1472.25 117.473 1475.81 Q115.668 1479.35 115.668 1486.48 Q115.668 1493.59 117.473 1497.15 Q119.302 1500.7 122.913 1500.7 Q126.547 1500.7 128.353 1497.15 Q130.182 1493.59 130.182 1486.48 Q130.182 1479.35 128.353 1475.81 Q126.547 1472.25 122.913 1472.25 M122.913 1468.54 Q128.723 1468.54 131.779 1473.15 Q134.857 1477.73 134.857 1486.48 Q134.857 1495.21 131.779 1499.82 Q128.723 1504.4 122.913 1504.4 Q117.103 1504.4 114.024 1499.82 Q110.969 1495.21 110.969 1486.48 Q110.969 1477.73 114.024 1473.15 Q117.103 1468.54 122.913 1468.54 Z" fill="#000000" fill-rule="nonzero" fill-opacity="1" /><path clip-path="url(#clip220)" d="M82.7975 1111.16 L101.154 1111.16 L101.154 1115.09 L87.0799 1115.09 L87.0799 1123.56 Q88.0984 1123.22 89.1169 1123.06 Q90.1354 1122.87 91.1539 1122.87 Q96.941 1122.87 100.321 1126.04 Q103.7 1129.21 103.7 1134.63 Q103.7 1140.21 100.228 1143.31 Q96.7558 1146.39 90.4364 1146.39 Q88.2604 1146.39 85.9919 1146.02 Q83.7466 1145.65 81.3392 1144.91 L81.3392 1140.21 Q83.4225 1141.34 85.6447 1141.9 Q87.8669 1142.45 90.3438 1142.45 Q94.3484 1142.45 96.6863 1140.35 Q99.0243 1138.24 99.0243 1134.63 Q99.0243 1131.02 96.6863 1128.91 Q94.3484 1126.81 90.3438 1126.81 Q88.4688 1126.81 86.5938 1127.22 Q84.7419 1127.64 82.7975 1128.52 L82.7975 1111.16 Z" fill="#000000" fill-rule="nonzero" fill-opacity="1" /><path clip-path="url(#clip220)" d="M122.913 1114.24 Q119.302 1114.24 117.473 1117.8 Q115.668 1121.34 115.668 1128.47 Q115.668 1135.58 117.473 1139.14 Q119.302 1142.68 122.913 1142.68 Q126.547 1142.68 128.353 1139.14 Q130.182 1135.58 130.182 1128.47 Q130.182 1121.34 128.353 1117.8 Q126.547 1114.24 122.913 1114.24 M122.913 1110.53 Q128.723 1110.53 131.779 1115.14 Q134.857 1119.72 134.857 1128.47 Q134.857 1137.2 131.779 1141.8 Q128.723 1146.39 122.913 1146.39 Q117.103 1146.39 114.024 1141.8 Q110.969 1137.2 110.969 1128.47 Q110.969 1119.72 114.024 1115.14 Q117.103 1110.53 122.913 1110.53 Z" fill="#000000" fill-rule="nonzero" fill-opacity="1" /><path clip-path="url(#clip220)" d="M53.3995 783.771 L61.0384 783.771 L61.0384 757.405 L52.7282 759.072 L52.7282 754.813 L60.9921 753.146 L65.668 753.146 L65.668 783.771 L73.3068 783.771 L73.3068 787.706 L53.3995 787.706 L53.3995 783.771 Z" fill="#000000" fill-rule="nonzero" fill-opacity="1" /><path clip-path="url(#clip220)" d="M92.7512 756.225 Q89.1401 756.225 87.3114 759.79 Q85.5058 763.331 85.5058 770.461 Q85.5058 777.567 87.3114 781.132 Q89.1401 784.674 92.7512 784.674 Q96.3854 784.674 98.1909 781.132 Q100.02 777.567 100.02 770.461 Q100.02 763.331 98.1909 759.79 Q96.3854 756.225 92.7512 756.225 M92.7512 752.521 Q98.5613 752.521 101.617 757.128 Q104.696 761.711 104.696 770.461 Q104.696 779.188 101.617 783.794 Q98.5613 788.377 92.7512 788.377 Q86.941 788.377 83.8623 783.794 Q80.8068 779.188 80.8068 770.461 Q80.8068 761.711 83.8623 757.128 Q86.941 752.521 92.7512 752.521 Z" fill="#000000" fill-rule="nonzero" fill-opacity="1" /><path clip-path="url(#clip220)" d="M122.913 756.225 Q119.302 756.225 117.473 759.79 Q115.668 763.331 115.668 770.461 Q115.668 777.567 117.473 781.132 Q119.302 784.674 122.913 784.674 Q126.547 784.674 128.353 781.132 Q130.182 777.567 130.182 770.461 Q130.182 763.331 128.353 759.79 Q126.547 756.225 122.913 756.225 M122.913 752.521 Q128.723 752.521 131.779 757.128 Q134.857 761.711 134.857 770.461 Q134.857 779.188 131.779 783.794 Q128.723 788.377 122.913 788.377 Q117.103 788.377 114.024 783.794 Q110.969 779.188 110.969 770.461 Q110.969 761.711 114.024 757.128 Q117.103 752.521 122.913 752.521 Z" fill="#000000" fill-rule="nonzero" fill-opacity="1" /><path clip-path="url(#clip220)" d="M53.3995 425.76 L61.0384 425.76 L61.0384 399.394 L52.7282 401.061 L52.7282 396.802 L60.9921 395.135 L65.668 395.135 L65.668 425.76 L73.3068 425.76 L73.3068 429.695 L53.3995 429.695 L53.3995 425.76 Z" fill="#000000" fill-rule="nonzero" fill-opacity="1" /><path clip-path="url(#clip220)" d="M82.7975 395.135 L101.154 395.135 L101.154 399.07 L87.0799 399.07 L87.0799 407.543 Q88.0984 407.195 89.1169 407.033 Q90.1354 406.848 91.1539 406.848 Q96.941 406.848 100.321 410.019 Q103.7 413.191 103.7 418.607 Q103.7 424.186 100.228 427.288 Q96.7558 430.366 90.4364 430.366 Q88.2604 430.366 85.9919 429.996 Q83.7466 429.626 81.3392 428.885 L81.3392 424.186 Q83.4225 425.32 85.6447 425.876 Q87.8669 426.431 90.3438 426.431 Q94.3484 426.431 96.6863 424.325 Q99.0243 422.218 99.0243 418.607 Q99.0243 414.996 96.6863 412.89 Q94.3484 410.783 90.3438 410.783 Q88.4688 410.783 86.5938 411.2 Q84.7419 411.617 82.7975 412.496 L82.7975 395.135 Z" fill="#000000" fill-rule="nonzero" fill-opacity="1" /><path clip-path="url(#clip220)" d="M122.913 398.214 Q119.302 398.214 117.473 401.779 Q115.668 405.32 115.668 412.45 Q115.668 419.556 117.473 423.121 Q119.302 426.663 122.913 426.663 Q126.547 426.663 128.353 423.121 Q130.182 419.556 130.182 412.45 Q130.182 405.32 128.353 401.779 Q126.547 398.214 122.913 398.214 M122.913 394.51 Q128.723 394.51 131.779 399.117 Q134.857 403.7 134.857 412.45 Q134.857 421.177 131.779 425.783 Q128.723 430.366 122.913 430.366 Q117.103 430.366 114.024 425.783 Q110.969 421.177 110.969 412.45 Q110.969 403.7 114.024 399.117 Q117.103 394.51 122.913 394.51 Z" fill="#000000" fill-rule="nonzero" fill-opacity="1" /><path clip-path="url(#clip220)" d="M56.6171 67.7491 L72.9365 67.7491 L72.9365 71.6843 L50.9921 71.6843 L50.9921 67.7491 Q53.6541 64.9945 58.2375 60.3649 Q62.8439 55.7122 64.0245 54.3696 Q66.2698 51.8465 67.1494 50.1104 Q68.0522 48.3511 68.0522 46.6613 Q68.0522 43.9067 66.1078 42.1706 Q64.1865 40.4345 61.0847 40.4345 Q58.8856 40.4345 56.4319 41.1984 Q54.0014 41.9622 51.2236 43.5132 L51.2236 38.791 Q54.0477 37.6567 56.5014 37.078 Q58.955 36.4993 60.9921 36.4993 Q66.3624 36.4993 69.5568 39.1845 Q72.7513 41.8697 72.7513 46.3604 Q72.7513 48.49 71.9411 50.4113 Q71.1541 52.3094 69.0476 54.902 Q68.4689 55.5733 65.367 58.7909 Q62.2652 61.9853 56.6171 67.7491 Z" fill="#000000" fill-rule="nonzero" fill-opacity="1" /><path clip-path="url(#clip220)" d="M92.7512 40.203 Q89.1401 40.203 87.3114 43.7678 Q85.5058 47.3094 85.5058 54.439 Q85.5058 61.5455 87.3114 65.1103 Q89.1401 68.6519 92.7512 68.6519 Q96.3854 68.6519 98.1909 65.1103 Q100.02 61.5455 100.02 54.439 Q100.02 47.3094 98.1909 43.7678 Q96.3854 40.203 92.7512 40.203 M92.7512 36.4993 Q98.5613 36.4993 101.617 41.1058 Q104.696 45.6891 104.696 54.439 Q104.696 63.1658 101.617 67.7723 Q98.5613 72.3556 92.7512 72.3556 Q86.941 72.3556 83.8623 67.7723 Q80.8068 63.1658 80.8068 54.439 Q80.8068 45.6891 83.8623 41.1058 Q86.941 36.4993 92.7512 36.4993 Z" fill="#000000" fill-rule="nonzero" fill-opacity="1" /><path clip-path="url(#clip220)" d="M122.913 40.203 Q119.302 40.203 117.473 43.7678 Q115.668 47.3094 115.668 54.439 Q115.668 61.5455 117.473 65.1103 Q119.302 68.6519 122.913 68.6519 Q126.547 68.6519 128.353 65.1103 Q130.182 61.5455 130.182 54.439 Q130.182 47.3094 128.353 43.7678 Q126.547 40.203 122.913 40.203 M122.913 36.4993 Q128.723 36.4993 131.779 41.1058 Q134.857 45.6891 134.857 54.439 Q134.857 63.1658 131.779 67.7723 Q128.723 72.3556 122.913 72.3556 Q117.103 72.3556 114.024 67.7723 Q110.969 63.1658 110.969 54.439 Q110.969 45.6891 114.024 41.1058 Q117.103 36.4993 122.913 36.4993 Z" fill="#000000" fill-rule="nonzero" fill-opacity="1" /><path clip-path="url(#clip222)" d="M224.864 1479.29 L224.864 1486.45 L258.475 1486.45 L258.475 1479.29 L224.864 1479.29 L224.864 1479.29  Z" fill="#009af9" fill-rule="evenodd" fill-opacity="1"/>
<polyline clip-path="url(#clip222)" style="stroke:#000000; stroke-linecap:round; stroke-linejoin:round; stroke-width:4; stroke-opacity:1; fill:none" points="224.864,1479.29 224.864,1486.45 258.475,1486.45 258.475,1479.29 224.864,1479.29 "/>
<path clip-path="url(#clip222)" d="M258.475 1486.45 L258.475 1486.45 L292.086 1486.45 L292.086 1486.45 L258.475 1486.45 L258.475 1486.45  Z" fill="#009af9" fill-rule="evenodd" fill-opacity="1"/>
<polyline clip-path="url(#clip222)" style="stroke:#000000; stroke-linecap:round; stroke-linejoin:round; stroke-width:4; stroke-opacity:1; fill:none" points="258.475,1486.45 258.475,1486.45 292.086,1486.45 258.475,1486.45 "/>
<path clip-path="url(#clip222)" d="M292.086 1479.29 L292.086 1486.45 L325.697 1486.45 L325.697 1479.29 L292.086 1479.29 L292.086 1479.29  Z" fill="#009af9" fill-rule="evenodd" fill-opacity="1"/>
<polyline clip-path="url(#clip222)" style="stroke:#000000; stroke-linecap:round; stroke-linejoin:round; stroke-width:4; stroke-opacity:1; fill:none" points="292.086,1479.29 292.086,1486.45 325.697,1486.45 325.697,1479.29 292.086,1479.29 "/>
<path clip-path="url(#clip222)" d="M325.697 1472.13 L325.697 1486.45 L359.308 1486.45 L359.308 1472.13 L325.697 1472.13 L325.697 1472.13  Z" fill="#009af9" fill-rule="evenodd" fill-opacity="1"/>
<polyline clip-path="url(#clip222)" style="stroke:#000000; stroke-linecap:round; stroke-linejoin:round; stroke-width:4; stroke-opacity:1; fill:none" points="325.697,1472.13 325.697,1486.45 359.308,1486.45 359.308,1472.13 325.697,1472.13 "/>
<path clip-path="url(#clip222)" d="M359.308 1450.65 L359.308 1486.45 L392.919 1486.45 L392.919 1450.65 L359.308 1450.65 L359.308 1450.65  Z" fill="#009af9" fill-rule="evenodd" fill-opacity="1"/>
<polyline clip-path="url(#clip222)" style="stroke:#000000; stroke-linecap:round; stroke-linejoin:round; stroke-width:4; stroke-opacity:1; fill:none" points="359.308,1450.65 359.308,1486.45 392.919,1486.45 392.919,1450.65 359.308,1450.65 "/>
<path clip-path="url(#clip222)" d="M392.919 1436.33 L392.919 1486.45 L426.53 1486.45 L426.53 1436.33 L392.919 1436.33 L392.919 1436.33  Z" fill="#009af9" fill-rule="evenodd" fill-opacity="1"/>
<polyline clip-path="url(#clip222)" style="stroke:#000000; stroke-linecap:round; stroke-linejoin:round; stroke-width:4; stroke-opacity:1; fill:none" points="392.919,1436.33 392.919,1486.45 426.53,1486.45 426.53,1436.33 392.919,1436.33 "/>
<path clip-path="url(#clip222)" d="M426.53 1464.97 L426.53 1486.45 L460.141 1486.45 L460.141 1464.97 L426.53 1464.97 L426.53 1464.97  Z" fill="#009af9" fill-rule="evenodd" fill-opacity="1"/>
<polyline clip-path="url(#clip222)" style="stroke:#000000; stroke-linecap:round; stroke-linejoin:round; stroke-width:4; stroke-opacity:1; fill:none" points="426.53,1464.97 426.53,1486.45 460.141,1486.45 460.141,1464.97 426.53,1464.97 "/>
<path clip-path="url(#clip222)" d="M460.141 1436.33 L460.141 1486.45 L493.752 1486.45 L493.752 1436.33 L460.141 1436.33 L460.141 1436.33  Z" fill="#009af9" fill-rule="evenodd" fill-opacity="1"/>
<polyline clip-path="url(#clip222)" style="stroke:#000000; stroke-linecap:round; stroke-linejoin:round; stroke-width:4; stroke-opacity:1; fill:none" points="460.141,1436.33 460.141,1486.45 493.752,1486.45 493.752,1436.33 460.141,1436.33 "/>
<path clip-path="url(#clip222)" d="M493.752 1285.96 L493.752 1486.45 L527.363 1486.45 L527.363 1285.96 L493.752 1285.96 L493.752 1285.96  Z" fill="#009af9" fill-rule="evenodd" fill-opacity="1"/>
<polyline clip-path="url(#clip222)" style="stroke:#000000; stroke-linecap:round; stroke-linejoin:round; stroke-width:4; stroke-opacity:1; fill:none" points="493.752,1285.96 493.752,1486.45 527.363,1486.45 527.363,1285.96 493.752,1285.96 "/>
<path clip-path="url(#clip222)" d="M527.363 1106.96 L527.363 1486.45 L560.974 1486.45 L560.974 1106.96 L527.363 1106.96 L527.363 1106.96  Z" fill="#009af9" fill-rule="evenodd" fill-opacity="1"/>
<polyline clip-path="url(#clip222)" style="stroke:#000000; stroke-linecap:round; stroke-linejoin:round; stroke-width:4; stroke-opacity:1; fill:none" points="527.363,1106.96 527.363,1486.45 560.974,1486.45 560.974,1106.96 527.363,1106.96 "/>
<path clip-path="url(#clip222)" d="M560.974 1021.03 L560.974 1486.45 L594.585 1486.45 L594.585 1021.03 L560.974 1021.03 L560.974 1021.03  Z" fill="#009af9" fill-rule="evenodd" fill-opacity="1"/>
<polyline clip-path="url(#clip222)" style="stroke:#000000; stroke-linecap:round; stroke-linejoin:round; stroke-width:4; stroke-opacity:1; fill:none" points="560.974,1021.03 560.974,1486.45 594.585,1486.45 594.585,1021.03 560.974,1021.03 "/>
<path clip-path="url(#clip222)" d="M594.585 548.459 L594.585 1486.45 L628.196 1486.45 L628.196 548.459 L594.585 548.459 L594.585 548.459  Z" fill="#009af9" fill-rule="evenodd" fill-opacity="1"/>
<polyline clip-path="url(#clip222)" style="stroke:#000000; stroke-linecap:round; stroke-linejoin:round; stroke-width:4; stroke-opacity:1; fill:none" points="594.585,548.459 594.585,1486.45 628.196,1486.45 628.196,548.459 594.585,548.459 "/>
<path clip-path="url(#clip222)" d="M628.196 713.144 L628.196 1486.45 L661.807 1486.45 L661.807 713.144 L628.196 713.144 L628.196 713.144  Z" fill="#009af9" fill-rule="evenodd" fill-opacity="1"/>
<polyline clip-path="url(#clip222)" style="stroke:#000000; stroke-linecap:round; stroke-linejoin:round; stroke-width:4; stroke-opacity:1; fill:none" points="628.196,713.144 628.196,1486.45 661.807,1486.45 661.807,713.144 628.196,713.144 "/>
<path clip-path="url(#clip222)" d="M661.807 47.2441 L661.807 1486.45 L695.418 1486.45 L695.418 47.2441 L661.807 47.2441 L661.807 47.2441  Z" fill="#009af9" fill-rule="evenodd" fill-opacity="1"/>
<polyline clip-path="url(#clip222)" style="stroke:#000000; stroke-linecap:round; stroke-linejoin:round; stroke-width:4; stroke-opacity:1; fill:none" points="661.807,47.2441 661.807,1486.45 695.418,1486.45 695.418,47.2441 661.807,47.2441 "/>
<path clip-path="url(#clip222)" d="M695.418 254.89 L695.418 1486.45 L729.029 1486.45 L729.029 254.89 L695.418 254.89 L695.418 254.89  Z" fill="#009af9" fill-rule="evenodd" fill-opacity="1"/>
<polyline clip-path="url(#clip222)" style="stroke:#000000; stroke-linecap:round; stroke-linejoin:round; stroke-width:4; stroke-opacity:1; fill:none" points="695.418,254.89 695.418,1486.45 729.029,1486.45 729.029,254.89 695.418,254.89 "/>
<path clip-path="url(#clip222)" d="M729.029 118.846 L729.029 1486.45 L762.64 1486.45 L762.64 118.846 L729.029 118.846 L729.029 118.846  Z" fill="#009af9" fill-rule="evenodd" fill-opacity="1"/>
<polyline clip-path="url(#clip222)" style="stroke:#000000; stroke-linecap:round; stroke-linejoin:round; stroke-width:4; stroke-opacity:1; fill:none" points="729.029,118.846 729.029,1486.45 762.64,1486.45 762.64,118.846 729.029,118.846 "/>
<path clip-path="url(#clip222)" d="M762.64 319.332 L762.64 1486.45 L796.251 1486.45 L796.251 319.332 L762.64 319.332 L762.64 319.332  Z" fill="#009af9" fill-rule="evenodd" fill-opacity="1"/>
<polyline clip-path="url(#clip222)" style="stroke:#000000; stroke-linecap:round; stroke-linejoin:round; stroke-width:4; stroke-opacity:1; fill:none" points="762.64,319.332 762.64,1486.45 796.251,1486.45 796.251,319.332 762.64,319.332 "/>
<path clip-path="url(#clip222)" d="M796.251 627.222 L796.251 1486.45 L829.862 1486.45 L829.862 627.222 L796.251 627.222 L796.251 627.222  Z" fill="#009af9" fill-rule="evenodd" fill-opacity="1"/>
<polyline clip-path="url(#clip222)" style="stroke:#000000; stroke-linecap:round; stroke-linejoin:round; stroke-width:4; stroke-opacity:1; fill:none" points="796.251,627.222 796.251,1486.45 829.862,1486.45 829.862,627.222 796.251,627.222 "/>
<path clip-path="url(#clip222)" d="M829.862 863.509 L829.862 1486.45 L863.473 1486.45 L863.473 863.509 L829.862 863.509 L829.862 863.509  Z" fill="#009af9" fill-rule="evenodd" fill-opacity="1"/>
<polyline clip-path="url(#clip222)" style="stroke:#000000; stroke-linecap:round; stroke-linejoin:round; stroke-width:4; stroke-opacity:1; fill:none" points="829.862,863.509 829.862,1486.45 863.473,1486.45 863.473,863.509 829.862,863.509 "/>
<path clip-path="url(#clip222)" d="M863.473 942.271 L863.473 1486.45 L897.084 1486.45 L897.084 942.271 L863.473 942.271 L863.473 942.271  Z" fill="#009af9" fill-rule="evenodd" fill-opacity="1"/>
<polyline clip-path="url(#clip222)" style="stroke:#000000; stroke-linecap:round; stroke-linejoin:round; stroke-width:4; stroke-opacity:1; fill:none" points="863.473,942.271 863.473,1486.45 897.084,1486.45 897.084,942.271 863.473,942.271 "/>
<path clip-path="url(#clip222)" d="M897.084 1250.16 L897.084 1486.45 L930.695 1486.45 L930.695 1250.16 L897.084 1250.16 L897.084 1250.16  Z" fill="#009af9" fill-rule="evenodd" fill-opacity="1"/>
<polyline clip-path="url(#clip222)" style="stroke:#000000; stroke-linecap:round; stroke-linejoin:round; stroke-width:4; stroke-opacity:1; fill:none" points="897.084,1250.16 897.084,1486.45 930.695,1486.45 930.695,1250.16 897.084,1250.16 "/>
<path clip-path="url(#clip222)" d="M930.695 1300.28 L930.695 1486.45 L964.306 1486.45 L964.306 1300.28 L930.695 1300.28 L930.695 1300.28  Z" fill="#009af9" fill-rule="evenodd" fill-opacity="1"/>
<polyline clip-path="url(#clip222)" style="stroke:#000000; stroke-linecap:round; stroke-linejoin:round; stroke-width:4; stroke-opacity:1; fill:none" points="930.695,1300.28 930.695,1486.45 964.306,1486.45 964.306,1300.28 930.695,1300.28 "/>
<path clip-path="url(#clip222)" d="M964.306 1386.2 L964.306 1486.45 L997.917 1486.45 L997.917 1386.2 L964.306 1386.2 L964.306 1386.2  Z" fill="#009af9" fill-rule="evenodd" fill-opacity="1"/>
<polyline clip-path="url(#clip222)" style="stroke:#000000; stroke-linecap:round; stroke-linejoin:round; stroke-width:4; stroke-opacity:1; fill:none" points="964.306,1386.2 964.306,1486.45 997.917,1486.45 997.917,1386.2 964.306,1386.2 "/>
<path clip-path="url(#clip222)" d="M997.917 1450.65 L997.917 1486.45 L1031.53 1486.45 L1031.53 1450.65 L997.917 1450.65 L997.917 1450.65  Z" fill="#009af9" fill-rule="evenodd" fill-opacity="1"/>
<polyline clip-path="url(#clip222)" style="stroke:#000000; stroke-linecap:round; stroke-linejoin:round; stroke-width:4; stroke-opacity:1; fill:none" points="997.917,1450.65 997.917,1486.45 1031.53,1486.45 1031.53,1450.65 997.917,1450.65 "/>
<path clip-path="url(#clip222)" d="M1031.53 1486.45 L1031.53 1486.45 L1065.14 1486.45 L1065.14 1486.45 L1031.53 1486.45 L1031.53 1486.45  Z" fill="#009af9" fill-rule="evenodd" fill-opacity="1"/>
<polyline clip-path="url(#clip222)" style="stroke:#000000; stroke-linecap:round; stroke-linejoin:round; stroke-width:4; stroke-opacity:1; fill:none" points="1031.53,1486.45 1031.53,1486.45 1065.14,1486.45 1031.53,1486.45 "/>
<path clip-path="url(#clip222)" d="M1065.14 1479.29 L1065.14 1486.45 L1098.75 1486.45 L1098.75 1479.29 L1065.14 1479.29 L1065.14 1479.29  Z" fill="#009af9" fill-rule="evenodd" fill-opacity="1"/>
<polyline clip-path="url(#clip222)" style="stroke:#000000; stroke-linecap:round; stroke-linejoin:round; stroke-width:4; stroke-opacity:1; fill:none" points="1065.14,1479.29 1065.14,1486.45 1098.75,1486.45 1098.75,1479.29 1065.14,1479.29 "/>
<circle clip-path="url(#clip222)" style="fill:#009af9; stroke:none; fill-opacity:0" cx="241.669" cy="1479.29" r="2"/>
<circle clip-path="url(#clip222)" style="fill:#009af9; stroke:none; fill-opacity:0" cx="275.28" cy="1486.45" r="2"/>
<circle clip-path="url(#clip222)" style="fill:#009af9; stroke:none; fill-opacity:0" cx="308.891" cy="1479.29" r="2"/>
<circle clip-path="url(#clip222)" style="fill:#009af9; stroke:none; fill-opacity:0" cx="342.502" cy="1472.13" r="2"/>
<circle clip-path="url(#clip222)" style="fill:#009af9; stroke:none; fill-opacity:0" cx="376.113" cy="1450.65" r="2"/>
<circle clip-path="url(#clip222)" style="fill:#009af9; stroke:none; fill-opacity:0" cx="409.724" cy="1436.33" r="2"/>
<circle clip-path="url(#clip222)" style="fill:#009af9; stroke:none; fill-opacity:0" cx="443.335" cy="1464.97" r="2"/>
<circle clip-path="url(#clip222)" style="fill:#009af9; stroke:none; fill-opacity:0" cx="476.946" cy="1436.33" r="2"/>
<circle clip-path="url(#clip222)" style="fill:#009af9; stroke:none; fill-opacity:0" cx="510.557" cy="1285.96" r="2"/>
<circle clip-path="url(#clip222)" style="fill:#009af9; stroke:none; fill-opacity:0" cx="544.168" cy="1106.96" r="2"/>
<circle clip-path="url(#clip222)" style="fill:#009af9; stroke:none; fill-opacity:0" cx="577.779" cy="1021.03" r="2"/>
<circle clip-path="url(#clip222)" style="fill:#009af9; stroke:none; fill-opacity:0" cx="611.39" cy="548.459" r="2"/>
<circle clip-path="url(#clip222)" style="fill:#009af9; stroke:none; fill-opacity:0" cx="645.001" cy="713.144" r="2"/>
<circle clip-path="url(#clip222)" style="fill:#009af9; stroke:none; fill-opacity:0" cx="678.612" cy="47.2441" r="2"/>
<circle clip-path="url(#clip222)" style="fill:#009af9; stroke:none; fill-opacity:0" cx="712.223" cy="254.89" r="2"/>
<circle clip-path="url(#clip222)" style="fill:#009af9; stroke:none; fill-opacity:0" cx="745.834" cy="118.846" r="2"/>
<circle clip-path="url(#clip222)" style="fill:#009af9; stroke:none; fill-opacity:0" cx="779.445" cy="319.332" r="2"/>
<circle clip-path="url(#clip222)" style="fill:#009af9; stroke:none; fill-opacity:0" cx="813.056" cy="627.222" r="2"/>
<circle clip-path="url(#clip222)" style="fill:#009af9; stroke:none; fill-opacity:0" cx="846.667" cy="863.509" r="2"/>
<circle clip-path="url(#clip222)" style="fill:#009af9; stroke:none; fill-opacity:0" cx="880.278" cy="942.271" r="2"/>
<circle clip-path="url(#clip222)" style="fill:#009af9; stroke:none; fill-opacity:0" cx="913.889" cy="1250.16" r="2"/>
<circle clip-path="url(#clip222)" style="fill:#009af9; stroke:none; fill-opacity:0" cx="947.5" cy="1300.28" r="2"/>
<circle clip-path="url(#clip222)" style="fill:#009af9; stroke:none; fill-opacity:0" cx="981.111" cy="1386.2" r="2"/>
<circle clip-path="url(#clip222)" style="fill:#009af9; stroke:none; fill-opacity:0" cx="1014.72" cy="1450.65" r="2"/>
<circle clip-path="url(#clip222)" style="fill:#009af9; stroke:none; fill-opacity:0" cx="1048.33" cy="1486.45" r="2"/>
<circle clip-path="url(#clip222)" style="fill:#009af9; stroke:none; fill-opacity:0" cx="1081.94" cy="1479.29" r="2"/>
<path clip-path="url(#clip220)" d="M969.406 198.898 L1120.03 198.898 L1120.03 95.2176 L969.406 95.2176  Z" fill="#ffffff" fill-rule="evenodd" fill-opacity="1"/>
<polyline clip-path="url(#clip220)" style="stroke:#000000; stroke-linecap:round; stroke-linejoin:round; stroke-width:4; stroke-opacity:1; fill:none" points="969.406,198.898 1120.03,198.898 1120.03,95.2176 969.406,95.2176 969.406,198.898 "/>
<path clip-path="url(#clip220)" d="M980.316 167.794 L1045.78 167.794 L1045.78 126.322 L980.316 126.322 L980.316 167.794  Z" fill="#009af9" fill-rule="evenodd" fill-opacity="1"/>
<polyline clip-path="url(#clip220)" style="stroke:#000000; stroke-linecap:round; stroke-linejoin:round; stroke-width:4; stroke-opacity:1; fill:none" points="980.316,167.794 1045.78,167.794 1045.78,126.322 980.316,126.322 980.316,167.794 "/>
<path clip-path="url(#clip220)" d="M1070.53 166.745 Q1068.72 171.375 1067.01 172.787 Q1065.3 174.199 1062.43 174.199 L1059.02 174.199 L1059.02 170.634 L1061.52 170.634 Q1063.28 170.634 1064.26 169.8 Q1065.23 168.967 1066.41 165.865 L1067.17 163.921 L1056.69 138.412 L1061.2 138.412 L1069.3 158.689 L1077.4 138.412 L1081.92 138.412 L1070.53 166.745 Z" fill="#000000" fill-rule="nonzero" fill-opacity="1" /><path clip-path="url(#clip220)" d="M1089.21 160.402 L1096.85 160.402 L1096.85 134.037 L1088.54 135.703 L1088.54 131.444 L1096.8 129.778 L1101.48 129.778 L1101.48 160.402 L1109.12 160.402 L1109.12 164.338 L1089.21 164.338 L1089.21 160.402 Z" fill="#000000" fill-rule="nonzero" fill-opacity="1" /><path clip-path="url(#clip220)" d="M1370.86 1486.45 L2352.76 1486.45 L2352.76 47.2441 L1370.86 47.2441  Z" fill="#ffffff" fill-rule="evenodd" fill-opacity="1"/>
<defs>
  <clipPath id="clip223">
    <rect x="1370" y="47" width="983" height="1440"/>
  </clipPath>
</defs>
<polyline clip-path="url(#clip223)" style="stroke:#000000; stroke-linecap:round; stroke-linejoin:round; stroke-width:2; stroke-opacity:0.1; fill:none" points="1424.86,1486.45 1424.86,47.2441 "/>
<polyline clip-path="url(#clip223)" style="stroke:#000000; stroke-linecap:round; stroke-linejoin:round; stroke-width:2; stroke-opacity:0.1; fill:none" points="1623.47,1486.45 1623.47,47.2441 "/>
<polyline clip-path="url(#clip223)" style="stroke:#000000; stroke-linecap:round; stroke-linejoin:round; stroke-width:2; stroke-opacity:0.1; fill:none" points="1822.08,1486.45 1822.08,47.2441 "/>
<polyline clip-path="url(#clip223)" style="stroke:#000000; stroke-linecap:round; stroke-linejoin:round; stroke-width:2; stroke-opacity:0.1; fill:none" points="2020.7,1486.45 2020.7,47.2441 "/>
<polyline clip-path="url(#clip223)" style="stroke:#000000; stroke-linecap:round; stroke-linejoin:round; stroke-width:2; stroke-opacity:0.1; fill:none" points="2219.31,1486.45 2219.31,47.2441 "/>
<polyline clip-path="url(#clip223)" style="stroke:#000000; stroke-linecap:round; stroke-linejoin:round; stroke-width:2; stroke-opacity:0.1; fill:none" points="1370.86,1486.45 2352.76,1486.45 "/>
<polyline clip-path="url(#clip223)" style="stroke:#000000; stroke-linecap:round; stroke-linejoin:round; stroke-width:2; stroke-opacity:0.1; fill:none" points="1370.86,1208.61 2352.76,1208.61 "/>
<polyline clip-path="url(#clip223)" style="stroke:#000000; stroke-linecap:round; stroke-linejoin:round; stroke-width:2; stroke-opacity:0.1; fill:none" points="1370.86,930.771 2352.76,930.771 "/>
<polyline clip-path="url(#clip223)" style="stroke:#000000; stroke-linecap:round; stroke-linejoin:round; stroke-width:2; stroke-opacity:0.1; fill:none" points="1370.86,652.932 2352.76,652.932 "/>
<polyline clip-path="url(#clip223)" style="stroke:#000000; stroke-linecap:round; stroke-linejoin:round; stroke-width:2; stroke-opacity:0.1; fill:none" points="1370.86,375.094 2352.76,375.094 "/>
<polyline clip-path="url(#clip223)" style="stroke:#000000; stroke-linecap:round; stroke-linejoin:round; stroke-width:2; stroke-opacity:0.1; fill:none" points="1370.86,97.255 2352.76,97.255 "/>
<polyline clip-path="url(#clip220)" style="stroke:#000000; stroke-linecap:round; stroke-linejoin:round; stroke-width:4; stroke-opacity:1; fill:none" points="1370.86,1486.45 2352.76,1486.45 "/>
<polyline clip-path="url(#clip220)" style="stroke:#000000; stroke-linecap:round; stroke-linejoin:round; stroke-width:4; stroke-opacity:1; fill:none" points="1424.86,1486.45 1424.86,1467.55 "/>
<polyline clip-path="url(#clip220)" style="stroke:#000000; stroke-linecap:round; stroke-linejoin:round; stroke-width:4; stroke-opacity:1; fill:none" points="1623.47,1486.45 1623.47,1467.55 "/>
<polyline clip-path="url(#clip220)" style="stroke:#000000; stroke-linecap:round; stroke-linejoin:round; stroke-width:4; stroke-opacity:1; fill:none" points="1822.08,1486.45 1822.08,1467.55 "/>
<polyline clip-path="url(#clip220)" style="stroke:#000000; stroke-linecap:round; stroke-linejoin:round; stroke-width:4; stroke-opacity:1; fill:none" points="2020.7,1486.45 2020.7,1467.55 "/>
<polyline clip-path="url(#clip220)" style="stroke:#000000; stroke-linecap:round; stroke-linejoin:round; stroke-width:4; stroke-opacity:1; fill:none" points="2219.31,1486.45 2219.31,1467.55 "/>
<path clip-path="url(#clip220)" d="M1396.6 1544.91 L1412.92 1544.91 L1412.92 1548.85 L1390.97 1548.85 L1390.97 1544.91 Q1393.64 1542.16 1398.22 1537.53 Q1402.83 1532.88 1404.01 1531.53 Q1406.25 1529.01 1407.13 1527.27 Q1408.03 1525.51 1408.03 1523.82 Q1408.03 1521.07 1406.09 1519.33 Q1404.17 1517.6 1401.07 1517.6 Q1398.87 1517.6 1396.41 1518.36 Q1393.98 1519.13 1391.21 1520.68 L1391.21 1515.95 Q1394.03 1514.82 1396.48 1514.24 Q1398.94 1513.66 1400.97 1513.66 Q1406.35 1513.66 1409.54 1516.35 Q1412.73 1519.03 1412.73 1523.52 Q1412.73 1525.65 1411.92 1527.57 Q1411.14 1529.47 1409.03 1532.07 Q1408.45 1532.74 1405.35 1535.95 Q1402.25 1539.15 1396.6 1544.91 Z" fill="#000000" fill-rule="nonzero" fill-opacity="1" /><path clip-path="url(#clip220)" d="M1422.73 1542.97 L1427.62 1542.97 L1427.62 1548.85 L1422.73 1548.85 L1422.73 1542.97 Z" fill="#000000" fill-rule="nonzero" fill-opacity="1" /><path clip-path="url(#clip220)" d="M1437.85 1514.29 L1456.21 1514.29 L1456.21 1518.22 L1442.13 1518.22 L1442.13 1526.7 Q1443.15 1526.35 1444.17 1526.19 Q1445.19 1526 1446.21 1526 Q1451.99 1526 1455.37 1529.17 Q1458.75 1532.34 1458.75 1537.76 Q1458.75 1543.34 1455.28 1546.44 Q1451.81 1549.52 1445.49 1549.52 Q1443.31 1549.52 1441.04 1549.15 Q1438.8 1548.78 1436.39 1548.04 L1436.39 1543.34 Q1438.47 1544.47 1440.7 1545.03 Q1442.92 1545.58 1445.4 1545.58 Q1449.4 1545.58 1451.74 1543.48 Q1454.08 1541.37 1454.08 1537.76 Q1454.08 1534.15 1451.74 1532.04 Q1449.4 1529.94 1445.4 1529.94 Q1443.52 1529.94 1441.65 1530.35 Q1439.79 1530.77 1437.85 1531.65 L1437.85 1514.29 Z" fill="#000000" fill-rule="nonzero" fill-opacity="1" /><path clip-path="url(#clip220)" d="M1590.64 1514.29 L1608.99 1514.29 L1608.99 1518.22 L1594.92 1518.22 L1594.92 1526.7 Q1595.94 1526.35 1596.96 1526.19 Q1597.98 1526 1599 1526 Q1604.78 1526 1608.16 1529.17 Q1611.54 1532.34 1611.54 1537.76 Q1611.54 1543.34 1608.07 1546.44 Q1604.6 1549.52 1598.28 1549.52 Q1596.1 1549.52 1593.83 1549.15 Q1591.59 1548.78 1589.18 1548.04 L1589.18 1543.34 Q1591.26 1544.47 1593.49 1545.03 Q1595.71 1545.58 1598.18 1545.58 Q1602.19 1545.58 1604.53 1543.48 Q1606.87 1541.37 1606.87 1537.76 Q1606.87 1534.15 1604.53 1532.04 Q1602.19 1529.94 1598.18 1529.94 Q1596.31 1529.94 1594.43 1530.35 Q1592.58 1530.77 1590.64 1531.65 L1590.64 1514.29 Z" fill="#000000" fill-rule="nonzero" fill-opacity="1" /><path clip-path="url(#clip220)" d="M1620.75 1542.97 L1625.64 1542.97 L1625.64 1548.85 L1620.75 1548.85 L1620.75 1542.97 Z" fill="#000000" fill-rule="nonzero" fill-opacity="1" /><path clip-path="url(#clip220)" d="M1645.82 1517.37 Q1642.21 1517.37 1640.38 1520.93 Q1638.58 1524.47 1638.58 1531.6 Q1638.58 1538.71 1640.38 1542.27 Q1642.21 1545.82 1645.82 1545.82 Q1649.46 1545.82 1651.26 1542.27 Q1653.09 1538.71 1653.09 1531.6 Q1653.09 1524.47 1651.26 1520.93 Q1649.46 1517.37 1645.82 1517.37 M1645.82 1513.66 Q1651.63 1513.66 1654.69 1518.27 Q1657.77 1522.85 1657.77 1531.6 Q1657.77 1540.33 1654.69 1544.94 Q1651.63 1549.52 1645.82 1549.52 Q1640.01 1549.52 1636.93 1544.94 Q1633.88 1540.33 1633.88 1531.6 Q1633.88 1522.85 1636.93 1518.27 Q1640.01 1513.66 1645.82 1513.66 Z" fill="#000000" fill-rule="nonzero" fill-opacity="1" /><path clip-path="url(#clip220)" d="M1788.4 1514.29 L1810.63 1514.29 L1810.63 1516.28 L1798.08 1548.85 L1793.2 1548.85 L1805 1518.22 L1788.4 1518.22 L1788.4 1514.29 Z" fill="#000000" fill-rule="nonzero" fill-opacity="1" /><path clip-path="url(#clip220)" d="M1819.75 1542.97 L1824.63 1542.97 L1824.63 1548.85 L1819.75 1548.85 L1819.75 1542.97 Z" fill="#000000" fill-rule="nonzero" fill-opacity="1" /><path clip-path="url(#clip220)" d="M1834.86 1514.29 L1853.22 1514.29 L1853.22 1518.22 L1839.14 1518.22 L1839.14 1526.7 Q1840.16 1526.35 1841.18 1526.19 Q1842.2 1526 1843.22 1526 Q1849.01 1526 1852.39 1529.17 Q1855.76 1532.34 1855.76 1537.76 Q1855.76 1543.34 1852.29 1546.44 Q1848.82 1549.52 1842.5 1549.52 Q1840.33 1549.52 1838.06 1549.15 Q1835.81 1548.78 1833.4 1548.04 L1833.4 1543.34 Q1835.49 1544.47 1837.71 1545.03 Q1839.93 1545.58 1842.41 1545.58 Q1846.41 1545.58 1848.75 1543.48 Q1851.09 1541.37 1851.09 1537.76 Q1851.09 1534.15 1848.75 1532.04 Q1846.41 1529.94 1842.41 1529.94 Q1840.53 1529.94 1838.66 1530.35 Q1836.81 1530.77 1834.86 1531.65 L1834.86 1514.29 Z" fill="#000000" fill-rule="nonzero" fill-opacity="1" /><path clip-path="url(#clip220)" d="M1972.77 1544.91 L1980.41 1544.91 L1980.41 1518.55 L1972.1 1520.21 L1972.1 1515.95 L1980.36 1514.29 L1985.04 1514.29 L1985.04 1544.91 L1992.67 1544.91 L1992.67 1548.85 L1972.77 1548.85 L1972.77 1544.91 Z" fill="#000000" fill-rule="nonzero" fill-opacity="1" /><path clip-path="url(#clip220)" d="M2012.12 1517.37 Q2008.51 1517.37 2006.68 1520.93 Q2004.87 1524.47 2004.87 1531.6 Q2004.87 1538.71 2006.68 1542.27 Q2008.51 1545.82 2012.12 1545.82 Q2015.75 1545.82 2017.56 1542.27 Q2019.39 1538.71 2019.39 1531.6 Q2019.39 1524.47 2017.56 1520.93 Q2015.75 1517.37 2012.12 1517.37 M2012.12 1513.66 Q2017.93 1513.66 2020.98 1518.27 Q2024.06 1522.85 2024.06 1531.6 Q2024.06 1540.33 2020.98 1544.94 Q2017.93 1549.52 2012.12 1549.52 Q2006.31 1549.52 2003.23 1544.94 Q2000.17 1540.33 2000.17 1531.6 Q2000.17 1522.85 2003.23 1518.27 Q2006.31 1513.66 2012.12 1513.66 Z" fill="#000000" fill-rule="nonzero" fill-opacity="1" /><path clip-path="url(#clip220)" d="M2032.28 1542.97 L2037.16 1542.97 L2037.16 1548.85 L2032.28 1548.85 L2032.28 1542.97 Z" fill="#000000" fill-rule="nonzero" fill-opacity="1" /><path clip-path="url(#clip220)" d="M2057.35 1517.37 Q2053.74 1517.37 2051.91 1520.93 Q2050.1 1524.47 2050.1 1531.6 Q2050.1 1538.71 2051.91 1542.27 Q2053.74 1545.82 2057.35 1545.82 Q2060.98 1545.82 2062.79 1542.27 Q2064.62 1538.71 2064.62 1531.6 Q2064.62 1524.47 2062.79 1520.93 Q2060.98 1517.37 2057.35 1517.37 M2057.35 1513.66 Q2063.16 1513.66 2066.22 1518.27 Q2069.29 1522.85 2069.29 1531.6 Q2069.29 1540.33 2066.22 1544.94 Q2063.16 1549.52 2057.35 1549.52 Q2051.54 1549.52 2048.46 1544.94 Q2045.41 1540.33 2045.41 1531.6 Q2045.41 1522.85 2048.46 1518.27 Q2051.54 1513.66 2057.35 1513.66 Z" fill="#000000" fill-rule="nonzero" fill-opacity="1" /><path clip-path="url(#clip220)" d="M2171.88 1544.91 L2179.51 1544.91 L2179.51 1518.55 L2171.2 1520.21 L2171.2 1515.95 L2179.47 1514.29 L2184.14 1514.29 L2184.14 1544.91 L2191.78 1544.91 L2191.78 1548.85 L2171.88 1548.85 L2171.88 1544.91 Z" fill="#000000" fill-rule="nonzero" fill-opacity="1" /><path clip-path="url(#clip220)" d="M2205.25 1544.91 L2221.57 1544.91 L2221.57 1548.85 L2199.63 1548.85 L2199.63 1544.91 Q2202.29 1542.16 2206.88 1537.53 Q2211.48 1532.88 2212.66 1531.53 Q2214.91 1529.01 2215.79 1527.27 Q2216.69 1525.51 2216.69 1523.82 Q2216.69 1521.07 2214.75 1519.33 Q2212.82 1517.6 2209.72 1517.6 Q2207.52 1517.6 2205.07 1518.36 Q2202.64 1519.13 2199.86 1520.68 L2199.86 1515.95 Q2202.69 1514.82 2205.14 1514.24 Q2207.59 1513.66 2209.63 1513.66 Q2215 1513.66 2218.19 1516.35 Q2221.39 1519.03 2221.39 1523.52 Q2221.39 1525.65 2220.58 1527.57 Q2219.79 1529.47 2217.69 1532.07 Q2217.11 1532.74 2214 1535.95 Q2210.9 1539.15 2205.25 1544.91 Z" fill="#000000" fill-rule="nonzero" fill-opacity="1" /><path clip-path="url(#clip220)" d="M2231.39 1542.97 L2236.27 1542.97 L2236.27 1548.85 L2231.39 1548.85 L2231.39 1542.97 Z" fill="#000000" fill-rule="nonzero" fill-opacity="1" /><path clip-path="url(#clip220)" d="M2246.5 1514.29 L2264.86 1514.29 L2264.86 1518.22 L2250.79 1518.22 L2250.79 1526.7 Q2251.81 1526.35 2252.82 1526.19 Q2253.84 1526 2254.86 1526 Q2260.65 1526 2264.03 1529.17 Q2267.41 1532.34 2267.41 1537.76 Q2267.41 1543.34 2263.93 1546.44 Q2260.46 1549.52 2254.14 1549.52 Q2251.97 1549.52 2249.7 1549.15 Q2247.45 1548.78 2245.05 1548.04 L2245.05 1543.34 Q2247.13 1544.47 2249.35 1545.03 Q2251.57 1545.58 2254.05 1545.58 Q2258.06 1545.58 2260.39 1543.48 Q2262.73 1541.37 2262.73 1537.76 Q2262.73 1534.15 2260.39 1532.04 Q2258.06 1529.94 2254.05 1529.94 Q2252.18 1529.94 2250.3 1530.35 Q2248.45 1530.77 2246.5 1531.65 L2246.5 1514.29 Z" fill="#000000" fill-rule="nonzero" fill-opacity="1" /><polyline clip-path="url(#clip220)" style="stroke:#000000; stroke-linecap:round; stroke-linejoin:round; stroke-width:4; stroke-opacity:1; fill:none" points="1370.86,1486.45 1370.86,47.2441 "/>
<polyline clip-path="url(#clip220)" style="stroke:#000000; stroke-linecap:round; stroke-linejoin:round; stroke-width:4; stroke-opacity:1; fill:none" points="1370.86,1486.45 1389.76,1486.45 "/>
<polyline clip-path="url(#clip220)" style="stroke:#000000; stroke-linecap:round; stroke-linejoin:round; stroke-width:4; stroke-opacity:1; fill:none" points="1370.86,1208.61 1389.76,1208.61 "/>
<polyline clip-path="url(#clip220)" style="stroke:#000000; stroke-linecap:round; stroke-linejoin:round; stroke-width:4; stroke-opacity:1; fill:none" points="1370.86,930.771 1389.76,930.771 "/>
<polyline clip-path="url(#clip220)" style="stroke:#000000; stroke-linecap:round; stroke-linejoin:round; stroke-width:4; stroke-opacity:1; fill:none" points="1370.86,652.932 1389.76,652.932 "/>
<polyline clip-path="url(#clip220)" style="stroke:#000000; stroke-linecap:round; stroke-linejoin:round; stroke-width:4; stroke-opacity:1; fill:none" points="1370.86,375.094 1389.76,375.094 "/>
<polyline clip-path="url(#clip220)" style="stroke:#000000; stroke-linecap:round; stroke-linejoin:round; stroke-width:4; stroke-opacity:1; fill:none" points="1370.86,97.255 1389.76,97.255 "/>
<path clip-path="url(#clip220)" d="M1322.91 1472.25 Q1319.3 1472.25 1317.47 1475.81 Q1315.67 1479.35 1315.67 1486.48 Q1315.67 1493.59 1317.47 1497.15 Q1319.3 1500.7 1322.91 1500.7 Q1326.55 1500.7 1328.35 1497.15 Q1330.18 1493.59 1330.18 1486.48 Q1330.18 1479.35 1328.35 1475.81 Q1326.55 1472.25 1322.91 1472.25 M1322.91 1468.54 Q1328.72 1468.54 1331.78 1473.15 Q1334.86 1477.73 1334.86 1486.48 Q1334.86 1495.21 1331.78 1499.82 Q1328.72 1504.4 1322.91 1504.4 Q1317.1 1504.4 1314.02 1499.82 Q1310.97 1495.21 1310.97 1486.48 Q1310.97 1477.73 1314.02 1473.15 Q1317.1 1468.54 1322.91 1468.54 Z" fill="#000000" fill-rule="nonzero" fill-opacity="1" /><path clip-path="url(#clip220)" d="M1282.8 1191.33 L1301.15 1191.33 L1301.15 1195.26 L1287.08 1195.26 L1287.08 1203.74 Q1288.1 1203.39 1289.12 1203.23 Q1290.14 1203.04 1291.15 1203.04 Q1296.94 1203.04 1300.32 1206.21 Q1303.7 1209.38 1303.7 1214.8 Q1303.7 1220.38 1300.23 1223.48 Q1296.76 1226.56 1290.44 1226.56 Q1288.26 1226.56 1285.99 1226.19 Q1283.75 1225.82 1281.34 1225.08 L1281.34 1220.38 Q1283.42 1221.51 1285.64 1222.07 Q1287.87 1222.63 1290.34 1222.63 Q1294.35 1222.63 1296.69 1220.52 Q1299.02 1218.41 1299.02 1214.8 Q1299.02 1211.19 1296.69 1209.08 Q1294.35 1206.98 1290.34 1206.98 Q1288.47 1206.98 1286.59 1207.39 Q1284.74 1207.81 1282.8 1208.69 L1282.8 1191.33 Z" fill="#000000" fill-rule="nonzero" fill-opacity="1" /><path clip-path="url(#clip220)" d="M1322.91 1194.41 Q1319.3 1194.41 1317.47 1197.97 Q1315.67 1201.51 1315.67 1208.64 Q1315.67 1215.75 1317.47 1219.32 Q1319.3 1222.86 1322.91 1222.86 Q1326.55 1222.86 1328.35 1219.32 Q1330.18 1215.75 1330.18 1208.64 Q1330.18 1201.51 1328.35 1197.97 Q1326.55 1194.41 1322.91 1194.41 M1322.91 1190.7 Q1328.72 1190.7 1331.78 1195.31 Q1334.86 1199.89 1334.86 1208.64 Q1334.86 1217.37 1331.78 1221.98 Q1328.72 1226.56 1322.91 1226.56 Q1317.1 1226.56 1314.02 1221.98 Q1310.97 1217.37 1310.97 1208.64 Q1310.97 1199.89 1314.02 1195.31 Q1317.1 1190.7 1322.91 1190.7 Z" fill="#000000" fill-rule="nonzero" fill-opacity="1" /><path clip-path="url(#clip220)" d="M1253.4 944.116 L1261.04 944.116 L1261.04 917.75 L1252.73 919.417 L1252.73 915.157 L1260.99 913.491 L1265.67 913.491 L1265.67 944.116 L1273.31 944.116 L1273.31 948.051 L1253.4 948.051 L1253.4 944.116 Z" fill="#000000" fill-rule="nonzero" fill-opacity="1" /><path clip-path="url(#clip220)" d="M1292.75 916.569 Q1289.14 916.569 1287.31 920.134 Q1285.51 923.676 1285.51 930.805 Q1285.51 937.912 1287.31 941.477 Q1289.14 945.018 1292.75 945.018 Q1296.39 945.018 1298.19 941.477 Q1300.02 937.912 1300.02 930.805 Q1300.02 923.676 1298.19 920.134 Q1296.39 916.569 1292.75 916.569 M1292.75 912.866 Q1298.56 912.866 1301.62 917.472 Q1304.7 922.056 1304.7 930.805 Q1304.7 939.532 1301.62 944.139 Q1298.56 948.722 1292.75 948.722 Q1286.94 948.722 1283.86 944.139 Q1280.81 939.532 1280.81 930.805 Q1280.81 922.056 1283.86 917.472 Q1286.94 912.866 1292.75 912.866 Z" fill="#000000" fill-rule="nonzero" fill-opacity="1" /><path clip-path="url(#clip220)" d="M1322.91 916.569 Q1319.3 916.569 1317.47 920.134 Q1315.67 923.676 1315.67 930.805 Q1315.67 937.912 1317.47 941.477 Q1319.3 945.018 1322.91 945.018 Q1326.55 945.018 1328.35 941.477 Q1330.18 937.912 1330.18 930.805 Q1330.18 923.676 1328.35 920.134 Q1326.55 916.569 1322.91 916.569 M1322.91 912.866 Q1328.72 912.866 1331.78 917.472 Q1334.86 922.056 1334.86 930.805 Q1334.86 939.532 1331.78 944.139 Q1328.72 948.722 1322.91 948.722 Q1317.1 948.722 1314.02 944.139 Q1310.97 939.532 1310.97 930.805 Q1310.97 922.056 1314.02 917.472 Q1317.1 912.866 1322.91 912.866 Z" fill="#000000" fill-rule="nonzero" fill-opacity="1" /><path clip-path="url(#clip220)" d="M1253.4 666.277 L1261.04 666.277 L1261.04 639.911 L1252.73 641.578 L1252.73 637.319 L1260.99 635.652 L1265.67 635.652 L1265.67 666.277 L1273.31 666.277 L1273.31 670.212 L1253.4 670.212 L1253.4 666.277 Z" fill="#000000" fill-rule="nonzero" fill-opacity="1" /><path clip-path="url(#clip220)" d="M1282.8 635.652 L1301.15 635.652 L1301.15 639.587 L1287.08 639.587 L1287.08 648.06 Q1288.1 647.712 1289.12 647.55 Q1290.14 647.365 1291.15 647.365 Q1296.94 647.365 1300.32 650.536 Q1303.7 653.708 1303.7 659.124 Q1303.7 664.703 1300.23 667.805 Q1296.76 670.883 1290.44 670.883 Q1288.26 670.883 1285.99 670.513 Q1283.75 670.143 1281.34 669.402 L1281.34 664.703 Q1283.42 665.837 1285.64 666.393 Q1287.87 666.948 1290.34 666.948 Q1294.35 666.948 1296.69 664.842 Q1299.02 662.735 1299.02 659.124 Q1299.02 655.513 1296.69 653.407 Q1294.35 651.3 1290.34 651.3 Q1288.47 651.3 1286.59 651.717 Q1284.74 652.134 1282.8 653.013 L1282.8 635.652 Z" fill="#000000" fill-rule="nonzero" fill-opacity="1" /><path clip-path="url(#clip220)" d="M1322.91 638.731 Q1319.3 638.731 1317.47 642.296 Q1315.67 645.837 1315.67 652.967 Q1315.67 660.073 1317.47 663.638 Q1319.3 667.18 1322.91 667.18 Q1326.55 667.18 1328.35 663.638 Q1330.18 660.073 1330.18 652.967 Q1330.18 645.837 1328.35 642.296 Q1326.55 638.731 1322.91 638.731 M1322.91 635.027 Q1328.72 635.027 1331.78 639.634 Q1334.86 644.217 1334.86 652.967 Q1334.86 661.694 1331.78 666.3 Q1328.72 670.883 1322.91 670.883 Q1317.1 670.883 1314.02 666.3 Q1310.97 661.694 1310.97 652.967 Q1310.97 644.217 1314.02 639.634 Q1317.1 635.027 1322.91 635.027 Z" fill="#000000" fill-rule="nonzero" fill-opacity="1" /><path clip-path="url(#clip220)" d="M1256.62 388.438 L1272.94 388.438 L1272.94 392.374 L1250.99 392.374 L1250.99 388.438 Q1253.65 385.684 1258.24 381.054 Q1262.84 376.401 1264.02 375.059 Q1266.27 372.536 1267.15 370.8 Q1268.05 369.04 1268.05 367.351 Q1268.05 364.596 1266.11 362.86 Q1264.19 361.124 1261.08 361.124 Q1258.89 361.124 1256.43 361.888 Q1254 362.652 1251.22 364.202 L1251.22 359.48 Q1254.05 358.346 1256.5 357.767 Q1258.96 357.189 1260.99 357.189 Q1266.36 357.189 1269.56 359.874 Q1272.75 362.559 1272.75 367.05 Q1272.75 369.179 1271.94 371.101 Q1271.15 372.999 1269.05 375.591 Q1268.47 376.263 1265.37 379.48 Q1262.27 382.675 1256.62 388.438 Z" fill="#000000" fill-rule="nonzero" fill-opacity="1" /><path clip-path="url(#clip220)" d="M1292.75 360.892 Q1289.14 360.892 1287.31 364.457 Q1285.51 367.999 1285.51 375.128 Q1285.51 382.235 1287.31 385.8 Q1289.14 389.341 1292.75 389.341 Q1296.39 389.341 1298.19 385.8 Q1300.02 382.235 1300.02 375.128 Q1300.02 367.999 1298.19 364.457 Q1296.39 360.892 1292.75 360.892 M1292.75 357.189 Q1298.56 357.189 1301.62 361.795 Q1304.7 366.378 1304.7 375.128 Q1304.7 383.855 1301.62 388.462 Q1298.56 393.045 1292.75 393.045 Q1286.94 393.045 1283.86 388.462 Q1280.81 383.855 1280.81 375.128 Q1280.81 366.378 1283.86 361.795 Q1286.94 357.189 1292.75 357.189 Z" fill="#000000" fill-rule="nonzero" fill-opacity="1" /><path clip-path="url(#clip220)" d="M1322.91 360.892 Q1319.3 360.892 1317.47 364.457 Q1315.67 367.999 1315.67 375.128 Q1315.67 382.235 1317.47 385.8 Q1319.3 389.341 1322.91 389.341 Q1326.55 389.341 1328.35 385.8 Q1330.18 382.235 1330.18 375.128 Q1330.18 367.999 1328.35 364.457 Q1326.55 360.892 1322.91 360.892 M1322.91 357.189 Q1328.72 357.189 1331.78 361.795 Q1334.86 366.378 1334.86 375.128 Q1334.86 383.855 1331.78 388.462 Q1328.72 393.045 1322.91 393.045 Q1317.1 393.045 1314.02 388.462 Q1310.97 383.855 1310.97 375.128 Q1310.97 366.378 1314.02 361.795 Q1317.1 357.189 1322.91 357.189 Z" fill="#000000" fill-rule="nonzero" fill-opacity="1" /><path clip-path="url(#clip220)" d="M1256.62 110.6 L1272.94 110.6 L1272.94 114.535 L1250.99 114.535 L1250.99 110.6 Q1253.65 107.845 1258.24 103.216 Q1262.84 98.5629 1264.02 97.2203 Q1266.27 94.6972 1267.15 92.9611 Q1268.05 91.2018 1268.05 89.512 Q1268.05 86.7574 1266.11 85.0213 Q1264.19 83.2852 1261.08 83.2852 Q1258.89 83.2852 1256.43 84.0491 Q1254 84.813 1251.22 86.3639 L1251.22 81.6417 Q1254.05 80.5074 1256.5 79.9287 Q1258.96 79.35 1260.99 79.35 Q1266.36 79.35 1269.56 82.0352 Q1272.75 84.7204 1272.75 89.2111 Q1272.75 91.3407 1271.94 93.262 Q1271.15 95.1601 1269.05 97.7527 Q1268.47 98.424 1265.37 101.642 Q1262.27 104.836 1256.62 110.6 Z" fill="#000000" fill-rule="nonzero" fill-opacity="1" /><path clip-path="url(#clip220)" d="M1282.8 79.975 L1301.15 79.975 L1301.15 83.9102 L1287.08 83.9102 L1287.08 92.3824 Q1288.1 92.0352 1289.12 91.8731 Q1290.14 91.6879 1291.15 91.6879 Q1296.94 91.6879 1300.32 94.8592 Q1303.7 98.0305 1303.7 103.447 Q1303.7 109.026 1300.23 112.128 Q1296.76 115.206 1290.44 115.206 Q1288.26 115.206 1285.99 114.836 Q1283.75 114.466 1281.34 113.725 L1281.34 109.026 Q1283.42 110.16 1285.64 110.716 Q1287.87 111.271 1290.34 111.271 Q1294.35 111.271 1296.69 109.165 Q1299.02 107.058 1299.02 103.447 Q1299.02 99.836 1296.69 97.7296 Q1294.35 95.6231 1290.34 95.6231 Q1288.47 95.6231 1286.59 96.0398 Q1284.74 96.4564 1282.8 97.3361 L1282.8 79.975 Z" fill="#000000" fill-rule="nonzero" fill-opacity="1" /><path clip-path="url(#clip220)" d="M1322.91 83.0537 Q1319.3 83.0537 1317.47 86.6185 Q1315.67 90.1602 1315.67 97.2898 Q1315.67 104.396 1317.47 107.961 Q1319.3 111.503 1322.91 111.503 Q1326.55 111.503 1328.35 107.961 Q1330.18 104.396 1330.18 97.2898 Q1330.18 90.1602 1328.35 86.6185 Q1326.55 83.0537 1322.91 83.0537 M1322.91 79.35 Q1328.72 79.35 1331.78 83.9565 Q1334.86 88.5398 1334.86 97.2898 Q1334.86 106.017 1331.78 110.623 Q1328.72 115.206 1322.91 115.206 Q1317.1 115.206 1314.02 110.623 Q1310.97 106.017 1310.97 97.2898 Q1310.97 88.5398 1314.02 83.9565 Q1317.1 79.35 1322.91 79.35 Z" fill="#000000" fill-rule="nonzero" fill-opacity="1" /><path clip-path="url(#clip223)" d="M1424.86 1475.33 L1424.86 1486.45 L1464.59 1486.45 L1464.59 1475.33 L1424.86 1475.33 L1424.86 1475.33  Z" fill="#009af9" fill-rule="evenodd" fill-opacity="1"/>
<polyline clip-path="url(#clip223)" style="stroke:#000000; stroke-linecap:round; stroke-linejoin:round; stroke-width:4; stroke-opacity:1; fill:none" points="1424.86,1475.33 1424.86,1486.45 1464.59,1486.45 1464.59,1475.33 1424.86,1475.33 "/>
<path clip-path="url(#clip223)" d="M1464.59 1464.22 L1464.59 1486.45 L1504.31 1486.45 L1504.31 1464.22 L1464.59 1464.22 L1464.59 1464.22  Z" fill="#009af9" fill-rule="evenodd" fill-opacity="1"/>
<polyline clip-path="url(#clip223)" style="stroke:#000000; stroke-linecap:round; stroke-linejoin:round; stroke-width:4; stroke-opacity:1; fill:none" points="1464.59,1464.22 1464.59,1486.45 1504.31,1486.45 1504.31,1464.22 1464.59,1464.22 "/>
<path clip-path="url(#clip223)" d="M1504.31 1453.11 L1504.31 1486.45 L1544.03 1486.45 L1544.03 1453.11 L1504.31 1453.11 L1504.31 1453.11  Z" fill="#009af9" fill-rule="evenodd" fill-opacity="1"/>
<polyline clip-path="url(#clip223)" style="stroke:#000000; stroke-linecap:round; stroke-linejoin:round; stroke-width:4; stroke-opacity:1; fill:none" points="1504.31,1453.11 1504.31,1486.45 1544.03,1486.45 1544.03,1453.11 1504.31,1453.11 "/>
<path clip-path="url(#clip223)" d="M1544.03 1458.66 L1544.03 1486.45 L1583.75 1486.45 L1583.75 1458.66 L1544.03 1458.66 L1544.03 1458.66  Z" fill="#009af9" fill-rule="evenodd" fill-opacity="1"/>
<polyline clip-path="url(#clip223)" style="stroke:#000000; stroke-linecap:round; stroke-linejoin:round; stroke-width:4; stroke-opacity:1; fill:none" points="1544.03,1458.66 1544.03,1486.45 1583.75,1486.45 1583.75,1458.66 1544.03,1458.66 "/>
<path clip-path="url(#clip223)" d="M1583.75 1447.55 L1583.75 1486.45 L1623.47 1486.45 L1623.47 1447.55 L1583.75 1447.55 L1583.75 1447.55  Z" fill="#009af9" fill-rule="evenodd" fill-opacity="1"/>
<polyline clip-path="url(#clip223)" style="stroke:#000000; stroke-linecap:round; stroke-linejoin:round; stroke-width:4; stroke-opacity:1; fill:none" points="1583.75,1447.55 1583.75,1486.45 1623.47,1486.45 1623.47,1447.55 1583.75,1447.55 "/>
<path clip-path="url(#clip223)" d="M1623.47 1380.87 L1623.47 1486.45 L1663.2 1486.45 L1663.2 1380.87 L1623.47 1380.87 L1623.47 1380.87  Z" fill="#009af9" fill-rule="evenodd" fill-opacity="1"/>
<polyline clip-path="url(#clip223)" style="stroke:#000000; stroke-linecap:round; stroke-linejoin:round; stroke-width:4; stroke-opacity:1; fill:none" points="1623.47,1380.87 1623.47,1486.45 1663.2,1486.45 1663.2,1380.87 1623.47,1380.87 "/>
<path clip-path="url(#clip223)" d="M1663.2 1291.96 L1663.2 1486.45 L1702.92 1486.45 L1702.92 1291.96 L1663.2 1291.96 L1663.2 1291.96  Z" fill="#009af9" fill-rule="evenodd" fill-opacity="1"/>
<polyline clip-path="url(#clip223)" style="stroke:#000000; stroke-linecap:round; stroke-linejoin:round; stroke-width:4; stroke-opacity:1; fill:none" points="1663.2,1291.96 1663.2,1486.45 1702.92,1486.45 1702.92,1291.96 1663.2,1291.96 "/>
<path clip-path="url(#clip223)" d="M1702.92 1214.17 L1702.92 1486.45 L1742.64 1486.45 L1742.64 1214.17 L1702.92 1214.17 L1702.92 1214.17  Z" fill="#009af9" fill-rule="evenodd" fill-opacity="1"/>
<polyline clip-path="url(#clip223)" style="stroke:#000000; stroke-linecap:round; stroke-linejoin:round; stroke-width:4; stroke-opacity:1; fill:none" points="1702.92,1214.17 1702.92,1486.45 1742.64,1486.45 1742.64,1214.17 1702.92,1214.17 "/>
<path clip-path="url(#clip223)" d="M1742.64 1130.81 L1742.64 1486.45 L1782.36 1486.45 L1782.36 1130.81 L1742.64 1130.81 L1742.64 1130.81  Z" fill="#009af9" fill-rule="evenodd" fill-opacity="1"/>
<polyline clip-path="url(#clip223)" style="stroke:#000000; stroke-linecap:round; stroke-linejoin:round; stroke-width:4; stroke-opacity:1; fill:none" points="1742.64,1130.81 1742.64,1486.45 1782.36,1486.45 1782.36,1130.81 1742.64,1130.81 "/>
<path clip-path="url(#clip223)" d="M1782.36 914.1 L1782.36 1486.45 L1822.08 1486.45 L1822.08 914.1 L1782.36 914.1 L1782.36 914.1  Z" fill="#009af9" fill-rule="evenodd" fill-opacity="1"/>
<polyline clip-path="url(#clip223)" style="stroke:#000000; stroke-linecap:round; stroke-linejoin:round; stroke-width:4; stroke-opacity:1; fill:none" points="1782.36,914.1 1782.36,1486.45 1822.08,1486.45 1822.08,914.1 1782.36,914.1 "/>
<path clip-path="url(#clip223)" d="M1822.08 458.445 L1822.08 1486.45 L1861.81 1486.45 L1861.81 458.445 L1822.08 458.445 L1822.08 458.445  Z" fill="#009af9" fill-rule="evenodd" fill-opacity="1"/>
<polyline clip-path="url(#clip223)" style="stroke:#000000; stroke-linecap:round; stroke-linejoin:round; stroke-width:4; stroke-opacity:1; fill:none" points="1822.08,458.445 1822.08,1486.45 1861.81,1486.45 1861.81,458.445 1822.08,458.445 "/>
<path clip-path="url(#clip223)" d="M1861.81 308.412 L1861.81 1486.45 L1901.53 1486.45 L1901.53 308.412 L1861.81 308.412 L1861.81 308.412  Z" fill="#009af9" fill-rule="evenodd" fill-opacity="1"/>
<polyline clip-path="url(#clip223)" style="stroke:#000000; stroke-linecap:round; stroke-linejoin:round; stroke-width:4; stroke-opacity:1; fill:none" points="1861.81,308.412 1861.81,1486.45 1901.53,1486.45 1901.53,308.412 1861.81,308.412 "/>
<path clip-path="url(#clip223)" d="M1901.53 47.2441 L1901.53 1486.45 L1941.25 1486.45 L1941.25 47.2441 L1901.53 47.2441 L1901.53 47.2441  Z" fill="#009af9" fill-rule="evenodd" fill-opacity="1"/>
<polyline clip-path="url(#clip223)" style="stroke:#000000; stroke-linecap:round; stroke-linejoin:round; stroke-width:4; stroke-opacity:1; fill:none" points="1901.53,47.2441 1901.53,1486.45 1941.25,1486.45 1941.25,47.2441 1901.53,47.2441 "/>
<path clip-path="url(#clip223)" d="M1941.25 380.65 L1941.25 1486.45 L1980.97 1486.45 L1980.97 380.65 L1941.25 380.65 L1941.25 380.65  Z" fill="#009af9" fill-rule="evenodd" fill-opacity="1"/>
<polyline clip-path="url(#clip223)" style="stroke:#000000; stroke-linecap:round; stroke-linejoin:round; stroke-width:4; stroke-opacity:1; fill:none" points="1941.25,380.65 1941.25,1486.45 1980.97,1486.45 1980.97,380.65 1941.25,380.65 "/>
<path clip-path="url(#clip223)" d="M1980.97 591.808 L1980.97 1486.45 L2020.7 1486.45 L2020.7 591.808 L1980.97 591.808 L1980.97 591.808  Z" fill="#009af9" fill-rule="evenodd" fill-opacity="1"/>
<polyline clip-path="url(#clip223)" style="stroke:#000000; stroke-linecap:round; stroke-linejoin:round; stroke-width:4; stroke-opacity:1; fill:none" points="1980.97,591.808 1980.97,1486.45 2020.7,1486.45 2020.7,591.808 1980.97,591.808 "/>
<path clip-path="url(#clip223)" d="M2020.7 1008.57 L2020.7 1486.45 L2060.42 1486.45 L2060.42 1008.57 L2020.7 1008.57 L2020.7 1008.57  Z" fill="#009af9" fill-rule="evenodd" fill-opacity="1"/>
<polyline clip-path="url(#clip223)" style="stroke:#000000; stroke-linecap:round; stroke-linejoin:round; stroke-width:4; stroke-opacity:1; fill:none" points="2020.7,1008.57 2020.7,1486.45 2060.42,1486.45 2060.42,1008.57 2020.7,1008.57 "/>
<path clip-path="url(#clip223)" d="M2060.42 1180.83 L2060.42 1486.45 L2100.14 1486.45 L2100.14 1180.83 L2060.42 1180.83 L2060.42 1180.83  Z" fill="#009af9" fill-rule="evenodd" fill-opacity="1"/>
<polyline clip-path="url(#clip223)" style="stroke:#000000; stroke-linecap:round; stroke-linejoin:round; stroke-width:4; stroke-opacity:1; fill:none" points="2060.42,1180.83 2060.42,1486.45 2100.14,1486.45 2100.14,1180.83 2060.42,1180.83 "/>
<path clip-path="url(#clip223)" d="M2100.14 1330.86 L2100.14 1486.45 L2139.86 1486.45 L2139.86 1330.86 L2100.14 1330.86 L2100.14 1330.86  Z" fill="#009af9" fill-rule="evenodd" fill-opacity="1"/>
<polyline clip-path="url(#clip223)" style="stroke:#000000; stroke-linecap:round; stroke-linejoin:round; stroke-width:4; stroke-opacity:1; fill:none" points="2100.14,1330.86 2100.14,1486.45 2139.86,1486.45 2139.86,1330.86 2100.14,1330.86 "/>
<path clip-path="url(#clip223)" d="M2139.86 1414.21 L2139.86 1486.45 L2179.58 1486.45 L2179.58 1414.21 L2139.86 1414.21 L2139.86 1414.21  Z" fill="#009af9" fill-rule="evenodd" fill-opacity="1"/>
<polyline clip-path="url(#clip223)" style="stroke:#000000; stroke-linecap:round; stroke-linejoin:round; stroke-width:4; stroke-opacity:1; fill:none" points="2139.86,1414.21 2139.86,1486.45 2179.58,1486.45 2179.58,1414.21 2139.86,1414.21 "/>
<path clip-path="url(#clip223)" d="M2179.58 1464.22 L2179.58 1486.45 L2219.31 1486.45 L2219.31 1464.22 L2179.58 1464.22 L2179.58 1464.22  Z" fill="#009af9" fill-rule="evenodd" fill-opacity="1"/>
<polyline clip-path="url(#clip223)" style="stroke:#000000; stroke-linecap:round; stroke-linejoin:round; stroke-width:4; stroke-opacity:1; fill:none" points="2179.58,1464.22 2179.58,1486.45 2219.31,1486.45 2219.31,1464.22 2179.58,1464.22 "/>
<path clip-path="url(#clip223)" d="M2219.31 1475.33 L2219.31 1486.45 L2259.03 1486.45 L2259.03 1475.33 L2219.31 1475.33 L2219.31 1475.33  Z" fill="#009af9" fill-rule="evenodd" fill-opacity="1"/>
<polyline clip-path="url(#clip223)" style="stroke:#000000; stroke-linecap:round; stroke-linejoin:round; stroke-width:4; stroke-opacity:1; fill:none" points="2219.31,1475.33 2219.31,1486.45 2259.03,1486.45 2259.03,1475.33 2219.31,1475.33 "/>
<path clip-path="url(#clip223)" d="M2259.03 1475.33 L2259.03 1486.45 L2298.75 1486.45 L2298.75 1475.33 L2259.03 1475.33 L2259.03 1475.33  Z" fill="#009af9" fill-rule="evenodd" fill-opacity="1"/>
<polyline clip-path="url(#clip223)" style="stroke:#000000; stroke-linecap:round; stroke-linejoin:round; stroke-width:4; stroke-opacity:1; fill:none" points="2259.03,1475.33 2259.03,1486.45 2298.75,1486.45 2298.75,1475.33 2259.03,1475.33 "/>
<circle clip-path="url(#clip223)" style="fill:#009af9; stroke:none; fill-opacity:0" cx="1444.72" cy="1475.33" r="2"/>
<circle clip-path="url(#clip223)" style="fill:#009af9; stroke:none; fill-opacity:0" cx="1484.45" cy="1464.22" r="2"/>
<circle clip-path="url(#clip223)" style="fill:#009af9; stroke:none; fill-opacity:0" cx="1524.17" cy="1453.11" r="2"/>
<circle clip-path="url(#clip223)" style="fill:#009af9; stroke:none; fill-opacity:0" cx="1563.89" cy="1458.66" r="2"/>
<circle clip-path="url(#clip223)" style="fill:#009af9; stroke:none; fill-opacity:0" cx="1603.61" cy="1447.55" r="2"/>
<circle clip-path="url(#clip223)" style="fill:#009af9; stroke:none; fill-opacity:0" cx="1643.34" cy="1380.87" r="2"/>
<circle clip-path="url(#clip223)" style="fill:#009af9; stroke:none; fill-opacity:0" cx="1683.06" cy="1291.96" r="2"/>
<circle clip-path="url(#clip223)" style="fill:#009af9; stroke:none; fill-opacity:0" cx="1722.78" cy="1214.17" r="2"/>
<circle clip-path="url(#clip223)" style="fill:#009af9; stroke:none; fill-opacity:0" cx="1762.5" cy="1130.81" r="2"/>
<circle clip-path="url(#clip223)" style="fill:#009af9; stroke:none; fill-opacity:0" cx="1802.22" cy="914.1" r="2"/>
<circle clip-path="url(#clip223)" style="fill:#009af9; stroke:none; fill-opacity:0" cx="1841.95" cy="458.445" r="2"/>
<circle clip-path="url(#clip223)" style="fill:#009af9; stroke:none; fill-opacity:0" cx="1881.67" cy="308.412" r="2"/>
<circle clip-path="url(#clip223)" style="fill:#009af9; stroke:none; fill-opacity:0" cx="1921.39" cy="47.2441" r="2"/>
<circle clip-path="url(#clip223)" style="fill:#009af9; stroke:none; fill-opacity:0" cx="1961.11" cy="380.65" r="2"/>
<circle clip-path="url(#clip223)" style="fill:#009af9; stroke:none; fill-opacity:0" cx="2000.83" cy="591.808" r="2"/>
<circle clip-path="url(#clip223)" style="fill:#009af9; stroke:none; fill-opacity:0" cx="2040.56" cy="1008.57" r="2"/>
<circle clip-path="url(#clip223)" style="fill:#009af9; stroke:none; fill-opacity:0" cx="2080.28" cy="1180.83" r="2"/>
<circle clip-path="url(#clip223)" style="fill:#009af9; stroke:none; fill-opacity:0" cx="2120" cy="1330.86" r="2"/>
<circle clip-path="url(#clip223)" style="fill:#009af9; stroke:none; fill-opacity:0" cx="2159.72" cy="1414.21" r="2"/>
<circle clip-path="url(#clip223)" style="fill:#009af9; stroke:none; fill-opacity:0" cx="2199.44" cy="1464.22" r="2"/>
<circle clip-path="url(#clip223)" style="fill:#009af9; stroke:none; fill-opacity:0" cx="2239.17" cy="1475.33" r="2"/>
<circle clip-path="url(#clip223)" style="fill:#009af9; stroke:none; fill-opacity:0" cx="2278.89" cy="1475.33" r="2"/>
<path clip-path="url(#clip220)" d="M2169.41 198.898 L2320.03 198.898 L2320.03 95.2176 L2169.41 95.2176  Z" fill="#ffffff" fill-rule="evenodd" fill-opacity="1"/>
<polyline clip-path="url(#clip220)" style="stroke:#000000; stroke-linecap:round; stroke-linejoin:round; stroke-width:4; stroke-opacity:1; fill:none" points="2169.41,198.898 2320.03,198.898 2320.03,95.2176 2169.41,95.2176 2169.41,198.898 "/>
<path clip-path="url(#clip220)" d="M2180.32 167.794 L2245.78 167.794 L2245.78 126.322 L2180.32 126.322 L2180.32 167.794  Z" fill="#009af9" fill-rule="evenodd" fill-opacity="1"/>
<polyline clip-path="url(#clip220)" style="stroke:#000000; stroke-linecap:round; stroke-linejoin:round; stroke-width:4; stroke-opacity:1; fill:none" points="2180.32,167.794 2245.78,167.794 2245.78,126.322 2180.32,126.322 2180.32,167.794 "/>
<path clip-path="url(#clip220)" d="M2270.53 166.745 Q2268.72 171.375 2267.01 172.787 Q2265.3 174.199 2262.43 174.199 L2259.02 174.199 L2259.02 170.634 L2261.52 170.634 Q2263.28 170.634 2264.26 169.8 Q2265.23 168.967 2266.41 165.865 L2267.17 163.921 L2256.69 138.412 L2261.2 138.412 L2269.3 158.689 L2277.4 138.412 L2281.92 138.412 L2270.53 166.745 Z" fill="#000000" fill-rule="nonzero" fill-opacity="1" /><path clip-path="url(#clip220)" d="M2289.21 160.402 L2296.85 160.402 L2296.85 134.037 L2288.54 135.703 L2288.54 131.444 L2296.8 129.778 L2301.48 129.778 L2301.48 160.402 L2309.12 160.402 L2309.12 164.338 L2289.21 164.338 L2289.21 160.402 Z" fill="#000000" fill-rule="nonzero" fill-opacity="1" /></svg>
