<?xml version="1.0" encoding="utf-8"?>
<svg xmlns="http://www.w3.org/2000/svg" xmlns:xlink="http://www.w3.org/1999/xlink" width="600" height="400" viewBox="0 0 2400 1600">
<defs>
  <clipPath id="clip810">
    <rect x="0" y="0" width="2400" height="1600"/>
  </clipPath>
</defs>
<path clip-path="url(#clip810)" d="M0 1600 L2400 1600 L2400 0 L0 0  Z" fill="#ffffff" fill-rule="evenodd" fill-opacity="1"/>
<defs>
  <clipPath id="clip811">
    <rect x="480" y="0" width="1681" height="1600"/>
  </clipPath>
</defs>
<path clip-path="url(#clip810)" d="M186.274 1486.45 L2352.76 1486.45 L2352.76 123.472 L186.274 123.472  Z" fill="#ffffff" fill-rule="evenodd" fill-opacity="1"/>
<defs>
  <clipPath id="clip812">
    <rect x="186" y="123" width="2167" height="1364"/>
  </clipPath>
</defs>
<polyline clip-path="url(#clip812)" style="stroke:#000000; stroke-linecap:round; stroke-linejoin:round; stroke-width:2; stroke-opacity:0.1; fill:none" points="186.274,1486.45 186.274,123.472 "/>
<polyline clip-path="url(#clip812)" style="stroke:#000000; stroke-linecap:round; stroke-linejoin:round; stroke-width:2; stroke-opacity:0.1; fill:none" points="619.57,1486.45 619.57,123.472 "/>
<polyline clip-path="url(#clip812)" style="stroke:#000000; stroke-linecap:round; stroke-linejoin:round; stroke-width:2; stroke-opacity:0.1; fill:none" points="1052.87,1486.45 1052.87,123.472 "/>
<polyline clip-path="url(#clip812)" style="stroke:#000000; stroke-linecap:round; stroke-linejoin:round; stroke-width:2; stroke-opacity:0.1; fill:none" points="1486.16,1486.45 1486.16,123.472 "/>
<polyline clip-path="url(#clip812)" style="stroke:#000000; stroke-linecap:round; stroke-linejoin:round; stroke-width:2; stroke-opacity:0.1; fill:none" points="1919.46,1486.45 1919.46,123.472 "/>
<polyline clip-path="url(#clip812)" style="stroke:#000000; stroke-linecap:round; stroke-linejoin:round; stroke-width:2; stroke-opacity:0.1; fill:none" points="2352.76,1486.45 2352.76,123.472 "/>
<polyline clip-path="url(#clip812)" style="stroke:#000000; stroke-linecap:round; stroke-linejoin:round; stroke-width:2; stroke-opacity:0.1; fill:none" points="186.274,1449.16 2352.76,1449.16 "/>
<polyline clip-path="url(#clip812)" style="stroke:#000000; stroke-linecap:round; stroke-linejoin:round; stroke-width:2; stroke-opacity:0.1; fill:none" points="186.274,1127.38 2352.76,1127.38 "/>
<polyline clip-path="url(#clip812)" style="stroke:#000000; stroke-linecap:round; stroke-linejoin:round; stroke-width:2; stroke-opacity:0.1; fill:none" points="186.274,805.604 2352.76,805.604 "/>
<polyline clip-path="url(#clip812)" style="stroke:#000000; stroke-linecap:round; stroke-linejoin:round; stroke-width:2; stroke-opacity:0.1; fill:none" points="186.274,483.825 2352.76,483.825 "/>
<polyline clip-path="url(#clip812)" style="stroke:#000000; stroke-linecap:round; stroke-linejoin:round; stroke-width:2; stroke-opacity:0.1; fill:none" points="186.274,162.047 2352.76,162.047 "/>
<polyline clip-path="url(#clip810)" style="stroke:#000000; stroke-linecap:round; stroke-linejoin:round; stroke-width:4; stroke-opacity:1; fill:none" points="186.274,1486.45 2352.76,1486.45 "/>
<polyline clip-path="url(#clip810)" style="stroke:#000000; stroke-linecap:round; stroke-linejoin:round; stroke-width:4; stroke-opacity:1; fill:none" points="186.274,1486.45 186.274,1467.55 "/>
<polyline clip-path="url(#clip810)" style="stroke:#000000; stroke-linecap:round; stroke-linejoin:round; stroke-width:4; stroke-opacity:1; fill:none" points="619.57,1486.45 619.57,1467.55 "/>
<polyline clip-path="url(#clip810)" style="stroke:#000000; stroke-linecap:round; stroke-linejoin:round; stroke-width:4; stroke-opacity:1; fill:none" points="1052.87,1486.45 1052.87,1467.55 "/>
<polyline clip-path="url(#clip810)" style="stroke:#000000; stroke-linecap:round; stroke-linejoin:round; stroke-width:4; stroke-opacity:1; fill:none" points="1486.16,1486.45 1486.16,1467.55 "/>
<polyline clip-path="url(#clip810)" style="stroke:#000000; stroke-linecap:round; stroke-linejoin:round; stroke-width:4; stroke-opacity:1; fill:none" points="1919.46,1486.45 1919.46,1467.55 "/>
<polyline clip-path="url(#clip810)" style="stroke:#000000; stroke-linecap:round; stroke-linejoin:round; stroke-width:4; stroke-opacity:1; fill:none" points="2352.76,1486.45 2352.76,1467.55 "/>
<path clip-path="url(#clip810)" d="M163.658 1517.37 Q160.047 1517.37 158.219 1520.93 Q156.413 1524.47 156.413 1531.6 Q156.413 1538.71 158.219 1542.27 Q160.047 1545.82 163.658 1545.82 Q167.293 1545.82 169.098 1542.27 Q170.927 1538.71 170.927 1531.6 Q170.927 1524.47 169.098 1520.93 Q167.293 1517.37 163.658 1517.37 M163.658 1513.66 Q169.469 1513.66 172.524 1518.27 Q175.603 1522.85 175.603 1531.6 Q175.603 1540.33 172.524 1544.94 Q169.469 1549.52 163.658 1549.52 Q157.848 1549.52 154.77 1544.94 Q151.714 1540.33 151.714 1531.6 Q151.714 1522.85 154.77 1518.27 Q157.848 1513.66 163.658 1513.66 Z" fill="#000000" fill-rule="nonzero" fill-opacity="1" /><path clip-path="url(#clip810)" d="M183.82 1542.97 L188.705 1542.97 L188.705 1548.85 L183.82 1548.85 L183.82 1542.97 Z" fill="#000000" fill-rule="nonzero" fill-opacity="1" /><path clip-path="url(#clip810)" d="M208.89 1517.37 Q205.279 1517.37 203.45 1520.93 Q201.644 1524.47 201.644 1531.6 Q201.644 1538.71 203.45 1542.27 Q205.279 1545.82 208.89 1545.82 Q212.524 1545.82 214.329 1542.27 Q216.158 1538.71 216.158 1531.6 Q216.158 1524.47 214.329 1520.93 Q212.524 1517.37 208.89 1517.37 M208.89 1513.66 Q214.7 1513.66 217.755 1518.27 Q220.834 1522.85 220.834 1531.6 Q220.834 1540.33 217.755 1544.94 Q214.7 1549.52 208.89 1549.52 Q203.079 1549.52 200.001 1544.94 Q196.945 1540.33 196.945 1531.6 Q196.945 1522.85 200.001 1518.27 Q203.079 1513.66 208.89 1513.66 Z" fill="#000000" fill-rule="nonzero" fill-opacity="1" /><path clip-path="url(#clip810)" d="M597.753 1517.37 Q594.142 1517.37 592.314 1520.93 Q590.508 1524.47 590.508 1531.6 Q590.508 1538.71 592.314 1542.27 Q594.142 1545.82 597.753 1545.82 Q601.388 1545.82 603.193 1542.27 Q605.022 1538.71 605.022 1531.6 Q605.022 1524.47 603.193 1520.93 Q601.388 1517.37 597.753 1517.37 M597.753 1513.66 Q603.564 1513.66 606.619 1518.27 Q609.698 1522.85 609.698 1531.6 Q609.698 1540.33 606.619 1544.94 Q603.564 1549.52 597.753 1549.52 Q591.943 1549.52 588.865 1544.94 Q585.809 1540.33 585.809 1531.6 Q585.809 1522.85 588.865 1518.27 Q591.943 1513.66 597.753 1513.66 Z" fill="#000000" fill-rule="nonzero" fill-opacity="1" /><path clip-path="url(#clip810)" d="M617.915 1542.97 L622.8 1542.97 L622.8 1548.85 L617.915 1548.85 L617.915 1542.97 Z" fill="#000000" fill-rule="nonzero" fill-opacity="1" /><path clip-path="url(#clip810)" d="M637.012 1544.91 L653.332 1544.91 L653.332 1548.85 L631.387 1548.85 L631.387 1544.91 Q634.049 1542.16 638.633 1537.53 Q643.239 1532.88 644.42 1531.53 Q646.665 1529.01 647.545 1527.27 Q648.448 1525.51 648.448 1523.82 Q648.448 1521.07 646.503 1519.33 Q644.582 1517.6 641.48 1517.6 Q639.281 1517.6 636.827 1518.36 Q634.397 1519.13 631.619 1520.68 L631.619 1515.95 Q634.443 1514.82 636.897 1514.24 Q639.35 1513.66 641.387 1513.66 Q646.758 1513.66 649.952 1516.35 Q653.147 1519.03 653.147 1523.52 Q653.147 1525.65 652.336 1527.57 Q651.549 1529.47 649.443 1532.07 Q648.864 1532.74 645.762 1535.95 Q642.661 1539.15 637.012 1544.91 Z" fill="#000000" fill-rule="nonzero" fill-opacity="1" /><path clip-path="url(#clip810)" d="M1030.01 1517.37 Q1026.4 1517.37 1024.57 1520.93 Q1022.76 1524.47 1022.76 1531.6 Q1022.76 1538.71 1024.57 1542.27 Q1026.4 1545.82 1030.01 1545.82 Q1033.64 1545.82 1035.45 1542.27 Q1037.28 1538.71 1037.28 1531.6 Q1037.28 1524.47 1035.45 1520.93 Q1033.64 1517.37 1030.01 1517.37 M1030.01 1513.66 Q1035.82 1513.66 1038.87 1518.27 Q1041.95 1522.85 1041.95 1531.6 Q1041.95 1540.33 1038.87 1544.94 Q1035.82 1549.52 1030.01 1549.52 Q1024.2 1549.52 1021.12 1544.94 Q1018.06 1540.33 1018.06 1531.6 Q1018.06 1522.85 1021.12 1518.27 Q1024.2 1513.66 1030.01 1513.66 Z" fill="#000000" fill-rule="nonzero" fill-opacity="1" /><path clip-path="url(#clip810)" d="M1050.17 1542.97 L1055.05 1542.97 L1055.05 1548.85 L1050.17 1548.85 L1050.17 1542.97 Z" fill="#000000" fill-rule="nonzero" fill-opacity="1" /><path clip-path="url(#clip810)" d="M1078.09 1518.36 L1066.28 1536.81 L1078.09 1536.81 L1078.09 1518.36 M1076.86 1514.29 L1082.74 1514.29 L1082.74 1536.81 L1087.67 1536.81 L1087.67 1540.7 L1082.74 1540.7 L1082.74 1548.85 L1078.09 1548.85 L1078.09 1540.7 L1062.48 1540.7 L1062.48 1536.19 L1076.86 1514.29 Z" fill="#000000" fill-rule="nonzero" fill-opacity="1" /><path clip-path="url(#clip810)" d="M1463.47 1517.37 Q1459.86 1517.37 1458.03 1520.93 Q1456.22 1524.47 1456.22 1531.6 Q1456.22 1538.71 1458.03 1542.27 Q1459.86 1545.82 1463.47 1545.82 Q1467.1 1545.82 1468.91 1542.27 Q1470.73 1538.71 1470.73 1531.6 Q1470.73 1524.47 1468.91 1520.93 Q1467.1 1517.37 1463.47 1517.37 M1463.47 1513.66 Q1469.28 1513.66 1472.33 1518.27 Q1475.41 1522.85 1475.41 1531.6 Q1475.41 1540.33 1472.33 1544.94 Q1469.28 1549.52 1463.47 1549.52 Q1457.66 1549.52 1454.58 1544.94 Q1451.52 1540.33 1451.52 1531.6 Q1451.52 1522.85 1454.58 1518.27 Q1457.66 1513.66 1463.47 1513.66 Z" fill="#000000" fill-rule="nonzero" fill-opacity="1" /><path clip-path="url(#clip810)" d="M1483.63 1542.97 L1488.51 1542.97 L1488.51 1548.85 L1483.63 1548.85 L1483.63 1542.97 Z" fill="#000000" fill-rule="nonzero" fill-opacity="1" /><path clip-path="url(#clip810)" d="M1509.28 1529.7 Q1506.13 1529.7 1504.28 1531.86 Q1502.45 1534.01 1502.45 1537.76 Q1502.45 1541.49 1504.28 1543.66 Q1506.13 1545.82 1509.28 1545.82 Q1512.42 1545.82 1514.25 1543.66 Q1516.11 1541.49 1516.11 1537.76 Q1516.11 1534.01 1514.25 1531.86 Q1512.42 1529.7 1509.28 1529.7 M1518.56 1515.05 L1518.56 1519.31 Q1516.8 1518.48 1514.99 1518.04 Q1513.21 1517.6 1511.45 1517.6 Q1506.82 1517.6 1504.37 1520.72 Q1501.94 1523.85 1501.59 1530.17 Q1502.96 1528.15 1505.02 1527.09 Q1507.08 1526 1509.55 1526 Q1514.76 1526 1517.77 1529.17 Q1520.8 1532.32 1520.8 1537.76 Q1520.8 1543.08 1517.66 1546.3 Q1514.51 1549.52 1509.28 1549.52 Q1503.28 1549.52 1500.11 1544.94 Q1496.94 1540.33 1496.94 1531.6 Q1496.94 1523.41 1500.83 1518.55 Q1504.72 1513.66 1511.27 1513.66 Q1513.03 1513.66 1514.81 1514.01 Q1516.61 1514.36 1518.56 1515.05 Z" fill="#000000" fill-rule="nonzero" fill-opacity="1" /><path clip-path="url(#clip810)" d="M1896.89 1517.37 Q1893.28 1517.37 1891.45 1520.93 Q1889.64 1524.47 1889.64 1531.6 Q1889.64 1538.71 1891.45 1542.27 Q1893.28 1545.82 1896.89 1545.82 Q1900.52 1545.82 1902.33 1542.27 Q1904.16 1538.71 1904.16 1531.6 Q1904.16 1524.47 1902.33 1520.93 Q1900.52 1517.37 1896.89 1517.37 M1896.89 1513.66 Q1902.7 1513.66 1905.76 1518.27 Q1908.83 1522.85 1908.83 1531.6 Q1908.83 1540.33 1905.76 1544.94 Q1902.7 1549.52 1896.89 1549.52 Q1891.08 1549.52 1888 1544.94 Q1884.95 1540.33 1884.95 1531.6 Q1884.95 1522.85 1888 1518.27 Q1891.08 1513.66 1896.89 1513.66 Z" fill="#000000" fill-rule="nonzero" fill-opacity="1" /><path clip-path="url(#clip810)" d="M1917.05 1542.97 L1921.94 1542.97 L1921.94 1548.85 L1917.05 1548.85 L1917.05 1542.97 Z" fill="#000000" fill-rule="nonzero" fill-opacity="1" /><path clip-path="url(#clip810)" d="M1942.12 1532.44 Q1938.79 1532.44 1936.87 1534.22 Q1934.97 1536 1934.97 1539.13 Q1934.97 1542.25 1936.87 1544.03 Q1938.79 1545.82 1942.12 1545.82 Q1945.45 1545.82 1947.38 1544.03 Q1949.3 1542.23 1949.3 1539.13 Q1949.3 1536 1947.38 1534.22 Q1945.48 1532.44 1942.12 1532.44 M1937.45 1530.45 Q1934.44 1529.7 1932.75 1527.64 Q1931.08 1525.58 1931.08 1522.62 Q1931.08 1518.48 1934.02 1516.07 Q1936.98 1513.66 1942.12 1513.66 Q1947.28 1513.66 1950.22 1516.07 Q1953.16 1518.48 1953.16 1522.62 Q1953.16 1525.58 1951.47 1527.64 Q1949.81 1529.7 1946.82 1530.45 Q1950.2 1531.23 1952.08 1533.52 Q1953.97 1535.82 1953.97 1539.13 Q1953.97 1544.15 1950.89 1546.83 Q1947.84 1549.52 1942.12 1549.52 Q1936.4 1549.52 1933.33 1546.83 Q1930.27 1544.15 1930.27 1539.13 Q1930.27 1535.82 1932.17 1533.52 Q1934.07 1531.23 1937.45 1530.45 M1935.73 1523.06 Q1935.73 1525.75 1937.4 1527.25 Q1939.09 1528.76 1942.12 1528.76 Q1945.13 1528.76 1946.82 1527.25 Q1948.53 1525.75 1948.53 1523.06 Q1948.53 1520.38 1946.82 1518.87 Q1945.13 1517.37 1942.12 1517.37 Q1939.09 1517.37 1937.4 1518.87 Q1935.73 1520.38 1935.73 1523.06 Z" fill="#000000" fill-rule="nonzero" fill-opacity="1" /><path clip-path="url(#clip810)" d="M2319.91 1544.91 L2327.55 1544.91 L2327.55 1518.55 L2319.24 1520.21 L2319.24 1515.95 L2327.5 1514.29 L2332.18 1514.29 L2332.18 1544.91 L2339.82 1544.91 L2339.82 1548.85 L2319.91 1548.85 L2319.91 1544.91 Z" fill="#000000" fill-rule="nonzero" fill-opacity="1" /><path clip-path="url(#clip810)" d="M2349.26 1542.97 L2354.14 1542.97 L2354.14 1548.85 L2349.26 1548.85 L2349.26 1542.97 Z" fill="#000000" fill-rule="nonzero" fill-opacity="1" /><path clip-path="url(#clip810)" d="M2374.33 1517.37 Q2370.72 1517.37 2368.89 1520.93 Q2367.08 1524.47 2367.08 1531.6 Q2367.08 1538.71 2368.89 1542.27 Q2370.72 1545.82 2374.33 1545.82 Q2377.96 1545.82 2379.77 1542.27 Q2381.6 1538.71 2381.6 1531.6 Q2381.6 1524.47 2379.77 1520.93 Q2377.96 1517.37 2374.33 1517.37 M2374.33 1513.66 Q2380.14 1513.66 2383.2 1518.27 Q2386.27 1522.85 2386.27 1531.6 Q2386.27 1540.33 2383.2 1544.94 Q2380.14 1549.52 2374.33 1549.52 Q2368.52 1549.52 2365.44 1544.94 Q2362.39 1540.33 2362.39 1531.6 Q2362.39 1522.85 2365.44 1518.27 Q2368.52 1513.66 2374.33 1513.66 Z" fill="#000000" fill-rule="nonzero" fill-opacity="1" /><polyline clip-path="url(#clip810)" style="stroke:#000000; stroke-linecap:round; stroke-linejoin:round; stroke-width:4; stroke-opacity:1; fill:none" points="186.274,1486.45 186.274,123.472 "/>
<polyline clip-path="url(#clip810)" style="stroke:#000000; stroke-linecap:round; stroke-linejoin:round; stroke-width:4; stroke-opacity:1; fill:none" points="186.274,1449.16 205.172,1449.16 "/>
<polyline clip-path="url(#clip810)" style="stroke:#000000; stroke-linecap:round; stroke-linejoin:round; stroke-width:4; stroke-opacity:1; fill:none" points="186.274,1127.38 205.172,1127.38 "/>
<polyline clip-path="url(#clip810)" style="stroke:#000000; stroke-linecap:round; stroke-linejoin:round; stroke-width:4; stroke-opacity:1; fill:none" points="186.274,805.604 205.172,805.604 "/>
<polyline clip-path="url(#clip810)" style="stroke:#000000; stroke-linecap:round; stroke-linejoin:round; stroke-width:4; stroke-opacity:1; fill:none" points="186.274,483.825 205.172,483.825 "/>
<polyline clip-path="url(#clip810)" style="stroke:#000000; stroke-linecap:round; stroke-linejoin:round; stroke-width:4; stroke-opacity:1; fill:none" points="186.274,162.047 205.172,162.047 "/>
<path clip-path="url(#clip810)" d="M62.9365 1434.96 Q59.3254 1434.96 57.4967 1438.52 Q55.6912 1442.07 55.6912 1449.19 Q55.6912 1456.3 57.4967 1459.87 Q59.3254 1463.41 62.9365 1463.41 Q66.5707 1463.41 68.3763 1459.87 Q70.205 1456.3 70.205 1449.19 Q70.205 1442.07 68.3763 1438.52 Q66.5707 1434.96 62.9365 1434.96 M62.9365 1431.26 Q68.7467 1431.26 71.8022 1435.86 Q74.8809 1440.44 74.8809 1449.19 Q74.8809 1457.92 71.8022 1462.53 Q68.7467 1467.11 62.9365 1467.11 Q57.1264 1467.11 54.0477 1462.53 Q50.9921 1457.92 50.9921 1449.19 Q50.9921 1440.44 54.0477 1435.86 Q57.1264 1431.26 62.9365 1431.26 Z" fill="#000000" fill-rule="nonzero" fill-opacity="1" /><path clip-path="url(#clip810)" d="M83.0984 1460.56 L87.9827 1460.56 L87.9827 1466.44 L83.0984 1466.44 L83.0984 1460.56 Z" fill="#000000" fill-rule="nonzero" fill-opacity="1" /><path clip-path="url(#clip810)" d="M108.168 1434.96 Q104.557 1434.96 102.728 1438.52 Q100.922 1442.07 100.922 1449.19 Q100.922 1456.3 102.728 1459.87 Q104.557 1463.41 108.168 1463.41 Q111.802 1463.41 113.608 1459.87 Q115.436 1456.3 115.436 1449.19 Q115.436 1442.07 113.608 1438.52 Q111.802 1434.96 108.168 1434.96 M108.168 1431.26 Q113.978 1431.26 117.033 1435.86 Q120.112 1440.44 120.112 1449.19 Q120.112 1457.92 117.033 1462.53 Q113.978 1467.11 108.168 1467.11 Q102.358 1467.11 99.2789 1462.53 Q96.2234 1457.92 96.2234 1449.19 Q96.2234 1440.44 99.2789 1435.86 Q102.358 1431.26 108.168 1431.26 Z" fill="#000000" fill-rule="nonzero" fill-opacity="1" /><path clip-path="url(#clip810)" d="M138.33 1434.96 Q134.719 1434.96 132.89 1438.52 Q131.084 1442.07 131.084 1449.19 Q131.084 1456.3 132.89 1459.87 Q134.719 1463.41 138.33 1463.41 Q141.964 1463.41 143.769 1459.87 Q145.598 1456.3 145.598 1449.19 Q145.598 1442.07 143.769 1438.52 Q141.964 1434.96 138.33 1434.96 M138.33 1431.26 Q144.14 1431.26 147.195 1435.86 Q150.274 1440.44 150.274 1449.19 Q150.274 1457.92 147.195 1462.53 Q144.14 1467.11 138.33 1467.11 Q132.519 1467.11 129.441 1462.53 Q126.385 1457.92 126.385 1449.19 Q126.385 1440.44 129.441 1435.86 Q132.519 1431.26 138.33 1431.26 Z" fill="#000000" fill-rule="nonzero" fill-opacity="1" /><path clip-path="url(#clip810)" d="M63.9319 1113.18 Q60.3208 1113.18 58.4921 1116.75 Q56.6865 1120.29 56.6865 1127.42 Q56.6865 1134.52 58.4921 1138.09 Q60.3208 1141.63 63.9319 1141.63 Q67.5661 1141.63 69.3717 1138.09 Q71.2004 1134.52 71.2004 1127.42 Q71.2004 1120.29 69.3717 1116.75 Q67.5661 1113.18 63.9319 1113.18 M63.9319 1109.48 Q69.742 1109.48 72.7976 1114.08 Q75.8763 1118.67 75.8763 1127.42 Q75.8763 1136.14 72.7976 1140.75 Q69.742 1145.33 63.9319 1145.33 Q58.1217 1145.33 55.043 1140.75 Q51.9875 1136.14 51.9875 1127.42 Q51.9875 1118.67 55.043 1114.08 Q58.1217 1109.48 63.9319 1109.48 Z" fill="#000000" fill-rule="nonzero" fill-opacity="1" /><path clip-path="url(#clip810)" d="M84.0938 1138.78 L88.978 1138.78 L88.978 1144.66 L84.0938 1144.66 L84.0938 1138.78 Z" fill="#000000" fill-rule="nonzero" fill-opacity="1" /><path clip-path="url(#clip810)" d="M103.191 1140.73 L119.51 1140.73 L119.51 1144.66 L97.566 1144.66 L97.566 1140.73 Q100.228 1137.97 104.811 1133.34 Q109.418 1128.69 110.598 1127.35 Q112.844 1124.82 113.723 1123.09 Q114.626 1121.33 114.626 1119.64 Q114.626 1116.88 112.682 1115.15 Q110.76 1113.41 107.658 1113.41 Q105.459 1113.41 103.006 1114.18 Q100.575 1114.94 97.7974 1116.49 L97.7974 1111.77 Q100.621 1110.63 103.075 1110.06 Q105.529 1109.48 107.566 1109.48 Q112.936 1109.48 116.131 1112.16 Q119.325 1114.85 119.325 1119.34 Q119.325 1121.47 118.515 1123.39 Q117.728 1125.29 115.621 1127.88 Q115.043 1128.55 111.941 1131.77 Q108.839 1134.96 103.191 1140.73 Z" fill="#000000" fill-rule="nonzero" fill-opacity="1" /><path clip-path="url(#clip810)" d="M129.371 1110.1 L147.728 1110.1 L147.728 1114.04 L133.654 1114.04 L133.654 1122.51 Q134.672 1122.16 135.691 1122 Q136.709 1121.81 137.728 1121.81 Q143.515 1121.81 146.894 1124.99 Q150.274 1128.16 150.274 1133.57 Q150.274 1139.15 146.802 1142.25 Q143.33 1145.33 137.01 1145.33 Q134.834 1145.33 132.566 1144.96 Q130.32 1144.59 127.913 1143.85 L127.913 1139.15 Q129.996 1140.29 132.219 1140.84 Q134.441 1141.4 136.918 1141.4 Q140.922 1141.4 143.26 1139.29 Q145.598 1137.19 145.598 1133.57 Q145.598 1129.96 143.26 1127.86 Q140.922 1125.75 136.918 1125.75 Q135.043 1125.75 133.168 1126.17 Q131.316 1126.58 129.371 1127.46 L129.371 1110.1 Z" fill="#000000" fill-rule="nonzero" fill-opacity="1" /><path clip-path="url(#clip810)" d="M62.9365 791.402 Q59.3254 791.402 57.4967 794.967 Q55.6912 798.509 55.6912 805.638 Q55.6912 812.745 57.4967 816.31 Q59.3254 819.851 62.9365 819.851 Q66.5707 819.851 68.3763 816.31 Q70.205 812.745 70.205 805.638 Q70.205 798.509 68.3763 794.967 Q66.5707 791.402 62.9365 791.402 M62.9365 787.699 Q68.7467 787.699 71.8022 792.305 Q74.8809 796.888 74.8809 805.638 Q74.8809 814.365 71.8022 818.972 Q68.7467 823.555 62.9365 823.555 Q57.1264 823.555 54.0477 818.972 Q50.9921 814.365 50.9921 805.638 Q50.9921 796.888 54.0477 792.305 Q57.1264 787.699 62.9365 787.699 Z" fill="#000000" fill-rule="nonzero" fill-opacity="1" /><path clip-path="url(#clip810)" d="M83.0984 817.004 L87.9827 817.004 L87.9827 822.884 L83.0984 822.884 L83.0984 817.004 Z" fill="#000000" fill-rule="nonzero" fill-opacity="1" /><path clip-path="url(#clip810)" d="M98.2141 788.324 L116.57 788.324 L116.57 792.259 L102.496 792.259 L102.496 800.731 Q103.515 800.384 104.534 800.222 Q105.552 800.036 106.571 800.036 Q112.358 800.036 115.737 803.208 Q119.117 806.379 119.117 811.796 Q119.117 817.374 115.645 820.476 Q112.172 823.555 105.853 823.555 Q103.677 823.555 101.409 823.184 Q99.1632 822.814 96.7558 822.073 L96.7558 817.374 Q98.8391 818.509 101.061 819.064 Q103.284 819.62 105.76 819.62 Q109.765 819.62 112.103 817.513 Q114.441 815.407 114.441 811.796 Q114.441 808.185 112.103 806.078 Q109.765 803.972 105.76 803.972 Q103.885 803.972 102.01 804.388 Q100.159 804.805 98.2141 805.685 L98.2141 788.324 Z" fill="#000000" fill-rule="nonzero" fill-opacity="1" /><path clip-path="url(#clip810)" d="M138.33 791.402 Q134.719 791.402 132.89 794.967 Q131.084 798.509 131.084 805.638 Q131.084 812.745 132.89 816.31 Q134.719 819.851 138.33 819.851 Q141.964 819.851 143.769 816.31 Q145.598 812.745 145.598 805.638 Q145.598 798.509 143.769 794.967 Q141.964 791.402 138.33 791.402 M138.33 787.699 Q144.14 787.699 147.195 792.305 Q150.274 796.888 150.274 805.638 Q150.274 814.365 147.195 818.972 Q144.14 823.555 138.33 823.555 Q132.519 823.555 129.441 818.972 Q126.385 814.365 126.385 805.638 Q126.385 796.888 129.441 792.305 Q132.519 787.699 138.33 787.699 Z" fill="#000000" fill-rule="nonzero" fill-opacity="1" /><path clip-path="url(#clip810)" d="M63.9319 469.624 Q60.3208 469.624 58.4921 473.189 Q56.6865 476.73 56.6865 483.86 Q56.6865 490.966 58.4921 494.531 Q60.3208 498.073 63.9319 498.073 Q67.5661 498.073 69.3717 494.531 Q71.2004 490.966 71.2004 483.86 Q71.2004 476.73 69.3717 473.189 Q67.5661 469.624 63.9319 469.624 M63.9319 465.92 Q69.742 465.92 72.7976 470.527 Q75.8763 475.11 75.8763 483.86 Q75.8763 492.587 72.7976 497.193 Q69.742 501.777 63.9319 501.777 Q58.1217 501.777 55.043 497.193 Q51.9875 492.587 51.9875 483.86 Q51.9875 475.11 55.043 470.527 Q58.1217 465.92 63.9319 465.92 Z" fill="#000000" fill-rule="nonzero" fill-opacity="1" /><path clip-path="url(#clip810)" d="M84.0938 495.226 L88.978 495.226 L88.978 501.105 L84.0938 501.105 L84.0938 495.226 Z" fill="#000000" fill-rule="nonzero" fill-opacity="1" /><path clip-path="url(#clip810)" d="M97.9826 466.545 L120.205 466.545 L120.205 468.536 L107.658 501.105 L102.774 501.105 L114.58 470.48 L97.9826 470.48 L97.9826 466.545 Z" fill="#000000" fill-rule="nonzero" fill-opacity="1" /><path clip-path="url(#clip810)" d="M129.371 466.545 L147.728 466.545 L147.728 470.48 L133.654 470.48 L133.654 478.953 Q134.672 478.605 135.691 478.443 Q136.709 478.258 137.728 478.258 Q143.515 478.258 146.894 481.429 Q150.274 484.601 150.274 490.017 Q150.274 495.596 146.802 498.698 Q143.33 501.777 137.01 501.777 Q134.834 501.777 132.566 501.406 Q130.32 501.036 127.913 500.295 L127.913 495.596 Q129.996 496.73 132.219 497.286 Q134.441 497.841 136.918 497.841 Q140.922 497.841 143.26 495.735 Q145.598 493.628 145.598 490.017 Q145.598 486.406 143.26 484.3 Q140.922 482.193 136.918 482.193 Q135.043 482.193 133.168 482.61 Q131.316 483.027 129.371 483.906 L129.371 466.545 Z" fill="#000000" fill-rule="nonzero" fill-opacity="1" /><path clip-path="url(#clip810)" d="M53.7467 175.392 L61.3856 175.392 L61.3856 149.026 L53.0754 150.693 L53.0754 146.434 L61.3393 144.767 L66.0152 144.767 L66.0152 175.392 L73.654 175.392 L73.654 179.327 L53.7467 179.327 L53.7467 175.392 Z" fill="#000000" fill-rule="nonzero" fill-opacity="1" /><path clip-path="url(#clip810)" d="M83.0984 173.447 L87.9827 173.447 L87.9827 179.327 L83.0984 179.327 L83.0984 173.447 Z" fill="#000000" fill-rule="nonzero" fill-opacity="1" /><path clip-path="url(#clip810)" d="M108.168 147.846 Q104.557 147.846 102.728 151.41 Q100.922 154.952 100.922 162.082 Q100.922 169.188 102.728 172.753 Q104.557 176.295 108.168 176.295 Q111.802 176.295 113.608 172.753 Q115.436 169.188 115.436 162.082 Q115.436 154.952 113.608 151.41 Q111.802 147.846 108.168 147.846 M108.168 144.142 Q113.978 144.142 117.033 148.748 Q120.112 153.332 120.112 162.082 Q120.112 170.808 117.033 175.415 Q113.978 179.998 108.168 179.998 Q102.358 179.998 99.2789 175.415 Q96.2234 170.808 96.2234 162.082 Q96.2234 153.332 99.2789 148.748 Q102.358 144.142 108.168 144.142 Z" fill="#000000" fill-rule="nonzero" fill-opacity="1" /><path clip-path="url(#clip810)" d="M138.33 147.846 Q134.719 147.846 132.89 151.41 Q131.084 154.952 131.084 162.082 Q131.084 169.188 132.89 172.753 Q134.719 176.295 138.33 176.295 Q141.964 176.295 143.769 172.753 Q145.598 169.188 145.598 162.082 Q145.598 154.952 143.769 151.41 Q141.964 147.846 138.33 147.846 M138.33 144.142 Q144.14 144.142 147.195 148.748 Q150.274 153.332 150.274 162.082 Q150.274 170.808 147.195 175.415 Q144.14 179.998 138.33 179.998 Q132.519 179.998 129.441 175.415 Q126.385 170.808 126.385 162.082 Q126.385 153.332 129.441 148.748 Q132.519 144.142 138.33 144.142 Z" fill="#000000" fill-rule="nonzero" fill-opacity="1" /><path clip-path="url(#clip810)" d="M736.74 12.096 L774.981 12.096 L774.981 18.9825 L744.923 18.9825 L744.923 36.8875 L773.725 36.8875 L773.725 43.7741 L744.923 43.7741 L744.923 65.6895 L775.71 65.6895 L775.71 72.576 L736.74 72.576 L736.74 12.096 Z" fill="#000000" fill-rule="nonzero" fill-opacity="1" /><path clip-path="url(#clip810)" d="M824.159 35.9153 Q826.954 30.8922 830.843 28.5022 Q834.731 26.1121 839.998 26.1121 Q847.087 26.1121 850.935 31.0947 Q854.783 36.0368 854.783 45.1919 L854.783 72.576 L847.289 72.576 L847.289 45.4349 Q847.289 38.913 844.98 35.7533 Q842.671 32.5936 837.932 32.5936 Q832.139 32.5936 828.777 36.4419 Q825.414 40.2903 825.414 46.9338 L825.414 72.576 L817.92 72.576 L817.92 45.4349 Q817.92 38.8725 815.611 35.7533 Q813.302 32.5936 808.482 32.5936 Q802.77 32.5936 799.408 36.4824 Q796.045 40.3308 796.045 46.9338 L796.045 72.576 L788.551 72.576 L788.551 27.2059 L796.045 27.2059 L796.045 34.2544 Q798.597 30.082 802.162 28.0971 Q805.727 26.1121 810.629 26.1121 Q815.571 26.1121 819.014 28.6237 Q822.498 31.1352 824.159 35.9153 Z" fill="#000000" fill-rule="nonzero" fill-opacity="1" /><path clip-path="url(#clip810)" d="M876.861 65.7705 L876.861 89.8329 L869.367 89.8329 L869.367 27.2059 L876.861 27.2059 L876.861 34.0924 Q879.21 30.0415 882.775 28.0971 Q886.38 26.1121 891.363 26.1121 Q899.627 26.1121 904.772 32.6746 Q909.957 39.2371 909.957 49.9314 Q909.957 60.6258 904.772 67.1883 Q899.627 73.7508 891.363 73.7508 Q886.38 73.7508 882.775 71.8063 Q879.21 69.8214 876.861 65.7705 M902.219 49.9314 Q902.219 41.7081 898.817 37.0496 Q895.454 32.3505 889.54 32.3505 Q883.626 32.3505 880.223 37.0496 Q876.861 41.7081 876.861 49.9314 Q876.861 58.1548 880.223 62.8538 Q883.626 67.5124 889.54 67.5124 Q895.454 67.5124 898.817 62.8538 Q902.219 58.1548 902.219 49.9314 Z" fill="#000000" fill-rule="nonzero" fill-opacity="1" /><path clip-path="url(#clip810)" d="M922.312 27.2059 L929.766 27.2059 L929.766 72.576 L922.312 72.576 L922.312 27.2059 M922.312 9.54393 L929.766 9.54393 L929.766 18.9825 L922.312 18.9825 L922.312 9.54393 Z" fill="#000000" fill-rule="nonzero" fill-opacity="1" /><path clip-path="url(#clip810)" d="M971.652 34.1734 Q970.396 33.4443 968.897 33.1202 Q967.439 32.7556 965.657 32.7556 Q959.337 32.7556 955.934 36.8875 Q952.572 40.9789 952.572 48.6757 L952.572 72.576 L945.078 72.576 L945.078 27.2059 L952.572 27.2059 L952.572 34.2544 Q954.922 30.1225 958.689 28.1376 Q962.456 26.1121 967.844 26.1121 Q968.614 26.1121 969.545 26.2337 Q970.477 26.3147 971.611 26.5172 L971.652 34.1734 Z" fill="#000000" fill-rule="nonzero" fill-opacity="1" /><path clip-path="url(#clip810)" d="M979.47 27.2059 L986.924 27.2059 L986.924 72.576 L979.47 72.576 L979.47 27.2059 M979.47 9.54393 L986.924 9.54393 L986.924 18.9825 L979.47 18.9825 L979.47 9.54393 Z" fill="#000000" fill-rule="nonzero" fill-opacity="1" /><path clip-path="url(#clip810)" d="M1035.17 28.9478 L1035.17 35.9153 Q1032.01 34.1734 1028.81 33.3227 Q1025.65 32.4315 1022.41 32.4315 Q1015.16 32.4315 1011.15 37.0496 Q1007.14 41.6271 1007.14 49.9314 Q1007.14 58.2358 1011.15 62.8538 Q1015.16 67.4314 1022.41 67.4314 Q1025.65 67.4314 1028.81 66.5807 Q1032.01 65.6895 1035.17 63.9476 L1035.17 70.8341 Q1032.05 72.2924 1028.69 73.0216 Q1025.37 73.7508 1021.6 73.7508 Q1011.35 73.7508 1005.31 67.3098 Q999.279 60.8689 999.279 49.9314 Q999.279 38.832 1005.36 32.472 Q1011.47 26.1121 1022.09 26.1121 Q1025.53 26.1121 1028.81 26.8413 Q1032.09 27.5299 1035.17 28.9478 Z" fill="#000000" fill-rule="nonzero" fill-opacity="1" /><path clip-path="url(#clip810)" d="M1068.75 49.7694 Q1059.72 49.7694 1056.23 51.8354 Q1052.75 53.9013 1052.75 58.8839 Q1052.75 62.8538 1055.34 65.2034 Q1057.98 67.5124 1062.47 67.5124 Q1068.67 67.5124 1072.4 63.1374 Q1076.17 58.7219 1076.17 51.4303 L1076.17 49.7694 L1068.75 49.7694 M1083.62 46.6907 L1083.62 72.576 L1076.17 72.576 L1076.17 65.6895 Q1073.61 69.8214 1069.81 71.8063 Q1066 73.7508 1060.49 73.7508 Q1053.52 73.7508 1049.39 69.8619 Q1045.3 65.9325 1045.3 59.3701 Q1045.3 51.7138 1050.4 47.825 Q1055.55 43.9361 1065.71 43.9361 L1076.17 43.9361 L1076.17 43.2069 Q1076.17 38.0623 1072.76 35.2672 Q1069.4 32.4315 1063.28 32.4315 Q1059.39 32.4315 1055.71 33.3632 Q1052.02 34.295 1048.62 36.1584 L1048.62 29.2718 Q1052.71 27.692 1056.56 26.9223 Q1060.41 26.1121 1064.05 26.1121 Q1073.9 26.1121 1078.76 31.2163 Q1083.62 36.3204 1083.62 46.6907 Z" fill="#000000" fill-rule="nonzero" fill-opacity="1" /><path clip-path="url(#clip810)" d="M1098.97 9.54393 L1106.43 9.54393 L1106.43 72.576 L1098.97 72.576 L1098.97 9.54393 Z" fill="#000000" fill-rule="nonzero" fill-opacity="1" /><path clip-path="url(#clip810)" d="M1148.72 12.096 L1156.9 12.096 L1156.9 37.6572 L1184.04 12.096 L1194.57 12.096 L1164.56 40.2903 L1196.72 72.576 L1185.94 72.576 L1156.9 43.45 L1156.9 72.576 L1148.72 72.576 L1148.72 12.096 Z" fill="#000000" fill-rule="nonzero" fill-opacity="1" /><path clip-path="url(#clip810)" d="M1237.47 48.0275 L1237.47 51.6733 L1203.2 51.6733 Q1203.69 59.3701 1207.82 63.421 Q1211.99 67.4314 1219.41 67.4314 Q1223.7 67.4314 1227.71 66.3781 Q1231.76 65.3249 1235.73 63.2184 L1235.73 70.267 Q1231.72 71.9684 1227.51 72.8596 Q1223.29 73.7508 1218.96 73.7508 Q1208.1 73.7508 1201.74 67.4314 Q1195.42 61.1119 1195.42 50.3365 Q1195.42 39.1965 1201.42 32.6746 Q1207.46 26.1121 1217.66 26.1121 Q1226.82 26.1121 1232.13 32.0264 Q1237.47 37.9003 1237.47 48.0275 M1230.02 45.84 Q1229.94 39.7232 1226.58 36.0774 Q1223.25 32.4315 1217.74 32.4315 Q1211.51 32.4315 1207.74 35.9558 Q1204.01 39.4801 1203.44 45.8805 L1230.02 45.84 Z" fill="#000000" fill-rule="nonzero" fill-opacity="1" /><path clip-path="url(#clip810)" d="M1287.42 45.1919 L1287.42 72.576 L1279.97 72.576 L1279.97 45.4349 Q1279.97 38.994 1277.45 35.7938 Q1274.94 32.5936 1269.92 32.5936 Q1263.88 32.5936 1260.4 36.4419 Q1256.92 40.2903 1256.92 46.9338 L1256.92 72.576 L1249.42 72.576 L1249.42 27.2059 L1256.92 27.2059 L1256.92 34.2544 Q1259.59 30.163 1263.2 28.1376 Q1266.84 26.1121 1271.58 26.1121 Q1279.4 26.1121 1283.41 30.9732 Q1287.42 35.7938 1287.42 45.1919 Z" fill="#000000" fill-rule="nonzero" fill-opacity="1" /><path clip-path="url(#clip810)" d="M1332.14 34.0924 L1332.14 9.54393 L1339.6 9.54393 L1339.6 72.576 L1332.14 72.576 L1332.14 65.7705 Q1329.79 69.8214 1326.19 71.8063 Q1322.62 73.7508 1317.6 73.7508 Q1309.38 73.7508 1304.19 67.1883 Q1299.05 60.6258 1299.05 49.9314 Q1299.05 39.2371 1304.19 32.6746 Q1309.38 26.1121 1317.6 26.1121 Q1322.62 26.1121 1326.19 28.0971 Q1329.79 30.0415 1332.14 34.0924 M1306.74 49.9314 Q1306.74 58.1548 1310.11 62.8538 Q1313.51 67.5124 1319.42 67.5124 Q1325.34 67.5124 1328.74 62.8538 Q1332.14 58.1548 1332.14 49.9314 Q1332.14 41.7081 1328.74 37.0496 Q1325.34 32.3505 1319.42 32.3505 Q1313.51 32.3505 1310.11 37.0496 Q1306.74 41.7081 1306.74 49.9314 Z" fill="#000000" fill-rule="nonzero" fill-opacity="1" /><path clip-path="url(#clip810)" d="M1375.57 49.7694 Q1366.53 49.7694 1363.05 51.8354 Q1359.57 53.9013 1359.57 58.8839 Q1359.57 62.8538 1362.16 65.2034 Q1364.79 67.5124 1369.29 67.5124 Q1375.49 67.5124 1379.21 63.1374 Q1382.98 58.7219 1382.98 51.4303 L1382.98 49.7694 L1375.57 49.7694 M1390.43 46.6907 L1390.43 72.576 L1382.98 72.576 L1382.98 65.6895 Q1380.43 69.8214 1376.62 71.8063 Q1372.81 73.7508 1367.3 73.7508 Q1360.34 73.7508 1356.2 69.8619 Q1352.11 65.9325 1352.11 59.3701 Q1352.11 51.7138 1357.22 47.825 Q1362.36 43.9361 1372.53 43.9361 L1382.98 43.9361 L1382.98 43.2069 Q1382.98 38.0623 1379.58 35.2672 Q1376.22 32.4315 1370.1 32.4315 Q1366.21 32.4315 1362.52 33.3632 Q1358.84 34.295 1355.43 36.1584 L1355.43 29.2718 Q1359.53 27.692 1363.37 26.9223 Q1367.22 26.1121 1370.87 26.1121 Q1380.71 26.1121 1385.57 31.2163 Q1390.43 36.3204 1390.43 46.6907 Z" fill="#000000" fill-rule="nonzero" fill-opacity="1" /><path clip-path="url(#clip810)" d="M1405.79 9.54393 L1413.24 9.54393 L1413.24 72.576 L1405.79 72.576 L1405.79 9.54393 Z" fill="#000000" fill-rule="nonzero" fill-opacity="1" /><path clip-path="url(#clip810)" d="M1428.84 9.54393 L1436.29 9.54393 L1436.29 72.576 L1428.84 72.576 L1428.84 9.54393 Z" fill="#000000" fill-rule="nonzero" fill-opacity="1" /><path clip-path="url(#clip810)" d="M1501.23 9.54393 L1501.23 15.7418 L1494.1 15.7418 Q1490.09 15.7418 1488.51 17.3622 Q1486.97 18.9825 1486.97 23.1955 L1486.97 27.2059 L1499.24 27.2059 L1499.24 32.9987 L1486.97 32.9987 L1486.97 72.576 L1479.47 72.576 L1479.47 32.9987 L1472.34 32.9987 L1472.34 27.2059 L1479.47 27.2059 L1479.47 24.0462 Q1479.47 16.471 1483 13.0277 Q1486.52 9.54393 1494.18 9.54393 L1501.23 9.54393 Z" fill="#000000" fill-rule="nonzero" fill-opacity="1" /><path clip-path="url(#clip810)" d="M1506.7 54.671 L1506.7 27.2059 L1514.15 27.2059 L1514.15 54.3874 Q1514.15 60.8284 1516.66 64.0691 Q1519.17 67.2693 1524.2 67.2693 Q1530.23 67.2693 1533.71 63.421 Q1537.24 59.5726 1537.24 52.9291 L1537.24 27.2059 L1544.69 27.2059 L1544.69 72.576 L1537.24 72.576 L1537.24 65.6084 Q1534.53 69.7404 1530.92 71.7658 Q1527.36 73.7508 1522.62 73.7508 Q1514.8 73.7508 1510.75 68.8897 Q1506.7 64.0286 1506.7 54.671 M1525.45 26.1121 L1525.45 26.1121 Z" fill="#000000" fill-rule="nonzero" fill-opacity="1" /><path clip-path="url(#clip810)" d="M1597.76 45.1919 L1597.76 72.576 L1590.31 72.576 L1590.31 45.4349 Q1590.31 38.994 1587.79 35.7938 Q1585.28 32.5936 1580.26 32.5936 Q1574.22 32.5936 1570.74 36.4419 Q1567.26 40.2903 1567.26 46.9338 L1567.26 72.576 L1559.76 72.576 L1559.76 27.2059 L1567.26 27.2059 L1567.26 34.2544 Q1569.93 30.163 1573.54 28.1376 Q1577.18 26.1121 1581.92 26.1121 Q1589.74 26.1121 1593.75 30.9732 Q1597.76 35.7938 1597.76 45.1919 Z" fill="#000000" fill-rule="nonzero" fill-opacity="1" /><path clip-path="url(#clip810)" d="M1645.28 28.9478 L1645.28 35.9153 Q1642.12 34.1734 1638.92 33.3227 Q1635.76 32.4315 1632.52 32.4315 Q1625.27 32.4315 1621.25 37.0496 Q1617.24 41.6271 1617.24 49.9314 Q1617.24 58.2358 1621.25 62.8538 Q1625.27 67.4314 1632.52 67.4314 Q1635.76 67.4314 1638.92 66.5807 Q1642.12 65.6895 1645.28 63.9476 L1645.28 70.8341 Q1642.16 72.2924 1638.8 73.0216 Q1635.47 73.7508 1631.71 73.7508 Q1621.46 73.7508 1615.42 67.3098 Q1609.39 60.8689 1609.39 49.9314 Q1609.39 38.832 1615.46 32.472 Q1621.58 26.1121 1632.19 26.1121 Q1635.64 26.1121 1638.92 26.8413 Q1642.2 27.5299 1645.28 28.9478 Z" fill="#000000" fill-rule="nonzero" fill-opacity="1" /><path clip-path="url(#clip810)" d="M1665.61 14.324 L1665.61 27.2059 L1680.97 27.2059 L1680.97 32.9987 L1665.61 32.9987 L1665.61 57.6282 Q1665.61 63.1779 1667.11 64.7578 Q1668.65 66.3376 1673.31 66.3376 L1680.97 66.3376 L1680.97 72.576 L1673.31 72.576 Q1664.68 72.576 1661.4 69.3758 Q1658.12 66.1351 1658.12 57.6282 L1658.12 32.9987 L1652.65 32.9987 L1652.65 27.2059 L1658.12 27.2059 L1658.12 14.324 L1665.61 14.324 Z" fill="#000000" fill-rule="nonzero" fill-opacity="1" /><path clip-path="url(#clip810)" d="M1690.77 27.2059 L1698.22 27.2059 L1698.22 72.576 L1690.77 72.576 L1690.77 27.2059 M1690.77 9.54393 L1698.22 9.54393 L1698.22 18.9825 L1690.77 18.9825 L1690.77 9.54393 Z" fill="#000000" fill-rule="nonzero" fill-opacity="1" /><path clip-path="url(#clip810)" d="M1731.4 32.4315 Q1725.4 32.4315 1721.92 37.1306 Q1718.44 41.7891 1718.44 49.9314 Q1718.44 58.0738 1721.88 62.7728 Q1725.36 67.4314 1731.4 67.4314 Q1737.35 67.4314 1740.84 62.7323 Q1744.32 58.0333 1744.32 49.9314 Q1744.32 41.8701 1740.84 37.1711 Q1737.35 32.4315 1731.4 32.4315 M1731.4 26.1121 Q1741.12 26.1121 1746.67 32.4315 Q1752.22 38.7509 1752.22 49.9314 Q1752.22 61.0714 1746.67 67.4314 Q1741.12 73.7508 1731.4 73.7508 Q1721.64 73.7508 1716.09 67.4314 Q1710.58 61.0714 1710.58 49.9314 Q1710.58 38.7509 1716.09 32.4315 Q1721.64 26.1121 1731.4 26.1121 Z" fill="#000000" fill-rule="nonzero" fill-opacity="1" /><path clip-path="url(#clip810)" d="M1802.29 45.1919 L1802.29 72.576 L1794.84 72.576 L1794.84 45.4349 Q1794.84 38.994 1792.32 35.7938 Q1789.81 32.5936 1784.79 32.5936 Q1778.75 32.5936 1775.27 36.4419 Q1771.79 40.2903 1771.79 46.9338 L1771.79 72.576 L1764.29 72.576 L1764.29 27.2059 L1771.79 27.2059 L1771.79 34.2544 Q1774.46 30.163 1778.07 28.1376 Q1781.71 26.1121 1786.45 26.1121 Q1794.27 26.1121 1798.28 30.9732 Q1802.29 35.7938 1802.29 45.1919 Z" fill="#000000" fill-rule="nonzero" fill-opacity="1" /><polyline clip-path="url(#clip812)" style="stroke:#009af9; stroke-linecap:round; stroke-linejoin:round; stroke-width:4; stroke-opacity:1; fill:none" points="186.274,1447.87 189.07,1446.59 191.866,1442.72 194.661,1441.44 197.457,1440.15 200.253,1440.15 203.049,1436.29 204.446,1436.29 205.844,1433.71 206.543,1433.71 207.242,1433.71 207.592,1433.71 207.941,1433.71 208.116,1428.57 208.291,1428.57 208.465,1428.57 208.64,1428.57 210.687,1427.28 212.734,1425.99 214.781,1422.13 216.827,1422.13 220.921,1420.84 225.015,1419.56 233.202,1410.55 241.389,1404.11 257.764,1389.95 274.138,1375.79 278.232,1373.22 282.326,1369.36 286.419,1362.92 290.513,1356.49 298.7,1350.05 306.887,1343.62 323.262,1329.46 339.636,1312.73 341.541,1311.44 343.445,1311.44 345.35,1310.15 347.254,1308.86 351.063,1307.58 354.871,1307.58 358.68,1306.29 362.489,1302.43 366.297,1302.43 370.106,1301.14 373.915,1297.28 377.724,1290.85 381.532,1285.7 385.341,1283.12 389.15,1277.97 392.959,1274.11 396.767,1272.83 400.576,1272.83 401.852,1272.83 403.128,1272.83 404.405,1271.54 405.681,1267.68 408.234,1267.68 410.786,1267.68 415.891,1265.1 420.996,1261.24 423.549,1258.67 426.101,1253.52 428.654,1252.23 431.207,1249.66 436.312,1247.08 441.417,1245.8 451.627,1235.5 461.837,1226.49 472.047,1217.48 482.258,1211.04 490.694,1203.32 499.131,1193.02 507.568,1186.59 516.005,1180.15 518.114,1177.58 520.223,1177.58 522.332,1172.43 524.441,1168.57 528.66,1166 532.878,1162.13 537.097,1159.56 541.315,1154.41 543.424,1153.12 545.533,1151.84 547.643,1151.84 549.752,1151.84 553.674,1147.98 557.597,1142.83 561.52,1138.97 565.443,1136.39 573.288,1126.09 581.133,1119.66 588.979,1113.22 596.824,1104.21 600.747,1101.64 604.669,1099.07 608.592,1092.63 612.515,1087.48 613.746,1087.48 614.977,1087.48 616.208,1086.19 617.439,1086.19 619.901,1082.33 622.363,1078.47 624.826,1078.47 627.288,1078.47 629.75,1077.18 632.212,1074.61 634.674,1074.61 637.136,1073.32 639.598,1069.46 642.061,1068.17 644.523,1063.03 646.985,1060.45 649.447,1059.16 651.909,1057.88 656.834,1051.44 661.758,1043.72 666.682,1041.15 671.606,1037.28 681.455,1028.27 691.304,1023.13 700.138,1017.98 708.972,1011.54 713.389,1007.68 717.807,1001.24 722.224,993.522 726.641,985.799 728.849,981.938 731.058,981.938 733.267,981.938 735.475,981.938 739.892,978.077 744.309,971.641 748.727,967.78 753.144,961.344 755.352,960.057 757.561,956.196 759.769,956.196 761.978,956.196 767.034,953.622 772.09,947.186 774.618,942.038 777.146,940.75 779.674,940.75 782.202,940.75 787.258,939.463 792.314,938.176 794.842,935.602 797.37,934.315 798.634,933.028 799.898,933.028 801.162,930.454 802.426,927.879 804.954,926.592 807.482,922.731 810.01,922.731 812.538,922.731 817.594,916.295 822.65,911.147 832.762,903.424 842.874,896.989 857.992,885.405 873.109,872.533 874.999,869.959 876.888,866.098 878.778,866.098 880.668,863.524 884.447,862.237 888.226,859.662 895.785,855.801 903.344,851.94 913.012,849.365 922.679,844.217 932.347,836.494 942.015,830.059 961.351,814.613 980.686,797.881 989.51,792.732 998.334,788.871 1007.16,785.01 1015.98,778.574 1033.63,764.416 1051.28,751.545 1061.32,739.961 1071.36,728.377 1081.4,723.228 1091.45,718.08 1101.49,710.357 1111.53,703.922 1121.57,698.773 1131.62,694.912 1139.58,691.05 1147.54,684.615 1149.53,680.754 1151.52,676.892 1153.51,674.318 1155.5,674.318 1157.49,673.031 1159.48,671.744 1160.48,670.457 1161.47,670.457 1162.47,666.595 1163.46,666.595 1167.44,665.308 1171.42,664.021 1175.4,660.16 1179.38,660.16 1187.34,658.873 1195.31,655.011 1200.25,653.724 1205.2,651.15 1207.67,647.289 1210.14,643.427 1212.61,640.853 1215.09,638.279 1220.03,636.992 1224.98,635.705 1227.45,633.13 1229.92,629.269 1232.39,626.695 1234.87,625.408 1239.81,618.972 1244.76,611.249 1249.7,607.388 1254.65,604.814 1264.54,599.665 1274.43,594.517 1282,593.23 1289.58,590.656 1293.37,589.369 1297.15,585.507 1300.94,585.507 1304.73,585.507 1306.62,582.933 1308.51,577.785 1310.41,573.923 1312.3,572.636 1314.2,571.349 1316.09,571.349 1317.98,567.488 1319.88,564.913 1327.45,558.478 1335.03,553.329 1345.7,544.32 1356.38,539.171 1367.06,534.023 1377.74,528.874 1388.42,518.577 1399.1,508.28 1400.43,508.28 1401.77,508.28 1402.44,508.28 1403.1,504.419 1403.77,504.419 1404.44,504.419 1407.11,500.558 1409.78,495.409 1411.11,495.409 1412.45,494.122 1413.78,490.261 1415.12,490.261 1417.79,490.261 1420.46,488.974 1452.38,472.241 1484.3,455.509 1493.37,450.36 1502.45,447.786 1511.52,443.925 1520.6,440.063 1521.73,440.063 1522.87,437.489 1523.44,437.489 1524,437.489 1524.57,432.341 1525.14,432.341 1527.41,432.341 1529.68,431.054 1534.21,429.766 1538.75,425.905 1543.29,424.618 1547.83,424.618 1548.96,424.618 1550.09,424.618 1550.66,423.331 1551.23,423.331 1551.8,423.331 1552.36,423.331 1552.93,416.895 1553.5,416.895 1554.07,416.895 1554.63,416.895 1555.77,416.895 1556.9,415.608 1565.89,411.747 1574.88,406.598 1579.37,405.311 1583.86,405.311 1588.36,401.45 1592.85,398.876 1597.35,395.014 1601.84,395.014 1606.33,395.014 1610.83,393.727 1619.81,386.005 1628.8,378.282 1631.27,378.282 1633.75,378.282 1636.22,376.995 1638.69,376.995 1643.63,374.421 1648.58,373.133 1658.47,367.985 1668.35,362.837 1678.24,358.975 1688.13,349.965 1698.02,340.956 1707.91,334.52 1723.01,329.372 1738.12,324.223 1741.89,320.362 1745.67,316.501 1749.45,315.213 1753.22,315.213 1760.78,312.639 1768.33,311.352 1787.39,301.055 1806.45,292.045 1815.98,288.184 1825.52,286.897 1835.05,281.748 1844.58,275.313 1848.98,275.313 1853.39,275.313 1857.8,274.026 1862.21,270.164 1866.61,266.303 1871.02,262.442 1875.43,262.442 1879.84,261.155 1888.65,256.006 1897.47,253.432 1906.28,252.145 1915.1,250.858 1924.19,246.996 1933.28,241.848 1937.83,239.274 1942.37,237.987 1946.92,237.987 1951.46,237.987 1960.55,232.838 1969.65,226.403 1978.74,221.254 1987.83,221.254 1997.04,221.254 2006.26,219.967 2015.47,219.967 2024.69,219.967 2029.3,217.393 2033.9,213.531 2036.21,213.531 2038.51,213.531 2040.82,212.244 2043.12,210.957 2052.33,210.957 2061.55,209.67 2080.79,204.522 2100.04,200.66 2119.28,192.938 2138.53,186.502 2168.85,178.779 2199.17,171.057 2233.69,167.195 2268.21,164.621 2302.74,163.334 2337.26,162.047 2341.14,162.047 2345.01,162.047 2348.88,162.047 2352.76,162.047 "/>
<path clip-path="url(#clip810)" d="M258.49 272.585 L527.569 272.585 L527.569 168.905 L258.49 168.905  Z" fill="#ffffff" fill-rule="evenodd" fill-opacity="1"/>
<polyline clip-path="url(#clip810)" style="stroke:#000000; stroke-linecap:round; stroke-linejoin:round; stroke-width:4; stroke-opacity:1; fill:none" points="258.49,272.585 527.569,272.585 527.569,168.905 258.49,168.905 258.49,272.585 "/>
<polyline clip-path="url(#clip810)" style="stroke:#009af9; stroke-linecap:round; stroke-linejoin:round; stroke-width:4; stroke-opacity:1; fill:none" points="282.562,220.745 426.994,220.745 "/>
<path clip-path="url(#clip810)" d="M464.909 240.432 Q463.103 245.062 461.39 246.474 Q459.677 247.886 456.807 247.886 L453.404 247.886 L453.404 244.321 L455.904 244.321 Q457.663 244.321 458.636 243.488 Q459.608 242.654 460.788 239.552 L461.552 237.608 L451.066 212.099 L455.58 212.099 L463.682 232.377 L471.784 212.099 L476.298 212.099 L464.909 240.432 Z" fill="#000000" fill-rule="nonzero" fill-opacity="1" /><path clip-path="url(#clip810)" d="M483.589 234.089 L491.228 234.089 L491.228 207.724 L482.918 209.391 L482.918 205.131 L491.182 203.465 L495.858 203.465 L495.858 234.089 L503.497 234.089 L503.497 238.025 L483.589 238.025 L483.589 234.089 Z" fill="#000000" fill-rule="nonzero" fill-opacity="1" /></svg>
