<?xml version="1.0" encoding="utf-8"?>
<svg xmlns="http://www.w3.org/2000/svg" xmlns:xlink="http://www.w3.org/1999/xlink" width="650" height="300" viewBox="0 0 2600 1200">
<defs>
  <clipPath id="clip020">
    <rect x="0" y="0" width="2600" height="1200"/>
  </clipPath>
</defs>
<path clip-path="url(#clip020)" d="M0 1200 L2600 1200 L2600 0 L0 0  Z" fill="#ffffff" fill-rule="evenodd" fill-opacity="1"/>
<defs>
  <clipPath id="clip021">
    <rect x="520" y="0" width="1821" height="1200"/>
  </clipPath>
</defs>
<path clip-path="url(#clip020)" d="M188.274 1101.08 L2552.76 1101.08 L2552.76 47.2441 L188.274 47.2441  Z" fill="#ffffff" fill-rule="evenodd" fill-opacity="1"/>
<defs>
  <clipPath id="clip022">
    <rect x="188" y="47" width="2365" height="1055"/>
  </clipPath>
</defs>
<polyline clip-path="url(#clip022)" style="stroke:#000000; stroke-linecap:round; stroke-linejoin:round; stroke-width:2; stroke-opacity:0.1; fill:none" points="255.193,1101.08 255.193,47.2441 "/>
<polyline clip-path="url(#clip022)" style="stroke:#000000; stroke-linecap:round; stroke-linejoin:round; stroke-width:2; stroke-opacity:0.1; fill:none" points="812.854,1101.08 812.854,47.2441 "/>
<polyline clip-path="url(#clip022)" style="stroke:#000000; stroke-linecap:round; stroke-linejoin:round; stroke-width:2; stroke-opacity:0.1; fill:none" points="1370.51,1101.08 1370.51,47.2441 "/>
<polyline clip-path="url(#clip022)" style="stroke:#000000; stroke-linecap:round; stroke-linejoin:round; stroke-width:2; stroke-opacity:0.1; fill:none" points="1928.18,1101.08 1928.18,47.2441 "/>
<polyline clip-path="url(#clip022)" style="stroke:#000000; stroke-linecap:round; stroke-linejoin:round; stroke-width:2; stroke-opacity:0.1; fill:none" points="2485.84,1101.08 2485.84,47.2441 "/>
<polyline clip-path="url(#clip022)" style="stroke:#000000; stroke-linecap:round; stroke-linejoin:round; stroke-width:2; stroke-opacity:0.1; fill:none" points="188.274,1071.26 2552.76,1071.26 "/>
<polyline clip-path="url(#clip022)" style="stroke:#000000; stroke-linecap:round; stroke-linejoin:round; stroke-width:2; stroke-opacity:0.1; fill:none" points="188.274,822.71 2552.76,822.71 "/>
<polyline clip-path="url(#clip022)" style="stroke:#000000; stroke-linecap:round; stroke-linejoin:round; stroke-width:2; stroke-opacity:0.1; fill:none" points="188.274,574.163 2552.76,574.163 "/>
<polyline clip-path="url(#clip022)" style="stroke:#000000; stroke-linecap:round; stroke-linejoin:round; stroke-width:2; stroke-opacity:0.1; fill:none" points="188.274,325.616 2552.76,325.616 "/>
<polyline clip-path="url(#clip022)" style="stroke:#000000; stroke-linecap:round; stroke-linejoin:round; stroke-width:2; stroke-opacity:0.1; fill:none" points="188.274,77.0697 2552.76,77.0697 "/>
<polyline clip-path="url(#clip020)" style="stroke:#000000; stroke-linecap:round; stroke-linejoin:round; stroke-width:4; stroke-opacity:1; fill:none" points="188.274,1101.08 2552.76,1101.08 "/>
<polyline clip-path="url(#clip020)" style="stroke:#000000; stroke-linecap:round; stroke-linejoin:round; stroke-width:4; stroke-opacity:1; fill:none" points="255.193,1101.08 255.193,1082.18 "/>
<polyline clip-path="url(#clip020)" style="stroke:#000000; stroke-linecap:round; stroke-linejoin:round; stroke-width:4; stroke-opacity:1; fill:none" points="812.854,1101.08 812.854,1082.18 "/>
<polyline clip-path="url(#clip020)" style="stroke:#000000; stroke-linecap:round; stroke-linejoin:round; stroke-width:4; stroke-opacity:1; fill:none" points="1370.51,1101.08 1370.51,1082.18 "/>
<polyline clip-path="url(#clip020)" style="stroke:#000000; stroke-linecap:round; stroke-linejoin:round; stroke-width:4; stroke-opacity:1; fill:none" points="1928.18,1101.08 1928.18,1082.18 "/>
<polyline clip-path="url(#clip020)" style="stroke:#000000; stroke-linecap:round; stroke-linejoin:round; stroke-width:4; stroke-opacity:1; fill:none" points="2485.84,1101.08 2485.84,1082.18 "/>
<path clip-path="url(#clip020)" d="M217.497 1133.6 Q213.886 1133.6 212.057 1137.17 Q210.251 1140.71 210.251 1147.84 Q210.251 1154.94 212.057 1158.51 Q213.886 1162.05 217.497 1162.05 Q221.131 1162.05 222.937 1158.51 Q224.765 1154.94 224.765 1147.84 Q224.765 1140.71 222.937 1137.17 Q221.131 1133.6 217.497 1133.6 M217.497 1129.9 Q223.307 1129.9 226.362 1134.5 Q229.441 1139.09 229.441 1147.84 Q229.441 1156.56 226.362 1161.17 Q223.307 1165.75 217.497 1165.75 Q211.687 1165.75 208.608 1161.17 Q205.552 1156.56 205.552 1147.84 Q205.552 1139.09 208.608 1134.5 Q211.687 1129.9 217.497 1129.9 Z" fill="#000000" fill-rule="nonzero" fill-opacity="1" /><path clip-path="url(#clip020)" d="M237.659 1159.2 L242.543 1159.2 L242.543 1165.08 L237.659 1165.08 L237.659 1159.2 Z" fill="#000000" fill-rule="nonzero" fill-opacity="1" /><path clip-path="url(#clip020)" d="M262.728 1133.6 Q259.117 1133.6 257.288 1137.17 Q255.483 1140.71 255.483 1147.84 Q255.483 1154.94 257.288 1158.51 Q259.117 1162.05 262.728 1162.05 Q266.362 1162.05 268.168 1158.51 Q269.996 1154.94 269.996 1147.84 Q269.996 1140.71 268.168 1137.17 Q266.362 1133.6 262.728 1133.6 M262.728 1129.9 Q268.538 1129.9 271.594 1134.5 Q274.672 1139.09 274.672 1147.84 Q274.672 1156.56 271.594 1161.17 Q268.538 1165.75 262.728 1165.75 Q256.918 1165.75 253.839 1161.17 Q250.784 1156.56 250.784 1147.84 Q250.784 1139.09 253.839 1134.5 Q256.918 1129.9 262.728 1129.9 Z" fill="#000000" fill-rule="nonzero" fill-opacity="1" /><path clip-path="url(#clip020)" d="M292.89 1133.6 Q289.279 1133.6 287.45 1137.17 Q285.645 1140.71 285.645 1147.84 Q285.645 1154.94 287.45 1158.51 Q289.279 1162.05 292.89 1162.05 Q296.524 1162.05 298.33 1158.51 Q300.158 1154.94 300.158 1147.84 Q300.158 1140.71 298.33 1137.17 Q296.524 1133.6 292.89 1133.6 M292.89 1129.9 Q298.7 1129.9 301.756 1134.5 Q304.834 1139.09 304.834 1147.84 Q304.834 1156.56 301.756 1161.17 Q298.7 1165.75 292.89 1165.75 Q287.08 1165.75 284.001 1161.17 Q280.945 1156.56 280.945 1147.84 Q280.945 1139.09 284.001 1134.5 Q287.08 1129.9 292.89 1129.9 Z" fill="#000000" fill-rule="nonzero" fill-opacity="1" /><path clip-path="url(#clip020)" d="M775.655 1133.6 Q772.044 1133.6 770.215 1137.17 Q768.41 1140.71 768.41 1147.84 Q768.41 1154.94 770.215 1158.51 Q772.044 1162.05 775.655 1162.05 Q779.289 1162.05 781.095 1158.51 Q782.924 1154.94 782.924 1147.84 Q782.924 1140.71 781.095 1137.17 Q779.289 1133.6 775.655 1133.6 M775.655 1129.9 Q781.465 1129.9 784.521 1134.5 Q787.6 1139.09 787.6 1147.84 Q787.6 1156.56 784.521 1161.17 Q781.465 1165.75 775.655 1165.75 Q769.845 1165.75 766.766 1161.17 Q763.711 1156.56 763.711 1147.84 Q763.711 1139.09 766.766 1134.5 Q769.845 1129.9 775.655 1129.9 Z" fill="#000000" fill-rule="nonzero" fill-opacity="1" /><path clip-path="url(#clip020)" d="M795.817 1159.2 L800.701 1159.2 L800.701 1165.08 L795.817 1165.08 L795.817 1159.2 Z" fill="#000000" fill-rule="nonzero" fill-opacity="1" /><path clip-path="url(#clip020)" d="M814.914 1161.15 L831.234 1161.15 L831.234 1165.08 L809.289 1165.08 L809.289 1161.15 Q811.951 1158.39 816.535 1153.76 Q821.141 1149.11 822.322 1147.77 Q824.567 1145.24 825.447 1143.51 Q826.349 1141.75 826.349 1140.06 Q826.349 1137.3 824.405 1135.57 Q822.484 1133.83 819.382 1133.83 Q817.183 1133.83 814.729 1134.6 Q812.299 1135.36 809.521 1136.91 L809.521 1132.19 Q812.345 1131.05 814.799 1130.48 Q817.252 1129.9 819.289 1129.9 Q824.66 1129.9 827.854 1132.58 Q831.048 1135.27 831.048 1139.76 Q831.048 1141.89 830.238 1143.81 Q829.451 1145.71 827.345 1148.3 Q826.766 1148.97 823.664 1152.19 Q820.562 1155.38 814.914 1161.15 Z" fill="#000000" fill-rule="nonzero" fill-opacity="1" /><path clip-path="url(#clip020)" d="M841.095 1130.52 L859.451 1130.52 L859.451 1134.46 L845.377 1134.46 L845.377 1142.93 Q846.396 1142.58 847.414 1142.42 Q848.433 1142.23 849.451 1142.23 Q855.238 1142.23 858.618 1145.41 Q861.997 1148.58 861.997 1153.99 Q861.997 1159.57 858.525 1162.67 Q855.053 1165.75 848.734 1165.75 Q846.558 1165.75 844.289 1165.38 Q842.044 1165.01 839.636 1164.27 L839.636 1159.57 Q841.72 1160.71 843.942 1161.26 Q846.164 1161.82 848.641 1161.82 Q852.646 1161.82 854.984 1159.71 Q857.321 1157.6 857.321 1153.99 Q857.321 1150.38 854.984 1148.28 Q852.646 1146.17 848.641 1146.17 Q846.766 1146.17 844.891 1146.59 Q843.039 1147 841.095 1147.88 L841.095 1130.52 Z" fill="#000000" fill-rule="nonzero" fill-opacity="1" /><path clip-path="url(#clip020)" d="M1332.82 1133.6 Q1329.21 1133.6 1327.38 1137.17 Q1325.57 1140.71 1325.57 1147.84 Q1325.57 1154.94 1327.38 1158.51 Q1329.21 1162.05 1332.82 1162.05 Q1336.45 1162.05 1338.26 1158.51 Q1340.09 1154.94 1340.09 1147.84 Q1340.09 1140.71 1338.26 1137.17 Q1336.45 1133.6 1332.82 1133.6 M1332.82 1129.9 Q1338.63 1129.9 1341.68 1134.5 Q1344.76 1139.09 1344.76 1147.84 Q1344.76 1156.56 1341.68 1161.17 Q1338.63 1165.75 1332.82 1165.75 Q1327.01 1165.75 1323.93 1161.17 Q1320.87 1156.56 1320.87 1147.84 Q1320.87 1139.09 1323.93 1134.5 Q1327.01 1129.9 1332.82 1129.9 Z" fill="#000000" fill-rule="nonzero" fill-opacity="1" /><path clip-path="url(#clip020)" d="M1352.98 1159.2 L1357.86 1159.2 L1357.86 1165.08 L1352.98 1165.08 L1352.98 1159.2 Z" fill="#000000" fill-rule="nonzero" fill-opacity="1" /><path clip-path="url(#clip020)" d="M1368.1 1130.52 L1386.45 1130.52 L1386.45 1134.46 L1372.38 1134.46 L1372.38 1142.93 Q1373.4 1142.58 1374.42 1142.42 Q1375.43 1142.23 1376.45 1142.23 Q1382.24 1142.23 1385.62 1145.41 Q1389 1148.58 1389 1153.99 Q1389 1159.57 1385.53 1162.67 Q1382.05 1165.75 1375.73 1165.75 Q1373.56 1165.75 1371.29 1165.38 Q1369.05 1165.01 1366.64 1164.27 L1366.64 1159.57 Q1368.72 1160.71 1370.94 1161.26 Q1373.17 1161.82 1375.64 1161.82 Q1379.65 1161.82 1381.98 1159.71 Q1384.32 1157.6 1384.32 1153.99 Q1384.32 1150.38 1381.98 1148.28 Q1379.65 1146.17 1375.64 1146.17 Q1373.77 1146.17 1371.89 1146.59 Q1370.04 1147 1368.1 1147.88 L1368.1 1130.52 Z" fill="#000000" fill-rule="nonzero" fill-opacity="1" /><path clip-path="url(#clip020)" d="M1408.21 1133.6 Q1404.6 1133.6 1402.77 1137.17 Q1400.97 1140.71 1400.97 1147.84 Q1400.97 1154.94 1402.77 1158.51 Q1404.6 1162.05 1408.21 1162.05 Q1411.85 1162.05 1413.65 1158.51 Q1415.48 1154.94 1415.48 1147.84 Q1415.48 1140.71 1413.65 1137.17 Q1411.85 1133.6 1408.21 1133.6 M1408.21 1129.9 Q1414.02 1129.9 1417.08 1134.5 Q1420.16 1139.09 1420.16 1147.84 Q1420.16 1156.56 1417.08 1161.17 Q1414.02 1165.75 1408.21 1165.75 Q1402.4 1165.75 1399.32 1161.17 Q1396.27 1156.56 1396.27 1147.84 Q1396.27 1139.09 1399.32 1134.5 Q1402.4 1129.9 1408.21 1129.9 Z" fill="#000000" fill-rule="nonzero" fill-opacity="1" /><path clip-path="url(#clip020)" d="M1890.98 1133.6 Q1887.37 1133.6 1885.54 1137.17 Q1883.73 1140.71 1883.73 1147.84 Q1883.73 1154.94 1885.54 1158.51 Q1887.37 1162.05 1890.98 1162.05 Q1894.61 1162.05 1896.42 1158.51 Q1898.25 1154.94 1898.25 1147.84 Q1898.25 1140.71 1896.42 1137.17 Q1894.61 1133.6 1890.98 1133.6 M1890.98 1129.9 Q1896.79 1129.9 1899.84 1134.5 Q1902.92 1139.09 1902.92 1147.84 Q1902.92 1156.56 1899.84 1161.17 Q1896.79 1165.75 1890.98 1165.75 Q1885.17 1165.75 1882.09 1161.17 Q1879.03 1156.56 1879.03 1147.84 Q1879.03 1139.09 1882.09 1134.5 Q1885.17 1129.9 1890.98 1129.9 Z" fill="#000000" fill-rule="nonzero" fill-opacity="1" /><path clip-path="url(#clip020)" d="M1911.14 1159.2 L1916.02 1159.2 L1916.02 1165.08 L1911.14 1165.08 L1911.14 1159.2 Z" fill="#000000" fill-rule="nonzero" fill-opacity="1" /><path clip-path="url(#clip020)" d="M1925.03 1130.52 L1947.25 1130.52 L1947.25 1132.51 L1934.7 1165.08 L1929.82 1165.08 L1941.62 1134.46 L1925.03 1134.46 L1925.03 1130.52 Z" fill="#000000" fill-rule="nonzero" fill-opacity="1" /><path clip-path="url(#clip020)" d="M1956.42 1130.52 L1974.77 1130.52 L1974.77 1134.46 L1960.7 1134.46 L1960.7 1142.93 Q1961.72 1142.58 1962.74 1142.42 Q1963.75 1142.23 1964.77 1142.23 Q1970.56 1142.23 1973.94 1145.41 Q1977.32 1148.58 1977.32 1153.99 Q1977.32 1159.57 1973.85 1162.67 Q1970.37 1165.75 1964.06 1165.75 Q1961.88 1165.75 1959.61 1165.38 Q1957.37 1165.01 1954.96 1164.27 L1954.96 1159.57 Q1957.04 1160.71 1959.26 1161.26 Q1961.49 1161.82 1963.96 1161.82 Q1967.97 1161.82 1970.31 1159.71 Q1972.64 1157.6 1972.64 1153.99 Q1972.64 1150.38 1970.31 1148.28 Q1967.97 1146.17 1963.96 1146.17 Q1962.09 1146.17 1960.21 1146.59 Q1958.36 1147 1956.42 1147.88 L1956.42 1130.52 Z" fill="#000000" fill-rule="nonzero" fill-opacity="1" /><path clip-path="url(#clip020)" d="M2437.91 1161.15 L2445.55 1161.15 L2445.55 1134.78 L2437.24 1136.45 L2437.24 1132.19 L2445.5 1130.52 L2450.18 1130.52 L2450.18 1161.15 L2457.82 1161.15 L2457.82 1165.08 L2437.91 1165.08 L2437.91 1161.15 Z" fill="#000000" fill-rule="nonzero" fill-opacity="1" /><path clip-path="url(#clip020)" d="M2467.26 1159.2 L2472.14 1159.2 L2472.14 1165.08 L2467.26 1165.08 L2467.26 1159.2 Z" fill="#000000" fill-rule="nonzero" fill-opacity="1" /><path clip-path="url(#clip020)" d="M2492.33 1133.6 Q2488.72 1133.6 2486.89 1137.17 Q2485.08 1140.71 2485.08 1147.84 Q2485.08 1154.94 2486.89 1158.51 Q2488.72 1162.05 2492.33 1162.05 Q2495.96 1162.05 2497.77 1158.51 Q2499.6 1154.94 2499.6 1147.84 Q2499.6 1140.71 2497.77 1137.17 Q2495.96 1133.6 2492.33 1133.6 M2492.33 1129.9 Q2498.14 1129.9 2501.2 1134.5 Q2504.27 1139.09 2504.27 1147.84 Q2504.27 1156.56 2501.2 1161.17 Q2498.14 1165.75 2492.33 1165.75 Q2486.52 1165.75 2483.44 1161.17 Q2480.39 1156.56 2480.39 1147.84 Q2480.39 1139.09 2483.44 1134.5 Q2486.52 1129.9 2492.33 1129.9 Z" fill="#000000" fill-rule="nonzero" fill-opacity="1" /><path clip-path="url(#clip020)" d="M2522.49 1133.6 Q2518.88 1133.6 2517.05 1137.17 Q2515.25 1140.71 2515.25 1147.84 Q2515.25 1154.94 2517.05 1158.51 Q2518.88 1162.05 2522.49 1162.05 Q2526.13 1162.05 2527.93 1158.51 Q2529.76 1154.94 2529.76 1147.84 Q2529.76 1140.71 2527.93 1137.17 Q2526.13 1133.6 2522.49 1133.6 M2522.49 1129.9 Q2528.3 1129.9 2531.36 1134.5 Q2534.44 1139.09 2534.44 1147.84 Q2534.44 1156.56 2531.36 1161.17 Q2528.3 1165.75 2522.49 1165.75 Q2516.68 1165.75 2513.6 1161.17 Q2510.55 1156.56 2510.55 1147.84 Q2510.55 1139.09 2513.6 1134.5 Q2516.68 1129.9 2522.49 1129.9 Z" fill="#000000" fill-rule="nonzero" fill-opacity="1" /><polyline clip-path="url(#clip020)" style="stroke:#000000; stroke-linecap:round; stroke-linejoin:round; stroke-width:4; stroke-opacity:1; fill:none" points="188.274,1101.08 188.274,47.2441 "/>
<polyline clip-path="url(#clip020)" style="stroke:#000000; stroke-linecap:round; stroke-linejoin:round; stroke-width:4; stroke-opacity:1; fill:none" points="188.274,1071.26 207.172,1071.26 "/>
<polyline clip-path="url(#clip020)" style="stroke:#000000; stroke-linecap:round; stroke-linejoin:round; stroke-width:4; stroke-opacity:1; fill:none" points="188.274,822.71 207.172,822.71 "/>
<polyline clip-path="url(#clip020)" style="stroke:#000000; stroke-linecap:round; stroke-linejoin:round; stroke-width:4; stroke-opacity:1; fill:none" points="188.274,574.163 207.172,574.163 "/>
<polyline clip-path="url(#clip020)" style="stroke:#000000; stroke-linecap:round; stroke-linejoin:round; stroke-width:4; stroke-opacity:1; fill:none" points="188.274,325.616 207.172,325.616 "/>
<polyline clip-path="url(#clip020)" style="stroke:#000000; stroke-linecap:round; stroke-linejoin:round; stroke-width:4; stroke-opacity:1; fill:none" points="188.274,77.0697 207.172,77.0697 "/>
<path clip-path="url(#clip020)" d="M61.9365 1057.05 Q58.3254 1057.05 56.4967 1060.62 Q54.6912 1064.16 54.6912 1071.29 Q54.6912 1078.4 56.4967 1081.96 Q58.3254 1085.5 61.9365 1085.5 Q65.5707 1085.5 67.3763 1081.96 Q69.205 1078.4 69.205 1071.29 Q69.205 1064.16 67.3763 1060.62 Q65.5707 1057.05 61.9365 1057.05 M61.9365 1053.35 Q67.7467 1053.35 70.8022 1057.96 Q73.8809 1062.54 73.8809 1071.29 Q73.8809 1080.02 70.8022 1084.62 Q67.7467 1089.21 61.9365 1089.21 Q56.1264 1089.21 53.0477 1084.62 Q49.9921 1080.02 49.9921 1071.29 Q49.9921 1062.54 53.0477 1057.96 Q56.1264 1053.35 61.9365 1053.35 Z" fill="#000000" fill-rule="nonzero" fill-opacity="1" /><path clip-path="url(#clip020)" d="M82.0984 1082.66 L86.9827 1082.66 L86.9827 1088.54 L82.0984 1088.54 L82.0984 1082.66 Z" fill="#000000" fill-rule="nonzero" fill-opacity="1" /><path clip-path="url(#clip020)" d="M107.168 1057.05 Q103.557 1057.05 101.728 1060.62 Q99.9224 1064.16 99.9224 1071.29 Q99.9224 1078.4 101.728 1081.96 Q103.557 1085.5 107.168 1085.5 Q110.802 1085.5 112.608 1081.96 Q114.436 1078.4 114.436 1071.29 Q114.436 1064.16 112.608 1060.62 Q110.802 1057.05 107.168 1057.05 M107.168 1053.35 Q112.978 1053.35 116.033 1057.96 Q119.112 1062.54 119.112 1071.29 Q119.112 1080.02 116.033 1084.62 Q112.978 1089.21 107.168 1089.21 Q101.358 1089.21 98.2789 1084.62 Q95.2234 1080.02 95.2234 1071.29 Q95.2234 1062.54 98.2789 1057.96 Q101.358 1053.35 107.168 1053.35 Z" fill="#000000" fill-rule="nonzero" fill-opacity="1" /><path clip-path="url(#clip020)" d="M137.33 1057.05 Q133.719 1057.05 131.89 1060.62 Q130.084 1064.16 130.084 1071.29 Q130.084 1078.4 131.89 1081.96 Q133.719 1085.5 137.33 1085.5 Q140.964 1085.5 142.769 1081.96 Q144.598 1078.4 144.598 1071.29 Q144.598 1064.16 142.769 1060.62 Q140.964 1057.05 137.33 1057.05 M137.33 1053.35 Q143.14 1053.35 146.195 1057.96 Q149.274 1062.54 149.274 1071.29 Q149.274 1080.02 146.195 1084.62 Q143.14 1089.21 137.33 1089.21 Q131.519 1089.21 128.441 1084.62 Q125.385 1080.02 125.385 1071.29 Q125.385 1062.54 128.441 1057.96 Q131.519 1053.35 137.33 1053.35 Z" fill="#000000" fill-rule="nonzero" fill-opacity="1" /><path clip-path="url(#clip020)" d="M62.9319 808.508 Q59.3208 808.508 57.4921 812.073 Q55.6865 815.615 55.6865 822.744 Q55.6865 829.851 57.4921 833.415 Q59.3208 836.957 62.9319 836.957 Q66.5661 836.957 68.3717 833.415 Q70.2004 829.851 70.2004 822.744 Q70.2004 815.615 68.3717 812.073 Q66.5661 808.508 62.9319 808.508 M62.9319 804.805 Q68.742 804.805 71.7976 809.411 Q74.8763 813.994 74.8763 822.744 Q74.8763 831.471 71.7976 836.078 Q68.742 840.661 62.9319 840.661 Q57.1217 840.661 54.043 836.078 Q50.9875 831.471 50.9875 822.744 Q50.9875 813.994 54.043 809.411 Q57.1217 804.805 62.9319 804.805 Z" fill="#000000" fill-rule="nonzero" fill-opacity="1" /><path clip-path="url(#clip020)" d="M83.0938 834.11 L87.978 834.11 L87.978 839.99 L83.0938 839.99 L83.0938 834.11 Z" fill="#000000" fill-rule="nonzero" fill-opacity="1" /><path clip-path="url(#clip020)" d="M102.191 836.054 L118.51 836.054 L118.51 839.99 L96.566 839.99 L96.566 836.054 Q99.228 833.3 103.811 828.67 Q108.418 824.017 109.598 822.675 Q111.844 820.152 112.723 818.416 Q113.626 816.656 113.626 814.967 Q113.626 812.212 111.682 810.476 Q109.76 808.74 106.658 808.74 Q104.459 808.74 102.006 809.504 Q99.5752 810.267 96.7974 811.818 L96.7974 807.096 Q99.6215 805.962 102.075 805.383 Q104.529 804.805 106.566 804.805 Q111.936 804.805 115.131 807.49 Q118.325 810.175 118.325 814.666 Q118.325 816.795 117.515 818.716 Q116.728 820.615 114.621 823.207 Q114.043 823.878 110.941 827.096 Q107.839 830.29 102.191 836.054 Z" fill="#000000" fill-rule="nonzero" fill-opacity="1" /><path clip-path="url(#clip020)" d="M128.371 805.43 L146.728 805.43 L146.728 809.365 L132.654 809.365 L132.654 817.837 Q133.672 817.49 134.691 817.328 Q135.709 817.142 136.728 817.142 Q142.515 817.142 145.894 820.314 Q149.274 823.485 149.274 828.902 Q149.274 834.48 145.802 837.582 Q142.33 840.661 136.01 840.661 Q133.834 840.661 131.566 840.29 Q129.32 839.92 126.913 839.179 L126.913 834.48 Q128.996 835.615 131.219 836.17 Q133.441 836.726 135.918 836.726 Q139.922 836.726 142.26 834.619 Q144.598 832.513 144.598 828.902 Q144.598 825.291 142.26 823.184 Q139.922 821.078 135.918 821.078 Q134.043 821.078 132.168 821.494 Q130.316 821.911 128.371 822.791 L128.371 805.43 Z" fill="#000000" fill-rule="nonzero" fill-opacity="1" /><path clip-path="url(#clip020)" d="M61.9365 559.962 Q58.3254 559.962 56.4967 563.526 Q54.6912 567.068 54.6912 574.198 Q54.6912 581.304 56.4967 584.869 Q58.3254 588.411 61.9365 588.411 Q65.5707 588.411 67.3763 584.869 Q69.205 581.304 69.205 574.198 Q69.205 567.068 67.3763 563.526 Q65.5707 559.962 61.9365 559.962 M61.9365 556.258 Q67.7467 556.258 70.8022 560.864 Q73.8809 565.448 73.8809 574.198 Q73.8809 582.924 70.8022 587.531 Q67.7467 592.114 61.9365 592.114 Q56.1264 592.114 53.0477 587.531 Q49.9921 582.924 49.9921 574.198 Q49.9921 565.448 53.0477 560.864 Q56.1264 556.258 61.9365 556.258 Z" fill="#000000" fill-rule="nonzero" fill-opacity="1" /><path clip-path="url(#clip020)" d="M82.0984 585.563 L86.9827 585.563 L86.9827 591.443 L82.0984 591.443 L82.0984 585.563 Z" fill="#000000" fill-rule="nonzero" fill-opacity="1" /><path clip-path="url(#clip020)" d="M97.2141 556.883 L115.57 556.883 L115.57 560.818 L101.496 560.818 L101.496 569.29 Q102.515 568.943 103.534 568.781 Q104.552 568.596 105.571 568.596 Q111.358 568.596 114.737 571.767 Q118.117 574.938 118.117 580.355 Q118.117 585.934 114.645 589.036 Q111.172 592.114 104.853 592.114 Q102.677 592.114 100.409 591.744 Q98.1632 591.373 95.7558 590.633 L95.7558 585.934 Q97.8391 587.068 100.061 587.623 Q102.284 588.179 104.76 588.179 Q108.765 588.179 111.103 586.073 Q113.441 583.966 113.441 580.355 Q113.441 576.744 111.103 574.637 Q108.765 572.531 104.76 572.531 Q102.885 572.531 101.01 572.948 Q99.1585 573.364 97.2141 574.244 L97.2141 556.883 Z" fill="#000000" fill-rule="nonzero" fill-opacity="1" /><path clip-path="url(#clip020)" d="M137.33 559.962 Q133.719 559.962 131.89 563.526 Q130.084 567.068 130.084 574.198 Q130.084 581.304 131.89 584.869 Q133.719 588.411 137.33 588.411 Q140.964 588.411 142.769 584.869 Q144.598 581.304 144.598 574.198 Q144.598 567.068 142.769 563.526 Q140.964 559.962 137.33 559.962 M137.33 556.258 Q143.14 556.258 146.195 560.864 Q149.274 565.448 149.274 574.198 Q149.274 582.924 146.195 587.531 Q143.14 592.114 137.33 592.114 Q131.519 592.114 128.441 587.531 Q125.385 582.924 125.385 574.198 Q125.385 565.448 128.441 560.864 Q131.519 556.258 137.33 556.258 Z" fill="#000000" fill-rule="nonzero" fill-opacity="1" /><path clip-path="url(#clip020)" d="M62.9319 311.415 Q59.3208 311.415 57.4921 314.98 Q55.6865 318.521 55.6865 325.651 Q55.6865 332.757 57.4921 336.322 Q59.3208 339.864 62.9319 339.864 Q66.5661 339.864 68.3717 336.322 Q70.2004 332.757 70.2004 325.651 Q70.2004 318.521 68.3717 314.98 Q66.5661 311.415 62.9319 311.415 M62.9319 307.711 Q68.742 307.711 71.7976 312.318 Q74.8763 316.901 74.8763 325.651 Q74.8763 334.378 71.7976 338.984 Q68.742 343.568 62.9319 343.568 Q57.1217 343.568 54.043 338.984 Q50.9875 334.378 50.9875 325.651 Q50.9875 316.901 54.043 312.318 Q57.1217 307.711 62.9319 307.711 Z" fill="#000000" fill-rule="nonzero" fill-opacity="1" /><path clip-path="url(#clip020)" d="M83.0938 337.017 L87.978 337.017 L87.978 342.896 L83.0938 342.896 L83.0938 337.017 Z" fill="#000000" fill-rule="nonzero" fill-opacity="1" /><path clip-path="url(#clip020)" d="M96.9826 308.336 L119.205 308.336 L119.205 310.327 L106.658 342.896 L101.774 342.896 L113.58 312.271 L96.9826 312.271 L96.9826 308.336 Z" fill="#000000" fill-rule="nonzero" fill-opacity="1" /><path clip-path="url(#clip020)" d="M128.371 308.336 L146.728 308.336 L146.728 312.271 L132.654 312.271 L132.654 320.744 Q133.672 320.396 134.691 320.234 Q135.709 320.049 136.728 320.049 Q142.515 320.049 145.894 323.22 Q149.274 326.392 149.274 331.808 Q149.274 337.387 145.802 340.489 Q142.33 343.568 136.01 343.568 Q133.834 343.568 131.566 343.197 Q129.32 342.827 126.913 342.086 L126.913 337.387 Q128.996 338.521 131.219 339.077 Q133.441 339.632 135.918 339.632 Q139.922 339.632 142.26 337.526 Q144.598 335.419 144.598 331.808 Q144.598 328.197 142.26 326.091 Q139.922 323.984 135.918 323.984 Q134.043 323.984 132.168 324.401 Q130.316 324.818 128.371 325.697 L128.371 308.336 Z" fill="#000000" fill-rule="nonzero" fill-opacity="1" /><path clip-path="url(#clip020)" d="M52.7467 90.4145 L60.3856 90.4145 L60.3856 64.0489 L52.0754 65.7156 L52.0754 61.4563 L60.3393 59.7897 L65.0152 59.7897 L65.0152 90.4145 L72.654 90.4145 L72.654 94.3497 L52.7467 94.3497 L52.7467 90.4145 Z" fill="#000000" fill-rule="nonzero" fill-opacity="1" /><path clip-path="url(#clip020)" d="M82.0984 88.4701 L86.9827 88.4701 L86.9827 94.3497 L82.0984 94.3497 L82.0984 88.4701 Z" fill="#000000" fill-rule="nonzero" fill-opacity="1" /><path clip-path="url(#clip020)" d="M107.168 62.8684 Q103.557 62.8684 101.728 66.4332 Q99.9224 69.9748 99.9224 77.1044 Q99.9224 84.2109 101.728 87.7756 Q103.557 91.3173 107.168 91.3173 Q110.802 91.3173 112.608 87.7756 Q114.436 84.2109 114.436 77.1044 Q114.436 69.9748 112.608 66.4332 Q110.802 62.8684 107.168 62.8684 M107.168 59.1647 Q112.978 59.1647 116.033 63.7711 Q119.112 68.3545 119.112 77.1044 Q119.112 85.8312 116.033 90.4377 Q112.978 95.021 107.168 95.021 Q101.358 95.021 98.2789 90.4377 Q95.2234 85.8312 95.2234 77.1044 Q95.2234 68.3545 98.2789 63.7711 Q101.358 59.1647 107.168 59.1647 Z" fill="#000000" fill-rule="nonzero" fill-opacity="1" /><path clip-path="url(#clip020)" d="M137.33 62.8684 Q133.719 62.8684 131.89 66.4332 Q130.084 69.9748 130.084 77.1044 Q130.084 84.2109 131.89 87.7756 Q133.719 91.3173 137.33 91.3173 Q140.964 91.3173 142.769 87.7756 Q144.598 84.2109 144.598 77.1044 Q144.598 69.9748 142.769 66.4332 Q140.964 62.8684 137.33 62.8684 M137.33 59.1647 Q143.14 59.1647 146.195 63.7711 Q149.274 68.3545 149.274 77.1044 Q149.274 85.8312 146.195 90.4377 Q143.14 95.021 137.33 95.021 Q131.519 95.021 128.441 90.4377 Q125.385 85.8312 125.385 77.1044 Q125.385 68.3545 128.441 63.7711 Q131.519 59.1647 137.33 59.1647 Z" fill="#000000" fill-rule="nonzero" fill-opacity="1" /><polyline clip-path="url(#clip022)" style="stroke:#0000ff; stroke-linecap:round; stroke-linejoin:round; stroke-width:4; stroke-opacity:0.6; fill:none" points="255.193,1071.26 260.77,1068.77 266.347,1066.29 271.923,1063.8 277.5,1061.31 283.076,1058.83 288.653,1056.34 294.23,1053.86 299.806,1051.37 305.383,1048.89 310.959,1046.4 316.536,1043.92 322.113,1041.43 327.689,1038.95 333.266,1036.46 338.842,1033.97 344.419,1031.49 349.996,1029 355.572,1026.52 361.149,1024.03 366.725,1021.55 372.302,1019.06 377.879,1016.58 383.455,1014.09 389.032,1011.6 394.609,1009.12 400.185,1006.63 405.762,1004.15 411.338,1001.66 416.915,999.178 422.492,996.692 428.068,994.207 433.645,991.721 439.221,989.236 444.798,986.75 450.375,984.265 455.951,981.779 461.528,979.294 467.104,976.808 472.681,974.323 478.258,971.837 483.834,969.352 489.411,966.867 494.987,964.381 500.564,961.896 506.141,959.41 511.717,956.925 517.294,954.439 522.87,951.954 528.447,949.468 534.024,946.983 539.6,944.497 545.177,942.012 550.754,939.526 556.33,937.041 561.907,934.555 567.483,932.07 573.06,929.585 578.637,927.099 584.213,924.614 589.79,922.128 595.366,919.643 600.943,917.157 606.52,914.672 612.096,912.186 617.673,909.701 623.249,907.215 628.826,904.73 634.403,902.244 639.979,899.759 645.556,897.274 651.132,894.788 656.709,892.303 662.286,889.817 667.862,887.332 673.439,884.846 679.016,882.361 684.592,879.875 690.169,877.39 695.745,874.904 701.322,872.419 706.899,869.933 712.475,867.448 718.052,864.962 723.628,862.477 729.205,859.992 734.782,857.506 740.358,855.021 745.935,852.535 751.511,850.05 757.088,847.564 762.665,845.079 768.241,842.593 773.818,840.108 779.394,837.622 784.971,835.137 790.548,832.651 796.124,830.166 801.701,827.68 807.278,825.195 812.854,822.71 818.431,820.224 824.007,817.739 829.584,815.253 835.161,812.768 840.737,810.282 846.314,807.797 851.89,805.311 857.467,802.826 863.044,800.34 868.62,797.855 874.197,795.369 879.773,792.884 885.35,790.398 890.927,787.913 896.503,785.428 902.08,782.942 907.656,780.457 913.233,777.971 918.81,775.486 924.386,773 929.963,770.515 935.54,768.029 941.116,765.544 946.693,763.058 952.269,760.573 957.846,758.087 963.423,755.602 968.999,753.116 974.576,750.631 980.152,748.146 985.729,745.66 991.306,743.175 996.882,740.689 1002.46,738.204 1008.04,735.718 1013.61,733.233 1019.19,730.747 1024.77,728.262 1030.34,725.776 1035.92,723.291 1041.5,720.805 1047.07,718.32 1052.65,715.834 1058.22,713.349 1063.8,710.864 1069.38,708.378 1074.95,705.893 1080.53,703.407 1086.11,700.922 1091.68,698.436 1097.26,695.951 1102.84,693.465 1108.41,690.98 1113.99,688.494 1119.57,686.009 1125.14,683.523 1130.72,681.038 1136.3,678.552 1141.87,676.067 1147.45,673.582 1153.03,671.096 1158.6,668.611 1164.18,666.125 1169.76,663.64 1175.33,661.154 1180.91,658.669 1186.49,656.183 1192.06,653.698 1197.64,651.212 1203.22,648.727 1208.79,646.241 1214.37,643.756 1219.95,641.27 1225.52,638.785 1231.1,636.3 1236.68,633.814 1242.25,631.329 1247.83,628.843 1253.41,626.358 1258.98,623.872 1264.56,621.387 1270.14,618.901 1275.71,616.416 1281.29,613.93 1286.87,611.445 1292.44,608.959 1298.02,606.474 1303.6,603.989 1309.17,601.503 1314.75,599.018 1320.33,596.532 1325.9,594.047 1331.48,591.561 1337.06,589.076 1342.63,586.59 1348.21,584.105 1353.79,581.619 1359.36,579.134 1364.94,576.648 1370.51,574.163 1376.09,571.677 1381.67,569.192 1387.24,566.707 1392.82,564.221 1398.4,561.736 1403.97,559.25 1409.55,556.765 1415.13,554.279 1420.7,551.794 1426.28,549.308 1431.86,546.823 1437.43,544.337 1443.01,541.852 1448.59,539.366 1454.16,536.881 1459.74,534.395 1465.32,531.91 1470.89,529.425 1476.47,526.939 1482.05,524.454 1487.62,521.968 1493.2,519.483 1498.78,516.997 1504.35,514.512 1509.93,512.026 1515.51,509.541 1521.08,507.055 1526.66,504.57 1532.24,502.084 1537.81,499.599 1543.39,497.113 1548.97,494.628 1554.54,492.143 1560.12,489.657 1565.7,487.172 1571.27,484.686 1576.85,482.201 1582.43,479.715 1588,477.23 1593.58,474.744 1599.16,472.259 1604.73,469.773 1610.31,467.288 1615.89,464.802 1621.46,462.317 1627.04,459.831 1632.62,457.346 1638.19,454.861 1643.77,452.375 1649.35,449.89 1654.92,447.404 1660.5,444.919 1666.08,442.433 1671.65,439.948 1677.23,437.462 1682.81,434.977 1688.38,432.491 1693.96,430.006 1699.53,427.52 1705.11,425.035 1710.69,422.549 1716.26,420.064 1721.84,417.579 1727.42,415.093 1732.99,412.608 1738.57,410.122 1744.15,407.637 1749.72,405.151 1755.3,402.666 1760.88,400.18 1766.45,397.695 1772.03,395.209 1777.61,392.724 1783.18,390.238 1788.76,387.753 1794.34,385.267 1799.91,382.782 1805.49,380.297 1811.07,377.811 1816.64,375.326 1822.22,372.84 1827.8,370.355 1833.37,367.869 1838.95,365.384 1844.53,362.898 1850.1,360.413 1855.68,357.927 1861.26,355.442 1866.83,352.956 1872.41,350.471 1877.99,347.985 1883.56,345.5 1889.14,343.015 1894.72,340.529 1900.29,338.044 1905.87,335.558 1911.45,333.073 1917.02,330.587 1922.6,328.102 1928.18,325.616 1933.75,323.131 1939.33,320.645 1944.91,318.16 1950.48,315.674 1956.06,313.189 1961.64,310.704 1967.21,308.218 1972.79,305.733 1978.37,303.247 1983.94,300.762 1989.52,298.276 1995.1,295.791 2000.67,293.305 2006.25,290.82 2011.82,288.334 2017.4,285.849 2022.98,283.363 2028.55,280.878 2034.13,278.392 2039.71,275.907 2045.28,273.422 2050.86,270.936 2056.44,268.451 2062.01,265.965 2067.59,263.48 2073.17,260.994 2078.74,258.509 2084.32,256.023 2089.9,253.538 2095.47,251.052 2101.05,248.567 2106.63,246.081 2112.2,243.596 2117.78,241.11 2123.36,238.625 2128.93,236.14 2134.51,233.654 2140.09,231.169 2145.66,228.683 2151.24,226.198 2156.82,223.712 2162.39,221.227 2167.97,218.741 2173.55,216.256 2179.12,213.77 2184.7,211.285 2190.28,208.799 2195.85,206.314 2201.43,203.828 2207.01,201.343 2212.58,198.858 2218.16,196.372 2223.74,193.887 2229.31,191.401 2234.89,188.916 2240.47,186.43 2246.04,183.945 2251.62,181.459 2257.2,178.974 2262.77,176.488 2268.35,174.003 2273.93,171.517 2279.5,169.032 2285.08,166.546 2290.66,164.061 2296.23,161.576 2301.81,159.09 2307.39,156.605 2312.96,154.119 2318.54,151.634 2324.11,149.148 2329.69,146.663 2335.27,144.177 2340.84,141.692 2346.42,139.206 2352,136.721 2357.57,134.235 2363.15,131.75 2368.73,129.264 2374.3,126.779 2379.88,124.294 2385.46,121.808 2391.03,119.323 2396.61,116.837 2402.19,114.352 2407.76,111.866 2413.34,109.381 2418.92,106.895 2424.49,104.41 2430.07,101.924 2435.65,99.4389 2441.22,96.9534 2446.8,94.468 2452.38,91.9825 2457.95,89.497 2463.53,87.0116 2469.11,84.5261 2474.68,82.0406 2480.26,79.5552 2485.84,77.0697 "/>
<polyline clip-path="url(#clip022)" style="stroke:#000000; stroke-linecap:round; stroke-linejoin:round; stroke-width:4; stroke-opacity:1; fill:none" points="255.193,1071.26 260.77,1071.26 260.77,1067.28 266.347,1067.28 266.347,1064.79 271.923,1064.79 271.923,1063.3 277.5,1063.3 277.5,1060.82 283.076,1060.82 283.076,1059.82 288.653,1059.82 288.653,1055.35 294.23,1055.35 294.23,1049.88 299.806,1049.88 299.806,1045.41 305.383,1045.41 305.383,1042.42 310.959,1042.42 310.959,1040.93 316.536,1040.93 316.536,1037.45 322.113,1037.45 322.113,1034.97 327.689,1034.97 327.689,1032.98 333.266,1032.98 333.266,1030 338.842,1030 338.842,1028.01 344.419,1028.01 344.419,1026.52 349.996,1026.52 349.996,1023.54 355.572,1023.54 355.572,1021.05 361.149,1021.05 361.149,1019.06 366.725,1019.06 366.725,1017.57 372.302,1017.57 372.302,1015.08 377.879,1015.08 377.879,1013.59 383.455,1013.59 383.455,1010.61 389.032,1010.61 389.032,1008.62 394.609,1008.62 394.609,1005.64 400.185,1005.64 400.185,1003.65 405.762,1003.65 405.762,1001.17 411.338,1001.17 411.338,999.178 416.915,999.178 416.915,997.686 422.492,997.686 422.492,995.201 428.068,995.201 428.068,992.218 433.645,992.218 433.645,989.236 439.221,989.236 439.221,986.75 444.798,986.75 444.798,985.259 450.375,985.259 450.375,983.768 455.951,983.768 455.951,979.294 461.528,979.294 461.528,977.803 467.104,977.803 467.104,974.323 472.681,974.323 472.681,970.843 478.258,970.843 478.258,967.861 483.834,967.861 483.834,965.872 489.411,965.872 489.411,963.387 494.987,963.387 494.987,961.896 500.564,961.896 500.564,958.416 506.141,958.416 506.141,955.931 511.717,955.931 511.717,952.948 517.294,952.948 517.294,950.96 522.87,950.96 522.87,949.468 528.447,949.468 528.447,947.48 534.024,947.48 534.024,945.989 539.6,945.989 539.6,943.006 545.177,943.006 545.177,941.515 550.754,941.515 550.754,940.521 556.33,940.521 556.33,939.526 561.907,939.526 561.907,934.058 567.483,934.058 567.483,932.07 573.06,932.07 573.06,929.087 578.637,929.087 578.637,927.099 584.213,927.099 584.213,924.614 589.79,924.614 589.79,921.134 595.366,921.134 595.366,917.654 600.943,917.654 600.943,915.666 606.52,915.666 606.52,912.683 612.096,912.683 612.096,912.186 617.673,912.186 617.673,908.707 623.249,908.707 623.249,906.221 628.826,906.221 628.826,903.736 634.403,903.736 634.403,903.239 639.979,903.239 639.979,902.742 645.556,902.742 645.556,899.262 651.132,899.262 651.132,895.782 656.709,895.782 656.709,893.297 662.286,893.297 662.286,891.308 667.862,891.308 667.862,889.817 673.439,889.817 673.439,887.829 679.016,887.829 679.016,885.343 684.592,885.343 684.592,880.372 690.169,880.372 690.169,877.39 695.745,877.39 695.745,875.401 701.322,875.401 701.322,872.419 706.899,872.419 706.899,871.425 712.475,871.425 712.475,867.945 718.052,867.945 718.052,866.951 723.628,866.951 723.628,863.471 729.205,863.471 729.205,861.98 734.782,861.98 734.782,858.003 740.358,858.003 740.358,856.512 745.935,856.512 745.935,853.529 751.511,853.529 751.511,851.044 757.088,851.044 757.088,847.067 762.665,847.067 762.665,846.073 768.241,846.073 768.241,844.085 773.818,844.085 773.818,840.605 779.394,840.605 779.394,836.628 784.971,836.628 784.971,834.143 790.548,834.143 790.548,832.651 796.124,832.651 796.124,830.663 801.701,830.663 801.701,828.675 807.278,828.675 807.278,826.189 812.854,826.189 812.854,824.201 818.431,824.201 818.431,821.715 824.007,821.715 824.007,819.23 829.584,819.23 829.584,817.241 835.161,817.241 835.161,812.768 840.737,812.768 840.737,810.282 846.314,810.282 846.314,809.785 851.89,809.785 851.89,805.311 857.467,805.311 857.467,803.82 863.044,803.82 863.044,801.832 868.62,801.832 868.62,795.369 874.197,795.369 874.197,793.381 879.773,793.381 879.773,790.398 885.35,790.398 885.35,787.416 890.927,787.416 890.927,785.428 896.503,785.428 896.503,783.439 902.08,783.439 902.08,780.954 907.656,780.954 907.656,777.971 913.233,777.971 913.233,774.989 918.81,774.989 918.81,772.006 924.386,772.006 924.386,769.023 929.963,769.023 929.963,765.047 935.54,765.047 935.54,761.07 941.116,761.07 941.116,757.093 946.693,757.093 946.693,754.111 952.269,754.111 952.269,753.116 957.846,753.116 957.846,749.637 963.423,749.637 963.423,746.157 968.999,746.157 968.999,743.175 974.576,743.175 974.576,737.209 980.152,737.209 980.152,732.239 985.729,732.239 985.729,729.256 991.306,729.256 991.306,726.273 996.882,726.273 996.882,723.291 1002.46,723.291 1002.46,720.308 1008.04,720.308 1008.04,718.32 1013.61,718.32 1013.61,714.84 1019.19,714.84 1019.19,711.361 1024.77,711.361 1024.77,708.875 1030.34,708.875 1030.34,707.881 1035.92,707.881 1035.92,704.898 1041.5,704.898 1041.5,703.904 1047.07,703.904 1047.07,700.425 1052.65,700.425 1052.65,696.945 1058.22,696.945 1058.22,695.951 1063.8,695.951 1063.8,693.465 1069.38,693.465 1069.38,691.477 1074.95,691.477 1074.95,689.489 1080.53,689.489 1080.53,687.003 1086.11,687.003 1086.11,683.523 1091.68,683.523 1091.68,683.026 1097.26,683.026 1097.26,680.044 1102.84,680.044 1102.84,678.552 1108.41,678.552 1108.41,675.57 1113.99,675.57 1113.99,672.587 1119.57,672.587 1119.57,669.108 1125.14,669.108 1125.14,667.616 1130.72,667.616 1130.72,664.634 1136.3,664.634 1136.3,662.646 1141.87,662.646 1141.87,660.16 1147.45,660.16 1147.45,656.68 1153.03,656.68 1153.03,652.704 1158.6,652.704 1158.6,650.218 1164.18,650.218 1164.18,646.739 1169.76,646.739 1169.76,643.756 1175.33,643.756 1175.33,641.27 1180.91,641.27 1180.91,640.276 1186.49,640.276 1186.49,637.791 1192.06,637.791 1192.06,634.311 1197.64,634.311 1197.64,632.82 1203.22,632.82 1203.22,630.832 1208.79,630.832 1208.79,628.843 1214.37,628.843 1214.37,625.861 1219.95,625.861 1219.95,623.375 1225.52,623.375 1225.52,619.398 1231.1,619.398 1231.1,616.416 1236.68,616.416 1236.68,615.422 1242.25,615.422 1242.25,611.942 1247.83,611.942 1247.83,610.948 1253.41,610.948 1253.41,607.468 1258.98,607.468 1258.98,604.983 1264.56,604.983 1264.56,603.989 1270.14,603.989 1270.14,602.497 1275.71,602.497 1275.71,597.526 1281.29,597.526 1281.29,595.538 1286.87,595.538 1286.87,593.052 1292.44,593.052 1292.44,589.076 1298.02,589.076 1298.02,587.087 1303.6,587.087 1303.6,585.596 1309.17,585.596 1309.17,583.608 1314.75,583.608 1314.75,582.613 1320.33,582.613 1320.33,581.619 1325.9,581.619 1325.9,578.637 1331.48,578.637 1331.48,576.648 1337.06,576.648 1337.06,574.163 1342.63,574.163 1342.63,573.666 1348.21,573.666 1348.21,572.175 1353.79,572.175 1353.79,569.689 1359.36,569.689 1359.36,568.198 1364.94,568.198 1364.94,565.215 1370.51,565.215 1370.51,562.233 1376.09,562.233 1381.67,562.233 1381.67,560.244 1387.24,560.244 1387.24,556.268 1392.82,556.268 1392.82,553.285 1398.4,553.285 1398.4,551.297 1403.97,551.297 1403.97,549.308 1409.55,549.308 1409.55,546.823 1415.13,546.823 1415.13,544.834 1420.7,544.834 1420.7,541.852 1426.28,541.852 1426.28,539.863 1431.86,539.863 1431.86,539.366 1437.43,539.366 1437.43,538.372 1443.01,538.372 1443.01,535.39 1448.59,535.39 1448.59,534.395 1454.16,534.395 1454.16,530.419 1459.74,530.419 1459.74,528.43 1465.32,528.43 1465.32,525.945 1470.89,525.945 1470.89,522.465 1476.47,522.465 1476.47,518.488 1482.05,518.488 1482.05,516.5 1487.62,516.5 1487.62,514.015 1493.2,514.015 1493.2,510.038 1498.78,510.038 1498.78,509.541 1504.35,509.541 1504.35,507.055 1509.93,507.055 1509.93,504.57 1515.51,504.57 1515.51,501.587 1521.08,501.587 1521.08,500.096 1526.66,500.096 1526.66,497.611 1532.24,497.611 1532.24,494.628 1537.81,494.628 1537.81,491.645 1543.39,491.645 1543.39,490.154 1548.97,490.154 1548.97,487.669 1554.54,487.669 1554.54,483.692 1560.12,483.692 1560.12,482.201 1565.7,482.201 1565.7,478.224 1571.27,478.224 1571.27,475.738 1576.85,475.738 1576.85,475.241 1582.43,475.241 1582.43,472.259 1588,472.259 1588,470.768 1593.58,470.768 1593.58,465.797 1599.16,465.797 1599.16,462.814 1604.73,462.814 1604.73,458.837 1610.31,458.837 1610.31,457.843 1615.89,457.843 1615.89,456.352 1621.46,456.352 1621.46,453.369 1627.04,453.369 1627.04,450.884 1632.62,450.884 1632.62,447.901 1638.19,447.901 1638.19,446.907 1643.77,446.907 1643.77,443.924 1649.35,443.924 1649.35,440.942 1654.92,440.942 1654.92,437.462 1660.5,437.462 1660.5,434.977 1666.08,434.977 1666.08,432.491 1671.65,432.491 1671.65,429.012 1677.23,429.012 1677.23,427.023 1682.81,427.023 1682.81,423.544 1688.38,423.544 1688.38,422.549 1693.96,422.549 1693.96,421.058 1699.53,421.058 1699.53,419.07 1705.11,419.07 1705.11,416.087 1710.69,416.087 1710.69,415.093 1716.26,415.093 1716.26,410.619 1721.84,410.619 1721.84,409.128 1727.42,409.128 1727.42,408.134 1732.99,408.134 1732.99,402.666 1738.57,402.666 1744.15,402.666 1744.15,400.18 1749.72,400.18 1749.72,397.198 1755.3,397.198 1755.3,395.209 1760.88,395.209 1760.88,393.221 1766.45,393.221 1766.45,390.238 1772.03,390.238 1772.03,387.256 1777.61,387.256 1777.61,384.273 1783.18,384.273 1783.18,382.285 1788.76,382.285 1788.76,379.302 1794.34,379.302 1794.34,376.32 1799.91,376.32 1799.91,374.331 1805.49,374.331 1805.49,369.858 1811.07,369.858 1811.07,369.361 1816.64,369.361 1816.64,367.372 1822.22,367.372 1822.22,365.881 1827.8,365.881 1827.8,361.904 1833.37,361.904 1833.37,360.413 1838.95,360.413 1838.95,356.436 1844.53,356.436 1844.53,354.945 1850.1,354.945 1850.1,352.459 1855.68,352.459 1861.26,352.459 1861.26,349.974 1866.83,349.974 1866.83,348.483 1872.41,348.483 1872.41,344.506 1877.99,344.506 1877.99,343.015 1883.56,343.015 1883.56,341.523 1889.14,341.523 1889.14,338.541 1894.72,338.541 1894.72,335.061 1900.29,335.061 1900.29,331.581 1905.87,331.581 1905.87,328.599 1911.45,328.599 1911.45,326.113 1917.02,326.113 1917.02,322.634 1922.6,322.634 1922.6,319.651 1928.18,319.651 1928.18,316.669 1933.75,316.669 1933.75,313.686 1939.33,313.686 1939.33,310.206 1944.91,310.206 1944.91,308.715 1950.48,308.715 1950.48,304.738 1956.06,304.738 1956.06,302.75 1961.64,302.75 1961.64,299.767 1967.21,299.767 1967.21,297.779 1972.79,297.779 1972.79,294.299 1978.37,294.299 1978.37,291.814 1983.94,291.814 1983.94,290.323 1989.52,290.323 1989.52,287.34 1995.1,287.34 1995.1,283.86 2000.67,283.86 2000.67,280.878 2006.25,280.878 2006.25,277.895 2011.82,277.895 2011.82,277.398 2017.4,277.398 2017.4,276.901 2022.98,276.901 2022.98,274.416 2028.55,274.416 2028.55,270.439 2034.13,270.439 2034.13,268.948 2039.71,268.948 2039.71,266.959 2045.28,266.959 2045.28,263.977 2050.86,263.977 2050.86,262.485 2056.44,262.485 2056.44,259.503 2062.01,259.503 2062.01,258.012 2067.59,258.012 2067.59,257.515 2073.17,257.515 2073.17,254.035 2078.74,254.035 2078.74,251.549 2084.32,251.549 2084.32,250.555 2089.9,250.555 2089.9,248.07 2095.47,248.07 2095.47,245.584 2101.05,245.584 2101.05,244.093 2106.63,244.093 2106.63,243.596 2112.2,243.596 2112.2,242.602 2117.78,242.602 2117.78,238.625 2123.36,238.625 2123.36,236.14 2128.93,236.14 2128.93,231.169 2134.51,231.169 2134.51,228.186 2140.09,228.186 2140.09,225.203 2145.66,225.203 2145.66,224.706 2151.24,224.706 2151.24,223.215 2156.82,223.215 2156.82,221.227 2162.39,221.227 2162.39,218.244 2167.97,218.244 2167.97,214.267 2173.55,214.267 2173.55,211.782 2179.12,211.782 2179.12,209.794 2184.7,209.794 2184.7,206.314 2190.28,206.314 2190.28,204.823 2195.85,204.823 2195.85,203.331 2201.43,203.331 2201.43,201.84 2207.01,201.84 2207.01,199.852 2212.58,199.852 2212.58,197.863 2218.16,197.863 2218.16,197.366 2223.74,197.366 2223.74,194.384 2229.31,194.384 2229.31,192.892 2234.89,192.892 2234.89,192.395 2240.47,192.395 2240.47,189.91 2246.04,189.91 2246.04,187.921 2251.62,187.921 2251.62,184.442 2257.2,184.442 2257.2,180.962 2262.77,180.962 2262.77,178.477 2268.35,178.477 2268.35,176.488 2273.93,176.488 2273.93,174.5 2279.5,174.5 2279.5,172.512 2285.08,172.512 2285.08,167.541 2290.66,167.541 2290.66,164.061 2296.23,164.061 2296.23,162.073 2301.81,162.073 2301.81,160.084 2307.39,160.084 2307.39,156.108 2312.96,156.108 2318.54,156.108 2318.54,153.622 2324.11,153.622 2324.11,152.628 2329.69,152.628 2329.69,147.657 2335.27,147.657 2335.27,144.674 2340.84,144.674 2340.84,142.189 2346.42,142.189 2346.42,140.201 2352,140.201 2352,135.727 2357.57,135.727 2357.57,133.241 2363.15,133.241 2363.15,131.75 2368.73,131.75 2368.73,128.27 2374.3,128.27 2374.3,125.288 2379.88,125.288 2379.88,122.305 2385.46,122.305 2385.46,120.814 2391.03,120.814 2391.03,118.826 2396.61,118.826 2396.61,116.837 2402.19,116.837 2402.19,114.352 2407.76,114.352 2407.76,111.866 2413.34,111.866 2413.34,109.381 2418.92,109.381 2418.92,107.392 2424.49,107.392 2424.49,104.41 2430.07,104.41 2430.07,103.416 2435.65,103.416 2435.65,100.93 2441.22,100.93 2441.22,99.936 2446.8,99.936 2446.8,96.4563 2452.38,96.4563 2452.38,93.9709 2457.95,93.9709 2457.95,90.4912 2463.53,90.4912 2463.53,84.029 2469.11,84.029 2469.11,83.0348 2474.68,83.0348 2474.68,81.0464 2480.26,81.0464 2480.26,80.0522 2485.84,80.0522 2485.84,77.0697 "/>
<polyline clip-path="url(#clip022)" style="stroke:#808080; stroke-linecap:round; stroke-linejoin:round; stroke-width:4; stroke-opacity:1; fill:none" points="255.193,1071.26 260.77,1071.26 260.77,1067.78 266.347,1067.78 266.347,1065.29 271.923,1065.29 271.923,1063.3 277.5,1063.3 277.5,1059.82 283.076,1059.82 283.076,1056.34 288.653,1056.34 288.653,1052.86 294.23,1052.86 294.23,1049.38 299.806,1049.38 299.806,1048.39 305.383,1048.39 305.383,1045.41 310.959,1045.41 310.959,1044.41 316.536,1044.41 316.536,1040.44 322.113,1040.44 322.113,1036.96 327.689,1036.96 327.689,1033.97 333.266,1033.97 333.266,1031.49 338.842,1031.49 338.842,1029 344.419,1029 344.419,1025.52 349.996,1025.52 349.996,1024.03 355.572,1024.03 355.572,1021.05 361.149,1021.05 361.149,1018.56 366.725,1018.56 366.725,1016.08 372.302,1016.08 372.302,1013.59 377.879,1013.59 377.879,1010.61 383.455,1010.61 383.455,1007.63 389.032,1007.63 389.032,1006.14 394.609,1006.14 394.609,1001.17 400.185,1001.17 400.185,999.178 405.762,999.178 405.762,997.189 411.338,997.189 411.338,993.71 416.915,993.71 416.915,991.721 422.492,991.721 422.492,989.236 428.068,989.236 428.068,984.762 433.645,984.762 433.645,981.779 439.221,981.779 439.221,979.294 444.798,979.294 444.798,977.306 450.375,977.306 450.375,975.814 455.951,975.814 455.951,973.826 461.528,973.826 461.528,971.837 467.104,971.837 467.104,969.352 472.681,969.352 472.681,967.364 478.258,967.364 478.258,963.884 483.834,963.884 483.834,960.901 489.411,960.901 489.411,959.41 494.987,959.41 494.987,956.428 500.564,956.428 500.564,952.948 506.141,952.948 506.141,948.971 511.717,948.971 511.717,946.486 517.294,946.486 517.294,943.006 522.87,943.006 522.87,941.018 528.447,941.018 528.447,938.035 534.024,938.035 534.024,936.047 539.6,936.047 539.6,934.058 545.177,934.058 545.177,932.07 550.754,932.07 550.754,931.076 556.33,931.076 556.33,929.087 561.907,929.087 561.907,928.093 567.483,928.093 567.483,926.602 573.06,926.602 573.06,923.619 578.637,923.619 578.637,920.637 584.213,920.637 584.213,918.151 589.79,918.151 589.79,916.163 595.366,916.163 595.366,914.175 600.943,914.175 600.943,912.186 606.52,912.186 606.52,911.192 612.096,911.192 612.096,908.21 617.673,908.21 617.673,905.724 623.249,905.724 623.249,903.239 628.826,903.239 628.826,901.25 634.403,901.25 634.403,898.268 639.979,898.268 639.979,895.782 645.556,895.782 645.556,892.8 651.132,892.8 651.132,888.823 656.709,888.823 656.709,885.84 662.286,885.84 662.286,882.361 667.862,882.361 667.862,879.875 673.439,879.875 673.439,878.881 679.016,878.881 679.016,877.39 684.592,877.39 684.592,874.407 690.169,874.407 690.169,870.928 695.745,870.928 695.745,868.939 701.322,868.939 701.322,866.951 706.899,866.951 706.899,862.974 712.475,862.974 712.475,859.992 718.052,859.992 718.052,858.003 723.628,858.003 723.628,856.015 729.205,856.015 729.205,853.529 734.782,853.529 734.782,852.535 740.358,852.535 740.358,849.553 745.935,849.553 745.935,844.582 751.511,844.582 751.511,842.593 757.088,842.593 757.088,839.611 762.665,839.611 762.665,838.119 768.241,838.119 768.241,835.634 773.818,835.634 773.818,831.657 779.394,831.657 779.394,829.669 784.971,829.669 784.971,828.178 790.548,828.178 790.548,825.195 796.124,825.195 796.124,823.704 801.701,823.704 801.701,821.218 807.278,821.218 807.278,820.721 812.854,820.721 812.854,819.727 818.431,819.727 818.431,816.247 824.007,816.247 824.007,812.768 829.584,812.768 829.584,811.276 835.161,811.276 835.161,810.282 840.737,810.282 840.737,807.3 846.314,807.3 846.314,805.808 851.89,805.808 851.89,802.329 857.467,802.329 857.467,799.843 863.044,799.843 863.044,797.855 868.62,797.855 868.62,797.358 874.197,797.358 874.197,793.381 879.773,793.381 879.773,790.398 885.35,790.398 885.35,789.404 890.927,789.404 890.927,786.919 896.503,786.919 896.503,784.93 902.08,784.93 902.08,781.451 907.656,781.451 907.656,777.971 913.233,777.971 913.233,774.989 918.81,774.989 918.81,772.503 924.386,772.503 924.386,771.012 929.963,771.012 929.963,768.029 935.54,768.029 935.54,766.041 941.116,766.041 941.116,763.058 946.693,763.058 946.693,759.082 952.269,759.082 952.269,757.093 957.846,757.093 957.846,753.614 963.423,753.614 963.423,749.637 968.999,749.637 968.999,748.146 974.576,748.146 974.576,745.163 980.152,745.163 980.152,743.672 985.729,743.672 985.729,742.18 991.306,742.18 991.306,738.701 996.882,738.701 996.882,736.215 1002.46,736.215 1002.46,733.233 1008.04,733.233 1008.04,732.239 1013.61,732.239 1013.61,729.753 1019.19,729.753 1019.19,726.771 1024.77,726.771 1024.77,725.279 1030.34,725.279 1030.34,721.8 1035.92,721.8 1035.92,718.32 1041.5,718.32 1041.5,717.823 1047.07,717.823 1047.07,715.337 1052.65,715.337 1052.65,712.355 1058.22,712.355 1058.22,711.361 1063.8,711.361 1063.8,705.396 1069.38,705.396 1069.38,703.904 1074.95,703.904 1074.95,703.407 1080.53,703.407 1080.53,702.91 1086.11,702.91 1086.11,699.927 1091.68,699.927 1091.68,697.442 1097.26,697.442 1097.26,695.951 1102.84,695.951 1102.84,693.465 1108.41,693.465 1108.41,688.991 1113.99,688.991 1113.99,687.5 1119.57,687.5 1119.57,685.512 1125.14,685.512 1125.14,684.518 1130.72,684.518 1130.72,681.038 1136.3,681.038 1136.3,678.552 1141.87,678.552 1141.87,675.073 1147.45,675.073 1147.45,673.084 1153.03,673.084 1153.03,670.102 1158.6,670.102 1158.6,667.119 1164.18,667.119 1164.18,665.131 1169.76,665.131 1169.76,664.634 1175.33,664.634 1175.33,661.651 1180.91,661.651 1180.91,660.16 1186.49,660.16 1186.49,657.177 1192.06,657.177 1192.06,655.189 1197.64,655.189 1197.64,653.698 1203.22,653.698 1203.22,650.218 1208.79,650.218 1208.79,647.733 1214.37,647.733 1214.37,646.739 1219.95,646.739 1219.95,643.756 1225.52,643.756 1225.52,642.762 1231.1,642.762 1231.1,639.282 1236.68,639.282 1236.68,637.791 1242.25,637.791 1242.25,634.311 1247.83,634.311 1247.83,632.323 1253.41,632.323 1253.41,630.334 1258.98,630.334 1258.98,627.849 1264.56,627.849 1264.56,624.369 1270.14,624.369 1270.14,623.872 1275.71,623.872 1275.71,620.89 1281.29,620.89 1281.29,619.398 1286.87,619.398 1286.87,617.907 1292.44,617.907 1292.44,614.925 1298.02,614.925 1298.02,611.445 1303.6,611.445 1303.6,609.457 1309.17,609.457 1309.17,608.959 1314.75,608.959 1314.75,604.983 1320.33,604.983 1320.33,600.509 1325.9,600.509 1325.9,599.018 1331.48,599.018 1331.48,596.532 1337.06,596.532 1337.06,593.052 1342.63,593.052 1342.63,591.561 1348.21,591.561 1348.21,589.076 1353.79,589.076 1353.79,586.093 1359.36,586.093 1359.36,584.602 1364.94,584.602 1364.94,582.116 1370.51,582.116 1370.51,580.625 1376.09,580.625 1376.09,577.643 1381.67,577.643 1381.67,576.151 1387.24,576.151 1387.24,573.666 1392.82,573.666 1392.82,571.18 1398.4,571.18 1398.4,569.192 1403.97,569.192 1403.97,567.701 1409.55,567.701 1409.55,563.724 1415.13,563.724 1415.13,562.73 1420.7,562.73 1420.7,558.753 1426.28,558.753 1426.28,558.256 1431.86,558.256 1431.86,556.268 1437.43,556.268 1437.43,554.776 1443.01,554.776 1443.01,552.291 1448.59,552.291 1448.59,550.302 1454.16,550.302 1454.16,548.811 1459.74,548.811 1459.74,546.823 1465.32,546.823 1465.32,544.337 1470.89,544.337 1470.89,542.349 1476.47,542.349 1476.47,538.869 1482.05,538.869 1482.05,536.384 1487.62,536.384 1487.62,533.401 1493.2,533.401 1493.2,528.927 1498.78,528.927 1498.78,525.448 1504.35,525.448 1504.35,523.459 1509.93,523.459 1509.93,520.477 1515.51,520.477 1515.51,516.5 1521.08,516.5 1521.08,512.523 1526.66,512.523 1526.66,510.535 1532.24,510.535 1532.24,508.547 1537.81,508.547 1537.81,504.073 1543.39,504.073 1543.39,500.593 1548.97,500.593 1548.97,499.102 1554.54,499.102 1554.54,495.622 1560.12,495.622 1560.12,492.64 1565.7,492.64 1565.7,490.651 1571.27,490.651 1571.27,486.675 1576.85,486.675 1576.85,484.686 1582.43,484.686 1582.43,481.704 1588,481.704 1588,479.218 1593.58,479.218 1593.58,476.733 1599.16,476.733 1599.16,474.247 1604.73,474.247 1604.73,470.27 1610.31,470.27 1610.31,467.288 1615.89,467.288 1615.89,464.305 1621.46,464.305 1621.46,460.329 1627.04,460.329 1627.04,458.34 1632.62,458.34 1632.62,456.352 1638.19,456.352 1638.19,454.363 1643.77,454.363 1643.77,450.387 1649.35,450.387 1649.35,449.89 1654.92,449.89 1654.92,446.41 1660.5,446.41 1660.5,444.422 1666.08,444.422 1666.08,441.936 1671.65,441.936 1677.23,441.936 1677.23,439.451 1682.81,439.451 1682.81,435.971 1688.38,435.971 1688.38,433.983 1693.96,433.983 1693.96,432.988 1699.53,432.988 1699.53,430.503 1705.11,430.503 1705.11,428.515 1710.69,428.515 1710.69,428.018 1716.26,428.018 1716.26,426.029 1721.84,426.029 1721.84,424.041 1727.42,424.041 1727.42,422.052 1732.99,422.052 1732.99,418.573 1738.57,418.573 1738.57,416.087 1744.15,416.087 1744.15,414.596 1749.72,414.596 1749.72,411.613 1755.3,411.613 1755.3,408.134 1760.88,408.134 1760.88,404.654 1766.45,404.654 1766.45,402.169 1772.03,402.169 1772.03,399.683 1777.61,399.683 1777.61,398.192 1783.18,398.192 1783.18,395.706 1788.76,395.706 1788.76,391.233 1794.34,391.233 1794.34,389.244 1799.91,389.244 1799.91,386.759 1805.49,386.759 1805.49,386.262 1811.07,386.262 1811.07,383.279 1816.64,383.279 1816.64,381.291 1822.22,381.291 1822.22,377.811 1827.8,377.811 1827.8,374.829 1833.37,374.829 1833.37,372.84 1838.95,372.84 1838.95,371.846 1844.53,371.846 1844.53,369.858 1850.1,369.858 1850.1,367.869 1855.68,367.869 1855.68,367.372 1861.26,367.372 1861.26,363.395 1866.83,363.395 1866.83,359.916 1872.41,359.916 1872.41,357.43 1877.99,357.43 1877.99,354.945 1883.56,354.945 1883.56,351.465 1889.14,351.465 1889.14,348.98 1894.72,348.98 1894.72,346.494 1900.29,346.494 1900.29,343.015 1905.87,343.015 1905.87,341.523 1911.45,341.523 1911.45,340.529 1917.02,340.529 1917.02,336.055 1922.6,336.055 1922.6,334.067 1928.18,334.067 1928.18,333.57 1933.75,333.57 1933.75,332.576 1939.33,332.576 1939.33,329.096 1944.91,329.096 1944.91,327.108 1950.48,327.108 1950.48,325.616 1956.06,325.616 1956.06,321.64 1961.64,321.64 1961.64,318.657 1967.21,318.657 1967.21,318.16 1972.79,318.16 1972.79,315.674 1978.37,315.674 1978.37,312.195 1983.94,312.195 1983.94,309.709 1989.52,309.709 1989.52,306.727 1995.1,306.727 1995.1,303.744 2000.67,303.744 2000.67,301.756 2006.25,301.756 2006.25,300.265 2011.82,300.265 2011.82,298.276 2017.4,298.276 2017.4,297.282 2022.98,297.282 2022.98,293.305 2028.55,293.305 2028.55,291.814 2034.13,291.814 2034.13,289.826 2039.71,289.826 2039.71,287.34 2045.28,287.34 2045.28,283.363 2050.86,283.363 2050.86,281.872 2056.44,281.872 2056.44,279.884 2062.01,279.884 2067.59,279.884 2067.59,277.398 2073.17,277.398 2073.17,273.919 2078.74,273.919 2078.74,269.445 2084.32,269.445 2084.32,264.971 2089.9,264.971 2089.9,261.988 2095.47,261.988 2095.47,260 2101.05,260 2101.05,258.509 2106.63,258.509 2106.63,254.532 2112.2,254.532 2112.2,252.544 2117.78,252.544 2117.78,250.555 2123.36,250.555 2123.36,248.07 2128.93,248.07 2128.93,246.081 2134.51,246.081 2134.51,242.602 2140.09,242.602 2140.09,240.116 2145.66,240.116 2145.66,235.145 2151.24,235.145 2151.24,234.648 2156.82,234.648 2156.82,231.169 2162.39,231.169 2162.39,227.689 2167.97,227.689 2167.97,223.712 2173.55,223.712 2173.55,221.724 2179.12,221.724 2179.12,219.735 2184.7,219.735 2184.7,213.77 2190.28,213.77 2190.28,211.782 2195.85,211.782 2195.85,208.799 2201.43,208.799 2201.43,206.314 2207.01,206.314 2207.01,204.823 2212.58,204.823 2212.58,201.84 2218.16,201.84 2218.16,199.852 2223.74,199.852 2223.74,197.863 2229.31,197.863 2229.31,194.881 2234.89,194.881 2234.89,189.91 2240.47,189.91 2240.47,188.419 2246.04,188.419 2246.04,183.945 2251.62,183.945 2251.62,181.459 2257.2,181.459 2257.2,180.465 2262.77,180.465 2262.77,178.974 2268.35,178.974 2268.35,175.494 2273.93,175.494 2273.93,174.003 2279.5,174.003 2279.5,169.529 2285.08,169.529 2285.08,168.535 2290.66,168.535 2290.66,166.049 2296.23,166.049 2296.23,164.558 2301.81,164.558 2301.81,163.564 2307.39,163.564 2307.39,162.57 2312.96,162.57 2312.96,162.073 2318.54,162.073 2318.54,160.084 2324.11,160.084 2324.11,154.119 2329.69,154.119 2329.69,152.131 2335.27,152.131 2335.27,150.639 2340.84,150.639 2340.84,146.663 2346.42,146.663 2346.42,142.686 2352,142.686 2352,140.698 2357.57,140.698 2357.57,137.715 2363.15,137.715 2363.15,134.733 2368.73,134.733 2368.73,130.756 2374.3,130.756 2374.3,127.773 2379.88,127.773 2379.88,125.288 2385.46,125.288 2385.46,123.796 2391.03,123.796 2391.03,122.802 2396.61,122.802 2396.61,119.323 2402.19,119.323 2402.19,117.334 2407.76,117.334 2407.76,113.855 2413.34,113.855 2413.34,112.363 2418.92,112.363 2418.92,108.884 2424.49,108.884 2424.49,105.901 2430.07,105.901 2430.07,102.421 2435.65,102.421 2435.65,98.9418 2441.22,98.9418 2441.22,95.9592 2446.8,95.9592 2446.8,94.468 2452.38,94.468 2452.38,92.9767 2457.95,92.9767 2457.95,91.9825 2463.53,91.9825 2463.53,88.0057 2469.11,88.0057 2469.11,85.5203 2474.68,85.5203 2474.68,83.0348 2480.26,83.0348 2480.26,80.5493 2485.84,80.5493 2485.84,77.0697 "/>
<path clip-path="url(#clip020)" d="M267.09 289.732 L683.838 289.732 L683.838 82.372 L267.09 82.372  Z" fill="#ffffff" fill-rule="evenodd" fill-opacity="1"/>
<polyline clip-path="url(#clip020)" style="stroke:#000000; stroke-linecap:round; stroke-linejoin:round; stroke-width:4; stroke-opacity:1; fill:none" points="267.09,289.732 683.838,289.732 683.838,82.372 267.09,82.372 267.09,289.732 "/>
<polyline clip-path="url(#clip020)" style="stroke:#0000ff; stroke-linecap:round; stroke-linejoin:round; stroke-width:4; stroke-opacity:0.6; fill:none" points="293.362,134.212 450.994,134.212 "/>
<path clip-path="url(#clip020)" d="M477.266 116.932 L481.965 116.932 L481.965 137.927 Q481.965 143.483 483.979 145.936 Q485.993 148.367 490.507 148.367 Q494.998 148.367 497.011 145.936 Q499.025 143.483 499.025 137.927 L499.025 116.932 L503.724 116.932 L503.724 138.506 Q503.724 145.265 500.368 148.714 Q497.035 152.163 490.507 152.163 Q483.956 152.163 480.6 148.714 Q477.266 145.265 477.266 138.506 L477.266 116.932 Z" fill="#000000" fill-rule="nonzero" fill-opacity="1" /><path clip-path="url(#clip020)" d="M533.863 135.844 L533.863 151.492 L529.604 151.492 L529.604 135.983 Q529.604 132.302 528.169 130.474 Q526.734 128.645 523.863 128.645 Q520.414 128.645 518.423 130.844 Q516.433 133.043 516.433 136.839 L516.433 151.492 L512.15 151.492 L512.15 125.566 L516.433 125.566 L516.433 129.594 Q517.96 127.256 520.021 126.099 Q522.104 124.941 524.812 124.941 Q529.28 124.941 531.571 127.719 Q533.863 130.474 533.863 135.844 Z" fill="#000000" fill-rule="nonzero" fill-opacity="1" /><path clip-path="url(#clip020)" d="M542.358 125.566 L546.618 125.566 L546.618 151.492 L542.358 151.492 L542.358 125.566 M542.358 115.474 L546.618 115.474 L546.618 120.867 L542.358 120.867 L542.358 115.474 Z" fill="#000000" fill-rule="nonzero" fill-opacity="1" /><path clip-path="url(#clip020)" d="M568.655 115.474 L568.655 119.015 L564.581 119.015 Q562.289 119.015 561.386 119.941 Q560.507 120.867 560.507 123.275 L560.507 125.566 L567.52 125.566 L567.52 128.876 L560.507 128.876 L560.507 151.492 L556.224 151.492 L556.224 128.876 L552.15 128.876 L552.15 125.566 L556.224 125.566 L556.224 123.761 Q556.224 119.432 558.238 117.464 Q560.252 115.474 564.627 115.474 L568.655 115.474 Z" fill="#000000" fill-rule="nonzero" fill-opacity="1" /><path clip-path="url(#clip020)" d="M582.266 128.552 Q578.84 128.552 576.849 131.237 Q574.858 133.9 574.858 138.552 Q574.858 143.205 576.826 145.89 Q578.817 148.552 582.266 148.552 Q585.668 148.552 587.659 145.867 Q589.65 143.182 589.65 138.552 Q589.65 133.946 587.659 131.261 Q585.668 128.552 582.266 128.552 M582.266 124.941 Q587.821 124.941 590.992 128.552 Q594.164 132.163 594.164 138.552 Q594.164 144.918 590.992 148.552 Q587.821 152.163 582.266 152.163 Q576.687 152.163 573.516 148.552 Q570.368 144.918 570.368 138.552 Q570.368 132.163 573.516 128.552 Q576.687 124.941 582.266 124.941 Z" fill="#000000" fill-rule="nonzero" fill-opacity="1" /><path clip-path="url(#clip020)" d="M616.247 129.548 Q615.529 129.131 614.673 128.946 Q613.84 128.738 612.821 128.738 Q609.21 128.738 607.266 131.099 Q605.344 133.437 605.344 137.835 L605.344 151.492 L601.062 151.492 L601.062 125.566 L605.344 125.566 L605.344 129.594 Q606.687 127.233 608.84 126.099 Q610.992 124.941 614.071 124.941 Q614.511 124.941 615.043 125.011 Q615.576 125.057 616.224 125.173 L616.247 129.548 Z" fill="#000000" fill-rule="nonzero" fill-opacity="1" /><path clip-path="url(#clip020)" d="M640.066 130.543 Q641.664 127.673 643.886 126.307 Q646.108 124.941 649.117 124.941 Q653.168 124.941 655.367 127.788 Q657.566 130.612 657.566 135.844 L657.566 151.492 L653.284 151.492 L653.284 135.983 Q653.284 132.256 651.964 130.45 Q650.645 128.645 647.937 128.645 Q644.626 128.645 642.705 130.844 Q640.784 133.043 640.784 136.839 L640.784 151.492 L636.501 151.492 L636.501 135.983 Q636.501 132.233 635.182 130.45 Q633.863 128.645 631.108 128.645 Q627.844 128.645 625.923 130.867 Q624.002 133.066 624.002 136.839 L624.002 151.492 L619.719 151.492 L619.719 125.566 L624.002 125.566 L624.002 129.594 Q625.46 127.21 627.497 126.075 Q629.534 124.941 632.335 124.941 Q635.159 124.941 637.126 126.376 Q639.117 127.812 640.066 130.543 Z" fill="#000000" fill-rule="nonzero" fill-opacity="1" /><polyline clip-path="url(#clip020)" style="stroke:#000000; stroke-linecap:round; stroke-linejoin:round; stroke-width:4; stroke-opacity:1; fill:none" points="293.362,186.052 450.994,186.052 "/>
<path clip-path="url(#clip020)" d="M495.692 178.17 L495.692 182.198 Q493.887 181.272 491.942 180.809 Q489.998 180.346 487.914 180.346 Q484.743 180.346 483.146 181.318 Q481.572 182.29 481.572 184.235 Q481.572 185.716 482.706 186.573 Q483.84 187.406 487.266 188.17 L488.725 188.494 Q493.262 189.466 495.16 191.249 Q497.081 193.008 497.081 196.179 Q497.081 199.79 494.211 201.897 Q491.363 204.003 486.363 204.003 Q484.28 204.003 482.012 203.587 Q479.766 203.193 477.266 202.383 L477.266 197.985 Q479.627 199.212 481.919 199.837 Q484.211 200.439 486.456 200.439 Q489.465 200.439 491.086 199.42 Q492.706 198.378 492.706 196.503 Q492.706 194.767 491.525 193.841 Q490.368 192.915 486.41 192.059 L484.928 191.712 Q480.97 190.878 479.211 189.165 Q477.451 187.429 477.451 184.42 Q477.451 180.763 480.044 178.772 Q482.637 176.781 487.405 176.781 Q489.766 176.781 491.849 177.128 Q493.933 177.476 495.692 178.17 Z" fill="#000000" fill-rule="nonzero" fill-opacity="1" /><path clip-path="url(#clip020)" d="M503.007 200.786 L507.729 200.786 L507.729 186.642 L502.567 187.591 L502.567 184.906 L507.891 184.003 L511.062 184.003 L511.062 200.786 L515.808 200.786 L515.808 203.332 L503.007 203.332 L503.007 200.786 Z" fill="#000000" fill-rule="nonzero" fill-opacity="1" /><polyline clip-path="url(#clip020)" style="stroke:#808080; stroke-linecap:round; stroke-linejoin:round; stroke-width:4; stroke-opacity:1; fill:none" points="293.362,237.892 450.994,237.892 "/>
<path clip-path="url(#clip020)" d="M495.692 230.01 L495.692 234.038 Q493.887 233.112 491.942 232.649 Q489.998 232.186 487.914 232.186 Q484.743 232.186 483.146 233.158 Q481.572 234.13 481.572 236.075 Q481.572 237.556 482.706 238.413 Q483.84 239.246 487.266 240.01 L488.725 240.334 Q493.262 241.306 495.16 243.089 Q497.081 244.848 497.081 248.019 Q497.081 251.63 494.211 253.737 Q491.363 255.843 486.363 255.843 Q484.28 255.843 482.012 255.427 Q479.766 255.033 477.266 254.223 L477.266 249.825 Q479.627 251.052 481.919 251.677 Q484.211 252.279 486.456 252.279 Q489.465 252.279 491.086 251.26 Q492.706 250.218 492.706 248.343 Q492.706 246.607 491.525 245.681 Q490.368 244.755 486.41 243.899 L484.928 243.552 Q480.97 242.718 479.211 241.005 Q477.451 239.269 477.451 236.26 Q477.451 232.603 480.044 230.612 Q482.637 228.621 487.405 228.621 Q489.766 228.621 491.849 228.968 Q493.933 229.316 495.692 230.01 Z" fill="#000000" fill-rule="nonzero" fill-opacity="1" /><path clip-path="url(#clip020)" d="M505.599 252.533 L515.414 252.533 L515.414 255.172 L501.572 255.172 L501.572 252.626 Q502.359 251.908 503.817 250.612 Q511.78 243.552 511.78 241.376 Q511.78 239.848 510.576 238.922 Q509.373 237.973 507.405 237.973 Q506.201 237.973 504.789 238.39 Q503.377 238.783 501.711 239.593 L501.711 236.746 Q503.493 236.098 505.021 235.774 Q506.572 235.45 507.891 235.45 Q511.248 235.45 513.261 236.978 Q515.275 238.505 515.275 241.005 Q515.275 244.223 507.613 250.797 Q506.317 251.908 505.599 252.533 Z" fill="#000000" fill-rule="nonzero" fill-opacity="1" /></svg>
