<?xml version="1.0" encoding="utf-8"?>
<svg xmlns="http://www.w3.org/2000/svg" xmlns:xlink="http://www.w3.org/1999/xlink" width="600" height="400" viewBox="0 0 2400 1600">
<defs>
  <clipPath id="clip200">
    <rect x="0" y="0" width="2400" height="1600"/>
  </clipPath>
</defs>
<path clip-path="url(#clip200)" d="M0 1600 L2400 1600 L2400 0 L0 0  Z" fill="#ffffff" fill-rule="evenodd" fill-opacity="1"/>
<defs>
  <clipPath id="clip201">
    <rect x="480" y="0" width="1681" height="1600"/>
  </clipPath>
</defs>
<path clip-path="url(#clip200)" d="M112.177 1486.45 L2352.76 1486.45 L2352.76 47.2441 L112.177 47.2441  Z" fill="#ffffff" fill-rule="evenodd" fill-opacity="1"/>
<defs>
  <clipPath id="clip202">
    <rect x="112" y="47" width="2242" height="1440"/>
  </clipPath>
</defs>
<polyline clip-path="url(#clip202)" style="stroke:#000000; stroke-linecap:round; stroke-linejoin:round; stroke-width:2; stroke-opacity:0.1; fill:none" points="112.177,1486.45 112.177,47.2441 "/>
<polyline clip-path="url(#clip202)" style="stroke:#000000; stroke-linecap:round; stroke-linejoin:round; stroke-width:2; stroke-opacity:0.1; fill:none" points="560.293,1486.45 560.293,47.2441 "/>
<polyline clip-path="url(#clip202)" style="stroke:#000000; stroke-linecap:round; stroke-linejoin:round; stroke-width:2; stroke-opacity:0.1; fill:none" points="1008.41,1486.45 1008.41,47.2441 "/>
<polyline clip-path="url(#clip202)" style="stroke:#000000; stroke-linecap:round; stroke-linejoin:round; stroke-width:2; stroke-opacity:0.1; fill:none" points="1456.52,1486.45 1456.52,47.2441 "/>
<polyline clip-path="url(#clip202)" style="stroke:#000000; stroke-linecap:round; stroke-linejoin:round; stroke-width:2; stroke-opacity:0.1; fill:none" points="1904.64,1486.45 1904.64,47.2441 "/>
<polyline clip-path="url(#clip202)" style="stroke:#000000; stroke-linecap:round; stroke-linejoin:round; stroke-width:2; stroke-opacity:0.1; fill:none" points="2352.76,1486.45 2352.76,47.2441 "/>
<polyline clip-path="url(#clip202)" style="stroke:#000000; stroke-linecap:round; stroke-linejoin:round; stroke-width:2; stroke-opacity:0.1; fill:none" points="112.177,1486.45 2352.76,1486.45 "/>
<polyline clip-path="url(#clip202)" style="stroke:#000000; stroke-linecap:round; stroke-linejoin:round; stroke-width:2; stroke-opacity:0.1; fill:none" points="112.177,1198.61 2352.76,1198.61 "/>
<polyline clip-path="url(#clip202)" style="stroke:#000000; stroke-linecap:round; stroke-linejoin:round; stroke-width:2; stroke-opacity:0.1; fill:none" points="112.177,910.766 2352.76,910.766 "/>
<polyline clip-path="url(#clip202)" style="stroke:#000000; stroke-linecap:round; stroke-linejoin:round; stroke-width:2; stroke-opacity:0.1; fill:none" points="112.177,622.926 2352.76,622.926 "/>
<polyline clip-path="url(#clip202)" style="stroke:#000000; stroke-linecap:round; stroke-linejoin:round; stroke-width:2; stroke-opacity:0.1; fill:none" points="112.177,335.085 2352.76,335.085 "/>
<polyline clip-path="url(#clip202)" style="stroke:#000000; stroke-linecap:round; stroke-linejoin:round; stroke-width:2; stroke-opacity:0.1; fill:none" points="112.177,47.2441 2352.76,47.2441 "/>
<polyline clip-path="url(#clip200)" style="stroke:#000000; stroke-linecap:round; stroke-linejoin:round; stroke-width:4; stroke-opacity:1; fill:none" points="112.177,1486.45 2352.76,1486.45 "/>
<polyline clip-path="url(#clip200)" style="stroke:#000000; stroke-linecap:round; stroke-linejoin:round; stroke-width:4; stroke-opacity:1; fill:none" points="112.177,1486.45 112.177,1467.55 "/>
<polyline clip-path="url(#clip200)" style="stroke:#000000; stroke-linecap:round; stroke-linejoin:round; stroke-width:4; stroke-opacity:1; fill:none" points="560.293,1486.45 560.293,1467.55 "/>
<polyline clip-path="url(#clip200)" style="stroke:#000000; stroke-linecap:round; stroke-linejoin:round; stroke-width:4; stroke-opacity:1; fill:none" points="1008.41,1486.45 1008.41,1467.55 "/>
<polyline clip-path="url(#clip200)" style="stroke:#000000; stroke-linecap:round; stroke-linejoin:round; stroke-width:4; stroke-opacity:1; fill:none" points="1456.52,1486.45 1456.52,1467.55 "/>
<polyline clip-path="url(#clip200)" style="stroke:#000000; stroke-linecap:round; stroke-linejoin:round; stroke-width:4; stroke-opacity:1; fill:none" points="1904.64,1486.45 1904.64,1467.55 "/>
<polyline clip-path="url(#clip200)" style="stroke:#000000; stroke-linecap:round; stroke-linejoin:round; stroke-width:4; stroke-opacity:1; fill:none" points="2352.76,1486.45 2352.76,1467.55 "/>
<path clip-path="url(#clip200)" d="M89.5616 1517.37 Q85.9505 1517.37 84.1218 1520.93 Q82.3162 1524.47 82.3162 1531.6 Q82.3162 1538.71 84.1218 1542.27 Q85.9505 1545.82 89.5616 1545.82 Q93.1958 1545.82 95.0013 1542.27 Q96.83 1538.71 96.83 1531.6 Q96.83 1524.47 95.0013 1520.93 Q93.1958 1517.37 89.5616 1517.37 M89.5616 1513.66 Q95.3717 1513.66 98.4272 1518.27 Q101.506 1522.85 101.506 1531.6 Q101.506 1540.33 98.4272 1544.94 Q95.3717 1549.52 89.5616 1549.52 Q83.7514 1549.52 80.6727 1544.94 Q77.6172 1540.33 77.6172 1531.6 Q77.6172 1522.85 80.6727 1518.27 Q83.7514 1513.66 89.5616 1513.66 Z" fill="#000000" fill-rule="nonzero" fill-opacity="1" /><path clip-path="url(#clip200)" d="M109.723 1542.97 L114.608 1542.97 L114.608 1548.85 L109.723 1548.85 L109.723 1542.97 Z" fill="#000000" fill-rule="nonzero" fill-opacity="1" /><path clip-path="url(#clip200)" d="M134.793 1517.37 Q131.182 1517.37 129.353 1520.93 Q127.547 1524.47 127.547 1531.6 Q127.547 1538.71 129.353 1542.27 Q131.182 1545.82 134.793 1545.82 Q138.427 1545.82 140.233 1542.27 Q142.061 1538.71 142.061 1531.6 Q142.061 1524.47 140.233 1520.93 Q138.427 1517.37 134.793 1517.37 M134.793 1513.66 Q140.603 1513.66 143.658 1518.27 Q146.737 1522.85 146.737 1531.6 Q146.737 1540.33 143.658 1544.94 Q140.603 1549.52 134.793 1549.52 Q128.983 1549.52 125.904 1544.94 Q122.848 1540.33 122.848 1531.6 Q122.848 1522.85 125.904 1518.27 Q128.983 1513.66 134.793 1513.66 Z" fill="#000000" fill-rule="nonzero" fill-opacity="1" /><path clip-path="url(#clip200)" d="M538.476 1517.37 Q534.865 1517.37 533.036 1520.93 Q531.231 1524.47 531.231 1531.6 Q531.231 1538.71 533.036 1542.27 Q534.865 1545.82 538.476 1545.82 Q542.11 1545.82 543.916 1542.27 Q545.744 1538.71 545.744 1531.6 Q545.744 1524.47 543.916 1520.93 Q542.11 1517.37 538.476 1517.37 M538.476 1513.66 Q544.286 1513.66 547.342 1518.27 Q550.42 1522.85 550.42 1531.6 Q550.42 1540.33 547.342 1544.94 Q544.286 1549.52 538.476 1549.52 Q532.666 1549.52 529.587 1544.94 Q526.532 1540.33 526.532 1531.6 Q526.532 1522.85 529.587 1518.27 Q532.666 1513.66 538.476 1513.66 Z" fill="#000000" fill-rule="nonzero" fill-opacity="1" /><path clip-path="url(#clip200)" d="M558.638 1542.97 L563.522 1542.97 L563.522 1548.85 L558.638 1548.85 L558.638 1542.97 Z" fill="#000000" fill-rule="nonzero" fill-opacity="1" /><path clip-path="url(#clip200)" d="M577.735 1544.91 L594.054 1544.91 L594.054 1548.85 L572.11 1548.85 L572.11 1544.91 Q574.772 1542.16 579.355 1537.53 Q583.962 1532.88 585.142 1531.53 Q587.388 1529.01 588.267 1527.27 Q589.17 1525.51 589.17 1523.82 Q589.17 1521.07 587.226 1519.33 Q585.304 1517.6 582.203 1517.6 Q580.003 1517.6 577.55 1518.36 Q575.119 1519.13 572.341 1520.68 L572.341 1515.95 Q575.166 1514.82 577.619 1514.24 Q580.073 1513.66 582.11 1513.66 Q587.48 1513.66 590.675 1516.35 Q593.869 1519.03 593.869 1523.52 Q593.869 1525.65 593.059 1527.57 Q592.272 1529.47 590.165 1532.07 Q589.587 1532.74 586.485 1535.95 Q583.383 1539.15 577.735 1544.91 Z" fill="#000000" fill-rule="nonzero" fill-opacity="1" /><path clip-path="url(#clip200)" d="M985.55 1517.37 Q981.939 1517.37 980.11 1520.93 Q978.305 1524.47 978.305 1531.6 Q978.305 1538.71 980.11 1542.27 Q981.939 1545.82 985.55 1545.82 Q989.184 1545.82 990.99 1542.27 Q992.818 1538.71 992.818 1531.6 Q992.818 1524.47 990.99 1520.93 Q989.184 1517.37 985.55 1517.37 M985.55 1513.66 Q991.36 1513.66 994.416 1518.27 Q997.494 1522.85 997.494 1531.6 Q997.494 1540.33 994.416 1544.94 Q991.36 1549.52 985.55 1549.52 Q979.74 1549.52 976.661 1544.94 Q973.606 1540.33 973.606 1531.6 Q973.606 1522.85 976.661 1518.27 Q979.74 1513.66 985.55 1513.66 Z" fill="#000000" fill-rule="nonzero" fill-opacity="1" /><path clip-path="url(#clip200)" d="M1005.71 1542.97 L1010.6 1542.97 L1010.6 1548.85 L1005.71 1548.85 L1005.71 1542.97 Z" fill="#000000" fill-rule="nonzero" fill-opacity="1" /><path clip-path="url(#clip200)" d="M1033.63 1518.36 L1021.82 1536.81 L1033.63 1536.81 L1033.63 1518.36 M1032.4 1514.29 L1038.28 1514.29 L1038.28 1536.81 L1043.21 1536.81 L1043.21 1540.7 L1038.28 1540.7 L1038.28 1548.85 L1033.63 1548.85 L1033.63 1540.7 L1018.03 1540.7 L1018.03 1536.19 L1032.4 1514.29 Z" fill="#000000" fill-rule="nonzero" fill-opacity="1" /><path clip-path="url(#clip200)" d="M1433.83 1517.37 Q1430.22 1517.37 1428.39 1520.93 Q1426.58 1524.47 1426.58 1531.6 Q1426.58 1538.71 1428.39 1542.27 Q1430.22 1545.82 1433.83 1545.82 Q1437.46 1545.82 1439.27 1542.27 Q1441.1 1538.71 1441.1 1531.6 Q1441.1 1524.47 1439.27 1520.93 Q1437.46 1517.37 1433.83 1517.37 M1433.83 1513.66 Q1439.64 1513.66 1442.69 1518.27 Q1445.77 1522.85 1445.77 1531.6 Q1445.77 1540.33 1442.69 1544.94 Q1439.64 1549.52 1433.83 1549.52 Q1428.02 1549.52 1424.94 1544.94 Q1421.88 1540.33 1421.88 1531.6 Q1421.88 1522.85 1424.94 1518.27 Q1428.02 1513.66 1433.83 1513.66 Z" fill="#000000" fill-rule="nonzero" fill-opacity="1" /><path clip-path="url(#clip200)" d="M1453.99 1542.97 L1458.87 1542.97 L1458.87 1548.85 L1453.99 1548.85 L1453.99 1542.97 Z" fill="#000000" fill-rule="nonzero" fill-opacity="1" /><path clip-path="url(#clip200)" d="M1479.64 1529.7 Q1476.49 1529.7 1474.64 1531.86 Q1472.81 1534.01 1472.81 1537.76 Q1472.81 1541.49 1474.64 1543.66 Q1476.49 1545.82 1479.64 1545.82 Q1482.79 1545.82 1484.61 1543.66 Q1486.47 1541.49 1486.47 1537.76 Q1486.47 1534.01 1484.61 1531.86 Q1482.79 1529.7 1479.64 1529.7 M1488.92 1515.05 L1488.92 1519.31 Q1487.16 1518.48 1485.36 1518.04 Q1483.57 1517.6 1481.81 1517.6 Q1477.18 1517.6 1474.73 1520.72 Q1472.3 1523.85 1471.95 1530.17 Q1473.32 1528.15 1475.38 1527.09 Q1477.44 1526 1479.92 1526 Q1485.12 1526 1488.13 1529.17 Q1491.17 1532.32 1491.17 1537.76 Q1491.17 1543.08 1488.02 1546.3 Q1484.87 1549.52 1479.64 1549.52 Q1473.64 1549.52 1470.47 1544.94 Q1467.3 1540.33 1467.3 1531.6 Q1467.3 1523.41 1471.19 1518.55 Q1475.08 1513.66 1481.63 1513.66 Q1483.39 1513.66 1485.17 1514.01 Q1486.98 1514.36 1488.92 1515.05 Z" fill="#000000" fill-rule="nonzero" fill-opacity="1" /><path clip-path="url(#clip200)" d="M1882.07 1517.37 Q1878.46 1517.37 1876.63 1520.93 Q1874.83 1524.47 1874.83 1531.6 Q1874.83 1538.71 1876.63 1542.27 Q1878.46 1545.82 1882.07 1545.82 Q1885.71 1545.82 1887.51 1542.27 Q1889.34 1538.71 1889.34 1531.6 Q1889.34 1524.47 1887.51 1520.93 Q1885.71 1517.37 1882.07 1517.37 M1882.07 1513.66 Q1887.88 1513.66 1890.94 1518.27 Q1894.02 1522.85 1894.02 1531.6 Q1894.02 1540.33 1890.94 1544.94 Q1887.88 1549.52 1882.07 1549.52 Q1876.26 1549.52 1873.18 1544.94 Q1870.13 1540.33 1870.13 1531.6 Q1870.13 1522.85 1873.18 1518.27 Q1876.26 1513.66 1882.07 1513.66 Z" fill="#000000" fill-rule="nonzero" fill-opacity="1" /><path clip-path="url(#clip200)" d="M1902.23 1542.97 L1907.12 1542.97 L1907.12 1548.85 L1902.23 1548.85 L1902.23 1542.97 Z" fill="#000000" fill-rule="nonzero" fill-opacity="1" /><path clip-path="url(#clip200)" d="M1927.3 1532.44 Q1923.97 1532.44 1922.05 1534.22 Q1920.15 1536 1920.15 1539.13 Q1920.15 1542.25 1922.05 1544.03 Q1923.97 1545.82 1927.3 1545.82 Q1930.64 1545.82 1932.56 1544.03 Q1934.48 1542.23 1934.48 1539.13 Q1934.48 1536 1932.56 1534.22 Q1930.66 1532.44 1927.3 1532.44 M1922.63 1530.45 Q1919.62 1529.7 1917.93 1527.64 Q1916.26 1525.58 1916.26 1522.62 Q1916.26 1518.48 1919.2 1516.07 Q1922.16 1513.66 1927.3 1513.66 Q1932.46 1513.66 1935.4 1516.07 Q1938.34 1518.48 1938.34 1522.62 Q1938.34 1525.58 1936.65 1527.64 Q1934.99 1529.7 1932 1530.45 Q1935.38 1531.23 1937.26 1533.52 Q1939.15 1535.82 1939.15 1539.13 Q1939.15 1544.15 1936.08 1546.83 Q1933.02 1549.52 1927.3 1549.52 Q1921.58 1549.52 1918.51 1546.83 Q1915.45 1544.15 1915.45 1539.13 Q1915.45 1535.82 1917.35 1533.52 Q1919.25 1531.23 1922.63 1530.45 M1920.91 1523.06 Q1920.91 1525.75 1922.58 1527.25 Q1924.27 1528.76 1927.3 1528.76 Q1930.31 1528.76 1932 1527.25 Q1933.71 1525.75 1933.71 1523.06 Q1933.71 1520.38 1932 1518.87 Q1930.31 1517.37 1927.3 1517.37 Q1924.27 1517.37 1922.58 1518.87 Q1920.91 1520.38 1920.91 1523.06 Z" fill="#000000" fill-rule="nonzero" fill-opacity="1" /><path clip-path="url(#clip200)" d="M2319.91 1544.91 L2327.55 1544.91 L2327.55 1518.55 L2319.24 1520.21 L2319.24 1515.95 L2327.5 1514.29 L2332.18 1514.29 L2332.18 1544.91 L2339.82 1544.91 L2339.82 1548.85 L2319.91 1548.85 L2319.91 1544.91 Z" fill="#000000" fill-rule="nonzero" fill-opacity="1" /><path clip-path="url(#clip200)" d="M2349.26 1542.97 L2354.14 1542.97 L2354.14 1548.85 L2349.26 1548.85 L2349.26 1542.97 Z" fill="#000000" fill-rule="nonzero" fill-opacity="1" /><path clip-path="url(#clip200)" d="M2374.33 1517.37 Q2370.72 1517.37 2368.89 1520.93 Q2367.08 1524.47 2367.08 1531.6 Q2367.08 1538.71 2368.89 1542.27 Q2370.72 1545.82 2374.33 1545.82 Q2377.96 1545.82 2379.77 1542.27 Q2381.6 1538.71 2381.6 1531.6 Q2381.6 1524.47 2379.77 1520.93 Q2377.96 1517.37 2374.33 1517.37 M2374.33 1513.66 Q2380.14 1513.66 2383.2 1518.27 Q2386.27 1522.85 2386.27 1531.6 Q2386.27 1540.33 2383.2 1544.94 Q2380.14 1549.52 2374.33 1549.52 Q2368.52 1549.52 2365.44 1544.94 Q2362.39 1540.33 2362.39 1531.6 Q2362.39 1522.85 2365.44 1518.27 Q2368.52 1513.66 2374.33 1513.66 Z" fill="#000000" fill-rule="nonzero" fill-opacity="1" /><polyline clip-path="url(#clip200)" style="stroke:#000000; stroke-linecap:round; stroke-linejoin:round; stroke-width:4; stroke-opacity:1; fill:none" points="112.177,1486.45 112.177,47.2441 "/>
<polyline clip-path="url(#clip200)" style="stroke:#000000; stroke-linecap:round; stroke-linejoin:round; stroke-width:4; stroke-opacity:1; fill:none" points="112.177,1486.45 131.075,1486.45 "/>
<polyline clip-path="url(#clip200)" style="stroke:#000000; stroke-linecap:round; stroke-linejoin:round; stroke-width:4; stroke-opacity:1; fill:none" points="112.177,1198.61 131.075,1198.61 "/>
<polyline clip-path="url(#clip200)" style="stroke:#000000; stroke-linecap:round; stroke-linejoin:round; stroke-width:4; stroke-opacity:1; fill:none" points="112.177,910.766 131.075,910.766 "/>
<polyline clip-path="url(#clip200)" style="stroke:#000000; stroke-linecap:round; stroke-linejoin:round; stroke-width:4; stroke-opacity:1; fill:none" points="112.177,622.926 131.075,622.926 "/>
<polyline clip-path="url(#clip200)" style="stroke:#000000; stroke-linecap:round; stroke-linejoin:round; stroke-width:4; stroke-opacity:1; fill:none" points="112.177,335.085 131.075,335.085 "/>
<polyline clip-path="url(#clip200)" style="stroke:#000000; stroke-linecap:round; stroke-linejoin:round; stroke-width:4; stroke-opacity:1; fill:none" points="112.177,47.2441 131.075,47.2441 "/>
<path clip-path="url(#clip200)" d="M64.2328 1472.25 Q60.6217 1472.25 58.793 1475.81 Q56.9875 1479.35 56.9875 1486.48 Q56.9875 1493.59 58.793 1497.15 Q60.6217 1500.7 64.2328 1500.7 Q67.867 1500.7 69.6726 1497.15 Q71.5013 1493.59 71.5013 1486.48 Q71.5013 1479.35 69.6726 1475.81 Q67.867 1472.25 64.2328 1472.25 M64.2328 1468.54 Q70.0429 1468.54 73.0985 1473.15 Q76.1772 1477.73 76.1772 1486.48 Q76.1772 1495.21 73.0985 1499.82 Q70.0429 1504.4 64.2328 1504.4 Q58.4226 1504.4 55.344 1499.82 Q52.2884 1495.21 52.2884 1486.48 Q52.2884 1477.73 55.344 1473.15 Q58.4226 1468.54 64.2328 1468.54 Z" fill="#000000" fill-rule="nonzero" fill-opacity="1" /><path clip-path="url(#clip200)" d="M56.2699 1211.95 L63.9087 1211.95 L63.9087 1185.59 L55.5986 1187.25 L55.5986 1182.99 L63.8624 1181.33 L68.5383 1181.33 L68.5383 1211.95 L76.1772 1211.95 L76.1772 1215.89 L56.2699 1215.89 L56.2699 1211.95 Z" fill="#000000" fill-rule="nonzero" fill-opacity="1" /><path clip-path="url(#clip200)" d="M59.8578 924.111 L76.1772 924.111 L76.1772 928.046 L54.2328 928.046 L54.2328 924.111 Q56.8949 921.357 61.4782 916.727 Q66.0846 912.074 67.2652 910.732 Q69.5105 908.209 70.3902 906.472 Q71.2929 904.713 71.2929 903.023 Q71.2929 900.269 69.3485 898.533 Q67.4272 896.797 64.3254 896.797 Q62.1263 896.797 59.6726 897.56 Q57.2421 898.324 54.4643 899.875 L54.4643 895.153 Q57.2884 894.019 59.7421 893.44 Q62.1958 892.861 64.2328 892.861 Q69.6031 892.861 72.7976 895.547 Q75.992 898.232 75.992 902.722 Q75.992 904.852 75.1818 906.773 Q74.3948 908.671 72.2883 911.264 Q71.7096 911.935 68.6078 915.153 Q65.5059 918.347 59.8578 924.111 Z" fill="#000000" fill-rule="nonzero" fill-opacity="1" /><path clip-path="url(#clip200)" d="M69.0476 621.571 Q72.404 622.289 74.279 624.558 Q76.1772 626.826 76.1772 630.159 Q76.1772 635.275 72.6587 638.076 Q69.1402 640.877 62.6587 640.877 Q60.4828 640.877 58.168 640.437 Q55.8764 640.02 53.4227 639.164 L53.4227 634.65 Q55.3671 635.784 57.6819 636.363 Q59.9967 636.942 62.5198 636.942 Q66.918 636.942 69.2096 635.206 Q71.5244 633.47 71.5244 630.159 Q71.5244 627.104 69.3717 625.391 Q67.242 623.655 63.4226 623.655 L59.3949 623.655 L59.3949 619.812 L63.6078 619.812 Q67.0569 619.812 68.8855 618.446 Q70.7142 617.058 70.7142 614.465 Q70.7142 611.803 68.8161 610.391 Q66.9411 608.956 63.4226 608.956 Q61.5013 608.956 59.3023 609.372 Q57.1032 609.789 54.4643 610.669 L54.4643 606.502 Q57.1264 605.761 59.4412 605.391 Q61.7791 605.021 63.8393 605.021 Q69.1633 605.021 72.2652 607.451 Q75.367 609.859 75.367 613.979 Q75.367 616.849 73.7235 618.84 Q72.08 620.808 69.0476 621.571 Z" fill="#000000" fill-rule="nonzero" fill-opacity="1" /><path clip-path="url(#clip200)" d="M66.5939 321.879 L54.7884 340.328 L66.5939 340.328 L66.5939 321.879 M65.367 317.805 L71.2466 317.805 L71.2466 340.328 L76.1772 340.328 L76.1772 344.217 L71.2466 344.217 L71.2466 352.365 L66.5939 352.365 L66.5939 344.217 L50.9921 344.217 L50.9921 339.703 L65.367 317.805 Z" fill="#000000" fill-rule="nonzero" fill-opacity="1" /><path clip-path="url(#clip200)" d="M55.2745 29.9641 L73.6309 29.9641 L73.6309 33.8993 L59.5569 33.8993 L59.5569 42.3714 Q60.5754 42.0242 61.5939 41.8622 Q62.6124 41.677 63.6309 41.677 Q69.418 41.677 72.7976 44.8483 Q76.1772 48.0196 76.1772 53.4362 Q76.1772 59.0149 72.705 62.1167 Q69.2328 65.1954 62.9134 65.1954 Q60.7374 65.1954 58.4689 64.825 Q56.2236 64.4547 53.8162 63.7139 L53.8162 59.0149 Q55.8995 60.1491 58.1217 60.7047 Q60.3439 61.2602 62.8208 61.2602 Q66.8254 61.2602 69.1633 59.1538 Q71.5013 57.0473 71.5013 53.4362 Q71.5013 49.8251 69.1633 47.7186 Q66.8254 45.6122 62.8208 45.6122 Q60.9458 45.6122 59.0708 46.0288 Q57.2189 46.4455 55.2745 47.3251 L55.2745 29.9641 Z" fill="#000000" fill-rule="nonzero" fill-opacity="1" /><polyline clip-path="url(#clip202)" style="stroke:#009af9; stroke-linecap:round; stroke-linejoin:round; stroke-width:4; stroke-opacity:1; fill:none" points="112.177,910.766 115.069,931.447 117.96,940.013 120.851,946.586 123.743,952.127 126.634,957.009 129.525,961.422 132.417,965.481 135.308,969.259 143.776,979.131 152.243,987.748 160.71,995.493 169.177,1002.59 177.645,1009.17 186.112,1015.34 194.579,1021.17 203.047,1026.7 219.981,1037.04 236.916,1046.6 253.85,1055.53 270.785,1063.93 286.541,1071.36 302.297,1078.46 318.053,1085.27 333.809,1091.82 376.046,1108.33 418.284,1123.55 453.185,1135.35 488.086,1146.57 520.541,1156.53 552.996,1166.11 593.738,1177.65 634.48,1188.71 671.025,1198.27 707.571,1207.53 791.234,1227.69 853.772,1241.96 933.759,1259.37 1006.76,1274.53 1089.85,1291.04 1155.72,1303.64 1237.55,1318.76 1300.22,1329.96 1388.57,1345.27 1454.6,1356.37 1529.68,1368.66 1604.04,1380.52 1685.85,1393.22 1748.34,1402.71 1827.2,1414.43 1900.13,1425.02 1975.35,1435.73 2051.59,1446.36 2131.2,1457.24 2193.91,1465.67 2336.73,1484.39 2352.76,1486.45 "/>
<polyline clip-path="url(#clip202)" style="stroke:#e26f46; stroke-linecap:round; stroke-linejoin:round; stroke-width:4; stroke-opacity:1; fill:none" points="112.358,-1226.55 112.539,-1027.03 112.719,-910.324 112.9,-827.518 113.081,-763.288 113.261,-710.808 113.442,-666.438 113.623,-628.002 113.804,-594.099 113.984,-563.772 114.165,-536.338 114.346,-511.292 114.707,-466.922 115.069,-428.486 115.43,-394.583 115.791,-364.256 116.153,-336.822 116.514,-311.776 116.876,-288.737 117.237,-267.406 117.599,-247.547 117.96,-228.97 118.683,-195.067 119.406,-164.74 120.128,-137.306 120.851,-112.26 121.574,-89.2209 122.297,-67.8896 123.02,-48.0307 123.743,-29.4538 125.188,4.44892 126.634,34.776 128.08,62.2101 129.525,87.2555 130.971,110.295 132.417,131.626 133.863,151.485 135.308,170.062 137.425,195.267 139.542,218.442 141.659,239.889 143.776,259.848 148.009,296.04 152.243,328.185 156.476,357.099 160.71,383.371 164.944,407.445 169.177,429.659 177.645,469.525 186.112,504.535 194.579,535.745 203.047,563.899 211.514,589.543 219.981,613.089 228.448,634.853 236.916,655.086 253.85,691.729 270.785,724.23 286.541,751.491 302.297,776.392 318.053,799.309 333.809,820.536 354.927,846.734 376.046,870.746 397.165,892.908 418.284,913.485 453.185,944.564 488.086,972.611 520.541,996.448 552.996,1018.46 593.738,1043.9 634.48,1067.28 671.025,1086.75 707.571,1104.98 749.402,1124.53 791.234,1142.83 822.503,1155.79 853.772,1168.19 933.759,1197.67 1006.76,1222.17 1089.85,1247.74 1155.72,1266.5 1237.55,1288.23 1300.22,1303.83 1388.57,1324.48 1454.6,1339 1529.68,1354.66 1604.04,1369.38 1685.85,1384.75 1748.34,1395.96 1827.2,1409.51 1900.13,1421.49 1975.35,1433.35 2051.59,1444.9 2131.2,1456.48 2193.91,1465.28 2336.73,1484.38 2352.76,1486.45 "/>
<polyline clip-path="url(#clip202)" style="stroke:#3da44d; stroke-linecap:round; stroke-linejoin:round; stroke-width:4; stroke-opacity:1; fill:none" points="112.358,-62039.6 112.539,-43264.6 112.719,-34947 112.9,-29988.7 113.081,-26605 113.261,-24107.3 113.442,-22166 113.623,-20601.2 113.804,-19305.1 113.984,-18208.6 114.165,-17265.3 114.346,-16442.4 114.526,-15716.5 114.707,-15069.8 114.888,-14488.9 115.069,-13963.3 115.249,-13484.8 115.43,-13046.8 115.611,-12643.8 115.791,-12271.4 116.153,-11604.4 116.514,-11022.6 116.876,-10509.2 117.237,-10052 117.599,-9641.18 117.96,-9269.55 118.321,-8931.22 118.683,-8621.48 119.044,-8336.54 119.406,-8073.24 120.128,-7601.56 120.851,-7190.15 121.574,-6827.17 122.297,-6503.82 123.02,-6213.36 123.743,-5950.58 124.466,-5711.34 125.188,-5492.33 125.911,-5290.84 126.634,-5104.66 128.08,-4771.13 129.525,-4480.22 130.971,-4223.56 132.417,-3994.91 133.863,-3789.53 135.308,-3603.71 137.425,-3361 139.542,-3147.02 141.659,-2956.52 143.776,-2785.51 148.009,-2490.13 152.243,-2242.9 156.476,-2032.02 160.71,-1849.38 164.944,-1689.18 169.177,-1547.18 177.645,-1305.7 186.112,-1106.99 194.579,-939.75 203.047,-796.472 211.514,-671.928 219.981,-562.361 228.448,-464.993 236.916,-377.715 253.85,-227.255 270.785,-101.587 286.541,-1.51312 302.297,85.8469 318.053,162.976 333.809,231.726 354.927,313.158 376.046,384.607 397.165,447.959 418.284,504.637 453.185,586.49 488.086,656.662 520.541,713.668 552.996,764.256 593.738,820.372 634.48,869.786 671.025,909.432 707.571,945.368 791.234,1016.42 853.772,1061.49 933.759,1111.44 1006.76,1151.06 1089.85,1190.63 1155.72,1218.59 1237.55,1249.83 1300.22,1271.55 1388.57,1299.4 1454.6,1318.39 1529.68,1338.36 1604.04,1356.63 1685.85,1375.21 1748.34,1388.46 1827.2,1404.13 1900.13,1417.69 1975.35,1430.83 2051.59,1443.36 2131.2,1455.68 2193.91,1464.89 2336.73,1484.38 2352.76,1486.45 "/>
<polyline clip-path="url(#clip202)" style="stroke:#c271d2; stroke-linecap:round; stroke-linejoin:round; stroke-width:4; stroke-opacity:1; fill:none" points="112.358,-3.56706e+06 112.539,-1.78264e+06 112.719,-1.18784e+06 112.9,-890435 113.081,-711993 113.261,-593032 113.442,-508059 113.623,-444330 113.804,-394763 113.984,-355109 114.165,-322665 114.346,-295629 114.526,-272752 114.707,-253143 114.888,-236148 115.069,-221278 115.249,-208157 115.43,-196494 115.611,-186059 115.791,-176668 116.153,-160446 116.514,-146927 116.876,-135489 117.237,-125684 117.599,-117187 117.96,-109752 118.321,-103191 118.683,-97360 119.044,-92142.5 119.406,-87446.6 120.128,-79335.6 120.851,-72576.5 121.574,-66857.2 122.297,-61954.9 123.02,-57706.3 123.743,-53988.8 124.466,-50708.6 125.188,-47792.9 125.911,-45184.1 126.634,-42836.2 128.08,-38780.7 129.525,-35401.1 130.971,-32541.4 132.417,-30090.3 133.863,-27966 135.308,-26107.2 139.542,-21793.6 143.776,-18635.9 148.009,-16224.4 152.243,-14322.5 160.71,-11514.2 169.177,-9540.23 177.645,-8076.85 186.112,-6948.67 194.579,-6052.33 203.047,-5323.04 219.981,-4208.14 236.916,-3395.97 253.85,-2777.95 270.785,-2291.91 286.541,-1924.48 302.297,-1617.95 318.053,-1358.33 333.809,-1135.63 376.046,-669.84 418.284,-332.591 453.185,-116.957 488.086,58.6355 520.541,194.987 552.996,311.261 634.48,539.506 707.571,691.09 791.234,824.545 853.772,904.636 933.759,989.303 1006.76,1053.36 1089.85,1114.63 1155.72,1156.27 1237.55,1201.21 1300.22,1231.44 1388.57,1269.01 1454.6,1293.87 1529.68,1319.31 1604.04,1341.99 1685.85,1364.46 1748.34,1380.12 1827.2,1398.24 1900.13,1413.58 1975.35,1428.14 2051.59,1441.75 2131.2,1454.86 2193.91,1464.48 2336.73,1484.37 2352.76,1486.45 "/>
<polyline clip-path="url(#clip202)" style="stroke:#ac8d18; stroke-linecap:round; stroke-linejoin:round; stroke-width:4; stroke-opacity:1; fill:none" points="112.358,-1.68676e+22 112.539,-4.1943e+06 112.719,-4.1943e+06 112.9,-4.1943e+06 113.081,-4.1943e+06 113.261,-4.1943e+06 113.442,-4.1943e+06 113.623,-4.1943e+06 113.984,-4.1943e+06 114.346,-4.1943e+06 114.707,-4.1943e+06 115.069,-4.1943e+06 115.791,-4.1943e+06 116.514,-4.1943e+06 117.237,-4.1943e+06 117.96,-4.1943e+06 119.406,-4.1943e+06 120.851,-4.1943e+06 122.297,-4.1943e+06 123.743,-4.1943e+06 126.634,-4.1943e+06 129.525,-4.1943e+06 132.417,-4.1943e+06 135.308,-4.1943e+06 152.243,-4.1943e+06 169.177,-4.1943e+06 186.112,-4.1943e+06 203.047,-4.1943e+06 236.916,-4.1943e+06 270.785,-4.1943e+06 302.297,-4.1943e+06 333.809,-4.1943e+06 376.046,-2.53967e+06 418.284,-1.20799e+06 488.086,-431536 552.996,-193747 634.48,-82088 707.571,-41903.2 791.234,-20970 853.772,-12948.7 933.759,-7140.16 1006.76,-4129.74 1089.85,-2095.22 1155.72,-1082.83 1237.55,-256.943 1300.22,170.519 1388.57,584.484 1454.6,798.353 1529.68,976 1604.04,1104.13 1685.85,1207.19 1748.34,1266.78 1827.2,1324.92 1900.13,1366.1 1975.35,1399.23 2051.59,1425.54 2131.2,1447.13 2193.91,1460.87 2336.73,1484.34 2352.76,1486.45 "/>
<path clip-path="url(#clip200)" d="M1484.52 406.258 L2278.07 406.258 L2278.07 95.2176 L1484.52 95.2176  Z" fill="#ffffff" fill-rule="evenodd" fill-opacity="1"/>
<polyline clip-path="url(#clip200)" style="stroke:#000000; stroke-linecap:round; stroke-linejoin:round; stroke-width:4; stroke-opacity:1; fill:none" points="1484.52,406.258 2278.07,406.258 2278.07,95.2176 1484.52,95.2176 1484.52,406.258 "/>
<polyline clip-path="url(#clip200)" style="stroke:#009af9; stroke-linecap:round; stroke-linejoin:round; stroke-width:4; stroke-opacity:1; fill:none" points="1509.42,147.058 1658.79,147.058 "/>
<path clip-path="url(#clip200)" d="M1711.56 132.44 L1711.56 137.37 Q1709.2 135.171 1706.51 134.083 Q1703.85 132.995 1700.84 132.995 Q1694.91 132.995 1691.77 136.629 Q1688.62 140.24 1688.62 147.092 Q1688.62 153.921 1691.77 157.555 Q1694.91 161.166 1700.84 161.166 Q1703.85 161.166 1706.51 160.078 Q1709.2 158.99 1711.56 156.791 L1711.56 161.676 Q1709.1 163.342 1706.35 164.176 Q1703.62 165.009 1700.56 165.009 Q1692.71 165.009 1688.2 160.217 Q1683.69 155.402 1683.69 147.092 Q1683.69 138.759 1688.2 133.967 Q1692.71 129.153 1700.56 129.153 Q1703.66 129.153 1706.4 129.986 Q1709.15 130.796 1711.56 132.44 Z" fill="#000000" fill-rule="nonzero" fill-opacity="1" /><path clip-path="url(#clip200)" d="M1718.59 128.319 L1722.85 128.319 L1722.85 164.338 L1718.59 164.338 L1718.59 128.319 Z" fill="#000000" fill-rule="nonzero" fill-opacity="1" /><path clip-path="url(#clip200)" d="M1743.55 151.305 Q1738.39 151.305 1736.39 152.486 Q1734.4 153.666 1734.4 156.514 Q1734.4 158.782 1735.89 160.125 Q1737.39 161.444 1739.96 161.444 Q1743.5 161.444 1745.63 158.944 Q1747.78 156.421 1747.78 152.254 L1747.78 151.305 L1743.55 151.305 M1752.04 149.546 L1752.04 164.338 L1747.78 164.338 L1747.78 160.402 Q1746.33 162.763 1744.15 163.898 Q1741.97 165.009 1738.83 165.009 Q1734.84 165.009 1732.48 162.787 Q1730.15 160.541 1730.15 156.791 Q1730.15 152.416 1733.06 150.194 Q1736 147.972 1741.81 147.972 L1747.78 147.972 L1747.78 147.555 Q1747.78 144.615 1745.84 143.018 Q1743.92 141.398 1740.42 141.398 Q1738.2 141.398 1736.09 141.93 Q1733.99 142.463 1732.04 143.527 L1732.04 139.592 Q1734.38 138.69 1736.58 138.25 Q1738.78 137.787 1740.86 137.787 Q1746.49 137.787 1749.27 140.703 Q1752.04 143.62 1752.04 149.546 Z" fill="#000000" fill-rule="nonzero" fill-opacity="1" /><path clip-path="url(#clip200)" d="M1771.6 166.745 Q1769.8 171.375 1768.08 172.787 Q1766.37 174.199 1763.5 174.199 L1760.1 174.199 L1760.1 170.634 L1762.6 170.634 Q1764.36 170.634 1765.33 169.8 Q1766.3 168.967 1767.48 165.865 L1768.25 163.921 L1757.76 138.412 L1762.27 138.412 L1770.38 158.689 L1778.48 138.412 L1782.99 138.412 L1771.6 166.745 Z" fill="#000000" fill-rule="nonzero" fill-opacity="1" /><path clip-path="url(#clip200)" d="M1793.08 131.051 L1793.08 138.412 L1801.86 138.412 L1801.86 141.722 L1793.08 141.722 L1793.08 155.796 Q1793.08 158.967 1793.94 159.87 Q1794.82 160.773 1797.48 160.773 L1801.86 160.773 L1801.86 164.338 L1797.48 164.338 Q1792.55 164.338 1790.68 162.509 Q1788.8 160.657 1788.8 155.796 L1788.8 141.722 L1785.68 141.722 L1785.68 138.412 L1788.8 138.412 L1788.8 131.051 L1793.08 131.051 Z" fill="#000000" fill-rule="nonzero" fill-opacity="1" /><path clip-path="url(#clip200)" d="M1817.51 141.398 Q1814.08 141.398 1812.09 144.083 Q1810.1 146.745 1810.1 151.398 Q1810.1 156.051 1812.07 158.736 Q1814.06 161.398 1817.51 161.398 Q1820.91 161.398 1822.9 158.713 Q1824.89 156.027 1824.89 151.398 Q1824.89 146.791 1822.9 144.106 Q1820.91 141.398 1817.51 141.398 M1817.51 137.787 Q1823.06 137.787 1826.23 141.398 Q1829.4 145.009 1829.4 151.398 Q1829.4 157.764 1826.23 161.398 Q1823.06 165.009 1817.51 165.009 Q1811.93 165.009 1808.76 161.398 Q1805.61 157.764 1805.61 151.398 Q1805.61 145.009 1808.76 141.398 Q1811.93 137.787 1817.51 137.787 Z" fill="#000000" fill-rule="nonzero" fill-opacity="1" /><path clip-path="url(#clip200)" d="M1858.01 148.689 L1858.01 164.338 L1853.76 164.338 L1853.76 148.828 Q1853.76 145.148 1852.32 143.319 Q1850.89 141.49 1848.01 141.49 Q1844.57 141.49 1842.57 143.69 Q1840.58 145.889 1840.58 149.685 L1840.58 164.338 L1836.3 164.338 L1836.3 138.412 L1840.58 138.412 L1840.58 142.44 Q1842.11 140.102 1844.17 138.944 Q1846.26 137.787 1848.96 137.787 Q1853.43 137.787 1855.72 140.565 Q1858.01 143.319 1858.01 148.689 Z" fill="#000000" fill-rule="nonzero" fill-opacity="1" /><path clip-path="url(#clip200)" d="M1890.26 159.407 L1890.26 150.125 L1882.62 150.125 L1882.62 146.282 L1894.89 146.282 L1894.89 161.12 Q1892.18 163.041 1888.92 164.037 Q1885.65 165.009 1881.95 165.009 Q1873.85 165.009 1869.26 160.287 Q1864.7 155.541 1864.7 147.092 Q1864.7 138.62 1869.26 133.898 Q1873.85 129.153 1881.95 129.153 Q1885.33 129.153 1888.36 129.986 Q1891.42 130.819 1893.99 132.44 L1893.99 137.416 Q1891.39 135.217 1888.48 134.106 Q1885.56 132.995 1882.34 132.995 Q1876 132.995 1872.81 136.537 Q1869.64 140.078 1869.64 147.092 Q1869.64 154.083 1872.81 157.625 Q1876 161.166 1882.34 161.166 Q1884.82 161.166 1886.76 160.75 Q1888.71 160.31 1890.26 159.407 Z" fill="#000000" fill-rule="nonzero" fill-opacity="1" /><path clip-path="url(#clip200)" d="M1925.42 150.31 L1925.42 152.393 L1905.84 152.393 Q1906.12 156.791 1908.48 159.106 Q1910.86 161.398 1915.1 161.398 Q1917.55 161.398 1919.84 160.796 Q1922.16 160.194 1924.43 158.99 L1924.43 163.018 Q1922.13 163.99 1919.73 164.5 Q1917.32 165.009 1914.84 165.009 Q1908.64 165.009 1905.01 161.398 Q1901.39 157.787 1901.39 151.629 Q1901.39 145.264 1904.82 141.537 Q1908.27 137.787 1914.1 137.787 Q1919.33 137.787 1922.37 141.166 Q1925.42 144.523 1925.42 150.31 M1921.16 149.06 Q1921.12 145.565 1919.19 143.481 Q1917.3 141.398 1914.15 141.398 Q1910.58 141.398 1908.43 143.412 Q1906.3 145.426 1905.98 149.083 L1921.16 149.06 Z" fill="#000000" fill-rule="nonzero" fill-opacity="1" /><path clip-path="url(#clip200)" d="M1953.96 148.689 L1953.96 164.338 L1949.7 164.338 L1949.7 148.828 Q1949.7 145.148 1948.27 143.319 Q1946.83 141.49 1943.96 141.49 Q1940.51 141.49 1938.52 143.69 Q1936.53 145.889 1936.53 149.685 L1936.53 164.338 L1932.25 164.338 L1932.25 138.412 L1936.53 138.412 L1936.53 142.44 Q1938.06 140.102 1940.12 138.944 Q1942.2 137.787 1944.91 137.787 Q1949.38 137.787 1951.67 140.565 Q1953.96 143.319 1953.96 148.689 Z" fill="#000000" fill-rule="nonzero" fill-opacity="1" /><path clip-path="url(#clip200)" d="M1984.63 150.31 L1984.63 152.393 L1965.05 152.393 Q1965.33 156.791 1967.69 159.106 Q1970.07 161.398 1974.31 161.398 Q1976.76 161.398 1979.06 160.796 Q1981.37 160.194 1983.64 158.99 L1983.64 163.018 Q1981.35 163.99 1978.94 164.5 Q1976.53 165.009 1974.06 165.009 Q1967.85 165.009 1964.22 161.398 Q1960.61 157.787 1960.61 151.629 Q1960.61 145.264 1964.03 141.537 Q1967.48 137.787 1973.32 137.787 Q1978.55 137.787 1981.58 141.166 Q1984.63 144.523 1984.63 150.31 M1980.38 149.06 Q1980.33 145.565 1978.41 143.481 Q1976.51 141.398 1973.36 141.398 Q1969.8 141.398 1967.64 143.412 Q1965.51 145.426 1965.19 149.083 L1980.38 149.06 Z" fill="#000000" fill-rule="nonzero" fill-opacity="1" /><path clip-path="url(#clip200)" d="M2006.65 142.393 Q2005.93 141.977 2005.07 141.791 Q2004.24 141.583 2003.22 141.583 Q1999.61 141.583 1997.67 143.944 Q1995.75 146.282 1995.75 150.68 L1995.75 164.338 L1991.46 164.338 L1991.46 138.412 L1995.75 138.412 L1995.75 142.44 Q1997.09 140.078 1999.24 138.944 Q2001.39 137.787 2004.47 137.787 Q2004.91 137.787 2005.44 137.856 Q2005.98 137.903 2006.63 138.018 L2006.65 142.393 Z" fill="#000000" fill-rule="nonzero" fill-opacity="1" /><path clip-path="url(#clip200)" d="M2022.9 151.305 Q2017.74 151.305 2015.75 152.486 Q2013.75 153.666 2013.75 156.514 Q2013.75 158.782 2015.24 160.125 Q2016.74 161.444 2019.31 161.444 Q2022.85 161.444 2024.98 158.944 Q2027.13 156.421 2027.13 152.254 L2027.13 151.305 L2022.9 151.305 M2031.39 149.546 L2031.39 164.338 L2027.13 164.338 L2027.13 160.402 Q2025.68 162.763 2023.5 163.898 Q2021.32 165.009 2018.18 165.009 Q2014.19 165.009 2011.83 162.787 Q2009.5 160.541 2009.5 156.791 Q2009.5 152.416 2012.41 150.194 Q2015.35 147.972 2021.16 147.972 L2027.13 147.972 L2027.13 147.555 Q2027.13 144.615 2025.19 143.018 Q2023.27 141.398 2019.77 141.398 Q2017.55 141.398 2015.44 141.93 Q2013.34 142.463 2011.39 143.527 L2011.39 139.592 Q2013.73 138.69 2015.93 138.25 Q2018.13 137.787 2020.21 137.787 Q2025.84 137.787 2028.62 140.703 Q2031.39 143.62 2031.39 149.546 Z" fill="#000000" fill-rule="nonzero" fill-opacity="1" /><path clip-path="url(#clip200)" d="M2044.38 131.051 L2044.38 138.412 L2053.15 138.412 L2053.15 141.722 L2044.38 141.722 L2044.38 155.796 Q2044.38 158.967 2045.24 159.87 Q2046.12 160.773 2048.78 160.773 L2053.15 160.773 L2053.15 164.338 L2048.78 164.338 Q2043.85 164.338 2041.97 162.509 Q2040.1 160.657 2040.1 155.796 L2040.1 141.722 L2036.97 141.722 L2036.97 138.412 L2040.1 138.412 L2040.1 131.051 L2044.38 131.051 Z" fill="#000000" fill-rule="nonzero" fill-opacity="1" /><path clip-path="url(#clip200)" d="M2068.8 141.398 Q2065.37 141.398 2063.38 144.083 Q2061.39 146.745 2061.39 151.398 Q2061.39 156.051 2063.36 158.736 Q2065.35 161.398 2068.8 161.398 Q2072.2 161.398 2074.19 158.713 Q2076.18 156.027 2076.18 151.398 Q2076.18 146.791 2074.19 144.106 Q2072.2 141.398 2068.8 141.398 M2068.8 137.787 Q2074.36 137.787 2077.53 141.398 Q2080.7 145.009 2080.7 151.398 Q2080.7 157.764 2077.53 161.398 Q2074.36 165.009 2068.8 165.009 Q2063.22 165.009 2060.05 161.398 Q2056.9 157.764 2056.9 151.398 Q2056.9 145.009 2060.05 141.398 Q2063.22 137.787 2068.8 137.787 Z" fill="#000000" fill-rule="nonzero" fill-opacity="1" /><path clip-path="url(#clip200)" d="M2102.78 142.393 Q2102.06 141.977 2101.21 141.791 Q2100.37 141.583 2099.36 141.583 Q2095.74 141.583 2093.8 143.944 Q2091.88 146.282 2091.88 150.68 L2091.88 164.338 L2087.6 164.338 L2087.6 138.412 L2091.88 138.412 L2091.88 142.44 Q2093.22 140.078 2095.37 138.944 Q2097.53 137.787 2100.61 137.787 Q2101.05 137.787 2101.58 137.856 Q2102.11 137.903 2102.76 138.018 L2102.78 142.393 Z" fill="#000000" fill-rule="nonzero" fill-opacity="1" /><path clip-path="url(#clip200)" d="M2117.48 128.366 Q2114.38 133.69 2112.87 138.898 Q2111.37 144.106 2111.37 149.453 Q2111.37 154.801 2112.87 160.055 Q2114.4 165.287 2117.48 170.588 L2113.78 170.588 Q2110.31 165.148 2108.57 159.893 Q2106.86 154.639 2106.86 149.453 Q2106.86 144.291 2108.57 139.06 Q2110.28 133.828 2113.78 128.366 L2117.48 128.366 Z" fill="#000000" fill-rule="nonzero" fill-opacity="1" /><path clip-path="url(#clip200)" d="M2123.59 149.453 L2136.07 149.453 L2136.07 153.25 L2123.59 153.25 L2123.59 149.453 Z" fill="#000000" fill-rule="nonzero" fill-opacity="1" /><path clip-path="url(#clip200)" d="M2153.45 132.856 Q2149.84 132.856 2148.01 136.421 Q2146.21 139.963 2146.21 147.092 Q2146.21 154.199 2148.01 157.764 Q2149.84 161.305 2153.45 161.305 Q2157.09 161.305 2158.89 157.764 Q2160.72 154.199 2160.72 147.092 Q2160.72 139.963 2158.89 136.421 Q2157.09 132.856 2153.45 132.856 M2153.45 129.153 Q2159.26 129.153 2162.32 133.759 Q2165.4 138.342 2165.4 147.092 Q2165.4 155.819 2162.32 160.426 Q2159.26 165.009 2153.45 165.009 Q2147.64 165.009 2144.56 160.426 Q2141.51 155.819 2141.51 147.092 Q2141.51 138.342 2144.56 133.759 Q2147.64 129.153 2153.45 129.153 Z" fill="#000000" fill-rule="nonzero" fill-opacity="1" /><path clip-path="url(#clip200)" d="M2173.61 158.458 L2178.5 158.458 L2178.5 164.338 L2173.61 164.338 L2173.61 158.458 Z" fill="#000000" fill-rule="nonzero" fill-opacity="1" /><path clip-path="url(#clip200)" d="M2188.73 129.778 L2207.09 129.778 L2207.09 133.713 L2193.01 133.713 L2193.01 142.185 Q2194.03 141.838 2195.05 141.676 Q2196.07 141.49 2197.09 141.49 Q2202.87 141.49 2206.25 144.662 Q2209.63 147.833 2209.63 153.25 Q2209.63 158.828 2206.16 161.93 Q2202.69 165.009 2196.37 165.009 Q2194.19 165.009 2191.92 164.638 Q2189.68 164.268 2187.27 163.527 L2187.27 158.828 Q2189.36 159.963 2191.58 160.518 Q2193.8 161.074 2196.28 161.074 Q2200.28 161.074 2202.62 158.967 Q2204.96 156.861 2204.96 153.25 Q2204.96 149.639 2202.62 147.532 Q2200.28 145.426 2196.28 145.426 Q2194.4 145.426 2192.53 145.842 Q2190.67 146.259 2188.73 147.139 L2188.73 129.778 Z" fill="#000000" fill-rule="nonzero" fill-opacity="1" /><path clip-path="url(#clip200)" d="M2217.57 128.366 L2221.28 128.366 Q2224.75 133.828 2226.46 139.06 Q2228.2 144.291 2228.2 149.453 Q2228.2 154.639 2226.46 159.893 Q2224.75 165.148 2221.28 170.588 L2217.57 170.588 Q2220.65 165.287 2222.16 160.055 Q2223.68 154.801 2223.68 149.453 Q2223.68 144.106 2222.16 138.898 Q2220.65 133.69 2217.57 128.366 Z" fill="#000000" fill-rule="nonzero" fill-opacity="1" /><polyline clip-path="url(#clip200)" style="stroke:#e26f46; stroke-linecap:round; stroke-linejoin:round; stroke-width:4; stroke-opacity:1; fill:none" points="1509.42,198.898 1658.79,198.898 "/>
<path clip-path="url(#clip200)" d="M1683.69 181.618 L1688.36 181.618 L1688.36 216.178 L1683.69 216.178 L1683.69 181.618 Z" fill="#000000" fill-rule="nonzero" fill-opacity="1" /><path clip-path="url(#clip200)" d="M1719.03 200.529 L1719.03 216.178 L1714.77 216.178 L1714.77 200.668 Q1714.77 196.988 1713.34 195.159 Q1711.9 193.33 1709.03 193.33 Q1705.58 193.33 1703.59 195.53 Q1701.6 197.729 1701.6 201.525 L1701.6 216.178 L1697.32 216.178 L1697.32 190.252 L1701.6 190.252 L1701.6 194.28 Q1703.13 191.942 1705.19 190.784 Q1707.27 189.627 1709.98 189.627 Q1714.45 189.627 1716.74 192.405 Q1719.03 195.159 1719.03 200.529 Z" fill="#000000" fill-rule="nonzero" fill-opacity="1" /><path clip-path="url(#clip200)" d="M1744.59 194.187 L1744.59 180.159 L1748.85 180.159 L1748.85 216.178 L1744.59 216.178 L1744.59 212.289 Q1743.25 214.603 1741.19 215.738 Q1739.15 216.849 1736.28 216.849 Q1731.58 216.849 1728.62 213.099 Q1725.68 209.349 1725.68 203.238 Q1725.68 197.127 1728.62 193.377 Q1731.58 189.627 1736.28 189.627 Q1739.15 189.627 1741.19 190.761 Q1743.25 191.872 1744.59 194.187 M1730.08 203.238 Q1730.08 207.937 1732 210.622 Q1733.94 213.284 1737.32 213.284 Q1740.7 213.284 1742.64 210.622 Q1744.59 207.937 1744.59 203.238 Q1744.59 198.539 1742.64 195.877 Q1740.7 193.192 1737.32 193.192 Q1733.94 193.192 1732 195.877 Q1730.08 198.539 1730.08 203.238 Z" fill="#000000" fill-rule="nonzero" fill-opacity="1" /><path clip-path="url(#clip200)" d="M1779.8 202.15 L1779.8 204.233 L1760.21 204.233 Q1760.49 208.631 1762.85 210.946 Q1765.24 213.238 1769.47 213.238 Q1771.93 213.238 1774.22 212.636 Q1776.53 212.034 1778.8 210.83 L1778.8 214.858 Q1776.51 215.83 1774.1 216.34 Q1771.7 216.849 1769.22 216.849 Q1763.02 216.849 1759.38 213.238 Q1755.77 209.627 1755.77 203.469 Q1755.77 197.104 1759.2 193.377 Q1762.64 189.627 1768.48 189.627 Q1773.71 189.627 1776.74 193.006 Q1779.8 196.363 1779.8 202.15 M1775.54 200.9 Q1775.49 197.405 1773.57 195.321 Q1771.67 193.238 1768.52 193.238 Q1764.96 193.238 1762.81 195.252 Q1760.68 197.266 1760.35 200.923 L1775.54 200.9 Z" fill="#000000" fill-rule="nonzero" fill-opacity="1" /><path clip-path="url(#clip200)" d="M1790.91 212.289 L1790.91 226.039 L1786.63 226.039 L1786.63 190.252 L1790.91 190.252 L1790.91 194.187 Q1792.25 191.872 1794.29 190.761 Q1796.35 189.627 1799.2 189.627 Q1803.92 189.627 1806.86 193.377 Q1809.82 197.127 1809.82 203.238 Q1809.82 209.349 1806.86 213.099 Q1803.92 216.849 1799.2 216.849 Q1796.35 216.849 1794.29 215.738 Q1792.25 214.603 1790.91 212.289 M1805.4 203.238 Q1805.4 198.539 1803.45 195.877 Q1801.53 193.192 1798.15 193.192 Q1794.77 193.192 1792.83 195.877 Q1790.91 198.539 1790.91 203.238 Q1790.91 207.937 1792.83 210.622 Q1794.77 213.284 1798.15 213.284 Q1801.53 213.284 1803.45 210.622 Q1805.4 207.937 1805.4 203.238 Z" fill="#000000" fill-rule="nonzero" fill-opacity="1" /><path clip-path="url(#clip200)" d="M1839.06 202.15 L1839.06 204.233 L1819.47 204.233 Q1819.75 208.631 1822.11 210.946 Q1824.5 213.238 1828.73 213.238 Q1831.19 213.238 1833.48 212.636 Q1835.79 212.034 1838.06 210.83 L1838.06 214.858 Q1835.77 215.83 1833.36 216.34 Q1830.95 216.849 1828.48 216.849 Q1822.27 216.849 1818.64 213.238 Q1815.03 209.627 1815.03 203.469 Q1815.03 197.104 1818.45 193.377 Q1821.9 189.627 1827.74 189.627 Q1832.97 189.627 1836 193.006 Q1839.06 196.363 1839.06 202.15 M1834.8 200.9 Q1834.75 197.405 1832.83 195.321 Q1830.93 193.238 1827.78 193.238 Q1824.22 193.238 1822.07 195.252 Q1819.94 197.266 1819.61 200.923 L1834.8 200.9 Z" fill="#000000" fill-rule="nonzero" fill-opacity="1" /><path clip-path="url(#clip200)" d="M1867.6 200.529 L1867.6 216.178 L1863.34 216.178 L1863.34 200.668 Q1863.34 196.988 1861.9 195.159 Q1860.47 193.33 1857.6 193.33 Q1854.15 193.33 1852.16 195.53 Q1850.17 197.729 1850.17 201.525 L1850.17 216.178 L1845.89 216.178 L1845.89 190.252 L1850.17 190.252 L1850.17 194.28 Q1851.7 191.942 1853.76 190.784 Q1855.84 189.627 1858.55 189.627 Q1863.01 189.627 1865.31 192.405 Q1867.6 195.159 1867.6 200.529 Z" fill="#000000" fill-rule="nonzero" fill-opacity="1" /><path clip-path="url(#clip200)" d="M1893.15 194.187 L1893.15 180.159 L1897.41 180.159 L1897.41 216.178 L1893.15 216.178 L1893.15 212.289 Q1891.81 214.603 1889.75 215.738 Q1887.71 216.849 1884.84 216.849 Q1880.14 216.849 1877.18 213.099 Q1874.24 209.349 1874.24 203.238 Q1874.24 197.127 1877.18 193.377 Q1880.14 189.627 1884.84 189.627 Q1887.71 189.627 1889.75 190.761 Q1891.81 191.872 1893.15 194.187 M1878.64 203.238 Q1878.64 207.937 1880.56 210.622 Q1882.51 213.284 1885.88 213.284 Q1889.26 213.284 1891.21 210.622 Q1893.15 207.937 1893.15 203.238 Q1893.15 198.539 1891.21 195.877 Q1889.26 193.192 1885.88 193.192 Q1882.51 193.192 1880.56 195.877 Q1878.64 198.539 1878.64 203.238 Z" fill="#000000" fill-rule="nonzero" fill-opacity="1" /><path clip-path="url(#clip200)" d="M1928.36 202.15 L1928.36 204.233 L1908.78 204.233 Q1909.06 208.631 1911.42 210.946 Q1913.8 213.238 1918.04 213.238 Q1920.49 213.238 1922.78 212.636 Q1925.1 212.034 1927.37 210.83 L1927.37 214.858 Q1925.07 215.83 1922.67 216.34 Q1920.26 216.849 1917.78 216.849 Q1911.58 216.849 1907.94 213.238 Q1904.33 209.627 1904.33 203.469 Q1904.33 197.104 1907.76 193.377 Q1911.21 189.627 1917.04 189.627 Q1922.27 189.627 1925.31 193.006 Q1928.36 196.363 1928.36 202.15 M1924.1 200.9 Q1924.06 197.405 1922.13 195.321 Q1920.24 193.238 1917.09 193.238 Q1913.52 193.238 1911.37 195.252 Q1909.24 197.266 1908.92 200.923 L1924.1 200.9 Z" fill="#000000" fill-rule="nonzero" fill-opacity="1" /><path clip-path="url(#clip200)" d="M1956.9 200.529 L1956.9 216.178 L1952.64 216.178 L1952.64 200.668 Q1952.64 196.988 1951.21 195.159 Q1949.77 193.33 1946.9 193.33 Q1943.45 193.33 1941.46 195.53 Q1939.47 197.729 1939.47 201.525 L1939.47 216.178 L1935.19 216.178 L1935.19 190.252 L1939.47 190.252 L1939.47 194.28 Q1941 191.942 1943.06 190.784 Q1945.14 189.627 1947.85 189.627 Q1952.32 189.627 1954.61 192.405 Q1956.9 195.159 1956.9 200.529 Z" fill="#000000" fill-rule="nonzero" fill-opacity="1" /><path clip-path="url(#clip200)" d="M1969.61 182.891 L1969.61 190.252 L1978.38 190.252 L1978.38 193.562 L1969.61 193.562 L1969.61 207.636 Q1969.61 210.807 1970.47 211.71 Q1971.35 212.613 1974.01 212.613 L1978.38 212.613 L1978.38 216.178 L1974.01 216.178 Q1969.08 216.178 1967.2 214.349 Q1965.33 212.497 1965.33 207.636 L1965.33 193.562 L1962.2 193.562 L1962.2 190.252 L1965.33 190.252 L1965.33 182.891 L1969.61 182.891 Z" fill="#000000" fill-rule="nonzero" fill-opacity="1" /><path clip-path="url(#clip200)" d="M2007.74 211.247 L2007.74 201.965 L2000.1 201.965 L2000.1 198.122 L2012.37 198.122 L2012.37 212.96 Q2009.66 214.881 2006.39 215.877 Q2003.13 216.849 1999.43 216.849 Q1991.32 216.849 1986.74 212.127 Q1982.18 207.381 1982.18 198.932 Q1982.18 190.46 1986.74 185.738 Q1991.32 180.993 1999.43 180.993 Q2002.81 180.993 2005.84 181.826 Q2008.89 182.659 2011.46 184.28 L2011.46 189.256 Q2008.87 187.057 2005.95 185.946 Q2003.04 184.835 1999.82 184.835 Q1993.48 184.835 1990.28 188.377 Q1987.11 191.918 1987.11 198.932 Q1987.11 205.923 1990.28 209.465 Q1993.48 213.006 1999.82 213.006 Q2002.3 213.006 2004.24 212.59 Q2006.19 212.15 2007.74 211.247 Z" fill="#000000" fill-rule="nonzero" fill-opacity="1" /><path clip-path="url(#clip200)" d="M2042.9 202.15 L2042.9 204.233 L2023.31 204.233 Q2023.59 208.631 2025.95 210.946 Q2028.34 213.238 2032.57 213.238 Q2035.03 213.238 2037.32 212.636 Q2039.63 212.034 2041.9 210.83 L2041.9 214.858 Q2039.61 215.83 2037.2 216.34 Q2034.8 216.849 2032.32 216.849 Q2026.12 216.849 2022.48 213.238 Q2018.87 209.627 2018.87 203.469 Q2018.87 197.104 2022.3 193.377 Q2025.75 189.627 2031.58 189.627 Q2036.81 189.627 2039.84 193.006 Q2042.9 196.363 2042.9 202.15 M2038.64 200.9 Q2038.59 197.405 2036.67 195.321 Q2034.77 193.238 2031.62 193.238 Q2028.06 193.238 2025.91 195.252 Q2023.78 197.266 2023.45 200.923 L2038.64 200.9 Z" fill="#000000" fill-rule="nonzero" fill-opacity="1" /><path clip-path="url(#clip200)" d="M2071.44 200.529 L2071.44 216.178 L2067.18 216.178 L2067.18 200.668 Q2067.18 196.988 2065.75 195.159 Q2064.31 193.33 2061.44 193.33 Q2057.99 193.33 2056 195.53 Q2054.01 197.729 2054.01 201.525 L2054.01 216.178 L2049.73 216.178 L2049.73 190.252 L2054.01 190.252 L2054.01 194.28 Q2055.54 191.942 2057.6 190.784 Q2059.68 189.627 2062.39 189.627 Q2066.86 189.627 2069.15 192.405 Q2071.44 195.159 2071.44 200.529 Z" fill="#000000" fill-rule="nonzero" fill-opacity="1" /><path clip-path="url(#clip200)" d="M2102.11 202.15 L2102.11 204.233 L2082.53 204.233 Q2082.81 208.631 2085.17 210.946 Q2087.55 213.238 2091.79 213.238 Q2094.24 213.238 2096.53 212.636 Q2098.85 212.034 2101.12 210.83 L2101.12 214.858 Q2098.82 215.83 2096.42 216.34 Q2094.01 216.849 2091.53 216.849 Q2085.33 216.849 2081.69 213.238 Q2078.08 209.627 2078.08 203.469 Q2078.08 197.104 2081.51 193.377 Q2084.96 189.627 2090.79 189.627 Q2096.02 189.627 2099.06 193.006 Q2102.11 196.363 2102.11 202.15 M2097.85 200.9 Q2097.81 197.405 2095.88 195.321 Q2093.99 193.238 2090.84 193.238 Q2087.27 193.238 2085.12 195.252 Q2082.99 197.266 2082.67 200.923 L2097.85 200.9 Z" fill="#000000" fill-rule="nonzero" fill-opacity="1" /><path clip-path="url(#clip200)" d="M2124.12 194.233 Q2123.41 193.817 2122.55 193.631 Q2121.72 193.423 2120.7 193.423 Q2117.09 193.423 2115.14 195.784 Q2113.22 198.122 2113.22 202.52 L2113.22 216.178 L2108.94 216.178 L2108.94 190.252 L2113.22 190.252 L2113.22 194.28 Q2114.56 191.918 2116.72 190.784 Q2118.87 189.627 2121.95 189.627 Q2122.39 189.627 2122.92 189.696 Q2123.45 189.743 2124.1 189.858 L2124.12 194.233 Z" fill="#000000" fill-rule="nonzero" fill-opacity="1" /><path clip-path="url(#clip200)" d="M2140.37 203.145 Q2135.21 203.145 2133.22 204.326 Q2131.23 205.506 2131.23 208.354 Q2131.23 210.622 2132.71 211.965 Q2134.22 213.284 2136.79 213.284 Q2140.33 213.284 2142.46 210.784 Q2144.61 208.261 2144.61 204.094 L2144.61 203.145 L2140.37 203.145 M2148.87 201.386 L2148.87 216.178 L2144.61 216.178 L2144.61 212.242 Q2143.15 214.603 2140.98 215.738 Q2138.8 216.849 2135.65 216.849 Q2131.67 216.849 2129.31 214.627 Q2126.97 212.381 2126.97 208.631 Q2126.97 204.256 2129.89 202.034 Q2132.83 199.812 2138.64 199.812 L2144.61 199.812 L2144.61 199.395 Q2144.61 196.455 2142.67 194.858 Q2140.74 193.238 2137.25 193.238 Q2135.03 193.238 2132.92 193.77 Q2130.81 194.303 2128.87 195.367 L2128.87 191.432 Q2131.21 190.53 2133.41 190.09 Q2135.61 189.627 2137.69 189.627 Q2143.31 189.627 2146.09 192.543 Q2148.87 195.46 2148.87 201.386 Z" fill="#000000" fill-rule="nonzero" fill-opacity="1" /><path clip-path="url(#clip200)" d="M2161.86 182.891 L2161.86 190.252 L2170.63 190.252 L2170.63 193.562 L2161.86 193.562 L2161.86 207.636 Q2161.86 210.807 2162.71 211.71 Q2163.59 212.613 2166.25 212.613 L2170.63 212.613 L2170.63 216.178 L2166.25 216.178 Q2161.32 216.178 2159.45 214.349 Q2157.57 212.497 2157.57 207.636 L2157.57 193.562 L2154.45 193.562 L2154.45 190.252 L2157.57 190.252 L2157.57 182.891 L2161.86 182.891 Z" fill="#000000" fill-rule="nonzero" fill-opacity="1" /><path clip-path="url(#clip200)" d="M2186.28 193.238 Q2182.85 193.238 2180.86 195.923 Q2178.87 198.585 2178.87 203.238 Q2178.87 207.891 2180.84 210.576 Q2182.83 213.238 2186.28 213.238 Q2189.68 213.238 2191.67 210.553 Q2193.66 207.867 2193.66 203.238 Q2193.66 198.631 2191.67 195.946 Q2189.68 193.238 2186.28 193.238 M2186.28 189.627 Q2191.83 189.627 2195 193.238 Q2198.17 196.849 2198.17 203.238 Q2198.17 209.604 2195 213.238 Q2191.83 216.849 2186.28 216.849 Q2180.7 216.849 2177.53 213.238 Q2174.38 209.604 2174.38 203.238 Q2174.38 196.849 2177.53 193.238 Q2180.7 189.627 2186.28 189.627 Z" fill="#000000" fill-rule="nonzero" fill-opacity="1" /><path clip-path="url(#clip200)" d="M2220.26 194.233 Q2219.54 193.817 2218.68 193.631 Q2217.85 193.423 2216.83 193.423 Q2213.22 193.423 2211.28 195.784 Q2209.36 198.122 2209.36 202.52 L2209.36 216.178 L2205.07 216.178 L2205.07 190.252 L2209.36 190.252 L2209.36 194.28 Q2210.7 191.918 2212.85 190.784 Q2215 189.627 2218.08 189.627 Q2218.52 189.627 2219.05 189.696 Q2219.59 189.743 2220.23 189.858 L2220.26 194.233 Z" fill="#000000" fill-rule="nonzero" fill-opacity="1" /><path clip-path="url(#clip200)" d="M2234.96 180.206 Q2231.86 185.53 2230.35 190.738 Q2228.85 195.946 2228.85 201.293 Q2228.85 206.641 2230.35 211.895 Q2231.88 217.127 2234.96 222.428 L2231.25 222.428 Q2227.78 216.988 2226.05 211.733 Q2224.33 206.479 2224.33 201.293 Q2224.33 196.131 2226.05 190.9 Q2227.76 185.668 2231.25 180.206 L2234.96 180.206 Z" fill="#000000" fill-rule="nonzero" fill-opacity="1" /><path clip-path="url(#clip200)" d="M2242.55 180.206 L2246.25 180.206 Q2249.73 185.668 2251.44 190.9 Q2253.17 196.131 2253.17 201.293 Q2253.17 206.479 2251.44 211.733 Q2249.73 216.988 2246.25 222.428 L2242.55 222.428 Q2245.63 217.127 2247.13 211.895 Q2248.66 206.641 2248.66 201.293 Q2248.66 195.946 2247.13 190.738 Q2245.63 185.53 2242.55 180.206 Z" fill="#000000" fill-rule="nonzero" fill-opacity="1" /><polyline clip-path="url(#clip200)" style="stroke:#3da44d; stroke-linecap:round; stroke-linejoin:round; stroke-width:4; stroke-opacity:1; fill:none" points="1509.42,250.738 1658.79,250.738 "/>
<path clip-path="url(#clip200)" d="M1711.56 236.12 L1711.56 241.05 Q1709.2 238.851 1706.51 237.763 Q1703.85 236.675 1700.84 236.675 Q1694.91 236.675 1691.77 240.309 Q1688.62 243.92 1688.62 250.772 Q1688.62 257.601 1691.77 261.235 Q1694.91 264.846 1700.84 264.846 Q1703.85 264.846 1706.51 263.758 Q1709.2 262.67 1711.56 260.471 L1711.56 265.356 Q1709.1 267.022 1706.35 267.856 Q1703.62 268.689 1700.56 268.689 Q1692.71 268.689 1688.2 263.897 Q1683.69 259.082 1683.69 250.772 Q1683.69 242.439 1688.2 237.647 Q1692.71 232.833 1700.56 232.833 Q1703.66 232.833 1706.4 233.666 Q1709.15 234.476 1711.56 236.12 Z" fill="#000000" fill-rule="nonzero" fill-opacity="1" /><path clip-path="url(#clip200)" d="M1718.59 231.999 L1722.85 231.999 L1722.85 268.018 L1718.59 268.018 L1718.59 231.999 Z" fill="#000000" fill-rule="nonzero" fill-opacity="1" /><path clip-path="url(#clip200)" d="M1743.55 254.985 Q1738.39 254.985 1736.39 256.166 Q1734.4 257.346 1734.4 260.194 Q1734.4 262.462 1735.89 263.805 Q1737.39 265.124 1739.96 265.124 Q1743.5 265.124 1745.63 262.624 Q1747.78 260.101 1747.78 255.934 L1747.78 254.985 L1743.55 254.985 M1752.04 253.226 L1752.04 268.018 L1747.78 268.018 L1747.78 264.082 Q1746.33 266.443 1744.15 267.578 Q1741.97 268.689 1738.83 268.689 Q1734.84 268.689 1732.48 266.467 Q1730.15 264.221 1730.15 260.471 Q1730.15 256.096 1733.06 253.874 Q1736 251.652 1741.81 251.652 L1747.78 251.652 L1747.78 251.235 Q1747.78 248.295 1745.84 246.698 Q1743.92 245.078 1740.42 245.078 Q1738.2 245.078 1736.09 245.61 Q1733.99 246.143 1732.04 247.207 L1732.04 243.272 Q1734.38 242.37 1736.58 241.93 Q1738.78 241.467 1740.86 241.467 Q1746.49 241.467 1749.27 244.383 Q1752.04 247.3 1752.04 253.226 Z" fill="#000000" fill-rule="nonzero" fill-opacity="1" /><path clip-path="url(#clip200)" d="M1771.6 270.425 Q1769.8 275.055 1768.08 276.467 Q1766.37 277.879 1763.5 277.879 L1760.1 277.879 L1760.1 274.314 L1762.6 274.314 Q1764.36 274.314 1765.33 273.48 Q1766.3 272.647 1767.48 269.545 L1768.25 267.601 L1757.76 242.092 L1762.27 242.092 L1770.38 262.369 L1778.48 242.092 L1782.99 242.092 L1771.6 270.425 Z" fill="#000000" fill-rule="nonzero" fill-opacity="1" /><path clip-path="url(#clip200)" d="M1793.08 234.731 L1793.08 242.092 L1801.86 242.092 L1801.86 245.402 L1793.08 245.402 L1793.08 259.476 Q1793.08 262.647 1793.94 263.55 Q1794.82 264.453 1797.48 264.453 L1801.86 264.453 L1801.86 268.018 L1797.48 268.018 Q1792.55 268.018 1790.68 266.189 Q1788.8 264.337 1788.8 259.476 L1788.8 245.402 L1785.68 245.402 L1785.68 242.092 L1788.8 242.092 L1788.8 234.731 L1793.08 234.731 Z" fill="#000000" fill-rule="nonzero" fill-opacity="1" /><path clip-path="url(#clip200)" d="M1817.51 245.078 Q1814.08 245.078 1812.09 247.763 Q1810.1 250.425 1810.1 255.078 Q1810.1 259.731 1812.07 262.416 Q1814.06 265.078 1817.51 265.078 Q1820.91 265.078 1822.9 262.393 Q1824.89 259.707 1824.89 255.078 Q1824.89 250.471 1822.9 247.786 Q1820.91 245.078 1817.51 245.078 M1817.51 241.467 Q1823.06 241.467 1826.23 245.078 Q1829.4 248.689 1829.4 255.078 Q1829.4 261.444 1826.23 265.078 Q1823.06 268.689 1817.51 268.689 Q1811.93 268.689 1808.76 265.078 Q1805.61 261.444 1805.61 255.078 Q1805.61 248.689 1808.76 245.078 Q1811.93 241.467 1817.51 241.467 Z" fill="#000000" fill-rule="nonzero" fill-opacity="1" /><path clip-path="url(#clip200)" d="M1858.01 252.369 L1858.01 268.018 L1853.76 268.018 L1853.76 252.508 Q1853.76 248.828 1852.32 246.999 Q1850.89 245.17 1848.01 245.17 Q1844.57 245.17 1842.57 247.37 Q1840.58 249.569 1840.58 253.365 L1840.58 268.018 L1836.3 268.018 L1836.3 242.092 L1840.58 242.092 L1840.58 246.12 Q1842.11 243.782 1844.17 242.624 Q1846.26 241.467 1848.96 241.467 Q1853.43 241.467 1855.72 244.245 Q1858.01 246.999 1858.01 252.369 Z" fill="#000000" fill-rule="nonzero" fill-opacity="1" /><path clip-path="url(#clip200)" d="M1890.26 263.087 L1890.26 253.805 L1882.62 253.805 L1882.62 249.962 L1894.89 249.962 L1894.89 264.8 Q1892.18 266.721 1888.92 267.717 Q1885.65 268.689 1881.95 268.689 Q1873.85 268.689 1869.26 263.967 Q1864.7 259.221 1864.7 250.772 Q1864.7 242.3 1869.26 237.578 Q1873.85 232.833 1881.95 232.833 Q1885.33 232.833 1888.36 233.666 Q1891.42 234.499 1893.99 236.12 L1893.99 241.096 Q1891.39 238.897 1888.48 237.786 Q1885.56 236.675 1882.34 236.675 Q1876 236.675 1872.81 240.217 Q1869.64 243.758 1869.64 250.772 Q1869.64 257.763 1872.81 261.305 Q1876 264.846 1882.34 264.846 Q1884.82 264.846 1886.76 264.43 Q1888.71 263.99 1890.26 263.087 Z" fill="#000000" fill-rule="nonzero" fill-opacity="1" /><path clip-path="url(#clip200)" d="M1925.42 253.99 L1925.42 256.073 L1905.84 256.073 Q1906.12 260.471 1908.48 262.786 Q1910.86 265.078 1915.1 265.078 Q1917.55 265.078 1919.84 264.476 Q1922.16 263.874 1924.43 262.67 L1924.43 266.698 Q1922.13 267.67 1919.73 268.18 Q1917.32 268.689 1914.84 268.689 Q1908.64 268.689 1905.01 265.078 Q1901.39 261.467 1901.39 255.309 Q1901.39 248.944 1904.82 245.217 Q1908.27 241.467 1914.1 241.467 Q1919.33 241.467 1922.37 244.846 Q1925.42 248.203 1925.42 253.99 M1921.16 252.74 Q1921.12 249.245 1919.19 247.161 Q1917.3 245.078 1914.15 245.078 Q1910.58 245.078 1908.43 247.092 Q1906.3 249.106 1905.98 252.763 L1921.16 252.74 Z" fill="#000000" fill-rule="nonzero" fill-opacity="1" /><path clip-path="url(#clip200)" d="M1953.96 252.369 L1953.96 268.018 L1949.7 268.018 L1949.7 252.508 Q1949.7 248.828 1948.27 246.999 Q1946.83 245.17 1943.96 245.17 Q1940.51 245.17 1938.52 247.37 Q1936.53 249.569 1936.53 253.365 L1936.53 268.018 L1932.25 268.018 L1932.25 242.092 L1936.53 242.092 L1936.53 246.12 Q1938.06 243.782 1940.12 242.624 Q1942.2 241.467 1944.91 241.467 Q1949.38 241.467 1951.67 244.245 Q1953.96 246.999 1953.96 252.369 Z" fill="#000000" fill-rule="nonzero" fill-opacity="1" /><path clip-path="url(#clip200)" d="M1984.63 253.99 L1984.63 256.073 L1965.05 256.073 Q1965.33 260.471 1967.69 262.786 Q1970.07 265.078 1974.31 265.078 Q1976.76 265.078 1979.06 264.476 Q1981.37 263.874 1983.64 262.67 L1983.64 266.698 Q1981.35 267.67 1978.94 268.18 Q1976.53 268.689 1974.06 268.689 Q1967.85 268.689 1964.22 265.078 Q1960.61 261.467 1960.61 255.309 Q1960.61 248.944 1964.03 245.217 Q1967.48 241.467 1973.32 241.467 Q1978.55 241.467 1981.58 244.846 Q1984.63 248.203 1984.63 253.99 M1980.38 252.74 Q1980.33 249.245 1978.41 247.161 Q1976.51 245.078 1973.36 245.078 Q1969.8 245.078 1967.64 247.092 Q1965.51 249.106 1965.19 252.763 L1980.38 252.74 Z" fill="#000000" fill-rule="nonzero" fill-opacity="1" /><path clip-path="url(#clip200)" d="M2006.65 246.073 Q2005.93 245.657 2005.07 245.471 Q2004.24 245.263 2003.22 245.263 Q1999.61 245.263 1997.67 247.624 Q1995.75 249.962 1995.75 254.36 L1995.75 268.018 L1991.46 268.018 L1991.46 242.092 L1995.75 242.092 L1995.75 246.12 Q1997.09 243.758 1999.24 242.624 Q2001.39 241.467 2004.47 241.467 Q2004.91 241.467 2005.44 241.536 Q2005.98 241.583 2006.63 241.698 L2006.65 246.073 Z" fill="#000000" fill-rule="nonzero" fill-opacity="1" /><path clip-path="url(#clip200)" d="M2022.9 254.985 Q2017.74 254.985 2015.75 256.166 Q2013.75 257.346 2013.75 260.194 Q2013.75 262.462 2015.24 263.805 Q2016.74 265.124 2019.31 265.124 Q2022.85 265.124 2024.98 262.624 Q2027.13 260.101 2027.13 255.934 L2027.13 254.985 L2022.9 254.985 M2031.39 253.226 L2031.39 268.018 L2027.13 268.018 L2027.13 264.082 Q2025.68 266.443 2023.5 267.578 Q2021.32 268.689 2018.18 268.689 Q2014.19 268.689 2011.83 266.467 Q2009.5 264.221 2009.5 260.471 Q2009.5 256.096 2012.41 253.874 Q2015.35 251.652 2021.16 251.652 L2027.13 251.652 L2027.13 251.235 Q2027.13 248.295 2025.19 246.698 Q2023.27 245.078 2019.77 245.078 Q2017.55 245.078 2015.44 245.61 Q2013.34 246.143 2011.39 247.207 L2011.39 243.272 Q2013.73 242.37 2015.93 241.93 Q2018.13 241.467 2020.21 241.467 Q2025.84 241.467 2028.62 244.383 Q2031.39 247.3 2031.39 253.226 Z" fill="#000000" fill-rule="nonzero" fill-opacity="1" /><path clip-path="url(#clip200)" d="M2044.38 234.731 L2044.38 242.092 L2053.15 242.092 L2053.15 245.402 L2044.38 245.402 L2044.38 259.476 Q2044.38 262.647 2045.24 263.55 Q2046.12 264.453 2048.78 264.453 L2053.15 264.453 L2053.15 268.018 L2048.78 268.018 Q2043.85 268.018 2041.97 266.189 Q2040.1 264.337 2040.1 259.476 L2040.1 245.402 L2036.97 245.402 L2036.97 242.092 L2040.1 242.092 L2040.1 234.731 L2044.38 234.731 Z" fill="#000000" fill-rule="nonzero" fill-opacity="1" /><path clip-path="url(#clip200)" d="M2068.8 245.078 Q2065.37 245.078 2063.38 247.763 Q2061.39 250.425 2061.39 255.078 Q2061.39 259.731 2063.36 262.416 Q2065.35 265.078 2068.8 265.078 Q2072.2 265.078 2074.19 262.393 Q2076.18 259.707 2076.18 255.078 Q2076.18 250.471 2074.19 247.786 Q2072.2 245.078 2068.8 245.078 M2068.8 241.467 Q2074.36 241.467 2077.53 245.078 Q2080.7 248.689 2080.7 255.078 Q2080.7 261.444 2077.53 265.078 Q2074.36 268.689 2068.8 268.689 Q2063.22 268.689 2060.05 265.078 Q2056.9 261.444 2056.9 255.078 Q2056.9 248.689 2060.05 245.078 Q2063.22 241.467 2068.8 241.467 Z" fill="#000000" fill-rule="nonzero" fill-opacity="1" /><path clip-path="url(#clip200)" d="M2102.78 246.073 Q2102.06 245.657 2101.21 245.471 Q2100.37 245.263 2099.36 245.263 Q2095.74 245.263 2093.8 247.624 Q2091.88 249.962 2091.88 254.36 L2091.88 268.018 L2087.6 268.018 L2087.6 242.092 L2091.88 242.092 L2091.88 246.12 Q2093.22 243.758 2095.37 242.624 Q2097.53 241.467 2100.61 241.467 Q2101.05 241.467 2101.58 241.536 Q2102.11 241.583 2102.76 241.698 L2102.78 246.073 Z" fill="#000000" fill-rule="nonzero" fill-opacity="1" /><path clip-path="url(#clip200)" d="M2117.48 232.046 Q2114.38 237.37 2112.87 242.578 Q2111.37 247.786 2111.37 253.133 Q2111.37 258.481 2112.87 263.735 Q2114.4 268.967 2117.48 274.268 L2113.78 274.268 Q2110.31 268.828 2108.57 263.573 Q2106.86 258.319 2106.86 253.133 Q2106.86 247.971 2108.57 242.74 Q2110.28 237.508 2113.78 232.046 L2117.48 232.046 Z" fill="#000000" fill-rule="nonzero" fill-opacity="1" /><path clip-path="url(#clip200)" d="M2136.35 236.536 Q2132.74 236.536 2130.91 240.101 Q2129.1 243.643 2129.1 250.772 Q2129.1 257.879 2130.91 261.444 Q2132.74 264.985 2136.35 264.985 Q2139.98 264.985 2141.79 261.444 Q2143.62 257.879 2143.62 250.772 Q2143.62 243.643 2141.79 240.101 Q2139.98 236.536 2136.35 236.536 M2136.35 232.833 Q2142.16 232.833 2145.21 237.439 Q2148.29 242.022 2148.29 250.772 Q2148.29 259.499 2145.21 264.106 Q2142.16 268.689 2136.35 268.689 Q2130.54 268.689 2127.46 264.106 Q2124.4 259.499 2124.4 250.772 Q2124.4 242.022 2127.46 237.439 Q2130.54 232.833 2136.35 232.833 Z" fill="#000000" fill-rule="nonzero" fill-opacity="1" /><path clip-path="url(#clip200)" d="M2156.51 262.138 L2161.39 262.138 L2161.39 268.018 L2156.51 268.018 L2156.51 262.138 Z" fill="#000000" fill-rule="nonzero" fill-opacity="1" /><path clip-path="url(#clip200)" d="M2171.62 233.458 L2189.98 233.458 L2189.98 237.393 L2175.91 237.393 L2175.91 245.865 Q2176.93 245.518 2177.94 245.356 Q2178.96 245.17 2179.98 245.17 Q2185.77 245.17 2189.15 248.342 Q2192.53 251.513 2192.53 256.93 Q2192.53 262.508 2189.05 265.61 Q2185.58 268.689 2179.26 268.689 Q2177.09 268.689 2174.82 268.318 Q2172.57 267.948 2170.17 267.207 L2170.17 262.508 Q2172.25 263.643 2174.47 264.198 Q2176.69 264.754 2179.17 264.754 Q2183.18 264.754 2185.51 262.647 Q2187.85 260.541 2187.85 256.93 Q2187.85 253.319 2185.51 251.212 Q2183.18 249.106 2179.17 249.106 Q2177.3 249.106 2175.42 249.522 Q2173.57 249.939 2171.62 250.819 L2171.62 233.458 Z" fill="#000000" fill-rule="nonzero" fill-opacity="1" /><path clip-path="url(#clip200)" d="M2200.47 232.046 L2204.17 232.046 Q2207.64 237.508 2209.36 242.74 Q2211.09 247.971 2211.09 253.133 Q2211.09 258.319 2209.36 263.573 Q2207.64 268.828 2204.17 274.268 L2200.47 274.268 Q2203.55 268.967 2205.05 263.735 Q2206.58 258.481 2206.58 253.133 Q2206.58 247.786 2205.05 242.578 Q2203.55 237.37 2200.47 232.046 Z" fill="#000000" fill-rule="nonzero" fill-opacity="1" /><polyline clip-path="url(#clip200)" style="stroke:#c271d2; stroke-linecap:round; stroke-linejoin:round; stroke-width:4; stroke-opacity:1; fill:none" points="1509.42,302.578 1658.79,302.578 "/>
<path clip-path="url(#clip200)" d="M1711.56 287.96 L1711.56 292.89 Q1709.2 290.691 1706.51 289.603 Q1703.85 288.515 1700.84 288.515 Q1694.91 288.515 1691.77 292.149 Q1688.62 295.76 1688.62 302.612 Q1688.62 309.441 1691.77 313.075 Q1694.91 316.686 1700.84 316.686 Q1703.85 316.686 1706.51 315.598 Q1709.2 314.51 1711.56 312.311 L1711.56 317.196 Q1709.1 318.862 1706.35 319.696 Q1703.62 320.529 1700.56 320.529 Q1692.71 320.529 1688.2 315.737 Q1683.69 310.922 1683.69 302.612 Q1683.69 294.279 1688.2 289.487 Q1692.71 284.673 1700.56 284.673 Q1703.66 284.673 1706.4 285.506 Q1709.15 286.316 1711.56 287.96 Z" fill="#000000" fill-rule="nonzero" fill-opacity="1" /><path clip-path="url(#clip200)" d="M1718.59 283.839 L1722.85 283.839 L1722.85 319.858 L1718.59 319.858 L1718.59 283.839 Z" fill="#000000" fill-rule="nonzero" fill-opacity="1" /><path clip-path="url(#clip200)" d="M1743.55 306.825 Q1738.39 306.825 1736.39 308.006 Q1734.4 309.186 1734.4 312.034 Q1734.4 314.302 1735.89 315.645 Q1737.39 316.964 1739.96 316.964 Q1743.5 316.964 1745.63 314.464 Q1747.78 311.941 1747.78 307.774 L1747.78 306.825 L1743.55 306.825 M1752.04 305.066 L1752.04 319.858 L1747.78 319.858 L1747.78 315.922 Q1746.33 318.283 1744.15 319.418 Q1741.97 320.529 1738.83 320.529 Q1734.84 320.529 1732.48 318.307 Q1730.15 316.061 1730.15 312.311 Q1730.15 307.936 1733.06 305.714 Q1736 303.492 1741.81 303.492 L1747.78 303.492 L1747.78 303.075 Q1747.78 300.135 1745.84 298.538 Q1743.92 296.918 1740.42 296.918 Q1738.2 296.918 1736.09 297.45 Q1733.99 297.983 1732.04 299.047 L1732.04 295.112 Q1734.38 294.21 1736.58 293.77 Q1738.78 293.307 1740.86 293.307 Q1746.49 293.307 1749.27 296.223 Q1752.04 299.14 1752.04 305.066 Z" fill="#000000" fill-rule="nonzero" fill-opacity="1" /><path clip-path="url(#clip200)" d="M1771.6 322.265 Q1769.8 326.895 1768.08 328.307 Q1766.37 329.719 1763.5 329.719 L1760.1 329.719 L1760.1 326.154 L1762.6 326.154 Q1764.36 326.154 1765.33 325.32 Q1766.3 324.487 1767.48 321.385 L1768.25 319.441 L1757.76 293.932 L1762.27 293.932 L1770.38 314.209 L1778.48 293.932 L1782.99 293.932 L1771.6 322.265 Z" fill="#000000" fill-rule="nonzero" fill-opacity="1" /><path clip-path="url(#clip200)" d="M1793.08 286.571 L1793.08 293.932 L1801.86 293.932 L1801.86 297.242 L1793.08 297.242 L1793.08 311.316 Q1793.08 314.487 1793.94 315.39 Q1794.82 316.293 1797.48 316.293 L1801.86 316.293 L1801.86 319.858 L1797.48 319.858 Q1792.55 319.858 1790.68 318.029 Q1788.8 316.177 1788.8 311.316 L1788.8 297.242 L1785.68 297.242 L1785.68 293.932 L1788.8 293.932 L1788.8 286.571 L1793.08 286.571 Z" fill="#000000" fill-rule="nonzero" fill-opacity="1" /><path clip-path="url(#clip200)" d="M1817.51 296.918 Q1814.08 296.918 1812.09 299.603 Q1810.1 302.265 1810.1 306.918 Q1810.1 311.571 1812.07 314.256 Q1814.06 316.918 1817.51 316.918 Q1820.91 316.918 1822.9 314.233 Q1824.89 311.547 1824.89 306.918 Q1824.89 302.311 1822.9 299.626 Q1820.91 296.918 1817.51 296.918 M1817.51 293.307 Q1823.06 293.307 1826.23 296.918 Q1829.4 300.529 1829.4 306.918 Q1829.4 313.284 1826.23 316.918 Q1823.06 320.529 1817.51 320.529 Q1811.93 320.529 1808.76 316.918 Q1805.61 313.284 1805.61 306.918 Q1805.61 300.529 1808.76 296.918 Q1811.93 293.307 1817.51 293.307 Z" fill="#000000" fill-rule="nonzero" fill-opacity="1" /><path clip-path="url(#clip200)" d="M1858.01 304.209 L1858.01 319.858 L1853.76 319.858 L1853.76 304.348 Q1853.76 300.668 1852.32 298.839 Q1850.89 297.01 1848.01 297.01 Q1844.57 297.01 1842.57 299.21 Q1840.58 301.409 1840.58 305.205 L1840.58 319.858 L1836.3 319.858 L1836.3 293.932 L1840.58 293.932 L1840.58 297.96 Q1842.11 295.622 1844.17 294.464 Q1846.26 293.307 1848.96 293.307 Q1853.43 293.307 1855.72 296.085 Q1858.01 298.839 1858.01 304.209 Z" fill="#000000" fill-rule="nonzero" fill-opacity="1" /><path clip-path="url(#clip200)" d="M1890.26 314.927 L1890.26 305.645 L1882.62 305.645 L1882.62 301.802 L1894.89 301.802 L1894.89 316.64 Q1892.18 318.561 1888.92 319.557 Q1885.65 320.529 1881.95 320.529 Q1873.85 320.529 1869.26 315.807 Q1864.7 311.061 1864.7 302.612 Q1864.7 294.14 1869.26 289.418 Q1873.85 284.673 1881.95 284.673 Q1885.33 284.673 1888.36 285.506 Q1891.42 286.339 1893.99 287.96 L1893.99 292.936 Q1891.39 290.737 1888.48 289.626 Q1885.56 288.515 1882.34 288.515 Q1876 288.515 1872.81 292.057 Q1869.64 295.598 1869.64 302.612 Q1869.64 309.603 1872.81 313.145 Q1876 316.686 1882.34 316.686 Q1884.82 316.686 1886.76 316.27 Q1888.71 315.83 1890.26 314.927 Z" fill="#000000" fill-rule="nonzero" fill-opacity="1" /><path clip-path="url(#clip200)" d="M1925.42 305.83 L1925.42 307.913 L1905.84 307.913 Q1906.12 312.311 1908.48 314.626 Q1910.86 316.918 1915.1 316.918 Q1917.55 316.918 1919.84 316.316 Q1922.16 315.714 1924.43 314.51 L1924.43 318.538 Q1922.13 319.51 1919.73 320.02 Q1917.32 320.529 1914.84 320.529 Q1908.64 320.529 1905.01 316.918 Q1901.39 313.307 1901.39 307.149 Q1901.39 300.784 1904.82 297.057 Q1908.27 293.307 1914.1 293.307 Q1919.33 293.307 1922.37 296.686 Q1925.42 300.043 1925.42 305.83 M1921.16 304.58 Q1921.12 301.085 1919.19 299.001 Q1917.3 296.918 1914.15 296.918 Q1910.58 296.918 1908.43 298.932 Q1906.3 300.946 1905.98 304.603 L1921.16 304.58 Z" fill="#000000" fill-rule="nonzero" fill-opacity="1" /><path clip-path="url(#clip200)" d="M1953.96 304.209 L1953.96 319.858 L1949.7 319.858 L1949.7 304.348 Q1949.7 300.668 1948.27 298.839 Q1946.83 297.01 1943.96 297.01 Q1940.51 297.01 1938.52 299.21 Q1936.53 301.409 1936.53 305.205 L1936.53 319.858 L1932.25 319.858 L1932.25 293.932 L1936.53 293.932 L1936.53 297.96 Q1938.06 295.622 1940.12 294.464 Q1942.2 293.307 1944.91 293.307 Q1949.38 293.307 1951.67 296.085 Q1953.96 298.839 1953.96 304.209 Z" fill="#000000" fill-rule="nonzero" fill-opacity="1" /><path clip-path="url(#clip200)" d="M1984.63 305.83 L1984.63 307.913 L1965.05 307.913 Q1965.33 312.311 1967.69 314.626 Q1970.07 316.918 1974.31 316.918 Q1976.76 316.918 1979.06 316.316 Q1981.37 315.714 1983.64 314.51 L1983.64 318.538 Q1981.35 319.51 1978.94 320.02 Q1976.53 320.529 1974.06 320.529 Q1967.85 320.529 1964.22 316.918 Q1960.61 313.307 1960.61 307.149 Q1960.61 300.784 1964.03 297.057 Q1967.48 293.307 1973.32 293.307 Q1978.55 293.307 1981.58 296.686 Q1984.63 300.043 1984.63 305.83 M1980.38 304.58 Q1980.33 301.085 1978.41 299.001 Q1976.51 296.918 1973.36 296.918 Q1969.8 296.918 1967.64 298.932 Q1965.51 300.946 1965.19 304.603 L1980.38 304.58 Z" fill="#000000" fill-rule="nonzero" fill-opacity="1" /><path clip-path="url(#clip200)" d="M2006.65 297.913 Q2005.93 297.497 2005.07 297.311 Q2004.24 297.103 2003.22 297.103 Q1999.61 297.103 1997.67 299.464 Q1995.75 301.802 1995.75 306.2 L1995.75 319.858 L1991.46 319.858 L1991.46 293.932 L1995.75 293.932 L1995.75 297.96 Q1997.09 295.598 1999.24 294.464 Q2001.39 293.307 2004.47 293.307 Q2004.91 293.307 2005.44 293.376 Q2005.98 293.423 2006.63 293.538 L2006.65 297.913 Z" fill="#000000" fill-rule="nonzero" fill-opacity="1" /><path clip-path="url(#clip200)" d="M2022.9 306.825 Q2017.74 306.825 2015.75 308.006 Q2013.75 309.186 2013.75 312.034 Q2013.75 314.302 2015.24 315.645 Q2016.74 316.964 2019.31 316.964 Q2022.85 316.964 2024.98 314.464 Q2027.13 311.941 2027.13 307.774 L2027.13 306.825 L2022.9 306.825 M2031.39 305.066 L2031.39 319.858 L2027.13 319.858 L2027.13 315.922 Q2025.68 318.283 2023.5 319.418 Q2021.32 320.529 2018.18 320.529 Q2014.19 320.529 2011.83 318.307 Q2009.5 316.061 2009.5 312.311 Q2009.5 307.936 2012.41 305.714 Q2015.35 303.492 2021.16 303.492 L2027.13 303.492 L2027.13 303.075 Q2027.13 300.135 2025.19 298.538 Q2023.27 296.918 2019.77 296.918 Q2017.55 296.918 2015.44 297.45 Q2013.34 297.983 2011.39 299.047 L2011.39 295.112 Q2013.73 294.21 2015.93 293.77 Q2018.13 293.307 2020.21 293.307 Q2025.84 293.307 2028.62 296.223 Q2031.39 299.14 2031.39 305.066 Z" fill="#000000" fill-rule="nonzero" fill-opacity="1" /><path clip-path="url(#clip200)" d="M2044.38 286.571 L2044.38 293.932 L2053.15 293.932 L2053.15 297.242 L2044.38 297.242 L2044.38 311.316 Q2044.38 314.487 2045.24 315.39 Q2046.12 316.293 2048.78 316.293 L2053.15 316.293 L2053.15 319.858 L2048.78 319.858 Q2043.85 319.858 2041.97 318.029 Q2040.1 316.177 2040.1 311.316 L2040.1 297.242 L2036.97 297.242 L2036.97 293.932 L2040.1 293.932 L2040.1 286.571 L2044.38 286.571 Z" fill="#000000" fill-rule="nonzero" fill-opacity="1" /><path clip-path="url(#clip200)" d="M2068.8 296.918 Q2065.37 296.918 2063.38 299.603 Q2061.39 302.265 2061.39 306.918 Q2061.39 311.571 2063.36 314.256 Q2065.35 316.918 2068.8 316.918 Q2072.2 316.918 2074.19 314.233 Q2076.18 311.547 2076.18 306.918 Q2076.18 302.311 2074.19 299.626 Q2072.2 296.918 2068.8 296.918 M2068.8 293.307 Q2074.36 293.307 2077.53 296.918 Q2080.7 300.529 2080.7 306.918 Q2080.7 313.284 2077.53 316.918 Q2074.36 320.529 2068.8 320.529 Q2063.22 320.529 2060.05 316.918 Q2056.9 313.284 2056.9 306.918 Q2056.9 300.529 2060.05 296.918 Q2063.22 293.307 2068.8 293.307 Z" fill="#000000" fill-rule="nonzero" fill-opacity="1" /><path clip-path="url(#clip200)" d="M2102.78 297.913 Q2102.06 297.497 2101.21 297.311 Q2100.37 297.103 2099.36 297.103 Q2095.74 297.103 2093.8 299.464 Q2091.88 301.802 2091.88 306.2 L2091.88 319.858 L2087.6 319.858 L2087.6 293.932 L2091.88 293.932 L2091.88 297.96 Q2093.22 295.598 2095.37 294.464 Q2097.53 293.307 2100.61 293.307 Q2101.05 293.307 2101.58 293.376 Q2102.11 293.423 2102.76 293.538 L2102.78 297.913 Z" fill="#000000" fill-rule="nonzero" fill-opacity="1" /><path clip-path="url(#clip200)" d="M2117.48 283.886 Q2114.38 289.21 2112.87 294.418 Q2111.37 299.626 2111.37 304.973 Q2111.37 310.321 2112.87 315.575 Q2114.4 320.807 2117.48 326.108 L2113.78 326.108 Q2110.31 320.668 2108.57 315.413 Q2106.86 310.159 2106.86 304.973 Q2106.86 299.811 2108.57 294.58 Q2110.28 289.348 2113.78 283.886 L2117.48 283.886 Z" fill="#000000" fill-rule="nonzero" fill-opacity="1" /><path clip-path="url(#clip200)" d="M2127.16 315.922 L2134.8 315.922 L2134.8 289.557 L2126.49 291.223 L2126.49 286.964 L2134.75 285.298 L2139.43 285.298 L2139.43 315.922 L2147.06 315.922 L2147.06 319.858 L2127.16 319.858 L2127.16 315.922 Z" fill="#000000" fill-rule="nonzero" fill-opacity="1" /><path clip-path="url(#clip200)" d="M2155.24 283.886 L2158.94 283.886 Q2162.41 289.348 2164.12 294.58 Q2165.86 299.811 2165.86 304.973 Q2165.86 310.159 2164.12 315.413 Q2162.41 320.668 2158.94 326.108 L2155.24 326.108 Q2158.31 320.807 2159.82 315.575 Q2161.35 310.321 2161.35 304.973 Q2161.35 299.626 2159.82 294.418 Q2158.31 289.21 2155.24 283.886 Z" fill="#000000" fill-rule="nonzero" fill-opacity="1" /><polyline clip-path="url(#clip200)" style="stroke:#ac8d18; stroke-linecap:round; stroke-linejoin:round; stroke-width:4; stroke-opacity:1; fill:none" points="1509.42,354.418 1658.79,354.418 "/>
<path clip-path="url(#clip200)" d="M1711.56 339.8 L1711.56 344.73 Q1709.2 342.531 1706.51 341.443 Q1703.85 340.355 1700.84 340.355 Q1694.91 340.355 1691.77 343.989 Q1688.62 347.6 1688.62 354.452 Q1688.62 361.281 1691.77 364.915 Q1694.91 368.526 1700.84 368.526 Q1703.85 368.526 1706.51 367.438 Q1709.2 366.35 1711.56 364.151 L1711.56 369.036 Q1709.1 370.702 1706.35 371.536 Q1703.62 372.369 1700.56 372.369 Q1692.71 372.369 1688.2 367.577 Q1683.69 362.762 1683.69 354.452 Q1683.69 346.119 1688.2 341.327 Q1692.71 336.513 1700.56 336.513 Q1703.66 336.513 1706.4 337.346 Q1709.15 338.156 1711.56 339.8 Z" fill="#000000" fill-rule="nonzero" fill-opacity="1" /><path clip-path="url(#clip200)" d="M1718.59 335.679 L1722.85 335.679 L1722.85 371.698 L1718.59 371.698 L1718.59 335.679 Z" fill="#000000" fill-rule="nonzero" fill-opacity="1" /><path clip-path="url(#clip200)" d="M1743.55 358.665 Q1738.39 358.665 1736.39 359.846 Q1734.4 361.026 1734.4 363.874 Q1734.4 366.142 1735.89 367.485 Q1737.39 368.804 1739.96 368.804 Q1743.5 368.804 1745.63 366.304 Q1747.78 363.781 1747.78 359.614 L1747.78 358.665 L1743.55 358.665 M1752.04 356.906 L1752.04 371.698 L1747.78 371.698 L1747.78 367.762 Q1746.33 370.123 1744.15 371.258 Q1741.97 372.369 1738.83 372.369 Q1734.84 372.369 1732.48 370.147 Q1730.15 367.901 1730.15 364.151 Q1730.15 359.776 1733.06 357.554 Q1736 355.332 1741.81 355.332 L1747.78 355.332 L1747.78 354.915 Q1747.78 351.975 1745.84 350.378 Q1743.92 348.758 1740.42 348.758 Q1738.2 348.758 1736.09 349.29 Q1733.99 349.823 1732.04 350.887 L1732.04 346.952 Q1734.38 346.05 1736.58 345.61 Q1738.78 345.147 1740.86 345.147 Q1746.49 345.147 1749.27 348.063 Q1752.04 350.98 1752.04 356.906 Z" fill="#000000" fill-rule="nonzero" fill-opacity="1" /><path clip-path="url(#clip200)" d="M1771.6 374.105 Q1769.8 378.735 1768.08 380.147 Q1766.37 381.559 1763.5 381.559 L1760.1 381.559 L1760.1 377.994 L1762.6 377.994 Q1764.36 377.994 1765.33 377.16 Q1766.3 376.327 1767.48 373.225 L1768.25 371.281 L1757.76 345.772 L1762.27 345.772 L1770.38 366.049 L1778.48 345.772 L1782.99 345.772 L1771.6 374.105 Z" fill="#000000" fill-rule="nonzero" fill-opacity="1" /><path clip-path="url(#clip200)" d="M1793.08 338.411 L1793.08 345.772 L1801.86 345.772 L1801.86 349.082 L1793.08 349.082 L1793.08 363.156 Q1793.08 366.327 1793.94 367.23 Q1794.82 368.133 1797.48 368.133 L1801.86 368.133 L1801.86 371.698 L1797.48 371.698 Q1792.55 371.698 1790.68 369.869 Q1788.8 368.017 1788.8 363.156 L1788.8 349.082 L1785.68 349.082 L1785.68 345.772 L1788.8 345.772 L1788.8 338.411 L1793.08 338.411 Z" fill="#000000" fill-rule="nonzero" fill-opacity="1" /><path clip-path="url(#clip200)" d="M1817.51 348.758 Q1814.08 348.758 1812.09 351.443 Q1810.1 354.105 1810.1 358.758 Q1810.1 363.411 1812.07 366.096 Q1814.06 368.758 1817.51 368.758 Q1820.91 368.758 1822.9 366.073 Q1824.89 363.387 1824.89 358.758 Q1824.89 354.151 1822.9 351.466 Q1820.91 348.758 1817.51 348.758 M1817.51 345.147 Q1823.06 345.147 1826.23 348.758 Q1829.4 352.369 1829.4 358.758 Q1829.4 365.124 1826.23 368.758 Q1823.06 372.369 1817.51 372.369 Q1811.93 372.369 1808.76 368.758 Q1805.61 365.124 1805.61 358.758 Q1805.61 352.369 1808.76 348.758 Q1811.93 345.147 1817.51 345.147 Z" fill="#000000" fill-rule="nonzero" fill-opacity="1" /><path clip-path="url(#clip200)" d="M1858.01 356.049 L1858.01 371.698 L1853.76 371.698 L1853.76 356.188 Q1853.76 352.508 1852.32 350.679 Q1850.89 348.85 1848.01 348.85 Q1844.57 348.85 1842.57 351.05 Q1840.58 353.249 1840.58 357.045 L1840.58 371.698 L1836.3 371.698 L1836.3 345.772 L1840.58 345.772 L1840.58 349.8 Q1842.11 347.462 1844.17 346.304 Q1846.26 345.147 1848.96 345.147 Q1853.43 345.147 1855.72 347.925 Q1858.01 350.679 1858.01 356.049 Z" fill="#000000" fill-rule="nonzero" fill-opacity="1" /><path clip-path="url(#clip200)" d="M1890.26 366.767 L1890.26 357.485 L1882.62 357.485 L1882.62 353.642 L1894.89 353.642 L1894.89 368.48 Q1892.18 370.401 1888.92 371.397 Q1885.65 372.369 1881.95 372.369 Q1873.85 372.369 1869.26 367.647 Q1864.7 362.901 1864.7 354.452 Q1864.7 345.98 1869.26 341.258 Q1873.85 336.513 1881.95 336.513 Q1885.33 336.513 1888.36 337.346 Q1891.42 338.179 1893.99 339.8 L1893.99 344.776 Q1891.39 342.577 1888.48 341.466 Q1885.56 340.355 1882.34 340.355 Q1876 340.355 1872.81 343.897 Q1869.64 347.438 1869.64 354.452 Q1869.64 361.443 1872.81 364.985 Q1876 368.526 1882.34 368.526 Q1884.82 368.526 1886.76 368.11 Q1888.71 367.67 1890.26 366.767 Z" fill="#000000" fill-rule="nonzero" fill-opacity="1" /><path clip-path="url(#clip200)" d="M1925.42 357.67 L1925.42 359.753 L1905.84 359.753 Q1906.12 364.151 1908.48 366.466 Q1910.86 368.758 1915.1 368.758 Q1917.55 368.758 1919.84 368.156 Q1922.16 367.554 1924.43 366.35 L1924.43 370.378 Q1922.13 371.35 1919.73 371.86 Q1917.32 372.369 1914.84 372.369 Q1908.64 372.369 1905.01 368.758 Q1901.39 365.147 1901.39 358.989 Q1901.39 352.624 1904.82 348.897 Q1908.27 345.147 1914.1 345.147 Q1919.33 345.147 1922.37 348.526 Q1925.42 351.883 1925.42 357.67 M1921.16 356.42 Q1921.12 352.925 1919.19 350.841 Q1917.3 348.758 1914.15 348.758 Q1910.58 348.758 1908.43 350.772 Q1906.3 352.786 1905.98 356.443 L1921.16 356.42 Z" fill="#000000" fill-rule="nonzero" fill-opacity="1" /><path clip-path="url(#clip200)" d="M1953.96 356.049 L1953.96 371.698 L1949.7 371.698 L1949.7 356.188 Q1949.7 352.508 1948.27 350.679 Q1946.83 348.85 1943.96 348.85 Q1940.51 348.85 1938.52 351.05 Q1936.53 353.249 1936.53 357.045 L1936.53 371.698 L1932.25 371.698 L1932.25 345.772 L1936.53 345.772 L1936.53 349.8 Q1938.06 347.462 1940.12 346.304 Q1942.2 345.147 1944.91 345.147 Q1949.38 345.147 1951.67 347.925 Q1953.96 350.679 1953.96 356.049 Z" fill="#000000" fill-rule="nonzero" fill-opacity="1" /><path clip-path="url(#clip200)" d="M1984.63 357.67 L1984.63 359.753 L1965.05 359.753 Q1965.33 364.151 1967.69 366.466 Q1970.07 368.758 1974.31 368.758 Q1976.76 368.758 1979.06 368.156 Q1981.37 367.554 1983.64 366.35 L1983.64 370.378 Q1981.35 371.35 1978.94 371.86 Q1976.53 372.369 1974.06 372.369 Q1967.85 372.369 1964.22 368.758 Q1960.61 365.147 1960.61 358.989 Q1960.61 352.624 1964.03 348.897 Q1967.48 345.147 1973.32 345.147 Q1978.55 345.147 1981.58 348.526 Q1984.63 351.883 1984.63 357.67 M1980.38 356.42 Q1980.33 352.925 1978.41 350.841 Q1976.51 348.758 1973.36 348.758 Q1969.8 348.758 1967.64 350.772 Q1965.51 352.786 1965.19 356.443 L1980.38 356.42 Z" fill="#000000" fill-rule="nonzero" fill-opacity="1" /><path clip-path="url(#clip200)" d="M2006.65 349.753 Q2005.93 349.337 2005.07 349.151 Q2004.24 348.943 2003.22 348.943 Q1999.61 348.943 1997.67 351.304 Q1995.75 353.642 1995.75 358.04 L1995.75 371.698 L1991.46 371.698 L1991.46 345.772 L1995.75 345.772 L1995.75 349.8 Q1997.09 347.438 1999.24 346.304 Q2001.39 345.147 2004.47 345.147 Q2004.91 345.147 2005.44 345.216 Q2005.98 345.263 2006.63 345.378 L2006.65 349.753 Z" fill="#000000" fill-rule="nonzero" fill-opacity="1" /><path clip-path="url(#clip200)" d="M2022.9 358.665 Q2017.74 358.665 2015.75 359.846 Q2013.75 361.026 2013.75 363.874 Q2013.75 366.142 2015.24 367.485 Q2016.74 368.804 2019.31 368.804 Q2022.85 368.804 2024.98 366.304 Q2027.13 363.781 2027.13 359.614 L2027.13 358.665 L2022.9 358.665 M2031.39 356.906 L2031.39 371.698 L2027.13 371.698 L2027.13 367.762 Q2025.68 370.123 2023.5 371.258 Q2021.32 372.369 2018.18 372.369 Q2014.19 372.369 2011.83 370.147 Q2009.5 367.901 2009.5 364.151 Q2009.5 359.776 2012.41 357.554 Q2015.35 355.332 2021.16 355.332 L2027.13 355.332 L2027.13 354.915 Q2027.13 351.975 2025.19 350.378 Q2023.27 348.758 2019.77 348.758 Q2017.55 348.758 2015.44 349.29 Q2013.34 349.823 2011.39 350.887 L2011.39 346.952 Q2013.73 346.05 2015.93 345.61 Q2018.13 345.147 2020.21 345.147 Q2025.84 345.147 2028.62 348.063 Q2031.39 350.98 2031.39 356.906 Z" fill="#000000" fill-rule="nonzero" fill-opacity="1" /><path clip-path="url(#clip200)" d="M2044.38 338.411 L2044.38 345.772 L2053.15 345.772 L2053.15 349.082 L2044.38 349.082 L2044.38 363.156 Q2044.38 366.327 2045.24 367.23 Q2046.12 368.133 2048.78 368.133 L2053.15 368.133 L2053.15 371.698 L2048.78 371.698 Q2043.85 371.698 2041.97 369.869 Q2040.1 368.017 2040.1 363.156 L2040.1 349.082 L2036.97 349.082 L2036.97 345.772 L2040.1 345.772 L2040.1 338.411 L2044.38 338.411 Z" fill="#000000" fill-rule="nonzero" fill-opacity="1" /><path clip-path="url(#clip200)" d="M2068.8 348.758 Q2065.37 348.758 2063.38 351.443 Q2061.39 354.105 2061.39 358.758 Q2061.39 363.411 2063.36 366.096 Q2065.35 368.758 2068.8 368.758 Q2072.2 368.758 2074.19 366.073 Q2076.18 363.387 2076.18 358.758 Q2076.18 354.151 2074.19 351.466 Q2072.2 348.758 2068.8 348.758 M2068.8 345.147 Q2074.36 345.147 2077.53 348.758 Q2080.7 352.369 2080.7 358.758 Q2080.7 365.124 2077.53 368.758 Q2074.36 372.369 2068.8 372.369 Q2063.22 372.369 2060.05 368.758 Q2056.9 365.124 2056.9 358.758 Q2056.9 352.369 2060.05 348.758 Q2063.22 345.147 2068.8 345.147 Z" fill="#000000" fill-rule="nonzero" fill-opacity="1" /><path clip-path="url(#clip200)" d="M2102.78 349.753 Q2102.06 349.337 2101.21 349.151 Q2100.37 348.943 2099.36 348.943 Q2095.74 348.943 2093.8 351.304 Q2091.88 353.642 2091.88 358.04 L2091.88 371.698 L2087.6 371.698 L2087.6 345.772 L2091.88 345.772 L2091.88 349.8 Q2093.22 347.438 2095.37 346.304 Q2097.53 345.147 2100.61 345.147 Q2101.05 345.147 2101.58 345.216 Q2102.11 345.263 2102.76 345.378 L2102.78 349.753 Z" fill="#000000" fill-rule="nonzero" fill-opacity="1" /><path clip-path="url(#clip200)" d="M2117.48 335.726 Q2114.38 341.05 2112.87 346.258 Q2111.37 351.466 2111.37 356.813 Q2111.37 362.161 2112.87 367.415 Q2114.4 372.647 2117.48 377.948 L2113.78 377.948 Q2110.31 372.508 2108.57 367.253 Q2106.86 361.999 2106.86 356.813 Q2106.86 351.651 2108.57 346.42 Q2110.28 341.188 2113.78 335.726 L2117.48 335.726 Z" fill="#000000" fill-rule="nonzero" fill-opacity="1" /><path clip-path="url(#clip200)" d="M2126.39 337.138 L2144.75 337.138 L2144.75 341.073 L2130.68 341.073 L2130.68 349.545 Q2131.69 349.198 2132.71 349.036 Q2133.73 348.85 2134.75 348.85 Q2140.54 348.85 2143.92 352.022 Q2147.3 355.193 2147.3 360.61 Q2147.3 366.188 2143.82 369.29 Q2140.35 372.369 2134.03 372.369 Q2131.86 372.369 2129.59 371.998 Q2127.34 371.628 2124.93 370.887 L2124.93 366.188 Q2127.02 367.323 2129.24 367.878 Q2131.46 368.434 2133.94 368.434 Q2137.94 368.434 2140.28 366.327 Q2142.62 364.221 2142.62 360.61 Q2142.62 356.999 2140.28 354.892 Q2137.94 352.786 2133.94 352.786 Q2132.06 352.786 2130.19 353.202 Q2128.34 353.619 2126.39 354.499 L2126.39 337.138 Z" fill="#000000" fill-rule="nonzero" fill-opacity="1" /><path clip-path="url(#clip200)" d="M2155.24 335.726 L2158.94 335.726 Q2162.41 341.188 2164.12 346.42 Q2165.86 351.651 2165.86 356.813 Q2165.86 361.999 2164.12 367.253 Q2162.41 372.508 2158.94 377.948 L2155.24 377.948 Q2158.31 372.647 2159.82 367.415 Q2161.35 362.161 2161.35 356.813 Q2161.35 351.466 2159.82 346.258 Q2158.31 341.05 2155.24 335.726 Z" fill="#000000" fill-rule="nonzero" fill-opacity="1" /></svg>
